<svg xmlns="http://www.w3.org/2000/svg" xmlns:xlink="http://www.w3.org/1999/xlink" viewBox="0 0 500 500"><defs><clipPath id="clip-path--inject-159"><path d="M357.14,207.15c-4.44-7.32-22.46-35.46-22.46-35.46l3.11-14.4a.91.91,0,0,0-1.74-.51l-2.3,5.26-3.06-3.87c-.82-1.11-3.57-5.88-4.65-6.26-2.11-.72-.42,2.15-.18,2.86.54,1.54,1.22,2.53,2.17,5.15-.69.49-3.86-5.43-4.38-6.12-.22-.28-.49-.74-.9-.77-1.63-.12,0,2.63.25,3.27.74,1.84,1.55,3.66,2.29,5.5-.93-1.3-2-3.46-2.9-4.75a13.62,13.62,0,0,0-1.11-1.72c-.66-.66-1.41-.13-1.14.84a20.92,20.92,0,0,0,1.5,3c.77,1.48,1.48,2.31,2.24,3.79-.81-1.08-1.41-1.61-2.21-2.69-.31-.42-.85-1.38-1.35-1.58-1.75-.71.61,3.2.92,3.64,1.07,1.54,1.92,3.33,3.06,4.78.15.2,2.24,2.35,2.22,2.37l3.77,5.06.11-.08c1.46,4.19,6.9,19.69,10.21,27.14,3.84,8.65,11.22,14.74,13.46,15.38a23.89,23.89,0,0,0,5.45.65l4.16-10S359,208.4,357.14,207.15Z" style="fill:#fff"></path></clipPath><clipPath id="clip-path-2--inject-159"><path d="M390.41,191.8a23.5,23.5,0,0,1,1.24,8,17.3,17.3,0,0,1-1.74,6.47l10.2-8.21s-.25-2.74-.75-7.22-1.71-10.55-1.71-10.55Z" style="fill:#fff"></path></clipPath><clipPath id="clip-path-3--inject-159"><path d="M387.17,162.7s-5.22,2.73-6.71,6.71-.75,6.72-2,9-3.49,2.49-2,3.48,3.48,2.24,3.48,2.24,1,8,1.74,9.45,3.23,1,6.47,0,8-4.52,8.73-5.77.88-6.14.88-6.14S385.43,173.64,387.17,162.7Z" style="fill:#fff"></path></clipPath><clipPath id="clip-path-4--inject-159"><path d="M175.49,242.32l-13.16-20.23L156,241.25s13.78,14.11,17.48,14.78c9.63,1.75,18.36-.15,27.55-2.91,1.13-.34,10.4-2.9,16.34-4.85l4.8-1.85c.12-.09.19-.16.19-.22l-.44-5.35s-25.89.39-32.93,1.21A75.84,75.84,0,0,1,175.49,242.32Z" style="fill:#fff"></path></clipPath><clipPath id="clip-path-5--inject-159"><path d="M181.94,178.42l2.79,12.86-4,1.31s-1.5,15.1-2.56,16.2-11.46-2.72-11.46-2.72l-4.77,8-8.74-4.18,3.21-7.22s-6.57-24.2-6.49-29.86,3.11-7.63,10.58-9.26a33.56,33.56,0,0,1,13.91,0s-3.07-4.12,5-5,12.45,7.28,11.69,11.79S181.94,178.42,181.94,178.42Z" style="fill:#fff"></path></clipPath><clipPath id="clip-path-6--inject-159"><path d="M163.79,215.62s2.79,8.29,2,22.79-15.22,52.72-15.22,52.72l-3.29-.17a45.69,45.69,0,0,1-25.56-9.49l-5.85-4.53s12.73-36.86,17.61-50.77,16.2-16.37,19.5-17.09S163.85,213.63,163.79,215.62Z" style="fill:#fff"></path></clipPath><clipPath id="clip-path-7--inject-159"><path d="M138.94,232.81c1.28,4.8,20.56,44.68,22.39,45.66s56.2,6.59,56.2,6.59l2.18-4.64-48.35-15.2-16.53-42.09" style="fill:#fff"></path></clipPath><clipPath id="clip-path-8--inject-159"><path d="M387.36,236.93l-1.87,1.88s-7.51-.38-12.39.75S347,242.1,347,242.1l-6.15.64L330.32,232.4a.91.91,0,0,0-1.36,1.2l3.2,4.76-4.9.5c-1.38.11-6.88-.13-7.78.58-1.74,1.39,1.59,1.5,2.32,1.67,1.59.38,2.79.34,5.51.93.05.85-6.66.36-7.51.43-.36,0-.89,0-1.14.34-1,1.31,2.22,1.42,2.9,1.54,1.95.37,3.91.66,5.86,1-1.58.09-4-.19-5.55-.1a15.58,15.58,0,0,0-2.05,0c-.91.21-.87,1.13.1,1.42a21.05,21.05,0,0,0,3.37.36c1.66.15,2.74,0,4.4.14-1.35.1-2.11.33-3.46.42a5,5,0,0,0-2.05.3c-1.54,1.09,3,1.19,3.56,1.17,1.87-.07,3.84.16,5.67,0,.26,0,3.19-.63,3.2-.6l6.29-.47v-.1c4.54.44,26.69,2.54,34.09,2.54,8.25,0,18-2.62,18-2.62l3-7.51Z" style="fill:#fff"></path></clipPath><clipPath id="clip-path-9--inject-159"><path d="M403.24,203.25s-5.1-1.41-7.2,2.64-11,30.42-11,30.42l10.15,8.21S407,225.77,408.85,220.4a17,17,0,0,0,.68-9.38" style="fill:#fff"></path></clipPath><clipPath id="clip-path-10--inject-159"><path d="M397,207.07s-1-5-5.45-5S360.45,206,360.45,206l-1.89,13.64s20.68.68,26.13-.11a16.51,16.51,0,0,0,8.4-3.55" style="fill:#fff"></path></clipPath><clipPath id="clip-path-11--inject-159"><path d="M379.48,313.84s-1.87,10.52-.75,19.5,21.79,35.1,30.4,46.33,10.09,17.84,10.09,17.84,1.58,6-3.29,8.22-8.25,4.51-5.63,5.63,8.11.55,10.36.18,8.11-5.06,11.48-6.18,2.37-4.31.5-6.55-5.16-4.55-7.78-9.05a187.12,187.12,0,0,1-12.81-29.13c-4.87-13.85-15.92-26.08-15.92-26.08l5.81-20Z" style="fill:#fff"></path></clipPath><clipPath id="clip-path-12--inject-159"><path d="M374.1,302.23s-.5,26.49,2.9,34.73,9.5,25.2,11.58,36.16a211.93,211.93,0,0,1,3.63,32.38s-10.87,7.59-14.75,9-1,3.39,2.91,3.39a146.28,146.28,0,0,0,15.51-1c1-.17,1.94-.28,2.68-.35a2.08,2.08,0,0,0,1.88-2.33c-.28-2.33-2.19-5.58-2.19-8,0-3.88,3-19.81,4.91-34.84s-8.58-26-10.52-38.61,1.19-30.66,1.19-30.66Z" style="fill:#fff"></path></clipPath><clipPath id="clip-path-13--inject-159"><path d="M400.11,198s-7,5-14.68,10.2-9.95,7.71-10.2,12.43,1.25,12.19.25,14.43-3.59,12.73-4.55,18.25c-.54,3.09,15.6,3.18,22.1,2.17a4.22,4.22,0,0,0,3.48-3.35c1.08-5.43,4.2-19.15,9.07-26.27,6.47-9.45,4.74-18.82,2.75-22.55S404.33,195.53,400.11,198Z" style="fill:#fff"></path></clipPath><clipPath id="clip-path-14--inject-159"><path d="M359.52,218.17a24.65,24.65,0,0,1-5.59-.66c-2.33-.67-9.84-6.81-13.78-15.67-3.21-7.22-8.39-21.92-10.1-26.82a.54.54,0,0,1-.16-.14l-3.77-5.06,0,0c-.11-.13-.66-.71-1.07-1.14-.72-.76-1-1.1-1.13-1.21a27.25,27.25,0,0,1-1.8-2.76c-.4-.68-.82-1.39-1.27-2,0,0-2.23-3.28-1.47-4.24.17-.21.51-.41,1.15-.15l.06,0a10.74,10.74,0,0,1-.91-2,1.38,1.38,0,0,1,.48-1.63,1.21,1.21,0,0,1,1.5.3,3.89,3.89,0,0,1,.5.67c-.5-1.08-.84-2.07-.42-2.69a1.1,1.1,0,0,1,1.07-.43,1.67,1.67,0,0,1,1.17.85l.09.12c.14.19.4.63.85,1.38.34.59,1,1.65,1.59,2.61l-.24-.52c-.32-.7-.6-1.3-.86-2,0-.11-.12-.29-.21-.5-.56-1.21-1-2.26-.44-2.84.3-.33.79-.38,1.46-.15.88.31,2.21,2.3,3.87,4.87.43.68.81,1.27,1,1.55l2.53,3.21,2-4.49a1.41,1.41,0,0,1,2.4-.31,1.43,1.43,0,0,1,.29,1.09l-3.07,14.23c1.52,2.38,18,28.12,22.3,35.2,1.42.87,4.86.58,6.09.39a.48.48,0,0,1,.47.19.5.5,0,0,1,.07.5l-4.16,10A.51.51,0,0,1,359.52,218.17Zm-29-44.16.07,0a.48.48,0,0,1,.31.31c1.57,4.49,6.92,19.73,10.2,27.1,3.75,8.44,11,14.49,13.14,15.1a22.4,22.4,0,0,0,5,.62l3.7-8.88c-1.5.15-4.55.3-6-.72a.4.4,0,0,1-.14-.15c-4.39-7.23-22.28-35.17-22.46-35.45a.51.51,0,0,1-.07-.38l3.11-14.4a.43.43,0,0,0-.09-.29.43.43,0,0,0-.29-.15.42.42,0,0,0-.42.24l-2.29,5.26a.51.51,0,0,1-.4.29.52.52,0,0,1-.46-.18l-3.05-3.88c-.24-.32-.61-.89-1.08-1.62-.88-1.38-2.73-4.25-3.35-4.46a1.3,1.3,0,0,0-.38-.09,6.41,6.41,0,0,0,.6,1.72c.11.24.2.45.25.58a18.32,18.32,0,0,0,.82,2c.38.83.82,1.77,1.34,3.2a.48.48,0,0,1-.18.57.66.66,0,0,1-.53.11c-.75-.16-1.81-1.75-3.75-5-.35-.58-.67-1.13-.79-1.28l-.1-.14c-.12-.16-.31-.44-.44-.44a.33.33,0,0,0-.17,0c-.07.13,0,.62.71,2.11.09.19.17.36.21.47.38.95.78,1.89,1.18,2.83s.75,1.77,1.11,2.66a.5.5,0,0,1-.22.62.51.51,0,0,1-.65-.14c-.48-.67-1-1.56-1.48-2.42s-1-1.7-1.42-2.33c-.16-.23-.31-.49-.45-.74a4.2,4.2,0,0,0-.61-.92c-.13-.13-.24-.15-.27-.14s-.11.21,0,.49a12.7,12.7,0,0,0,1.05,2.19c.15.27.3.53.41.76.38.72.73,1.27,1.1,1.86s.75,1.17,1.15,1.93a.5.5,0,0,1-.85.53c-.39-.52-.73-.91-1.06-1.3s-.73-.83-1.15-1.4c-.07-.09-.15-.22-.24-.35a5.27,5.27,0,0,0-.81-1,13.11,13.11,0,0,0,1.43,2.85c.47.67.9,1.39,1.31,2.09a24.81,24.81,0,0,0,1.73,2.66c.09.11.58.62,1.07,1.13s1,1,1.15,1.26h0Z" style="fill:#263238;clip-path:url(#clip-path--inject-159)"></path></clipPath><clipPath id="clip-path-15--inject-159"><path d="M374.26,220.36c-7.23,0-15.19-.25-15.72-.27a.5.5,0,0,1-.36-.18.47.47,0,0,1-.12-.39l1.9-13.63a.5.5,0,0,1,.42-.43c1.08-.16,26.62-3.94,31.16-3.94h0c4.78,0,5.93,5.39,5.94,5.45a.5.5,0,0,1-1,.2c0-.19-1-4.63-5-4.65s-27.44,3.4-30.68,3.87l-1.76,12.72c3.33.1,20.64.57,25.49-.13a16.13,16.13,0,0,0,8.13-3.41.5.5,0,0,1,.71,0,.48.48,0,0,1,0,.7,16.79,16.79,0,0,1-8.67,3.67A92.85,92.85,0,0,1,374.26,220.36Z" style="fill:#263238;clip-path:url(#clip-path-10--inject-159)"></path></clipPath><clipPath id="clip-path-16--inject-159"><path d="M414.85,412.52a12.92,12.92,0,0,1-4.75-.7c-.79-.34-1.2-.82-1.21-1.43,0-.84.68-2.28,6.84-5.12,4.43-2,3-7.57,3-7.63s-1.59-6.68-10-17.67c-.72-.93-1.52-2-2.4-3.11-9.45-12.26-27.05-35.09-28.1-43.46-1.11-8.95.74-19.55.76-19.65a.51.51,0,0,1,.51-.42l22.46.75a.55.55,0,0,1,.39.21.48.48,0,0,1,.07.43l-5.73,19.7c1.48,1.69,11.34,13.24,15.83,26a187,187,0,0,0,12.77,29.05,30.69,30.69,0,0,0,5.55,6.71,30.09,30.09,0,0,1,2.18,2.27c1.48,1.77,2.12,3.67,1.72,5.08a3.42,3.42,0,0,1-2.44,2.26,34.74,34.74,0,0,0-6,3.27c-2.33,1.46-4.34,2.72-5.58,2.93A40.44,40.44,0,0,1,414.85,412.52Zm-34.94-98.17c-.33,2-1.66,11.13-.68,18.93,1,8.09,18.5,30.78,27.9,43l2.39,3.12c8.58,11.18,10.13,17.76,10.19,18,0,.05,1.62,6.39-3.57,8.78-5.82,2.69-6.26,3.89-6.25,4.2s.38.43.61.52c2.42,1,7.65.55,10.08.14,1-.17,3.16-1.5,5.21-2.78a34.61,34.61,0,0,1,6.19-3.38,2.5,2.5,0,0,0,1.8-1.58c.3-1.08-.28-2.68-1.53-4.17a27.78,27.78,0,0,0-2.11-2.19,31.74,31.74,0,0,1-5.72-6.92,189.32,189.32,0,0,1-12.84-29.23c-4.78-13.6-15.71-25.79-15.82-25.91a.48.48,0,0,1-.11-.47l5.63-19.35Z" style="fill:#263238;clip-path:url(#clip-path-11--inject-159)"></path></clipPath><clipPath id="clip-path-17--inject-159"><path d="M380.37,418.43c-2.4,0-5-.74-5.22-2.15-.11-.6.17-1.47,2.13-2.21,3.48-1.3,12.86-7.75,14.42-8.83a214,214,0,0,0-3.61-32c-2-10.81-8.18-27.85-11.55-36.06s-3-33.84-2.94-34.93a.51.51,0,0,1,.5-.49l19.73-.1h0a.49.49,0,0,1,.38.17.48.48,0,0,1,.11.41c0,.18-3.09,18.12-1.18,30.5.75,4.91,2.8,9.51,5,14.38,3.31,7.44,6.73,15.13,5.54,24.36-.87,6.75-1.93,13.58-2.87,19.6-1.13,7.31-2,13.07-2,15.18a14.33,14.33,0,0,0,1.14,4.4,17.36,17.36,0,0,1,1.05,3.58,2.59,2.59,0,0,1-2.33,2.9c-.85.08-1.74.2-2.64.35A149.62,149.62,0,0,1,380.37,418.43Zm-5.77-115.7c-.05,3.64-.21,26.6,2.86,34C381,345.34,387,362.06,389.08,373a214.94,214.94,0,0,1,3.63,32.47.53.53,0,0,1-.21.42c-.45.31-11,7.64-14.86,9.1-1.26.47-1.54.91-1.51,1.09.1.55,1.8,1.33,4.24,1.33a146.19,146.19,0,0,0,15.43-1c.92-.15,1.84-.27,2.71-.36a1.59,1.59,0,0,0,1.44-1.77,16.87,16.87,0,0,0-1-3.36,15,15,0,0,1-1.2-4.75c0-2.18.9-8,2-15.33.94-6,2-12.84,2.87-19.58,1.16-8.95-2.21-16.51-5.46-23.82-2.2-4.93-4.28-9.6-5.05-14.64-1.73-11.27.58-27,1.09-30.23Z" style="fill:#263238;clip-path:url(#clip-path-12--inject-159)"></path></clipPath><clipPath id="clip-path-18--inject-159"><path d="M383.6,256.56c-5.49,0-11.22-.52-12.73-2.05a1.39,1.39,0,0,1-.43-1.26c1-5.68,3.6-16.16,4.58-18.37.52-1.17.27-4.29,0-7.3a56.8,56.8,0,0,1-.3-7c.27-5.12,2.84-7.69,10.42-12.83s14.6-10.14,14.67-10.19l0,0a4.69,4.69,0,0,1,3.7-.69c2.26.63,3.69,3.31,5.06,5.89l.16.31c2,3.69,3.93,13.26-2.78,23.06-4.83,7.07-7.89,20.59-9,26.08a4.72,4.72,0,0,1-3.89,3.75A69.59,69.59,0,0,1,383.6,256.56Zm16.78-58.12c-.41.29-7.23,5.15-14.67,10.19-7.79,5.28-9.75,7.64-10,12.05a55.08,55.08,0,0,0,.3,6.82c.29,3.42.53,6.38-.09,7.78-1,2.17-3.54,12.51-4.52,18.14a.44.44,0,0,0,.16.39c1.95,2,14.94,2.19,21.38,1.19a3.71,3.71,0,0,0,3.06-2.95c1.11-5.55,4.21-19.24,9.15-26.45,6.43-9.41,4.59-18.52,2.72-22l-.16-.31c-1.28-2.4-2.6-4.88-4.45-5.4A3.64,3.64,0,0,0,400.38,198.44Z" style="fill:#263238;clip-path:url(#clip-path-13--inject-159)"></path></clipPath><clipPath id="clip-path-19--inject-159"><path d="M389.91,206.73a.47.47,0,0,1-.32-.12.48.48,0,0,1-.12-.62,17.13,17.13,0,0,0,1.68-6.26,22.85,22.85,0,0,0-1.22-7.76.52.52,0,0,1,.05-.44L397.23,180a.48.48,0,0,1,.51-.23.5.5,0,0,1,.4.4c0,.06,1.22,6.14,1.72,10.59s.74,7.2.74,7.22a.5.5,0,0,1-.18.44l-10.2,8.21A.51.51,0,0,1,389.91,206.73Zm1-14.87a23.5,23.5,0,0,1,1.19,7.93,18.23,18.23,0,0,1-1,4.8l8.43-6.79c-.07-.79-.31-3.3-.72-6.94-.35-3.2-1.08-7.26-1.46-9.27Z" style="fill:#263238;clip-path:url(#clip-path-2--inject-159)"></path></clipPath><clipPath id="clip-path-20--inject-159"><path d="M383.7,195a2.48,2.48,0,0,1-2.45-1.22c-.71-1.42-1.57-7.87-1.76-9.37-.54-.35-2.08-1.32-3.29-2.12a1.4,1.4,0,0,1-.72-1c0-.54.39-.89.92-1.33a6.49,6.49,0,0,0,1.63-1.83,9.24,9.24,0,0,0,.83-3.57,20,20,0,0,1,1.13-5.32c1.54-4.11,6.73-6.87,6.95-7a.51.51,0,0,1,.52,0,.52.52,0,0,1,.21.49c-1.68,10.5,10.26,18.35,10.38,18.43a.54.54,0,0,1,.23.44c0,.51-.16,5.06-.95,6.38s-5.72,5-9,6A17,17,0,0,1,383.7,195Zm-7.21-13.74s.1.08.26.19c1.49,1,3.47,2.24,3.47,2.24a.45.45,0,0,1,.23.36c.28,2.19,1.12,8.13,1.7,9.29s3.17.57,5.87-.26c3.13-1,7.77-4.41,8.45-5.55.47-.78.73-3.74.8-5.62-1.72-1.17-11.57-8.35-10.72-18.25-1.5.94-4.57,3.14-5.63,6a19.15,19.15,0,0,0-1.06,5.07,10,10,0,0,1-1,4,7.39,7.39,0,0,1-1.86,2.11A4.88,4.88,0,0,0,376.49,181.24Z" style="fill:#263238;clip-path:url(#clip-path-3--inject-159)"></path></clipPath><clipPath id="clip-path-21--inject-159"><path d="M181,257.21a42.32,42.32,0,0,1-7.62-.68c-3.82-.7-17.18-14.35-17.75-14.94a.49.49,0,0,1-.12-.5l6.39-19.16a.51.51,0,0,1,.41-.34.49.49,0,0,1,.48.23l13,20a76,76,0,0,0,13.1-.28c7-.81,32.73-1.21,33-1.21a.48.48,0,0,1,.51.46l.44,5.35a.8.8,0,0,1-.41.67.53.53,0,0,1-.1.06l-4.8,1.85c-4.69,1.54-11.41,3.44-14.63,4.36-.88.25-1.51.42-1.75.5C194,255.76,187.51,257.21,181,257.21Zm-24.44-16.1c4,4,14.14,13.91,17,14.43,9.14,1.67,17.53,0,27.31-2.9l1.77-.5c3.21-.92,9.92-2.82,14.56-4.34l4.63-1.79-.38-4.65c-3.53.06-26,.45-32.42,1.19a77.71,77.71,0,0,1-13.54.27.51.51,0,0,1-.37-.23l-12.6-19.36Z" style="fill:#263238;clip-path:url(#clip-path-4--inject-159)"></path></clipPath><clipPath id="clip-path-22--inject-159"><path d="M161.88,214.56a.41.41,0,0,1-.21-.05l-8.73-4.18a.49.49,0,0,1-.24-.65l3.13-7.06c-.63-2.35-6.53-24.35-6.46-29.83.07-6.23,3.76-8.17,11-9.74a34.45,34.45,0,0,1,13.11-.2,2.82,2.82,0,0,1,0-2.06c.64-1.46,2.59-2.37,5.8-2.73a10.51,10.51,0,0,1,9,3.33c2.4,2.54,3.74,6.26,3.28,9.05-.71,4.2-7.34,7.49-9,8.27l2.71,12.46a.5.5,0,0,1-.33.58L181.14,193c-.39,3.92-1.6,15.07-2.66,16.17s-7.56-1-11.6-2.46l-4.57,7.64A.5.5,0,0,1,161.88,214.56Zm-8.07-4.92,7.88,3.77,4.54-7.6a.52.52,0,0,1,.61-.21c4.67,1.72,10.19,3.29,10.93,2.83.59-.71,1.69-8.64,2.41-15.88a.5.5,0,0,1,.34-.43l3.63-1.18-2.7-12.42a.49.49,0,0,1,.29-.56c.08,0,8.11-3.5,8.81-7.69.42-2.5-.82-5.87-3-8.2a9.43,9.43,0,0,0-8.12-3c-3.52.38-4.65,1.36-5,2.12a2.34,2.34,0,0,0,.34,2.08.5.5,0,0,1,0,.58.5.5,0,0,1-.53.2,33.25,33.25,0,0,0-13.68,0c-7.75,1.68-10.13,3.73-10.19,8.77-.07,5.53,6.41,29.49,6.48,29.73a.5.5,0,0,1,0,.34Z" style="fill:#263238;clip-path:url(#clip-path-5--inject-159)"></path></clipPath><clipPath id="clip-path-23--inject-159"><path d="M150.57,291.63h0l-3.3-.17a46,46,0,0,1-25.84-9.59l-5.85-4.53a.51.51,0,0,1-.17-.56c.13-.37,12.79-37,17.62-50.77,3.29-9.41,10-15.27,19.86-17.42,2.32-.5,6.4,1.58,9.07,3.8,1.06.88,2.3,2.13,2.35,3.15.28.89,2.75,9.21,2,22.9-.79,14.41-14.65,51.3-15.24,52.86A.5.5,0,0,1,150.57,291.63Zm-34.11-14.87,5.56,4.32a45,45,0,0,0,25.29,9.38l2.92.15c1.44-3.84,14.31-38.69,15.06-52.23.78-14.22-1.94-22.52-2-22.6a.47.47,0,0,1,0-.17c0-.29-.4-1.13-2-2.45-2.46-2-6.3-4-8.21-3.59-9.53,2.07-16,7.71-19.14,16.77C129.38,239.37,117.75,273,116.46,276.76Z" style="fill:#263238;clip-path:url(#clip-path-6--inject-159)"></path></clipPath><clipPath id="clip-path-24--inject-159"><path d="M217.53,285.56h-.05c-5.57-.58-54.52-5.64-56.39-6.65-2.19-1.18-21.43-41.45-22.63-46a.5.5,0,0,1,.36-.61.49.49,0,0,1,.61.35c1.34,5,20.39,44,22.16,45.36,1.52.7,34,4.25,55.64,6.49l1.78-3.81-47.8-15a.51.51,0,0,1-.31-.3l-16.54-42.09a.5.5,0,1,1,.93-.36l16.45,41.87,48.12,15.12a.5.5,0,0,1,.3.27.51.51,0,0,1,0,.42L218,285.27A.51.51,0,0,1,217.53,285.56Z" style="fill:#263238;clip-path:url(#clip-path-7--inject-159)"></path></clipPath><clipPath id="clip-path-25--inject-159"><path d="M375,250.94c-7.27,0-28.85-2-33.84-2.52a.5.5,0,0,1-.2.08l-6.28.47h0l-1.55.3c-1,.2-1.48.29-1.61.3a25.78,25.78,0,0,1-3.29,0c-.8,0-1.62-.05-2.41,0,0,0-4,.13-4.36-1-.09-.26-.08-.65.48-1.05l.06,0a11.29,11.29,0,0,1-2.16-.29,1.37,1.37,0,0,1-1.11-1.28,1.19,1.19,0,0,1,1-1.1,3.49,3.49,0,0,1,.84-.07c-1.18-.16-2.19-.4-2.49-1.09a1.08,1.08,0,0,1,.2-1.13,1.68,1.68,0,0,1,1.35-.53h.15c.24,0,.74,0,1.62,0,.68,0,1.9.06,3.06,0l-.57-.07a19.84,19.84,0,0,1-2.18-.37c-.12,0-.31,0-.54-.08-1.32-.19-2.43-.4-2.63-1.16-.12-.43.1-.87.65-1.31.73-.58,3.13-.64,6.19-.66.81,0,1.5,0,1.86,0l4.06-.42-2.73-4.06a1.41,1.41,0,0,1,2.1-1.86L341,242.22l5.91-.61c.23,0,21.3-1.44,26.09-2.54,4.47-1,11-.83,12.3-.77l1.72-1.72a.51.51,0,0,1,.54-.12l8.63,3.38a.57.57,0,0,1,.28.27.5.5,0,0,1,0,.38l-3,7.51a.49.49,0,0,1-.34.3C393,248.33,383.21,250.94,375,250.94Zm-34.05-3.54h0c4.39.42,26.66,2.54,34,2.54s16.11-2.15,17.65-2.54l2.73-6.81-7.86-3.08-1.65,1.65a.47.47,0,0,1-.38.15c-.07,0-7.49-.36-12.25.73s-25.35,2.5-26.22,2.56l-6.13.64a.55.55,0,0,1-.4-.14L330,232.75a.41.41,0,0,0-.3-.07.41.41,0,0,0-.29.64l3.2,4.76a.5.5,0,0,1,0,.49.51.51,0,0,1-.41.28l-4.9.5c-.41,0-1.09,0-1.94,0-1.64,0-5.06,0-5.57.44a1.27,1.27,0,0,0-.29.28,6.43,6.43,0,0,0,1.78.41c.26,0,.49.07.63.11A19.61,19.61,0,0,0,324,241c.9.11,1.93.25,3.42.57a.5.5,0,0,1,.39.47.66.66,0,0,1-.2.5c-.53.55-2.44.59-6.26.47-.68,0-1.32,0-1.51,0l-.17,0c-.2,0-.53,0-.6.13a.36.36,0,0,0-.09.16c.08.12.52.33,2.16.52l.52.07c1,.19,2,.36,3,.53s1.89.31,2.84.49a.49.49,0,0,1,.4.52.5.5,0,0,1-.47.47,27.5,27.5,0,0,1-2.83-.05c-1,0-1.95-.09-2.73,0a6.39,6.39,0,0,1-.87,0,5,5,0,0,0-1.1,0c-.17,0-.25.12-.25.16s.11.2.39.29a12.18,12.18,0,0,0,2.41.28l.86.06c.81.07,1.47.07,2.16.07s1.39,0,2.24.07a.5.5,0,0,1,0,1c-.65.05-1.16.12-1.67.2a17.87,17.87,0,0,1-1.79.22l-.43,0a4.82,4.82,0,0,0-1.29.14,13.12,13.12,0,0,0,3.17.31c.82,0,1.66,0,2.48,0a27.65,27.65,0,0,0,3.16,0l1.52-.29a15.85,15.85,0,0,1,1.69-.3v0l6.06-.45A.49.49,0,0,1,340.92,247.4Z" style="fill:#263238;clip-path:url(#clip-path-8--inject-159)"></path></clipPath><clipPath id="clip-path-26--inject-159"><path d="M395.22,245a.51.51,0,0,1-.31-.11l-10.15-8.21a.48.48,0,0,1-.16-.55c.36-1.08,8.91-26.44,11-30.49,2.26-4.36,7.72-2.91,7.77-2.89a.5.5,0,0,1,.35.61.49.49,0,0,1-.61.35c-.2,0-4.74-1.25-6.62,2.39s-9.8,27-10.83,30l9.44,7.64c1.85-3,11.64-18.76,13.27-23.54a16.65,16.65,0,0,0,.68-9.08.5.5,0,1,1,1-.28,17.35,17.35,0,0,1-.69,9.68c-1.83,5.36-13.19,23.46-13.67,24.23a.49.49,0,0,1-.34.22Z" style="fill:#263238;clip-path:url(#clip-path-9--inject-159)"></path></clipPath></defs><g id="background-simple--inject-159"><path d="M434.75,386.05H74.07s-11.44-18.62-19.36-55.86,29.91-23.7,39.59-55.86-32.55-25.39-29-69.4S126.85,160.07,155,166s24.63-14.39,57.18-48.25S294,87.28,318.62,113.52s16.72,53.32,47.51,53.32,58.94,5.93,77.41,62.63-15.29,82.62-14.68,108.18A271.13,271.13,0,0,0,434.75,386.05Z" style="fill:#FF7B02"></path><path d="M434.75,386.05H74.07s-11.44-18.62-19.36-55.86,29.91-23.7,39.59-55.86-32.55-25.39-29-69.4S126.85,160.07,155,166s24.63-14.39,57.18-48.25S294,87.28,318.62,113.52s16.72,53.32,47.51,53.32,58.94,5.93,77.41,62.63-15.29,82.62-14.68,108.18A271.13,271.13,0,0,0,434.75,386.05Z" style="fill:#fff;opacity:0.7000000000000001"></path></g><g id="Floor--inject-159"><ellipse cx="252.5" cy="416" rx="214.5" ry="17" style="fill:#FF7B02"></ellipse><ellipse cx="252.5" cy="416" rx="214.5" ry="17" style="fill:#fff;opacity:0.5"></ellipse><path d="M460.64,386H350a.5.5,0,0,1-.5-.5.5.5,0,0,1,.5-.5H460.64a.51.51,0,0,1,.5.5A.5.5,0,0,1,460.64,386Z" style="fill:#263238"></path><path d="M333.46,386H156a.5.5,0,0,1-.5-.5.5.5,0,0,1,.5-.5H333.46a.51.51,0,0,1,.5.5A.5.5,0,0,1,333.46,386Z" style="fill:#263238"></path><path d="M149.71,386H39.49a.5.5,0,0,1-.5-.5.5.5,0,0,1,.5-.5H149.71a.5.5,0,0,1,.5.5A.5.5,0,0,1,149.71,386Z" style="fill:#263238"></path></g><g id="Gears--inject-159"><path d="M295.08,362.67l3.61-1.65-.76-4.35-4-.31a18,18,0,0,0-2-3.78L294,349.1,290.88,346l-3.51,2.08a17.56,17.56,0,0,0-6.69-2.73l-1-4h-4.41l-1,4a17.1,17.1,0,0,0-4,1.26l-3.16-2.73-3.61,2.53,1.49,3.9a18,18,0,0,0-2.54,3.29l-4.15-.43-1.51,4.15,3.44,2.33a17.64,17.64,0,0,0-.25,2.93c0,.42,0,.83.05,1.24l-3.62,2,1.14,4.26,4.1-.05a17.52,17.52,0,0,0,2.25,3.58l-1.77,3.67,3.38,2.84,3.27-2.35a17.69,17.69,0,0,0,3.95,1.67l.66,3.95,4.39.38,1.33-3.74a17.06,17.06,0,0,0,4.23-.92l2.77,2.82,3.82-2.2-1.05-3.8a17.86,17.86,0,0,0,2.94-3.2l3.88.71,1.86-4-3-2.51A17.82,17.82,0,0,0,295.08,362.67Zm-6.53-.08a11,11,0,1,1-11-11A11,11,0,0,1,288.55,362.59Z" style="fill:#fff"></path><path d="M379.06,211.51l3.61-1.65-.76-4.34-4-.31a17.72,17.72,0,0,0-2-3.78L378,198l-3.12-3.12-3.51,2.08a17.4,17.4,0,0,0-6.69-2.73l-1-4h-4.41l-1,4a17.33,17.33,0,0,0-4,1.26l-3.15-2.73-3.61,2.53,1.49,3.9a17.71,17.71,0,0,0-2.54,3.29l-4.15-.43-1.51,4.14,3.44,2.34a17.64,17.64,0,0,0-.25,2.93c0,.41,0,.83,0,1.24l-3.62,2,1.14,4.26,4.1-.06a17,17,0,0,0,2.25,3.58l-1.77,3.68L349.5,229l3.27-2.34a17.66,17.66,0,0,0,4,1.66l.66,3.95,4.39.39,1.33-3.74a18,18,0,0,0,4.23-.92l2.77,2.82,3.82-2.21-1.05-3.8a17.52,17.52,0,0,0,2.94-3.2l3.88.72,1.86-4-3-2.52A17.82,17.82,0,0,0,379.06,211.51Zm-6.53-.07a11,11,0,1,1-11-11A11,11,0,0,1,372.53,211.44Z" style="fill:#fff"></path><path d="M335.22,345.94l3.62-1.65-.76-4.34-4-.31a17.55,17.55,0,0,0-2-3.79l2.06-3.47L331,329.26l-3.51,2.08a17.47,17.47,0,0,0-6.69-2.73l-1-4h-4.41l-1,4a17.68,17.68,0,0,0-4,1.26l-3.15-2.73-3.61,2.54,1.49,3.9a17.3,17.3,0,0,0-2.54,3.29l-4.15-.43L297,340.6l3.44,2.34a17.64,17.64,0,0,0-.25,2.93c0,.41,0,.82.05,1.23l-3.62,2,1.14,4.27,4.1-.06a17,17,0,0,0,2.25,3.58l-1.77,3.67,3.38,2.84,3.27-2.35a17.49,17.49,0,0,0,3.95,1.67l.65,3.95,4.4.39,1.33-3.75a17.51,17.51,0,0,0,4.23-.91l2.77,2.82,3.82-2.21-1-3.8A17.52,17.52,0,0,0,332,356l3.88.72,1.86-4-3-2.52A17.33,17.33,0,0,0,335.22,345.94Zm-6.52-.07a11,11,0,1,1-11-11A11,11,0,0,1,328.7,345.87Z" style="fill:#fff"></path><path d="M156.65,216l7.2-3.28-1.52-8.65-7.94-.61a34.51,34.51,0,0,0-4-7.53l4.1-6.91-6.21-6.21-7,4.14a34.68,34.68,0,0,0-13.3-5.43l-2-8h-8.77l-2,8a35.08,35.08,0,0,0-7.89,2.51l-6.27-5.43-7.19,5,3,7.76a35.62,35.62,0,0,0-5,6.54l-8.26-.85-3,8.25L87.36,210a34.89,34.89,0,0,0-.49,5.82c0,.83,0,1.65.09,2.47l-7.19,4L82,230.79l8.14-.1a34.66,34.66,0,0,0,4.48,7.11l-3.52,7.31,6.72,5.64,6.52-4.66a35,35,0,0,0,7.85,3.31l1.3,7.86,8.74.76,2.64-7.44a34.53,34.53,0,0,0,8.41-1.82l5.52,5.6,7.6-4.38-2.09-7.56a35,35,0,0,0,5.84-6.37l7.72,1.43,3.71-8-6.05-5A34.79,34.79,0,0,0,156.65,216Zm-13-.16a21.91,21.91,0,1,1-21.91-21.91A21.91,21.91,0,0,1,143.67,215.83Z" style="fill:#fff"></path></g><g id="Plants--inject-159"><path d="M457.7,272.89c-4.33-5.22-10.48,4.9-17.27,17.13-3.73,6.72-12,12.43-15.57,20.86-3.5,8.2-2.23,18.8-5,26.29-4.14,11-7.54,10.94-10.82,16.66a25,25,0,0,1-2.49-11.31c.29-5.16,8.71-10.1,8.89-16.64.16-5.61-7.89-12.47-7.86-18.65,0-5.83,8.18-11.15,8.07-17.13s-8.46-12.48-8.75-18.29c-.32-6.26,7.4-12.18,6.84-17.76-.68-6.72-9.6-12.2-10.71-17.24-2-9.27-1.44-19.67-5.3-19.49-3.63.17-1.54,11.44-3.2,21.16-.91,5.37-9.67,10.19-10.13,17.35-.38,6,7.54,13.55,7.41,20.28-.12,6.29-8.31,12-8.27,18.53s8.33,13.59,8.49,19.92c.18,6.72-7.76,12.79-7.52,18.89.13,3.12,1.8,6.19,3.68,9.13-2.34-3.15-5.36-6.39-6.55-10.11-1.7-5.33.95-12.13-1.2-17.32-2.32-5.62-9.17-8.95-12-13.35-3.72-5.88-5.24-13.7-9.68-15.13-6.85-2.21-5.81,6.38-3.16,17.1,1.41,5.68-.85,13.64,2.09,20.9,2.53,6.23,9.92,11.11,13.05,17.52s2.24,14.89,5.52,20.67c2.73,4.82,7.21,8.12,10.87,11.1l.22.59a1.17,1.17,0,0,0,.93.37,21.6,21.6,0,0,1,3.35,3.35c1.86,2.46-.2,7.26,1,8.46,3.27,3.3,3.44.6,3.24-2.25-.11-1.65,3.7-4.3,3.47-6.76.27-.36.52-.61.72-.65,1.28-.29,7.18,4.7,8,3.11.6-1.18-6.55-6.11-6.13-7.69.29-1.09,5.31-.72,7.7-1.2a1,1,0,0,1,.18.17c.7.91,1.06,4.93,3.05,4.19,2.68-1,6.31-13.47,13.86-25.41,4.55-7.2,13.68-12.84,18.09-21.4s4-19.79,6.8-27.82C456,288.61,461.67,277.67,457.7,272.89Zm-64.16,80.27c.32,6.09-1.74,8.41-3.72,10.57-1.21-6.88,3.53-6.92,1.17-16a10.62,10.62,0,0,0-.94-2.3C391.84,348.2,393.41,350.8,393.54,353.16Zm3,20.55a1.6,1.6,0,0,1,.21,1.25c-.74-.44-1.53-.86-2.24-1.29C395.52,373.46,396.29,373.4,396.55,373.71Z" style="fill:#FF7B02"></path><path d="M457.7,272.89c-4.33-5.22-10.48,4.9-17.27,17.13-3.73,6.72-12,12.43-15.57,20.86-3.5,8.2-2.23,18.8-5,26.29-4.14,11-7.54,10.94-10.82,16.66a25,25,0,0,1-2.49-11.31c.29-5.16,8.71-10.1,8.89-16.64.16-5.61-7.89-12.47-7.86-18.65,0-5.83,8.18-11.15,8.07-17.13s-8.46-12.48-8.75-18.29c-.32-6.26,7.4-12.18,6.84-17.76-.68-6.72-9.6-12.2-10.71-17.24-2-9.27-1.44-19.67-5.3-19.49-3.63.17-1.54,11.44-3.2,21.16-.91,5.37-9.67,10.19-10.13,17.35-.38,6,7.54,13.55,7.41,20.28-.12,6.29-8.31,12-8.27,18.53s8.33,13.59,8.49,19.92c.18,6.72-7.76,12.79-7.52,18.89.13,3.12,1.8,6.19,3.68,9.13-2.34-3.15-5.36-6.39-6.55-10.11-1.7-5.33.95-12.13-1.2-17.32-2.32-5.62-9.17-8.95-12-13.35-3.72-5.88-5.24-13.7-9.68-15.13-6.85-2.21-5.81,6.38-3.16,17.1,1.41,5.68-.85,13.64,2.09,20.9,2.53,6.23,9.92,11.11,13.05,17.52s2.24,14.89,5.52,20.67c2.73,4.82,7.21,8.12,10.87,11.1l.22.59a1.17,1.17,0,0,0,.93.37,21.6,21.6,0,0,1,3.35,3.35c1.86,2.46-.2,7.26,1,8.46,3.27,3.3,3.44.6,3.24-2.25-.11-1.65,3.7-4.3,3.47-6.76.27-.36.52-.61.72-.65,1.28-.29,7.18,4.7,8,3.11.6-1.18-6.55-6.11-6.13-7.69.29-1.09,5.31-.72,7.7-1.2a1,1,0,0,1,.18.17c.7.91,1.06,4.93,3.05,4.19,2.68-1,6.31-13.47,13.86-25.41,4.55-7.2,13.68-12.84,18.09-21.4s4-19.79,6.8-27.82C456,288.61,461.67,277.67,457.7,272.89Zm-64.16,80.27c.32,6.09-1.74,8.41-3.72,10.57-1.21-6.88,3.53-6.92,1.17-16a10.62,10.62,0,0,0-.94-2.3C391.84,348.2,393.41,350.8,393.54,353.16Zm3,20.55a1.6,1.6,0,0,1,.21,1.25c-.74-.44-1.53-.86-2.24-1.29C395.52,373.46,396.29,373.4,396.55,373.71Z" style="fill:#fff;opacity:0.5"></path><g style="opacity:0.2"><polygon points="405.27 346.75 404.5 346.39 402.2 354.09 402.29 335.82 406.47 323.92 405.7 323.59 402.31 333.25 402.39 316.25 409.11 305.06 408.4 304.59 402.4 314.58 402.49 295.97 408.71 286.6 408.02 286.1 402.5 294.42 402.58 278.63 406.54 270.35 405.8 269.94 402.59 276.68 402.68 259.12 407.87 248.5 407.13 248.09 402.69 257.17 402.77 240.56 401.95 240.48 401.87 256.92 393.07 243.69 392.41 244.1 401.86 258.32 401.77 277.64 393 268.45 392.44 268.99 401.76 278.76 401.68 294.98 393.2 287.56 392.69 288.16 401.68 296.01 401.58 314.83 392.84 304.75 392.25 305.25 401.57 316.02 401.48 335.6 401.41 335.79 392.92 323.15 392.25 323.57 401.47 337.27 401.37 356.12 394.36 342.01 393.63 342.32 401.37 357.87 401.25 380.92 402.07 380.99 402.19 356.43 405.27 346.75"></polygon><polygon points="448.92 305.49 448.55 304.73 440.08 308.24 444.34 299.48 453.87 294.1 453.42 293.38 444.99 298.13 452.06 283.61 451.32 283.19 445.04 296.1 446.64 281.72 445.82 281.56 443.97 298.31 439.42 307.67 439.94 292.85 439.13 292.74 438.53 309.49 433.36 320.11 431.89 309.61 431.09 309.65 432.73 321.41 426.81 333.57 426.31 320.8 425.49 320.76 426.06 335.12 419.46 348.68 418.76 343.48 417.95 343.49 418.8 350.05 408.2 371.84 408.94 372.25 418.97 351.63 419.01 352.01 428.47 348.2 428.11 347.44 419.69 350.82 419.63 350.26 426.7 335.73 435.75 332.94 435.45 332.15 427.21 334.69 433.59 321.57 443.93 317.2 443.56 316.44 434.15 320.42 439.52 309.38 448.92 305.49"></polygon><polygon points="387.5 351.16 386.69 351.03 386.12 359.14 381.9 350.05 384 339.65 383.19 339.42 381.31 348.78 375.59 336.48 377.12 323.73 376.31 323.56 374.93 335.06 370.18 324.84 370.66 325.03 371.34 312.49 370.53 312.37 369.9 323.86 369.69 323.78 364.34 312.27 365.38 300.5 364.56 300.36 363.65 310.78 358.01 298.64 357.27 298.94 363.27 311.83 356.71 307.8 356.33 308.49 363.87 313.12 368.61 323.33 362.37 320.76 362.12 321.52 369.11 324.39 374.03 334.98 366.66 330.79 366.31 331.49 374.6 336.21 380.47 348.85 373.89 346.42 373.67 347.19 380.94 349.87 386.01 360.77 385.97 361.36 379.65 358 379.32 358.72 386.7 362.65 386.73 362.31 396.41 383.14 397.14 382.85 386.84 360.68 387.5 351.16"></polygon></g><path d="M394.1,382.08s.72-2.38-4.33-5.2a65.47,65.47,0,0,0-6.27-3.29,12.53,12.53,0,0,0,3.8,5.43c2.61,1.89,3.71,2.76,3.71,2.76a16.86,16.86,0,0,0-6.75-1.71,10.35,10.35,0,0,0-6,1.68,62.87,62.87,0,0,0,6.8,3.06,27.1,27.1,0,0,0,8.61,1.54s-6.58-.76-7.87.51a29.19,29.19,0,0,0-3.19,4.52,46.09,46.09,0,0,1,8.16,0c3.49.46,8.11-1.3,8.11-1.3l3.95,2,1.65-2.46s.94-.08,4.07,1.56a68,68,0,0,0,9,3.44l-5.88-7.56,5.93,1.39c3,.7,7.75-.11,7.75-.11s-.45-1.5-3.7-2.75-9.48-3.2-9.48-3.2,5.12,1.08,8.52-1.15a26.78,26.78,0,0,0,5.58-4.93s-4.85-2.85-9.43-1.85a23.5,23.5,0,0,0-8.54,4.23,13.23,13.23,0,0,0,3.95-5.55,29.25,29.25,0,0,0,1.15-5.31s-5.55,1.85-7,3.52a46.18,46.18,0,0,0-3.79,6.5s2.37-4.84-.4-7.67-5.12-5.05-5.12-5.05a19.75,19.75,0,0,0-2.82,6.14c-.48,2.74,3,7.63,3,7.63l-3.13-1.65Z" style="fill:#FF7B02"></path><path d="M394.1,382.08s.72-2.38-4.33-5.2a65.47,65.47,0,0,0-6.27-3.29,12.53,12.53,0,0,0,3.8,5.43c2.61,1.89,3.71,2.76,3.71,2.76a16.86,16.86,0,0,0-6.75-1.71,10.35,10.35,0,0,0-6,1.68,62.87,62.87,0,0,0,6.8,3.06,27.1,27.1,0,0,0,8.61,1.54s-6.58-.76-7.87.51a29.19,29.19,0,0,0-3.19,4.52,46.09,46.09,0,0,1,8.16,0c3.49.46,8.11-1.3,8.11-1.3l3.95,2,1.65-2.46s.94-.08,4.07,1.56a68,68,0,0,0,9,3.44l-5.88-7.56,5.93,1.39c3,.7,7.75-.11,7.75-.11s-.45-1.5-3.7-2.75-9.48-3.2-9.48-3.2,5.12,1.08,8.52-1.15a26.78,26.78,0,0,0,5.58-4.93s-4.85-2.85-9.43-1.85a23.5,23.5,0,0,0-8.54,4.23,13.23,13.23,0,0,0,3.95-5.55,29.25,29.25,0,0,0,1.15-5.31s-5.55,1.85-7,3.52a46.18,46.18,0,0,0-3.79,6.5s2.37-4.84-.4-7.67-5.12-5.05-5.12-5.05a19.75,19.75,0,0,0-2.82,6.14c-.48,2.74,3,7.63,3,7.63l-3.13-1.65Z" style="fill:#fff;opacity:0.30000000000000004"></path><path d="M142.32,291.39s-5.29-4.24-6.65-7c-1.15-2.32-2-5.61-.8-8.08a4.52,4.52,0,0,1,6.44-2.1c3.26,2.06,3.61,9.09,2.78,12.47C144,287,142.38,291.44,142.32,291.39Z" style="fill:#FF7B02"></path><path d="M191.28,326.8c-.22.2-4,3-4,2.92s-2.11-6.52-1.76-9.55c.29-2.59,1.38-5.79,3.72-7.19a4.52,4.52,0,0,1,6.51,1.86C197.33,318.39,193.8,324.44,191.28,326.8Z" style="fill:#FF7B02"></path><path d="M80.33,297.83s19.39,20.34,19.28,45.31S80,388.28,80,388.28,60.57,368,60.67,343,80.33,297.83,80.33,297.83Z" style="fill:#FF7B02"></path><path d="M108,358.1a5.9,5.9,0,0,1-.7-.89c-1.41-2.17-2.61-5.34-1.71-7.94a4.53,4.53,0,0,1,6.16-2.83c2.63,1.26,3.92,5.55,4.2,9.06,1-.25,2-.43,2.81-.57.34-.8.7-1.6,1-2.4s.65-1.67,1-2.51c.47-1.25.89-2.56,1.31-3.87-1.54-.69-6-2.82-7.67-4.69s-3.37-4.87-2.87-7.57a4.56,4.56,0,0,1,5.67-3.76c3.68,1.12,5.84,7.8,5.92,11.28,0,.12-.06.85-.14,1.73.37-1.29.75-2.58,1.08-3.89,1-3.74,1.8-7.58,2.66-11.43.18-.8.38-1.59.56-2.39-1.29-.58-6.15-2.84-7.89-4.8s-3.38-4.87-2.87-7.58a4.54,4.54,0,0,1,5.66-3.75c3.68,1.11,5.84,7.8,5.92,11.28,0,.13-.07,1-.16,2,.5-2.08,1-4.15,1.61-6.18a83.43,83.43,0,0,1,3.62-10.27c-.46-.2-6.2-2.73-8.14-4.91-1.72-1.93-3.38-4.87-2.87-7.57a4.55,4.55,0,0,1,5.66-3.76c3.68,1.12,5.84,7.8,5.92,11.28,0,.25-.28,3.44-.42,4.57l.05-.12a59.87,59.87,0,0,1,5.28-9.27,82.42,82.42,0,0,1,5.82-7.51c1.91-2.24,3.79-4.17,5.47-5.86.92-.91,1.77-1.73,2.58-2.48h-.08c-.07,0,1.79-4.36,1.94-4.62,1.72-3,6.78-7.81,10.54-7A4.63,4.63,0,0,1,168.1,275c-.84,2.62-3.69,4.39-6.11,5.24s-7.9.45-9.24.32c-.82.8-1.69,1.66-2.63,2.64-1.64,1.72-3.48,3.69-5.33,6-.5.6-1,1.27-1.51,1.91,1.07-.9,2.56-2.11,2.71-2.22,2.9-1.86,9.57-3.75,12.52-1.26a4.67,4.67,0,0,1,.08,6.87c-1.93,1.93-5.26,2.17-7.8,1.79s-7.36-3.4-8.39-4.07c-1.09,1.44-2.19,2.94-3.24,4.57a59.85,59.85,0,0,0-5,9.26c-.08.19-.14.39-.22.58.46-.54,3.15-3.3,3.36-3.47,2.68-2.18,9.1-4.8,12.31-2.66a4.67,4.67,0,0,1,.82,6.82c-1.71,2.14-5,2.74-7.56,2.65-3-.11-8.76-3.09-9-3.2a81.29,81.29,0,0,0-3.28,10c-.67,2.52-1.24,5.1-1.78,7.69.6-.69,3.11-3.26,3.31-3.42,2.67-2.18,9.1-4.8,12.31-2.65a4.66,4.66,0,0,1,.81,6.82c-1.71,2.13-5,2.73-7.55,2.64-2.88-.11-8.46-2.94-8.93-3.18-.25,1.18-.5,2.35-.74,3.54-.78,3.85-1.55,7.72-2.43,11.52-.3,1.31-.64,2.6-1,3.88.94-1,2.68-2.78,2.85-2.91,2.67-2.19,9.1-4.8,12.3-2.66a4.66,4.66,0,0,1,.82,6.82c-1.71,2.14-5,2.74-7.55,2.65s-7.32-2.37-8.64-3c-.59,2.13-1.21,4.24-1.92,6.29-.33.88-.61,1.79-1,2.61L121,354.6l.74-.07s.06,1.22-.06,3.2c2.82-2,6.89-3.8,9.53-2.56a4.64,4.64,0,0,1,1.83,6.61,5.42,5.42,0,0,1-.59.83,18,18,0,0,1-3.65,8.25c-.14.17-2.06,2-3.06,2.87,1-.54,1.93-1.06,2.93-1.63,1.44-.81,2.93-1.72,4.39-2.59l2.23-1.45c.77-.47,1.45-1,2.19-1.54,1.06-.78,2.12-1.64,3.18-2.49-.9-1.44-3.47-5.71-3.85-8.21s-.17-5.95,1.72-7.93a4.49,4.49,0,0,1,6.76.05c2.47,3,.65,9.78-1.18,12.73-.06.09-.51.67-1.05,1.36,1-.87,2-1.73,3-2.64,2.82-2.59,5.61-5.32,8.42-8l1.77-1.68c-.76-1.21-3.59-5.82-4-8.43s-.17-5.95,1.72-7.93a4.49,4.49,0,0,1,6.76.05c2.46,3,.64,9.78-1.19,12.73-.06.1-.6.8-1.21,1.57,1.55-1.46,3.11-2.89,4.7-4.26a81.22,81.22,0,0,1,8.59-6.54c-.27-.42-3.69-5.75-4.13-8.65-.38-2.57-.17-6,1.72-7.93a4.49,4.49,0,0,1,6.76.05c2.47,3,.64,9.77-1.18,12.72-.13.21-2.1,2.71-2.83,3.58l.1-.08a59.68,59.68,0,0,1,9.43-4.77,81,81,0,0,1,8.94-3c2.81-.8,5.43-1.35,7.75-1.82,1.26-.25,2.41-.45,3.49-.62l-.06,0c-.06-.05,3.85-2.63,4.12-2.76,3.07-1.55,9.9-2.71,12.58.08a4.66,4.66,0,0,1-.64,6.84c-2.12,1.72-5.45,1.59-7.93.94s-6.84-4.05-7.89-4.9c-1.12.2-2.31.43-3.62.72-2.31.52-4.9,1.12-7.68,2-.74.22-1.53.5-2.3.75,1.38-.15,3.28-.33,3.47-.33,3.42.07,10,2.23,11.12,6a4.61,4.61,0,0,1-3.66,5.77c-2.66.53-5.57-1.14-7.47-2.88s-4.3-7-4.8-8.09c-1.69.58-3.42,1.22-5.18,2a58.82,58.82,0,0,0-9.21,4.91l-.49.37c.67-.2,4.42-1,4.69-1,3.41-.32,10.19,1.1,11.7,4.69a4.64,4.64,0,0,1-3,6.15c-2.59.82-5.65-.52-7.74-2-2.4-1.74-5.62-7.48-5.74-7.7a80.33,80.33,0,0,0-8.17,6.51c-1.92,1.73-3.79,3.56-5.66,5.41.88-.23,4.37-1,4.62-1,3.42-.33,10.2,1.09,11.71,4.68a4.64,4.64,0,0,1-3,6.15c-2.59.82-5.66-.52-7.74-2-2.34-1.7-5.46-7.19-5.72-7.65-.85.84-1.69,1.67-2.54,2.53-2.74,2.77-5.48,5.57-8.27,8.25-1,.92-2,1.8-2.94,2.68,1.33-.3,3.75-.81,4-.83,3.42-.32,10.2,1.1,11.71,4.68a4.64,4.64,0,0,1-3,6.15c-2.59.82-5.66-.52-7.74-2s-4.81-6.08-5.56-7.37c-1.65,1.46-3.31,2.87-5,4.17-.74.55-1.47,1.16-2.22,1.64l-2.2,1.5c-1.54,1-3,1.88-4.43,2.74-.73.44-1.43.84-2.15,1.26,1.3-.51,3.37-1.29,3.56-1.34,3.33-.85,10.24-.49,12.27,2.83a4.65,4.65,0,0,1-2.07,6.54c-2.43,1.21-5.66.36-7.95-.82-2.52-1.29-6.31-6.06-6.77-6.65-1.76,1-3.48,2-5.11,2.88-4.35,2.37-8.15,4.26-11.1,5.66-9.57,8.41-23,9.34-23,9.34s-.71-16.4,8.79-27.19A33.22,33.22,0,0,1,108,358.1Zm17.09,16c-.3-.67-2.59-5.88-2.75-8.82-.53-.1-1.07-.21-1.59-.33a38.25,38.25,0,0,1-5.94,14.44c1.74-.84,3.62-1.77,5.63-2.81C121.9,375.81,123.46,375,125.06,374.09Z" style="fill:#FF7B02"></path><path d="M37.37,355s16.14.5,26,10.93,9.76,26.85,9.76,26.85-16.14-.5-26-10.93S37.37,355,37.37,355Z" style="fill:#FF7B02"></path><g style="opacity:0.5"><path d="M142.32,291.39s-5.29-4.24-6.65-7c-1.15-2.32-2-5.61-.8-8.08a4.52,4.52,0,0,1,6.44-2.1c3.26,2.06,3.61,9.09,2.78,12.47C144,287,142.38,291.44,142.32,291.39Z" style="fill:#fff"></path><path d="M191.28,326.8c-.22.2-4,3-4,2.92s-2.11-6.52-1.76-9.55c.29-2.59,1.38-5.79,3.72-7.19a4.52,4.52,0,0,1,6.51,1.86C197.33,318.39,193.8,324.44,191.28,326.8Z" style="fill:#fff"></path><path d="M80.33,297.83s19.39,20.34,19.28,45.31S80,388.28,80,388.28,60.57,368,60.67,343,80.33,297.83,80.33,297.83Z" style="fill:#fff"></path><path d="M108,358.1a5.9,5.9,0,0,1-.7-.89c-1.41-2.17-2.61-5.34-1.71-7.94a4.53,4.53,0,0,1,6.16-2.83c2.63,1.26,3.92,5.55,4.2,9.06,1-.25,2-.43,2.81-.57.34-.8.7-1.6,1-2.4s.65-1.67,1-2.51c.47-1.25.89-2.56,1.31-3.87-1.54-.69-6-2.82-7.67-4.69s-3.37-4.87-2.87-7.57a4.56,4.56,0,0,1,5.67-3.76c3.68,1.12,5.84,7.8,5.92,11.28,0,.12-.06.85-.14,1.73.37-1.29.75-2.58,1.08-3.89,1-3.74,1.8-7.58,2.66-11.43.18-.8.38-1.59.56-2.39-1.29-.58-6.15-2.84-7.89-4.8s-3.38-4.87-2.87-7.58a4.54,4.54,0,0,1,5.66-3.75c3.68,1.11,5.84,7.8,5.92,11.28,0,.13-.07,1-.16,2,.5-2.08,1-4.15,1.61-6.18a83.43,83.43,0,0,1,3.62-10.27c-.46-.2-6.2-2.73-8.14-4.91-1.72-1.93-3.38-4.87-2.87-7.57a4.55,4.55,0,0,1,5.66-3.76c3.68,1.12,5.84,7.8,5.92,11.28,0,.25-.28,3.44-.42,4.57l.05-.12a59.87,59.87,0,0,1,5.28-9.27,82.42,82.42,0,0,1,5.82-7.51c1.91-2.24,3.79-4.17,5.47-5.86.92-.91,1.77-1.73,2.58-2.48h-.08c-.07,0,1.79-4.36,1.94-4.62,1.72-3,6.78-7.81,10.54-7A4.63,4.63,0,0,1,168.1,275c-.84,2.62-3.69,4.39-6.11,5.24s-7.9.45-9.24.32c-.82.8-1.69,1.66-2.63,2.64-1.64,1.72-3.48,3.69-5.33,6-.5.6-1,1.27-1.51,1.91,1.07-.9,2.56-2.11,2.71-2.22,2.9-1.86,9.57-3.75,12.52-1.26a4.67,4.67,0,0,1,.08,6.87c-1.93,1.93-5.26,2.17-7.8,1.79s-7.36-3.4-8.39-4.07c-1.09,1.44-2.19,2.94-3.24,4.57a59.85,59.85,0,0,0-5,9.26c-.08.19-.14.39-.22.58.46-.54,3.15-3.3,3.36-3.47,2.68-2.18,9.1-4.8,12.31-2.66a4.67,4.67,0,0,1,.82,6.82c-1.71,2.14-5,2.74-7.56,2.65-3-.11-8.76-3.09-9-3.2a81.29,81.29,0,0,0-3.28,10c-.67,2.52-1.24,5.1-1.78,7.69.6-.69,3.11-3.26,3.31-3.42,2.67-2.18,9.1-4.8,12.31-2.65a4.66,4.66,0,0,1,.81,6.82c-1.71,2.13-5,2.73-7.55,2.64-2.88-.11-8.46-2.94-8.93-3.18-.25,1.18-.5,2.35-.74,3.54-.78,3.85-1.55,7.72-2.43,11.52-.3,1.31-.64,2.6-1,3.88.94-1,2.68-2.78,2.85-2.91,2.67-2.19,9.1-4.8,12.3-2.66a4.66,4.66,0,0,1,.82,6.82c-1.71,2.14-5,2.74-7.55,2.65s-7.32-2.37-8.64-3c-.59,2.13-1.21,4.24-1.92,6.29-.33.88-.61,1.79-1,2.61L121,354.6l.74-.07s.06,1.22-.06,3.2c2.82-2,6.89-3.8,9.53-2.56a4.64,4.64,0,0,1,1.83,6.61,5.42,5.42,0,0,1-.59.83,18,18,0,0,1-3.65,8.25c-.14.17-2.06,2-3.06,2.87,1-.54,1.93-1.06,2.93-1.63,1.44-.81,2.93-1.72,4.39-2.59l2.23-1.45c.77-.47,1.45-1,2.19-1.54,1.06-.78,2.12-1.64,3.18-2.49-.9-1.44-3.47-5.71-3.85-8.21s-.17-5.95,1.72-7.93a4.49,4.49,0,0,1,6.76.05c2.47,3,.65,9.78-1.18,12.73-.06.09-.51.67-1.05,1.36,1-.87,2-1.73,3-2.64,2.82-2.59,5.61-5.32,8.42-8l1.77-1.68c-.76-1.21-3.59-5.82-4-8.43s-.17-5.95,1.72-7.93a4.49,4.49,0,0,1,6.76.05c2.46,3,.64,9.78-1.19,12.73-.06.1-.6.8-1.21,1.57,1.55-1.46,3.11-2.89,4.7-4.26a81.22,81.22,0,0,1,8.59-6.54c-.27-.42-3.69-5.75-4.13-8.65-.38-2.57-.17-6,1.72-7.93a4.49,4.49,0,0,1,6.76.05c2.47,3,.64,9.77-1.18,12.72-.13.21-2.1,2.71-2.83,3.58l.1-.08a59.68,59.68,0,0,1,9.43-4.77,81,81,0,0,1,8.94-3c2.81-.8,5.43-1.35,7.75-1.82,1.26-.25,2.41-.45,3.49-.62l-.06,0c-.06-.05,3.85-2.63,4.12-2.76,3.07-1.55,9.9-2.71,12.58.08a4.66,4.66,0,0,1-.64,6.84c-2.12,1.72-5.45,1.59-7.93.94s-6.84-4.05-7.89-4.9c-1.12.2-2.31.43-3.62.72-2.31.52-4.9,1.12-7.68,2-.74.22-1.53.5-2.3.75,1.38-.15,3.28-.33,3.47-.33,3.42.07,10,2.23,11.12,6a4.61,4.61,0,0,1-3.66,5.77c-2.66.53-5.57-1.14-7.47-2.88s-4.3-7-4.8-8.09c-1.69.58-3.42,1.22-5.18,2a58.82,58.82,0,0,0-9.21,4.91l-.49.37c.67-.2,4.42-1,4.69-1,3.41-.32,10.19,1.1,11.7,4.69a4.64,4.64,0,0,1-3,6.15c-2.59.82-5.65-.52-7.74-2-2.4-1.74-5.62-7.48-5.74-7.7a80.33,80.33,0,0,0-8.17,6.51c-1.92,1.73-3.79,3.56-5.66,5.41.88-.23,4.37-1,4.62-1,3.42-.33,10.2,1.09,11.71,4.68a4.64,4.64,0,0,1-3,6.15c-2.59.82-5.66-.52-7.74-2-2.34-1.7-5.46-7.19-5.72-7.65-.85.84-1.69,1.67-2.54,2.53-2.74,2.77-5.48,5.57-8.27,8.25-1,.92-2,1.8-2.94,2.68,1.33-.3,3.75-.81,4-.83,3.42-.32,10.2,1.1,11.71,4.68a4.64,4.64,0,0,1-3,6.15c-2.59.82-5.66-.52-7.74-2s-4.81-6.08-5.56-7.37c-1.65,1.46-3.31,2.87-5,4.17-.74.55-1.47,1.16-2.22,1.64l-2.2,1.5c-1.54,1-3,1.88-4.43,2.74-.73.44-1.43.84-2.15,1.26,1.3-.51,3.37-1.29,3.56-1.34,3.33-.85,10.24-.49,12.27,2.83a4.65,4.65,0,0,1-2.07,6.54c-2.43,1.21-5.66.36-7.95-.82-2.52-1.29-6.31-6.06-6.77-6.65-1.76,1-3.48,2-5.11,2.88-4.35,2.37-8.15,4.26-11.1,5.66-9.57,8.41-23,9.34-23,9.34s-.71-16.4,8.79-27.19A33.22,33.22,0,0,1,108,358.1Zm17.09,16c-.3-.67-2.59-5.88-2.75-8.82-.53-.1-1.07-.21-1.59-.33a38.25,38.25,0,0,1-5.94,14.44c1.74-.84,3.62-1.77,5.63-2.81C121.9,375.81,123.46,375,125.06,374.09Z" style="fill:#fff"></path><path d="M37.37,355s16.14.5,26,10.93,9.76,26.85,9.76,26.85-16.14-.5-26-10.93S37.37,355,37.37,355Z" style="fill:#fff"></path></g><g style="opacity:0.2"><polygon points="79.53 365.54 63.68 351.05 64.36 350.28 79.54 364.15 79.62 345.16 79.54 345.22 66.13 325.29 66.97 324.71 79.63 343.52 79.83 297.83 80.84 297.83 80.71 328.85 90.81 319.97 91.47 320.75 80.7 330.22 80.61 352.39 95.91 338.64 96.59 339.41 80.61 353.78 80.52 373.97 92.02 364.8 92.65 365.61 80.51 375.29 80.46 388.29 79.44 388.28 79.54 365.53 79.53 365.54"></polygon><polygon points="94.14 371.13 95.15 371.01 96.44 382.49 103.24 374.75 103.23 374.75 104.96 360.86 105.97 360.99 104.42 373.41 121.35 354.19 122.1 354.88 110.62 367.92 117.89 368.01 117.88 369.04 109.72 368.94 101.67 378.09 113.04 378.11 113.04 379.14 100.76 379.13 93.44 387.44 101.46 387.93 101.4 388.96 92.57 388.43 87.7 393.96 86.94 393.27 95.53 383.52 94.14 371.13"></polygon><polygon points="55.83 375.22 42.33 372.43 42.53 371.42 54.6 373.91 37 355.32 37.73 354.61 49.68 367.22 50.31 359.86 51.32 359.95 50.61 368.21 58.99 377.05 59.85 365.53 60.86 365.61 59.93 378.05 67.55 386.09 68.63 378 69.64 378.14 68.45 387.04 73.52 392.39 72.79 393.11 63.86 383.68 51.59 384.16 51.55 383.13 62.91 382.68 55.83 375.21 55.83 375.22"></polygon></g><path d="M265.73,94s-6.66-1.3-9.13-3.08c-2.1-1.52-4.37-4-4.46-6.78a4.51,4.51,0,0,1,4.72-4.86c3.84.31,7.42,6.37,8.26,9.75C265.19,89.35,265.8,94,265.73,94Z" style="fill:#FF7B02"></path><path d="M325.53,102.62c-.1.28-2.15,4.5-2.2,4.45s-4.89-4.79-6-7.64c-.94-2.42-1.47-5.77,0-8.09A4.5,4.5,0,0,1,323.91,90C327,92.36,326.68,99.36,325.53,102.62Z" style="fill:#FF7B02"></path><path d="M213.84,128.55s26.62,9,38.14,31.15,3.58,49.11,3.58,49.11-26.62-9-38.14-31.15S213.84,128.55,213.84,128.55Z" style="fill:#FF7B02"></path><path d="M266.33,169.06a7.71,7.71,0,0,1-1-.46c-2.26-1.27-4.8-3.51-5.2-6.23a4.52,4.52,0,0,1,4.13-5.38c2.91-.1,6,3.1,7.93,6.07.82-.7,1.57-1.31,2.22-1.81-.06-.86-.12-1.73-.18-2.62s-.2-1.77-.3-2.68c-.17-1.32-.41-2.67-.64-4-1.68.09-6.62.29-9-.59S259,148.6,258.23,146a4.54,4.54,0,0,1,3.27-6c3.77-.73,8.8,4.19,10.48,7.23.06.1.35.78.69,1.59-.27-1.31-.54-2.62-.86-3.94-.9-3.75-1.93-7.55-2.95-11.35l-.62-2.39c-1.42.09-6.76.35-9.22-.57s-5.25-2.74-6.06-5.38a4.54,4.54,0,0,1,3.27-6c3.77-.73,8.79,4.19,10.48,7.23.06.11.41.93.79,1.84-.53-2.08-1-4.15-1.46-6.23a85.28,85.28,0,0,1-1.57-10.77c-.49,0-6.76.47-9.48-.55-2.42-.91-5.26-2.75-6.07-5.38a4.54,4.54,0,0,1,3.27-6c3.78-.73,8.8,4.18,10.49,7.23.12.22,1.35,3.17,1.75,4.24,0,0,0-.09,0-.13a60.21,60.21,0,0,1,.36-10.66,81.14,81.14,0,0,1,1.66-9.36c.65-2.87,1.42-5.45,2.12-7.73.39-1.23.77-2.35,1.13-3.39l-.07,0c-.07,0-.44-4.69-.43-5,.12-3.46,2.38-10.07,6.08-11.08a4.64,4.64,0,0,1,5.64,3.89c.47,2.71-1.23,5.6-3,7.47s-6.78,4.08-8,4.59c-.35,1.09-.72,2.26-1.1,3.56-.65,2.28-1.36,4.88-1.95,7.75-.16.76-.3,1.59-.44,2.39.53-1.29,1.28-3.06,1.37-3.22,1.69-3,6.72-7.77,10.49-6.94a4.68,4.68,0,0,1,3.27,6c-.82,2.61-3.66,4.36-6.08,5.2s-8.1.42-9.31.31c-.31,1.78-.58,3.62-.75,5.55a59.35,59.35,0,0,0-.13,10.53c0,.2.06.41.08.61.15-.68,1.25-4.39,1.36-4.64,1.35-3.17,5.82-8.48,9.66-8.07a4.66,4.66,0,0,1,3.89,5.66c-.52,2.69-3.15,4.75-5.46,5.85-2.66,1.28-9.19,1.34-9.43,1.34a82.58,82.58,0,0,0,1.75,10.39c.58,2.53,1.28,5.08,2,7.63.22-.89,1.25-4.33,1.35-4.57,1.35-3.17,5.82-8.48,9.66-8.07a4.68,4.68,0,0,1,3.9,5.66c-.53,2.68-3.16,4.75-5.47,5.85-2.59,1.25-8.85,1.33-9.38,1.34.33,1.16.65,2.31,1,3.47,1.1,3.78,2.22,7.56,3.21,11.33.34,1.31.63,2.6.93,3.9.37-1.32,1.08-3.71,1.17-3.91,1.35-3.17,5.82-8.48,9.66-8.07a4.68,4.68,0,0,1,3.9,5.66c-.53,2.69-3.16,4.75-5.46,5.85s-7.58,1.3-9.06,1.34c.48,2.16.9,4.32,1.23,6.46.11.93.29,1.87.36,2.76,0,.48.09.94.13,1.41.4-.27.62-.4.62-.4s.61,1.05,1.43,2.86c1.55-3.12,4.33-6.57,7.25-6.7a4.65,4.65,0,0,1,4.69,5,4.91,4.91,0,0,1-.14,1,18.06,18.06,0,0,1,.62,9c-.05.22-.92,2.7-1.38,4,.6-.92,1.21-1.83,1.83-2.8.89-1.39,1.8-2.88,2.68-4.33l1.31-2.32c.46-.78.8-1.58,1.21-2.38.58-1.19,1.12-2.44,1.66-3.69-1.46-.86-5.73-3.44-7.22-5.48s-2.92-5.19-2.16-7.82a4.5,4.5,0,0,1,6-3.1c3.57,1.5,5.11,8.36,4.86,11.82,0,.11-.13.84-.29,1.69.49-1.23,1-2.46,1.44-3.73,1.29-3.61,2.5-7.32,3.72-11,.25-.78.52-1.55.78-2.32-1.24-.71-5.88-3.48-7.44-5.6s-2.93-5.2-2.17-7.83a4.5,4.5,0,0,1,6-3.1c3.57,1.5,5.11,8.36,4.87,11.82,0,.12-.17,1-.35,1.95.7-2,1.41-4,2.18-5.95a82,82,0,0,1,4.57-9.78c-.44-.25-5.94-3.38-7.68-5.74-1.53-2.1-2.92-5.2-2.16-7.82a4.5,4.5,0,0,1,6-3.11c3.57,1.51,5.11,8.36,4.86,11.82,0,.25-.59,3.37-.84,4.48l.06-.11a59.34,59.34,0,0,1,6.13-8.61,81.21,81.21,0,0,1,6.52-6.82c2.11-2,4.17-3.71,6-5.21,1-.8,1.93-1.51,2.8-2.17h-.08c-.07,0,2.2-4.12,2.37-4.36,2-2.8,7.5-7,11.17-5.78a4.66,4.66,0,0,1,2.62,6.35c-1.08,2.51-4.09,4-6.59,4.53s-7.93-.42-9.26-.68c-.9.7-1.85,1.46-2.87,2.32-1.8,1.53-3.82,3.28-5.88,5.33-.55.54-1.12,1.15-1.69,1.73,1.16-.78,2.76-1.82,2.92-1.9,3.07-1.54,9.9-2.68,12.63.11a4.61,4.61,0,0,1-.57,6.81c-2.11,1.71-5.45,1.57-7.95.92s-7-4.16-8-4.93c-1.23,1.3-2.46,2.67-3.66,4.17a58,58,0,0,0-5.86,8.63c-.1.18-.18.38-.27.55.5-.48,3.45-2.93,3.68-3.08,2.87-1.87,9.53-3.76,12.54-1.29a4.64,4.64,0,0,1,.18,6.85c-1.91,1.93-5.25,2.17-7.79,1.8-2.94-.43-8.47-4-8.68-4.15a81.93,81.93,0,0,0-4.2,9.56c-.89,2.42-1.7,4.91-2.49,7.42.67-.61,3.41-2.89,3.63-3,2.87-1.87,9.53-3.77,12.54-1.29a4.64,4.64,0,0,1,.18,6.85c-1.91,1.93-5.24,2.17-7.79,1.79-2.87-.41-8.18-3.82-8.63-4.11-.35,1.14-.71,2.27-1.06,3.42-1.14,3.73-2.27,7.49-3.5,11.15-.42,1.27-.89,2.51-1.35,3.75,1-.89,2.95-2.47,3.12-2.59,2.88-1.87,9.54-3.76,12.55-1.29a4.64,4.64,0,0,1,.18,6.85c-1.91,1.93-5.25,2.17-7.79,1.8s-7.09-3.15-8.35-3.94c-.78,2.05-1.6,4.07-2.51,6-.4.84-.76,1.71-1.2,2.49l-1.26,2.35c-.91,1.57-1.75,3-2.64,4.48-.44.73-.88,1.41-1.32,2.12.91-1.06,2.38-2.71,2.53-2.85,2.55-2.29,8.84-5.19,12.18-3.2a4.66,4.66,0,0,1,1.21,6.76c-1.6,2.2-4.85,2.95-7.42,3-2.83,0-8.4-2.43-9.08-2.74-1.09,1.72-2.16,3.39-3.2,4.93-2.74,4.12-5.23,7.55-7.19,10.17-4.56,11.89-16.06,19-16.06,19s-8.25-14.19-4.86-28.16A33.34,33.34,0,0,1,266.33,169.06Zm22.57,6.21c-.57-.45-5-4-6.54-6.53-.51.16-1,.31-1.56.44a38.25,38.25,0,0,1,1.46,15.55c1.15-1.55,2.38-3.25,3.67-5.1C286.89,178.26,287.89,176.79,288.9,175.27Z" style="fill:#FF7B02"></path><path d="M202.37,199.11s14.52-7.06,28.12-2.41,21.13,19.23,21.13,19.23-14.53,7.06-28.13,2.42S202.37,199.11,202.37,199.11Z" style="fill:#FF7B02"></path><g style="opacity:0.5"><path d="M265.73,94s-6.66-1.3-9.13-3.08c-2.1-1.52-4.37-4-4.46-6.78a4.51,4.51,0,0,1,4.72-4.86c3.84.31,7.42,6.37,8.26,9.75C265.19,89.35,265.8,94,265.73,94Z" style="fill:#fff"></path><path d="M325.53,102.62c-.1.28-2.15,4.5-2.2,4.45s-4.89-4.79-6-7.64c-.94-2.42-1.47-5.77,0-8.09A4.5,4.5,0,0,1,323.91,90C327,92.36,326.68,99.36,325.53,102.62Z" style="fill:#fff"></path><path d="M213.84,128.55s26.62,9,38.14,31.15,3.58,49.11,3.58,49.11-26.62-9-38.14-31.15S213.84,128.55,213.84,128.55Z" style="fill:#fff"></path><path d="M266.33,169.06a7.71,7.71,0,0,1-1-.46c-2.26-1.27-4.8-3.51-5.2-6.23a4.52,4.52,0,0,1,4.13-5.38c2.91-.1,6,3.1,7.93,6.07.82-.7,1.57-1.31,2.22-1.81-.06-.86-.12-1.73-.18-2.62s-.2-1.77-.3-2.68c-.17-1.32-.41-2.67-.64-4-1.68.09-6.62.29-9-.59S259,148.6,258.23,146a4.54,4.54,0,0,1,3.27-6c3.77-.73,8.8,4.19,10.48,7.23.06.1.35.78.69,1.59-.27-1.31-.54-2.62-.86-3.94-.9-3.75-1.93-7.55-2.95-11.35l-.62-2.39c-1.42.09-6.76.35-9.22-.57s-5.25-2.74-6.06-5.38a4.54,4.54,0,0,1,3.27-6c3.77-.73,8.79,4.19,10.48,7.23.06.11.41.93.79,1.84-.53-2.08-1-4.15-1.46-6.23a85.28,85.28,0,0,1-1.57-10.77c-.49,0-6.76.47-9.48-.55-2.42-.91-5.26-2.75-6.07-5.38a4.54,4.54,0,0,1,3.27-6c3.78-.73,8.8,4.18,10.49,7.23.12.22,1.35,3.17,1.75,4.24,0,0,0-.09,0-.13a60.21,60.21,0,0,1,.36-10.66,81.14,81.14,0,0,1,1.66-9.36c.65-2.87,1.42-5.45,2.12-7.73.39-1.23.77-2.35,1.13-3.39l-.07,0c-.07,0-.44-4.69-.43-5,.12-3.46,2.38-10.07,6.08-11.08a4.64,4.64,0,0,1,5.64,3.89c.47,2.71-1.23,5.6-3,7.47s-6.78,4.08-8,4.59c-.35,1.09-.72,2.26-1.1,3.56-.65,2.28-1.36,4.88-1.95,7.75-.16.76-.3,1.59-.44,2.39.53-1.29,1.28-3.06,1.37-3.22,1.69-3,6.72-7.77,10.49-6.94a4.68,4.68,0,0,1,3.27,6c-.82,2.61-3.66,4.36-6.08,5.2s-8.1.42-9.31.31c-.31,1.78-.58,3.62-.75,5.55a59.35,59.35,0,0,0-.13,10.53c0,.2.06.41.08.61.15-.68,1.25-4.39,1.36-4.64,1.35-3.17,5.82-8.48,9.66-8.07a4.66,4.66,0,0,1,3.89,5.66c-.52,2.69-3.15,4.75-5.46,5.85-2.66,1.28-9.19,1.34-9.43,1.34a82.58,82.58,0,0,0,1.75,10.39c.58,2.53,1.28,5.08,2,7.63.22-.89,1.25-4.33,1.35-4.57,1.35-3.17,5.82-8.48,9.66-8.07a4.68,4.68,0,0,1,3.9,5.66c-.53,2.68-3.16,4.75-5.47,5.85-2.59,1.25-8.85,1.33-9.38,1.34.33,1.16.65,2.31,1,3.47,1.1,3.78,2.22,7.56,3.21,11.33.34,1.31.63,2.6.93,3.9.37-1.32,1.08-3.71,1.17-3.91,1.35-3.17,5.82-8.48,9.66-8.07a4.68,4.68,0,0,1,3.9,5.66c-.53,2.69-3.16,4.75-5.46,5.85s-7.58,1.3-9.06,1.34c.48,2.16.9,4.32,1.23,6.46.11.93.29,1.87.36,2.76,0,.48.09.94.13,1.41.4-.27.62-.4.62-.4s.61,1.05,1.43,2.86c1.55-3.12,4.33-6.57,7.25-6.7a4.65,4.65,0,0,1,4.69,5,4.91,4.91,0,0,1-.14,1,18.06,18.06,0,0,1,.62,9c-.05.22-.92,2.7-1.38,4,.6-.92,1.21-1.83,1.83-2.8.89-1.39,1.8-2.88,2.68-4.33l1.31-2.32c.46-.78.8-1.58,1.21-2.38.58-1.19,1.12-2.44,1.66-3.69-1.46-.86-5.73-3.44-7.22-5.48s-2.92-5.19-2.16-7.82a4.5,4.5,0,0,1,6-3.1c3.57,1.5,5.11,8.36,4.86,11.82,0,.11-.13.84-.29,1.69.49-1.23,1-2.46,1.44-3.73,1.29-3.61,2.5-7.32,3.72-11,.25-.78.52-1.55.78-2.32-1.24-.71-5.88-3.48-7.44-5.6s-2.93-5.2-2.17-7.83a4.5,4.5,0,0,1,6-3.1c3.57,1.5,5.11,8.36,4.87,11.82,0,.12-.17,1-.35,1.95.7-2,1.41-4,2.18-5.95a82,82,0,0,1,4.57-9.78c-.44-.25-5.94-3.38-7.68-5.74-1.53-2.1-2.92-5.2-2.16-7.82a4.5,4.5,0,0,1,6-3.11c3.57,1.51,5.11,8.36,4.86,11.82,0,.25-.59,3.37-.84,4.48l.06-.11a59.34,59.34,0,0,1,6.13-8.61,81.21,81.21,0,0,1,6.52-6.82c2.11-2,4.17-3.71,6-5.21,1-.8,1.93-1.51,2.8-2.17h-.08c-.07,0,2.2-4.12,2.37-4.36,2-2.8,7.5-7,11.17-5.78a4.66,4.66,0,0,1,2.62,6.35c-1.08,2.51-4.09,4-6.59,4.53s-7.93-.42-9.26-.68c-.9.7-1.85,1.46-2.87,2.32-1.8,1.53-3.82,3.28-5.88,5.33-.55.54-1.12,1.15-1.69,1.73,1.16-.78,2.76-1.82,2.92-1.9,3.07-1.54,9.9-2.68,12.63.11a4.61,4.61,0,0,1-.57,6.81c-2.11,1.71-5.45,1.57-7.95.92s-7-4.16-8-4.93c-1.23,1.3-2.46,2.67-3.66,4.17a58,58,0,0,0-5.86,8.63c-.1.18-.18.38-.27.55.5-.48,3.45-2.93,3.68-3.08,2.87-1.87,9.53-3.76,12.54-1.29a4.64,4.64,0,0,1,.18,6.85c-1.91,1.93-5.25,2.17-7.79,1.8-2.94-.43-8.47-4-8.68-4.15a81.93,81.93,0,0,0-4.2,9.56c-.89,2.42-1.7,4.91-2.49,7.42.67-.61,3.41-2.89,3.63-3,2.87-1.87,9.53-3.77,12.54-1.29a4.64,4.64,0,0,1,.18,6.85c-1.91,1.93-5.24,2.17-7.79,1.79-2.87-.41-8.18-3.82-8.63-4.11-.35,1.14-.71,2.27-1.06,3.42-1.14,3.73-2.27,7.49-3.5,11.15-.42,1.27-.89,2.51-1.35,3.75,1-.89,2.95-2.47,3.12-2.59,2.88-1.87,9.54-3.76,12.55-1.29a4.64,4.64,0,0,1,.18,6.85c-1.91,1.93-5.25,2.17-7.79,1.8s-7.09-3.15-8.35-3.94c-.78,2.05-1.6,4.07-2.51,6-.4.84-.76,1.71-1.2,2.49l-1.26,2.35c-.91,1.57-1.75,3-2.64,4.48-.44.73-.88,1.41-1.32,2.12.91-1.06,2.38-2.71,2.53-2.85,2.55-2.29,8.84-5.19,12.18-3.2a4.66,4.66,0,0,1,1.21,6.76c-1.6,2.2-4.85,2.95-7.42,3-2.83,0-8.4-2.43-9.08-2.74-1.09,1.72-2.16,3.39-3.2,4.93-2.74,4.12-5.23,7.55-7.19,10.17-4.56,11.89-16.06,19-16.06,19s-8.25-14.19-4.86-28.16A33.34,33.34,0,0,1,266.33,169.06Zm22.57,6.21c-.57-.45-5-4-6.54-6.53-.51.16-1,.31-1.56.44a38.25,38.25,0,0,1,1.46,15.55c1.15-1.55,2.38-3.25,3.67-5.1C286.89,178.26,287.89,176.79,288.9,175.27Z" style="fill:#fff"></path><path d="M202.37,199.11s14.52-7.06,28.12-2.41,21.13,19.23,21.13,19.23-14.53,7.06-28.13,2.42S202.37,199.11,202.37,199.11Z" style="fill:#fff"></path></g><g style="opacity:0.2"><polygon points="244.61 188.86 223.84 183.41 224.08 182.41 243.98 187.64 235.22 170.79 235.18 170.88 214.03 159.47 214.51 158.56 234.47 169.33 213.39 128.79 214.29 128.32 228.6 155.84 233.41 143.28 234.36 143.66 229.23 157.05 239.46 176.73 246.61 157.43 247.56 157.8 240.1 177.96 249.41 195.87 255.32 182.41 256.26 182.84 250.02 197.04 256.01 208.58 255.11 209.05 244.62 188.86 244.61 188.86"></polygon><polygon points="260.15 187.02 260.99 186.45 267.46 196.01 269.89 186 269.88 186.01 264.95 172.91 265.9 172.55 270.31 184.27 276.36 159.38 277.35 159.63 273.25 176.52 279.72 173.22 280.19 174.14 272.93 177.85 270.05 189.69 280.12 184.42 280.6 185.33 269.72 191.03 267.11 201.8 274.44 198.5 274.86 199.44 266.8 203.07 265.06 210.24 264.07 209.98 267.13 197.35 260.15 187.02"></polygon><polygon points="228.13 208.46 214.88 212.27 214.59 211.28 226.44 207.87 202.21 199.6 202.52 198.63 218.96 204.24 216.1 197.43 217.04 197.03 220.25 204.68 231.78 208.61 227.18 198.01 228.12 197.61 233.08 209.06 243.56 212.63 240.75 204.97 241.71 204.63 244.8 213.06 251.78 215.44 251.46 216.41 239.17 212.22 228.54 218.34 228.02 217.45 237.87 211.77 228.12 208.45 228.13 208.46"></polygon></g></g><g id="Characters--inject-159"><path d="M357.14,207.15c-4.44-7.32-22.46-35.46-22.46-35.46l3.11-14.4a.91.91,0,0,0-1.74-.51l-2.3,5.26-3.06-3.87c-.82-1.11-3.57-5.88-4.65-6.26-2.11-.72-.42,2.15-.18,2.86.54,1.54,1.22,2.53,2.17,5.15-.69.49-3.86-5.43-4.38-6.12-.22-.28-.49-.74-.9-.77-1.63-.12,0,2.63.25,3.27.74,1.84,1.55,3.66,2.29,5.5-.93-1.3-2-3.46-2.9-4.75a13.62,13.62,0,0,0-1.11-1.72c-.66-.66-1.41-.13-1.14.84a20.92,20.92,0,0,0,1.5,3c.77,1.48,1.48,2.31,2.24,3.79-.81-1.08-1.41-1.61-2.21-2.69-.31-.42-.85-1.38-1.35-1.58-1.75-.71.61,3.2.92,3.64,1.07,1.54,1.92,3.33,3.06,4.78.15.2,2.24,2.35,2.22,2.37l3.77,5.06.11-.08c1.46,4.19,6.9,19.69,10.21,27.14,3.84,8.65,11.22,14.74,13.46,15.38a23.89,23.89,0,0,0,5.45.65l4.16-10S359,208.4,357.14,207.15Z" style="fill:#fff"></path><path d="M359.52,218.17a24.65,24.65,0,0,1-5.59-.66c-2.33-.67-9.84-6.81-13.78-15.67-3.21-7.22-8.39-21.92-10.1-26.82a.54.54,0,0,1-.16-.14l-3.77-5.06,0,0c-.11-.13-.66-.71-1.07-1.14-.72-.76-1-1.1-1.13-1.21a27.25,27.25,0,0,1-1.8-2.76c-.4-.68-.82-1.39-1.27-2,0,0-2.23-3.28-1.47-4.24.17-.21.51-.41,1.15-.15l.06,0a10.74,10.74,0,0,1-.91-2,1.38,1.38,0,0,1,.48-1.63,1.21,1.21,0,0,1,1.5.3,3.89,3.89,0,0,1,.5.67c-.5-1.08-.84-2.07-.42-2.69a1.1,1.1,0,0,1,1.07-.43,1.67,1.67,0,0,1,1.17.85l.09.12c.14.19.4.63.85,1.38.34.59,1,1.65,1.59,2.61l-.24-.52c-.32-.7-.6-1.3-.86-2,0-.11-.12-.29-.21-.5-.56-1.21-1-2.26-.44-2.84.3-.33.79-.38,1.46-.15.88.31,2.21,2.3,3.87,4.87.43.68.81,1.27,1,1.55l2.53,3.21,2-4.49a1.41,1.41,0,0,1,2.4-.31,1.43,1.43,0,0,1,.29,1.09l-3.07,14.23c1.52,2.38,18,28.12,22.3,35.2,1.42.87,4.86.58,6.09.39a.48.48,0,0,1,.47.19.5.5,0,0,1,.07.5l-4.16,10A.51.51,0,0,1,359.52,218.17Zm-29-44.16.07,0a.48.48,0,0,1,.31.31c1.57,4.49,6.92,19.73,10.2,27.1,3.75,8.44,11,14.49,13.14,15.1a22.4,22.4,0,0,0,5,.62l3.7-8.88c-1.5.15-4.55.3-6-.72a.4.4,0,0,1-.14-.15c-4.39-7.23-22.28-35.17-22.46-35.45a.51.51,0,0,1-.07-.38l3.11-14.4a.43.43,0,0,0-.09-.29.43.43,0,0,0-.29-.15.42.42,0,0,0-.42.24l-2.29,5.26a.51.51,0,0,1-.4.29.52.52,0,0,1-.46-.18l-3.05-3.88c-.24-.32-.61-.89-1.08-1.62-.88-1.38-2.73-4.25-3.35-4.46a1.3,1.3,0,0,0-.38-.09,6.41,6.41,0,0,0,.6,1.72c.11.24.2.45.25.58a18.32,18.32,0,0,0,.82,2c.38.83.82,1.77,1.34,3.2a.48.48,0,0,1-.18.57.66.66,0,0,1-.53.11c-.75-.16-1.81-1.75-3.75-5-.35-.58-.67-1.13-.79-1.28l-.1-.14c-.12-.16-.31-.44-.44-.44a.33.33,0,0,0-.17,0c-.07.13,0,.62.71,2.11.09.19.17.36.21.47.38.95.78,1.89,1.18,2.83s.75,1.77,1.11,2.66a.5.5,0,0,1-.22.62.51.51,0,0,1-.65-.14c-.48-.67-1-1.56-1.48-2.42s-1-1.7-1.42-2.33c-.16-.23-.31-.49-.45-.74a4.2,4.2,0,0,0-.61-.92c-.13-.13-.24-.15-.27-.14s-.11.21,0,.49a12.7,12.7,0,0,0,1.05,2.19c.15.27.3.53.41.76.38.72.73,1.27,1.1,1.86s.75,1.17,1.15,1.93a.5.5,0,0,1-.85.53c-.39-.52-.73-.91-1.06-1.3s-.73-.83-1.15-1.4c-.07-.09-.15-.22-.24-.35a5.27,5.27,0,0,0-.81-1,13.11,13.11,0,0,0,1.43,2.85c.47.67.9,1.39,1.31,2.09a24.81,24.81,0,0,0,1.73,2.66c.09.11.58.62,1.07,1.13s1,1,1.15,1.26h0Z" style="fill:#263238"></path><g style="clip-path:url(#clip-path-14--inject-159)"><path d="M354.33,214c-4.33-1.33-5-4-5-4V194.69c-4.82-7.62-10.35-16.28-13-20.47l-4.77,3.52c2.21,6.25,6.36,17.79,9.08,23.9,3.84,8.65,11.22,14.74,13.46,15.38a23.89,23.89,0,0,0,5.45.65l1-2.51A32.32,32.32,0,0,1,354.33,214Z" style="fill:#FF7B02"></path><path d="M354.33,214c-4.33-1.33-5-4-5-4V194.69c-4.82-7.62-10.35-16.28-13-20.47l-4.77,3.52c2.21,6.25,6.36,17.79,9.08,23.9,3.84,8.65,11.22,14.74,13.46,15.38a23.89,23.89,0,0,0,5.45.65l1-2.51A32.32,32.32,0,0,1,354.33,214Z" style="fill:#fff;opacity:0.5"></path></g><path d="M331,169.12a.51.51,0,0,1-.41-.21c-.07-.1-1.75-2.48-1-4.32s3.67-2.9,4-3a.5.5,0,0,1,.65.29.52.52,0,0,1-.3.65c-.8.29-3,1.31-3.43,2.45s.51,2.81.91,3.37a.5.5,0,0,1-.12.7A.52.52,0,0,1,331,169.12Z" style="fill:#263238"></path><path d="M324.26,165a.5.5,0,0,1-.33-.88l4.81-4.17a.51.51,0,0,1,.71.05.51.51,0,0,1-.05.71l-4.81,4.16A.48.48,0,0,1,324.26,165Z" style="fill:#263238"></path><path d="M397,207.07s-1-5-5.45-5S360.45,206,360.45,206l-1.89,13.64s20.68.68,26.13-.11a16.51,16.51,0,0,0,8.4-3.55" style="fill:#fff"></path><path d="M374.26,220.36c-7.23,0-15.19-.25-15.72-.27a.5.5,0,0,1-.36-.18.47.47,0,0,1-.12-.39l1.9-13.63a.5.5,0,0,1,.42-.43c1.08-.16,26.62-3.94,31.16-3.94h0c4.78,0,5.93,5.39,5.94,5.45a.5.5,0,0,1-1,.2c0-.19-1-4.63-5-4.65s-27.44,3.4-30.68,3.87l-1.76,12.72c3.33.1,20.64.57,25.49-.13a16.13,16.13,0,0,0,8.13-3.41.5.5,0,0,1,.71,0,.48.48,0,0,1,0,.7,16.79,16.79,0,0,1-8.67,3.67A92.85,92.85,0,0,1,374.26,220.36Z" style="fill:#263238"></path><g style="clip-path:url(#clip-path-15--inject-159)"><path d="M397,206.88l-4.31-1.55-30,9.34,1-7-3.17,12c5.29.14,19.75.47,24.18-.17a16.51,16.51,0,0,0,8.4-3.55l3.94-8.86A1.22,1.22,0,0,0,397,206.88Z" style="fill:#FF7B02"></path><path d="M397,206.88l-4.31-1.55-30,9.34,1-7-3.17,12c5.29.14,19.75.47,24.18-.17a16.51,16.51,0,0,0,8.4-3.55l3.94-8.86A1.22,1.22,0,0,0,397,206.88Z" style="fill:#fff;opacity:0.5"></path></g><path d="M379.48,313.84s-1.87,10.52-.75,19.5,21.79,35.1,30.4,46.33,10.09,17.84,10.09,17.84,1.58,6-3.29,8.22-8.25,4.51-5.63,5.63,8.11.55,10.36.18,8.11-5.06,11.48-6.18,2.37-4.31.5-6.55-5.16-4.55-7.78-9.05a187.12,187.12,0,0,1-12.81-29.13c-4.87-13.85-15.92-26.08-15.92-26.08l5.81-20Z" style="fill:#fff"></path><path d="M414.85,412.52a12.92,12.92,0,0,1-4.75-.7c-.79-.34-1.2-.82-1.21-1.43,0-.84.68-2.28,6.84-5.12,4.43-2,3-7.57,3-7.63s-1.59-6.68-10-17.67c-.72-.93-1.52-2-2.4-3.11-9.45-12.26-27.05-35.09-28.1-43.46-1.11-8.95.74-19.55.76-19.65a.51.51,0,0,1,.51-.42l22.46.75a.55.55,0,0,1,.39.21.48.48,0,0,1,.07.43l-5.73,19.7c1.48,1.69,11.34,13.24,15.83,26a187,187,0,0,0,12.77,29.05,30.69,30.69,0,0,0,5.55,6.71,30.09,30.09,0,0,1,2.18,2.27c1.48,1.77,2.12,3.67,1.72,5.08a3.42,3.42,0,0,1-2.44,2.26,34.74,34.74,0,0,0-6,3.27c-2.33,1.46-4.34,2.72-5.58,2.93A40.44,40.44,0,0,1,414.85,412.52Zm-34.94-98.17c-.33,2-1.66,11.13-.68,18.93,1,8.09,18.5,30.78,27.9,43l2.39,3.12c8.58,11.18,10.13,17.76,10.19,18,0,.05,1.62,6.39-3.57,8.78-5.82,2.69-6.26,3.89-6.25,4.2s.38.43.61.52c2.42,1,7.65.55,10.08.14,1-.17,3.16-1.5,5.21-2.78a34.61,34.61,0,0,1,6.19-3.38,2.5,2.5,0,0,0,1.8-1.58c.3-1.08-.28-2.68-1.53-4.17a27.78,27.78,0,0,0-2.11-2.19,31.74,31.74,0,0,1-5.72-6.92,189.32,189.32,0,0,1-12.84-29.23c-4.78-13.6-15.71-25.79-15.82-25.91a.48.48,0,0,1-.11-.47l5.63-19.35Z" style="fill:#263238"></path><g style="clip-path:url(#clip-path-16--inject-159)"><path d="M424.86,389.76a187.12,187.12,0,0,1-12.81-29.13c-4.87-13.85-15.92-26.08-15.92-26.08l5.81-20L385.16,314l-2.48,6.6s-3.06,8.3-.65,15.08,30.15,42.61,34.74,52.88a21.64,21.64,0,0,1,1.93,7.3,14.94,14.94,0,0,1,.52,1.63s1.58,6-3.29,8.22-8.25,4.51-5.63,5.63,8.11.55,10.36.18,8.11-5.06,11.48-6.18,2.37-4.31.5-6.55S427.48,394.26,424.86,389.76Z" style="fill:#FF7B02"></path><path d="M424.86,389.76a187.12,187.12,0,0,1-12.81-29.13c-4.87-13.85-15.92-26.08-15.92-26.08l5.81-20L385.16,314l-2.48,6.6s-3.06,8.3-.65,15.08,30.15,42.61,34.74,52.88a21.64,21.64,0,0,1,1.93,7.3,14.94,14.94,0,0,1,.52,1.63s1.58,6-3.29,8.22-8.25,4.51-5.63,5.63,8.11.55,10.36.18,8.11-5.06,11.48-6.18,2.37-4.31.5-6.55S427.48,394.26,424.86,389.76Z" style="fill:#fff;opacity:0.5"></path></g><path d="M432.64,398.81c-.12-.15-.27-.3-.4-.45a54.6,54.6,0,0,1-8.88,5l-3.56-2.91-.38,0a6,6,0,0,1-3.49,5.22c-4.86,2.24-8.25,4.51-5.63,5.63s8.11.55,10.36.18,8.11-5.06,11.48-6.18S434.51,401.05,432.64,398.81Z" style="fill:#263238"></path><path d="M414.85,412.52a12.92,12.92,0,0,1-4.75-.7c-.79-.34-1.2-.82-1.21-1.43,0-.84.68-2.28,6.84-5.12a5.43,5.43,0,0,0,3.2-4.8.49.49,0,0,1,.45-.46l.38,0a.52.52,0,0,1,.36.11l3.32,2.72A56.21,56.21,0,0,0,432,398a.51.51,0,0,1,.66.08l.11.12c.11.11.21.23.3.34h0c1.48,1.77,2.12,3.67,1.72,5.08a3.42,3.42,0,0,1-2.44,2.26,34.74,34.74,0,0,0-6,3.27c-2.33,1.46-4.34,2.72-5.58,2.93A40.44,40.44,0,0,1,414.85,412.52Zm5-11.36a6.33,6.33,0,0,1-3.71,5c-5.82,2.69-6.26,3.89-6.25,4.2s.38.43.61.52c2.42,1,7.65.55,10.08.14,1-.17,3.16-1.5,5.21-2.78a34.61,34.61,0,0,1,6.19-3.38,2.5,2.5,0,0,0,1.8-1.58c.3-1.08-.28-2.68-1.53-4.17h0a.87.87,0,0,0-.09-.11,55.13,55.13,0,0,1-8.61,4.83.5.5,0,0,1-.51-.08Z" style="fill:#263238"></path><path d="M374.1,302.23s-.5,26.49,2.9,34.73,9.5,25.2,11.58,36.16a211.93,211.93,0,0,1,3.63,32.38s-10.87,7.59-14.75,9-1,3.39,2.91,3.39a146.28,146.28,0,0,0,15.51-1c1-.17,1.94-.28,2.68-.35a2.08,2.08,0,0,0,1.88-2.33c-.28-2.33-2.19-5.58-2.19-8,0-3.88,3-19.81,4.91-34.84s-8.58-26-10.52-38.61,1.19-30.66,1.19-30.66Z" style="fill:#fff"></path><path d="M380.37,418.43c-2.4,0-5-.74-5.22-2.15-.11-.6.17-1.47,2.13-2.21,3.48-1.3,12.86-7.75,14.42-8.83a214,214,0,0,0-3.61-32c-2-10.81-8.18-27.85-11.55-36.06s-3-33.84-2.94-34.93a.51.51,0,0,1,.5-.49l19.73-.1h0a.49.49,0,0,1,.38.17.48.48,0,0,1,.11.41c0,.18-3.09,18.12-1.18,30.5.75,4.91,2.8,9.51,5,14.38,3.31,7.44,6.73,15.13,5.54,24.36-.87,6.75-1.93,13.58-2.87,19.6-1.13,7.31-2,13.07-2,15.18a14.33,14.33,0,0,0,1.14,4.4,17.36,17.36,0,0,1,1.05,3.58,2.59,2.59,0,0,1-2.33,2.9c-.85.08-1.74.2-2.64.35A149.62,149.62,0,0,1,380.37,418.43Zm-5.77-115.7c-.05,3.64-.21,26.6,2.86,34C381,345.34,387,362.06,389.08,373a214.94,214.94,0,0,1,3.63,32.47.53.53,0,0,1-.21.42c-.45.31-11,7.64-14.86,9.1-1.26.47-1.54.91-1.51,1.09.1.55,1.8,1.33,4.24,1.33a146.19,146.19,0,0,0,15.43-1c.92-.15,1.84-.27,2.71-.36a1.59,1.59,0,0,0,1.44-1.77,16.87,16.87,0,0,0-1-3.36,15,15,0,0,1-1.2-4.75c0-2.18.9-8,2-15.33.94-6,2-12.84,2.87-19.58,1.16-8.95-2.21-16.51-5.46-23.82-2.2-4.93-4.28-9.6-5.05-14.64-1.73-11.27.58-27,1.09-30.23Z" style="fill:#263238"></path><g style="clip-path:url(#clip-path-17--inject-159)"><path d="M392.64,332.78c-1.94-12.6,1.19-30.66,1.19-30.66l-19.73.11s-.43,22.93,2.25,32.76a35.85,35.85,0,0,0,8.08,1.36h4.15s7.65,19.89,9,32.56-3.71,36.06-2.84,39.56c.62,2.48,2.23,5.95,2.48,8.3.51-.07,1-.12,1.38-.16a2.08,2.08,0,0,0,1.88-2.33c-.28-2.33-2.19-5.58-2.19-8,0-3.88,3-19.81,4.91-34.84S394.58,345.39,392.64,332.78Z" style="fill:#FF7B02"></path><path d="M392.64,332.78c-1.94-12.6,1.19-30.66,1.19-30.66l-19.73.11s-.43,22.93,2.25,32.76a35.85,35.85,0,0,0,8.08,1.36h4.15s7.65,19.89,9,32.56-3.71,36.06-2.84,39.56c.62,2.48,2.23,5.95,2.48,8.3.51-.07,1-.12,1.38-.16a2.08,2.08,0,0,0,1.88-2.33c-.28-2.33-2.19-5.58-2.19-8,0-3.88,3-19.81,4.91-34.84S394.58,345.39,392.64,332.78Z" style="fill:#fff;opacity:0.5"></path></g><path d="M398.56,416.61a2.08,2.08,0,0,0,1.88-2.33c-.19-1.62-1.17-3.68-1.75-5.61l-7.33,1.51-3.12-2c-3.51,2.33-8.43,5.47-10.78,6.35-3.88,1.45-1,3.39,2.91,3.39a146.28,146.28,0,0,0,15.51-1C396.91,416.79,397.82,416.68,398.56,416.61Z" style="fill:#263238"></path><path d="M380.37,418.43c-2.4,0-5-.74-5.22-2.15-.11-.6.17-1.47,2.13-2.21,2.29-.85,7.07-3.89,10.68-6.29a.52.52,0,0,1,.55,0l2.95,1.88,7.13-1.47a.49.49,0,0,1,.58.34c.21.69.47,1.4.72,2.1a17.43,17.43,0,0,1,1.05,3.59,2.59,2.59,0,0,1-2.33,2.9h0c-.85.08-1.74.2-2.64.35A149.62,149.62,0,0,1,380.37,418.43Zm7.88-9.64c-3.62,2.4-8.3,5.35-10.61,6.22-1.26.47-1.54.91-1.51,1.09.1.55,1.8,1.33,4.24,1.33a146.19,146.19,0,0,0,15.43-1c.92-.15,1.84-.27,2.71-.36h0a1.59,1.59,0,0,0,1.44-1.77,17,17,0,0,0-1-3.38c-.2-.57-.41-1.14-.6-1.71l-6.89,1.42a.48.48,0,0,1-.37-.07Zm10.31,7.82h0Z" style="fill:#263238"></path><path d="M371.89,252.85s-8.06,7.84-16,25.7-9.38,42.77-9.38,42.77,15.55,8.15,39.45,7,36.14-13,36.14-13-7.25-34.71-18.53-51.94c-6.55-10-8.89-13.21-8.89-13.21S377.63,249,371.89,252.85Z" style="fill:#263238"></path><path d="M381.59,329c-21.28,0-35.13-7.12-35.28-7.2a.5.5,0,0,1-.27-.47c0-.25,1.57-25.2,9.42-42.94s16-25.78,16.08-25.86a.18.18,0,0,1,.07-.05c5.82-3.94,22.44-2.78,23.14-2.73a.53.53,0,0,1,.37.2s2.42,3.33,8.9,13.24c11.2,17.11,18.53,51.76,18.6,52.11a.49.49,0,0,1-.14.46c-.12.12-12.66,12-36.47,13.14C384.51,328.93,383,329,381.59,329ZM347.06,321c2.24,1.08,17.19,7.84,38.9,6.84s33.94-11.17,35.62-12.67c-.72-3.32-7.83-35.35-18.39-51.49-5.62-8.58-8.16-12.19-8.74-13-2.05-.13-17-.93-22.24,2.55-.55.55-8.31,8.51-15.83,25.51C349.09,295.22,347.28,318,347.06,321Z" style="fill:#263238"></path><path d="M369.78,270.44h-.07a.37.37,0,0,1-.3-.43,62.34,62.34,0,0,1,5.14-15.75.38.38,0,1,1,.67.35,60.83,60.83,0,0,0-5.07,15.53A.38.38,0,0,1,369.78,270.44Z" style="fill:#fff"></path><path d="M385.89,281.3h0a.38.38,0,0,1-.37-.38,97.07,97.07,0,0,0-4-28.88.37.37,0,0,1,.71-.23,97.55,97.55,0,0,1,4,29.12A.37.37,0,0,1,385.89,281.3Z" style="fill:#fff"></path><path d="M397.68,264.47a.38.38,0,0,1-.35-.24,48.8,48.8,0,0,0-10.7-15.77.38.38,0,0,1,0-.53.37.37,0,0,1,.53,0A49.83,49.83,0,0,1,398,264a.38.38,0,0,1-.21.49Z" style="fill:#fff"></path><path d="M400.11,198s-7,5-14.68,10.2-9.95,7.71-10.2,12.43,1.25,12.19.25,14.43-3.59,12.73-4.55,18.25c-.54,3.09,15.6,3.18,22.1,2.17a4.22,4.22,0,0,0,3.48-3.35c1.08-5.43,4.2-19.15,9.07-26.27,6.47-9.45,4.74-18.82,2.75-22.55S404.33,195.53,400.11,198Z" style="fill:#fff"></path><path d="M383.6,256.56c-5.49,0-11.22-.52-12.73-2.05a1.39,1.39,0,0,1-.43-1.26c1-5.68,3.6-16.16,4.58-18.37.52-1.17.27-4.29,0-7.3a56.8,56.8,0,0,1-.3-7c.27-5.12,2.84-7.69,10.42-12.83s14.6-10.14,14.67-10.19l0,0a4.69,4.69,0,0,1,3.7-.69c2.26.63,3.69,3.31,5.06,5.89l.16.31c2,3.69,3.93,13.26-2.78,23.06-4.83,7.07-7.89,20.59-9,26.08a4.72,4.72,0,0,1-3.89,3.75A69.59,69.59,0,0,1,383.6,256.56Zm16.78-58.12c-.41.29-7.23,5.15-14.67,10.19-7.79,5.28-9.75,7.64-10,12.05a55.08,55.08,0,0,0,.3,6.82c.29,3.42.53,6.38-.09,7.78-1,2.17-3.54,12.51-4.52,18.14a.44.44,0,0,0,.16.39c1.95,2,14.94,2.19,21.38,1.19a3.71,3.71,0,0,0,3.06-2.95c1.11-5.55,4.21-19.24,9.15-26.45,6.43-9.41,4.59-18.52,2.72-22l-.16-.31c-1.28-2.4-2.6-4.88-4.45-5.4A3.64,3.64,0,0,0,400.38,198.44Z" style="fill:#263238"></path><g style="clip-path:url(#clip-path-18--inject-159)"><path d="M409.81,202.5c-2-3.74-5.48-7-9.7-4.48l-1.67,1.18a9.15,9.15,0,0,0-1.44,2.47l-1.67,10s-9,8.33-11,14,.34,16-.66,20c-.6,2.39-6.91,5.85-11.89,8.89,3.37,1.86,15.75,1.79,21.25.94a4.22,4.22,0,0,0,3.48-3.35c1.08-5.43,4.2-19.15,9.07-26.27C412.05,216.43,411.8,206.23,409.81,202.5Z" style="fill:#FF7B02"></path><path d="M409.81,202.5c-2-3.74-5.48-7-9.7-4.48l-1.67,1.18a9.15,9.15,0,0,0-1.44,2.47l-1.67,10s-9,8.33-11,14,.34,16-.66,20c-.6,2.39-6.91,5.85-11.89,8.89,3.37,1.86,15.75,1.79,21.25.94a4.22,4.22,0,0,0,3.48-3.35c1.08-5.43,4.2-19.15,9.07-26.27C412.05,216.43,411.8,206.23,409.81,202.5Z" style="fill:#fff;opacity:0.5"></path></g><path d="M385.77,149.63s-9.11,1.19-9.51,5.15,4.76,4.76,4,6.34-8.32.4-8.72,5.55,15,19.71,18.95,20.11,9.59,3.68,15.94.5,12.29-13.87,4.75-26.16S385.77,149.63,385.77,149.63Z" style="fill:#263238"></path><path d="M400.56,189.15a25.76,25.76,0,0,1-6.7-1.13,24.77,24.77,0,0,0-3.46-.75c-4.08-.4-19.83-15-19.39-20.64.28-3.74,4-4.48,6.44-5,1-.19,2.16-.43,2.33-.76s-.34-.64-1.13-1.23c-1.33-1-3.15-2.35-2.89-4.94.43-4.31,9.56-5.55,9.95-5.6h0c.19,0,18.22-.67,25.82,11.73,4.35,7.09,4,13.07,2.9,16.84a16.37,16.37,0,0,1-7.86,10A13.2,13.2,0,0,1,400.56,189.15Zm-14.74-39c-2.45.32-8.77,1.78-9.06,4.7-.2,2,1.23,3.1,2.49,4,.95.72,1.94,1.45,1.42,2.49-.38.76-1.55,1-3,1.29-2.41.48-5.42,1.08-5.65,4.07-.38,4.91,14.87,19.21,18.5,19.57a23.23,23.23,0,0,1,3.62.78c3.55.94,7.58,2,12-.22a15.35,15.35,0,0,0,7.35-9.42c1-3.57,1.36-9.25-2.79-16C403.54,149.67,386.5,150.1,385.82,150.13Z" style="fill:#263238"></path><path d="M408.34,184a.37.37,0,0,1-.32-.19.37.37,0,0,1,.14-.51c1.24-.71,3.73-2.9,3.52-5.18-.14-1.68-1.75-3.08-4.75-4.15C398,170.79,385.32,162.3,386,157.09a3.13,3.13,0,0,1,2.22-2.79.38.38,0,1,1,.22.72,2.36,2.36,0,0,0-1.7,2.17c-.59,4.43,10.93,12.68,20.43,16.07,3.31,1.18,5.07,2.8,5.25,4.79.23,2.55-2.27,5-3.9,5.9A.32.32,0,0,1,408.34,184Z" style="fill:#fff"></path><path d="M394.13,155.9l-.15,0a14.91,14.91,0,0,0-2.47-.8.39.39,0,0,1-.29-.45.37.37,0,0,1,.45-.28,14.44,14.44,0,0,1,2.62.85.37.37,0,0,1-.16.71Z" style="fill:#fff"></path><path d="M390.41,191.8a23.5,23.5,0,0,1,1.24,8,17.3,17.3,0,0,1-1.74,6.47l10.2-8.21s-.25-2.74-.75-7.22-1.71-10.55-1.71-10.55Z" style="fill:#fff"></path><path d="M389.91,206.73a.47.47,0,0,1-.32-.12.48.48,0,0,1-.12-.62,17.13,17.13,0,0,0,1.68-6.26,22.85,22.85,0,0,0-1.22-7.76.52.52,0,0,1,.05-.44L397.23,180a.48.48,0,0,1,.51-.23.5.5,0,0,1,.4.4c0,.06,1.22,6.14,1.72,10.59s.74,7.2.74,7.22a.5.5,0,0,1-.18.44l-10.2,8.21A.51.51,0,0,1,389.91,206.73Zm1-14.87a23.5,23.5,0,0,1,1.19,7.93,18.23,18.23,0,0,1-1,4.8l8.43-6.79c-.07-.79-.31-3.3-.72-6.94-.35-3.2-1.08-7.26-1.46-9.27Z" style="fill:#263238"></path><g style="clip-path:url(#clip-path-19--inject-159)"><path d="M390.41,191.8a23.5,23.5,0,0,1,1.24,8,17.3,17.3,0,0,1-1.74,6.47l10.2-8.21s-.25-2.74-.75-7.22-1.71-10.55-1.71-10.55Z" style="fill:#FF7B02"></path><path d="M390.41,191.8a23.5,23.5,0,0,1,1.24,8,17.3,17.3,0,0,1-1.74,6.47l10.2-8.21s-.25-2.74-.75-7.22-1.71-10.55-1.71-10.55Z" style="fill:#fff;opacity:0.5"></path></g><path d="M387.17,162.7s-5.22,2.73-6.71,6.71-.75,6.72-2,9-3.49,2.49-2,3.48,3.48,2.24,3.48,2.24,1,8,1.74,9.45,3.23,1,6.47,0,8-4.52,8.73-5.77.88-6.14.88-6.14S385.43,173.64,387.17,162.7Z" style="fill:#fff"></path><path d="M383.7,195a2.48,2.48,0,0,1-2.45-1.22c-.71-1.42-1.57-7.87-1.76-9.37-.54-.35-2.08-1.32-3.29-2.12a1.4,1.4,0,0,1-.72-1c0-.54.39-.89.92-1.33a6.49,6.49,0,0,0,1.63-1.83,9.24,9.24,0,0,0,.83-3.57,20,20,0,0,1,1.13-5.32c1.54-4.11,6.73-6.87,6.95-7a.51.51,0,0,1,.52,0,.52.52,0,0,1,.21.49c-1.68,10.5,10.26,18.35,10.38,18.43a.54.54,0,0,1,.23.44c0,.51-.16,5.06-.95,6.38s-5.72,5-9,6A17,17,0,0,1,383.7,195Zm-7.21-13.74s.1.08.26.19c1.49,1,3.47,2.24,3.47,2.24a.45.45,0,0,1,.23.36c.28,2.19,1.12,8.13,1.7,9.29s3.17.57,5.87-.26c3.13-1,7.77-4.41,8.45-5.55.47-.78.73-3.74.8-5.62-1.72-1.17-11.57-8.35-10.72-18.25-1.5.94-4.57,3.14-5.63,6a19.15,19.15,0,0,0-1.06,5.07,10,10,0,0,1-1,4,7.39,7.39,0,0,1-1.86,2.11A4.88,4.88,0,0,0,376.49,181.24Z" style="fill:#263238"></path><g style="clip-path:url(#clip-path-20--inject-159)"><path d="M387.05,165.86c-.13,1.77-.27,6.53,1.68,9.61,2.42,3.84,3.43,11.52,1.41,14.15-1.6,2.09-6.39,3.41-7.17,4.78,1.19.24,3-.19,5.2-.86,3.23-1,8-4.52,8.73-5.77s.88-6.14.88-6.14S387.76,175.15,387.05,165.86Z" style="fill:#FF7B02"></path><path d="M386.08,163.35,387,165a13.79,13.79,0,0,1,.16-2.29S386.73,162.93,386.08,163.35Z" style="fill:#FF7B02"></path><g style="opacity:0.5"><path d="M387.05,165.86c-.13,1.77-.27,6.53,1.68,9.61,2.42,3.84,3.43,11.52,1.41,14.15-1.6,2.09-6.39,3.41-7.17,4.78,1.19.24,3-.19,5.2-.86,3.23-1,8-4.52,8.73-5.77s.88-6.14.88-6.14S387.76,175.15,387.05,165.86Z" style="fill:#fff"></path><path d="M386.08,163.35,387,165a13.79,13.79,0,0,1,.16-2.29S386.73,162.93,386.08,163.35Z" style="fill:#fff"></path></g></g><path d="M383.5,177.6c0,.75-.25,1.36-.57,1.36s-.56-.61-.56-1.36.25-1.36.56-1.36S383.5,176.85,383.5,177.6Z" style="fill:#263238"></path><path d="M381.88,185.58a.36.36,0,0,1-.37-.32.38.38,0,0,1,.31-.43s3-.45,4-2.09a.38.38,0,0,1,.64.4c-1.21,1.94-4.43,2.42-4.57,2.44Z" style="fill:#263238"></path><path d="M381,173.68a.35.35,0,0,1-.23-.09.37.37,0,0,1-.06-.52,3.75,3.75,0,0,1,2.33-1.38,2.06,2.06,0,0,1,1.62.67.37.37,0,0,1,0,.53.39.39,0,0,1-.53,0,1.29,1.29,0,0,0-1-.45,3.06,3.06,0,0,0-1.8,1.1A.37.37,0,0,1,381,173.68Z" style="fill:#263238"></path><polygon points="401.1 194.54 389.66 204.74 387.17 211.2 405.08 198.02 401.1 194.54" style="fill:#fff"></polygon><path d="M387.17,211.7a.47.47,0,0,1-.3-.1.5.5,0,0,1-.17-.58l2.49-6.47a.52.52,0,0,1,.14-.19l11.44-10.2a.49.49,0,0,1,.66,0l4,3.48a.51.51,0,0,1,.17.4.51.51,0,0,1-.2.38L387.47,211.6A.47.47,0,0,1,387.17,211.7Zm2.91-6.67-1.83,4.76,16-11.81-3.18-2.78Z" style="fill:#263238"></path><path d="M181,257.21a42.32,42.32,0,0,1-7.62-.68c-3.82-.7-17.18-14.35-17.75-14.94a.49.49,0,0,1-.12-.5l6.39-19.16a.51.51,0,0,1,.41-.34.49.49,0,0,1,.48.23l13,20a76,76,0,0,0,13.1-.28c6.63-.76,30.17-1.16,32.76-1.21l9.74-11.68a1.65,1.65,0,0,1,1.1-.48,1.43,1.43,0,0,1,1.06.47,1.47,1.47,0,0,1,.21,1.68l-2.47,4.55,4.34,0c.37,0,1.09-.07,1.93-.15,3.2-.29,5.7-.48,6.51.05.23.15.93.6.81,1.28s-1.26,1.13-2.61,1.45l-.55.14a20.1,20.1,0,0,1-2.24.61l-.9.21c1.27-.1,2.73-.29,3.5-.39.92-.12,1.45-.19,1.69-.19h.16a1.77,1.77,0,0,1,1.44.42,1.1,1.1,0,0,1,.32,1.13c-.26.84-1.55,1.18-3,1.48l-.18,0,.13,0a5.46,5.46,0,0,1,1.41-.1,1.24,1.24,0,0,1,1.2,1,1.4,1.4,0,0,1-1,1.42,11.45,11.45,0,0,1-2.3.54l.14.07c.61.35.66.75.6,1-.29,1.22-4.39,1.5-4.43,1.5-.82,0-1.68.15-2.51.26a26.47,26.47,0,0,1-3.43.3c-.14,0-.63-.05-1.71-.15l-1.65-.16h0l-6.57.14c-1.15.75-5.24,2.21-19.51,6.26-.88.25-1.5.42-1.74.5C194,255.76,187.51,257.21,181,257.21Zm-24.44-16.1c4,4,14.14,13.91,17,14.43,9.14,1.67,17.53,0,27.31-2.9l1.76-.5c11.94-3.39,18.41-5.45,19.26-6.13a.49.49,0,0,1,.8-.17l6.27-.14h0c.32,0,.86,0,1.79.14.67.07,1.49.15,1.62.15a26.93,26.93,0,0,0,3.3-.29c.85-.11,1.73-.22,2.59-.27a13.75,13.75,0,0,0,3.34-.67,3.91,3.91,0,0,0-1.42,0l-.45,0c-.74,0-1.33,0-1.9,0s-1.08-.07-1.76-.05a.48.48,0,0,1-.51-.45.51.51,0,0,1,.41-.54c.88-.17,1.62-.23,2.33-.3s1.41-.13,2.25-.29l.89-.15a13.33,13.33,0,0,0,2.49-.55c.32-.13.41-.3.4-.37s-.1-.12-.32-.15a4.17,4.17,0,0,0-1.14.09c-.31.05-.61.09-.91.11a28,28,0,0,0-2.84.33c-1,.15-2.09.3-3,.34a.49.49,0,0,1-.51-.42.49.49,0,0,1,.35-.56c1-.28,1.94-.54,2.91-.8s2.07-.56,3.1-.86c.12,0,.31-.08.53-.13,1.73-.37,2.16-.64,2.22-.8h0a.53.53,0,0,0-.11-.16h0c-.09-.11-.44-.1-.67-.09h-.17c-.2,0-.84.08-1.58.18-4,.51-6,.67-6.56.16a.69.69,0,0,1-.25-.49.5.5,0,0,1,.34-.5c1.52-.49,2.58-.74,3.51-1a21,21,0,0,0,2.14-.58,5.71,5.71,0,0,1,.65-.17,6.11,6.11,0,0,0,1.85-.65,3.56,3.56,0,0,0-.36-.27c-.59-.38-4.16-.05-5.87.11-.9.08-1.61.15-2,.15l-5.18,0a.5.5,0,0,1-.44-.74l2.86-5.29a.45.45,0,0,0-.07-.52.43.43,0,0,0-.33-.15h0a.47.47,0,0,0-.33.14l-9.87,11.84a.51.51,0,0,1-.38.18c-.26,0-25.95.4-32.89,1.2a77.71,77.71,0,0,1-13.54.27.51.51,0,0,1-.37-.23l-12.6-19.36Zm65.29,5.13Z" style="fill:#263238"></path><path d="M225.52,242.75a.5.5,0,0,1,0-1c2.68-.16,4.83-.77,4.91-1.18,0-1.3-.44-5.08-.45-5.12a.51.51,0,0,1,.44-.56.5.5,0,0,1,.55.44c0,.16.46,3.89.46,5.24,0,1.64-4.09,2.07-5.85,2.18Z" style="fill:#263238"></path><path d="M175.49,242.32l-13.16-20.23L156,241.25s13.78,14.11,17.48,14.78c9.63,1.75,18.36-.15,27.55-2.91,1.13-.34,10.4-2.9,16.34-4.85l4.8-1.85c.12-.09.19-.16.19-.22l-.44-5.35s-25.89.39-32.93,1.21A75.84,75.84,0,0,1,175.49,242.32Z" style="fill:#fff"></path><path d="M181,257.21a42.32,42.32,0,0,1-7.62-.68c-3.82-.7-17.18-14.35-17.75-14.94a.49.49,0,0,1-.12-.5l6.39-19.16a.51.51,0,0,1,.41-.34.49.49,0,0,1,.48.23l13,20a76,76,0,0,0,13.1-.28c7-.81,32.73-1.21,33-1.21a.48.48,0,0,1,.51.46l.44,5.35a.8.8,0,0,1-.41.67.53.53,0,0,1-.1.06l-4.8,1.85c-4.69,1.54-11.41,3.44-14.63,4.36-.88.25-1.51.42-1.75.5C194,255.76,187.51,257.21,181,257.21Zm-24.44-16.1c4,4,14.14,13.91,17,14.43,9.14,1.67,17.53,0,27.31-2.9l1.77-.5c3.21-.92,9.92-2.82,14.56-4.34l4.63-1.79-.38-4.65c-3.53.06-26,.45-32.42,1.19a77.71,77.71,0,0,1-13.54.27.51.51,0,0,1-.37-.23l-12.6-19.36Z" style="fill:#263238"></path><g style="clip-path:url(#clip-path-21--inject-159)"><path d="M164,236s11,7.67,9,9-4,.67-2,1.33,20.67,1,20.67,1l-3,8s-14,0-16.34-1.66-9.66-12.34-9.66-12.34Z" style="fill:#FF7B02"></path><path d="M164,236s11,7.67,9,9-4,.67-2,1.33,20.67,1,20.67,1l-3,8s-14,0-16.34-1.66-9.66-12.34-9.66-12.34Z" style="fill:#fff;opacity:0.5"></path></g><rect x="189.05" y="159.64" width="151.84" height="177.64" rx="8.29" style="fill:#fff"></rect><path d="M332.61,337.78H197.34a8.8,8.8,0,0,1-8.79-8.79V167.93a8.81,8.81,0,0,1,8.79-8.79H332.61a8.8,8.8,0,0,1,8.78,8.79V329A8.79,8.79,0,0,1,332.61,337.78ZM197.34,160.14a7.81,7.81,0,0,0-7.79,7.79V329a7.8,7.8,0,0,0,7.79,7.79H332.61a7.79,7.79,0,0,0,7.78-7.79V167.93a7.8,7.8,0,0,0-7.78-7.79Z" style="fill:#263238"></path><path d="M229.35,197.68a.5.5,0,0,1-.3-.11L222,192.06a.51.51,0,0,1-.09-.71.52.52,0,0,1,.71-.08l7,5.51a.5.5,0,0,1,.09.7A.51.51,0,0,1,229.35,197.68Z" style="fill:#263238"></path><path d="M238.85,190a.48.48,0,0,1-.41-.23L236,186.12a.5.5,0,0,1,.84-.56l2.45,3.68a.5.5,0,0,1-.14.69A.49.49,0,0,1,238.85,190Z" style="fill:#263238"></path><path d="M251.11,184.2a.5.5,0,0,1-.48-.35l-2.15-6.74a.5.5,0,0,1,1-.31l2.14,6.74a.49.49,0,0,1-.32.63A.4.4,0,0,1,251.11,184.2Z" style="fill:#263238"></path><path d="M294.4,197.68a.49.49,0,0,1-.39-.2.5.5,0,0,1,.08-.7l7.05-5.51a.5.5,0,1,1,.61.79l-7,5.51A.51.51,0,0,1,294.4,197.68Z" style="fill:#263238"></path><path d="M284.9,190a.46.46,0,0,1-.27-.09.49.49,0,0,1-.14-.69l2.45-3.68a.5.5,0,0,1,.69-.14.51.51,0,0,1,.14.7l-2.45,3.67A.51.51,0,0,1,284.9,190Z" style="fill:#263238"></path><path d="M272.65,184.2a.4.4,0,0,1-.15,0,.5.5,0,0,1-.33-.63l2.15-6.74a.49.49,0,0,1,.62-.32.5.5,0,0,1,.33.63l-2.14,6.74A.51.51,0,0,1,272.65,184.2Z" style="fill:#263238"></path><path d="M263.21,187h-.41c-22.45.41-39.37,17.58-39.37,38.71a38.63,38.63,0,0,0,4.48,18.11c1.27,2.94,4.23,10.14,7.21,19.45a102.38,102.38,0,0,1,4.18,18.54c0,.13,0,.26,0,.4a2.9,2.9,0,0,0,2.89,3h40.21a2.89,2.89,0,0,0,2.89-3v-.4a101.45,101.45,0,0,1,4.18-18.54c3-9.31,5.94-16.51,7.2-19.45A38.74,38.74,0,0,0,263.21,187Z" style="fill:#FF7B02"></path><path d="M282.39,285.73H242.18a3.4,3.4,0,0,1-3.39-3.51v-.39a102.29,102.29,0,0,0-4.15-18.39c-3-9.39-6-16.7-7.19-19.4a39.34,39.34,0,0,1-4.52-18.31c0-21.55,17.46-38.76,39.77-39.21h.62a39.24,39.24,0,0,1,33.78,57.55c-1.14,2.67-4.17,10-7.17,19.37a102.29,102.29,0,0,0-4.15,18.39v.38a3.4,3.4,0,0,1-3.39,3.52Zm-19.51-98.22h-.07c-21.8.4-38.88,17.19-38.88,38.21a38.33,38.33,0,0,0,4.42,17.87c1.19,2.76,4.23,10.1,7.24,19.54,2.76,8.64,4.2,17.27,4.2,18.69v.42a2.39,2.39,0,0,0,2.39,2.48h40.21a2.39,2.39,0,0,0,2.39-2.48v-.42c0-1.42,1.44-10.05,4.2-18.69,3-9.43,6-16.78,7.22-19.5a38.24,38.24,0,0,0-33-56.12h-.32Z" style="fill:#263238"></path><ellipse cx="274.81" cy="211.02" rx="15.03" ry="14.55" style="fill:#fff;opacity:0.43"></ellipse><ellipse cx="268.1" cy="206.65" rx="7.34" ry="7.1" style="fill:#fff"></ellipse><path d="M248.65,194.23a1,1,0,0,1-.92-.59,1,1,0,0,1,.51-1.32,33.88,33.88,0,0,1,3.55-1.36,1,1,0,0,1,1.26.66,1,1,0,0,1-.66,1.25,30.63,30.63,0,0,0-3.33,1.28A1,1,0,0,1,248.65,194.23Z" style="fill:#fff"></path><path d="M235.75,204.06a1,1,0,0,1-.54-.15,1,1,0,0,1-.31-1.38,27,27,0,0,1,10.5-8.79,1,1,0,1,1,.88,1.8,25.56,25.56,0,0,0-9.69,8.06A1,1,0,0,1,235.75,204.06Z" style="fill:#fff"></path><path d="M243.36,284.48l-.22,0c-2.36-.55-2.59-2.77-2.91-5.84-.13-1.31-.3-2.93-.64-4.8-.64-3.57-2.51-10-4-14.72a1,1,0,1,1,1.92-.58c1.46,4.79,3.36,11.28,4,14.94.36,2,.53,3.61.66,5,.32,3.09.5,3.9,1.37,4.1a1,1,0,0,1-.23,2Z" style="fill:#fff"></path><path d="M235.83,257.4a1,1,0,0,1-1-.7c-.6-1.93-1-3.18-1-3.18a1,1,0,1,1,1.9-.62s.41,1.26,1,3.2a1,1,0,0,1-.66,1.25A1,1,0,0,1,235.83,257.4Z" style="fill:#fff"></path><path d="M269.39,286a1,1,0,0,1-1-.95c-.23-4.66-1-22.45-.83-33.88-.33.12-.66.23-1,.32a10.67,10.67,0,0,1-5.84.11v33.24a1,1,0,0,1-2,0v-34a9.79,9.79,0,0,1-2-1.47c-3.94-3.68-5.7-7.36-4.72-9.86.34-.87,1.35-2.33,4.24-2.33a3.94,3.94,0,0,1,3.1,1.4c2.29,2.69,1.56,8.39,1.41,9.36v1.61a8.73,8.73,0,0,0,5.29.07,11.7,11.7,0,0,0,1.6-.59c.12-3.78.4-6.57.9-7.46,1.27-2.29,3-2.58,4.07-2.14,1.37.56,2.47,2.55,1.64,5.6-.53,2-2.33,3.9-4.66,5.24-.18,9.14.31,24.26.82,34.73a1,1,0,0,1-.95,1.05Zm-13.17-46.87c-.89,0-2,.18-2.38,1.07-.52,1.3.59,4.26,4.23,7.66.22.2.44.39.66.56v-.61a.76.76,0,0,1,0-.15c.25-1.58.56-6.07-.95-7.83A1.9,1.9,0,0,0,256.22,239.13Zm15.46,2.07c-.37,0-.91.38-1.41,1.29-.32.57-.52,2.5-.63,5.3a7,7,0,0,0,2.66-3.34c.51-1.86,0-3-.46-3.22A.41.41,0,0,0,271.68,241.2Z" style="fill:#fff"></path><rect x="241.39" y="284.99" width="41.8" height="9.7" style="fill:#fff"></rect><path d="M283.19,295.19h-41.8a.5.5,0,0,1-.5-.5V285a.51.51,0,0,1,.5-.5h41.8a.5.5,0,0,1,.5.5v9.7A.5.5,0,0,1,283.19,295.19Zm-41.3-1h40.8v-8.7h-40.8Z" style="fill:#263238"></path><rect x="241.39" y="297" width="41.8" height="9.7" style="fill:#fff"></rect><path d="M283.19,307.2h-41.8a.5.5,0,0,1-.5-.5V297a.5.5,0,0,1,.5-.5h41.8a.5.5,0,0,1,.5.5v9.7A.5.5,0,0,1,283.19,307.2Zm-41.3-1h40.8v-8.7h-40.8Z" style="fill:#263238"></path><rect x="241.39" y="294.69" width="41.8" height="2.31" style="fill:#263238"></rect><path d="M283.19,297.5h-41.8a.5.5,0,0,1-.5-.5v-2.31a.51.51,0,0,1,.5-.5h41.8a.5.5,0,0,1,.5.5V297A.5.5,0,0,1,283.19,297.5Zm-41.3-1h40.8v-1.31h-40.8Z" style="fill:#263238"></path><path d="M273.49,318.71h-22.4a9.7,9.7,0,0,1-9.7-9.7h41.8A9.7,9.7,0,0,1,273.49,318.71Z" style="fill:#fff"></path><path d="M273.49,319.21h-22.4a10.22,10.22,0,0,1-10.2-10.2.5.5,0,0,1,.5-.5h41.8a.5.5,0,0,1,.5.5A10.21,10.21,0,0,1,273.49,319.21Zm-31.58-9.7a9.21,9.21,0,0,0,9.18,8.7h22.4a9.21,9.21,0,0,0,9.19-8.7Z" style="fill:#263238"></path><rect x="241.39" y="306.7" width="41.8" height="2.31" style="fill:#263238"></rect><path d="M283.19,309.51h-41.8a.5.5,0,0,1-.5-.5V306.7a.5.5,0,0,1,.5-.5h41.8a.5.5,0,0,1,.5.5V309A.5.5,0,0,1,283.19,309.51Zm-41.3-1h40.8V307.2h-40.8Z" style="fill:#263238"></path><path d="M393.6,178.48s2-6.34,5.15-4.36,0,8.32-1.18,8.72-3.18-.79-3.18-.79" style="fill:#fff"></path><path d="M397,183.42a6.58,6.58,0,0,1-2.88-.94.5.5,0,1,1,.51-.86,4.49,4.49,0,0,0,2.76.75c.47-.18,1.94-2.53,2.18-4.8a2.93,2.93,0,0,0-1.1-3,1.59,1.59,0,0,0-1.47-.21c-1.48.55-2.62,3.29-2.94,4.3a.51.51,0,0,1-.63.33.51.51,0,0,1-.33-.63c.06-.17,1.31-4.11,3.55-4.94a2.59,2.59,0,0,1,2.35.31c1.24.77,1.78,2.18,1.55,4.07-.27,2.28-1.76,5.18-2.85,5.54A2.05,2.05,0,0,1,397,183.42Z" style="fill:#263238"></path><path d="M181.94,178.42l2.79,12.86-4,1.31s-1.5,15.1-2.56,16.2-11.46-2.72-11.46-2.72l-4.77,8-8.74-4.18,3.21-7.22s-6.57-24.2-6.49-29.86,3.11-7.63,10.58-9.26a33.56,33.56,0,0,1,13.91,0s-3.07-4.12,5-5,12.45,7.28,11.69,11.79S181.94,178.42,181.94,178.42Z" style="fill:#fff"></path><path d="M161.88,214.56a.41.41,0,0,1-.21-.05l-8.73-4.18a.49.49,0,0,1-.24-.65l3.13-7.06c-.63-2.35-6.53-24.35-6.46-29.83.07-6.23,3.76-8.17,11-9.74a34.45,34.45,0,0,1,13.11-.2,2.82,2.82,0,0,1,0-2.06c.64-1.46,2.59-2.37,5.8-2.73a10.51,10.51,0,0,1,9,3.33c2.4,2.54,3.74,6.26,3.28,9.05-.71,4.2-7.34,7.49-9,8.27l2.71,12.46a.5.5,0,0,1-.33.58L181.14,193c-.39,3.92-1.6,15.07-2.66,16.17s-7.56-1-11.6-2.46l-4.57,7.64A.5.5,0,0,1,161.88,214.56Zm-8.07-4.92,7.88,3.77,4.54-7.6a.52.52,0,0,1,.61-.21c4.67,1.72,10.19,3.29,10.93,2.83.59-.71,1.69-8.64,2.41-15.88a.5.5,0,0,1,.34-.43l3.63-1.18-2.7-12.42a.49.49,0,0,1,.29-.56c.08,0,8.11-3.5,8.81-7.69.42-2.5-.82-5.87-3-8.2a9.43,9.43,0,0,0-8.12-3c-3.52.38-4.65,1.36-5,2.12a2.34,2.34,0,0,0,.34,2.08.5.5,0,0,1,0,.58.5.5,0,0,1-.53.2,33.25,33.25,0,0,0-13.68,0c-7.75,1.68-10.13,3.73-10.19,8.77-.07,5.53,6.41,29.49,6.48,29.73a.5.5,0,0,1,0,.34Z" style="fill:#263238"></path><g style="clip-path:url(#clip-path-22--inject-159)"><path d="M156.36,202.66s-6.57-24.2-6.49-29.86,3.11-7.63,10.58-9.26a33.56,33.56,0,0,1,13.91,0,2.69,2.69,0,0,1-.18-2.95,36.51,36.51,0,0,1,5.69.5c2.72.5,6,1,8.73,1.46a11.2,11.2,0,0,1,2.51,7L189,173.79a25.92,25.92,0,0,1-7.08,4.63l.54,2.48a31.43,31.43,0,0,1-4.69,1.34c-2.78.44-7.3-1.13-7.3-1.13s3.11,3.5.41,6.21a11.07,11.07,0,0,1-5.49,3.14s-.89,7-.54,9.2c.27,1.74,9.26,7,13.18,9.17-1.32.94-11.39-2.76-11.39-2.76l-4.77,8-8.74-4.18Z" style="fill:#FF7B02"></path><path d="M156.36,202.66s-6.57-24.2-6.49-29.86,3.11-7.63,10.58-9.26a33.56,33.56,0,0,1,13.91,0,2.69,2.69,0,0,1-.18-2.95,36.51,36.51,0,0,1,5.69.5c2.72.5,6,1,8.73,1.46a11.2,11.2,0,0,1,2.51,7L189,173.79a25.92,25.92,0,0,1-7.08,4.63l.54,2.48a31.43,31.43,0,0,1-4.69,1.34c-2.78.44-7.3-1.13-7.3-1.13s3.11,3.5.41,6.21a11.07,11.07,0,0,1-5.49,3.14s-.89,7-.54,9.2c.27,1.74,9.26,7,13.18,9.17-1.32.94-11.39-2.76-11.39-2.76l-4.77,8-8.74-4.18Z" style="fill:#fff;opacity:0.5"></path><path d="M176.47,186c0,.84.33,1.52.72,1.52s.71-.69.71-1.53-.33-1.53-.73-1.52S176.47,185.19,176.47,186Z" style="fill:#263238"></path><path d="M177.84,197.73a5.79,5.79,0,0,1-4.7-2,.5.5,0,0,1,.8-.61c1.55,2.07,4.67,1.61,4.7,1.6a.5.5,0,0,1,.57.42.49.49,0,0,1-.41.57A6.51,6.51,0,0,1,177.84,197.73Z" style="fill:#263238"></path><path d="M175,181.79a.49.49,0,0,1-.37-.16.5.5,0,0,1,0-.71,3.67,3.67,0,0,1,3.87-1,.5.5,0,1,1-.39.92,2.75,2.75,0,0,0-2.8.84A.51.51,0,0,1,175,181.79Z" style="fill:#263238"></path></g><path d="M149.87,172.8c.07-5.67,3.11-7.63,10.58-9.26a33.56,33.56,0,0,1,13.91,0s-3.07-4.12,5-5,12.45,7.28,11.69,11.79-9.1,8.07-9.1,8.07-10.55,1.42-16.35-1.23c0,0,4.41,4.26,4.21,7.34a3,3,0,0,1-3.28,2.89l-.35,4.42s-2.21,1.79-2.9.63-1.53-7.05-4.4-4.25-2.38,7-.45,7.91,3-.21,2.29,2.55-4.35,4-4.35,4S149.79,178.46,149.87,172.8Z" style="fill:#263238"></path><path d="M156.36,203.16a.46.46,0,0,1-.23-.06.49.49,0,0,1-.25-.31c-.27-1-6.59-24.33-6.51-30h0c.07-6.23,3.76-8.17,11-9.74a34.45,34.45,0,0,1,13.11-.2,2.82,2.82,0,0,1,0-2.06c.64-1.46,2.59-2.37,5.8-2.73a10.51,10.51,0,0,1,9,3.33c2.4,2.54,3.74,6.26,3.28,9.05-.8,4.72-9.06,8.29-9.41,8.44a.28.28,0,0,1-.13,0c-.39.06-8.72,1.15-14.66-.55,1.33,1.58,3.09,4.1,3,6.21a3.41,3.41,0,0,1-3.32,3.35l-.31,4a.48.48,0,0,1-.18.35c-.27.22-1.69,1.3-2.77,1.11a1.27,1.27,0,0,1-.88-.61,8.82,8.82,0,0,1-.55-1.43c-.38-1.16-1-3.1-1.86-3.31-.32-.08-.73.11-1.21.58a5.89,5.89,0,0,0-1.8,5.14,2.53,2.53,0,0,0,1.21,2,4.9,4.9,0,0,0,1.38.38,1.59,1.59,0,0,1,1.22.58c.27.41.26,1,0,2.16-.76,3-4.51,4.28-4.67,4.34Zm-6-30.36c-.07,5.06,5.36,25.57,6.33,29.19,1-.43,3.05-1.56,3.53-3.44.29-1.13.19-1.34.17-1.37a1.91,1.91,0,0,0-.55-.13,6,6,0,0,1-1.64-.46,3.52,3.52,0,0,1-1.78-2.71,6.9,6.9,0,0,1,2.09-6,2.3,2.3,0,0,1,2.15-.84c1.39.34,2.05,2.35,2.57,4a10.64,10.64,0,0,0,.46,1.23.26.26,0,0,0,.19.13,3.25,3.25,0,0,0,1.8-.77l.33-4.2a.5.5,0,0,1,.53-.46,2.48,2.48,0,0,0,2.75-2.42c.18-2.82-4-6.91-4.05-6.95a.49.49,0,0,1-.07-.64.5.5,0,0,1,.62-.17c5.36,2.45,15.09,1.31,16,1.19.75-.33,8.08-3.67,8.75-7.66.42-2.5-.82-5.87-3-8.2a9.42,9.42,0,0,0-8.12-3c-3.53.38-4.66,1.37-5,2.13a2.3,2.3,0,0,0,.34,2.07.48.48,0,0,1,0,.57.47.47,0,0,1-.53.21,33.25,33.25,0,0,0-13.68,0c-7.75,1.68-10.13,3.73-10.19,8.77Z" style="fill:#263238"></path><path d="M154.87,175h-.06l-.32,0a15.54,15.54,0,0,0-2.31-.29.37.37,0,0,1-.43-.31.38.38,0,0,1,.31-.43,11.55,11.55,0,0,1,2.55.29l.32.05a.37.37,0,0,1-.06.74Z" style="fill:#fff"></path><path d="M168.17,176.11a76.06,76.06,0,0,1-9.19-.57.37.37,0,0,1-.33-.42.38.38,0,0,1,.42-.32,76,76,0,0,0,9.79.55c5.42,0,9.17-1.26,10.29-3.31.61-1.11.44-2.42-.49-3.9a3.18,3.18,0,0,0-2.4-1.8c-1.55-.08-2.83,1.7-2.84,1.72a.38.38,0,0,1-.61-.45c.07-.08,1.53-2.06,3.47-2a3.87,3.87,0,0,1,3,2.15c1.07,1.7,1.24,3.32.51,4.66-1.28,2.33-5.16,3.65-10.95,3.7Z" style="fill:#fff"></path><path d="M156.83,181.56a48.07,48.07,0,0,1-5.42-.31.36.36,0,0,1-.33-.41.36.36,0,0,1,.41-.33,45.62,45.62,0,0,0,12.61-.29.37.37,0,1,1,.12.74A44.37,44.37,0,0,1,156.83,181.56Z" style="fill:#fff"></path><path d="M198.93,401.12l.83.89,5.82,6.2s7.39,3,7.49,4.8-8.29,2.56-12.58,2.2-9.4-4.33-9.4-4.33-5.44.92-6.29-3.3,3-7.26,3-7.26Z" style="fill:#fff"></path><path d="M202.82,415.8c-.89,0-1.7,0-2.37-.09-4-.34-8.54-3.6-9.49-4.31-2.1.29-5.92-.13-6.65-3.72-.9-4.47,3-7.62,3.14-7.75a.49.49,0,0,1,.35-.11l11.17.81a.51.51,0,0,1,.33.15l6.57,7c1.91.77,7.59,3.24,7.7,5.19a1.19,1.19,0,0,1-.41,1C211.81,415.25,206.62,415.8,202.82,415.8Zm-11.73-5.42a.5.5,0,0,1,.31.1s5,3.89,9.13,4.23,10.74-.33,11.93-1.49a.32.32,0,0,0,.12-.18c-.06-.93-3.78-3-7.19-4.37a.44.44,0,0,1-.18-.12l-6.51-6.94-10.76-.78c-.66.59-3.34,3.24-2.65,6.65.75,3.7,5.51,2.94,5.72,2.9Z" style="fill:#263238"></path><path d="M191.09,410.88s5.11,4,9.4,4.33,12.69-.37,12.58-2.2a1.69,1.69,0,0,0-.62-1c-6.72,2.53-15.68.21-20.23-2.72a29.31,29.31,0,0,0-7.52-3.43,6.41,6.41,0,0,0,.1,1.73C185.65,411.8,191.09,410.88,191.09,410.88Z" style="fill:#fff"></path><path d="M202.82,415.8c-.89,0-1.7,0-2.37-.09-4-.34-8.54-3.6-9.49-4.31-2.1.29-5.92-.13-6.65-3.72a6.46,6.46,0,0,1-.1-1.87.51.51,0,0,1,.21-.37.52.52,0,0,1,.42-.07,30,30,0,0,1,7.65,3.49c4.12,2.65,13,5.23,19.79,2.68a.48.48,0,0,1,.52.11,2.1,2.1,0,0,1,.77,1.33,1.19,1.19,0,0,1-.41,1C211.81,415.25,206.62,415.8,202.82,415.8Zm-11.73-5.42a.5.5,0,0,1,.31.1s5,3.89,9.13,4.23,10.74-.33,11.93-1.49a.32.32,0,0,0,.12-.18,1,1,0,0,0-.26-.45c-7.09,2.48-16.14-.17-20.37-2.89a29,29,0,0,0-6.77-3.18,6,6,0,0,0,.11,1c.75,3.69,5.52,2.94,5.72,2.9Z" style="fill:#263238"></path><path d="M71.6,399s-3.94,16.41-3.94,18.92,14.72,2.16,15.79,0-1.07-8.61-2.51-11.84-2.09-4.71-2.09-4.71Z" style="fill:#fff"></path><path d="M74.85,420.14a24.82,24.82,0,0,1-5.31-.47c-.59-.13-2.38-.56-2.38-1.78,0-2.54,3.79-18.36,4-19a.5.5,0,0,1,.64-.35L79,400.87a.47.47,0,0,1,.3.27l2.1,4.71c1.13,2.54,3.78,9.7,2.5,12.27C83.19,419.54,78.82,420.14,74.85,420.14ZM72,399.62c-1.39,5.79-3.8,16.39-3.8,18.27,0,.15.34.51,1.61.81,4.35,1,12.63.19,13.24-1,.92-1.84-1-7.9-2.53-11.42l-2-4.5Z" style="fill:#263238"></path><path d="M83.45,417.89a6.28,6.28,0,0,0,.12-3.46,7.92,7.92,0,0,1-6.22,2.75,16.29,16.29,0,0,1-9.19-2.72,26.06,26.06,0,0,0-.5,3.43C67.66,420.41,82.38,420.05,83.45,417.89Z" style="fill:#fff"></path><path d="M74.85,420.14a24.82,24.82,0,0,1-5.31-.47c-.59-.13-2.38-.56-2.38-1.78a25.08,25.08,0,0,1,.51-3.52A.48.48,0,0,1,68,414a.49.49,0,0,1,.47,0,15.79,15.79,0,0,0,8.91,2.64,7.44,7.44,0,0,0,5.84-2.58.53.53,0,0,1,.52-.15.5.5,0,0,1,.35.4,6.51,6.51,0,0,1-.16,3.77h0C83.19,419.54,78.82,420.14,74.85,420.14Zm-6.33-4.86a18.87,18.87,0,0,0-.36,2.61c0,.15.34.51,1.61.81,4.35,1,12.63.19,13.24-1a4.19,4.19,0,0,0,.19-2.16,8.4,8.4,0,0,1-5.85,2.17A17,17,0,0,1,68.52,415.28Zm14.93,2.61h0Z" style="fill:#263238"></path><path d="M193.91,328.31c.12-4-8.13-10.09-16.95-16.57s-27.28-15.43-27.28-15.43l.89-5.18-34.7-14.19s-4.89,6.19-7.69,21.44c-3.34,18.18-1.17,42-.55,47.43-.82.56-9,6.29-12.39,11.7C91.67,363.21,71.6,399,71.6,399l7.25,2.37.34-.45s46.53-48.54,48.95-51.05,7-32.13,7-32.13S170,334,171.67,335.12s16.1,65.2,16.1,65.2l11.16.8S193.78,332.29,193.91,328.31Z" style="fill:#263238"></path><path d="M78.85,401.84l-.16,0-7.25-2.37a.54.54,0,0,1-.31-.3.51.51,0,0,1,0-.42c.2-.36,20.13-35.84,23.65-41.48,3.22-5.15,10.63-10.52,12.29-11.68-.35-3.17-2.91-28.24.59-47.28,2.79-15.2,7.58-21.4,7.78-21.66a.51.51,0,0,1,.59-.15l34.7,14.19a.49.49,0,0,1,.31.54l-.83,4.82c2.56,1.25,18.92,9.36,27,15.31,8.88,6.53,17.28,12.69,17.15,17h0c-.12,3.9,5,72.07,5,72.76a.51.51,0,0,1-.14.39.47.47,0,0,1-.39.14l-11.17-.8a.51.51,0,0,1-.45-.39c-5.65-25.17-14.55-63.24-15.94-64.93-1.26-.8-23.64-11.34-35.84-17.05-.79,5.1-4.67,29.33-7,31.74S80,400.75,79.55,401.24l-.31.4A.47.47,0,0,1,78.85,401.84Zm-6.52-3.15,6.33,2.07.13-.17c.5-.53,46.6-48.62,49-51.09,1.7-1.76,5-20,6.84-31.86a.5.5,0,0,1,.26-.37.49.49,0,0,1,.44,0c1.43.67,34.89,16.33,36.62,17.44s12.76,49.66,16.23,65.15l10.22.73c-.53-7.1-5.1-68.47-5-72.29s-8.46-10.06-16.75-16.15c-8.68-6.38-27-15.29-27.2-15.38a.48.48,0,0,1-.27-.53l.82-4.79-34-13.89c-1,1.41-5,7.82-7.37,20.92-3.64,19.78-.67,46.17-.54,47.28a.5.5,0,0,1-.22.47c-.9.62-8.93,6.25-12.25,11.56S74.84,394.22,72.33,398.69Zm121.58-70.38h0Z" style="fill:#263238"></path><path d="M135.11,318.21a.49.49,0,0,1-.45-.29.51.51,0,0,1,.18-.63l14.91-9.68a.5.5,0,0,1,.55.84l-12.08,7.84,7.91-2.29a.5.5,0,1,1,.27,1l-11.15,3.23A.32.32,0,0,1,135.11,318.21Z" style="fill:#fff"></path><path d="M146.86,294.11a44.39,44.39,0,0,1-31-14,.49.49,0,0,1,0-.7.51.51,0,0,1,.71,0,43.08,43.08,0,0,0,30.78,13.71.49.49,0,0,1,.52.47.5.5,0,0,1-.47.53Z" style="fill:#fff"></path><path d="M136.47,293.65h-.13A.5.5,0,0,1,136,293l1-4a.5.5,0,0,1,.61-.36.49.49,0,0,1,.36.6l-1,4A.5.5,0,0,1,136.47,293.65Z" style="fill:#fff"></path><path d="M125,288.18a.43.43,0,0,1-.19,0,.5.5,0,0,1-.27-.65l1.56-3.63a.5.5,0,1,1,.92.4l-1.56,3.62A.49.49,0,0,1,125,288.18Z" style="fill:#fff"></path><path d="M163.79,215.62s2.79,8.29,2,22.79-15.22,52.72-15.22,52.72l-3.29-.17a45.69,45.69,0,0,1-25.56-9.49l-5.85-4.53s12.73-36.86,17.61-50.77,16.2-16.37,19.5-17.09S163.85,213.63,163.79,215.62Z" style="fill:#fff"></path><path d="M150.57,291.63h0l-3.3-.17a46,46,0,0,1-25.84-9.59l-5.85-4.53a.51.51,0,0,1-.17-.56c.13-.37,12.79-37,17.62-50.77,3.29-9.41,10-15.27,19.86-17.42,2.32-.5,6.4,1.58,9.07,3.8,1.06.88,2.3,2.13,2.35,3.15.28.89,2.75,9.21,2,22.9-.79,14.41-14.65,51.3-15.24,52.86A.5.5,0,0,1,150.57,291.63Zm-34.11-14.87,5.56,4.32a45,45,0,0,0,25.29,9.38l2.92.15c1.44-3.84,14.31-38.69,15.06-52.23.78-14.22-1.94-22.52-2-22.6a.47.47,0,0,1,0-.17c0-.29-.4-1.13-2-2.45-2.46-2-6.3-4-8.21-3.59-9.53,2.07-16,7.71-19.14,16.77C129.38,239.37,117.75,273,116.46,276.76Z" style="fill:#263238"></path><g style="clip-path:url(#clip-path-23--inject-159)"><path d="M133.48,226.17c3.49-9.95,10.27-14,15.06-15.82-2,1.42-8.13,6.2-10.12,13.15-2.38,8.35,4.19,19.28,4.19,19.28s-.09-.67-.21-1.68c3.86,8.54,10.07,21.36,14.35,29.56l-5.15-8.78L149,256l-11.49,6.66,5.39-7.4s-12.07,10.16-15.16,14.07-3.54,8.25-.85,12.67a25.65,25.65,0,0,0,5,5.33,45.4,45.4,0,0,1-10.09-5.88l-5.85-4.53S128.6,240.08,133.48,226.17Z" style="fill:#FF7B02"></path><g style="opacity:0.5"><path d="M133.48,226.17c3.49-9.95,10.27-14,15.06-15.82-2,1.42-8.13,6.2-10.12,13.15-2.38,8.35,4.19,19.28,4.19,19.28s-.09-.67-.21-1.68c3.86,8.54,10.07,21.36,14.35,29.56l-5.15-8.78L149,256l-11.49,6.66,5.39-7.4s-12.07,10.16-15.16,14.07-3.54,8.25-.85,12.67a25.65,25.65,0,0,0,5,5.33,45.4,45.4,0,0,1-10.09-5.88l-5.85-4.53S128.6,240.08,133.48,226.17Z" style="fill:#fff"></path></g></g><path d="M146.62,247.66a.23.23,0,0,1-.14,0c-.09-.06-8.65-5.94-12.85-8.64a.25.25,0,0,1-.08-.34.26.26,0,0,1,.35-.08c4.2,2.71,12.77,8.59,12.86,8.64a.25.25,0,0,1,.06.35A.23.23,0,0,1,146.62,247.66Z" style="fill:#263238"></path><path d="M134.93,248.74h0a22,22,0,0,1-2.35-.31.25.25,0,1,1,.09-.49c.7.13,1.48.24,2.3.31a.25.25,0,0,1,0,.5Z" style="fill:#263238"></path><path d="M137.9,248.84a.25.25,0,0,1,0-.5,61.13,61.13,0,0,0,11-1.21.25.25,0,0,1,.3.19.25.25,0,0,1-.19.3,61.72,61.72,0,0,1-11,1.22Z" style="fill:#263238"></path><polygon points="151.69 205.41 167.73 213.28 164.51 218.93 149.21 209.9 151.69 205.41" style="fill:#fff"></polygon><path d="M164.51,219.43a.52.52,0,0,1-.25-.07l-15.31-9a.5.5,0,0,1-.18-.67l2.48-4.49a.5.5,0,0,1,.66-.21l16,7.88a.51.51,0,0,1,.26.3.49.49,0,0,1-.05.39l-3.22,5.64a.48.48,0,0,1-.3.24Zm-14.63-9.71,14.45,8.52,2.7-4.74-15.13-7.43Z" style="fill:#263238"></path><path d="M138.94,232.81c1.28,4.8,20.56,44.68,22.39,45.66s56.2,6.59,56.2,6.59l2.18-4.64-48.35-15.2-16.53-42.09" style="fill:#fff"></path><path d="M217.53,285.56h-.05c-5.57-.58-54.52-5.64-56.39-6.65-2.19-1.18-21.43-41.45-22.63-46a.5.5,0,0,1,.36-.61.49.49,0,0,1,.61.35c1.34,5,20.39,44,22.16,45.36,1.52.7,34,4.25,55.64,6.49l1.78-3.81-47.8-15a.51.51,0,0,1-.31-.3l-16.54-42.09a.5.5,0,1,1,.93-.36l16.45,41.87,48.12,15.12a.5.5,0,0,1,.3.27.51.51,0,0,1,0,.42L218,285.27A.51.51,0,0,1,217.53,285.56Z" style="fill:#263238"></path><g style="clip-path:url(#clip-path-24--inject-159)"><path d="M142.4,241.1c-.4-3.3-1.12-10.25-.07-9.1,1.38,1.49,5.7,14.48,10.85,23.64s12.76,12.24,11.41,12.73-1.75,5.13-1.75,5.13l53.49,11.44c-2.94-.31-11-1.15-20-2.13l-35-4.34-4.58-7.81C152.47,262.46,146.26,249.64,142.4,241.1Z" style="fill:#FF7B02"></path><path d="M142.4,241.1c-.4-3.3-1.12-10.25-.07-9.1,1.38,1.49,5.7,14.48,10.85,23.64s12.76,12.24,11.41,12.73-1.75,5.13-1.75,5.13l53.49,11.44c-2.94-.31-11-1.15-20-2.13l-35-4.34-4.58-7.81C152.47,262.46,146.26,249.64,142.4,241.1Z" style="fill:#fff;opacity:0.5"></path></g><path d="M217.34,285.39l2.37-5,14.5-5.31a1,1,0,0,1,.78,1.73L229.86,280l4.47,2.61c1.26.7,6.62,2.86,7.16,3.93,1.06,2.08-2.17.74-2.94.59-1.68-.33-2.81-.89-5.66-1.51-.41.8,6.2,3.23,7,3.67.33.19.85.4.94.82.36,1.68-2.73.39-3.44.22-2-.5-4-1.08-6-1.58,1.47.78,3.87,1.54,5.34,2.32a15.63,15.63,0,0,1,1.95.9c.78.6.34,1.45-.71,1.31a21.48,21.48,0,0,1-3.37-1.12c-1.65-.58-2.61-1.2-4.26-1.78,1.24.68,1.87,1.23,3.12,1.91.48.26,1.54.68,1.83,1.17,1,1.72-3.41-.17-3.92-.43-1.74-.88-3.73-1.51-5.4-2.48-.23-.14-2.77-2-2.79-2Z" style="fill:#fff"></path><path d="M234.87,294.65a11.84,11.84,0,0,1-3.77-1.18c-.73-.37-1.53-.71-2.3-1a26.31,26.31,0,0,1-3.13-1.47c-.12-.07-.52-.35-1.42-1l-1.33-.94,0,0-5.79-3.18a.49.49,0,0,1-.21-.65l2.36-5a.49.49,0,0,1,.28-.25L234,274.64a1.45,1.45,0,0,1,1.19.13,1.49,1.49,0,0,1,.68.94,1.45,1.45,0,0,1-.66,1.55L230.83,280l3.75,2.19c.32.17,1,.48,1.75.83,2.91,1.35,5.17,2.44,5.61,3.3.12.25.5,1,.06,1.52s-1.67.34-3-.06l-.55-.15a19.64,19.64,0,0,1-2.25-.6l-.88-.26c1.16.54,2.51,1.11,3.23,1.41s1.34.57,1.56.69l.13.07A1.76,1.76,0,0,1,241.3,290a1.12,1.12,0,0,1-.29,1.14c-.65.59-1.94.24-3.31-.2l-.17-.05.12,0a4.85,4.85,0,0,1,1.27.63,1.23,1.23,0,0,1,.52,1.48,1.4,1.4,0,0,1-1.59.72,11.62,11.62,0,0,1-2.26-.68l.08.12c.35.62.2,1,0,1.19A1.11,1.11,0,0,1,234.87,294.65Zm-11.5-6.5c.27.16.71.47,1.46,1l1.34.95a27.88,27.88,0,0,0,3,1.41c.78.33,1.6.67,2.36,1.05a13.26,13.26,0,0,0,3.23,1.1,4.55,4.55,0,0,0-1.21-.75l-.4-.2c-.65-.36-1.14-.68-1.62-1s-.91-.6-1.5-.92a.5.5,0,0,1,.41-.91c.84.3,1.52.61,2.17.91a22.42,22.42,0,0,0,2.09.87l.84.32a13.45,13.45,0,0,0,2.43.77c.34.05.51-.06.53-.12s0-.16-.2-.29a3.94,3.94,0,0,0-1-.49c-.29-.12-.57-.23-.84-.37-.72-.37-1.69-.76-2.63-1.14s-1.95-.78-2.72-1.18a.5.5,0,0,1,.36-.93l2.91.77q1.56.42,3.12.81l.52.16c1.68.54,2.19.53,2.33.41a1.61,1.61,0,0,0,0-.19c0-.14-.33-.3-.54-.41l-.15-.08c-.17-.1-.77-.35-1.46-.64-3.68-1.54-5.48-2.4-5.75-3.14a.68.68,0,0,1,0-.56.49.49,0,0,1,.55-.25c1.56.33,2.59.65,3.51.93a20.48,20.48,0,0,0,2.14.57l.64.18a5.79,5.79,0,0,0,1.93.36s-.05-.16-.17-.41c-.32-.62-3.58-2.13-5.14-2.85-.82-.38-1.46-.67-1.83-.88l-4.47-2.61a.5.5,0,0,1,0-.86l5.13-3.15a.45.45,0,0,0,.2-.48.41.41,0,0,0-.21-.3.46.46,0,0,0-.36-.05l-14.29,5.23L218,285.18l5.38,3Z" style="fill:#263238"></path><path d="M387.36,236.93l-1.87,1.88s-7.51-.38-12.39.75S347,242.1,347,242.1l-6.15.64L330.32,232.4a.91.91,0,0,0-1.36,1.2l3.2,4.76-4.9.5c-1.38.11-6.88-.13-7.78.58-1.74,1.39,1.59,1.5,2.32,1.67,1.59.38,2.79.34,5.51.93.05.85-6.66.36-7.51.43-.36,0-.89,0-1.14.34-1,1.31,2.22,1.42,2.9,1.54,1.95.37,3.91.66,5.86,1-1.58.09-4-.19-5.55-.1a15.58,15.58,0,0,0-2.05,0c-.91.21-.87,1.13.1,1.42a21.05,21.05,0,0,0,3.37.36c1.66.15,2.74,0,4.4.14-1.35.1-2.11.33-3.46.42a5,5,0,0,0-2.05.3c-1.54,1.09,3,1.19,3.56,1.17,1.87-.07,3.84.16,5.67,0,.26,0,3.19-.63,3.2-.6l6.29-.47v-.1c4.54.44,26.69,2.54,34.09,2.54,8.25,0,18-2.62,18-2.62l3-7.51Z" style="fill:#fff"></path><path d="M375,250.94c-7.27,0-28.85-2-33.84-2.52a.5.5,0,0,1-.2.08l-6.28.47h0l-1.55.3c-1,.2-1.48.29-1.61.3a25.78,25.78,0,0,1-3.29,0c-.8,0-1.62-.05-2.41,0,0,0-4,.13-4.36-1-.09-.26-.08-.65.48-1.05l.06,0a11.29,11.29,0,0,1-2.16-.29,1.37,1.37,0,0,1-1.11-1.28,1.19,1.19,0,0,1,1-1.1,3.49,3.49,0,0,1,.84-.07c-1.18-.16-2.19-.4-2.49-1.09a1.08,1.08,0,0,1,.2-1.13,1.68,1.68,0,0,1,1.35-.53h.15c.24,0,.74,0,1.62,0,.68,0,1.9.06,3.06,0l-.57-.07a19.84,19.84,0,0,1-2.18-.37c-.12,0-.31,0-.54-.08-1.32-.19-2.43-.4-2.63-1.16-.12-.43.1-.87.65-1.31.73-.58,3.13-.64,6.19-.66.81,0,1.5,0,1.86,0l4.06-.42-2.73-4.06a1.41,1.41,0,0,1,2.1-1.86L341,242.22l5.91-.61c.23,0,21.3-1.44,26.09-2.54,4.47-1,11-.83,12.3-.77l1.72-1.72a.51.51,0,0,1,.54-.12l8.63,3.38a.57.57,0,0,1,.28.27.5.5,0,0,1,0,.38l-3,7.51a.49.49,0,0,1-.34.3C393,248.33,383.21,250.94,375,250.94Zm-34.05-3.54h0c4.39.42,26.66,2.54,34,2.54s16.11-2.15,17.65-2.54l2.73-6.81-7.86-3.08-1.65,1.65a.47.47,0,0,1-.38.15c-.07,0-7.49-.36-12.25.73s-25.35,2.5-26.22,2.56l-6.13.64a.55.55,0,0,1-.4-.14L330,232.75a.41.41,0,0,0-.3-.07.41.41,0,0,0-.29.64l3.2,4.76a.5.5,0,0,1,0,.49.51.51,0,0,1-.41.28l-4.9.5c-.41,0-1.09,0-1.94,0-1.64,0-5.06,0-5.57.44a1.27,1.27,0,0,0-.29.28,6.43,6.43,0,0,0,1.78.41c.26,0,.49.07.63.11A19.61,19.61,0,0,0,324,241c.9.11,1.93.25,3.42.57a.5.5,0,0,1,.39.47.66.66,0,0,1-.2.5c-.53.55-2.44.59-6.26.47-.68,0-1.32,0-1.51,0l-.17,0c-.2,0-.53,0-.6.13a.36.36,0,0,0-.09.16c.08.12.52.33,2.16.52l.52.07c1,.19,2,.36,3,.53s1.89.31,2.84.49a.49.49,0,0,1,.4.52.5.5,0,0,1-.47.47,27.5,27.5,0,0,1-2.83-.05c-1,0-1.95-.09-2.73,0a6.39,6.39,0,0,1-.87,0,5,5,0,0,0-1.1,0c-.17,0-.25.12-.25.16s.11.2.39.29a12.18,12.18,0,0,0,2.41.28l.86.06c.81.07,1.47.07,2.16.07s1.39,0,2.24.07a.5.5,0,0,1,0,1c-.65.05-1.16.12-1.67.2a17.87,17.87,0,0,1-1.79.22l-.43,0a4.82,4.82,0,0,0-1.29.14,13.12,13.12,0,0,0,3.17.31c.82,0,1.66,0,2.48,0a27.65,27.65,0,0,0,3.16,0l1.52-.29a15.85,15.85,0,0,1,1.69-.3v0l6.06-.45A.49.49,0,0,1,340.92,247.4Z" style="fill:#263238"></path><g style="clip-path:url(#clip-path-25--inject-159)"><path d="M386.11,238.18l3.22,5.82s-4,1-17.66,2.67c-9,1.09-20.21,1.47-26.9,1.6,8,.75,24.11,2.17,30.21,2.17,8.25,0,18-2.62,18-2.62l3-7.51-8.64-3.38Z" style="fill:#FF7B02"></path><path d="M386.11,238.18l3.22,5.82s-4,1-17.66,2.67c-9,1.09-20.21,1.47-26.9,1.6,8,.75,24.11,2.17,30.21,2.17,8.25,0,18-2.62,18-2.62l3-7.51-8.64-3.38Z" style="fill:#fff;opacity:0.5"></path></g><path d="M403.24,203.25s-5.1-1.41-7.2,2.64-11,30.42-11,30.42l10.15,8.21S407,225.77,408.85,220.4a17,17,0,0,0,.68-9.38" style="fill:#fff"></path><path d="M395.22,245a.51.51,0,0,1-.31-.11l-10.15-8.21a.48.48,0,0,1-.16-.55c.36-1.08,8.91-26.44,11-30.49,2.26-4.36,7.72-2.91,7.77-2.89a.5.5,0,0,1,.35.61.49.49,0,0,1-.61.35c-.2,0-4.74-1.25-6.62,2.39s-9.8,27-10.83,30l9.44,7.64c1.85-3,11.64-18.76,13.27-23.54a16.65,16.65,0,0,0,.68-9.08.5.5,0,1,1,1-.28,17.35,17.35,0,0,1-.69,9.68c-1.83,5.36-13.19,23.46-13.67,24.23a.49.49,0,0,1-.34.22Z" style="fill:#263238"></path><g style="clip-path:url(#clip-path-26--inject-159)"><path d="M410,217.33s-2.67-8.66-6.33-9S398,220.67,394.33,228s-1,10.33-1,10.33l-7-3.66,11,12,12.67-24" style="fill:#FF7B02"></path><path d="M410,217.33s-2.67-8.66-6.33-9S398,220.67,394.33,228s-1,10.33-1,10.33l-7-3.66,11,12,12.67-24" style="fill:#fff;opacity:0.5"></path></g><path d="M396.61,154.65c-1.21-.4-16-.81-16-.81" style="fill:#FF7B02"></path></g></svg>
