<svg width="46" height="54" viewBox="0 0 46 54" fill="none" xmlns="http://www.w3.org/2000/svg">
<path d="M15.875 23.0078C15.875 24.9097 16.6212 26.6994 17.96 28.0445L17.9606 28.0452C18.6218 28.7082 19.4075 29.234 20.2727 29.5923C21.1373 29.9504 22.0642 30.1341 23 30.1328M15.875 23.0078H16.875L15.875 23.0094C15.875 23.0089 15.875 23.0083 15.875 23.0078ZM15.875 23.0078C15.8737 22.072 16.0574 21.1451 16.4155 20.2805C16.7737 19.4156 17.2993 18.63 17.9621 17.9689C19.3094 16.622 21.1004 15.8828 23 15.8828C24.8999 15.8828 26.6911 16.6222 28.0384 17.9695C29.3856 19.3167 30.125 21.108 30.125 23.0078C30.125 24.9077 29.3856 26.6989 28.0384 28.0462L28.0367 28.0478C26.6916 29.3866 24.9019 30.1328 23 30.1328M23 30.1328V29.1328L23.0016 30.1328C23.001 30.1328 23.0005 30.1328 23 30.1328ZM42.6534 14.4123L42.6535 14.4125C43.7744 16.9993 44.3438 19.7488 44.3438 22.5758C44.3438 26.605 43.3799 30.5942 41.4905 34.4245C39.9819 37.5036 37.8827 40.4928 35.254 43.3117C30.7734 48.1214 26.081 51.0597 24.7288 51.8575C24.1917 52.1762 23.5942 52.3302 22.9962 52.3305C22.9957 52.3305 22.9951 52.3305 22.9945 52.3305V51.3305C22.5637 51.3312 22.1405 51.216 21.7695 50.9969L42.6534 14.4123ZM42.6534 14.4123C41.5721 11.919 40.0132 9.66139 38.0646 7.76693C36.1118 5.85796 33.8097 4.3427 31.2841 3.30388C28.6567 2.21412 25.869 1.66406 23 1.66406C20.1305 1.66406 17.343 2.2143 14.7162 3.29827L14.7159 3.29841M42.6534 14.4123L14.7159 3.29841M14.7159 3.29841C12.1751 4.34798 9.89701 5.85149 7.93614 7.76072L14.7159 3.29841ZM10.7347 43.3113C15.2167 48.1226 19.9107 51.0613 21.2614 51.8582L7.93598 7.76087C5.98847 9.65632 4.42962 11.9136 3.34686 14.4063L3.34651 14.4071C2.22556 16.9939 1.65625 19.7433 1.65625 22.5703C1.65625 26.5945 2.62022 30.5887 4.49799 34.4234L4.49807 34.4235C6.00696 37.5035 8.10635 40.4872 10.7344 43.311L10.7347 43.3113ZM23 31.6328C18.2367 31.6328 14.375 27.7712 14.375 23.0078C14.375 18.2445 18.2367 14.3828 23 14.3828C27.7633 14.3828 31.625 18.2445 31.625 23.0078C31.625 27.7712 27.7633 31.6328 23 31.6328Z" fill="#FF7B02" stroke="white" stroke-width="2"/>
</svg>
