<svg width="45" height="53" viewBox="0 0 45 53" fill="none" xmlns="http://www.w3.org/2000/svg">
<path d="M15.2188 22.3438C15.2188 24.2456 15.965 26.0353 17.3037 27.3804L17.3044 27.3811C17.9655 28.0442 18.7513 28.57 19.6164 28.9282C20.481 29.2863 21.4079 29.47 22.3438 29.4688M15.2188 22.3438H16.2188L15.2188 22.3453C15.2188 22.3448 15.2188 22.3443 15.2188 22.3438ZM15.2188 22.3438C15.2175 21.4079 15.4012 20.481 15.7593 19.6164C16.1175 18.7515 16.6431 17.9659 17.3059 17.3049C18.6531 15.9579 20.4441 15.2188 22.3438 15.2188C24.2436 15.2188 26.0348 15.9581 27.3821 17.3054C28.7294 18.6527 29.4688 20.4439 29.4688 22.3438C29.4688 24.2436 28.7294 26.0348 27.3821 27.3821L27.3804 27.3838C26.0353 28.7225 24.2456 29.4688 22.3438 29.4688M22.3438 29.4688V28.4688L22.3453 29.4687C22.3448 29.4687 22.3443 29.4688 22.3438 29.4688ZM41.9971 13.7482L41.9972 13.7485C43.1182 16.3353 43.6875 19.0847 43.6875 21.9117C43.6875 25.941 42.7237 29.9302 40.8342 33.7605C39.3256 36.8396 37.2265 39.8287 34.5978 42.6476C30.1172 47.4573 25.4247 50.3956 24.0725 51.1934C23.5354 51.5122 22.9379 51.6661 22.34 51.6664C22.3394 51.6664 22.3389 51.6664 22.3383 51.6664V50.6664C21.9074 50.6671 21.4843 50.5519 21.1133 50.3328L41.9971 13.7482ZM41.9971 13.7482C40.9158 11.2549 39.357 8.99732 37.4084 7.10287C35.4555 5.19389 33.1535 3.67863 30.6279 2.63981C28.0005 1.55006 25.2128 1 22.3438 1C19.4742 1 16.6867 1.55023 14.0599 2.63421L14.0596 2.63435M41.9971 13.7482L14.0596 2.63435M14.0596 2.63435C11.5188 3.68392 9.24076 5.18742 7.27989 7.09665L14.0596 2.63435ZM10.0785 42.6472C14.5604 47.4585 19.2544 50.3972 20.6052 51.1941L7.27973 7.09681C5.33222 8.99226 3.77337 11.2496 2.69061 13.7422L2.69026 13.743C1.56931 16.3298 1 19.0792 1 21.9062C1 25.9304 1.96397 29.9246 3.84174 33.7593L3.84182 33.7595C5.35071 36.8394 7.4501 39.8232 10.0781 42.6469L10.0785 42.6472ZM22.3438 30.9688C17.5804 30.9688 13.7188 27.1071 13.7188 22.3438C13.7188 17.5804 17.5804 13.7188 22.3438 13.7188C27.1071 13.7188 30.9688 17.5804 30.9688 22.3438C30.9688 27.1071 27.1071 30.9688 22.3438 30.9688Z" fill="#811E78" stroke="#F0F0F0" stroke-width="2"/>
</svg>
