<svg width="143" height="35" viewBox="0 0 143 35" fill="none" xmlns="http://www.w3.org/2000/svg">
<path fill-rule="evenodd" clip-rule="evenodd" d="M30.5723 0H4.789C2.23983 0 0.180664 2.06063 0.180664 4.59667V30.3931C0.180664 32.9408 2.2515 35 4.789 35H30.5723C33.12 35 35.1807 32.9306 35.1807 30.3931V4.60833C35.1807 2.06063 33.1098 0 30.5723 0ZM21.3279 6.61332V7.81353C21.3279 7.95207 21.2011 8.04686 21.0727 8.01478C20.1059 7.74936 19.1054 7.61228 18.0948 7.61228C17.0518 7.61123 16.014 7.75754 15.0119 8.04686C14.8734 8.07894 14.7465 7.98269 14.7465 7.84561V6.61332C14.7468 6.21053 14.907 5.82435 15.192 5.53967C15.4769 5.25499 15.8633 5.09512 16.2661 5.09519H19.8084C20.2112 5.09512 20.5975 5.25499 20.8824 5.53967C21.1674 5.82435 21.3276 6.21053 21.3279 6.61332ZM11.0146 8.77894L11.6198 9.38415C11.7044 9.4804 11.6939 9.62915 11.5877 9.69332C11.0997 10.0441 10.6412 10.4343 10.2169 10.86C9.79617 11.2826 9.40857 11.737 9.05753 12.2192C8.97295 12.3139 8.83441 12.3358 8.73816 12.241L8.14316 11.646C8.00175 11.5055 7.88953 11.3384 7.81295 11.1543C7.73638 10.9702 7.69696 10.7728 7.69696 10.5734C7.69696 10.3741 7.73638 10.1766 7.81295 9.99257C7.88953 9.80849 8.00175 9.64137 8.14316 9.50082L8.86649 8.77894C9.0075 8.63783 9.17494 8.52589 9.35923 8.44952C9.54353 8.37314 9.74106 8.33383 9.94055 8.33383C10.14 8.33383 10.3376 8.37314 10.5219 8.44952C10.7062 8.52589 10.8736 8.63783 11.0146 8.77894ZM18.0843 18.3864V13.1948C18.0843 13.0781 18.1908 12.9935 18.2972 12.9935C20.3491 13.0679 22.1254 14.2142 23.082 15.8927C23.1345 15.9977 23.1024 16.126 22.9974 16.1785L18.3818 18.5673C18.2447 18.6417 18.0843 18.5352 18.0843 18.3864ZM11.1091 18.7364C11.1091 22.5792 14.2358 25.7014 18.0843 25.7014C21.9448 25.7014 25.0598 22.5792 25.0598 18.7364C25.0598 14.8937 21.9343 11.7729 18.0843 11.7729C14.2358 11.7729 11.1091 14.8937 11.1091 18.7364ZM8.18516 18.7364C8.18516 13.2706 12.6185 8.84311 18.0843 8.84311C23.5604 8.84311 27.9835 13.2589 27.9835 18.7262C27.9835 24.1935 23.5502 28.621 18.0843 28.621C12.6185 28.621 8.18516 24.2037 8.18516 18.7364Z" fill="white"/>
<path d="M70.8264 27.7616C64.0116 27.7934 64.0116 22.2619 64.0116 21.3811L64 0.659655L68.1574 0.000488281V20.5951C68.1574 21.0953 68.1574 24.2584 70.8261 24.2686V27.7613L70.8264 27.7616ZM53.9739 24.3751C55.2497 24.3751 56.1964 24.3007 56.8556 24.1738V19.949C56.5265 19.8615 56.1924 19.7938 55.8552 19.7463C55.3766 19.6754 54.8935 19.6398 54.4097 19.6399C53.9517 19.6399 53.4836 19.6719 53.017 19.7463C52.5488 19.8105 52.123 19.9374 51.7511 20.1182C51.3792 20.299 51.0701 20.5542 50.847 20.8824C50.6136 21.2119 50.5072 21.403 50.5072 21.9017C50.5072 22.8774 50.847 23.4417 51.4638 23.8122C52.0807 24.184 52.9207 24.3751 53.9739 24.3751ZM53.6122 9.30028C54.9831 9.30028 56.1422 9.47091 57.0784 9.8107C58.0135 10.1505 58.7689 10.6274 59.3213 11.2326C59.8857 11.848 60.2678 12.6661 60.5014 13.5367C60.7464 14.4074 60.8631 15.3626 60.8631 16.4126V27.0934C60.2258 27.2305 59.2572 27.3894 57.961 27.5805C56.6642 27.7715 55.2077 27.8678 53.5901 27.8678C52.5167 27.8678 51.528 27.7613 50.6457 27.5601C49.7517 27.3588 48.9978 27.0292 48.359 26.5728C47.732 26.1163 47.2434 25.5315 46.8817 24.8111C46.5303 24.0878 46.3495 23.0699 46.3495 22.0082C46.3495 20.9888 46.5507 20.3413 46.9459 19.6399C47.3484 18.9399 47.8909 18.3667 48.572 17.9205C49.2632 17.4742 50.0492 17.1563 50.9534 16.9653C51.8576 16.7742 52.804 16.678 53.7811 16.678C54.239 16.678 54.7174 16.7101 55.2278 16.7626C55.728 16.8165 56.2705 16.9128 56.8451 17.0499V16.3703C56.8451 15.8934 56.7911 15.4369 56.6745 15.0126C56.5623 14.5944 56.3586 14.2063 56.078 13.8765C55.7907 13.5469 55.4203 13.2917 54.9522 13.1124C54.484 12.9315 53.8876 12.793 53.1759 12.793C52.2192 12.793 51.3472 12.9097 50.5495 13.0482C49.7517 13.1853 49.0926 13.3457 48.5924 13.5251L48.0936 10.1184C48.6142 9.93757 49.3901 9.75674 50.3905 9.57736C51.3895 9.38486 52.4642 9.30028 53.612 9.30028H53.6122ZM135.719 24.2584C136.995 24.2584 137.94 24.184 138.6 24.0557V19.8324C138.366 19.7682 138.037 19.6938 137.601 19.6297C137.122 19.5587 136.638 19.5231 136.154 19.5232C135.697 19.5232 135.229 19.5553 134.761 19.6297C134.295 19.6938 133.869 19.8207 133.497 20.0015C133.123 20.1824 132.816 20.4376 132.593 20.7657C132.358 21.0953 132.253 21.2863 132.253 21.7851C132.253 22.7607 132.593 23.3251 133.21 23.6955C133.837 24.0776 134.666 24.2584 135.719 24.2584ZM135.368 9.19528C136.739 9.19528 137.898 9.36445 138.834 9.70424C139.769 10.044 140.524 10.5209 141.077 11.1261C141.63 11.7313 142.023 12.5597 142.257 13.4303C142.502 14.3009 142.618 15.2561 142.618 16.3076V26.9869C141.981 27.124 141.013 27.283 139.716 27.4755C138.42 27.6665 136.963 27.7613 135.346 27.7613C134.272 27.7613 133.284 27.6549 132.402 27.4536C131.508 27.2524 130.754 26.9228 130.115 26.4663C129.488 26.0099 128.999 25.4251 128.638 24.7047C128.286 23.9828 128.105 22.9634 128.105 21.9017C128.105 20.8824 128.308 20.2349 128.702 19.5334C129.104 18.8334 129.647 18.2603 130.328 17.814C131.019 17.3692 131.805 17.0499 132.709 16.8588C133.613 16.6678 134.56 16.573 135.538 16.573C135.995 16.573 136.473 16.6051 136.984 16.6576C137.494 16.7101 138.026 16.8063 138.6 16.9449V16.2653C138.6 15.7869 138.547 15.3305 138.43 14.9061C138.319 14.4878 138.115 14.0997 137.834 13.7701C137.547 13.4405 137.176 13.1853 136.708 13.0059C136.24 12.8251 135.643 12.688 134.932 12.688C133.975 12.688 133.103 12.8047 132.305 12.9417C131.508 13.0803 130.848 13.2392 130.348 13.4201L129.85 10.0119C130.37 9.83111 131.146 9.65174 132.146 9.47091C133.145 9.29007 134.219 9.19528 135.368 9.19528ZM122.885 7.2207C124.277 7.2207 125.416 6.09486 125.416 4.70361C125.416 3.31382 124.289 2.18799 122.885 2.18799C121.482 2.18799 120.354 3.31382 120.354 4.70361C120.354 6.09486 121.492 7.2207 122.885 7.2207ZM124.979 27.7613H120.8V9.84132L124.978 9.18361V27.7613H124.979ZM117.653 27.7613C110.838 27.7934 110.838 22.2619 110.838 21.3811L110.827 0.659655L114.984 0.000488281V20.5951C114.984 21.0953 114.984 24.2584 117.653 24.2686V27.7613ZM104.139 18.5899C104.139 16.7947 103.745 15.2984 102.98 14.2586C102.214 13.2072 101.141 12.688 99.7685 12.688C98.3977 12.688 97.3226 13.2072 96.5584 14.2586C95.7928 15.3086 95.4197 16.7947 95.4197 18.5899C95.4197 20.4055 95.8033 21.6247 96.5689 22.6761C97.3345 23.7378 98.4079 24.2584 99.7802 24.2584C101.151 24.2584 102.226 23.7276 102.991 22.6761C103.757 21.6144 104.139 20.4055 104.139 18.5899ZM108.391 18.5797C108.391 19.9811 108.19 21.0413 107.775 22.1992C107.361 23.3557 106.776 24.343 106.022 25.1611C105.266 25.9778 104.362 26.6151 103.299 27.0613C102.236 27.5061 100.598 27.7613 99.7799 27.7613C98.9603 27.7511 97.3342 27.5178 96.2813 27.0613C95.2284 26.6049 94.3242 25.9778 93.5703 25.1611C92.8149 24.343 92.2304 23.3557 91.8045 22.1992C91.3799 21.0413 91.1672 19.9811 91.1672 18.5797C91.1672 17.1782 91.358 15.8292 91.7838 14.683C92.2097 13.5367 92.8047 12.5597 93.5703 11.743C94.3359 10.9249 95.2503 10.2978 96.2915 9.85299C97.3445 9.40674 98.5038 9.19528 99.758 9.19528C101.014 9.19528 102.172 9.41695 103.235 9.85299C104.299 10.2978 105.214 10.9249 105.958 11.743C106.711 12.5597 107.296 13.5367 107.722 14.683C108.168 15.8292 108.392 17.1782 108.392 18.5797H108.391ZM77.1002 18.5797C77.1002 20.3194 77.4822 22.2517 78.2479 23.0582C79.0135 23.8661 80.002 24.2686 81.2156 24.2686C81.8748 24.2686 82.5018 24.1738 83.0863 23.993C83.6711 23.8122 84.1381 23.5992 84.5114 23.3455V13.038C84.2139 12.9738 82.9697 12.7186 81.7668 12.688C80.2575 12.6442 79.1097 13.2611 78.3018 14.2469C77.5038 15.2357 77.1002 16.9653 77.1002 18.5797ZM88.6575 26.774C88.6575 29.609 87.9341 31.6784 86.4769 32.9953C85.0215 34.3107 82.799 34.9699 79.8007 34.9699C78.7055 34.9699 76.4305 34.7569 74.612 34.3544L75.2813 31.063C76.8024 31.3809 78.812 31.4669 79.8649 31.4669C81.5332 31.4669 82.7247 31.1272 83.4363 30.4476C84.1495 29.768 84.4994 28.7603 84.4994 27.4215V26.7419C84.0853 26.9432 83.5428 27.1459 82.8734 27.3588C82.204 27.5601 81.4282 27.6665 80.5547 27.6665C79.407 27.6665 78.3642 27.4857 77.4192 27.124C76.4728 26.7638 75.6532 26.233 74.9838 25.5315C74.3145 24.8315 73.7822 23.9507 73.4103 22.8992C73.0384 21.8478 72.8459 19.9694 72.8459 18.5899C72.8459 17.2949 73.0486 15.6703 73.4427 14.5867C73.8463 13.5047 74.4197 12.5699 75.1967 11.7955C75.9627 11.0211 76.8986 10.4261 77.9938 9.99007C79.089 9.55549 80.3738 9.27986 81.7665 9.27986C83.1184 9.27986 84.3624 9.44903 85.5742 9.65174C86.7861 9.85299 87.8172 10.0644 88.6572 10.2978V26.774H88.6575Z" fill="white"/>
</svg>
