<svg id="svg" version="1.1" xmlns="http://www.w3.org/2000/svg" xmlns:xlink="http://www.w3.org/1999/xlink" width="250" height="auto" viewBox="0, 0, 400,148.19102749638205"><g id="svgg"><path id="path0" d="M73.250 2.010 C 66.772 2.555,60.795 4.214,54.833 7.124 C 52.241 8.389,52.305 8.804,54.917 7.662 C 55.695 7.321,59.747 6.191,61.500 5.826 C 83.181 1.306,101.834 9.291,113.584 28.122 C 115.193 30.701,118.333 36.624,118.333 37.081 C 118.333 37.123,118.509 37.553,118.725 38.037 C 118.940 38.521,119.290 39.367,119.503 39.917 C 119.715 40.467,119.914 40.948,119.944 40.986 C 119.974 41.024,120.656 41.223,121.458 41.429 C 122.260 41.634,123.685 42.047,124.624 42.347 C 125.563 42.646,126.383 42.840,126.446 42.776 C 126.638 42.584,125.177 37.677,124.379 35.833 C 124.241 35.512,124.024 35.014,123.897 34.725 C 123.770 34.436,123.667 34.155,123.667 34.101 C 123.667 34.046,123.349 33.308,122.962 32.459 C 113.771 12.346,97.900 1.745,77.167 1.869 C 75.837 1.877,74.075 1.940,73.250 2.010 M69.583 6.935 C 68.016 7.057,64.584 7.521,63.333 7.780 C 62.646 7.923,61.783 8.100,61.417 8.174 C 59.899 8.480,56.022 9.598,55.083 10.000 C 54.900 10.079,54.300 10.304,53.750 10.501 C 50.208 11.769,44.183 14.940,42.601 16.368 C 41.787 17.103,41.900 17.123,43.892 16.598 C 68.158 10.196,87.005 18.114,97.215 39.000 C 97.955 40.512,98.580 41.777,98.605 41.811 C 98.629 41.845,99.085 41.792,99.617 41.695 C 105.881 40.548,107.186 40.415,112.083 40.425 C 114.375 40.430,116.456 40.488,116.708 40.553 C 117.340 40.718,117.312 40.467,116.487 38.520 C 113.655 31.838,109.697 25.597,105.217 20.746 C 104.172 19.615,103.251 18.665,103.170 18.636 C 103.089 18.607,102.624 18.208,102.137 17.749 C 101.649 17.289,100.956 16.689,100.598 16.415 C 100.239 16.141,99.596 15.647,99.170 15.317 C 97.017 13.654,92.630 11.152,90.083 10.137 C 89.100 9.744,87.179 9.057,86.417 8.824 C 86.050 8.712,85.563 8.559,85.333 8.485 C 84.901 8.345,83.360 7.983,81.917 7.684 C 78.969 7.072,72.706 6.692,69.583 6.935 M37.917 14.101 C 33.114 14.365,28.275 15.879,24.500 18.299 C 23.356 19.032,23.345 19.097,24.417 18.820 C 28.383 17.794,32.571 18.042,34.786 19.435 C 35.291 19.752,35.325 19.742,36.093 19.037 C 36.670 18.508,39.136 16.339,40.904 14.805 C 41.186 14.561,41.379 14.324,41.333 14.278 C 41.206 14.151,39.042 14.039,37.917 14.101 M54.833 17.013 C 50.596 17.367,44.418 18.627,40.167 20.004 C 39.662 20.167,38.827 20.428,38.311 20.584 C 37.316 20.884,31.149 26.734,31.400 27.139 C 31.456 27.230,32.083 27.350,32.793 27.405 C 44.095 28.284,53.609 31.700,60.428 37.328 C 60.709 37.560,61.309 38.050,61.761 38.416 C 65.234 41.229,69.755 46.763,72.824 51.958 C 73.688 53.420,73.272 53.466,76.069 51.602 C 80.097 48.918,84.146 46.796,88.375 45.153 C 89.590 44.682,90.733 44.232,90.917 44.154 C 91.288 43.996,93.281 43.372,95.125 42.837 C 95.790 42.644,96.333 42.443,96.333 42.390 C 96.333 42.223,94.329 38.188,93.628 36.946 C 90.882 32.075,86.726 27.156,82.917 24.267 C 82.367 23.850,81.842 23.451,81.750 23.380 C 75.623 18.615,65.185 16.146,54.833 17.013 M26.417 19.908 C 24.223 20.349,22.856 20.910,20.993 22.131 C 19.958 22.809,16.853 25.708,16.707 26.131 C 16.684 26.200,17.696 26.260,18.957 26.266 C 21.899 26.279,23.879 26.800,25.946 28.103 L 26.810 28.647 27.774 27.532 C 28.723 26.434,29.903 25.169,32.663 22.290 C 33.479 21.439,33.998 20.772,33.906 20.692 C 32.938 19.842,28.862 19.415,26.417 19.908 M16.354 22.419 C 15.172 22.633,13.783 23.018,13.083 23.326 C 11.469 24.035,10.565 24.510,9.458 25.228 C 8.202 26.044,7.776 26.513,8.542 26.237 C 8.748 26.163,10.257 26.089,11.894 26.072 C 13.700 26.053,14.913 25.974,14.978 25.871 C 15.036 25.778,15.758 24.973,16.583 24.082 C 18.590 21.915,18.604 22.012,16.354 22.419 M4.053 26.683 C 1.953 27.490,0.764 29.288,0.757 31.667 C 0.751 33.877,1.586 35.674,1.917 34.164 C 2.250 32.651,3.858 29.315,5.104 27.553 C 6.091 26.159,5.876 25.982,4.053 26.683 M9.167 27.658 C 8.938 27.730,8.300 27.921,7.750 28.082 C 6.577 28.424,6.024 28.783,5.630 29.460 L 5.343 29.951 6.630 30.789 C 7.338 31.250,8.290 31.936,8.747 32.314 C 9.800 33.184,9.700 33.212,10.608 31.792 C 11.033 31.127,11.820 29.964,12.357 29.206 C 12.894 28.449,13.333 27.755,13.333 27.665 C 13.333 27.468,9.786 27.462,9.167 27.658 M17.333 27.763 C 14.879 28.201,14.676 28.357,12.611 31.394 C 11.703 32.731,11.684 32.882,12.292 33.972 C 13.125 35.467,14.334 36.617,17.109 38.552 C 18.771 39.712,18.688 39.712,19.434 38.542 C 20.589 36.731,23.974 32.026,24.500 31.500 C 25.163 30.837,25.698 29.920,25.554 29.692 C 24.799 28.496,19.802 27.324,17.333 27.763 M28.917 29.717 C 28.825 29.829,28.314 30.445,27.780 31.086 C 26.450 32.682,26.505 32.613,25.181 34.375 C 23.737 36.296,23.736 36.306,24.774 39.727 C 27.911 50.058,43.497 63.178,58.476 68.096 C 58.731 68.179,58.937 67.958,60.894 65.500 C 63.667 62.015,67.344 58.293,70.936 55.333 C 71.716 54.690,71.734 54.564,71.179 53.661 C 70.897 53.203,70.667 52.784,70.667 52.730 C 70.667 52.117,65.160 44.778,63.562 43.262 C 63.458 43.164,62.708 42.441,61.895 41.656 C 55.171 35.162,46.371 31.255,35.667 30.014 C 34.887 29.923,33.566 29.771,32.731 29.675 C 30.716 29.443,29.126 29.460,28.917 29.717 M4.503 32.240 C 3.959 34.184,4.557 37.804,5.696 39.460 C 6.277 40.303,6.403 40.258,6.835 39.051 C 6.993 38.610,7.525 37.425,8.019 36.417 C 8.512 35.408,8.939 34.531,8.969 34.468 C 9.058 34.273,5.208 31.500,4.849 31.500 C 4.773 31.500,4.617 31.833,4.503 32.240 M10.583 34.666 C 9.339 36.680,8.667 38.444,8.667 39.696 C 8.667 42.974,10.047 45.637,12.716 47.512 C 14.212 48.562,13.982 48.700,15.311 45.958 C 15.944 44.652,16.771 43.042,17.148 42.380 C 18.030 40.831,18.132 41.064,15.875 39.468 C 13.765 37.976,11.524 35.868,11.150 35.023 C 10.909 34.479,10.758 34.384,10.583 34.666 M2.722 37.262 C 2.242 38.513,3.014 42.669,4.098 44.667 C 4.729 45.830,4.933 45.875,5.071 44.882 C 5.132 44.443,5.244 43.896,5.321 43.667 C 5.909 41.918,5.913 41.858,5.476 41.459 C 4.536 40.597,3.167 38.154,3.167 37.337 C 3.167 36.938,2.866 36.887,2.722 37.262 M21.335 39.870 C 17.687 45.665,17.277 46.812,17.262 51.250 C 17.256 52.937,17.341 54.555,17.472 55.250 C 18.111 58.642,18.925 61.292,20.103 63.811 C 20.505 64.669,20.833 65.399,20.833 65.432 C 20.833 65.466,21.096 65.904,21.417 66.405 C 21.738 66.907,22.000 67.368,22.000 67.431 C 22.000 68.303,27.169 74.025,29.582 75.823 C 35.207 80.015,43.210 82.348,49.737 81.698 L 50.892 81.583 52.329 78.750 C 53.744 75.963,55.187 73.463,56.607 71.339 C 57.409 70.140,57.413 70.160,56.250 69.751 C 55.792 69.591,55.099 69.318,54.710 69.146 C 54.322 68.974,53.952 68.833,53.890 68.833 C 53.369 68.833,46.274 65.240,44.990 64.326 C 44.738 64.147,44.477 64.000,44.411 64.000 C 44.344 64.000,43.924 63.737,43.478 63.417 C 43.031 63.096,42.631 62.833,42.589 62.833 C 42.295 62.833,37.686 59.378,35.551 57.556 C 28.807 51.802,23.311 44.339,22.348 39.629 C 22.187 38.844,21.945 38.901,21.335 39.870 M7.263 42.479 C 5.338 45.594,6.668 51.775,9.736 53.970 C 11.826 55.465,11.673 55.539,12.591 52.583 C 12.848 51.758,13.109 51.008,13.173 50.917 C 13.678 50.184,13.531 49.883,12.208 48.941 C 9.598 47.082,8.622 45.836,7.682 43.167 C 7.513 42.689,7.325 42.379,7.263 42.479 M108.083 42.769 C 104.255 43.016,98.447 44.164,93.833 45.585 C 92.845 45.889,89.462 47.092,88.917 47.333 C 88.733 47.414,87.983 47.738,87.250 48.053 C 72.120 54.558,59.979 66.839,52.860 82.840 C 51.907 84.982,50.281 89.780,50.427 90.017 C 50.526 90.177,51.778 89.724,53.273 88.990 C 55.060 88.111,55.831 87.127,57.247 83.917 C 60.648 76.203,67.071 68.236,73.917 63.239 C 74.283 62.971,74.621 62.707,74.667 62.651 C 74.877 62.397,78.121 60.253,80.027 59.109 C 86.627 55.147,95.073 51.987,101.917 50.920 C 102.833 50.777,104.146 50.569,104.833 50.459 C 106.581 50.177,113.569 50.188,115.167 50.474 C 118.963 51.154,120.517 51.602,122.807 52.680 C 128.423 55.323,131.500 60.101,131.500 66.179 C 131.500 67.283,131.524 67.298,132.640 66.910 C 138.950 64.712,140.108 58.122,135.251 52.052 C 129.969 45.450,119.893 42.007,108.083 42.769 M342.750 50.591 C 332.444 51.458,328.833 56.424,328.833 69.731 C 328.833 83.459,332.565 88.238,343.874 88.990 C 347.920 89.259,351.225 91.479,355.417 96.745 L 356.681 98.333 359.091 98.333 C 360.416 98.333,361.500 98.289,361.500 98.235 C 361.500 97.192,354.454 90.480,352.038 89.220 C 351.453 88.915,351.074 88.637,351.196 88.601 C 351.317 88.565,351.942 88.407,352.583 88.249 C 359.450 86.563,362.265 81.124,362.241 69.583 C 362.223 60.880,360.922 56.690,357.254 53.517 C 355.066 51.623,352.405 50.890,346.083 50.440 C 345.625 50.408,344.125 50.475,342.750 50.591 M5.556 52.625 C 5.807 56.915,7.431 60.961,9.815 63.235 C 10.418 63.810,10.433 63.783,10.580 61.903 C 10.637 61.162,10.796 59.962,10.932 59.237 C 11.433 56.570,11.435 56.614,10.807 56.347 C 9.078 55.614,7.138 53.797,6.195 52.029 C 5.477 50.682,5.444 50.712,5.556 52.625 M169.577 51.542 C 169.533 51.656,169.517 59.962,169.540 70.000 L 169.583 88.250 171.083 88.299 C 171.908 88.326,172.752 88.306,172.958 88.254 L 173.333 88.160 173.333 79.247 L 173.333 70.333 183.082 70.333 L 192.830 70.333 192.874 79.292 L 192.917 88.250 194.708 88.297 L 196.500 88.345 196.500 69.833 L 196.500 51.322 194.708 51.369 L 192.917 51.417 192.833 59.083 L 192.750 66.750 183.083 66.750 L 173.417 66.750 173.373 59.175 C 173.340 53.370,173.282 51.570,173.123 51.470 C 172.766 51.243,169.667 51.306,169.577 51.542 M297.204 51.451 C 296.411 51.604,295.922 53.336,296.326 54.560 C 296.809 56.025,299.992 56.218,300.482 54.812 C 301.372 52.260,300.051 50.905,297.204 51.451 M378.853 52.375 C 378.036 54.197,373.852 64.778,372.113 69.417 C 371.701 70.517,371.122 72.054,370.827 72.833 C 370.532 73.612,370.119 74.737,369.910 75.333 C 369.700 75.929,369.254 77.167,368.919 78.083 C 368.313 79.740,367.263 82.704,366.999 83.500 C 366.924 83.729,366.525 84.868,366.115 86.031 C 365.247 88.487,365.163 88.334,367.389 88.331 C 369.247 88.328,369.181 88.372,369.657 86.833 C 370.042 85.589,371.999 79.748,372.615 78.000 L 372.939 77.083 381.928 77.040 L 390.917 76.997 391.729 79.124 C 395.611 89.278,395.025 88.355,397.549 88.297 C 399.867 88.243,399.793 88.318,399.082 86.762 C 398.866 86.289,398.341 85.043,397.916 83.993 C 397.492 82.943,397.041 81.856,396.915 81.578 C 396.674 81.047,392.886 71.261,392.347 69.777 C 392.175 69.304,391.719 68.054,391.333 67.000 C 390.537 64.826,389.208 61.125,388.999 60.500 C 388.922 60.271,388.397 58.771,387.833 57.167 C 387.268 55.563,386.628 53.699,386.411 53.026 C 385.827 51.219,386.094 51.333,382.473 51.333 L 379.319 51.333 378.853 52.375 M14.705 53.625 C 12.271 60.052,12.058 66.776,14.072 73.667 C 15.513 78.599,19.012 84.393,22.052 86.883 C 22.477 87.231,22.921 87.606,23.038 87.716 C 23.426 88.083,24.476 88.833,24.601 88.833 C 24.668 88.833,24.842 88.936,24.987 89.061 C 26.049 89.978,29.850 91.560,32.167 92.049 C 37.370 93.147,40.887 93.022,46.285 91.545 L 47.819 91.125 47.929 90.354 C 47.989 89.930,48.443 88.369,48.936 86.885 C 49.430 85.400,49.833 84.144,49.833 84.093 C 49.833 84.042,48.915 83.999,47.792 83.998 C 39.054 83.992,30.507 80.497,24.773 74.586 C 19.119 68.758,15.990 61.995,14.941 53.333 C 14.924 53.196,14.818 53.327,14.705 53.625 M350.067 54.085 C 356.618 55.339,358.899 60.543,358.156 72.537 C 357.532 82.622,354.623 85.649,345.541 85.664 C 338.929 85.674,335.101 83.489,333.977 79.062 C 332.002 71.283,332.902 60.039,335.768 56.691 C 337.866 54.240,344.530 53.026,350.067 54.085 M117.242 54.409 L 116.833 54.818 116.833 82.281 L 116.833 109.743 111.500 115.086 L 106.167 120.429 106.167 125.631 L 106.167 130.833 105.101 130.833 C 103.769 130.833,103.833 130.660,103.833 134.250 C 103.833 138.073,103.414 137.667,107.355 137.667 L 110.674 137.667 110.628 134.292 L 110.583 130.917 109.542 130.867 L 108.500 130.817 108.500 126.120 L 108.500 121.423 113.835 116.079 L 119.170 110.735 119.126 82.686 L 119.083 54.637 118.690 54.319 C 118.161 53.891,117.734 53.917,117.242 54.409 M106.558 54.468 C 104.110 55.467,103.745 58.672,105.907 60.195 L 106.667 60.731 106.667 83.189 L 106.667 105.647 101.417 110.913 L 96.167 116.179 96.167 128.010 L 96.167 139.842 95.769 139.993 C 91.829 141.491,93.173 147.667,97.439 147.667 C 101.547 147.667,102.898 141.766,99.175 140.087 L 98.500 139.783 98.500 128.414 L 98.500 117.045 103.664 111.897 L 108.828 106.750 108.831 83.889 C 108.833 61.664,108.852 60.500,109.200 60.500 C 109.926 60.500,111.162 58.655,111.165 57.567 C 111.172 55.210,108.743 53.576,106.558 54.468 M383.459 55.458 C 383.644 55.985,384.287 57.917,384.888 59.750 C 385.489 61.583,386.516 64.621,387.171 66.500 C 387.826 68.379,388.461 70.217,388.583 70.583 C 388.705 70.950,389.000 71.761,389.238 72.386 C 389.477 73.011,389.629 73.593,389.576 73.678 C 389.519 73.770,386.400 73.833,381.886 73.833 L 374.292 73.833 374.400 73.292 C 374.489 72.842,375.298 70.560,375.832 69.250 C 375.907 69.067,376.584 67.304,377.337 65.333 C 378.090 63.362,378.800 61.525,378.915 61.250 C 379.029 60.975,379.328 60.225,379.580 59.583 C 379.832 58.942,380.167 58.117,380.324 57.750 C 380.481 57.383,380.827 56.502,381.093 55.792 L 381.577 54.500 382.350 54.500 L 383.122 54.500 383.459 55.458 M312.167 54.829 C 311.920 54.970,311.273 55.245,310.206 55.663 C 309.526 55.929,309.507 56.019,309.457 59.083 L 309.417 61.583 307.119 61.630 L 304.821 61.676 304.869 63.213 L 304.917 64.750 307.195 64.796 L 309.473 64.843 309.548 73.796 C 309.629 83.408,309.660 83.780,310.532 85.686 C 311.218 87.183,312.248 88.013,314.250 88.680 C 316.068 89.286,323.473 88.698,323.770 87.924 C 323.846 87.727,323.254 85.199,323.095 85.040 C 323.054 84.999,322.336 85.123,321.498 85.316 C 317.846 86.157,314.806 85.553,313.903 83.808 C 313.139 82.329,313.125 82.164,313.044 73.294 L 312.967 64.838 317.942 64.794 L 322.917 64.750 322.965 63.208 L 323.013 61.667 318.206 61.667 C 314.690 61.667,313.346 61.613,313.200 61.467 C 313.058 61.325,313.000 60.311,313.000 57.967 C 313.000 54.438,312.980 54.364,312.167 54.829 M96.250 55.845 C 94.034 56.937,93.958 60.228,96.117 61.642 L 96.667 62.003 96.667 80.335 L 96.667 98.667 95.500 98.667 L 94.333 98.667 94.333 102.000 L 94.333 105.333 97.750 105.333 L 101.167 105.333 101.167 102.000 L 101.167 98.667 100.083 98.667 L 99.000 98.667 99.000 80.250 C 99.000 68.526,99.058 61.833,99.161 61.833 C 99.249 61.833,99.591 61.597,99.919 61.309 C 102.832 58.751,99.729 54.131,96.250 55.845 M86.742 58.576 L 86.333 58.985 86.331 72.701 L 86.329 86.417 85.492 86.878 C 81.860 88.881,83.357 94.338,87.536 94.332 C 91.679 94.326,92.981 88.863,89.329 86.811 L 88.672 86.442 88.628 72.628 L 88.583 58.814 88.167 58.494 C 87.607 58.065,87.232 58.086,86.742 58.576 M125.704 60.093 L 125.333 60.352 125.333 74.744 L 125.333 89.135 124.419 89.651 C 120.841 91.670,122.237 97.054,126.345 97.077 C 130.591 97.101,131.928 91.256,128.083 89.477 L 127.583 89.246 127.500 74.797 C 127.418 60.592,127.411 60.343,127.083 60.096 C 126.652 59.770,126.167 59.768,125.704 60.093 M212.367 61.156 C 208.477 61.992,205.898 64.457,204.945 68.250 C 204.302 70.808,204.250 71.294,204.252 74.750 C 204.259 85.409,208.576 89.809,218.193 88.957 C 220.654 88.739,225.035 87.865,225.377 87.523 C 225.583 87.317,224.816 84.304,224.581 84.394 C 224.475 84.435,223.606 84.654,222.652 84.881 C 213.225 87.120,208.709 84.977,208.242 78.043 C 208.195 77.332,208.122 76.431,208.081 76.042 L 208.006 75.333 217.378 75.331 C 222.536 75.329,226.855 75.262,226.983 75.180 C 227.546 74.824,226.904 68.965,226.032 66.500 C 224.376 61.818,219.024 59.725,212.367 61.156 M241.917 60.938 C 240.492 61.220,239.726 61.406,239.583 61.505 C 239.492 61.569,239.226 61.666,238.993 61.722 C 238.759 61.777,238.107 62.121,237.543 62.485 L 236.518 63.148 236.467 62.449 L 236.417 61.750 234.707 61.702 L 232.998 61.655 233.041 74.952 L 233.083 88.250 234.416 88.299 C 235.149 88.327,235.918 88.306,236.124 88.255 L 236.500 88.160 236.500 77.618 L 236.500 67.076 237.033 66.429 C 238.158 65.065,240.518 64.408,244.208 64.433 L 246.667 64.450 246.667 62.814 C 246.667 61.368,246.629 61.158,246.344 61.006 C 246.043 60.844,242.652 60.792,241.917 60.938 M259.667 60.929 C 259.438 60.969,258.688 61.085,258.000 61.188 C 256.543 61.406,254.142 62.015,252.836 62.496 C 252.333 62.682,251.901 62.833,251.876 62.833 C 251.852 62.833,251.850 68.552,251.874 75.542 L 251.917 88.250 253.500 88.250 L 255.083 88.250 255.126 76.757 C 255.150 70.436,255.229 65.205,255.302 65.132 C 255.809 64.624,259.911 64.092,262.391 64.211 C 265.884 64.380,267.200 65.228,268.141 67.917 C 268.575 69.158,268.667 71.177,268.667 79.487 L 268.667 88.160 269.042 88.255 C 269.249 88.306,270.018 88.327,270.751 88.299 L 272.083 88.250 272.131 79.333 C 272.178 70.464,272.102 68.700,271.590 66.760 C 271.467 66.296,271.351 65.842,271.331 65.750 C 271.248 65.376,271.352 65.201,271.708 65.116 C 271.915 65.067,272.533 64.914,273.083 64.776 C 277.361 63.706,282.182 64.067,283.728 65.572 C 285.495 67.293,285.558 67.733,285.626 78.791 L 285.684 88.165 286.051 88.257 C 286.253 88.307,287.018 88.327,287.751 88.299 L 289.083 88.250 289.130 78.917 C 289.191 66.447,288.893 64.740,286.278 62.597 C 284.301 60.977,278.829 60.332,274.667 61.229 C 273.887 61.396,272.950 61.596,272.583 61.673 C 272.217 61.749,271.429 61.966,270.833 62.154 C 269.449 62.591,269.479 62.592,268.263 61.994 C 266.414 61.084,261.975 60.534,259.667 60.929 M296.707 74.958 L 296.750 88.250 298.417 88.250 L 300.083 88.250 300.126 74.958 L 300.169 61.667 298.417 61.667 L 296.665 61.667 296.707 74.958 M77.333 64.000 C 77.005 64.329,77.000 64.556,77.000 79.872 L 77.000 95.410 82.417 100.836 L 87.833 106.262 87.833 116.264 L 87.833 126.266 86.962 126.841 C 82.785 129.598,85.993 135.954,90.545 133.941 C 93.657 132.564,93.826 128.352,90.833 126.732 C 90.513 126.559,90.195 126.342,90.128 126.250 C 90.060 126.158,90.004 121.395,90.003 115.666 L 90.000 105.248 84.667 99.917 L 79.333 94.585 79.333 79.488 L 79.333 64.391 78.948 64.029 C 78.466 63.576,77.770 63.564,77.333 64.000 M218.911 64.361 C 221.475 64.876,222.955 67.190,223.051 70.833 L 223.083 72.083 215.602 72.127 L 208.120 72.170 208.235 71.043 C 208.807 65.445,212.573 63.088,218.911 64.361 M67.865 71.840 L 67.500 72.180 67.500 86.299 L 67.500 100.419 72.336 105.251 L 77.172 110.083 77.128 113.500 L 77.083 116.917 76.056 116.966 C 74.625 117.034,74.652 116.962,74.705 120.605 L 74.750 123.750 78.167 123.750 L 81.583 123.750 81.629 120.605 C 81.682 116.946,81.701 117.000,80.313 117.000 L 79.333 117.000 79.333 113.010 L 79.333 109.021 74.583 104.272 L 69.833 99.523 69.833 86.086 C 69.833 74.620,69.798 72.581,69.589 72.179 C 69.198 71.421,68.468 71.277,67.865 71.840 M59.611 83.303 C 59.367 83.573,59.332 84.418,59.293 91.095 L 59.250 98.583 58.125 98.633 L 57.000 98.682 57.000 102.008 L 57.000 105.333 60.333 105.333 L 63.667 105.333 63.667 102.008 L 63.667 98.683 62.625 98.633 L 61.583 98.583 61.500 91.067 C 61.433 85.035,61.371 83.497,61.188 83.275 C 60.881 82.906,59.955 82.922,59.611 83.303 M88.067 88.732 C 89.644 89.391,89.501 91.727,87.863 92.073 C 85.726 92.525,84.885 89.615,86.899 88.738 C 87.541 88.459,87.414 88.460,88.067 88.732 M127.078 91.570 C 128.554 92.187,128.436 94.013,126.867 94.823 C 125.399 95.580,123.895 93.115,125.125 91.969 C 125.856 91.287,126.222 91.213,127.078 91.570 M90.154 129.013 C 91.264 130.123,90.536 132.000,88.995 132.000 C 87.778 132.000,86.827 130.650,87.334 129.643 C 87.943 128.432,89.276 128.135,90.154 129.013 M98.426 142.271 C 98.941 142.609,99.223 143.484,99.043 144.182 C 98.714 145.452,97.028 145.852,96.150 144.869 C 94.721 143.270,96.628 141.093,98.426 142.271 " stroke="none" fill="white" fill-rule="evenodd"></path><path id="path1" d="M0.000 74.083 L 0.000 148.167 200.000 148.167 L 400.000 148.167 400.000 74.083 L 400.000 0.000 200.000 0.000 L 0.000 0.000 0.000 74.083 M81.500 2.005 C 86.965 2.432,91.349 3.403,96.024 5.219 C 107.666 9.744,116.804 18.984,122.962 32.459 C 123.349 33.308,123.667 34.046,123.667 34.101 C 123.667 34.155,123.770 34.436,123.897 34.725 C 124.024 35.014,124.241 35.512,124.379 35.833 C 125.177 37.677,126.638 42.584,126.446 42.776 C 126.383 42.840,125.563 42.646,124.624 42.347 C 123.685 42.047,122.260 41.634,121.458 41.429 C 120.656 41.223,119.974 41.024,119.944 40.986 C 119.914 40.948,119.715 40.467,119.503 39.917 C 119.290 39.367,118.940 38.521,118.725 38.037 C 118.509 37.553,118.333 37.123,118.333 37.081 C 118.333 37.039,117.924 36.160,117.424 35.127 C 109.848 19.483,98.924 9.688,85.019 6.070 C 77.911 4.221,69.613 4.135,61.500 5.826 C 59.747 6.191,55.695 7.321,54.917 7.662 C 52.305 8.804,52.241 8.389,54.833 7.124 C 63.266 3.008,72.262 1.282,81.500 2.005 M79.250 7.242 C 80.258 7.390,81.458 7.589,81.917 7.684 C 83.360 7.983,84.901 8.345,85.333 8.485 C 85.563 8.559,86.050 8.712,86.417 8.824 C 87.179 9.057,89.100 9.744,90.083 10.137 C 92.630 11.152,97.017 13.654,99.170 15.317 C 99.596 15.647,100.239 16.141,100.598 16.415 C 100.956 16.689,101.649 17.289,102.137 17.749 C 102.624 18.208,103.089 18.607,103.170 18.636 C 103.251 18.665,104.172 19.615,105.217 20.746 C 109.697 25.597,113.655 31.838,116.487 38.520 C 117.312 40.467,117.340 40.718,116.708 40.553 C 116.456 40.488,114.375 40.430,112.083 40.425 C 107.186 40.415,105.881 40.548,99.617 41.695 C 99.085 41.792,98.629 41.845,98.605 41.811 C 98.580 41.777,97.955 40.512,97.215 39.000 C 87.005 18.114,68.158 10.196,43.892 16.598 C 41.900 17.123,41.787 17.103,42.601 16.368 C 44.183 14.940,50.208 11.769,53.750 10.501 C 54.300 10.304,54.900 10.079,55.083 10.000 C 56.022 9.598,59.899 8.480,61.417 8.174 C 61.783 8.100,62.646 7.923,63.333 7.780 C 64.584 7.521,68.016 7.057,69.583 6.935 C 71.419 6.792,77.492 6.985,79.250 7.242 M41.333 14.278 C 41.379 14.324,41.186 14.561,40.904 14.805 C 39.136 16.339,36.670 18.508,36.093 19.037 C 35.325 19.742,35.291 19.752,34.786 19.435 C 32.571 18.042,28.383 17.794,24.417 18.820 C 23.345 19.097,23.356 19.032,24.500 18.299 C 28.275 15.879,33.114 14.365,37.917 14.101 C 39.042 14.039,41.206 14.151,41.333 14.278 M63.703 17.003 C 70.467 17.644,77.630 20.175,81.750 23.380 C 81.842 23.451,82.367 23.850,82.917 24.267 C 86.726 27.156,90.882 32.075,93.628 36.946 C 94.329 38.188,96.333 42.223,96.333 42.390 C 96.333 42.443,95.790 42.644,95.125 42.837 C 93.281 43.372,91.288 43.996,90.917 44.154 C 90.733 44.232,89.590 44.682,88.375 45.153 C 84.146 46.796,80.097 48.918,76.069 51.602 C 73.272 53.466,73.688 53.420,72.824 51.958 C 69.755 46.763,65.234 41.229,61.761 38.416 C 61.309 38.050,60.709 37.560,60.428 37.328 C 56.042 33.708,50.056 30.785,43.750 29.185 C 39.936 28.217,36.912 27.726,32.793 27.405 C 32.083 27.350,31.456 27.230,31.400 27.139 C 31.149 26.734,37.316 20.884,38.311 20.584 C 38.827 20.428,39.662 20.167,40.167 20.004 C 47.805 17.531,56.960 16.364,63.703 17.003 M31.367 19.846 C 32.359 20.048,33.670 20.485,33.906 20.692 C 33.998 20.772,33.479 21.439,32.663 22.290 C 29.903 25.169,28.723 26.434,27.774 27.532 L 26.810 28.647 25.946 28.103 C 23.879 26.800,21.899 26.279,18.957 26.266 C 17.696 26.260,16.684 26.200,16.707 26.131 C 16.731 26.063,17.425 25.318,18.250 24.476 C 20.330 22.353,22.346 21.063,24.750 20.316 C 26.725 19.703,29.643 19.496,31.367 19.846 M18.139 22.314 C 18.108 22.396,17.408 23.191,16.583 24.082 C 15.758 24.973,15.036 25.778,14.978 25.871 C 14.913 25.974,13.700 26.053,11.894 26.072 C 10.257 26.089,8.748 26.163,8.542 26.237 C 7.776 26.513,8.202 26.044,9.458 25.228 C 10.565 24.510,11.469 24.035,13.083 23.326 C 14.536 22.687,18.280 21.938,18.139 22.314 M5.833 26.428 C 5.833 26.481,5.505 26.987,5.104 27.553 C 3.858 29.315,2.250 32.651,1.917 34.164 C 1.586 35.674,0.751 33.877,0.757 31.667 C 0.763 29.773,1.073 29.025,2.363 27.799 C 3.375 26.838,5.833 25.867,5.833 26.428 M13.333 27.665 C 13.333 27.755,12.894 28.449,12.357 29.206 C 11.820 29.964,11.033 31.127,10.608 31.792 C 9.700 33.212,9.800 33.184,8.747 32.314 C 8.290 31.936,7.338 31.250,6.630 30.789 L 5.343 29.951 5.630 29.460 C 6.024 28.783,6.577 28.424,7.750 28.082 C 8.300 27.921,8.938 27.730,9.167 27.658 C 9.786 27.462,13.333 27.468,13.333 27.665 M22.733 28.239 C 25.850 29.285,26.154 29.846,24.500 31.500 C 23.974 32.026,20.589 36.731,19.434 38.542 C 18.688 39.712,18.771 39.712,17.109 38.552 C 14.334 36.617,13.125 35.467,12.292 33.972 C 11.684 32.882,11.703 32.731,12.611 31.394 C 14.676 28.357,14.879 28.201,17.333 27.763 C 18.517 27.553,21.460 27.812,22.733 28.239 M32.731 29.675 C 33.566 29.771,34.887 29.923,35.667 30.014 C 46.371 31.255,55.171 35.162,61.895 41.656 C 62.708 42.441,63.458 43.164,63.562 43.262 C 65.160 44.778,70.667 52.117,70.667 52.730 C 70.667 52.784,70.897 53.203,71.179 53.661 C 71.734 54.564,71.716 54.690,70.936 55.333 C 67.344 58.293,63.667 62.015,60.894 65.500 C 58.937 67.958,58.731 68.179,58.476 68.096 C 43.497 63.178,27.911 50.058,24.774 39.727 C 23.736 36.306,23.737 36.296,25.181 34.375 C 26.505 32.613,26.450 32.682,27.780 31.086 C 28.314 30.445,28.825 29.829,28.917 29.717 C 29.126 29.460,30.716 29.443,32.731 29.675 M5.703 31.958 C 6.971 32.771,9.023 34.348,8.969 34.468 C 8.939 34.531,8.512 35.408,8.019 36.417 C 7.525 37.425,6.993 38.610,6.835 39.051 C 6.403 40.258,6.277 40.303,5.696 39.460 C 4.557 37.804,3.959 34.184,4.503 32.240 C 4.747 31.369,4.774 31.363,5.703 31.958 M11.150 35.023 C 11.524 35.868,13.765 37.976,15.875 39.468 C 18.132 41.064,18.030 40.831,17.148 42.380 C 16.771 43.042,15.944 44.652,15.311 45.958 C 13.982 48.700,14.212 48.562,12.716 47.512 C 8.895 44.829,7.626 40.426,9.574 36.610 C 10.848 34.112,10.778 34.183,11.150 35.023 M3.167 37.337 C 3.167 38.154,4.536 40.597,5.476 41.459 C 5.913 41.858,5.909 41.918,5.321 43.667 C 5.244 43.896,5.132 44.443,5.071 44.882 C 4.933 45.875,4.729 45.830,4.098 44.667 C 3.014 42.669,2.242 38.513,2.722 37.262 C 2.866 36.887,3.167 36.938,3.167 37.337 M22.348 39.629 C 23.311 44.339,28.807 51.802,35.551 57.556 C 37.686 59.378,42.295 62.833,42.589 62.833 C 42.631 62.833,43.031 63.096,43.478 63.417 C 43.924 63.737,44.344 64.000,44.411 64.000 C 44.477 64.000,44.738 64.147,44.990 64.326 C 46.274 65.240,53.369 68.833,53.890 68.833 C 53.952 68.833,54.322 68.974,54.710 69.146 C 55.099 69.318,55.792 69.591,56.250 69.751 C 57.413 70.160,57.409 70.140,56.607 71.339 C 55.187 73.463,53.744 75.963,52.329 78.750 L 50.892 81.583 49.737 81.698 C 43.210 82.348,35.207 80.015,29.582 75.823 C 27.169 74.025,22.000 68.303,22.000 67.431 C 22.000 67.368,21.738 66.907,21.417 66.405 C 21.096 65.904,20.833 65.466,20.833 65.432 C 20.833 65.399,20.505 64.669,20.103 63.811 C 16.886 56.932,16.274 48.807,18.643 44.440 C 18.999 43.786,19.625 42.688,20.035 42.000 C 21.963 38.770,22.136 38.593,22.348 39.629 M8.354 44.810 C 9.064 46.313,10.143 47.470,12.208 48.941 C 13.531 49.883,13.678 50.184,13.173 50.917 C 13.109 51.008,12.848 51.758,12.591 52.583 C 11.763 55.247,11.764 55.246,10.961 54.792 C 7.048 52.574,5.522 48.292,6.921 43.456 C 7.268 42.254,7.349 42.223,7.682 43.167 C 7.850 43.646,8.153 44.385,8.354 44.810 M117.685 43.083 C 125.403 44.240,131.486 47.345,135.251 52.052 C 140.108 58.122,138.950 64.712,132.640 66.910 C 131.524 67.298,131.500 67.283,131.500 66.179 C 131.500 60.101,128.423 55.323,122.807 52.680 C 120.517 51.602,118.963 51.154,115.167 50.474 C 113.569 50.188,106.581 50.177,104.833 50.459 C 104.146 50.569,102.833 50.777,101.917 50.920 C 95.073 51.987,86.627 55.147,80.027 59.109 C 78.121 60.253,74.877 62.397,74.667 62.651 C 74.621 62.707,74.283 62.971,73.917 63.239 C 67.071 68.236,60.648 76.203,57.247 83.917 C 55.831 87.127,55.060 88.111,53.273 88.990 C 51.778 89.724,50.526 90.177,50.427 90.017 C 50.281 89.780,51.907 84.982,52.860 82.840 C 59.979 66.839,72.120 54.558,87.250 48.053 C 87.983 47.738,88.733 47.414,88.917 47.333 C 97.016 43.757,109.690 41.884,117.685 43.083 M348.917 50.664 C 358.622 51.461,362.214 56.561,362.241 69.583 C 362.265 81.124,359.450 86.563,352.583 88.249 C 351.942 88.407,351.317 88.565,351.196 88.601 C 351.074 88.637,351.453 88.915,352.038 89.220 C 354.454 90.480,361.500 97.192,361.500 98.235 C 361.500 98.289,360.416 98.333,359.091 98.333 L 356.681 98.333 355.417 96.745 C 351.225 91.479,347.920 89.259,343.874 88.990 C 332.565 88.238,328.833 83.459,328.833 69.731 C 328.833 58.072,331.750 52.793,339.150 51.059 C 340.457 50.753,344.902 50.356,346.083 50.440 C 346.542 50.473,347.817 50.573,348.917 50.664 M6.195 52.029 C 7.138 53.797,9.078 55.614,10.807 56.347 C 11.435 56.614,11.433 56.570,10.932 59.237 C 10.796 59.962,10.637 61.162,10.580 61.903 C 10.433 63.783,10.418 63.810,9.815 63.235 C 7.431 60.961,5.807 56.915,5.556 52.625 C 5.444 50.712,5.477 50.682,6.195 52.029 M173.123 51.470 C 173.282 51.570,173.340 53.370,173.373 59.175 L 173.417 66.750 183.083 66.750 L 192.750 66.750 192.833 59.083 L 192.917 51.417 194.708 51.369 L 196.500 51.322 196.500 69.833 L 196.500 88.345 194.708 88.297 L 192.917 88.250 192.874 79.292 L 192.830 70.333 183.082 70.333 L 173.333 70.333 173.333 79.247 L 173.333 88.160 172.958 88.254 C 172.752 88.306,171.908 88.326,171.083 88.299 L 169.583 88.250 169.540 70.000 C 169.517 59.962,169.533 51.656,169.577 51.542 C 169.667 51.306,172.766 51.243,173.123 51.470 M299.785 51.508 C 300.878 51.889,301.037 54.945,299.993 55.504 C 299.501 55.767,297.296 55.705,296.883 55.416 C 295.809 54.664,296.051 51.673,297.204 51.451 C 297.955 51.307,299.294 51.337,299.785 51.508 M385.821 51.568 C 385.928 51.697,386.193 52.353,386.411 53.026 C 386.628 53.699,387.268 55.563,387.833 57.167 C 388.397 58.771,388.922 60.271,388.999 60.500 C 389.208 61.125,390.537 64.826,391.333 67.000 C 391.719 68.054,392.175 69.304,392.347 69.777 C 392.886 71.261,396.674 81.047,396.915 81.578 C 397.041 81.856,397.492 82.943,397.916 83.993 C 398.341 85.043,398.866 86.289,399.082 86.762 C 399.793 88.318,399.867 88.243,397.549 88.297 C 395.025 88.355,395.611 89.278,391.729 79.124 L 390.917 76.997 381.928 77.040 L 372.939 77.083 372.615 78.000 C 371.999 79.748,370.042 85.589,369.657 86.833 C 369.181 88.372,369.247 88.328,367.389 88.331 C 365.163 88.334,365.247 88.487,366.115 86.031 C 366.525 84.868,366.924 83.729,366.999 83.500 C 367.263 82.704,368.313 79.740,368.919 78.083 C 369.254 77.167,369.700 75.929,369.910 75.333 C 370.119 74.737,370.532 73.612,370.827 72.833 C 371.122 72.054,371.701 70.517,372.113 69.417 C 373.379 66.040,373.926 64.636,376.431 58.333 C 377.506 55.629,378.596 52.948,378.853 52.375 L 379.319 51.333 382.473 51.333 C 384.981 51.333,385.666 51.381,385.821 51.568 M15.166 55.083 C 17.319 71.652,31.236 83.986,47.792 83.998 C 48.915 83.999,49.833 84.042,49.833 84.093 C 49.833 84.144,49.430 85.400,48.936 86.885 C 48.443 88.369,47.989 89.930,47.929 90.354 L 47.819 91.125 46.285 91.545 C 40.887 93.022,37.370 93.147,32.167 92.049 C 29.850 91.560,26.049 89.978,24.987 89.061 C 24.842 88.936,24.668 88.833,24.601 88.833 C 24.476 88.833,23.426 88.083,23.038 87.716 C 22.921 87.606,22.477 87.231,22.052 86.883 C 19.012 84.393,15.513 78.599,14.072 73.667 C 12.718 69.033,12.401 66.073,12.831 62.083 C 13.064 59.925,13.864 55.962,14.338 54.625 C 14.763 53.425,14.913 53.103,14.941 53.333 C 14.957 53.471,15.059 54.258,15.166 55.083 M340.917 54.086 C 335.497 55.090,333.647 58.001,333.088 66.409 C 332.693 72.351,333.311 78.022,334.651 80.744 C 336.329 84.153,339.695 85.673,345.541 85.664 C 354.623 85.649,357.532 82.622,358.156 72.537 C 358.808 62.018,356.857 56.195,352.147 54.596 C 349.890 53.830,343.792 53.553,340.917 54.086 M118.690 54.319 L 119.083 54.637 119.126 82.686 L 119.170 110.735 113.835 116.079 L 108.500 121.423 108.500 126.120 L 108.500 130.817 109.542 130.867 L 110.583 130.917 110.628 134.292 L 110.674 137.667 107.355 137.667 C 103.414 137.667,103.833 138.073,103.833 134.250 C 103.833 130.660,103.769 130.833,105.101 130.833 L 106.167 130.833 106.167 125.631 L 106.167 120.429 111.500 115.086 L 116.833 109.743 116.833 82.281 L 116.833 54.818 117.242 54.409 C 117.734 53.917,118.161 53.891,118.690 54.319 M109.268 54.582 C 110.464 55.178,111.169 56.288,111.165 57.567 C 111.162 58.655,109.926 60.500,109.200 60.500 C 108.852 60.500,108.833 61.664,108.831 83.889 L 108.828 106.750 103.664 111.897 L 98.500 117.045 98.500 128.414 L 98.500 139.783 99.175 140.087 C 102.898 141.766,101.547 147.667,97.439 147.667 C 93.173 147.667,91.829 141.491,95.769 139.993 L 96.167 139.842 96.167 128.010 L 96.167 116.179 101.417 110.913 L 106.667 105.647 106.667 83.189 L 106.667 60.731 105.907 60.195 C 102.587 57.855,105.632 52.770,109.268 54.582 M381.093 55.792 C 380.827 56.502,380.481 57.383,380.324 57.750 C 380.167 58.117,379.832 58.942,379.580 59.583 C 379.328 60.225,379.029 60.975,378.915 61.250 C 378.800 61.525,378.090 63.362,377.337 65.333 C 376.584 67.304,375.907 69.067,375.832 69.250 C 375.298 70.560,374.489 72.842,374.400 73.292 L 374.292 73.833 381.886 73.833 C 386.400 73.833,389.519 73.770,389.576 73.678 C 389.629 73.593,389.477 73.011,389.238 72.386 C 389.000 71.761,388.705 70.950,388.583 70.583 C 388.461 70.217,387.826 68.379,387.171 66.500 C 386.516 64.621,385.489 61.583,384.888 59.750 C 384.287 57.917,383.644 55.985,383.459 55.458 L 383.122 54.500 382.350 54.500 L 381.577 54.500 381.093 55.792 M313.000 57.967 C 313.000 60.311,313.058 61.325,313.200 61.467 C 313.346 61.613,314.690 61.667,318.206 61.667 L 323.013 61.667 322.965 63.208 L 322.917 64.750 317.942 64.794 L 312.967 64.838 313.044 73.294 C 313.125 82.164,313.139 82.329,313.903 83.808 C 314.806 85.553,317.846 86.157,321.498 85.316 C 322.336 85.123,323.054 84.999,323.095 85.040 C 323.254 85.199,323.846 87.727,323.770 87.924 C 323.473 88.698,316.068 89.286,314.250 88.680 C 312.248 88.013,311.218 87.183,310.532 85.686 C 309.660 83.780,309.629 83.408,309.548 73.796 L 309.473 64.843 307.195 64.796 L 304.917 64.750 304.869 63.213 L 304.821 61.676 307.119 61.630 L 309.417 61.583 309.457 59.083 C 309.507 56.019,309.526 55.929,310.206 55.663 C 311.273 55.245,311.920 54.970,312.167 54.829 C 312.980 54.364,313.000 54.438,313.000 57.967 M99.543 55.991 C 101.386 57.160,101.576 59.854,99.919 61.309 C 99.591 61.597,99.249 61.833,99.161 61.833 C 99.058 61.833,99.000 68.526,99.000 80.250 L 99.000 98.667 100.083 98.667 L 101.167 98.667 101.167 102.000 L 101.167 105.333 97.750 105.333 L 94.333 105.333 94.333 102.000 L 94.333 98.667 95.500 98.667 L 96.667 98.667 96.667 80.335 L 96.667 62.003 96.117 61.642 C 93.958 60.228,94.034 56.937,96.250 55.845 C 97.297 55.329,98.589 55.387,99.543 55.991 M88.167 58.494 L 88.583 58.814 88.628 72.628 L 88.672 86.442 89.329 86.811 C 92.981 88.863,91.679 94.326,87.536 94.332 C 83.357 94.338,81.860 88.881,85.492 86.878 L 86.329 86.417 86.331 72.701 L 86.333 58.985 86.742 58.576 C 87.232 58.086,87.607 58.065,88.167 58.494 M127.083 60.096 C 127.411 60.343,127.418 60.592,127.500 74.797 L 127.583 89.246 128.083 89.477 C 131.928 91.256,130.591 97.101,126.345 97.077 C 122.237 97.054,120.841 91.670,124.419 89.651 L 125.333 89.135 125.333 74.744 L 125.333 60.352 125.704 60.093 C 126.167 59.768,126.652 59.770,127.083 60.096 M219.526 61.074 C 223.961 62.014,225.748 64.100,226.816 69.583 C 227.129 71.195,227.244 75.015,226.983 75.180 C 226.855 75.262,222.536 75.329,217.378 75.331 L 208.006 75.333 208.081 76.042 C 208.122 76.431,208.195 77.332,208.242 78.043 C 208.709 84.977,213.225 87.120,222.652 84.881 C 223.606 84.654,224.475 84.435,224.581 84.394 C 224.816 84.304,225.583 87.317,225.377 87.523 C 225.035 87.865,220.654 88.739,218.193 88.957 C 210.182 89.666,205.948 86.697,204.471 79.333 C 204.174 77.850,204.174 71.592,204.472 70.250 C 205.515 65.544,206.785 63.534,209.595 62.142 C 212.062 60.919,216.530 60.439,219.526 61.074 M246.344 61.006 C 246.629 61.158,246.667 61.368,246.667 62.814 L 246.667 64.450 244.208 64.433 C 240.518 64.408,238.158 65.065,237.033 66.429 L 236.500 67.076 236.500 77.618 L 236.500 88.160 236.124 88.255 C 235.918 88.306,235.149 88.327,234.416 88.299 L 233.083 88.250 233.041 74.952 L 232.998 61.655 234.707 61.702 L 236.417 61.750 236.467 62.449 L 236.518 63.148 237.543 62.485 C 238.107 62.121,238.759 61.777,238.993 61.722 C 239.226 61.666,239.492 61.569,239.583 61.505 C 239.726 61.406,240.492 61.220,241.917 60.938 C 242.652 60.792,246.043 60.844,246.344 61.006 M266.326 61.230 C 266.826 61.372,267.697 61.716,268.263 61.994 C 269.479 62.592,269.449 62.591,270.833 62.154 C 271.429 61.966,272.217 61.749,272.583 61.673 C 272.950 61.596,273.887 61.396,274.667 61.229 C 278.829 60.332,284.301 60.977,286.278 62.597 C 288.893 64.740,289.191 66.447,289.130 78.917 L 289.083 88.250 287.751 88.299 C 287.018 88.327,286.253 88.307,286.051 88.257 L 285.684 88.165 285.626 78.791 C 285.558 67.733,285.495 67.293,283.728 65.572 C 282.182 64.067,277.361 63.706,273.083 64.776 C 272.533 64.914,271.915 65.067,271.708 65.116 C 271.352 65.201,271.248 65.376,271.331 65.750 C 271.351 65.842,271.467 66.296,271.590 66.760 C 272.102 68.700,272.178 70.464,272.131 79.333 L 272.083 88.250 270.751 88.299 C 270.018 88.327,269.249 88.306,269.042 88.255 L 268.667 88.160 268.667 79.487 C 268.667 71.177,268.575 69.158,268.141 67.917 C 267.200 65.228,265.884 64.380,262.391 64.211 C 259.911 64.092,255.809 64.624,255.302 65.132 C 255.229 65.205,255.150 70.436,255.126 76.757 L 255.083 88.250 253.500 88.250 L 251.917 88.250 251.874 75.542 C 251.850 68.552,251.852 62.833,251.876 62.833 C 251.901 62.833,252.333 62.682,252.836 62.496 C 254.142 62.015,256.543 61.406,258.000 61.188 C 258.688 61.085,259.438 60.969,259.667 60.929 C 260.637 60.763,265.446 60.980,266.326 61.230 M300.126 74.958 L 300.083 88.250 298.417 88.250 L 296.750 88.250 296.707 74.958 L 296.665 61.667 298.417 61.667 L 300.169 61.667 300.126 74.958 M78.948 64.029 L 79.333 64.391 79.333 79.488 L 79.333 94.585 84.667 99.917 L 90.000 105.248 90.003 115.666 C 90.004 121.395,90.060 126.158,90.128 126.250 C 90.195 126.342,90.513 126.559,90.833 126.732 C 93.826 128.352,93.657 132.564,90.545 133.941 C 85.993 135.954,82.785 129.598,86.962 126.841 L 87.833 126.266 87.833 116.264 L 87.833 106.262 82.417 100.836 L 77.000 95.410 77.000 79.872 C 77.000 64.556,77.005 64.329,77.333 64.000 C 77.770 63.564,78.466 63.576,78.948 64.029 M213.167 64.395 C 210.148 65.054,208.639 67.088,208.235 71.043 L 208.120 72.170 215.602 72.127 L 223.083 72.083 223.051 70.833 C 222.908 65.378,219.331 63.048,213.167 64.395 M69.076 71.604 C 69.836 71.895,69.833 71.838,69.833 86.086 L 69.833 99.523 74.583 104.272 L 79.333 109.021 79.333 113.010 L 79.333 117.000 80.313 117.000 C 81.701 117.000,81.682 116.946,81.629 120.605 L 81.583 123.750 78.167 123.750 L 74.750 123.750 74.705 120.605 C 74.652 116.962,74.625 117.034,76.056 116.966 L 77.083 116.917 77.128 113.500 L 77.172 110.083 72.336 105.251 L 67.500 100.419 67.500 86.299 L 67.500 72.180 67.865 71.840 C 68.239 71.492,68.600 71.421,69.076 71.604 M61.188 83.275 C 61.371 83.497,61.433 85.035,61.500 91.067 L 61.583 98.583 62.625 98.633 L 63.667 98.683 63.667 102.008 L 63.667 105.333 60.333 105.333 L 57.000 105.333 57.000 102.008 L 57.000 98.682 58.125 98.633 L 59.250 98.583 59.293 91.095 C 59.332 84.418,59.367 83.573,59.611 83.303 C 59.955 82.922,60.881 82.906,61.188 83.275 M86.899 88.738 C 84.885 89.615,85.726 92.525,87.863 92.073 C 89.501 91.727,89.644 89.391,88.067 88.732 C 87.414 88.460,87.541 88.459,86.899 88.738 M125.833 91.451 C 124.242 92.030,124.294 94.298,125.911 94.831 C 126.803 95.126,127.909 94.407,128.096 93.410 C 128.323 92.200,126.977 91.034,125.833 91.451 M87.974 128.876 C 86.998 129.701,86.947 130.812,87.852 131.573 C 88.571 132.178,89.464 132.156,90.149 131.516 C 91.713 130.056,89.605 127.497,87.974 128.876 M96.730 142.069 C 95.578 142.579,95.300 143.918,96.150 144.869 C 97.028 145.852,98.714 145.452,99.043 144.182 C 99.418 142.734,98.050 141.485,96.730 142.069 " stroke="none" fill="none" fill-rule="evenodd"></path></g></svg>