<svg width="120" height="36" viewBox="0 0 120 36" fill="none" xmlns="http://www.w3.org/2000/svg">
<g clip-path="url(#clip0)">
<path d="M17.3167 13.56C17.3167 15.6 15.6507 17.28 13.6277 17.28C11.6047 17.28 9.93866 15.6 9.93866 13.56C9.93866 11.52 11.6047 9.84 13.6277 9.84C15.6507 9.84 17.3167 11.52 17.3167 13.56ZM13.6277 18.72C11.6047 18.72 9.93866 20.4 9.93866 22.44C9.93866 24.48 11.6047 26.16 13.6277 26.16C15.6507 26.16 17.3167 24.48 17.3167 22.44C17.3167 20.4 15.6507 18.72 13.6277 18.72ZM35.8807 18C35.8807 27.96 27.9077 36 18.0307 36C8.15366 36 0.180664 27.96 0.180664 18C0.180664 8.04 8.15366 0 18.0307 0C27.9077 0 35.8807 8.04 35.8807 18ZM31.1207 18C31.1207 10.68 25.2897 4.8 18.0307 4.8C10.7717 4.8 4.94066 10.68 4.94066 18C4.94066 25.32 10.7717 31.2 18.0307 31.2C25.2897 31.2 31.1207 25.32 31.1207 18ZM22.4337 18.72C20.4107 18.72 18.7447 20.4 18.7447 22.44C18.7447 24.48 20.4107 26.16 22.4337 26.16C24.4567 26.16 26.1227 24.48 26.1227 22.44C26.1227 20.4 24.4567 18.72 22.4337 18.72ZM22.4337 9.84C20.4107 9.84 18.7447 11.52 18.7447 13.56C18.7447 15.6 20.4107 17.28 22.4337 17.28C24.4567 17.28 26.1227 15.6 26.1227 13.56C26.1227 11.52 24.4567 9.84 22.4337 9.84ZM83.8377 7.08C83.9567 7.08 84.0757 7.2 84.1947 7.32V11.16C84.1947 11.4 83.9567 11.52 83.8377 11.52H77.5307C77.2927 11.52 77.1737 11.28 77.1737 11.16V7.44C77.1737 7.2 77.4117 7.08 77.5307 7.08H83.8377ZM83.7187 12.48H71.5807C71.4617 12.48 71.2237 12.6 71.2237 12.84L69.6767 18.84L69.5577 19.2L67.6537 12.84C67.6537 12.72 67.4157 12.48 67.2967 12.48H62.5367C62.4177 12.48 62.1797 12.6 62.1797 12.84L60.3947 18.84L60.2757 19.2L60.1567 18.84L59.4427 15.84L58.7287 12.84C58.7287 12.72 58.4907 12.48 58.3717 12.48H48.8517V7.32C48.8517 7.2 48.6137 6.96 48.3757 7.08L42.4257 9C42.1877 9 42.0687 9.12 42.0687 9.36V12.6H40.5217C40.4027 12.6 40.1647 12.72 40.1647 12.96V17.52C40.1647 17.64 40.2837 17.88 40.5217 17.88H42.0687V23.52C42.0687 27.48 44.2107 29.28 48.1377 29.28C49.8037 29.28 51.3507 28.92 52.4217 28.32V23.52C52.4217 23.28 52.1837 23.16 52.0647 23.28C51.4697 23.52 50.8747 23.64 50.3987 23.64C49.3277 23.64 48.7327 23.16 48.7327 21.96V17.88H52.1837C52.3027 17.88 52.5407 17.76 52.5407 17.52V13.68L57.0627 28.8C57.0627 28.92 57.3007 29.16 57.4197 29.16H62.4177C62.5367 29.16 62.7747 29.04 62.7747 28.8L64.9167 22.08L65.9877 25.56L66.9397 28.8C66.9397 28.92 67.1777 29.16 67.2967 29.16H72.2947C72.4137 29.16 72.6517 29.04 72.6517 28.8L77.1737 13.68V28.8C77.1737 28.92 77.2927 29.16 77.5307 29.16H83.5997C83.7187 29.16 83.9567 29.04 83.9567 28.8V12.84C83.9567 12.72 83.8377 12.48 83.7187 12.48ZM91.6917 7.08H85.6227C85.5037 7.08 85.2657 7.2 85.2657 7.44V28.68C85.2657 28.8 85.3847 29.04 85.6227 29.04H91.6917C91.8107 29.04 92.0487 28.92 92.0487 28.68V7.32C92.0487 7.2 91.9297 7.08 91.6917 7.08ZM99.7837 7.08H93.4767C93.3577 7.08 93.1197 7.2 93.1197 7.44V11.16C93.1197 11.28 93.2387 11.52 93.4767 11.52H99.7837C99.9027 11.52 100.141 11.4 100.141 11.16V7.32C100.141 7.2 100.022 7.08 99.7837 7.08ZM99.6647 12.48H93.5957C93.4767 12.48 93.2387 12.6 93.2387 12.84V28.56C93.2387 28.68 93.3577 28.92 93.5957 28.92H99.6647C99.7837 28.92 100.022 28.8 100.022 28.56V12.84C100.022 12.72 99.9027 12.48 99.6647 12.48ZM118.824 20.64C118.824 25.2 115.016 29.16 109.661 29.16C104.425 29.16 100.617 25.2 100.617 20.64C100.617 16.08 104.425 12.12 109.78 12.12C115.016 12.12 118.824 16.08 118.824 20.64ZM112.398 20.76C112.398 19.08 111.208 17.76 109.78 17.88C108.233 17.88 107.162 19.2 107.162 20.76C107.162 22.32 108.352 23.64 109.78 23.64C111.327 23.64 112.398 22.32 112.398 20.76Z" fill="white"/>
</g>
<defs>
<clipPath id="clip0">
<rect x="0.180664" width="119" height="36" fill="white"/>
</clipPath>
</defs>
</svg>
