<svg width="15" height="13" viewBox="0 0 15 13" fill="none" xmlns="http://www.w3.org/2000/svg">
<path d="M13.7909 4.51714L9.65548 3.94058L7.80683 0.345269C7.75633 0.246832 7.67327 0.167144 7.57066 0.118707C7.31331 -0.00316805 7.00059 0.0983945 6.87191 0.345269L5.02326 3.94058L0.887825 4.51714C0.773812 4.53277 0.669571 4.58433 0.589761 4.66246C0.493276 4.75759 0.440108 4.88558 0.44194 5.0183C0.443773 5.15103 0.500456 5.27762 0.599534 5.37027L3.59158 8.16871L2.88469 12.1203C2.86812 12.2122 2.87872 12.3067 2.9153 12.3932C2.95188 12.4796 3.01298 12.5545 3.09166 12.6093C3.17034 12.6641 3.26346 12.6967 3.36046 12.7033C3.45745 12.71 3.55445 12.6904 3.64044 12.6468L7.33937 10.7812L11.0383 12.6468C11.1393 12.6984 11.2566 12.7156 11.3689 12.6968C11.6523 12.65 11.8429 12.3921 11.794 12.1203L11.0872 8.16871L14.0792 5.37027C14.1606 5.29371 14.2144 5.19371 14.2307 5.08433C14.2747 4.81089 14.0759 4.55777 13.7909 4.51714ZM9.82813 7.77496L10.4161 11.0609L7.33937 9.51089L4.26263 11.0625L4.85062 7.77652L2.36186 5.44839L5.80181 4.96871L7.33937 1.97964L8.87693 4.96871L12.3169 5.44839L9.82813 7.77496Z" fill="#FF7B02"/>
</svg>
