<svg xmlns="http://www.w3.org/2000/svg" viewBox="0 0 223.1 152.06"><defs><style>.cls-1{fill:#0921ea;}</style></defs><g id="Layer_2" data-name="Layer 2"><g id="Layer_1-2" data-name="Layer 1"><path class="cls-1" d="M222.8,35H210.91V2.25A2.25,2.25,0,0,0,208.66,0h-14V4.3h12V35h-12v4.3H222.8Z"/><path class="cls-1" d="M61.25,70.39A2.25,2.25,0,0,0,59,68.14H44.56v4.3H57V92.72H44.56V97H72.73V92.72H61.25Z"/><path class="cls-1" d="M128.18,92.88a4.54,4.54,0,0,0,4.45,4.33A4.4,4.4,0,0,0,137,92.87a4.3,4.3,0,0,0-4.35-4.35A4.41,4.41,0,0,0,128.18,92.88Z"/><path class="cls-1" d="M205.47,108.43a4.61,4.61,0,0,0-1.45,3.21v0a4.53,4.53,0,0,0,4.55,4.34,4.26,4.26,0,0,0,3-1.4,4.34,4.34,0,0,0-3-7.3A4.34,4.34,0,0,0,205.47,108.43Z"/><path class="cls-1" d="M55.3,54.26a4.49,4.49,0,0,0-1.45,3.15,4.63,4.63,0,0,0,4.46,4.44,4.28,4.28,0,0,0,3-1.4,4.37,4.37,0,0,0,1.15-3.16h0a4.38,4.38,0,0,0-4.13-4.14A4.18,4.18,0,0,0,55.3,54.26Z"/><path class="cls-1" d="M123,31.32c0,8.11,6.46,8.74,8.44,8.74,4.11,0,7.25-3,10.84-7V37a2.25,2.25,0,0,0,2.25,2.25h7.34V34.86l-5.19.1-.2-24.57h-4.3V27c-1.08,1.09-2,2.08-2.73,2.93l-.32.34c-3.4,3.6-5.28,5.58-7.79,5.58s-4-1.58-4-4.45V12.64A2.25,2.25,0,0,0,125,10.39h-6.75v4.4H123Z"/><path class="cls-1" d="M135.58,124.54a2.25,2.25,0,0,0-2.25-2.25H118.89v4.3h12.39v20.28H118.89v4.3h28.18v-4.3H135.58Z"/><path class="cls-1" d="M186.78,145.38s-1.66,2.39-3.69,2.39c-1.13,0-2.19-.64-4.29-3.89l-6.87-10.1,8.55-7h7.35v-4.5H170.55v4.3h3.15L163.45,135V114.25a2.25,2.25,0,0,0-2.24-2.25h-9.45v4.3h7.4v30.57h-7.4v4.3h17.89v-4.3h-6.2v-6.23l5.09-4.14,7.14,10.65c1.56,2.43,3.64,4.91,7.33,4.91h0a8,8,0,0,0,5.65-3.07l.33-.33L187,145Z"/><path class="cls-1" d="M211.51,147V124.54a2.25,2.25,0,0,0-2.25-2.25H194.82v4.3h12.39v20.28H194.82v4.3H223.1v-4.3Z"/><path class="cls-1" d="M22.57,60.22h0a3.6,3.6,0,0,0-3.42-2.39A48.51,48.51,0,0,1,8.47,57h-.4l-.9,4,.24,0a46.67,46.67,0,0,0,7.73,1L3.57,92.72H0V97H13.29V92.72H8.1l3.12-8.59H26.05L29,92.72H23.88V97H37.17V92.72H33.6ZM12.8,79.83,18.93,63l5.75,16.88Z"/><path class="cls-1" d="M18.73,21.77,9.87.16,9.81,0H.2V4.3h4V35H.3v4.3H11.89V35H8.49V7.05L15.4,24.42a3.45,3.45,0,0,0,3.23,2.06h.2a3.54,3.54,0,0,0,3.23-2.16L29,7V35H25.58v4.3H37.17V35h-3.9V4.3h4V0H27.56Z"/><path class="cls-1" d="M189.23,32h0c-2.88,2.55-4.82,3.74-5.23,3.74s-.44,0-.44-1.35V20.13c0-7-4.41-10.64-12.74-10.64S158.14,14,157.37,16.77l0,.07v0a.67.67,0,0,0-.07.27,1.06,1.06,0,0,1-.07.48l0,.06v.07a3.79,3.79,0,0,0,3.75,3.63,3.6,3.6,0,0,0,3.64-3.55,3.9,3.9,0,0,0-1.18-2.69c1-.8,3.71-1.55,7.43-1.55,5.44,0,8.44,2.32,8.44,6.54V21a45.2,45.2,0,0,1-8,2c-8.93,1.83-12.11,3.85-12.59,8a7.45,7.45,0,0,0,1.78,6c1.79,2,4.65,3.09,8.06,3.09,4,0,6.75-2.07,10.76-5.24.29,4.32,2.76,5.24,4.82,5.24s4.75-2.54,6.78-4.66l.2-.21-1.15-3.68Zm-10.09-2.51-1.1.93c-4.39,3.75-6.59,5.63-9.54,5.63-2.18,0-3.83-.55-4.77-1.57a3.83,3.83,0,0,1-.88-3c.26-1.78,3-3.09,9-4.39a49.52,49.52,0,0,0,7.3-2Z"/><path class="cls-1" d="M91,67.34c-8,0-13.84,6.41-13.84,15.24S83,97.91,91,97.91a14.16,14.16,0,0,0,10.47-5.38c.33,4.43,2.77,5.38,4.81,5.38,2.3,0,5.11-2.74,6.58-4.37l.2-.2-1.47-4.76L109,91.42c-.79,1-2.18,2.2-2.8,2.2-.29,0-.54,0-.54-1.35l.1-32.17a2.25,2.25,0,0,0-2.25-2.25H94.71v4.3h6.7V72.58A14.06,14.06,0,0,0,91,67.34Zm10.34,18.87-.06.12-.14.16c-3.39,3.88-6.32,7.23-10.14,7.23a9.13,9.13,0,0,1-6.5-2.61,12,12,0,0,1-3-8.53c.09-6.44,4-10.94,9.54-10.94,3.93,0,6.66,3.14,9.83,6.78l.35.4.16.32Z"/><path class="cls-1" d="M111.81,26.72l0,0c-.54.49-1.07.94-1.6,1.38L109,29.17h-.1l-.47.41c-4.31,3.65-7.42,6.29-10.53,6.29-4.88,0-5.74-3.34-5.74-10.34V14.79H109.4v-4.4H88.61C90.1,9.07,92.08,6.71,92.08.25V0H87.75V.25a17.54,17.54,0,0,1-.59,4.94c-.69,2.33-2.2,5-7.84,5.2H78.8l-.25,0v4.37h9.17V26.63c0,4.39,0,13.54,10.14,13.54,4.65,0,8.47-3.22,13.31-7.28l.44-.38c.3-.24.62-.51.94-.79l.91-.77.39-.2-1.47-4.41Z"/><path class="cls-1" d="M102.41,116.3h4.85L102.9,145l-5.4-25.51a3.63,3.63,0,0,0-2.06-2.15,3.29,3.29,0,0,0-2.53.21,3.14,3.14,0,0,0-1.59,1.87L85.93,145,81.57,116.3h4.85V112h-11v4.3h2l5.26,34.42v.54h6l5.6-27,5.55,26.8,0,.19h6.11l5.29-35h2V112h-11Z"/><path class="cls-1" d="M46.66,31.32c0,8.11,6.46,8.74,8.44,8.74,4.11,0,7.25-3,10.84-7V37a2.25,2.25,0,0,0,2.25,2.25h7.34V34.86l-5.2.1-.19-24.57h-4.3V27c-1.08,1.09-2,2.08-2.73,2.93l-.32.34c-3.4,3.6-5.28,5.58-7.79,5.58s-4-1.58-4-4.45V12.64a2.24,2.24,0,0,0-2.24-2.25H42v4.4h4.7Z"/></g></g></svg>