<svg id="svg" version="1.1" xmlns="http://www.w3.org/2000/svg" xmlns:xlink="http://www.w3.org/1999/xlink" width="150" height="auto" viewBox="-35, 100, 375, 200"><g id="svgg"><path id="path0" d="M67.000 146.500 L 67.000 162.500 69.750 162.500 L 72.500 162.500 72.502 154.875 C 72.504 144.955,74.052 142.242,79.162 143.200 C 82.949 143.911,83.944 146.633,83.978 156.375 L 84.000 162.500 86.500 162.500 L 89.000 162.500 88.989 154.125 C 88.977 145.052,88.517 143.020,85.941 140.658 C 82.679 137.668,76.903 137.664,73.625 140.650 L 72.500 141.674 72.500 136.087 L 72.500 130.500 69.750 130.500 L 67.000 130.500 67.000 146.500 M41.500 134.750 L 41.500 137.000 45.500 137.000 L 49.500 137.000 49.500 149.750 L 49.500 162.500 52.000 162.500 L 54.500 162.500 54.500 149.750 L 54.500 137.000 58.500 137.000 L 62.500 137.000 62.500 134.750 L 62.500 132.500 52.000 132.500 L 41.500 132.500 41.500 134.750 M99.722 139.443 C 90.871 143.463,90.871 158.037,99.722 162.057 C 105.530 164.695,114.312 161.598,115.661 156.437 C 116.117 154.694,110.813 155.121,108.674 157.000 C 105.144 160.099,98.500 157.334,98.500 152.766 C 98.500 152.620,102.550 152.500,107.500 152.500 L 116.500 152.500 116.500 149.480 C 116.500 141.138,107.648 135.843,99.722 139.443 M107.821 143.817 C 109.509 144.618,111.000 146.686,111.000 148.225 C 111.000 148.883,110.066 149.000,104.797 149.000 C 98.613 149.000,98.594 148.997,98.879 147.875 C 99.926 143.746,103.886 141.950,107.821 143.817 M275.246 180.191 C 274.610 180.656,274.300 181.496,274.300 182.750 C 274.300 185.826,277.794 187.206,280.000 185.000 C 282.917 182.083,278.613 177.729,275.246 180.191 M43.000 197.500 L 43.000 212.500 45.750 212.500 L 48.500 212.500 48.500 206.500 L 48.500 200.500 52.875 200.489 C 60.139 200.471,63.450 198.130,63.900 192.694 C 64.523 185.181,60.647 182.500,49.159 182.500 L 43.000 182.500 43.000 197.500 M57.549 188.436 C 60.595 192.198,57.969 196.131,52.218 196.422 L 48.500 196.609 48.500 191.752 L 48.500 186.894 52.549 187.078 C 56.074 187.238,56.721 187.414,57.549 188.436 M68.500 200.500 L 68.500 212.500 70.947 212.500 L 73.393 212.500 73.588 204.875 C 73.827 195.513,74.583 194.000,79.024 194.000 C 80.480 194.000,80.500 193.962,80.500 191.250 C 80.500 188.790,80.389 188.500,79.451 188.500 C 77.932 188.500,75.084 189.961,74.233 191.176 C 73.533 192.175,73.500 192.139,73.500 190.361 L 73.500 188.500 71.000 188.500 L 68.500 188.500 68.500 200.500 M89.468 189.875 C 84.576 192.356,82.149 197.906,83.437 203.664 C 86.634 217.947,107.514 215.368,107.497 200.692 C 107.486 191.057,98.165 185.465,89.468 189.875 M116.715 189.446 C 106.752 193.972,109.210 211.850,119.937 212.881 C 123.537 213.227,125.775 212.667,127.761 210.924 L 129.500 209.396 129.500 211.964 C 129.500 216.883,127.321 219.500,123.225 219.500 C 120.846 219.500,118.045 218.146,117.373 216.671 C 116.908 215.651,116.487 215.500,114.107 215.500 L 111.375 215.500 111.692 217.083 C 113.375 225.498,128.446 227.022,133.246 219.263 L 134.750 216.831 134.904 202.666 L 135.057 188.500 132.279 188.500 L 129.500 188.500 129.500 190.250 L 129.500 192.000 128.456 190.956 C 125.938 188.438,120.479 187.737,116.715 189.446 M141.000 200.500 L 141.000 212.500 143.447 212.500 L 145.893 212.500 146.088 204.875 C 146.327 195.513,147.083 194.000,151.524 194.000 C 152.980 194.000,153.000 193.962,153.000 191.250 C 153.000 188.790,152.889 188.500,151.951 188.500 C 150.432 188.500,147.584 189.961,146.733 191.176 C 146.033 192.175,146.000 192.139,146.000 190.361 L 146.000 188.500 143.500 188.500 L 141.000 188.500 141.000 200.500 M162.222 189.416 C 153.200 193.634,153.450 208.398,162.609 212.223 C 166.529 213.861,172.242 212.715,174.217 209.895 C 174.988 208.795,175.000 208.807,175.000 210.639 L 175.000 212.500 177.500 212.500 L 180.000 212.500 180.000 200.500 L 180.000 188.500 177.500 188.500 L 175.000 188.500 175.000 190.274 L 175.000 192.047 172.967 190.413 C 170.361 188.319,165.529 187.871,162.222 189.416 M186.333 188.833 C 186.150 189.017,186.000 194.417,186.000 200.833 L 186.000 212.500 188.750 212.500 L 191.500 212.500 191.500 205.201 C 191.500 195.206,193.164 192.263,198.275 193.222 C 202.193 193.957,203.000 196.107,203.000 205.813 L 203.000 212.500 205.500 212.500 L 208.000 212.500 208.000 205.872 C 208.000 194.868,210.412 191.279,216.187 193.692 C 219.006 194.869,219.500 196.591,219.500 205.234 L 219.500 212.500 222.250 212.500 L 225.000 212.500 224.988 205.125 C 224.974 197.101,224.513 194.124,222.939 191.914 C 219.885 187.625,211.941 187.315,208.212 191.338 L 206.925 192.727 206.088 191.660 C 203.121 187.883,196.124 187.342,192.625 190.620 L 191.500 191.674 191.500 190.087 C 191.500 188.534,187.583 187.584,186.333 188.833 M230.500 200.474 L 230.500 212.500 233.250 212.500 L 236.000 212.500 236.000 204.462 L 236.000 196.423 237.436 194.987 C 239.906 192.517,242.687 192.420,245.351 194.709 L 246.750 195.911 246.909 204.206 L 247.067 212.500 249.784 212.500 L 252.500 212.500 252.502 204.875 C 252.504 194.922,254.046 192.241,259.212 193.210 C 262.902 193.902,263.500 195.481,263.500 204.538 L 263.500 212.500 266.250 212.500 L 269.000 212.500 269.000 204.325 C 269.000 195.518,268.640 193.604,266.557 191.313 C 263.021 187.426,255.227 187.610,252.177 191.653 L 251.303 192.811 249.877 191.186 C 247.260 188.205,240.945 187.547,237.628 189.909 L 236.072 191.017 235.911 189.883 C 235.770 188.893,235.418 188.731,233.125 188.599 L 230.500 188.448 230.500 200.474 M275.000 200.500 L 275.000 212.500 277.500 212.500 L 280.000 212.500 280.000 200.500 L 280.000 188.500 277.500 188.500 L 275.000 188.500 275.000 200.500 M286.000 200.500 L 286.000 212.500 288.750 212.500 L 291.500 212.500 291.502 204.875 C 291.504 194.955,293.052 192.242,298.162 193.200 C 301.949 193.911,302.944 196.633,302.978 206.375 L 303.000 212.500 305.500 212.500 L 308.000 212.500 307.989 204.125 C 307.977 195.052,307.517 193.020,304.941 190.658 C 301.679 187.668,295.903 187.664,292.625 190.650 L 291.500 191.674 291.500 190.087 L 291.500 188.500 288.750 188.500 L 286.000 188.500 286.000 200.500 M318.750 189.448 C 309.832 193.577,310.170 208.809,319.256 212.279 C 322.736 213.608,326.949 213.110,329.487 211.070 L 331.500 209.453 331.500 211.742 C 331.500 219.260,322.353 222.765,319.014 216.527 C 318.199 215.004,313.500 215.002,313.500 216.525 C 313.500 223.987,327.481 227.151,333.566 221.066 C 336.770 217.862,337.051 216.167,336.884 201.000 L 336.750 188.750 334.125 188.599 L 331.500 188.448 331.500 190.317 L 331.500 192.187 330.125 190.875 C 327.454 188.327,322.511 187.707,318.750 189.448 M99.913 195.179 C 102.220 197.486,102.756 202.132,101.032 204.880 C 96.616 211.916,87.463 207.660,88.737 199.163 C 89.615 193.308,95.827 191.093,99.913 195.179 M126.488 194.397 C 133.259 199.353,127.557 211.306,120.153 207.677 C 112.962 204.151,115.732 192.156,123.488 193.233 C 124.444 193.365,125.794 193.890,126.488 194.397 M170.977 194.047 C 173.487 195.458,174.710 197.654,174.710 200.750 C 174.710 208.958,164.604 211.293,161.724 203.751 C 159.154 197.022,165.126 190.759,170.977 194.047 M328.420 194.443 C 331.161 196.395,332.121 200.428,330.693 203.996 C 327.810 211.203,317.939 208.825,317.824 200.897 C 317.733 194.587,323.602 191.012,328.420 194.443 M221.500 230.500 C 219.430 232.570,220.829 236.000,223.743 236.000 C 225.871 236.000,227.000 234.888,227.000 232.792 C 227.000 229.787,223.621 228.379,221.500 230.500 M165.000 235.985 L 165.000 241.470 163.162 240.222 C 153.893 233.933,142.936 244.018,146.706 255.369 C 149.148 262.720,158.865 265.635,163.956 260.544 L 165.000 259.500 165.000 261.000 C 165.000 262.485,165.028 262.500,167.750 262.500 L 170.500 262.500 170.500 246.500 L 170.500 230.500 167.750 230.500 L 165.000 230.500 165.000 235.985 M43.000 247.500 L 43.000 262.500 45.750 262.500 L 48.500 262.500 48.500 256.000 L 48.500 249.500 53.250 249.500 L 58.000 249.500 58.000 247.500 L 58.000 245.500 53.250 245.500 L 48.500 245.500 48.500 241.250 L 48.500 237.000 54.750 237.000 L 61.000 237.000 61.000 234.750 L 61.000 232.500 52.000 232.500 L 43.000 232.500 43.000 247.500 M206.000 235.750 C 206.000 238.350,205.932 238.500,204.750 238.500 C 203.602 238.500,203.500 238.683,203.500 240.750 C 203.500 242.817,203.602 243.000,204.750 243.000 L 206.000 243.000 206.001 250.375 C 206.002 260.964,206.954 262.478,213.625 262.493 L 217.000 262.500 217.000 260.250 L 217.000 258.000 214.553 258.000 C 211.473 258.000,211.500 258.074,211.500 249.709 L 211.500 243.000 214.250 243.000 L 217.000 243.000 217.000 240.750 L 217.000 238.500 214.250 238.500 L 211.500 238.500 211.500 235.750 L 211.500 233.000 208.750 233.000 L 206.000 233.000 206.000 235.750 M70.250 239.433 C 61.417 243.456,61.043 257.442,69.655 261.733 C 79.406 266.593,89.739 258.536,87.512 247.809 C 85.973 240.393,77.340 236.204,70.250 239.433 M92.011 247.099 C 92.023 256.471,92.465 258.464,95.059 260.842 C 98.418 263.921,105.959 263.615,108.117 260.312 C 108.322 260.000,108.488 260.360,108.492 261.125 C 108.500 262.457,108.585 262.500,111.250 262.500 L 114.000 262.500 114.000 250.500 L 114.000 238.500 111.250 238.500 L 108.500 238.500 108.500 246.217 C 108.500 256.514,107.266 258.922,102.299 258.314 C 98.271 257.820,97.786 256.690,97.500 247.115 L 97.250 238.750 94.625 238.599 L 92.000 238.448 92.011 247.099 M120.000 250.500 L 120.000 262.500 122.500 262.500 L 125.000 262.500 125.000 255.872 C 125.000 244.868,127.412 241.279,133.187 243.692 C 136.006 244.869,136.500 246.591,136.500 255.234 L 136.500 262.500 139.250 262.500 L 142.000 262.500 141.988 255.125 C 141.974 247.101,141.513 244.124,139.939 241.914 C 137.128 237.967,129.700 237.271,126.125 240.620 L 125.000 241.674 125.000 240.087 C 125.000 238.516,124.975 238.500,122.500 238.500 L 120.000 238.500 120.000 250.500 M181.215 239.446 C 171.252 243.972,173.710 261.850,184.437 262.881 C 188.037 263.227,190.275 262.667,192.261 260.924 L 194.000 259.396 194.000 260.948 C 194.000 262.496,194.007 262.500,196.750 262.500 L 199.500 262.500 199.500 250.500 L 199.500 238.500 196.750 238.500 L 194.000 238.500 194.000 240.250 L 194.000 242.000 192.956 240.956 C 190.438 238.438,184.979 237.737,181.215 239.446 M221.333 238.833 C 221.150 239.017,221.000 244.417,221.000 250.833 L 221.000 262.500 223.750 262.500 L 226.500 262.500 226.500 250.500 L 226.500 238.500 224.083 238.500 C 222.754 238.500,221.517 238.650,221.333 238.833 M237.750 239.433 C 228.917 243.456,228.543 257.442,237.155 261.733 C 246.906 266.593,257.239 258.536,255.012 247.809 C 253.473 240.393,244.840 236.204,237.750 239.433 M259.833 238.833 C 259.650 239.017,259.500 244.417,259.500 250.833 L 259.500 262.500 262.250 262.500 L 265.000 262.500 265.000 255.201 C 265.000 245.206,266.664 242.263,271.775 243.222 C 275.693 243.957,276.500 246.107,276.500 255.813 L 276.500 262.500 279.000 262.500 L 281.500 262.500 281.500 253.908 C 281.500 246.206,281.391 245.091,280.452 243.151 C 278.042 238.173,270.214 236.790,266.125 240.620 L 265.000 241.674 265.000 240.087 C 265.000 238.534,261.083 237.584,259.833 238.833 M78.851 243.980 C 83.348 246.722,83.348 254.778,78.851 257.520 C 74.110 260.411,69.000 256.881,69.000 250.717 C 69.000 244.671,74.177 241.130,78.851 243.980 M161.827 244.254 C 165.044 246.363,166.064 251.755,163.868 255.051 C 159.534 261.559,150.732 257.660,151.637 249.634 C 152.236 244.315,157.599 241.484,161.827 244.254 M190.988 244.397 C 197.759 249.353,192.057 261.306,184.653 257.677 C 177.462 254.151,180.232 242.156,187.988 243.233 C 188.944 243.365,190.294 243.890,190.988 244.397 M246.351 243.980 C 250.848 246.722,250.848 254.778,246.351 257.520 C 241.610 260.411,236.500 256.881,236.500 250.717 C 236.500 244.671,241.677 241.130,246.351 243.980 " stroke="none" fill="#FFF" fill-rule="evenodd"></path></g></svg>