<svg width="16" height="16" viewBox="0 0 16 16" fill="none" xmlns="http://www.w3.org/2000/svg">
<path d="M14.875 7.40625H12.9656C12.6953 5.11875 10.8813 3.30469 8.59375 3.03437V1.125C8.59375 1.05625 8.5375 1 8.46875 1H7.53125C7.4625 1 7.40625 1.05625 7.40625 1.125V3.03437C5.11875 3.30469 3.30469 5.11875 3.03437 7.40625H1.125C1.05625 7.40625 1 7.4625 1 7.53125V8.46875C1 8.5375 1.05625 8.59375 1.125 8.59375H3.03437C3.30469 10.8813 5.11875 12.6953 7.40625 12.9656V14.875C7.40625 14.9438 7.4625 15 7.53125 15H8.46875C8.5375 15 8.59375 14.9438 8.59375 14.875V12.9656C10.8813 12.6953 12.6953 10.8813 12.9656 8.59375H14.875C14.9438 8.59375 15 8.5375 15 8.46875V7.53125C15 7.4625 14.9438 7.40625 14.875 7.40625ZM8 11.8125C5.89375 11.8125 4.1875 10.1062 4.1875 8C4.1875 5.89375 5.89375 4.1875 8 4.1875C10.1062 4.1875 11.8125 5.89375 11.8125 8C11.8125 10.1062 10.1062 11.8125 8 11.8125Z" fill="black"/>
<path d="M8 6.125C7.49844 6.125 7.02969 6.31875 6.675 6.675C6.32031 7.02969 6.125 7.49844 6.125 8C6.125 8.50156 6.32031 8.97031 6.675 9.325C7.02969 9.67812 7.5 9.875 8 9.875C8.5 9.875 8.97031 9.67969 9.325 9.325C9.67812 8.97031 9.875 8.5 9.875 8C9.875 7.5 9.67969 7.02969 9.325 6.675C8.97031 6.31875 8.50156 6.125 8 6.125Z" fill="black"/>
</svg>
