<svg width="878" height="230" viewBox="0 0 878 230" fill="none" xmlns="http://www.w3.org/2000/svg">
<path d="M307.89 76.7132C314.515 76.7132 319.939 78.2786 324.162 81.4093C328.458 84.54 330.606 88.8357 330.606 94.2962C330.606 99.1743 329.295 103.324 326.674 106.746C324.126 110.168 320.959 112.243 317.173 112.971V113.517C320.667 114.901 323.543 117.303 325.8 120.725C328.057 124.147 329.186 128.261 329.186 133.066C329.186 137.071 329.404 140.092 329.841 142.131C330.278 144.169 330.861 145.589 331.589 146.39C332.317 147.191 333.372 147.81 334.756 148.247V151.305C333.154 151.96 331.443 152.288 329.623 152.288C326.128 152.288 323.398 151.268 321.432 149.23C319.466 147.118 318.483 143.187 318.483 137.435C318.483 131.537 317.246 126.95 314.77 123.674C312.367 120.325 309.346 118.65 305.706 118.65H286.703V151.632H276V76.7132H307.89ZM286.703 86.433V108.931H307.999C311.13 108.931 313.896 107.875 316.299 105.763C318.702 103.652 319.903 101.031 319.903 97.9002V97.4634C319.903 94.2598 318.811 91.6388 316.627 89.6001C314.442 87.4887 311.567 86.433 307.999 86.433H286.703Z" fill="#250031"/>
<path d="M369.929 94.7331C374.516 94.7331 378.556 95.716 382.051 97.6818C385.619 99.5748 388.385 102.305 390.351 105.873C392.317 109.44 393.3 113.59 393.3 118.323V126.077H354.311C354.457 131.974 355.84 136.525 358.461 139.728C361.083 142.932 364.978 144.534 370.147 144.534C374.734 144.534 378.12 143.187 380.304 140.493C382.488 137.799 383.58 134.595 383.58 130.882H393.3C393.3 135.251 392.281 139.073 390.242 142.349C388.276 145.626 385.51 148.174 381.942 149.994C378.447 151.814 374.443 152.724 369.929 152.724H369.492C361.629 152.724 355.404 150.212 350.817 145.189C346.303 140.092 344.046 133.321 344.046 124.875V122.691C344.046 117.158 345.065 112.28 347.103 108.057C349.142 103.834 352.054 100.558 355.84 98.2278C359.626 95.898 364.068 94.7331 369.164 94.7331H369.929ZM369.383 102.924C365.233 102.924 361.847 104.198 359.226 106.746C356.678 109.295 355.112 113.081 354.53 118.104H383.143V116.794C383.143 112.644 381.869 109.295 379.321 106.746C376.845 104.198 373.533 102.924 369.383 102.924Z" fill="#250031"/>
<path d="M430.177 94.7331C437.53 94.7331 442.991 96.1892 446.558 99.1015C450.199 102.014 452.019 106.237 452.019 111.77V140.711C452.019 142.022 452.31 143.005 452.893 143.66C453.475 144.242 454.203 144.534 455.077 144.534C456.751 144.534 458.426 144.024 460.101 143.005V150.54C457.625 151.996 454.822 152.724 451.691 152.724C448.561 152.724 446.231 151.851 444.702 150.103C443.173 148.283 442.336 145.808 442.19 142.677C437.676 149.375 431.16 152.724 422.641 152.724C416.525 152.724 411.938 151.414 408.88 148.793C405.895 146.099 404.403 141.876 404.403 136.124C404.403 131.61 405.568 128.079 407.898 125.531C410.227 122.91 414.086 121.017 419.474 119.852C424.862 118.687 432.288 118.104 441.753 118.104V112.971C441.753 109.258 440.661 106.674 438.477 105.217C436.293 103.688 433.125 102.924 428.975 102.924C425.044 102.924 421.986 103.688 419.802 105.217C417.617 106.746 416.525 108.894 416.525 111.661V112.971H406.478C406.332 111.952 406.259 110.751 406.259 109.367C406.259 106.819 407.279 104.416 409.317 102.159C411.356 99.9024 414.123 98.1186 417.617 96.8081C421.112 95.4248 424.971 94.7331 429.194 94.7331H430.177ZM441.753 126.077C434.108 126.077 428.32 126.477 424.388 127.278C420.53 128.006 417.945 129.135 416.634 130.664C415.324 132.193 414.669 134.304 414.669 136.998C414.669 142.022 418.491 144.534 426.136 144.534C428.83 144.534 431.378 143.878 433.781 142.568C436.183 141.184 438.113 139.255 439.569 136.779C441.025 134.304 441.753 131.465 441.753 128.261V126.077Z" fill="#250031"/>
<path d="M493.952 94.7331C498.393 94.7331 502.361 95.716 505.856 97.6818C509.424 99.5748 512.19 102.269 514.156 105.763C516.122 109.258 517.105 113.263 517.105 117.777H506.948C506.948 113.263 505.783 109.659 503.453 106.965C501.196 104.271 497.92 102.924 493.624 102.924C489.11 102.924 485.506 104.453 482.812 107.511C480.191 110.496 478.881 114.61 478.881 119.852V125.749C478.881 132.083 480.191 136.816 482.812 139.947C485.433 143.005 489.147 144.534 493.952 144.534C498.393 144.534 501.706 143.223 503.89 140.602C506.147 137.908 507.276 134.304 507.276 129.79H517.105C517.105 136.779 514.993 142.349 510.77 146.499C506.62 150.649 501.051 152.724 494.061 152.724H493.187C488.237 152.724 483.904 151.596 480.191 149.339C476.478 147.009 473.602 143.769 471.564 139.619C469.598 135.469 468.615 130.627 468.615 125.094V122.473C468.615 116.939 469.634 112.098 471.673 107.948C473.711 103.725 476.587 100.485 480.3 98.2278C484.014 95.898 488.273 94.7331 493.078 94.7331H493.952Z" fill="#250031"/>
<path d="M541.781 102.815C546.367 97.427 552.119 94.7331 559.036 94.7331C565.152 94.7331 569.957 96.3713 573.452 99.6476C576.947 102.924 578.694 107.729 578.694 114.064V151.632H568.428V115.92C568.428 107.256 564.497 102.924 556.633 102.924C554.012 102.924 551.573 103.616 549.316 104.999C547.059 106.382 545.239 108.275 543.856 110.678C542.472 113.008 541.781 115.592 541.781 118.432V151.632H531.515V73H541.781V102.815Z" fill="#250031"/>
<path d="M720.015 76.7132V151.632H709.312V118.214H675.129V151.632H664.426V76.7132H675.129V108.494H709.312V76.7132H720.015Z" fill="#250031"/>
<path d="M761.554 94.7331C766.141 94.7331 770.182 95.716 773.677 97.6818C777.244 99.5748 780.011 102.305 781.977 105.873C783.942 109.44 784.925 113.59 784.925 118.323V126.077H745.937C746.082 131.974 747.466 136.525 750.087 139.728C752.708 142.932 756.603 144.534 761.773 144.534C766.359 144.534 769.745 143.187 771.929 140.493C774.113 137.799 775.206 134.595 775.206 130.882H784.925C784.925 135.251 783.906 139.073 781.867 142.349C779.902 145.626 777.135 148.174 773.567 149.994C770.073 151.814 766.068 152.724 761.554 152.724H761.117C753.254 152.724 747.029 150.212 742.442 145.189C737.928 140.092 735.671 133.321 735.671 124.875V122.691C735.671 117.158 736.69 112.28 738.729 108.057C740.768 103.834 743.68 100.558 747.466 98.2278C751.252 95.898 755.693 94.7331 760.79 94.7331H761.554ZM761.008 102.924C756.858 102.924 753.472 104.198 750.851 106.746C748.303 109.295 746.738 113.081 746.155 118.104H774.769V116.794C774.769 112.644 773.495 109.295 770.946 106.746C768.471 104.198 765.158 102.924 761.008 102.924Z" fill="#250031"/>
<path d="M810.553 73V151.632H800.287V73H810.553Z" fill="#250031"/>
<path d="M855.393 94.7331C862.456 94.7331 867.989 97.3178 871.993 102.487C875.998 107.656 878 114.755 878 123.783V124.985C878 133.576 875.998 140.347 871.993 145.298C868.062 150.249 862.528 152.724 855.393 152.724C848.549 152.724 843.198 149.994 839.339 144.534V171.4H829.073V95.8252H836.718C837.228 98.155 837.701 100.703 838.138 103.47C842.288 97.6454 848.04 94.7331 855.393 94.7331ZM853.537 102.924C848.586 102.924 844.945 104.635 842.615 108.057C840.358 111.479 839.23 116.685 839.23 123.674C839.23 130.809 840.395 136.088 842.725 139.51C845.127 142.859 848.731 144.534 853.537 144.534C858.342 144.534 861.909 142.823 864.239 139.401C866.569 135.979 867.734 130.736 867.734 123.674C867.734 116.539 866.533 111.297 864.13 107.948C861.8 104.599 858.269 102.924 853.537 102.924Z" fill="#250031"/>
<path d="M625.958 75.6211C625.375 79.2615 623.81 83.9212 621.262 89.6002C618.786 95.2792 615.91 100.885 612.634 106.419C609.358 111.879 606.409 116.102 603.788 119.087H620.17V107.948C622.063 105.327 624.247 101.249 626.722 95.716C629.271 90.1826 630.909 85.887 631.637 82.829H640.701V119.087H651.404V135.141H640.701V151.632H620.17V135.141H589.59V118.869C592.43 113.772 594.578 109.404 596.034 105.763L599.31 97.6818C603.096 88.3624 605.535 81.0089 606.627 75.6211H625.958Z" fill="#FF7B02"/>
<path d="M307.89 76.7132C314.515 76.7132 319.939 78.2786 324.162 81.4093C328.458 84.54 330.606 88.8357 330.606 94.2962C330.606 99.1743 329.295 103.324 326.674 106.746C324.126 110.168 320.959 112.243 317.173 112.971V113.517C320.667 114.901 323.543 117.303 325.8 120.725C328.057 124.147 329.186 128.261 329.186 133.066C329.186 137.071 329.404 140.092 329.841 142.131C330.278 144.169 330.861 145.589 331.589 146.39C332.317 147.191 333.372 147.81 334.756 148.247V151.305C333.154 151.96 331.443 152.288 329.623 152.288C326.128 152.288 323.398 151.268 321.432 149.23C319.466 147.118 318.483 143.187 318.483 137.435C318.483 131.537 317.246 126.95 314.77 123.674C312.367 120.325 309.346 118.65 305.706 118.65H286.703V151.632H276V76.7132H307.89ZM286.703 86.433V108.931H307.999C311.13 108.931 313.896 107.875 316.299 105.763C318.702 103.652 319.903 101.031 319.903 97.9002V97.4634C319.903 94.2598 318.811 91.6388 316.627 89.6001C314.442 87.4887 311.567 86.433 307.999 86.433H286.703Z" fill="#250031"/>
<path d="M369.929 94.7331C374.516 94.7331 378.556 95.716 382.051 97.6818C385.619 99.5748 388.385 102.305 390.351 105.873C392.317 109.44 393.3 113.59 393.3 118.323V126.077H354.311C354.457 131.974 355.84 136.525 358.461 139.728C361.083 142.932 364.978 144.534 370.147 144.534C374.734 144.534 378.12 143.187 380.304 140.493C382.488 137.799 383.58 134.595 383.58 130.882H393.3C393.3 135.251 392.281 139.073 390.242 142.349C388.276 145.626 385.51 148.174 381.942 149.994C378.447 151.814 374.443 152.724 369.929 152.724H369.492C361.629 152.724 355.404 150.212 350.817 145.189C346.303 140.092 344.046 133.321 344.046 124.875V122.691C344.046 117.158 345.065 112.28 347.103 108.057C349.142 103.834 352.054 100.558 355.84 98.2278C359.626 95.898 364.068 94.7331 369.164 94.7331H369.929ZM369.383 102.924C365.233 102.924 361.847 104.198 359.226 106.746C356.678 109.295 355.112 113.081 354.53 118.104H383.143V116.794C383.143 112.644 381.869 109.295 379.321 106.746C376.845 104.198 373.533 102.924 369.383 102.924Z" fill="#250031"/>
<path d="M430.177 94.7331C437.53 94.7331 442.991 96.1892 446.558 99.1015C450.199 102.014 452.019 106.237 452.019 111.77V140.711C452.019 142.022 452.31 143.005 452.893 143.66C453.475 144.242 454.203 144.534 455.077 144.534C456.751 144.534 458.426 144.024 460.101 143.005V150.54C457.625 151.996 454.822 152.724 451.691 152.724C448.561 152.724 446.231 151.851 444.702 150.103C443.173 148.283 442.336 145.808 442.19 142.677C437.676 149.375 431.16 152.724 422.641 152.724C416.525 152.724 411.938 151.414 408.88 148.793C405.895 146.099 404.403 141.876 404.403 136.124C404.403 131.61 405.568 128.079 407.898 125.531C410.227 122.91 414.086 121.017 419.474 119.852C424.862 118.687 432.288 118.104 441.753 118.104V112.971C441.753 109.258 440.661 106.674 438.477 105.217C436.293 103.688 433.125 102.924 428.975 102.924C425.044 102.924 421.986 103.688 419.802 105.217C417.617 106.746 416.525 108.894 416.525 111.661V112.971H406.478C406.332 111.952 406.259 110.751 406.259 109.367C406.259 106.819 407.279 104.416 409.317 102.159C411.356 99.9024 414.123 98.1186 417.617 96.8081C421.112 95.4248 424.971 94.7331 429.194 94.7331H430.177ZM441.753 126.077C434.108 126.077 428.32 126.477 424.388 127.278C420.53 128.006 417.945 129.135 416.634 130.664C415.324 132.193 414.669 134.304 414.669 136.998C414.669 142.022 418.491 144.534 426.136 144.534C428.83 144.534 431.378 143.878 433.781 142.568C436.183 141.184 438.113 139.255 439.569 136.779C441.025 134.304 441.753 131.465 441.753 128.261V126.077Z" fill="#250031"/>
<path d="M493.952 94.7331C498.393 94.7331 502.361 95.716 505.856 97.6818C509.424 99.5748 512.19 102.269 514.156 105.763C516.122 109.258 517.105 113.263 517.105 117.777H506.948C506.948 113.263 505.783 109.659 503.453 106.965C501.196 104.271 497.92 102.924 493.624 102.924C489.11 102.924 485.506 104.453 482.812 107.511C480.191 110.496 478.881 114.61 478.881 119.852V125.749C478.881 132.083 480.191 136.816 482.812 139.947C485.433 143.005 489.147 144.534 493.952 144.534C498.393 144.534 501.706 143.223 503.89 140.602C506.147 137.908 507.276 134.304 507.276 129.79H517.105C517.105 136.779 514.993 142.349 510.77 146.499C506.62 150.649 501.051 152.724 494.061 152.724H493.187C488.237 152.724 483.904 151.596 480.191 149.339C476.478 147.009 473.602 143.769 471.564 139.619C469.598 135.469 468.615 130.627 468.615 125.094V122.473C468.615 116.939 469.634 112.098 471.673 107.948C473.711 103.725 476.587 100.485 480.3 98.2278C484.014 95.898 488.273 94.7331 493.078 94.7331H493.952Z" fill="#250031"/>
<path d="M541.781 102.815C546.367 97.427 552.119 94.7331 559.036 94.7331C565.152 94.7331 569.957 96.3713 573.452 99.6476C576.947 102.924 578.694 107.729 578.694 114.064V151.632H568.428V115.92C568.428 107.256 564.497 102.924 556.633 102.924C554.012 102.924 551.573 103.616 549.316 104.999C547.059 106.382 545.239 108.275 543.856 110.678C542.472 113.008 541.781 115.592 541.781 118.432V151.632H531.515V73H541.781V102.815Z" fill="#250031"/>
<path d="M720.015 76.7132V151.632H709.312V118.214H675.129V151.632H664.426V76.7132H675.129V108.494H709.312V76.7132H720.015Z" fill="#250031"/>
<path d="M761.554 94.7331C766.141 94.7331 770.182 95.716 773.677 97.6818C777.244 99.5748 780.011 102.305 781.977 105.873C783.942 109.44 784.925 113.59 784.925 118.323V126.077H745.937C746.082 131.974 747.466 136.525 750.087 139.728C752.708 142.932 756.603 144.534 761.773 144.534C766.359 144.534 769.745 143.187 771.929 140.493C774.113 137.799 775.206 134.595 775.206 130.882H784.925C784.925 135.251 783.906 139.073 781.867 142.349C779.902 145.626 777.135 148.174 773.567 149.994C770.073 151.814 766.068 152.724 761.554 152.724H761.117C753.254 152.724 747.029 150.212 742.442 145.189C737.928 140.092 735.671 133.321 735.671 124.875V122.691C735.671 117.158 736.69 112.28 738.729 108.057C740.768 103.834 743.68 100.558 747.466 98.2278C751.252 95.898 755.693 94.7331 760.79 94.7331H761.554ZM761.008 102.924C756.858 102.924 753.472 104.198 750.851 106.746C748.303 109.295 746.738 113.081 746.155 118.104H774.769V116.794C774.769 112.644 773.495 109.295 770.946 106.746C768.471 104.198 765.158 102.924 761.008 102.924Z" fill="#250031"/>
<path d="M810.553 73V151.632H800.287V73H810.553Z" fill="#250031"/>
<path d="M855.393 94.7331C862.456 94.7331 867.989 97.3178 871.993 102.487C875.998 107.656 878 114.755 878 123.783V124.985C878 133.576 875.998 140.347 871.993 145.298C868.062 150.249 862.528 152.724 855.393 152.724C848.549 152.724 843.198 149.994 839.339 144.534V171.4H829.073V95.8252H836.718C837.228 98.155 837.701 100.703 838.138 103.47C842.288 97.6454 848.04 94.7331 855.393 94.7331ZM853.537 102.924C848.586 102.924 844.945 104.635 842.615 108.057C840.358 111.479 839.23 116.685 839.23 123.674C839.23 130.809 840.395 136.088 842.725 139.51C845.127 142.859 848.731 144.534 853.537 144.534C858.342 144.534 861.909 142.823 864.239 139.401C866.569 135.979 867.734 130.736 867.734 123.674C867.734 116.539 866.533 111.297 864.13 107.948C861.8 104.599 858.269 102.924 853.537 102.924Z" fill="#250031"/>
<path d="M625.958 75.6211C625.375 79.2615 623.81 83.9212 621.262 89.6002C618.786 95.2792 615.91 100.885 612.634 106.419C609.358 111.879 606.409 116.102 603.788 119.087H620.17V107.948C622.063 105.327 624.247 101.249 626.722 95.716C629.271 90.1826 630.909 85.887 631.637 82.829H640.701V119.087H651.404V135.141H640.701V151.632H620.17V135.141H589.59V118.869C592.43 113.772 594.578 109.404 596.034 105.763L599.31 97.6818C603.096 88.3624 605.535 81.0089 606.627 75.6211H625.958Z" fill="#FF7B02"/>
<path d="M209.207 229.959H20.7524C9.29453 229.959 0 220.665 0 209.207V20.7524C0 9.29453 9.29453 0 20.7524 0H209.207C220.665 0 229.959 9.29453 229.959 20.7524V209.207C229.959 220.665 220.665 229.959 209.207 229.959Z" fill="url(#paint0_linear)"/>
<path fill-rule="evenodd" clip-rule="evenodd" d="M180.037 39.8086C185.037 39.8086 189.09 43.8616 189.09 48.8613L189.09 178.513C189.09 183.512 185.036 187.565 180.037 187.565L50.3855 187.565C45.3858 187.565 41.3328 183.512 41.3328 178.513L41.3328 48.8613C41.3328 43.8616 45.3859 39.8086 50.3855 39.8086L180.037 39.8086ZM183.887 48.8613C183.887 46.735 182.163 45.0113 180.037 45.0113L50.3855 45.0113C48.2592 45.0113 46.5355 46.735 46.5355 48.8613L46.5355 178.513C46.5355 180.639 48.2592 182.363 50.3855 182.363L180.037 182.363C182.163 182.363 183.887 180.639 183.887 178.513L183.887 48.8613Z" fill="#250031" fill-opacity="0.15"/>
<path fill-rule="evenodd" clip-rule="evenodd" d="M44.9867 184.316C43.9589 183.288 44.1555 181.425 45.4257 180.155L181.921 43.6595C183.192 42.3893 185.054 42.1927 186.082 43.2205C187.11 44.2483 186.913 46.1112 185.643 47.3814L49.1476 183.877C47.8774 185.147 46.0144 185.344 44.9867 184.316Z" fill="#250031" fill-opacity="0.15"/>
<path fill-rule="evenodd" clip-rule="evenodd" d="M44.5821 43.881C45.6099 42.8532 47.4994 43.0763 48.8024 44.3794L183.683 179.26C184.986 180.563 185.209 182.453 184.182 183.481C183.154 184.508 181.264 184.285 179.961 182.982L45.0805 48.1013C43.7775 46.7982 43.5543 44.9087 44.5821 43.881Z" fill="#250031" fill-opacity="0.15"/>
<path fill-rule="evenodd" clip-rule="evenodd" d="M42.9734 114.448C42.9734 112.921 44.2693 111.683 45.8677 111.683L183.829 111.683C185.428 111.683 186.723 112.921 186.723 114.448C186.723 115.974 185.428 117.212 183.829 117.212L45.8677 117.212C44.2693 117.212 42.9734 115.974 42.9734 114.448Z" fill="#250031" fill-opacity="0.15"/>
<path fill-rule="evenodd" clip-rule="evenodd" d="M115.044 42.6621C116.768 42.6621 118.166 44.0597 118.166 45.7837L118.166 184.176C118.166 185.9 116.768 187.297 115.044 187.297C113.32 187.297 111.922 185.9 111.922 184.176L111.922 45.7837C111.922 44.0597 113.32 42.6621 115.044 42.6621Z" fill="#250031" fill-opacity="0.15"/>
<path d="M115.501 24.7501C124.696 24.7501 132.15 32.4369 132.15 41.919C132.15 51.4011 124.696 59.0879 115.501 59.0879C106.307 59.0879 98.8528 51.4011 98.8528 41.919C98.8528 32.4369 106.307 24.7501 115.501 24.7501Z" fill="url(#paint1_linear)"/>
<path fill-rule="evenodd" clip-rule="evenodd" d="M136.305 41.9204C136.305 30.2612 127.107 20.5893 115.494 20.5893C103.881 20.5893 94.6834 30.2612 94.6834 41.9204C94.6834 53.5796 103.881 63.2515 115.494 63.2515C127.107 63.2515 136.305 53.5796 136.305 41.9204ZM132.143 41.9204C132.143 32.4383 124.689 24.7515 115.494 24.7515C106.299 24.7515 98.8456 32.4383 98.8456 41.9204C98.8456 51.4025 106.299 59.0893 115.494 59.0893C124.689 59.0893 132.143 51.4025 132.143 41.9204Z" fill="url(#paint2_linear)"/>
<path d="M30.9632 30.2285C37.503 23.6887 48.1061 23.6887 54.6458 30.2285C61.1856 36.7682 61.1856 47.3713 54.6458 53.9111C48.106 60.4509 37.503 60.4509 30.9632 53.9111C24.4234 47.3713 24.4234 36.7682 30.9632 30.2285Z" fill="url(#paint3_linear)"/>
<path fill-rule="evenodd" clip-rule="evenodd" d="M57.5889 27.2849C49.4237 19.1197 36.1853 19.1197 28.0201 27.2849C19.8549 35.4501 19.8549 48.6886 28.0201 56.8538C36.1853 65.019 49.4237 65.019 57.5889 56.8538C65.7541 48.6886 65.7541 35.4501 57.5889 27.2849ZM54.6458 30.228C48.1061 23.6882 37.503 23.6882 30.9632 30.228C24.4234 36.7678 24.4234 47.3709 30.9632 53.9107C37.503 60.4505 48.106 60.4505 54.6458 53.9107C61.1856 47.3709 61.1856 36.7678 54.6458 30.228Z" fill="url(#paint4_linear)"/>
<path d="M196.545 195.829C203.085 189.289 203.085 178.686 196.545 172.146C190.006 165.607 179.403 165.607 172.863 172.146C166.323 178.686 166.323 189.289 172.863 195.829C179.403 202.369 190.006 202.369 196.545 195.829Z" fill="url(#paint5_linear)"/>
<path fill-rule="evenodd" clip-rule="evenodd" d="M199.509 169.203C207.674 177.369 207.674 190.607 199.509 198.772C191.343 206.937 178.105 206.937 169.94 198.772C161.774 190.607 161.774 177.369 169.94 169.203C178.105 161.038 191.343 161.038 199.509 169.203ZM196.565 172.146C203.105 178.686 203.105 189.289 196.565 195.829C190.026 202.369 179.423 202.369 172.883 195.829C166.343 189.289 166.343 178.686 172.883 172.146C179.423 165.607 190.026 165.607 196.565 172.146Z" fill="url(#paint6_linear)"/>
<path d="M201.443 113.462C201.443 104.267 193.99 96.8136 184.795 96.8136C175.6 96.8136 168.146 104.267 168.146 113.462C168.146 122.657 175.6 130.111 184.795 130.111C193.99 130.111 201.443 122.657 201.443 113.462Z" fill="url(#paint7_linear)"/>
<path fill-rule="evenodd" clip-rule="evenodd" d="M184.789 92.6514C196.282 92.6514 205.6 101.969 205.6 113.462C205.6 124.956 196.282 134.273 184.789 134.273C173.295 134.273 163.978 124.956 163.978 113.462C163.978 101.969 173.295 92.6514 184.789 92.6514ZM184.789 96.8135C193.984 96.8135 201.438 104.267 201.438 113.462C201.438 122.657 193.984 130.111 184.789 130.111C175.594 130.111 168.14 122.657 168.14 113.462C168.14 104.267 175.594 96.8135 184.789 96.8135Z" fill="url(#paint8_linear)"/>
<path d="M196.545 30.2275C203.085 36.7673 203.085 47.3704 196.545 53.9102C190.006 60.45 179.403 60.45 172.863 53.9102C166.323 47.3704 166.323 36.7673 172.863 30.2275C179.403 23.6877 190.006 23.6877 196.545 30.2275Z" fill="url(#paint9_linear)"/>
<path fill-rule="evenodd" clip-rule="evenodd" d="M199.509 56.8533C207.674 48.6881 207.674 35.4496 199.509 27.2844C191.343 19.1192 178.105 19.1192 169.94 27.2844C161.774 35.4496 161.774 48.6881 169.94 56.8533C178.105 65.0185 191.343 65.0185 199.509 56.8533ZM196.565 53.9102C203.105 47.3704 203.105 36.7673 196.565 30.2275C190.026 23.6877 179.423 23.6877 172.883 30.2275C166.343 36.7673 166.343 47.3704 172.883 53.9102C179.423 60.45 190.026 60.45 196.565 53.9102Z" fill="url(#paint10_linear)"/>
<path d="M137.169 162.917V208.248C137.169 209.972 135.771 211.37 134.047 211.37H94.6192C92.8952 211.37 91.4976 209.972 91.4976 208.248V162.917C91.4976 159.02 93.0469 155.525 95.6066 152.971C98.1664 150.418 101.669 148.872 105.576 148.872H123.023C126.93 148.872 130.433 150.418 132.993 152.971C135.552 155.525 137.169 159.02 137.169 162.917Z" fill="url(#paint11_angular)"/>
<path fill-rule="evenodd" clip-rule="evenodd" d="M105.554 152.511C102.635 152.511 100.051 153.657 98.1561 155.547C96.2618 157.436 95.1168 160.011 95.1168 162.914V207.725H133.504V162.914C133.504 160.054 132.324 157.469 130.398 155.547C128.503 153.657 125.918 152.511 123 152.511H105.554ZM93.0118 150.39C96.2368 147.173 100.658 145.227 105.554 145.227H123C127.896 145.227 132.317 147.173 135.542 150.39C138.735 153.575 140.788 157.978 140.788 162.914V208.245C140.788 211.98 137.76 215.009 134.025 215.009H94.5965C90.8611 215.009 87.833 211.98 87.833 208.245V162.914C87.833 158.022 89.7866 153.608 93.0118 150.39Z" fill="url(#paint12_linear)"/>
<path d="M87.4757 108.088C87.4757 93.0866 99.6368 80.9256 114.638 80.9256C129.64 80.9256 141.801 93.0866 141.801 108.088C141.801 123.089 129.64 135.25 114.638 135.25C99.6368 135.25 87.4757 123.089 87.4757 108.088Z" fill="url(#paint13_angular)"/>
<path fill-rule="evenodd" clip-rule="evenodd" d="M138.152 108.089C138.152 121.079 127.622 131.609 114.632 131.609C101.642 131.609 91.1111 121.079 91.1111 108.089C91.1111 95.0987 101.642 84.5682 114.632 84.5682C127.622 84.5682 138.152 95.0987 138.152 108.089ZM114.632 138.893C131.644 138.893 145.436 125.101 145.436 108.089C145.436 91.076 131.644 77.2844 114.632 77.2844C97.6189 77.2844 83.8273 91.076 83.8273 108.089C83.8273 125.101 97.6189 138.893 114.632 138.893Z" fill="url(#paint14_linear)"/>
<path d="M30.9548 195.83C24.415 189.29 24.415 178.687 30.9548 172.147C37.4946 165.607 48.0976 165.607 54.6374 172.147C61.1772 178.687 61.1772 189.29 54.6374 195.83C48.0976 202.369 37.4946 202.369 30.9548 195.83Z" fill="url(#paint15_linear)"/>
<path fill-rule="evenodd" clip-rule="evenodd" d="M28.0199 169.204C19.8547 177.369 19.8547 190.607 28.0199 198.773C36.1851 206.938 49.4235 206.938 57.5888 198.773C65.754 190.607 65.754 177.369 57.5887 169.204C49.4235 161.039 36.1851 161.039 28.0199 169.204ZM30.963 172.147C24.4232 178.687 24.4232 189.29 30.963 195.83C37.5028 202.369 48.1059 202.369 54.6457 195.83C61.1854 189.29 61.1854 178.687 54.6457 172.147C48.1059 165.607 37.5028 165.607 30.963 172.147Z" fill="url(#paint16_linear)"/>
<path d="M26.2295 113.462C26.2295 104.267 33.6833 96.8136 42.8781 96.8136C52.0729 96.8136 59.5267 104.267 59.5267 113.462C59.5267 122.657 52.0729 130.111 42.8781 130.111C33.6833 130.111 26.2295 122.657 26.2295 113.462Z" fill="url(#paint17_linear)"/>
<path fill-rule="evenodd" clip-rule="evenodd" d="M42.8707 92.6514C31.3772 92.6514 22.0599 101.969 22.0599 113.462C22.0599 124.956 31.3772 134.273 42.8707 134.273C54.3642 134.273 63.6815 124.956 63.6815 113.462C63.6815 101.969 54.3642 92.6514 42.8707 92.6514ZM42.8707 96.8135C33.6759 96.8135 26.2221 104.267 26.2221 113.462C26.2221 122.657 33.6759 130.111 42.8707 130.111C52.0655 130.111 59.5194 122.657 59.5194 113.462C59.5194 104.267 52.0655 96.8135 42.8707 96.8135Z" fill="url(#paint18_linear)"/>
<defs>
<linearGradient id="paint0_linear" x1="6.07365" y1="6.07365" x2="223.886" y2="223.886" gradientUnits="userSpaceOnUse">
<stop stop-color="#F27979"/>
<stop offset="1" stop-color="#7D00A3"/>
</linearGradient>
<linearGradient id="paint1_linear" x1="115.501" y1="59.0879" x2="115.501" y2="24.7501" gradientUnits="userSpaceOnUse">
<stop stop-color="white"/>
<stop offset="1" stop-color="#DDDDDD"/>
</linearGradient>
<linearGradient id="paint2_linear" x1="115.494" y1="59.0893" x2="115.494" y2="24.7515" gradientUnits="userSpaceOnUse">
<stop stop-color="white"/>
<stop offset="1" stop-color="#F2F2F2" stop-opacity="0"/>
</linearGradient>
<linearGradient id="paint3_linear" x1="54.6458" y1="53.9111" x2="30.9632" y2="30.2285" gradientUnits="userSpaceOnUse">
<stop stop-color="white"/>
<stop offset="1" stop-color="#DDDDDD"/>
</linearGradient>
<linearGradient id="paint4_linear" x1="54.6458" y1="53.9108" x2="30.9632" y2="30.2281" gradientUnits="userSpaceOnUse">
<stop stop-color="white"/>
<stop offset="1" stop-color="#F2F2F2" stop-opacity="0"/>
</linearGradient>
<linearGradient id="paint5_linear" x1="172.863" y1="172.146" x2="196.545" y2="195.829" gradientUnits="userSpaceOnUse">
<stop stop-color="white"/>
<stop offset="1" stop-color="#DDDDDD"/>
</linearGradient>
<linearGradient id="paint6_linear" x1="172.883" y1="172.146" x2="196.565" y2="195.829" gradientUnits="userSpaceOnUse">
<stop stop-color="white"/>
<stop offset="1" stop-color="#F2F2F2" stop-opacity="0"/>
</linearGradient>
<linearGradient id="paint7_linear" x1="168.146" y1="113.462" x2="201.443" y2="113.462" gradientUnits="userSpaceOnUse">
<stop stop-color="white"/>
<stop offset="1" stop-color="#DDDDDD"/>
</linearGradient>
<linearGradient id="paint8_linear" x1="168.14" y1="113.462" x2="201.438" y2="113.462" gradientUnits="userSpaceOnUse">
<stop stop-color="white"/>
<stop offset="1" stop-color="#F2F2F2" stop-opacity="0"/>
</linearGradient>
<linearGradient id="paint9_linear" x1="172.863" y1="53.9102" x2="196.545" y2="30.2275" gradientUnits="userSpaceOnUse">
<stop stop-color="white"/>
<stop offset="1" stop-color="#DDDDDD"/>
</linearGradient>
<linearGradient id="paint10_linear" x1="172.883" y1="53.9102" x2="196.565" y2="30.2275" gradientUnits="userSpaceOnUse">
<stop stop-color="white"/>
<stop offset="1" stop-color="#F2F2F2" stop-opacity="0"/>
</linearGradient>
<radialGradient id="paint11_angular" cx="0" cy="0" r="1" gradientUnits="userSpaceOnUse" gradientTransform="translate(114.853 173.249) rotate(90) scale(21.3311 35.8504)">
<stop stop-color="#FFCB52"/>
<stop offset="1" stop-color="#FF7B02"/>
</radialGradient>
<linearGradient id="paint12_linear" x1="114.311" y1="148.869" x2="114.311" y2="211.367" gradientUnits="userSpaceOnUse">
<stop stop-color="white"/>
<stop offset="1" stop-color="white" stop-opacity="0"/>
</linearGradient>
<radialGradient id="paint13_angular" cx="0" cy="0" r="1" gradientUnits="userSpaceOnUse" gradientTransform="translate(116.321 108.168) rotate(90) scale(1.20188 1.37288)">
<stop stop-color="#FFCB52"/>
<stop offset="1" stop-color="#FF7B02"/>
</radialGradient>
<linearGradient id="paint14_linear" x1="114.831" y1="138.912" x2="114.831" y2="81.1619" gradientUnits="userSpaceOnUse">
<stop stop-color="white"/>
<stop offset="1" stop-color="white" stop-opacity="0.3"/>
</linearGradient>
<linearGradient id="paint15_linear" x1="54.6374" y1="172.147" x2="30.9548" y2="195.83" gradientUnits="userSpaceOnUse">
<stop stop-color="white"/>
<stop offset="1" stop-color="#DDDDDD"/>
</linearGradient>
<linearGradient id="paint16_linear" x1="54.6458" y1="172.147" x2="30.9631" y2="195.83" gradientUnits="userSpaceOnUse">
<stop stop-color="white"/>
<stop offset="1" stop-color="#F2F2F2" stop-opacity="0"/>
</linearGradient>
<linearGradient id="paint17_linear" x1="59.5267" y1="113.462" x2="26.2295" y2="113.462" gradientUnits="userSpaceOnUse">
<stop stop-color="white"/>
<stop offset="1" stop-color="#DDDDDD"/>
</linearGradient>
<linearGradient id="paint18_linear" x1="59.5194" y1="113.462" x2="26.2221" y2="113.462" gradientUnits="userSpaceOnUse">
<stop stop-color="white"/>
<stop offset="1" stop-color="#F2F2F2" stop-opacity="0"/>
</linearGradient>
</defs>
</svg>
