<svg width="151" height="136" viewBox="0 0 151 136" fill="none" xmlns="http://www.w3.org/2000/svg">
<path d="M111.103 92.7189H35.1183C30.4985 92.7189 26.751 88.9713 26.751 84.3515V8.36731C26.751 3.74752 30.4985 0 35.1183 0H111.103C115.722 0 119.47 3.74752 119.47 8.36731V84.3515C119.47 88.9713 115.722 92.7189 111.103 92.7189Z" fill="url(#paint0_linear)"/>
<path fill-rule="evenodd" clip-rule="evenodd" d="M99.3412 16.0506C101.357 16.0506 102.991 17.6848 102.991 19.7006L102.991 71.9756C102.991 73.9915 101.357 75.6257 99.3412 75.6257L47.0662 75.6257C45.0503 75.6257 43.4162 73.9915 43.4162 71.9756L43.4162 19.7006C43.4162 17.6848 45.0504 16.0506 47.0662 16.0506L99.3412 16.0506ZM100.893 19.7006C100.893 18.8433 100.199 18.1483 99.3412 18.1483L47.0662 18.1483C46.2089 18.1483 45.5139 18.8433 45.5139 19.7006L45.5139 71.9756C45.5139 72.833 46.2089 73.5279 47.0662 73.5279L99.3412 73.5279C100.199 73.5279 100.893 72.833 100.893 71.9756L100.893 19.7006Z" fill="#250031" fill-opacity="0.15"/>
<path fill-rule="evenodd" clip-rule="evenodd" d="M44.889 74.3156C44.4746 73.9012 44.5539 73.1501 45.066 72.6379L100.101 17.6034C100.613 17.0912 101.364 17.012 101.778 17.4264C102.193 17.8408 102.113 18.5919 101.601 19.104L46.5667 74.1386C46.0545 74.6507 45.3034 74.73 44.889 74.3156Z" fill="#250031" fill-opacity="0.15"/>
<path fill-rule="evenodd" clip-rule="evenodd" d="M44.7262 17.6926C45.1406 17.2783 45.9025 17.3682 46.4278 17.8936L100.811 72.2771C101.337 72.8025 101.427 73.5643 101.012 73.9787C100.598 74.3931 99.8361 74.3031 99.3107 73.7778L44.9272 19.3943C44.4018 18.8689 44.3118 18.107 44.7262 17.6926Z" fill="#250031" fill-opacity="0.15"/>
<path fill-rule="evenodd" clip-rule="evenodd" d="M44.0776 46.1447C44.0776 45.5291 44.6001 45.0301 45.2446 45.0301L100.87 45.0301C101.515 45.0301 102.037 45.5291 102.037 46.1447C102.037 46.7603 101.515 47.2593 100.87 47.2593L45.2446 47.2593C44.6001 47.2593 44.0776 46.7603 44.0776 46.1447Z" fill="#250031" fill-opacity="0.15"/>
<path fill-rule="evenodd" clip-rule="evenodd" d="M73.1359 17.2011C73.831 17.2011 74.3945 17.7646 74.3945 18.4597L74.3945 74.2589C74.3945 74.954 73.831 75.5175 73.1359 75.5175C72.4408 75.5175 71.8773 74.954 71.8773 74.2589L71.8773 18.4597C71.8773 17.7646 72.4408 17.2011 73.1359 17.2011Z" fill="#250031" fill-opacity="0.15"/>
<path d="M73.3211 9.97926C77.0284 9.97926 80.0338 13.0785 80.0338 16.9017C80.0338 20.7249 77.0284 23.8242 73.3211 23.8242C69.6138 23.8242 66.6084 20.7249 66.6084 16.9017C66.6084 13.0785 69.6138 9.97926 73.3211 9.97926Z" fill="url(#paint1_linear)"/>
<path fill-rule="evenodd" clip-rule="evenodd" d="M81.7089 16.9021C81.7089 12.2011 78.0005 8.30146 73.3181 8.30146C68.6357 8.30146 64.9272 12.2011 64.9272 16.9021C64.9272 21.603 68.6357 25.5027 73.3181 25.5027C78.0005 25.5027 81.7089 21.603 81.7089 16.9021ZM80.0308 16.9021C80.0308 13.0789 77.0254 9.97963 73.3181 9.97963C69.6108 9.97963 66.6054 13.0789 66.6054 16.9021C66.6054 20.7252 69.6108 23.8245 73.3181 23.8245C77.0254 23.8245 80.0308 20.7252 80.0308 16.9021Z" fill="url(#paint2_linear)"/>
<path d="M39.2349 12.188C41.8717 9.55116 46.1468 9.55116 48.7837 12.188C51.4205 14.8248 51.4205 19.0999 48.7837 21.7368C46.1468 24.3736 41.8717 24.3736 39.2349 21.7368C36.5981 19.0999 36.5981 14.8248 39.2349 12.188Z" fill="url(#paint3_linear)"/>
<path fill-rule="evenodd" clip-rule="evenodd" d="M49.9703 11.0012C46.6781 7.709 41.3404 7.709 38.0482 11.0012C34.7561 14.2934 34.7561 19.6311 38.0482 22.9232C41.3404 26.2154 46.6781 26.2154 49.9703 22.9232C53.2625 19.6311 53.2625 14.2934 49.9703 11.0012ZM48.7837 12.1878C46.1468 9.55101 41.8717 9.55101 39.2349 12.1878C36.5981 14.8247 36.5981 19.0998 39.2349 21.7366C41.8717 24.3734 46.1468 24.3734 48.7837 21.7366C51.4205 19.0998 51.4205 14.8247 48.7837 12.1878Z" fill="url(#paint4_linear)"/>
<path d="M105.997 78.9579C108.634 76.3211 108.634 72.046 105.997 69.4092C103.361 66.7723 99.0855 66.7723 96.4487 69.4092C93.8119 72.046 93.8119 76.3211 96.4487 78.9579C99.0855 81.5948 103.361 81.5948 105.997 78.9579Z" fill="url(#paint5_linear)"/>
<path fill-rule="evenodd" clip-rule="evenodd" d="M107.192 68.2225C110.484 71.5147 110.484 76.8524 107.192 80.1446C103.9 83.4368 98.5623 83.4368 95.2701 80.1446C91.9779 76.8524 91.9779 71.5147 95.2701 68.2225C98.5623 64.9303 103.9 64.9303 107.192 68.2225ZM106.006 69.4092C108.642 72.046 108.642 76.3211 106.006 78.9579C103.369 81.5948 99.0936 81.5948 96.4568 78.9579C93.8199 76.3211 93.8199 72.046 96.4568 69.4092C99.0936 66.7723 103.369 66.7723 106.006 69.4092Z" fill="url(#paint6_linear)"/>
<path d="M107.973 45.7475C107.973 42.0402 104.967 39.0349 101.26 39.0349C97.5527 39.0349 94.5474 42.0402 94.5474 45.7475C94.5474 49.4548 97.5527 52.4602 101.26 52.4602C104.967 52.4602 107.973 49.4548 107.973 45.7475Z" fill="url(#paint7_linear)"/>
<path fill-rule="evenodd" clip-rule="evenodd" d="M101.258 37.3568C105.892 37.3568 109.648 41.1135 109.648 45.7476C109.648 50.3817 105.892 54.1385 101.258 54.1385C96.6234 54.1385 92.8667 50.3817 92.8667 45.7476C92.8667 41.1135 96.6234 37.3568 101.258 37.3568ZM101.258 39.0349C104.965 39.0349 107.97 42.0403 107.97 45.7476C107.97 49.4549 104.965 52.4603 101.258 52.4603C97.5502 52.4603 94.5449 49.4549 94.5449 45.7476C94.5449 42.0403 97.5502 39.0349 101.258 39.0349Z" fill="url(#paint8_linear)"/>
<path d="M105.997 12.1879C108.634 14.8247 108.634 19.0998 105.997 21.7366C103.361 24.3735 99.0855 24.3735 96.4487 21.7367C93.8119 19.0998 93.8119 14.8247 96.4487 12.1879C99.0855 9.55106 103.361 9.55106 105.997 12.1879Z" fill="url(#paint9_linear)"/>
<path fill-rule="evenodd" clip-rule="evenodd" d="M107.192 22.9233C110.484 19.6311 110.484 14.2934 107.192 11.0012C103.9 7.70905 98.5623 7.70905 95.2701 11.0012C91.9779 14.2934 91.9779 19.6311 95.2701 22.9233C98.5623 26.2155 103.9 26.2155 107.192 22.9233ZM106.006 21.7366C108.642 19.0998 108.642 14.8247 106.006 12.1879C103.369 9.55106 99.0936 9.55106 96.4568 12.1879C93.8199 14.8247 93.8199 19.0998 96.4568 21.7367C99.0936 24.3735 103.369 24.3735 106.006 21.7366Z" fill="url(#paint10_linear)"/>
<path d="M82.0571 65.6875V83.9648C82.0571 84.6599 81.4936 85.2234 80.7985 85.2234H64.9012C64.2061 85.2234 63.6426 84.6599 63.6426 83.9648V65.6875C63.6426 64.116 64.2673 62.707 65.2993 61.6774C66.3314 60.6478 67.7438 60.0246 69.319 60.0246H76.3535C77.9288 60.0246 79.3411 60.6478 80.3732 61.6774C81.4053 62.707 82.0571 64.116 82.0571 65.6875Z" fill="url(#paint11_angular)"/>
<path fill-rule="evenodd" clip-rule="evenodd" d="M69.3099 61.4917C68.1333 61.4917 67.0911 61.9536 66.3273 62.7157C65.5635 63.4776 65.1018 64.5157 65.1018 65.6863V83.7537H80.5796V65.6863C80.5796 64.5333 80.1038 63.4906 79.327 62.7157C78.5631 61.9536 77.521 61.4917 76.3444 61.4917H69.3099ZM64.2531 60.6366C65.5534 59.3393 67.3359 58.5549 69.3099 58.5549H76.3444C78.3183 58.5549 80.1008 59.3393 81.4011 60.6366C82.6885 61.9209 83.5164 63.6962 83.5164 65.6863V83.9635C83.5164 85.4696 82.2955 86.6905 80.7894 86.6905H64.8921C63.386 86.6905 62.165 85.4696 62.165 83.9635V65.6863C62.165 63.7137 62.9527 61.9339 64.2531 60.6366Z" fill="url(#paint12_linear)"/>
<path d="M62.0207 43.5806C62.0207 37.5321 66.924 32.6288 72.9725 32.6288C79.021 32.6288 83.9243 37.5321 83.9243 43.5806C83.9243 49.6291 79.021 54.5324 72.9725 54.5324C66.924 54.5324 62.0207 49.6291 62.0207 43.5806Z" fill="url(#paint13_angular)"/>
<path fill-rule="evenodd" clip-rule="evenodd" d="M82.4533 43.5809C82.4533 48.8184 78.2075 53.0643 72.9699 53.0643C67.7324 53.0643 63.4865 48.8184 63.4865 43.5809C63.4865 38.3433 67.7324 34.0974 72.9699 34.0974C78.2075 34.0974 82.4533 38.3433 82.4533 43.5809ZM72.9699 56.0011C79.8294 56.0011 85.3901 50.4403 85.3901 43.5809C85.3901 36.7214 79.8294 31.1607 72.9699 31.1607C66.1104 31.1607 60.5497 36.7214 60.5497 43.5809C60.5497 50.4404 66.1104 56.0011 72.9699 56.0011Z" fill="url(#paint14_linear)"/>
<path d="M39.2315 78.9579C36.5947 76.3211 36.5947 72.046 39.2315 69.4092C41.8684 66.7723 46.1435 66.7723 48.7803 69.4092C51.4171 72.046 51.4171 76.3211 48.7803 78.9579C46.1435 81.5948 41.8684 81.5948 39.2315 78.9579Z" fill="url(#paint15_linear)"/>
<path fill-rule="evenodd" clip-rule="evenodd" d="M38.0486 68.2225C34.7564 71.5147 34.7564 76.8524 38.0485 80.1446C41.3407 83.4368 46.6784 83.4368 49.9706 80.1446C53.2628 76.8524 53.2628 71.5147 49.9706 68.2225C46.6784 64.9303 41.3407 64.9303 38.0486 68.2225ZM39.2352 69.4092C36.5984 72.046 36.5984 76.3211 39.2352 78.9579C41.872 81.5948 46.1471 81.5948 48.784 78.9579C51.4208 76.3211 51.4208 72.046 48.784 69.4092C46.1471 66.7723 41.872 66.7723 39.2352 69.4092Z" fill="url(#paint16_linear)"/>
<path d="M37.3266 45.7475C37.3266 42.0402 40.332 39.0349 44.0393 39.0349C47.7466 39.0349 50.752 42.0402 50.752 45.7475C50.752 49.4548 47.7466 52.4602 44.0393 52.4602C40.332 52.4602 37.3266 49.4548 37.3266 45.7475Z" fill="url(#paint17_linear)"/>
<path fill-rule="evenodd" clip-rule="evenodd" d="M44.0364 37.3568C39.4023 37.3568 35.6456 41.1135 35.6456 45.7476C35.6456 50.3817 39.4023 54.1384 44.0364 54.1384C48.6705 54.1384 52.4272 50.3817 52.4272 45.7476C52.4272 41.1135 48.6705 37.3568 44.0364 37.3568ZM44.0364 39.0349C40.3291 39.0349 37.3237 42.0403 37.3237 45.7476C37.3237 49.4549 40.3291 52.4603 44.0364 52.4603C47.7437 52.4603 50.7491 49.4549 50.7491 45.7476C50.7491 42.0403 47.7437 39.0349 44.0364 39.0349Z" fill="url(#paint18_linear)"/>
<path d="M7.94708 112.404C9.59819 112.404 10.9499 112.794 12.0023 113.574C13.0728 114.354 13.608 115.425 13.608 116.785C13.608 118.001 13.2814 119.035 12.6282 119.888C11.9932 120.741 11.2039 121.258 10.2604 121.439V121.576C11.1314 121.92 11.8481 122.519 12.4105 123.372C12.973 124.225 13.2542 125.25 13.2542 126.447C13.2542 127.445 13.3086 128.198 13.4175 128.706C13.5264 129.214 13.6715 129.568 13.853 129.768C14.0344 129.967 14.2975 130.121 14.6422 130.23V130.992C14.2431 131.156 13.8167 131.237 13.3631 131.237C12.4922 131.237 11.8118 130.983 11.3219 130.475C10.832 129.949 10.587 128.969 10.587 127.536C10.587 126.066 10.2786 124.923 9.6617 124.107C9.06294 123.272 8.30997 122.855 7.40276 122.855H2.66717V131.074H0V112.404H7.94708ZM2.66717 114.826V120.432H7.9743C8.75449 120.432 9.44397 120.169 10.0427 119.643C10.6415 119.117 10.9409 118.464 10.9409 117.684V117.575C10.9409 116.776 10.6687 116.123 10.1244 115.615C9.58005 115.089 8.86336 114.826 7.9743 114.826H2.66717Z" fill="#250031"/>
<path d="M23.4075 116.894C24.5506 116.894 25.5576 117.139 26.4285 117.629C27.3175 118.101 28.007 118.781 28.4969 119.67C28.9868 120.559 29.2317 121.594 29.2317 122.773V124.705H19.5156C19.5519 126.175 19.8966 127.309 20.5498 128.107C21.203 128.906 22.1737 129.305 23.4619 129.305C24.605 129.305 25.4487 128.969 25.993 128.298C26.5373 127.627 26.8095 126.828 26.8095 125.903H29.2317C29.2317 126.992 28.9777 127.944 28.4697 128.761C27.9798 129.577 27.2903 130.212 26.4013 130.666C25.5304 131.119 24.5324 131.346 23.4075 131.346H23.2986C21.3391 131.346 19.7878 130.72 18.6447 129.468C17.5198 128.198 16.9573 126.511 16.9573 124.406V123.862C16.9573 122.483 17.2113 121.267 17.7193 120.215C18.2274 119.162 18.9531 118.346 19.8966 117.765C20.8401 117.185 21.9469 116.894 23.217 116.894H23.4075ZM23.2714 118.936C22.2372 118.936 21.3935 119.253 20.7403 119.888C20.1053 120.523 19.7152 121.467 19.57 122.719H26.7006V122.392C26.7006 121.358 26.3831 120.523 25.7481 119.888C25.1312 119.253 24.3056 118.936 23.2714 118.936Z" fill="#250031"/>
<path d="M38.4216 116.894C40.2542 116.894 41.615 117.257 42.504 117.983C43.4112 118.709 43.8648 119.761 43.8648 121.14V128.352C43.8648 128.679 43.9374 128.924 44.0826 129.087C44.2277 129.232 44.4091 129.305 44.6269 129.305C45.0442 129.305 45.4615 129.178 45.8788 128.924V130.802C45.2619 131.165 44.5634 131.346 43.7832 131.346C43.003 131.346 42.4224 131.128 42.0413 130.693C41.6603 130.239 41.4517 129.622 41.4154 128.842C40.2905 130.511 38.6666 131.346 36.5437 131.346C35.0196 131.346 33.8765 131.019 33.1145 130.366C32.3706 129.695 31.9986 128.643 31.9986 127.209C31.9986 126.084 32.2889 125.204 32.8695 124.569C33.4502 123.916 34.4118 123.444 35.7544 123.154C37.0971 122.864 38.9478 122.719 41.3065 122.719V121.439C41.3065 120.514 41.0344 119.87 40.49 119.507C39.9457 119.126 39.1564 118.936 38.1222 118.936C37.1425 118.936 36.3804 119.126 35.8361 119.507C35.2918 119.888 35.0196 120.423 35.0196 121.113V121.439H32.5157C32.4794 121.185 32.4613 120.886 32.4613 120.541C32.4613 119.906 32.7153 119.308 33.2233 118.745C33.7314 118.183 34.4209 117.738 35.2918 117.411C36.1627 117.067 37.1243 116.894 38.1767 116.894H38.4216ZM41.3065 124.705C39.4014 124.705 37.9589 124.805 36.9792 125.005C36.0175 125.186 35.3734 125.467 35.0468 125.848C34.7202 126.229 34.5569 126.756 34.5569 127.427C34.5569 128.679 35.5095 129.305 37.4146 129.305C38.0859 129.305 38.721 129.142 39.3197 128.815C39.9185 128.47 40.3993 127.989 40.7622 127.373C41.1251 126.756 41.3065 126.048 41.3065 125.25V124.705Z" fill="#250031"/>
<path d="M54.3147 116.894C55.4215 116.894 56.4104 117.139 57.2813 117.629C58.1703 118.101 58.8598 118.772 59.3497 119.643C59.8396 120.514 60.0845 121.512 60.0845 122.637H57.5534C57.5534 121.512 57.2631 120.614 56.6825 119.943C56.1201 119.271 55.3036 118.936 54.2331 118.936C53.1081 118.936 52.21 119.317 51.5387 120.079C50.8855 120.823 50.5589 121.848 50.5589 123.154V124.624C50.5589 126.202 50.8855 127.382 51.5387 128.162C52.1919 128.924 53.1172 129.305 54.3147 129.305C55.4215 129.305 56.2471 128.978 56.7914 128.325C57.3538 127.654 57.6351 126.756 57.6351 125.631H60.0845C60.0845 127.373 59.5583 128.761 58.506 129.795C57.4718 130.829 56.0838 131.346 54.3419 131.346H54.1242C52.8904 131.346 51.8108 131.065 50.8855 130.502C49.9602 129.922 49.2435 129.114 48.7354 128.08C48.2455 127.046 48.0006 125.839 48.0006 124.46V123.807C48.0006 122.428 48.2546 121.222 48.7626 120.187C49.2707 119.135 49.9874 118.328 50.9127 117.765C51.8381 117.185 52.8995 116.894 54.097 116.894H54.3147Z" fill="#250031"/>
<path d="M66.2339 118.908C67.3769 117.566 68.8103 116.894 70.534 116.894C72.0581 116.894 73.2556 117.303 74.1265 118.119C74.9974 118.936 75.4329 120.133 75.4329 121.712V131.074H72.8746V122.174C72.8746 120.015 71.8948 118.936 69.9352 118.936C69.2821 118.936 68.6742 119.108 68.1118 119.453C67.5493 119.797 67.0957 120.269 66.751 120.868C66.4062 121.449 66.2339 122.093 66.2339 122.8V131.074H63.6755V111.478H66.2339V118.908Z" fill="#250031"/>
<path d="M110.651 112.404V131.074H107.983V122.746H99.4649V131.074H96.7977V112.404H99.4649V120.324H107.983V112.404H110.651Z" fill="#250031"/>
<path d="M121.003 116.894C122.146 116.894 123.153 117.139 124.024 117.629C124.913 118.101 125.602 118.781 126.092 119.67C126.582 120.559 126.827 121.594 126.827 122.773V124.705H117.111C117.147 126.175 117.492 127.309 118.145 128.107C118.798 128.906 119.769 129.305 121.057 129.305C122.2 129.305 123.044 128.969 123.588 128.298C124.132 127.627 124.405 126.828 124.405 125.903H126.827C126.827 126.992 126.573 127.944 126.065 128.761C125.575 129.577 124.885 130.212 123.996 130.666C123.125 131.119 122.127 131.346 121.003 131.346H120.894C118.934 131.346 117.383 130.72 116.24 129.468C115.115 128.198 114.552 126.511 114.552 124.406V123.862C114.552 122.483 114.806 121.267 115.314 120.215C115.822 119.162 116.548 118.346 117.492 117.765C118.435 117.185 119.542 116.894 120.812 116.894H121.003ZM120.866 118.936C119.832 118.936 118.989 119.253 118.335 119.888C117.7 120.523 117.31 121.467 117.165 122.719H124.296V122.392C124.296 121.358 123.978 120.523 123.343 119.888C122.726 119.253 121.901 118.936 120.866 118.936Z" fill="#250031"/>
<path d="M133.213 111.478V131.074H130.655V111.478H133.213Z" fill="#250031"/>
<path d="M144.388 116.894C146.148 116.894 147.527 117.538 148.525 118.827C149.522 120.115 150.021 121.884 150.021 124.134V124.433C150.021 126.574 149.522 128.262 148.525 129.495C147.545 130.729 146.166 131.346 144.388 131.346C142.682 131.346 141.349 130.666 140.387 129.305V136H137.829V117.167H139.734C139.861 117.747 139.979 118.382 140.088 119.072C141.122 117.62 142.555 116.894 144.388 116.894ZM143.925 118.936C142.691 118.936 141.784 119.362 141.203 120.215C140.641 121.067 140.36 122.365 140.36 124.107C140.36 125.885 140.65 127.2 141.231 128.053C141.829 128.888 142.728 129.305 143.925 129.305C145.123 129.305 146.012 128.878 146.592 128.026C147.173 127.173 147.463 125.867 147.463 124.107C147.463 122.328 147.164 121.022 146.565 120.187C145.984 119.353 145.104 118.936 143.925 118.936Z" fill="#250031"/>
<path d="M87.2114 112.132C87.0662 113.039 86.6761 114.2 86.0411 115.615C85.4242 117.03 84.7075 118.428 83.891 119.807C83.0745 121.167 82.3397 122.22 81.6865 122.964H85.7689V120.188C86.2407 119.534 86.785 118.518 87.4019 117.139C88.0369 115.76 88.4452 114.69 88.6266 113.928H90.8856V122.964H93.5527V126.964H90.8856V131.074H85.7689V126.964H78.1484V122.909C78.8561 121.639 79.3913 120.55 79.7542 119.643L80.5707 117.629C81.5142 115.307 82.122 113.474 82.3941 112.132H87.2114Z" fill="#FF7B02"/>
<path d="M7.94708 112.404C9.59819 112.404 10.9499 112.794 12.0023 113.574C13.0728 114.354 13.608 115.425 13.608 116.785C13.608 118.001 13.2814 119.035 12.6282 119.888C11.9932 120.741 11.2039 121.258 10.2604 121.439V121.576C11.1314 121.92 11.8481 122.519 12.4105 123.372C12.973 124.225 13.2542 125.25 13.2542 126.447C13.2542 127.445 13.3086 128.198 13.4175 128.706C13.5264 129.214 13.6715 129.568 13.853 129.768C14.0344 129.967 14.2975 130.121 14.6422 130.23V130.992C14.2431 131.156 13.8167 131.237 13.3631 131.237C12.4922 131.237 11.8118 130.983 11.3219 130.475C10.832 129.949 10.587 128.969 10.587 127.536C10.587 126.066 10.2786 124.923 9.6617 124.107C9.06294 123.272 8.30997 122.855 7.40276 122.855H2.66717V131.074H0V112.404H7.94708ZM2.66717 114.826V120.432H7.9743C8.75449 120.432 9.44397 120.169 10.0427 119.643C10.6415 119.117 10.9409 118.464 10.9409 117.684V117.575C10.9409 116.776 10.6687 116.123 10.1244 115.615C9.58005 115.089 8.86336 114.826 7.9743 114.826H2.66717Z" fill="#250031"/>
<path d="M23.4075 116.894C24.5506 116.894 25.5576 117.139 26.4285 117.629C27.3175 118.101 28.007 118.781 28.4969 119.67C28.9868 120.559 29.2317 121.594 29.2317 122.773V124.705H19.5156C19.5519 126.175 19.8966 127.309 20.5498 128.107C21.203 128.906 22.1737 129.305 23.4619 129.305C24.605 129.305 25.4487 128.969 25.993 128.298C26.5373 127.627 26.8095 126.828 26.8095 125.903H29.2317C29.2317 126.992 28.9777 127.944 28.4697 128.761C27.9798 129.577 27.2903 130.212 26.4013 130.666C25.5304 131.119 24.5324 131.346 23.4075 131.346H23.2986C21.3391 131.346 19.7878 130.72 18.6447 129.468C17.5198 128.198 16.9573 126.511 16.9573 124.406V123.862C16.9573 122.483 17.2113 121.267 17.7193 120.215C18.2274 119.162 18.9531 118.346 19.8966 117.765C20.8401 117.185 21.9469 116.894 23.217 116.894H23.4075ZM23.2714 118.936C22.2372 118.936 21.3935 119.253 20.7403 119.888C20.1053 120.523 19.7152 121.467 19.57 122.719H26.7006V122.392C26.7006 121.358 26.3831 120.523 25.7481 119.888C25.1312 119.253 24.3056 118.936 23.2714 118.936Z" fill="#250031"/>
<path d="M38.4216 116.894C40.2542 116.894 41.615 117.257 42.504 117.983C43.4112 118.709 43.8648 119.761 43.8648 121.14V128.352C43.8648 128.679 43.9374 128.924 44.0826 129.087C44.2277 129.232 44.4091 129.305 44.6269 129.305C45.0442 129.305 45.4615 129.178 45.8788 128.924V130.802C45.2619 131.165 44.5634 131.346 43.7832 131.346C43.003 131.346 42.4224 131.128 42.0413 130.693C41.6603 130.239 41.4517 129.622 41.4154 128.842C40.2905 130.511 38.6666 131.346 36.5437 131.346C35.0196 131.346 33.8765 131.019 33.1145 130.366C32.3706 129.695 31.9986 128.643 31.9986 127.209C31.9986 126.084 32.2889 125.204 32.8695 124.569C33.4502 123.916 34.4118 123.444 35.7544 123.154C37.0971 122.864 38.9478 122.719 41.3065 122.719V121.439C41.3065 120.514 41.0344 119.87 40.49 119.507C39.9457 119.126 39.1564 118.936 38.1222 118.936C37.1425 118.936 36.3804 119.126 35.8361 119.507C35.2918 119.888 35.0196 120.423 35.0196 121.113V121.439H32.5157C32.4794 121.185 32.4613 120.886 32.4613 120.541C32.4613 119.906 32.7153 119.308 33.2233 118.745C33.7314 118.183 34.4209 117.738 35.2918 117.411C36.1627 117.067 37.1243 116.894 38.1767 116.894H38.4216ZM41.3065 124.705C39.4014 124.705 37.9589 124.805 36.9792 125.005C36.0175 125.186 35.3734 125.467 35.0468 125.848C34.7202 126.229 34.5569 126.756 34.5569 127.427C34.5569 128.679 35.5095 129.305 37.4146 129.305C38.0859 129.305 38.721 129.142 39.3197 128.815C39.9185 128.47 40.3993 127.989 40.7622 127.373C41.1251 126.756 41.3065 126.048 41.3065 125.25V124.705Z" fill="#250031"/>
<path d="M54.3147 116.894C55.4215 116.894 56.4104 117.139 57.2813 117.629C58.1703 118.101 58.8598 118.772 59.3497 119.643C59.8396 120.514 60.0845 121.512 60.0845 122.637H57.5534C57.5534 121.512 57.2631 120.614 56.6825 119.943C56.1201 119.271 55.3036 118.936 54.2331 118.936C53.1081 118.936 52.21 119.317 51.5387 120.079C50.8855 120.823 50.5589 121.848 50.5589 123.154V124.624C50.5589 126.202 50.8855 127.382 51.5387 128.162C52.1919 128.924 53.1172 129.305 54.3147 129.305C55.4215 129.305 56.2471 128.978 56.7914 128.325C57.3538 127.654 57.6351 126.756 57.6351 125.631H60.0845C60.0845 127.373 59.5583 128.761 58.506 129.795C57.4718 130.829 56.0838 131.346 54.3419 131.346H54.1242C52.8904 131.346 51.8108 131.065 50.8855 130.502C49.9602 129.922 49.2435 129.114 48.7354 128.08C48.2455 127.046 48.0006 125.839 48.0006 124.46V123.807C48.0006 122.428 48.2546 121.222 48.7626 120.187C49.2707 119.135 49.9874 118.328 50.9127 117.765C51.8381 117.185 52.8995 116.894 54.097 116.894H54.3147Z" fill="#250031"/>
<path d="M66.2339 118.908C67.3769 117.566 68.8103 116.894 70.534 116.894C72.0581 116.894 73.2556 117.303 74.1265 118.119C74.9974 118.936 75.4329 120.133 75.4329 121.712V131.074H72.8746V122.174C72.8746 120.015 71.8948 118.936 69.9352 118.936C69.2821 118.936 68.6742 119.108 68.1118 119.453C67.5493 119.797 67.0957 120.269 66.751 120.868C66.4062 121.449 66.2339 122.093 66.2339 122.8V131.074H63.6755V111.478H66.2339V118.908Z" fill="#250031"/>
<path d="M110.651 112.404V131.074H107.983V122.746H99.4649V131.074H96.7977V112.404H99.4649V120.324H107.983V112.404H110.651Z" fill="#250031"/>
<path d="M121.003 116.894C122.146 116.894 123.153 117.139 124.024 117.629C124.913 118.101 125.602 118.781 126.092 119.67C126.582 120.559 126.827 121.594 126.827 122.773V124.705H117.111C117.147 126.175 117.492 127.309 118.145 128.107C118.798 128.906 119.769 129.305 121.057 129.305C122.2 129.305 123.044 128.969 123.588 128.298C124.132 127.627 124.405 126.828 124.405 125.903H126.827C126.827 126.992 126.573 127.944 126.065 128.761C125.575 129.577 124.885 130.212 123.996 130.666C123.125 131.119 122.127 131.346 121.003 131.346H120.894C118.934 131.346 117.383 130.72 116.24 129.468C115.115 128.198 114.552 126.511 114.552 124.406V123.862C114.552 122.483 114.806 121.267 115.314 120.215C115.822 119.162 116.548 118.346 117.492 117.765C118.435 117.185 119.542 116.894 120.812 116.894H121.003ZM120.866 118.936C119.832 118.936 118.989 119.253 118.335 119.888C117.7 120.523 117.31 121.467 117.165 122.719H124.296V122.392C124.296 121.358 123.978 120.523 123.343 119.888C122.726 119.253 121.901 118.936 120.866 118.936Z" fill="#250031"/>
<path d="M133.213 111.478V131.074H130.655V111.478H133.213Z" fill="#250031"/>
<path d="M144.388 116.894C146.148 116.894 147.527 117.538 148.525 118.827C149.522 120.115 150.021 121.884 150.021 124.134V124.433C150.021 126.574 149.522 128.262 148.525 129.495C147.545 130.729 146.166 131.346 144.388 131.346C142.682 131.346 141.349 130.666 140.387 129.305V136H137.829V117.167H139.734C139.861 117.747 139.979 118.382 140.088 119.072C141.122 117.62 142.555 116.894 144.388 116.894ZM143.925 118.936C142.691 118.936 141.784 119.362 141.203 120.215C140.641 121.067 140.36 122.365 140.36 124.107C140.36 125.885 140.65 127.2 141.231 128.053C141.829 128.888 142.728 129.305 143.925 129.305C145.123 129.305 146.012 128.878 146.592 128.026C147.173 127.173 147.463 125.867 147.463 124.107C147.463 122.328 147.164 121.022 146.565 120.187C145.984 119.353 145.104 118.936 143.925 118.936Z" fill="#250031"/>
<path d="M87.2114 112.132C87.0662 113.039 86.6761 114.2 86.0411 115.615C85.4242 117.03 84.7075 118.428 83.891 119.807C83.0745 121.167 82.3397 122.22 81.6865 122.964H85.7689V120.188C86.2407 119.534 86.785 118.518 87.4019 117.139C88.0369 115.76 88.4452 114.69 88.6266 113.928H90.8856V122.964H93.5527V126.964H90.8856V131.074H85.7689V126.964H78.1484V122.909C78.8561 121.639 79.3913 120.55 79.7542 119.643L80.5707 117.629C81.5142 115.307 82.122 113.474 82.3941 112.132H87.2114Z" fill="#FF7B02"/>
<defs>
<linearGradient id="paint0_linear" x1="29.1999" y1="2.44888" x2="117.021" y2="90.27" gradientUnits="userSpaceOnUse">
<stop stop-color="#F27979"/>
<stop offset="1" stop-color="#7D00A3"/>
</linearGradient>
<linearGradient id="paint1_linear" x1="73.3211" y1="23.8242" x2="73.3211" y2="9.97926" gradientUnits="userSpaceOnUse">
<stop stop-color="white"/>
<stop offset="1" stop-color="#DDDDDD"/>
</linearGradient>
<linearGradient id="paint2_linear" x1="73.3181" y1="23.8245" x2="73.3181" y2="9.97963" gradientUnits="userSpaceOnUse">
<stop stop-color="white"/>
<stop offset="1" stop-color="#F2F2F2" stop-opacity="0"/>
</linearGradient>
<linearGradient id="paint3_linear" x1="48.7837" y1="21.7368" x2="39.2349" y2="12.188" gradientUnits="userSpaceOnUse">
<stop stop-color="white"/>
<stop offset="1" stop-color="#DDDDDD"/>
</linearGradient>
<linearGradient id="paint4_linear" x1="48.7837" y1="21.7367" x2="39.2349" y2="12.1879" gradientUnits="userSpaceOnUse">
<stop stop-color="white"/>
<stop offset="1" stop-color="#F2F2F2" stop-opacity="0"/>
</linearGradient>
<linearGradient id="paint5_linear" x1="96.4487" y1="69.4092" x2="105.997" y2="78.9579" gradientUnits="userSpaceOnUse">
<stop stop-color="white"/>
<stop offset="1" stop-color="#DDDDDD"/>
</linearGradient>
<linearGradient id="paint6_linear" x1="96.4567" y1="69.4092" x2="106.005" y2="78.9579" gradientUnits="userSpaceOnUse">
<stop stop-color="white"/>
<stop offset="1" stop-color="#F2F2F2" stop-opacity="0"/>
</linearGradient>
<linearGradient id="paint7_linear" x1="94.5474" y1="45.7475" x2="107.973" y2="45.7475" gradientUnits="userSpaceOnUse">
<stop stop-color="white"/>
<stop offset="1" stop-color="#DDDDDD"/>
</linearGradient>
<linearGradient id="paint8_linear" x1="94.5449" y1="45.7476" x2="107.97" y2="45.7476" gradientUnits="userSpaceOnUse">
<stop stop-color="white"/>
<stop offset="1" stop-color="#F2F2F2" stop-opacity="0"/>
</linearGradient>
<linearGradient id="paint9_linear" x1="96.4487" y1="21.7366" x2="105.997" y2="12.1879" gradientUnits="userSpaceOnUse">
<stop stop-color="white"/>
<stop offset="1" stop-color="#DDDDDD"/>
</linearGradient>
<linearGradient id="paint10_linear" x1="96.4567" y1="21.7366" x2="106.005" y2="12.1879" gradientUnits="userSpaceOnUse">
<stop stop-color="white"/>
<stop offset="1" stop-color="#F2F2F2" stop-opacity="0"/>
</linearGradient>
<radialGradient id="paint11_angular" cx="0" cy="0" r="1" gradientUnits="userSpaceOnUse" gradientTransform="translate(73.0595 69.8534) rotate(90) scale(8.60062 14.4548)">
<stop stop-color="#FFCB52"/>
<stop offset="1" stop-color="#FF7B02"/>
</radialGradient>
<linearGradient id="paint12_linear" x1="72.8407" y1="60.0233" x2="72.8407" y2="85.2221" gradientUnits="userSpaceOnUse">
<stop stop-color="white"/>
<stop offset="1" stop-color="white" stop-opacity="0"/>
</linearGradient>
<radialGradient id="paint13_angular" cx="0" cy="0" r="1" gradientUnits="userSpaceOnUse" gradientTransform="translate(73.651 43.613) rotate(90) scale(0.484593 0.553543)">
<stop stop-color="#FFCB52"/>
<stop offset="1" stop-color="#FF7B02"/>
</radialGradient>
<linearGradient id="paint14_linear" x1="73.0505" y1="56.0086" x2="73.0505" y2="32.724" gradientUnits="userSpaceOnUse">
<stop stop-color="white"/>
<stop offset="1" stop-color="white" stop-opacity="0.3"/>
</linearGradient>
<linearGradient id="paint15_linear" x1="48.7803" y1="69.4092" x2="39.2315" y2="78.9579" gradientUnits="userSpaceOnUse">
<stop stop-color="white"/>
<stop offset="1" stop-color="#DDDDDD"/>
</linearGradient>
<linearGradient id="paint16_linear" x1="48.784" y1="69.4092" x2="39.2352" y2="78.9579" gradientUnits="userSpaceOnUse">
<stop stop-color="white"/>
<stop offset="1" stop-color="#F2F2F2" stop-opacity="0"/>
</linearGradient>
<linearGradient id="paint17_linear" x1="50.752" y1="45.7475" x2="37.3266" y2="45.7475" gradientUnits="userSpaceOnUse">
<stop stop-color="white"/>
<stop offset="1" stop-color="#DDDDDD"/>
</linearGradient>
<linearGradient id="paint18_linear" x1="50.7491" y1="45.7476" x2="37.3237" y2="45.7476" gradientUnits="userSpaceOnUse">
<stop stop-color="white"/>
<stop offset="1" stop-color="#F2F2F2" stop-opacity="0"/>
</linearGradient>
</defs>
</svg>
