<svg width="40" height="40" viewBox="0 0 40 40" fill="none" xmlns="http://www.w3.org/2000/svg">
<path fill-rule="evenodd" clip-rule="evenodd" d="M0 20C0 8.9543 8.9543 0 20 0C31.0457 0 40 8.9543 40 20C40 31.0457 31.0457 40 20 40C8.9543 40 0 31.0457 0 20Z" fill="#1890FF"/>
<path d="M29.5075 12.883L26.734 10.1121C26.3955 9.7736 25.9424 9.5835 25.4632 9.5835C24.984 9.5835 24.5309 9.771 24.1924 10.1121L21.2054 13.0939C20.8669 13.4325 20.6768 13.8882 20.6768 14.3674C20.6768 14.8491 20.8643 15.2996 21.2054 15.6408L23.5387 17.9767C23.0072 19.2152 22.2434 20.3405 21.2887 21.2918C20.333 22.2528 19.2158 23.0106 17.9762 23.547L15.6429 21.2111C15.3044 20.8726 14.8512 20.6825 14.3721 20.6825C14.1357 20.6816 13.9016 20.7279 13.6834 20.8187C13.4651 20.9094 13.2672 21.0429 13.1012 21.2111L10.1117 24.1929C9.77311 24.5314 9.58301 24.9871 9.58301 25.4663C9.58301 25.9481 9.77051 26.3986 10.1117 26.7397L12.8825 29.5106C13.4606 30.0887 14.2575 30.4194 15.0752 30.4194C15.2445 30.4194 15.4085 30.4064 15.5752 30.3778C19.0231 29.8101 22.445 27.9741 25.208 25.2137C27.9684 22.4481 29.8018 19.0262 30.3747 15.5757C30.5387 14.5965 30.2106 13.5887 29.5075 12.883ZM28.5283 15.2658C28.0205 18.3361 26.3695 21.3986 23.8825 23.8856C21.3955 26.3726 18.3356 28.0236 15.2653 28.5314C14.8799 28.5965 14.484 28.4663 14.2028 28.1877L11.4814 25.4663L14.3669 22.5783L17.4867 25.7033L17.5101 25.7267L18.0726 25.5184C19.7781 24.8913 21.3269 23.9009 22.6116 22.6157C23.8963 21.3306 24.8862 19.7814 25.5127 18.0757L25.721 17.5132L22.5752 14.37L25.4606 11.4819L28.182 14.2033C28.4632 14.4845 28.5934 14.8804 28.5283 15.2658Z" fill="white"/>
</svg>
