<svg width="24" height="26" viewBox="0 0 24 26" fill="none" xmlns="http://www.w3.org/2000/svg">
<path d="M16.8203 5.50155C16.9529 5.50155 17.0613 5.60228 17.0613 5.7254V7.06852C17.0613 7.19164 16.9529 7.29237 16.8203 7.29237H5.24907C5.11648 7.29237 5.008 7.19164 5.008 7.06852V5.7254C5.008 5.60228 5.11648 5.50155 5.24907 5.50155H16.8203Z" fill="white"/>
<path d="M5.24907 9.53091H16.8203C16.9529 9.53091 17.0613 9.63164 17.0613 9.75476V11.0979C17.0613 11.221 16.9529 11.3217 16.8203 11.3217H5.24907C5.11648 11.3217 5.008 11.221 5.008 11.0979V9.75476C5.008 9.63164 5.11648 9.53091 5.24907 9.53091Z" fill="white"/>
<path d="M5.24907 13.5603H10.7936C10.9262 13.5603 11.0347 13.661 11.0347 13.7841V15.1272C11.0347 15.2504 10.9262 15.3511 10.7936 15.3511H5.24907C5.11648 15.3511 5.008 15.2504 5.008 15.1272V13.7841C5.008 13.661 5.11648 13.5603 5.24907 13.5603Z" fill="white"/>
<path d="M2.59733 22.1786H9.3472C9.47979 22.1786 9.58827 22.2794 9.58827 22.4025V23.9695C9.58827 24.0926 9.47979 24.1933 9.3472 24.1933H1.392C0.858641 24.1933 0.427734 23.7932 0.427734 23.2979V1.36026C0.427734 0.864982 0.858641 0.464844 1.392 0.464844H20.6773C21.2107 0.464844 21.6416 0.864982 21.6416 1.36026V12.1052C21.6416 12.2283 21.5331 12.3291 21.4005 12.3291H19.7131C19.5805 12.3291 19.472 12.2283 19.472 12.1052V2.47952H2.59733V22.1786Z" fill="white"/>
<path fill-rule="evenodd" clip-rule="evenodd" d="M17.1442 19.5651V15.9834H19.7156V19.5651H23.5726V21.9528H19.7156V25.5345H17.1442V21.9528H13.2871V19.5651H17.1442Z" fill="white"/>
</svg>
