<svg width="24" height="24" viewBox="0 0 24 24" fill="none" xmlns="http://www.w3.org/2000/svg">
<path d="M23.5023 11.8073L13.2734 0.982491L12.5877 0.256537C12.4315 0.0922208 12.2203 0 12 0C11.7798 0 11.5686 0.0922208 11.4124 0.256537L0.497791 11.8073C0.337715 11.9762 0.211205 12.1772 0.125727 12.3987C0.0402491 12.6201 -0.0024636 12.8575 0.000109727 13.0967C0.0106987 14.0833 0.78634 14.8709 1.71817 14.8709H2.84325V24H21.1569V14.8709H22.3058C22.7584 14.8709 23.1846 14.6831 23.505 14.344C23.6627 14.1775 23.7876 13.9796 23.8726 13.7616C23.9576 13.5437 24.0009 13.31 24 13.0743C24 12.5978 23.8226 12.1465 23.5023 11.8073ZM13.4825 21.9819H10.5176V16.264H13.4825V21.9819ZM19.2508 12.8528V21.9819H15.1767V15.5913C15.1767 14.9718 14.7029 14.4701 14.1178 14.4701H9.88226C9.29722 14.4701 8.82336 14.9718 8.82336 15.5913V21.9819H4.74926V12.8528H2.20791L12.0027 2.49046L12.6142 3.13793L21.7948 12.8528H19.2508Z" fill="#811E79"/>
</svg>
