<svg width="25" height="24" viewBox="0 0 25 24" fill="none" xmlns="http://www.w3.org/2000/svg">
<path d="M6.29102 12.247V2.92742C6.29102 2.28846 6.90125 1.77051 7.65404 1.77051V1.77051C8.40684 1.77051 9.01707 2.28846 9.01707 2.92742V10.8751" stroke="#811E79" stroke-width="1.2" stroke-linecap="round" stroke-linejoin="round"/>
<path d="M9.01758 10.8759V2.15691C9.01758 1.51796 9.62781 1 10.3806 1V1C11.1334 1 11.7436 1.51796 11.7436 2.15691V10.8759" stroke="#811E79" stroke-width="1.2" stroke-linecap="round" stroke-linejoin="round"/>
<path d="M11.7441 10.8751V2.92742C11.7441 2.28846 12.3544 1.77051 13.1072 1.77051V1.77051C13.86 1.77051 14.4702 2.28846 14.4702 2.92742V9.71211" stroke="#811E79" stroke-width="1.2" stroke-linecap="round" stroke-linejoin="round"/>
<path d="M14.4688 10.2951V5.01336C14.4688 4.3744 15.079 3.85645 15.8318 3.85645V3.85645C16.5846 3.85645 17.1948 4.3744 17.1948 5.01336V11.0912" stroke="#811E79" stroke-width="1.2" stroke-linecap="round" stroke-linejoin="round"/>
<path d="M16.3594 20.5557V23.0001" stroke="#811E79" stroke-width="1.2" stroke-linecap="round" stroke-linejoin="round"/>
<path d="M12.5456 16.0586C12.5456 16.0586 12.1714 12.7013 6.29174 12.7013L4.42092 11.2949L3.74409 9.01531C3.47191 8.08127 2.33787 7.52782 1.24987 7.7981L1 7.8469L1.83435 11.4147C1.88362 11.636 1.97197 11.8498 2.09639 12.0488L3.9089 14.9869C4.07047 15.2452 4.28998 15.4742 4.55503 15.6611L6.81856 17.219C7.16199 17.4611 7.36073 17.8204 7.36073 18.1993V23" stroke="#811E79" stroke-width="1.2" stroke-linecap="round" stroke-linejoin="round"/>
<path fill-rule="evenodd" clip-rule="evenodd" d="M21.9049 12.4443C21.2101 12.4443 20.7621 12.521 20.2487 12.7537C20.0586 12.8399 19.8802 12.9436 19.7146 13.0647C19.5553 12.9504 19.3841 12.8514 19.2019 12.768C18.6784 12.5282 18.2075 12.4443 17.5376 12.4443C15.7433 12.4443 14.4395 13.8209 14.4395 15.6087C14.4395 16.9589 15.2525 18.2632 16.7669 19.5243C17.5618 20.1863 18.5767 20.8414 19.3035 21.1899L19.7194 21.3893L20.1353 21.1899C20.8621 20.8414 21.877 20.1863 22.6719 19.5243C24.1863 18.2632 24.9993 16.9589 24.9993 15.6087C24.9993 13.8398 23.6832 12.4512 21.9049 12.4443ZM24.0383 15.6081C24.0383 16.6659 23.3597 17.7545 22.029 18.8627C21.3034 19.467 20.3707 20.0708 19.7184 20.3876C19.0661 20.0708 18.1334 19.467 17.4078 18.8627C16.0771 17.7545 15.3984 16.6659 15.3984 15.6081C15.3984 14.2871 16.3026 13.3326 17.5366 13.3326C18.0693 13.3326 18.3975 13.391 18.7753 13.564C18.9984 13.6662 19.1956 13.8012 19.3663 13.9698L19.7195 14.3187L20.0695 13.967C20.244 13.7916 20.4442 13.6536 20.6697 13.5514C21.0364 13.3852 21.3441 13.3326 21.9019 13.3326C23.1207 13.3372 24.0383 14.3054 24.0383 15.6081Z" fill="#811E79"/>
</svg>
