<svg width="24" height="24" viewBox="0 0 24 24" fill="none" xmlns="http://www.w3.org/2000/svg">
<path fill-rule="evenodd" clip-rule="evenodd" d="M6.54332 6C6.54332 2.685 9.22832 0 12.5433 0C15.8583 0 18.5433 2.685 18.5433 6C18.5433 9.315 15.8583 12 12.5433 12C9.22832 12 6.54332 9.315 6.54332 6ZM16.3629 5.99983C16.3629 3.89983 14.6447 2.18165 12.5447 2.18165C10.4447 2.18165 8.72656 3.89983 8.72656 5.99983C8.72656 8.09983 10.4447 9.81801 12.5447 9.81801C14.6447 9.81801 16.3629 8.09983 16.3629 5.99983ZM11.9979 15.2726C16.4161 15.2726 21.4888 18.0871 21.8161 19.6362V21.818H2.17969V19.658C2.50696 18.0871 7.57969 15.2726 11.9979 15.2726ZM0 19.4998C0 15.5098 7.995 13.4998 12 13.4998C16.005 13.4998 24 15.5098 24 19.4998V23.9998H0V19.4998Z" fill="#811E79"/>
</svg>
