<svg width="24" height="24" viewBox="0 0 24 24" fill="none" xmlns="http://www.w3.org/2000/svg">
<path fill-rule="evenodd" clip-rule="evenodd" d="M21.702 17.1152V13.4424C22.4869 13.3333 23.2063 12.9091 23.638 12.2303C24.3837 11.0424 23.9389 9.52727 22.6569 8.83636C22.3561 8.67879 22.029 8.5697 21.702 8.53333V4.93333C22.984 4.73939 23.952 3.72121 23.952 2.48485C23.952 1.11515 22.7485 0 21.2703 0C19.9491 0 18.8503 0.884849 18.6279 2.06061H14.6904C14.5988 1.57576 14.3503 1.10303 13.9447 0.727273C12.8982 -0.242424 11.1977 -0.242424 10.1511 0.727273C9.74562 1.10303 9.49707 1.57576 9.4055 2.06061H5.3372C5.1279 0.884849 4.01598 0 2.69476 0C1.21657 0 0.0130812 1.11515 0.0130812 2.48485C0.0130812 3.75758 1.04651 4.8 2.36773 4.94545V8.60606C1.58285 8.70303 0.837207 9.13939 0.405522 9.8303C-0.340116 11.0182 0.104651 12.5333 1.38662 13.2242C1.70058 13.3939 2.02761 13.4909 2.35465 13.5394V17.1152C1.03343 17.2606 0 18.3152 0 19.5758C0 20.9455 1.20349 22.0606 2.68168 22.0606C4.01598 22.0606 5.1279 21.1515 5.32412 19.9758H8.11045V22.4242C8.11045 23.297 8.86917 24 9.81103 24H14.1279C15.0697 24 15.8285 23.297 15.8285 22.4242V19.9636H18.6148C18.8241 21.1515 19.9229 22.0485 21.2572 22.0485C22.7354 22.0485 23.9389 20.9333 23.9389 19.5636C23.952 18.3273 22.984 17.297 21.702 17.1152ZM22.2645 9.46667C23.1671 9.95152 23.4811 11.0303 22.9578 11.8667C22.6831 12.3152 22.2122 12.6061 21.702 12.703C21.4796 12.7515 21.2441 12.7515 21.0218 12.7152C20.7994 12.6788 20.577 12.6182 20.3677 12.497C19.9098 12.2545 19.5959 11.8424 19.4782 11.4061C19.4128 11.1879 19.3997 10.9576 19.4389 10.7394C19.4651 10.5212 19.5436 10.303 19.6744 10.1091C19.9752 9.63636 20.4723 9.33333 21.0218 9.24849C21.2441 9.21212 21.4796 9.22424 21.702 9.26061C21.8982 9.29697 22.0813 9.3697 22.2645 9.46667ZM19.4389 2.04849C19.6482 1.28485 20.3939 0.715152 21.2834 0.715152C22.3299 0.715152 23.1802 1.50303 23.1802 2.47273C23.1802 3.30909 22.5523 4.01212 21.7151 4.18182C21.5843 4.20606 21.4404 4.2303 21.2834 4.2303C21.1918 4.2303 21.1133 4.2303 21.0218 4.21818C20.6816 4.18182 20.3677 4.04848 20.1061 3.85455C19.9229 3.72121 19.7659 3.56364 19.6482 3.3697C19.5174 3.16364 19.4258 2.92121 19.3866 2.67879C19.3735 2.60606 19.3735 2.54545 19.3735 2.47273C19.3735 2.32727 19.3997 2.18182 19.4389 2.04849ZM19.5436 4.37576C19.9491 4.69091 20.4593 4.89697 21.0087 4.94545V8.50909C20.1846 8.59394 19.4258 9.0303 18.9811 9.73333C18.7848 10.0485 18.6671 10.3879 18.6279 10.7273H16.5872C16.6133 10.5455 16.6264 10.3515 16.6264 10.1576C16.6264 9.28485 16.3386 8.46061 15.8415 7.79394L19.5436 4.37576ZM14.7296 2.67879H18.6148C18.654 3.12727 18.8241 3.55152 19.0857 3.90303L15.4229 7.29697C14.6642 6.54545 13.6177 6.03636 12.4535 5.95152V4.93333C13.0029 4.86061 13.5392 4.6303 13.9578 4.2303C14.4157 3.79394 14.6773 3.24849 14.7296 2.67879ZM15.3183 10.1697C15.3183 10.3636 15.3052 10.5576 15.2529 10.7394C15.2136 10.9697 15.1351 11.2 15.0305 11.4061C14.8343 11.8303 14.5334 12.1939 14.154 12.4848C13.9709 12.6303 13.7747 12.7515 13.5654 12.8485C13.2253 13.0182 12.8328 13.1273 12.4273 13.1758C12.2965 13.1879 12.1657 13.2 12.0349 13.2C11.891 13.2 11.7471 13.1879 11.6163 13.1758C11.1977 13.1273 10.7921 12.9939 10.4389 12.8121C10.2296 12.703 10.0465 12.5818 9.86335 12.4364C9.52323 12.1576 9.24853 11.8061 9.05231 11.4182C8.94765 11.2 8.86917 10.9818 8.82992 10.7515C8.79068 10.5697 8.76452 10.3758 8.76452 10.1818C8.76452 9.67273 8.89533 9.18788 9.14388 8.77576C9.24853 8.58182 9.37934 8.4 9.53632 8.2303C10.0465 7.66061 10.779 7.27273 11.6163 7.17576C11.7601 7.16364 11.904 7.15152 12.0349 7.15152C12.1657 7.15152 12.2965 7.16364 12.4273 7.17576C13.2383 7.26061 13.9578 7.62424 14.4811 8.1697C14.638 8.32727 14.7689 8.50909 14.8866 8.70303C15.1744 9.12727 15.3183 9.63636 15.3183 10.1697ZM10.2165 2.04849C10.295 1.74545 10.4651 1.46667 10.7136 1.22424C11.4593 0.533334 12.6497 0.533334 13.3953 1.22424C13.6439 1.45455 13.8139 1.74545 13.8924 2.04849C13.9447 2.25455 13.9578 2.47273 13.9317 2.67879C13.8793 3.05455 13.6962 3.4303 13.3822 3.72121C13.1075 3.97576 12.7805 4.13333 12.4273 4.19394C12.1526 4.24242 11.8779 4.24242 11.6163 4.18182C11.2761 4.10909 10.9622 3.95152 10.7006 3.70909C10.3866 3.41818 10.2035 3.05455 10.1642 2.66667C10.1381 2.47273 10.1511 2.25455 10.2165 2.04849ZM5.37644 2.67879H9.37934C9.43167 3.24849 9.69329 3.79394 10.1511 4.2303C10.5697 4.61818 11.0799 4.84848 11.6163 4.93333V5.95152C10.4258 6.04849 9.36626 6.58182 8.60754 7.35758L4.89243 3.90303C5.16714 3.55152 5.3372 3.12727 5.37644 2.67879ZM0.797963 2.47273C0.797963 1.50303 1.64825 0.715152 2.69476 0.715152C3.58429 0.715152 4.32993 1.28485 4.53923 2.04849C4.57848 2.18182 4.59156 2.32727 4.59156 2.47273C4.59156 2.54545 4.59156 2.60606 4.57848 2.67879C4.55232 2.93333 4.46075 3.16364 4.31685 3.3697C4.19912 3.55152 4.04214 3.72121 3.859 3.85455C3.62354 4.02424 3.34883 4.14545 3.04796 4.19394C2.93023 4.21818 2.81249 4.21818 2.69476 4.21818C2.59011 4.21818 2.47238 4.20606 2.36773 4.19394C1.47819 4.06061 0.797963 3.34545 0.797963 2.47273ZM1.79215 12.5818C0.889533 12.097 0.57558 11.0182 1.09883 10.1818C1.38662 9.72121 1.85755 9.4303 2.38081 9.33333C2.60319 9.29697 2.83866 9.28485 3.06104 9.32121C3.28342 9.35758 3.49272 9.41818 3.70203 9.52727C4.19912 9.79394 4.52615 10.2424 4.61772 10.7273C4.65697 10.9455 4.65697 11.1758 4.61772 11.3939C4.57848 11.5758 4.51307 11.7576 4.39534 11.9152C4.10755 12.3879 3.61046 12.6909 3.06104 12.7636C2.83866 12.8 2.60319 12.8 2.38081 12.7515C2.17151 12.7515 1.97529 12.6788 1.79215 12.5818ZM4.55232 19.9636C4.35609 20.7394 3.61046 21.3212 2.70784 21.3212C1.66133 21.3212 0.811045 20.5333 0.811045 19.5636C0.811045 18.6909 1.49128 17.9758 2.38081 17.8303C2.48546 17.8182 2.60319 17.8061 2.70784 17.8061C2.82558 17.8061 2.94331 17.8182 3.06104 17.8303C3.32267 17.8788 3.55813 17.9636 3.76743 18.097C3.96365 18.2182 4.13371 18.3636 4.26453 18.5455C4.43458 18.7758 4.55232 19.0303 4.59156 19.3212C4.60464 19.3939 4.60464 19.4788 4.60464 19.5636C4.59156 19.697 4.57848 19.8303 4.55232 19.9636ZM4.31685 17.5879C3.95057 17.3333 3.51889 17.1636 3.04796 17.103V13.5273C3.859 13.4424 4.61772 13.0061 5.06249 12.303C5.24563 12.0242 5.35028 11.7212 5.38952 11.4182C5.42877 11.1879 5.42877 10.9697 5.38952 10.7515C5.28487 10.0121 4.82702 9.32121 4.06831 8.92121C3.74127 8.75152 3.38807 8.64242 3.03488 8.60606V4.93333C3.55813 4.87273 4.02906 4.66667 4.40842 4.37576L8.18894 7.87879C7.73109 8.54545 7.45638 9.33333 7.45638 10.1818C7.45638 10.3758 7.46946 10.5697 7.49562 10.7515C7.52179 10.9818 7.58719 11.2 7.6526 11.4182C7.88806 12.1455 8.33283 12.8 8.93457 13.297L4.31685 17.5879ZM8.12353 16.7152V19.3212H5.36336C5.31103 18.8364 5.11481 18.3879 4.80086 18.0242L9.48399 13.6848C10.0988 14.0727 10.8314 14.3273 11.6163 14.3879V14.4121H10.5959C9.24853 14.4121 8.12353 15.4424 8.12353 16.7152ZM14.5334 22.4121C14.5334 22.6182 14.3633 22.7758 14.141 22.7758H9.82411C9.60172 22.7758 9.43167 22.6182 9.43167 22.4121V16.7152C9.43167 16.1091 9.95492 15.6242 10.609 15.6242H13.3561C14.0101 15.6242 14.5334 16.1091 14.5334 16.7152V22.4121ZM18.6017 19.3333H15.8415V16.7273C15.8415 15.4545 14.7296 14.4242 13.3561 14.4242H12.0479C12.1788 14.4242 12.3096 14.4242 12.4404 14.4121C13.1991 14.3515 13.9186 14.1212 14.5334 13.7576L19.1642 18.0485C18.8633 18.4 18.654 18.8485 18.6017 19.3333ZM15.0959 13.3455C15.7238 12.8364 16.1947 12.1576 16.4433 11.4061H18.6802C18.811 12.1091 19.2689 12.7515 19.9883 13.1273C20.3154 13.3091 20.6686 13.4061 21.0348 13.4424V17.0788C20.5247 17.1273 20.0668 17.297 19.6744 17.5636L15.0959 13.3455ZM21.2703 21.3212C20.3677 21.3212 19.6221 20.7394 19.4258 19.9636C19.3997 19.8424 19.3735 19.7091 19.3735 19.5636C19.3735 19.4788 19.3735 19.4061 19.3866 19.3212C19.4258 19.0303 19.5436 18.7758 19.7136 18.5455C19.8444 18.3636 20.0145 18.2182 20.2107 18.097C20.4462 17.9515 20.7209 17.8545 21.0087 17.8182C21.0872 17.8061 21.1787 17.8061 21.2703 17.8061C21.4142 17.8061 21.5581 17.8182 21.702 17.8545C22.5392 18.0364 23.1671 18.7273 23.1671 19.5636C23.1671 20.5333 22.3299 21.3212 21.2703 21.3212Z" fill="#811E79"/>
<path d="M5.38952 10.7515C5.42877 10.9697 5.42877 11.1879 5.38952 11.4182H7.6526C7.58719 11.2 7.52179 10.9818 7.49562 10.7515H5.38952Z" fill="#811E79"/>
</svg>
