<svg width="14" height="14" viewBox="0 0 14 14" fill="none" xmlns="http://www.w3.org/2000/svg">
<path fill-rule="evenodd" clip-rule="evenodd" d="M6.95484 0C3.11338 0 0 3.13359 0 7C0 10.8664 3.11338 14 6.95484 14C10.7963 14 13.9097 10.8664 13.9097 7C13.9097 3.13359 10.7963 0 6.95484 0ZM7.38952 10.9375C7.38952 11.1795 7.19527 11.375 6.95484 11.375C6.71441 11.375 6.52016 11.1795 6.52016 10.9375C6.52016 10.6955 6.71441 10.5 6.95484 10.5C7.19527 10.5 7.38952 10.6955 7.38952 10.9375ZM7.38952 9.1875C7.38952 9.42949 7.19527 9.625 6.95484 9.625C6.71441 9.625 6.52016 9.42949 6.52016 9.1875V3.0625C6.52016 2.82051 6.71441 2.625 6.95484 2.625C7.19527 2.625 7.38952 2.82051 7.38952 3.0625V9.1875Z" fill="#FFBF00"/>
</svg>
