<svg width="211" height="172" viewBox="0 0 211 172" fill="none" xmlns="http://www.w3.org/2000/svg">
<path d="M73.0478 140.726L199.489 140.726L199.489 18.384L73.0478 18.384L73.0478 140.726Z" fill="white"/>
<path d="M199.489 141.144H73.0477C72.9393 141.144 72.8354 141.101 72.7588 141.024C72.6821 140.947 72.6391 140.843 72.6391 140.735V18.3923C72.6391 18.2838 72.6821 18.1798 72.7588 18.103C72.8354 18.0263 72.9393 17.9832 73.0477 17.9832H199.489C199.598 17.9832 199.701 18.0263 199.778 18.103C199.855 18.1798 199.898 18.2838 199.898 18.3923V140.735C199.898 140.843 199.855 140.947 199.778 141.024C199.701 141.101 199.598 141.144 199.489 141.144ZM73.4562 140.326H199.081V18.8014H73.4562V140.326Z" fill="#231F20"/>
<path d="M187.968 42.522H85.5498C85.4414 42.522 85.3375 42.4789 85.2609 42.4021C85.1843 42.3254 85.1412 42.2214 85.1412 42.1129C85.1412 42.0043 85.1843 41.9003 85.2609 41.8236C85.3375 41.7468 85.4414 41.7037 85.5498 41.7037H187.968C188.076 41.7037 188.18 41.7468 188.257 41.8236C188.333 41.9003 188.376 42.0043 188.376 42.1129C188.376 42.2214 188.333 42.3254 188.257 42.4021C188.18 42.4789 188.076 42.522 187.968 42.522Z" fill="#D1D3D4"/>
<path d="M130.933 68.8856H85.5498C85.4414 68.8856 85.3375 68.8425 85.2609 68.7658C85.1843 68.6891 85.1412 68.585 85.1412 68.4765C85.1412 68.368 85.1843 68.2639 85.2609 68.1872C85.3375 68.1105 85.4414 68.0674 85.5498 68.0674H130.933C131.041 68.0674 131.145 68.1105 131.222 68.1872C131.298 68.2639 131.341 68.368 131.341 68.4765C131.341 68.585 131.298 68.6891 131.222 68.7658C131.145 68.8425 131.041 68.8856 130.933 68.8856Z" fill="#D1D3D4"/>
<path d="M138.254 24.3409L137.511 29.103C137.511 29.103 135.533 30.3958 133.932 28.9721L133.384 23.8827L138.254 24.3409Z" fill="white"/>
<path d="M135.688 30.0684C134.94 30.078 134.216 29.8031 133.662 29.2993C133.587 29.2316 133.54 29.1381 133.531 29.0374L132.975 23.948C132.969 23.8884 132.976 23.828 132.996 23.7714C133.015 23.7147 133.048 23.6632 133.09 23.6207C133.131 23.5759 133.182 23.5414 133.239 23.52C133.295 23.4987 133.356 23.4911 133.417 23.498L138.319 23.9562C138.432 23.9725 138.534 24.031 138.605 24.1199C138.639 24.1635 138.664 24.2135 138.678 24.2669C138.692 24.3204 138.695 24.3761 138.687 24.4308L137.944 29.1847C137.922 29.2973 137.857 29.3971 137.764 29.4629C137.142 29.8559 136.423 30.0657 135.688 30.0684ZM134.324 28.7838C134.735 29.0697 135.221 29.2296 135.721 29.2441C136.222 29.2587 136.716 29.1272 137.143 28.8656L137.788 24.7744L133.842 24.3408L134.324 28.7838Z" fill="#231F20"/>
<path d="M136.268 25.961C143.101 25.961 148.64 22.5724 148.64 18.3923C148.64 14.2123 143.101 10.8237 136.268 10.8237C129.436 10.8237 123.897 14.2123 123.897 18.3923C123.897 22.5724 129.436 25.961 136.268 25.961Z" fill="white"/>
<path d="M136.268 26.3701C129.225 26.3701 123.489 22.7862 123.489 18.3923C123.489 13.9984 129.209 10.4146 136.268 10.4146C143.328 10.4146 149.048 13.9902 149.048 18.3923C149.048 22.7944 143.312 26.3701 136.268 26.3701ZM136.268 11.2328C129.674 11.2328 124.306 14.4403 124.306 18.3923C124.306 22.3444 129.674 25.5519 136.268 25.5519C142.863 25.5519 148.231 22.3362 148.231 18.3923C148.231 14.4484 142.863 11.2491 136.268 11.2491V11.2328Z" fill="#231F20"/>
<path d="M142.029 8.3771C142.029 8.54075 141.686 16.854 141.686 16.854C141.686 16.854 139.815 19.2432 135.607 18.785C131.398 18.3268 130.892 16.003 130.892 16.003L130.606 5.97968L142.029 8.3771Z" fill="#231F20"/>
<path d="M136.661 19.2595C136.295 19.2571 135.929 19.2352 135.566 19.194C131.112 18.7113 130.516 16.1911 130.491 16.0847L130.197 5.99591C130.195 5.93366 130.207 5.87167 130.232 5.81486C130.258 5.75805 130.296 5.70798 130.344 5.66862C130.391 5.6279 130.446 5.59915 130.506 5.58488C130.566 5.57061 130.628 5.57127 130.688 5.58679L142.127 7.97604C142.22 7.99342 142.304 8.04323 142.364 8.11662C142.424 8.19001 142.456 8.28225 142.454 8.37697C142.454 8.5488 142.144 16.0193 142.111 16.8702C142.109 16.9574 142.078 17.0412 142.021 17.1075C141.338 17.836 140.505 18.4061 139.579 18.7778C138.653 19.1496 137.657 19.314 136.661 19.2595ZM131.031 6.48685L131.3 15.9865C131.3 15.9865 131.832 17.9667 135.647 18.384C139.137 18.7604 140.893 17.1157 141.286 16.6902C141.384 14.2355 141.563 9.93161 141.612 8.70426L131.031 6.48685Z" fill="#231F20"/>
<path d="M145.344 6.90089C145.597 3.89279 141.929 1.1287 137.154 0.727118C132.378 0.325535 128.302 2.43853 128.049 5.44662C127.797 8.45472 131.464 11.2188 136.24 11.6204C141.016 12.022 145.092 9.90898 145.344 6.90089Z" fill="white"/>
<path d="M137.396 12.0674C136.998 12.0674 136.598 12.0511 136.195 12.0183C131.202 11.601 127.362 8.63084 127.631 5.407C127.901 2.17497 132.183 -0.107898 137.175 0.309402C139.402 0.455738 141.545 1.21454 143.369 2.50227C145.003 3.75417 145.87 5.32517 145.739 6.92891C145.608 8.53265 144.513 9.93183 142.666 10.8892C141.027 11.6921 139.221 12.0958 137.396 12.0674ZM128.449 5.52155C128.212 8.29536 131.717 10.8646 136.26 11.2492C138.327 11.4672 140.413 11.1105 142.291 10.2182C143.876 9.39998 144.815 8.21354 144.922 6.94528C145.028 5.67701 144.309 4.32693 142.879 3.24686C141.18 2.05057 139.183 1.34827 137.11 1.21764C132.567 0.841254 128.677 2.78865 128.449 5.56246V5.52155Z" fill="#231F20"/>
<path d="M109.598 48.4297L127.991 63.0106L128.489 63.8779L130.933 68.1246L126.242 66.7172L125.286 66.4308L106.893 51.8417L109.598 48.4297Z" fill="white"/>
<path d="M130.933 68.5254C130.895 68.5329 130.856 68.5329 130.818 68.5254L125.172 66.8317C125.122 66.8153 125.075 66.7904 125.033 66.758L106.64 52.1607C106.555 52.0932 106.501 51.9951 106.489 51.8878C106.477 51.7805 106.507 51.6727 106.574 51.588L109.279 48.1759C109.345 48.0904 109.443 48.0346 109.55 48.0208C109.657 48.007 109.765 48.0363 109.851 48.1023L128.244 62.6914C128.283 62.7236 128.317 62.7623 128.342 62.806L131.292 67.9199C131.336 67.9883 131.359 68.0678 131.359 68.149C131.359 68.2302 131.336 68.3097 131.292 68.3781C131.248 68.429 131.192 68.4688 131.13 68.4944C131.067 68.52 131 68.5306 130.933 68.5254ZM125.482 66.0707L130.066 67.4453L127.672 63.2887L109.696 49.0105L107.506 51.7843L125.482 66.0707Z" fill="#231F20"/>
<path d="M102.719 47.8071L104.703 45.2991C104.88 45.0746 105.14 44.9298 105.424 44.8968C105.708 44.8638 105.994 44.9452 106.218 45.123L114.955 52.0524L111.632 56.2537L102.895 49.3243C102.671 49.1465 102.526 48.8867 102.493 48.6022C102.46 48.3176 102.542 48.0316 102.719 47.8071Z" fill="#231F20"/>
<path d="M111.649 56.6447C111.557 56.6465 111.468 56.6177 111.395 56.5629L102.66 49.6324C102.504 49.5128 102.375 49.3625 102.279 49.1909C102.184 49.0192 102.124 48.8297 102.105 48.6342C102.081 48.4399 102.096 48.2428 102.149 48.0545C102.202 47.8662 102.293 47.6904 102.415 47.5377L104.392 45.0258C104.639 44.7163 104.997 44.5164 105.389 44.4694C105.584 44.4469 105.781 44.4635 105.969 44.5183C106.157 44.5731 106.332 44.665 106.484 44.7885L115.228 51.7189C115.269 51.7517 115.303 51.7925 115.329 51.8389C115.354 51.8853 115.37 51.9363 115.375 51.9889C115.382 52.0423 115.378 52.0965 115.364 52.1485C115.35 52.2004 115.326 52.2491 115.293 52.2917L111.967 56.4892C111.93 56.5384 111.882 56.5781 111.826 56.6051C111.771 56.6321 111.71 56.6456 111.649 56.6447ZM105.561 45.2794H105.487C105.4 45.287 105.314 45.3127 105.237 45.355C105.16 45.3972 105.092 45.4551 105.038 45.5249L103.036 48.0696C102.927 48.2096 102.877 48.3874 102.899 48.5638C102.92 48.7402 103.011 48.9009 103.15 49.0106L111.567 55.6873L114.378 52.128L105.929 45.4267C105.82 45.3365 105.685 45.2847 105.545 45.2794H105.561Z" fill="#231F20"/>
<path d="M109.262 57.6102C109.17 57.609 109.081 57.5774 109.009 57.5202C108.821 57.3729 104.441 53.9363 103.861 53.429C103.281 52.9217 102.652 50.2215 102.48 49.4278C102.478 49.3287 102.511 49.2321 102.573 49.1545C102.634 49.077 102.721 49.0234 102.818 49.003C102.915 48.9827 103.016 48.9968 103.103 49.043C103.191 49.0892 103.259 49.1645 103.297 49.256C103.499 50.4919 103.882 51.6913 104.433 52.8153C104.875 53.2244 107.947 55.6546 109.516 56.9065C109.56 56.9394 109.598 56.9811 109.626 57.029C109.654 57.077 109.672 57.1301 109.679 57.1852C109.686 57.2403 109.681 57.2963 109.666 57.3497C109.651 57.403 109.625 57.4527 109.589 57.4956C109.546 57.5371 109.495 57.5687 109.438 57.5885C109.382 57.6083 109.322 57.6157 109.262 57.6102Z" fill="#231F20"/>
<path d="M71.5114 115.631C71.5114 115.631 84.9368 122.701 92.8955 121.457C101.067 120.172 114.852 88.6541 119.501 81.6173C123.766 75.1696 126.855 68.5828 125.515 60.6132C125.389 59.6172 125.057 58.6585 124.54 57.7978C124.024 56.9372 123.335 56.1934 122.516 55.6138C121.699 55.1229 120.776 54.7383 120.49 53.8791C120.384 53.56 120.384 53.2164 120.261 52.9136C120.088 52.5864 119.81 52.3274 119.472 52.1788C119.134 52.0302 118.755 52.0008 118.398 52.0954C117.696 52.3143 117.067 52.7185 116.576 53.2655C114.378 55.3847 111.526 58.7885 110.423 61.6605C110.051 62.7428 109.796 63.862 109.663 64.9989C109.066 68.8774 109.034 72.6985 106.795 75.9387C104.556 79.1789 88.6873 96.9019 88.6873 96.9019L80.369 92.9743" fill="white"/>
<path d="M90.8446 122.013C82.8531 122.013 71.8301 116.286 71.3235 115.999C71.2271 115.95 71.1544 115.863 71.1215 115.76C71.0885 115.656 71.098 115.544 71.1478 115.447C71.1977 115.351 71.2838 115.278 71.3872 115.245C71.4907 115.212 71.603 115.221 71.6994 115.271C71.8383 115.345 85.1002 122.267 92.8302 121.056C98.6644 120.14 107.775 102.695 113.798 91.1579C116.012 86.9276 117.883 83.2701 119.166 81.3882C123.056 75.4969 126.52 68.9183 125.115 60.6869C125 59.7453 124.69 58.838 124.205 58.0235C123.719 57.209 123.069 56.5053 122.296 55.9575L121.83 55.6793C121.071 55.366 120.454 54.7833 120.098 54.0428C120.051 53.8813 120.013 53.7174 119.983 53.5519C119.967 53.4014 119.934 53.2533 119.885 53.11C119.744 52.879 119.53 52.701 119.278 52.6034C119.025 52.5058 118.748 52.4941 118.488 52.57C117.858 52.772 117.294 53.1393 116.854 53.6337C114.745 55.6793 111.894 59.0586 110.807 61.8815C110.443 62.9427 110.193 64.0399 110.063 65.1544C109.949 65.9072 109.859 66.66 109.761 67.4046C109.369 70.5793 108.993 73.5659 107.13 76.2579C104.924 79.4572 89.6352 96.5419 88.9897 97.2619C88.9301 97.3274 88.8513 97.3722 88.7647 97.3899C88.678 97.4075 88.588 97.3971 88.5076 97.3601L80.1975 93.4326C80.1427 93.4144 80.0924 93.3849 80.0499 93.3459C80.0074 93.3069 79.9736 93.2593 79.9507 93.2062C79.9279 93.1532 79.9165 93.0959 79.9174 93.0382C79.9182 92.9804 79.9313 92.9235 79.9557 92.8712C79.98 92.8189 80.0152 92.7723 80.0589 92.7346C80.1025 92.6968 80.1537 92.6687 80.2089 92.6522C80.2642 92.6357 80.3223 92.6311 80.3795 92.6386C80.4367 92.6462 80.4916 92.6658 80.5407 92.6962L88.5811 96.4928C90.4442 94.4063 104.417 78.7535 106.46 75.7915C108.2 73.2713 108.568 70.3748 108.911 67.3064C109.001 66.5536 109.099 65.7927 109.213 65.0317C109.367 63.861 109.64 62.7093 110.031 61.5951C111.166 58.6576 114.116 55.1638 116.282 53.0609C116.827 52.461 117.524 52.02 118.3 51.7845C118.747 51.6591 119.224 51.6934 119.649 51.8815C120.074 52.0695 120.42 52.3997 120.629 52.8155C120.705 53.0129 120.757 53.219 120.784 53.4291C120.803 53.5562 120.831 53.6819 120.866 53.8055C121.045 54.3456 121.617 54.681 122.23 55.0329C122.394 55.1311 122.565 55.2211 122.721 55.3274C123.593 55.9334 124.328 56.7165 124.879 57.6257C125.429 58.535 125.783 59.5501 125.915 60.605C127.321 69.1392 123.636 76.1515 119.836 81.8791C118.619 83.7283 116.715 87.3695 114.517 91.5752C108.045 103.963 99.1956 120.925 92.9446 121.899C92.2486 121.992 91.5465 122.03 90.8446 122.013Z" fill="#231F20"/>
<path d="M31.9791 59.893C26.6678 58.3057 23.8978 52.1607 22.5087 47.2513C20.9316 41.6546 19.0768 37.0889 21.3157 31.263C21.8386 29.9293 22.6558 28.5301 24.0367 28.1456C24.3899 28.0896 24.7287 27.9645 25.0336 27.7774C25.2696 27.551 25.4463 27.27 25.5484 26.9591C28.7597 19.3905 37.8052 19.1777 44.6282 20.2496C48.5749 20.8715 53.6901 22.7043 54.9076 26.73C57.1628 34.2005 55.2589 42.3256 51.1243 48.7814C47.1939 54.8364 39.8725 62.2741 31.9791 59.893Z" fill="white"/>
<path d="M34.9862 60.7522C33.9257 60.7531 32.8709 60.5959 31.8566 60.2858C26.3655 58.6494 23.5301 52.3244 22.1165 47.325C21.9367 46.6868 21.7488 46.0649 21.569 45.4431C20.1309 40.5746 18.897 36.3689 20.948 31.0831C21.6753 29.2011 22.6803 28.072 23.9305 27.7201L24.2002 27.6547C24.395 27.6259 24.5816 27.5562 24.7476 27.4501C24.9096 27.2829 25.0324 27.0816 25.1072 26.861V26.7792C28.3757 19.0141 37.5356 18.7196 44.6282 19.8324C47.3329 20.2578 53.78 21.7716 55.2508 26.591C57.3917 33.6851 55.9944 41.851 51.4185 48.986C47.578 54.9919 41.4741 60.7522 34.9862 60.7522ZM32.0936 59.5249C39.2761 61.685 46.4341 55.2782 50.7403 48.5605C55.1854 41.6056 56.55 33.6932 54.45 26.7955C53.1263 22.418 47.0469 21.0106 44.4893 20.6097C37.6909 19.5378 28.964 19.7914 25.8508 27.0655C25.7287 27.4482 25.509 27.7923 25.2134 28.0638C24.9517 28.2446 24.653 28.3648 24.3391 28.4156L24.1103 28.4729C23.1216 28.7511 22.2963 29.7166 21.6589 31.3449C19.7223 36.3689 20.9235 40.4518 22.3126 45.1812C22.4924 45.8031 22.6803 46.4331 22.8601 47.0714C24.2165 51.8744 26.9457 57.9293 32.0527 59.4758L32.0936 59.5249Z" fill="#231F20"/>
<path d="M8.85469 105.346C8.85469 105.346 -1.54727 135.817 0.740669 144.449C3.02861 153.082 31.5462 145.873 31.5462 145.873L24.3882 102.548L8.85469 105.346Z" fill="white"/>
<path d="M11.5838 149.122C6.02739 149.122 1.26357 148.05 0.340219 144.572C-1.94772 135.923 8.03751 106.492 8.46241 105.24C8.48713 105.171 8.5296 105.109 8.58555 105.062C8.6415 105.014 8.70895 104.983 8.78109 104.97L24.3064 102.171C24.3592 102.163 24.4131 102.165 24.465 102.178C24.5169 102.19 24.5658 102.213 24.6087 102.245C24.6541 102.274 24.6928 102.312 24.7224 102.358C24.7519 102.403 24.7717 102.454 24.7803 102.507L31.9465 145.832C31.9641 145.934 31.9427 146.038 31.8866 146.125C31.8306 146.211 31.744 146.273 31.6442 146.299C30.9251 146.479 20.2943 149.122 11.5838 149.122ZM9.13245 105.755C8.18459 108.57 -1.02437 136.365 1.10014 144.392C3.11843 152.026 27.7383 146.413 31.0477 145.619L24.0122 103.071L9.13245 105.755Z" fill="#231F20"/>
<path d="M80.5981 171.713L74.8047 145.325L16.9851 160.871C16.9851 160.871 17.0995 165.2 17.2629 171.713H80.5981Z" fill="#231F20"/>
<path d="M55.9371 44.7967C55.9371 44.7967 61.5916 51.8744 60.7091 53.5354C59.8266 55.1964 56.3048 54.4682 56.3048 54.4682" fill="white"/>
<path d="M57.9555 55.0082C57.3744 55.0043 56.7948 54.9495 56.2232 54.8445C56.1148 54.8228 56.0195 54.7589 55.9582 54.6669C55.8969 54.5748 55.8747 54.4621 55.8964 54.3536C55.918 54.2451 55.9819 54.1497 56.0738 54.0883C56.1657 54.0269 56.2783 54.0046 56.3866 54.0263C57.2773 54.2063 59.7368 54.4354 60.3497 53.2981C60.8154 52.4226 58.2578 48.315 55.6185 45.0094C55.5503 44.9243 55.5181 44.8158 55.5288 44.7072C55.5395 44.5986 55.5922 44.4985 55.6757 44.4284C55.7625 44.363 55.8709 44.3334 55.9788 44.3456C56.0867 44.3577 56.1859 44.4108 56.2559 44.4939C57.2283 45.713 62.033 51.858 61.0687 53.6826C60.4968 54.7627 59.0995 55.0082 57.9555 55.0082Z" fill="#231F20"/>
<path d="M53.968 34.9042C57.3754 37.2034 56.9505 42.7592 57.2365 46.3594C57.656 51.3725 57.9556 56.391 58.1353 61.4149C58.2579 64.5979 50.054 65.4161 48.5178 64.5979L50.9692 77.0187L33.1314 71.962L32.3878 57.3974C32.3878 57.3974 37.8135 56.9474 40.4283 50.1888C43.0431 43.4302 42.0135 33.505 42.0135 33.505C42.0135 33.505 50.6505 32.654 53.968 34.9042Z" fill="white"/>
<path d="M50.9527 77.387H50.8383L33.0005 72.3303C32.9189 72.308 32.8465 72.2603 32.7937 72.1941C32.7408 72.128 32.7102 72.0468 32.7063 71.9621L31.9382 57.4385C31.9334 57.333 31.9686 57.2297 32.0369 57.1492C32.1051 57.0687 32.2013 57.0171 32.306 57.0048C32.5184 57.0048 37.5192 56.4811 40.0114 50.058C42.5608 43.5121 41.5803 33.6933 41.564 33.5624C41.5561 33.4564 41.5882 33.3514 41.6538 33.2679C41.7234 33.1826 41.8227 33.127 41.9317 33.1124C42.2912 33.1124 50.7974 32.2942 54.1885 34.5852C57.1873 36.6062 57.3834 40.9102 57.5305 44.404C57.5305 45.0831 57.5959 45.7377 57.6449 46.335C58.0535 51.3345 58.3558 56.3993 58.5438 61.4069C58.5366 61.9061 58.3906 62.3934 58.1221 62.814C57.8536 63.2346 57.4733 63.5719 57.0239 63.788C54.9239 65.1053 50.9363 65.539 49.0488 65.1953L51.3449 76.9452C51.3569 77.0151 51.3512 77.0869 51.3283 77.1541C51.3055 77.2213 51.2663 77.2816 51.2142 77.3297C51.1357 77.3771 51.0438 77.3972 50.9527 77.387ZM33.5071 71.6103L50.4216 76.4052L48.1254 64.6389C48.1129 64.5631 48.1215 64.4853 48.1504 64.4141C48.1792 64.3429 48.2271 64.2811 48.2888 64.2354C48.3505 64.1897 48.4235 64.1619 48.5 64.1552C48.5764 64.1484 48.6532 64.1629 48.7219 64.1971C49.7188 64.7289 54.3519 64.4508 56.599 63.0434C56.9174 62.8976 57.1909 62.6688 57.3907 62.3809C57.5905 62.093 57.7094 61.7566 57.7348 61.4069C57.555 56.4157 57.2527 51.3508 56.836 46.376C56.7869 45.7623 56.7543 45.0995 56.7216 44.404C56.5827 41.1311 56.3947 37.0399 53.7391 35.2562C51.0834 33.4724 44.1542 33.767 42.4219 33.8979C42.5854 35.878 43.1247 44.2895 40.7877 50.3526C38.4834 56.2848 34.1281 57.5203 32.7881 57.7658L33.5071 71.6103Z" fill="#231F20"/>
<path d="M88.712 93.1542C88.712 93.1542 65.9796 80.8807 57.0321 73.9584C48.7302 67.5435 26.4963 63.616 18.1535 75.4313C18.1535 75.4313 5.07951 99.8474 3.66589 113.225L13.7492 117.742C13.6988 133.391 14.4953 149.031 16.1352 164.594C36.5142 168.178 78.7267 151.862 78.3672 151.699L74.061 119.91L77.7952 122.799L88.712 93.1542Z" fill="#811E78"/>
<path d="M57.7185 57.6512C57.7185 57.6512 52.8157 57.6512 51.6309 51.0153L57.7185 57.6512Z" fill="white"/>
<path d="M57.7184 58.0601C57.6694 58.0601 52.448 57.9783 51.2305 51.0888C51.211 50.9803 51.2353 50.8684 51.2982 50.7779C51.361 50.6874 51.4572 50.6255 51.5655 50.606C51.6739 50.5865 51.7856 50.6108 51.876 50.6738C51.9664 50.7367 52.0281 50.833 52.0476 50.9415C53.1507 57.1437 57.5469 57.2419 57.7675 57.2419C57.8758 57.2419 57.9798 57.285 58.0564 57.3617C58.133 57.4384 58.176 57.5425 58.176 57.651C58.1765 57.7091 58.1645 57.7667 58.141 57.8198C58.1174 57.8729 58.0829 57.9204 58.0396 57.9591C57.9963 57.9978 57.9453 58.0269 57.8899 58.0443C57.8345 58.0617 57.7761 58.0671 57.7184 58.0601Z" fill="#231F20"/>
<path d="M46.6384 48.888C46.3791 47.661 45.7884 46.5289 44.9306 45.615C44.3657 44.8153 43.6855 44.1039 42.9123 43.504C42.5229 43.2069 42.0718 43.0012 41.5923 42.902C41.1129 42.8029 40.6173 42.8129 40.1422 42.9312C39.7346 43.0749 39.3616 43.3029 39.0477 43.6003C38.7338 43.8978 38.4858 44.258 38.3201 44.6577C38.0031 45.4666 37.8664 46.3351 37.9197 47.2024C38.0105 49.0928 38.5957 50.926 39.6168 52.5186C40.6379 54.1111 42.0589 55.4071 43.7376 56.2766L43.4352 56.0066" fill="white"/>
<path d="M43.7376 56.6121C43.6756 56.6245 43.6118 56.6245 43.5497 56.6121C41.8103 55.7018 40.3383 54.3526 39.2793 52.698C38.2202 51.0434 37.6108 49.1407 37.5112 47.1779C37.4504 46.2506 37.6013 45.3216 37.9524 44.4613C38.1365 44.0058 38.4164 43.5953 38.7732 43.2579C39.1299 42.9204 39.5551 42.6639 40.0197 42.5058C40.5538 42.368 41.112 42.3531 41.6526 42.4623C42.1932 42.5714 42.7021 42.8016 43.1412 43.1358C43.9508 43.7555 44.6617 44.4949 45.2493 45.3287C46.1645 46.3106 46.7872 47.5293 47.047 48.8471C47.0524 48.9008 47.0471 48.9551 47.0315 49.0068C47.016 49.0584 46.9904 49.1066 46.9562 49.1484C46.9221 49.1901 46.88 49.2248 46.8325 49.2503C46.785 49.2758 46.7329 49.2917 46.6793 49.2971C46.6256 49.3025 46.5715 49.2972 46.5198 49.2816C46.4682 49.266 46.4202 49.2404 46.3784 49.2062C46.3367 49.172 46.3021 49.1299 46.2766 49.0823C46.2511 49.0348 46.2352 48.9826 46.2299 48.9289C45.9755 47.7685 45.4106 46.6993 44.5956 45.836C44.0567 45.0677 43.4068 44.3838 42.6672 43.8068C42.3234 43.542 41.9249 43.3576 41.5007 43.267C41.0766 43.1764 40.6376 43.1819 40.2159 43.2831C39.8631 43.4113 39.5411 43.6124 39.2709 43.8731C39.0006 44.1339 38.7881 44.4486 38.647 44.7968C38.3481 45.5444 38.2224 46.3501 38.2793 47.1533C38.3662 48.8611 38.8698 50.5214 39.7458 51.9892C40.6219 53.457 41.8438 54.6875 43.3046 55.573C43.3661 55.5611 43.4296 55.563 43.4903 55.5785C43.5511 55.5941 43.6076 55.6229 43.6559 55.663L43.9583 55.9412C44.0328 56.0061 44.0807 56.0964 44.0927 56.1946C44.1048 56.2927 44.0802 56.3919 44.0236 56.473C43.9877 56.5142 43.9438 56.5477 43.8947 56.5716C43.8456 56.5955 43.7922 56.6093 43.7376 56.6121Z" fill="#231F20"/>
<path d="M48.526 64.557C48.526 64.557 44.1544 63.6243 41.9073 60.8832C41.9073 60.8832 42.7245 67.5191 49.4167 69.131L48.526 64.557Z" fill="#231F20"/>
<path d="M49.4165 69.54H49.3266C42.4056 67.9035 41.515 61.014 41.5068 60.9485C41.4964 60.861 41.5145 60.7724 41.5584 60.696C41.6023 60.6196 41.6697 60.5594 41.7505 60.5245C41.8313 60.4895 41.9213 60.4817 42.0069 60.5021C42.0926 60.5224 42.1694 60.57 42.2258 60.6376C44.3504 63.2314 48.5749 64.1642 48.6157 64.1724C48.6943 64.1894 48.766 64.2297 48.8214 64.2881C48.8768 64.3465 48.9133 64.4202 48.9263 64.4997L49.8169 69.0654C49.8318 69.1327 49.829 69.2027 49.809 69.2686C49.789 69.3345 49.7523 69.3942 49.7025 69.4418C49.6232 69.5099 49.5209 69.5451 49.4165 69.54ZM42.6262 62.1759C43.0562 63.6752 43.8554 65.0423 44.9504 66.1518C46.0455 67.2612 47.4014 68.0774 48.8936 68.5254L48.1745 64.8597C46.1573 64.3698 44.2664 63.458 42.6262 62.184V62.1759Z" fill="#231F20"/>
<path d="M77.7788 123.208C77.6928 123.209 77.6092 123.18 77.5419 123.126C77.3703 123.003 60.3169 110.517 53.6084 103.603C53.5708 103.564 53.5412 103.519 53.5213 103.469C53.5014 103.419 53.4915 103.365 53.4923 103.311C53.493 103.257 53.5044 103.204 53.5257 103.154C53.547 103.105 53.5779 103.06 53.6165 103.022C53.6552 102.985 53.7008 102.955 53.7509 102.935C53.8009 102.915 53.8544 102.905 53.9083 102.906C53.9622 102.907 54.0154 102.918 54.0648 102.939C54.1143 102.961 54.1591 102.992 54.1967 103.03C60.8562 109.895 77.8524 122.341 78.024 122.463C78.1102 122.529 78.1677 122.625 78.1845 122.732C78.2012 122.838 78.1759 122.948 78.1139 123.036C78.0764 123.09 78.0262 123.134 77.9678 123.164C77.9093 123.194 77.8445 123.209 77.7788 123.208Z" fill="#231F20"/>
<path d="M54.0219 41.5423C54.1013 40.5482 53.8511 39.717 53.463 39.6859C53.0749 39.6548 52.6959 40.4356 52.6164 41.4297C52.537 42.4239 52.7872 43.2551 53.1754 43.2862C53.5635 43.3172 53.9425 42.5365 54.0219 41.5423Z" fill="#231F20"/>
<path d="M12.9648 113.594C12.9104 113.593 12.8568 113.581 12.8071 113.559C12.7573 113.537 12.7125 113.505 12.6752 113.465C12.638 113.426 12.6089 113.379 12.5899 113.328C12.5709 113.277 12.5622 113.223 12.5644 113.168C12.5644 112.178 13.3815 88.8424 16.5437 80.6846C16.5838 80.5837 16.6623 80.5028 16.7619 80.4599C16.8615 80.4169 16.9741 80.4153 17.0749 80.4555C17.1756 80.4956 17.2564 80.5742 17.2993 80.6739C17.3422 80.7737 17.3438 80.8864 17.3037 80.9873C14.1659 89.006 13.3896 112.956 13.3815 113.193C13.3773 113.301 13.3315 113.403 13.2538 113.478C13.1761 113.552 13.0725 113.594 12.9648 113.594Z" fill="#231F20"/>
<path d="M201.001 101.304H149.334L140.673 90.2742L140.583 101.459C138.5 101.842 136.616 102.944 135.261 104.574C133.905 106.203 133.163 108.257 133.163 110.378V149.342C133.162 150.535 133.396 151.716 133.851 152.818C134.306 153.919 134.973 154.921 135.815 155.764C136.656 156.608 137.656 157.277 138.756 157.733C139.856 158.19 141.035 158.425 142.225 158.425H201.001C203.406 158.425 205.713 157.468 207.414 155.765C209.115 154.061 210.071 151.751 210.071 149.342V110.378C210.069 107.971 209.112 105.663 207.412 103.961C205.711 102.26 203.405 101.304 201.001 101.304Z" fill="white"/>
<path d="M201.001 158.834H142.225C139.714 158.83 137.306 157.828 135.531 156.049C133.755 154.269 132.757 151.858 132.755 149.342V110.378C132.753 108.219 133.489 106.123 134.84 104.44C136.191 102.757 138.076 101.587 140.183 101.124L140.264 90.2659C140.266 90.182 140.294 90.1009 140.344 90.0334C140.394 89.9659 140.463 89.9153 140.542 89.8886C140.622 89.8618 140.707 89.8601 140.788 89.8836C140.868 89.9072 140.939 89.955 140.991 90.0204L149.539 100.895H201.017C202.263 100.893 203.497 101.136 204.649 101.612C205.801 102.087 206.848 102.785 207.73 103.666C208.613 104.546 209.313 105.592 209.792 106.744C210.271 107.896 210.518 109.131 210.52 110.378V149.342C210.519 150.592 210.272 151.829 209.793 152.983C209.314 154.137 208.612 155.184 207.727 156.066C206.843 156.948 205.794 157.646 204.64 158.121C203.485 158.596 202.249 158.838 201.001 158.834ZM141.065 91.4359L140.983 101.451C140.985 101.547 140.951 101.64 140.89 101.714C140.829 101.787 140.743 101.836 140.648 101.852C138.659 102.218 136.86 103.27 135.566 104.827C134.272 106.383 133.563 108.344 133.564 110.37V149.334C133.564 151.633 134.475 153.838 136.098 155.464C137.72 157.091 139.921 158.005 142.217 158.007H200.993C203.289 158.005 205.491 157.091 207.115 155.465C208.739 153.839 209.652 151.634 209.654 149.334V110.378C209.652 108.079 208.739 105.875 207.114 104.25C205.49 102.626 203.289 101.713 200.993 101.713H149.334C149.273 101.712 149.213 101.698 149.158 101.671C149.103 101.644 149.054 101.605 149.016 101.557L141.065 91.4359Z" fill="#231F20"/>
<path d="M190.215 143.067H153.019L153.428 142.739C153.787 142.436 154.139 142.126 154.515 141.847C155.859 140.85 156.967 139.568 157.759 138.093C158.551 136.618 159.009 134.986 159.099 133.313C159.319 130.858 159.36 128.469 159.507 126.047C159.587 123.973 160.099 121.938 161.011 120.074C162.702 116.744 165.505 114.968 169.108 114.347H169.239C169.697 112.636 170.473 111.957 171.829 112.047C172.408 112.08 172.953 112.33 173.356 112.747C173.758 113.164 173.99 113.717 174.003 114.297C174.763 114.502 175.531 114.657 176.275 114.911C180.091 116.237 182.28 119.002 183.261 122.84C183.684 124.652 183.876 126.511 183.833 128.371C183.802 130.735 184.035 133.095 184.528 135.408C185.012 137.691 186.239 139.748 188.017 141.258L190.215 143.067Z" fill="#811E78"/>
<path d="M176.642 145.137C176.424 146.384 175.745 147.504 174.739 148.273C173.734 149.041 172.476 149.403 171.217 149.285C168.88 149.089 166.682 147.076 166.698 145.137H176.642Z" fill="#811E78"/>
</svg>
