<svg width="210" height="158" viewBox="0 0 210 158" fill="none" xmlns="http://www.w3.org/2000/svg">
<path d="M124.189 118.69C118.414 114.418 116.167 106.65 116.261 99.4399C116.309 95.8059 116.965 91.9191 119.495 89.3174C120.76 88.1062 122.247 87.1529 123.874 86.5102C129.019 84.2666 135.865 83.9032 139.435 88.243C140.421 89.5604 141.198 91.0224 141.74 92.5774C143.885 97.9003 145.81 103.307 147.515 108.799C149.195 114.187 151.016 122.703 143.42 123.182C137.235 123.577 129.281 122.439 124.189 118.69Z" fill="white"/>
<path d="M141.099 123.53C135.513 123.53 128.677 122.334 124.031 118.906C118.813 115.061 115.883 107.967 115.988 99.4189C116.051 94.7105 117.133 91.3398 119.301 89.112C120.594 87.8783 122.111 86.904 123.769 86.2417C129.019 83.9507 135.991 83.6084 139.645 88.0534C140.648 89.391 141.44 90.8762 141.991 92.4564C144.133 97.7704 146.081 103.237 147.766 108.704C149.63 114.687 149.751 118.748 148.129 121.112C147.163 122.518 145.582 123.303 143.43 123.44C142.695 123.503 141.913 123.53 141.099 123.53ZM131.35 85.1462C128.817 85.1856 126.318 85.7336 124 86.7578C122.403 87.3989 120.943 88.3411 119.7 89.5334C117.631 91.64 116.602 94.9054 116.55 99.4716C116.445 107.819 119.296 114.745 124.372 118.495C129.58 122.334 137.629 123.308 143.435 122.94C145.409 122.813 146.853 122.108 147.719 120.833C149.242 118.616 149.1 114.708 147.289 108.899C145.588 103.448 143.645 97.9916 141.514 92.6934C140.983 91.1655 140.222 89.7285 139.256 88.4326C137.308 86.089 134.4 85.1462 131.35 85.1462Z" fill="#231F20"/>
<path d="M63.525 91.4556L46.7932 84.53C52.7415 71.7741 59.451 64.2006 64.1182 61.2355C70.0245 56.3059 84.672 55.9688 98.1067 55.4422C102.405 55.1901 106.717 55.613 110.885 56.6956C126.556 61.0406 141.125 83.8032 141.125 83.8032L122.104 86.3733C122.104 86.3733 124.556 109.399 126.709 137.46C126.709 137.46 102.112 143.011 63.7087 140.852C63.6825 140.873 63.9135 95.4478 63.525 91.4556Z" fill="#811E78"/>
<path d="M99.8499 53.1617L101.95 63.2737C101.95 63.2737 99.7134 69.9887 92.9356 69.283C90.9333 69.0542 89.0067 68.3812 87.2959 67.3126C85.5851 66.244 84.1329 64.8068 83.0446 63.1052L80.6401 44.5138C80.6401 44.5138 85.1604 41.2538 82.3096 30.8205C87.989 32.4155 93.9918 32.4464 99.6871 30.91C99.6871 30.91 104.202 42.0069 104.092 47.2367C103.982 52.4665 99.8499 53.1617 99.8499 53.1617Z" fill="white"/>
<path d="M93.9121 69.6044C93.5754 69.6047 93.239 69.5871 92.9041 69.5517C86.0791 68.8355 82.8399 63.2949 82.8031 63.2317C82.7879 63.2001 82.7773 63.1664 82.7716 63.1317L80.3619 44.5403C80.3564 44.4914 80.3637 44.4419 80.383 44.3967C80.4024 44.3515 80.433 44.312 80.4721 44.2823C81.3303 43.5188 81.9624 42.533 82.2991 41.433C82.9816 39.5423 83.4856 36.1663 82.0419 30.8997C82.0297 30.8519 82.0306 30.8018 82.0444 30.7545C82.0583 30.7072 82.0846 30.6646 82.1206 30.6311C82.1561 30.5967 82.2005 30.573 82.2488 30.5627C82.2971 30.5525 82.3473 30.5561 82.3936 30.5731C88.023 32.1329 93.965 32.1602 99.6084 30.6521C99.6718 30.6331 99.74 30.6389 99.7994 30.6682C99.8587 30.6974 99.9049 30.7482 99.9286 30.8101C100.118 31.2683 104.465 42.0229 104.354 47.2263C104.26 51.8031 101.12 53.0671 100.154 53.3462L102.202 63.2001C102.215 63.2466 102.215 63.2959 102.202 63.3423C102.181 63.4266 100.049 69.6044 93.9121 69.6044ZM83.3019 63.0158C84.3783 64.6602 85.8012 66.0477 87.4703 67.0806C89.1393 68.1134 91.0139 68.7664 92.9619 68.9935C99.1569 69.636 101.404 63.9691 101.666 63.237L99.5664 53.1987C99.5595 53.1631 99.5599 53.1265 99.5673 53.0909C99.5747 53.0554 99.5891 53.0217 99.6096 52.9918C99.6301 52.9619 99.6564 52.9364 99.6868 52.9168C99.7172 52.8972 99.7512 52.8838 99.7869 52.8775C99.9444 52.8511 103.698 52.1243 103.798 47.2158C103.898 42.5232 100.123 32.822 99.5034 31.2367C93.9837 32.6551 88.1968 32.6551 82.6771 31.2367C85.0606 40.485 81.6271 43.9926 80.9026 44.6246L83.3019 63.0158Z" fill="#231F20"/>
<path d="M84.4357 43.6712C84.0944 42.7952 83.4767 42.0554 82.6769 41.5645C81.9126 41.1413 81.0815 40.8527 80.2199 40.7113C79.7584 40.5824 79.2736 40.5608 78.8024 40.6481C78.4785 40.7435 78.1768 40.9028 77.9152 41.1169C77.2526 41.5582 76.77 42.2235 76.5554 42.9918C76.4574 43.6278 76.5132 44.278 76.7182 44.8878C76.892 45.5634 77.1532 46.2132 77.4952 46.8207C77.8508 47.4185 78.321 47.9398 78.8787 48.3542C79.4364 48.7685 80.0704 49.0679 80.7442 49.2349C81.4179 49.4019 82.118 49.4333 82.8039 49.3271C83.4898 49.221 84.1479 48.9795 84.7402 48.6166" fill="white"/>
<path d="M81.9893 49.6647C81.0355 49.6652 80.0981 49.4163 79.2695 48.9425C78.441 48.4687 77.7498 47.7864 77.2643 46.9629C76.9084 46.3355 76.6399 45.6622 76.4663 44.9616C76.2451 44.3117 76.1856 43.6174 76.293 42.9392C76.5216 42.1055 77.0415 41.382 77.7578 40.901C78.0484 40.664 78.3817 40.4852 78.7395 40.3743C79.2503 40.2764 79.7767 40.2981 80.2778 40.4375C81.1717 40.5804 82.0335 40.8799 82.824 41.3223C83.6718 41.8438 84.3277 42.6275 84.693 43.5554C84.7073 43.5885 84.7147 43.6241 84.7147 43.6602C84.7148 43.6962 84.7074 43.7319 84.6931 43.7649C84.6789 43.798 84.658 43.8278 84.6318 43.8525C84.6056 43.8771 84.5746 43.8961 84.5407 43.9083C84.4739 43.9343 84.3995 43.9328 84.3337 43.9042C84.2678 43.8757 84.2159 43.8222 84.189 43.7555C83.8698 42.9353 83.2905 42.2432 82.5405 41.7858C81.802 41.3793 80.9993 41.1031 80.1675 40.9695C79.7478 40.8484 79.3061 40.825 78.876 40.901C78.585 40.9875 78.3138 41.1307 78.078 41.3223C77.4744 41.7318 77.031 42.3386 76.8233 43.0393C76.736 43.632 76.7918 44.237 76.986 44.8036C77.1499 45.4575 77.4006 46.0864 77.7315 46.6733C78.0682 47.241 78.5141 47.736 79.0431 48.1294C79.5721 48.5229 80.1737 48.807 80.8131 48.9653C81.4524 49.1235 82.1168 49.1528 82.7675 49.0514C83.4182 48.9499 84.0424 48.7198 84.6037 48.3744C84.634 48.3553 84.6677 48.3424 84.7029 48.3366C84.7381 48.3307 84.7742 48.332 84.8089 48.3404C84.8437 48.3487 84.8764 48.3639 84.9052 48.3852C84.9339 48.4064 84.9582 48.4332 84.9765 48.4639C84.9954 48.4938 85.0082 48.5272 85.0139 48.5622C85.0197 48.5971 85.0184 48.6329 85.01 48.6673C85.0017 48.7017 84.9865 48.7341 84.9654 48.7625C84.9443 48.7909 84.9177 48.8147 84.8872 48.8326C84.0165 49.3734 83.0134 49.6615 81.9893 49.6647Z" fill="#231F20"/>
<path d="M100.653 58.2176C99.4598 58.518 98.2163 58.5583 97.0064 58.3357C95.7964 58.1131 94.6481 57.6328 93.6389 56.9273C90.3734 54.5204 90.4049 52.8615 90.4049 52.8615C90.4049 52.8615 95.4134 54.7996 99.6029 53.3565L100.653 58.2176Z" fill="#231F20"/>
<path d="M98.5111 58.7444C96.7079 58.7639 94.9463 58.2007 93.4868 57.1381C90.1478 54.6786 90.1426 52.9248 90.1478 52.8563C90.1477 52.8142 90.1582 52.7728 90.1784 52.736C90.1986 52.6991 90.2278 52.668 90.2633 52.6456C90.2997 52.6263 90.3403 52.6161 90.3815 52.6161C90.4226 52.6161 90.4632 52.6263 90.4996 52.6456C90.5521 52.6456 95.4713 54.5311 99.5138 53.1354C99.5473 53.1187 99.5841 53.1101 99.6215 53.1101C99.6588 53.1101 99.6957 53.1187 99.7291 53.1354C99.7612 53.1525 99.7891 53.1765 99.8108 53.2056C99.8326 53.2347 99.8477 53.2683 99.8551 53.304L100.905 58.1704C100.92 58.2345 100.909 58.3019 100.876 58.3587C100.843 58.4155 100.79 58.4574 100.727 58.4758C100.003 58.6615 99.2581 58.7518 98.5111 58.7444ZM90.7568 53.2618C90.9616 53.8675 91.6231 55.1157 93.7966 56.7168C94.7401 57.3734 95.8082 57.8283 96.9345 58.053C98.0608 58.2777 99.2212 58.2675 100.343 58.0229L99.4088 53.72C95.9281 54.7734 92.0588 53.72 90.7568 53.2618Z" fill="#231F20"/>
<path d="M93.8018 38.0255C93.8018 38.0255 98.0911 42.5653 97.4296 43.5923C96.7681 44.6193 94.3898 44.4245 94.3898 44.4245" fill="white"/>
<path d="M94.8572 44.7035C94.6945 44.7127 94.5315 44.7127 94.3689 44.7035C94.3344 44.7003 94.3009 44.6905 94.2703 44.6743C94.2396 44.6582 94.2124 44.6362 94.1902 44.6096C94.1454 44.5557 94.1238 44.4863 94.13 44.4164C94.1363 44.3466 94.17 44.2821 94.2236 44.2372C94.2773 44.1922 94.3466 44.1705 94.4162 44.1768C95.0304 44.2242 96.7367 44.1768 97.2092 43.4658C97.5504 42.9391 95.6027 40.3058 93.6077 38.1991C93.5832 38.1751 93.5638 38.1464 93.5505 38.1148C93.5373 38.0831 93.5305 38.0491 93.5305 38.0148C93.5305 37.9805 93.5373 37.9465 93.5505 37.9148C93.5638 37.8832 93.5832 37.8545 93.6077 37.8305C93.6321 37.8058 93.6611 37.7862 93.6931 37.7728C93.7251 37.7594 93.7594 37.7526 93.794 37.7526C93.8287 37.7526 93.863 37.7594 93.895 37.7728C93.927 37.7862 93.956 37.8058 93.9804 37.8305C95.0304 38.9259 98.3589 42.6021 97.6554 43.7186C97.1252 44.5823 95.6342 44.7035 94.8572 44.7035Z" fill="#231F20"/>
<path d="M88.4299 39.9994C88.8683 39.8224 89.0219 39.1758 88.773 38.5552C88.524 37.9346 87.9668 37.5749 87.5283 37.7519C87.0899 37.9289 86.9363 38.5755 87.1852 39.1961C87.4342 39.8168 87.9914 40.1764 88.4299 39.9994Z" fill="#231F20"/>
<path d="M97.3387 38.5432C97.7772 38.3662 97.9308 37.7196 97.6818 37.099C97.4329 36.4783 96.8756 36.1187 96.4372 36.2957C95.9987 36.4727 95.8451 37.1193 96.0941 37.7399C96.343 38.3605 96.9003 38.7202 97.3387 38.5432Z" fill="#231F20"/>
<path d="M94.4267 50.4178C92.8517 50.4178 91.4027 49.4804 90.1584 47.6634C89.4494 46.6037 88.8877 45.452 88.489 44.24C88.4691 44.173 88.4761 44.1008 88.5084 44.0389C88.5408 43.9769 88.5959 43.93 88.6622 43.9082C88.729 43.8883 88.801 43.8953 88.8628 43.9278C88.9245 43.9602 88.9712 44.0156 88.9929 44.082C88.9929 44.1505 91.1244 50.7707 95.2929 49.7648C99.4614 48.7588 99.4037 43.9082 99.3984 43.7028C99.3984 43.633 99.4261 43.566 99.4753 43.5166C99.5246 43.4673 99.5913 43.4395 99.6609 43.4395C99.7306 43.4395 99.7973 43.4673 99.8466 43.5166C99.8958 43.566 99.9234 43.633 99.9234 43.7028C99.9234 43.7608 100.028 49.1749 95.4189 50.2914C95.0943 50.3725 94.7612 50.4149 94.4267 50.4178Z" fill="#231F20"/>
<path d="M167.423 37.0722H113.757C112.246 37.0722 111.022 38.3007 111.022 39.8161V111.09C111.022 112.605 112.246 113.834 113.757 113.834H167.423C168.933 113.834 170.158 112.605 170.158 111.09V39.8161C170.158 38.3007 168.933 37.0722 167.423 37.0722Z" fill="#231F20"/>
<path d="M166.535 41.7753H114.644V109.131H166.535V41.7753Z" fill="white"/>
<path d="M166.535 109.373H114.644C114.581 109.372 114.521 109.345 114.477 109.3C114.433 109.255 114.408 109.194 114.408 109.131V41.7752C114.408 41.7124 114.433 41.6521 114.477 41.6076C114.521 41.5632 114.582 41.5382 114.644 41.5382H166.535C166.598 41.5382 166.659 41.563 166.704 41.6073C166.749 41.6516 166.775 41.7119 166.777 41.7752V109.131C166.775 109.194 166.749 109.255 166.704 109.3C166.659 109.346 166.599 109.372 166.535 109.373ZM114.886 108.894H166.294V42.0069H114.886V108.894Z" fill="#231F20"/>
<path d="M154.151 34.3597H146.685C146.411 32.9387 145.653 31.6577 144.54 30.7366C143.428 29.8155 142.03 29.3116 140.587 29.3116C139.145 29.3116 137.747 29.8155 136.634 30.7366C135.521 31.6577 134.763 32.9387 134.489 34.3597H127.05C126.576 34.3597 126.122 34.5482 125.786 34.8838C125.45 35.2195 125.261 35.6749 125.26 36.1503V42.4124C125.26 42.8887 125.448 43.3455 125.784 43.6823C126.12 44.0191 126.575 44.2083 127.05 44.2083H154.172C154.64 44.1987 155.086 44.0052 155.414 43.6695C155.742 43.3337 155.925 42.8824 155.925 42.4124V36.1503C155.924 35.6777 155.737 35.2246 155.404 34.8894C155.072 34.5542 154.622 34.3638 154.151 34.3597ZM140.59 35.176C140.278 35.176 139.974 35.0833 139.715 34.9097C139.456 34.7361 139.254 34.4893 139.135 34.2006C139.016 33.9119 138.984 33.5942 139.045 33.2878C139.106 32.9813 139.256 32.6997 139.476 32.4788C139.696 32.2578 139.977 32.1073 140.283 32.0464C140.588 31.9854 140.905 32.0167 141.193 32.1363C141.48 32.2559 141.726 32.4584 141.899 32.7182C142.072 32.978 142.165 33.2835 142.165 33.596C142.165 33.8035 142.124 34.0089 142.045 34.2006C141.966 34.3923 141.85 34.5665 141.704 34.7132C141.557 34.8599 141.384 34.9763 141.193 35.0557C141.001 35.1351 140.797 35.176 140.59 35.176Z" fill="#811E78"/>
<path d="M134.636 63.3738H122.104C122.041 63.3725 121.98 63.3465 121.935 63.3014C121.89 63.2562 121.864 63.1954 121.863 63.1316V49.6963C121.864 49.6325 121.89 49.5716 121.935 49.5265C121.98 49.4813 122.041 49.4554 122.104 49.454H134.636C134.7 49.454 134.762 49.4796 134.807 49.525C134.852 49.5704 134.878 49.6321 134.878 49.6963V63.1316C134.878 63.1958 134.852 63.2574 134.807 63.3029C134.762 63.3483 134.7 63.3738 134.636 63.3738ZM122.325 62.884H134.4V49.9386H122.325V62.884Z" fill="#D1D3D4"/>
<path d="M137.576 52.9827C137.51 53.0926 137.435 53.1966 137.351 53.2935L129.25 61.4041C128.972 61.6833 128.757 61.6885 128.484 61.4041C126.961 59.8347 125.444 58.2547 123.932 56.6641C123.875 56.6207 123.829 56.5642 123.798 56.4993C123.767 56.4344 123.753 56.363 123.755 56.2912C123.758 56.2195 123.778 56.1493 123.813 56.0868C123.848 56.0243 123.898 55.9712 123.958 55.932L125.103 54.8787C125.143 54.8263 125.194 54.7838 125.254 54.7546C125.313 54.7253 125.378 54.7101 125.444 54.7101C125.51 54.7101 125.575 54.7253 125.634 54.7546C125.693 54.7838 125.745 54.8263 125.785 54.8787L128.478 57.6332C128.762 57.9176 128.972 57.9176 129.25 57.6332L135.55 51.35C135.591 51.2881 135.647 51.2374 135.713 51.2023C135.778 51.1672 135.851 51.1488 135.925 51.1488C136 51.1488 136.073 51.1672 136.138 51.2023C136.204 51.2374 136.259 51.2881 136.301 51.35C136.652 51.7082 137.009 52.0663 137.351 52.4034C137.43 52.499 137.504 52.5992 137.571 52.7036L137.576 52.9827Z" fill="#811E78"/>
<path d="M160.02 54.5471H142.023C141.964 54.5384 141.911 54.5089 141.872 54.464C141.833 54.419 141.812 54.3616 141.812 54.3022C141.812 54.2427 141.833 54.1853 141.872 54.1404C141.911 54.0954 141.964 54.0659 142.023 54.0573H160.02C160.079 54.0659 160.132 54.0954 160.171 54.1404C160.21 54.1853 160.231 54.2427 160.231 54.3022C160.231 54.3616 160.21 54.419 160.171 54.464C160.132 54.5089 160.079 54.5384 160.02 54.5471Z" fill="#D1D3D4"/>
<path d="M155.232 58.7656H142.023C141.991 58.7663 141.959 58.7605 141.93 58.7486C141.9 58.7367 141.873 58.7189 141.851 58.6962C141.828 58.6736 141.81 58.6466 141.799 58.6169C141.787 58.5872 141.781 58.5553 141.782 58.5233C141.782 58.4591 141.807 58.3975 141.852 58.352C141.898 58.3066 141.959 58.2811 142.023 58.2811H155.232C155.296 58.2824 155.356 58.3084 155.401 58.3535C155.446 58.3987 155.472 58.4595 155.474 58.5233C155.474 58.5876 155.448 58.6492 155.403 58.6946C155.358 58.7401 155.296 58.7656 155.232 58.7656Z" fill="#D1D3D4"/>
<path d="M134.636 81.7176H122.104C122.041 81.7163 121.98 81.6903 121.935 81.6452C121.89 81.6 121.864 81.5392 121.863 81.4754V68.0454C121.863 68.0135 121.869 67.982 121.881 67.9527C121.893 67.9233 121.911 67.8965 121.934 67.8741C121.956 67.8516 121.983 67.8337 122.012 67.8215C122.041 67.8094 122.073 67.8031 122.104 67.8031H134.636C134.668 67.8024 134.7 67.8082 134.729 67.8201C134.759 67.832 134.786 67.8498 134.809 67.8725C134.831 67.8951 134.849 67.9221 134.861 67.9518C134.873 67.9815 134.878 68.0133 134.878 68.0454V81.4754C134.878 81.5396 134.852 81.6012 134.807 81.6467C134.762 81.6921 134.7 81.7176 134.636 81.7176ZM122.325 81.2331H134.4V68.2876H122.325V81.2331Z" fill="#D1D3D4"/>
<path d="M137.576 71.3265C137.51 71.438 137.435 71.5437 137.351 71.6425L129.25 79.7531C129.209 79.8184 129.153 79.8723 129.086 79.9097C129.019 79.947 128.943 79.9666 128.867 79.9666C128.79 79.9666 128.715 79.947 128.648 79.9097C128.581 79.8723 128.524 79.8184 128.484 79.7531C126.961 78.1801 125.444 76.6001 123.932 75.0131C123.875 74.9697 123.829 74.9132 123.798 74.8483C123.767 74.7834 123.753 74.712 123.755 74.6403C123.758 74.5685 123.778 74.4983 123.813 74.4358C123.848 74.3733 123.898 74.3202 123.958 74.2811L125.103 73.2277C125.143 73.1762 125.195 73.1345 125.254 73.1059C125.313 73.0773 125.378 73.0624 125.444 73.0624C125.509 73.0624 125.574 73.0773 125.633 73.1059C125.692 73.1345 125.744 73.1762 125.785 73.2277L128.478 75.9822C128.762 76.2666 128.972 76.2719 129.25 75.9822L135.55 69.6991C135.59 69.636 135.646 69.5841 135.712 69.5482C135.777 69.5123 135.851 69.4935 135.925 69.4935C136 69.4935 136.074 69.5123 136.139 69.5482C136.205 69.5841 136.26 69.636 136.301 69.6991C136.652 70.0572 137.009 70.4101 137.351 70.7524C137.43 70.848 137.504 70.9483 137.571 71.0526L137.576 71.3265Z" fill="#811E78"/>
<path d="M160.02 72.8907H142.023C141.959 72.8907 141.898 72.8651 141.852 72.8197C141.807 72.7743 141.782 72.7126 141.782 72.6484C141.782 72.5841 141.807 72.5225 141.852 72.4771C141.898 72.4317 141.959 72.4061 142.023 72.4061H160.02C160.084 72.4061 160.146 72.4317 160.191 72.4771C160.236 72.5225 160.262 72.5841 160.262 72.6484C160.262 72.7126 160.236 72.7743 160.191 72.8197C160.146 72.8651 160.084 72.8907 160.02 72.8907Z" fill="#D1D3D4"/>
<path d="M155.232 77.1145H142.023C141.959 77.1145 141.898 77.089 141.852 77.0435C141.807 76.9981 141.782 76.9365 141.782 76.8722C141.781 76.8402 141.787 76.8084 141.799 76.7787C141.81 76.7489 141.828 76.7219 141.851 76.6993C141.873 76.6767 141.9 76.6588 141.93 76.6469C141.959 76.635 141.991 76.6292 142.023 76.6299H155.232C155.296 76.6299 155.358 76.6555 155.403 76.7009C155.448 76.7463 155.474 76.808 155.474 76.8722C155.472 76.936 155.446 76.9969 155.401 77.042C155.356 77.0872 155.296 77.1131 155.232 77.1145Z" fill="#D1D3D4"/>
<path d="M134.636 100.067H122.104C122.041 100.065 121.98 100.039 121.935 99.9942C121.89 99.949 121.864 99.8882 121.863 99.8244V86.3733C121.864 86.3095 121.89 86.2486 121.935 86.2035C121.98 86.1583 122.041 86.1324 122.104 86.131H134.636C134.7 86.131 134.762 86.1566 134.807 86.202C134.852 86.2474 134.878 86.3091 134.878 86.3733V99.8086C134.88 99.8417 134.875 99.8749 134.864 99.9061C134.853 99.9374 134.835 99.966 134.813 99.9902C134.79 100.014 134.763 100.034 134.732 100.047C134.702 100.06 134.669 100.067 134.636 100.067ZM122.325 99.5821H134.4V86.6314H122.325V99.5821Z" fill="#D1D3D4"/>
<path d="M160.02 91.2397H142.023C141.964 91.231 141.911 91.2015 141.872 91.1566C141.833 91.1116 141.812 91.0542 141.812 90.9948C141.812 90.9354 141.833 90.8779 141.872 90.833C141.911 90.788 141.964 90.7585 142.023 90.7499H160.02C160.079 90.7585 160.132 90.788 160.171 90.833C160.21 90.8779 160.231 90.9354 160.231 90.9948C160.231 91.0542 160.21 91.1116 160.171 91.1566C160.132 91.2015 160.079 91.231 160.02 91.2397Z" fill="#D1D3D4"/>
<path d="M155.232 95.4583H142.023C141.991 95.459 141.959 95.4532 141.93 95.4413C141.9 95.4294 141.873 95.4116 141.851 95.3889C141.828 95.3663 141.81 95.3393 141.799 95.3096C141.787 95.2799 141.781 95.248 141.782 95.216C141.782 95.1518 141.807 95.0902 141.852 95.0447C141.898 94.9993 141.959 94.9738 142.023 94.9738H155.232C155.296 94.9751 155.356 95.0011 155.401 95.0462C155.446 95.0914 155.472 95.1522 155.474 95.216C155.474 95.2803 155.448 95.3419 155.403 95.3873C155.358 95.4328 155.296 95.4583 155.232 95.4583Z" fill="#D1D3D4"/>
<path d="M69.526 87.3635L61.4252 106.639L79.4642 91.0133L90.946 94.9159C90.946 94.9159 88.384 112.085 72.7022 126.584C57.0205 141.083 40.8295 138.303 39.9002 124.73C38.971 111.158 48.5102 84.8408 48.5102 84.8408" fill="white"/>
<path d="M52.3321 136.544C50.4798 136.561 48.6412 136.225 46.9141 135.554C42.5776 133.821 39.9893 129.981 39.6376 124.752C38.7188 111.279 48.1636 85.0146 48.2581 84.7249C48.2824 84.6551 48.3335 84.5978 48.3999 84.5657C48.4664 84.5336 48.5428 84.5293 48.6124 84.5537C48.6821 84.5782 48.7392 84.6294 48.7712 84.696C48.8032 84.7627 48.8074 84.8394 48.7831 84.9093C48.6886 85.1726 39.2858 111.332 40.1941 124.688C40.5301 129.697 42.9976 133.368 47.1293 135.022C54.0331 137.776 63.7666 134.458 72.5341 126.358C86.9978 112.986 90.2791 97.1332 90.6518 95.0739L79.5428 91.2924L61.6193 106.819C61.5726 106.856 61.5149 106.877 61.4553 106.878C61.3956 106.879 61.3372 106.861 61.289 106.825C61.2407 106.79 61.2053 106.74 61.1882 106.683C61.1711 106.625 61.1731 106.564 61.1941 106.508L69.3001 87.2529C69.3142 87.2183 69.335 87.1869 69.3612 87.1604C69.3875 87.1338 69.4187 87.1128 69.4531 87.0983C69.4874 87.0839 69.5243 87.0764 69.5615 87.0763C69.5988 87.0761 69.6357 87.0834 69.6702 87.0976C69.7047 87.1117 69.736 87.1326 69.7625 87.1589C69.7889 87.1852 69.8099 87.2165 69.8243 87.251C69.8387 87.2855 69.8461 87.3225 69.8463 87.3599C69.8464 87.3972 69.8392 87.4343 69.8251 87.4689L62.1811 105.676L79.2751 90.8079C79.3112 90.7763 79.3549 90.7549 79.4019 90.7456C79.4489 90.7364 79.4975 90.7397 79.5428 90.7553L91.0193 94.6631C91.0793 94.6833 91.1303 94.7238 91.1639 94.7776C91.1974 94.8314 91.2112 94.8952 91.2031 94.9581C91.1768 95.1319 88.4468 112.391 72.8753 126.785C66.0608 133.094 58.6268 136.544 52.3321 136.544Z" fill="#231F20"/>
<path d="M84.0789 62.9051L104.585 79.2528L105.142 80.2219L107.867 84.9777L102.632 83.3924L101.561 83.0659L81.0549 66.7234L84.0789 62.9051Z" fill="#231F20"/>
<path d="M107.866 85.2411H107.788L101.488 83.3293C101.455 83.3188 101.425 83.3027 101.398 83.2819L80.8919 66.9552C80.8388 66.9098 80.805 66.8458 80.7974 66.7761C80.7928 66.7426 80.7951 66.7085 80.8041 66.6759C80.8131 66.6433 80.8287 66.6129 80.8499 66.5865L83.8739 62.7682C83.918 62.7151 83.9808 62.6811 84.0493 62.6732C84.1177 62.6654 84.1866 62.6843 84.2415 62.7261L104.748 79.0527C104.774 79.0722 104.796 79.0974 104.811 79.1265L108.092 84.8513C108.122 84.8949 108.137 84.9462 108.137 84.9988C108.137 85.0514 108.122 85.1027 108.092 85.1463C108.065 85.1796 108.031 85.2058 107.991 85.2223C107.952 85.2389 107.909 85.2453 107.866 85.2411ZM101.687 82.8289L107.31 84.5353L104.386 79.4267L84.1207 63.2738L81.4222 66.6813L101.687 82.8289Z" fill="#231F20"/>
<path d="M105.142 80.2219L107.867 84.9777L102.632 83.3925L105.142 80.2219Z" fill="#811E78"/>
<path d="M107.867 85.2515C107.841 85.2565 107.814 85.2565 107.788 85.2515L102.538 83.6715C102.496 83.6583 102.458 83.6351 102.427 83.6039C102.396 83.5727 102.373 83.5345 102.359 83.4925C102.347 83.4499 102.344 83.405 102.351 83.3611C102.358 83.3173 102.375 83.2757 102.401 83.2397L104.911 80.0797C104.938 80.0441 104.975 80.0162 105.016 79.9987C105.057 79.9812 105.102 79.9746 105.147 79.9796C105.191 79.983 105.233 79.9967 105.27 80.0196C105.308 80.0424 105.339 80.0739 105.362 80.1112L108.082 84.8513C108.113 84.8961 108.129 84.9494 108.129 85.004C108.129 85.0586 108.113 85.1118 108.082 85.1567C108.056 85.1879 108.022 85.2127 107.985 85.2291C107.948 85.2455 107.907 85.2532 107.867 85.2515ZM103.094 83.2449L107.294 84.5195L105.11 80.7064L103.094 83.2449Z" fill="#231F20"/>
<path d="M107.059 84.3521L107.056 84.3562C106.969 84.4655 106.987 84.6245 107.096 84.7114L107.922 85.37C108.031 85.4568 108.19 85.4386 108.277 85.3293L108.28 85.3252C108.366 85.2159 108.348 85.0568 108.239 84.97L107.413 84.3114C107.304 84.2246 107.146 84.2428 107.059 84.3521Z" fill="white"/>
<path d="M108.082 85.6992C107.963 85.6985 107.849 85.6577 107.756 85.5833L106.932 84.925C106.824 84.8391 106.755 84.7143 106.738 84.5774C106.73 84.5083 106.735 84.4383 106.754 84.3715C106.773 84.3046 106.805 84.2421 106.848 84.1876C106.935 84.0791 107.061 84.0094 107.198 83.9936C107.336 83.9778 107.474 84.0173 107.583 84.1034L108.407 84.7617C108.461 84.8049 108.506 84.8582 108.539 84.9188C108.573 84.9793 108.594 85.0458 108.602 85.1146C108.611 85.1828 108.606 85.2524 108.587 85.3186C108.568 85.3849 108.536 85.4464 108.491 85.499C108.442 85.5611 108.38 85.6113 108.309 85.646C108.238 85.6806 108.161 85.6988 108.082 85.6992Z" fill="#231F20"/>
<path d="M76.399 62.176L78.6166 59.3762C78.8158 59.1246 79.1065 58.9628 79.4247 58.9263C79.7429 58.8897 80.0625 58.9815 80.3132 59.1814L90.0548 66.9465L86.3348 71.6431L76.5932 63.878C76.3424 63.6781 76.1811 63.3865 76.1447 63.0673C76.1083 62.7481 76.1997 62.4275 76.399 62.176Z" fill="#231F20"/>
<path d="M86.3363 71.9059C86.2778 71.907 86.2205 71.8885 86.1736 71.8532L76.4296 64.0849C76.2782 63.9648 76.1519 63.816 76.0581 63.6468C75.9642 63.4777 75.9046 63.2916 75.8826 63.0992C75.8607 62.9069 75.8768 62.7121 75.9301 62.526C75.9835 62.34 76.0729 62.1663 76.1933 62.0151L78.4088 59.2185C78.6514 58.9129 79.0048 58.7164 79.3916 58.6719C79.7784 58.6275 80.167 58.7388 80.4721 58.9815L90.2161 66.7445C90.2702 66.788 90.305 66.8511 90.3128 66.9202C90.3207 66.9893 90.301 67.0586 90.2581 67.1132L86.5411 71.8111C86.5201 71.8378 86.4939 71.8599 86.4641 71.8762C86.4343 71.8925 86.4016 71.9026 86.3678 71.9059H86.3363ZM79.5638 59.1816H79.4536C79.3301 59.1946 79.2103 59.2319 79.1013 59.2916C78.9922 59.3513 78.8961 59.432 78.8183 59.5292L76.6028 62.3311C76.5256 62.4286 76.4682 62.5404 76.4341 62.6601C76.3999 62.7799 76.3896 62.9052 76.4037 63.029C76.4179 63.1527 76.4562 63.2724 76.5165 63.3813C76.5768 63.4902 76.6578 63.5861 76.7551 63.6635L86.2943 71.2686L89.6859 66.9815L80.1518 59.3817C79.9837 59.2509 79.7767 59.1804 79.5638 59.1816Z" fill="#231F20"/>
<path d="M82.5826 70.7681C82.5216 70.769 82.4622 70.7485 82.4146 70.7102C82.2099 70.5469 77.3327 66.7075 76.6922 66.1019C75.9519 65.4014 76.3142 63.8793 76.3299 63.8161C76.3466 63.7463 76.3903 63.686 76.4513 63.6484C76.5124 63.6109 76.5858 63.5992 76.6554 63.616C76.725 63.6328 76.7852 63.6766 76.8226 63.7378C76.86 63.7991 76.8716 63.8727 76.8549 63.9425C76.7709 64.2954 76.6397 65.3066 77.0649 65.7069C77.6844 66.2915 82.6981 70.2467 82.7506 70.2836C82.8062 70.3282 82.8423 70.3927 82.8511 70.4636C82.8599 70.5344 82.8408 70.6059 82.7979 70.6628C82.7719 70.6951 82.7391 70.7212 82.7019 70.7394C82.6647 70.7576 82.624 70.7674 82.5826 70.7681Z" fill="#231F20"/>
<path d="M78.1306 65.233C78.0671 65.2336 78.0056 65.2112 77.9573 65.1698C77.93 65.1474 77.9074 65.1198 77.8907 65.0885C77.8741 65.0573 77.8637 65.0231 77.8603 64.9879C77.8569 64.9526 77.8605 64.9171 77.8708 64.8832C77.8812 64.8493 77.8981 64.8179 77.9206 64.7906L81.6481 60.2718C81.6941 60.2161 81.7603 60.1809 81.8321 60.174C81.9039 60.1671 81.9755 60.189 82.0313 60.2349C82.059 60.2578 82.0819 60.286 82.0985 60.3178C82.1152 60.3497 82.1253 60.3846 82.1282 60.4205C82.1312 60.4563 82.1269 60.4924 82.1156 60.5266C82.1044 60.5608 82.0864 60.5923 82.0628 60.6194L78.3353 65.1329C78.3111 65.1643 78.2801 65.1896 78.2446 65.2069C78.2091 65.2243 78.1701 65.2332 78.1306 65.233Z" fill="white"/>
<path d="M90.4313 96.1588C90.9563 95.2845 91.3763 92.9988 91.3763 92.9988C91.3763 92.9988 95.8755 93.3622 96.8205 91.977C97.7655 90.5919 100.595 80.759 99.6503 79.0842C98.7053 77.4094 95.0775 75.0816 93.9908 74.6444C92.904 74.2073 88.4678 75.0816 88.4678 75.0816L91.9538 71.5845C91.9538 71.5845 97.6185 74.9341 100.16 74.7129C102.701 74.4917 103.43 73.549 102.123 72.0216C100.816 70.4943 91.3028 66.1914 89.7068 66.4126C88.1108 66.6338 81.0653 73.2593 80.9183 74.2073C80.7713 75.1553 75.3323 93.5728 76.4925 95.611" fill="white"/>
<path d="M90.4315 96.4274C90.3842 96.4243 90.3387 96.4079 90.3002 96.38C90.2694 96.3625 90.2423 96.339 90.2206 96.311C90.1989 96.2829 90.1829 96.2508 90.1736 96.2166C90.1644 96.1823 90.162 96.1465 90.1666 96.1112C90.1712 96.076 90.1827 96.0421 90.2005 96.0113C90.6183 95.0325 90.9247 94.0096 91.114 92.9619C91.1278 92.8969 91.1647 92.8392 91.2178 92.7994C91.271 92.7597 91.3367 92.7407 91.4027 92.746C92.6102 92.8408 95.902 92.8671 96.6002 91.8401C97.5032 90.5235 100.275 80.7485 99.4247 79.237C98.506 77.6149 94.8887 75.3081 93.8912 74.9131C93.0617 74.576 89.7385 75.1237 88.5257 75.3607C88.4693 75.3729 88.4104 75.3661 88.3582 75.3414C88.306 75.3166 88.2634 75.2753 88.237 75.2238C88.2097 75.1722 88.1995 75.1132 88.208 75.0554C88.2165 74.9976 88.2432 74.944 88.2842 74.9025L91.7702 71.4055C91.8134 71.3635 91.869 71.3368 91.9286 71.3292C91.9882 71.3216 92.0487 71.3336 92.101 71.3633C92.1535 71.3949 97.708 74.6603 100.144 74.4601C101.441 74.3495 102.244 74.0335 102.449 73.5753C102.653 73.1171 102.254 72.6063 101.924 72.2113C100.695 70.7682 91.2662 66.5022 89.749 66.6971C88.3262 66.8867 81.3752 73.3594 81.1862 74.26C81.1547 74.4549 80.9552 75.2027 80.5352 76.7459C79.2542 81.4543 75.8575 93.9573 76.729 95.4847C76.7651 95.5475 76.7749 95.6222 76.7562 95.6923C76.7375 95.7624 76.6919 95.8222 76.6292 95.8586C76.5663 95.8935 76.4923 95.9026 76.4228 95.8839C76.3533 95.8652 76.2937 95.8203 76.2565 95.7585C75.3955 94.2417 77.5532 85.6571 80.0102 76.6037C80.3515 75.3449 80.6245 74.3495 80.6507 74.1757C80.824 73.0592 88.0007 66.3811 89.6702 66.1546C91.3397 65.9281 100.947 70.2363 102.328 71.8531C102.958 72.5905 103.163 73.2383 102.947 73.7755C102.669 74.4549 101.74 74.8604 100.186 74.9973C97.813 75.208 93.0092 72.5167 92.0012 71.9321L89.2765 74.6655C90.6572 74.4285 93.2297 74.0546 94.0907 74.4022C95.1407 74.8288 98.8997 77.2093 99.8657 78.9631C100.832 80.7169 98.0072 90.7025 97.0255 92.1298C96.1172 93.457 92.5997 93.3464 91.5707 93.2832C91.385 94.3116 91.0729 95.3128 90.6415 96.2641C90.6237 96.3073 90.5949 96.3451 90.5581 96.3737C90.5213 96.4024 90.4776 96.4209 90.4315 96.4274Z" fill="#231F20"/>
<path d="M87.0187 79.4741C87.0187 79.4741 92.9722 78.4576 94.2795 78.821C95.5867 79.1844 99.3615 83.2661 99.3615 83.2661" fill="white"/>
<path d="M99.3616 83.5346C99.3244 83.5353 99.2874 83.5281 99.253 83.5136C99.2187 83.4991 99.1877 83.4775 99.1621 83.4503C98.1121 82.3285 95.2194 79.3634 94.2061 79.0843C93.1929 78.8051 88.7041 79.4635 87.0609 79.7426C86.9907 79.7534 86.9191 79.7363 86.8613 79.695C86.8035 79.6537 86.764 79.5914 86.7511 79.5214C86.7444 79.4864 86.7448 79.4503 86.7523 79.4155C86.7598 79.3806 86.7744 79.3477 86.795 79.3186C86.8156 79.2896 86.8419 79.265 86.8723 79.2465C86.9026 79.2279 86.9364 79.2157 86.9716 79.2107C87.2184 79.1685 93.0039 78.1573 94.3531 78.5576C95.7024 78.9579 99.1674 82.6551 99.5611 83.0817C99.6111 83.132 99.6392 83.2002 99.6392 83.2713C99.6392 83.3423 99.6111 83.4105 99.5611 83.4609C99.5355 83.4873 99.5042 83.5076 99.4697 83.5204C99.4352 83.5332 99.3983 83.538 99.3616 83.5346Z" fill="#231F20"/>
<path d="M91.3763 93.0252C91.3763 93.0252 92.3895 89.9653 92.1743 87.9271L91.3763 93.0252Z" fill="white"/>
<path d="M91.3765 93.299C91.3337 93.2986 91.2915 93.2881 91.2535 93.2684C91.2154 93.2486 91.1825 93.2201 91.1575 93.1853C91.1325 93.1504 91.1159 93.1101 91.1093 93.0677C91.1026 93.0252 91.1061 92.9818 91.1192 92.9409C91.1192 92.9093 92.1115 89.9126 91.9015 87.9534C91.8979 87.9181 91.9013 87.8824 91.9115 87.8484C91.9217 87.8144 91.9385 87.7828 91.9609 87.7554C91.9834 87.728 92.011 87.7053 92.0423 87.6886C92.0735 87.672 92.1078 87.6617 92.143 87.6584C92.1782 87.654 92.2139 87.6567 92.2481 87.6663C92.2822 87.6758 92.3142 87.6921 92.342 87.7142C92.3699 87.7362 92.3931 87.7636 92.4103 87.7947C92.4275 87.8258 92.4383 87.8601 92.4422 87.8954C92.6627 89.9705 91.6757 92.983 91.6337 93.1094C91.6154 93.1637 91.5809 93.211 91.5349 93.2449C91.4889 93.2788 91.4336 93.2977 91.3765 93.299Z" fill="#231F20"/>
<path d="M88.1057 88.0745C88.3997 88.0007 93.4082 88.143 93.697 88.0745H88.1057Z" fill="white"/>
<path d="M92.9829 88.3642C92.5419 88.3642 91.8804 88.3642 90.8829 88.3642C89.7436 88.3642 88.3209 88.3273 88.1476 88.3642C88.0783 88.3754 88.0073 88.36 87.9489 88.3209C87.8905 88.2818 87.849 88.222 87.8326 88.1535C87.8169 88.0858 87.8284 88.0146 87.8648 87.9554C87.9012 87.8961 87.9595 87.8538 88.0269 87.8375C88.9799 87.784 89.9351 87.784 90.8881 87.8375C92.0326 87.8375 93.4501 87.8744 93.6234 87.8375C93.6929 87.825 93.7645 87.8399 93.8232 87.8792C93.8819 87.9185 93.9232 87.979 93.9384 88.0482C93.9545 88.1159 93.9438 88.1872 93.9086 88.2471C93.8733 88.307 93.8162 88.3509 93.7494 88.3695C93.494 88.3841 93.238 88.3824 92.9829 88.3642Z" fill="#231F20"/>
<path d="M86.1 83.482C86.1 83.482 90.384 82.534 92.4 82.9554C94.416 83.3767 98.0647 87.7638 98.427 88.1272" fill="white"/>
<path d="M98.4165 88.4169C98.3456 88.4167 98.2776 88.3883 98.2275 88.3379C98.175 88.2852 98.0648 88.1641 97.9073 87.985C96.9465 86.9001 94.0118 83.5979 92.3318 83.245C90.384 82.8237 86.1735 83.7454 86.1315 83.7717C86.0613 83.7858 85.9883 83.7716 85.9284 83.7321C85.8685 83.6927 85.8264 83.6313 85.8113 83.561C85.8028 83.5264 85.8014 83.4904 85.8072 83.4552C85.813 83.4201 85.8259 83.3864 85.845 83.3564C85.8642 83.3264 85.8892 83.3005 85.9186 83.2805C85.948 83.2604 85.9811 83.2466 86.016 83.2398C86.1945 83.1976 90.3788 82.2865 92.4473 82.7131C94.1063 83.0712 96.5895 85.6888 98.3115 87.6269C98.4585 87.7954 98.5635 87.9113 98.6108 87.9587C98.6611 88.0099 98.6893 88.079 98.6893 88.1509C98.6893 88.2229 98.6611 88.2919 98.6108 88.3432C98.5579 88.392 98.4883 88.4184 98.4165 88.4169Z" fill="#231F20"/>
<path d="M158.739 113.628C158.862 112.79 158.941 111.947 158.975 111.1C159.032 109.346 158.759 107.597 158.172 105.944C157.993 105.207 157.589 104.545 157.017 104.048C156.413 103.601 155.442 103.585 155.001 104.196C154.56 104.807 154.78 105.476 154.927 106.123C155.317 107.877 155.404 109.686 155.185 111.469C154.906 109.073 154.591 106.582 153.284 104.554C153.013 104.081 152.626 103.684 152.161 103.401C151.925 103.265 151.657 103.196 151.385 103.201C151.113 103.207 150.847 103.287 150.617 103.432C149.95 103.922 150.003 104.912 150.092 105.739C150.305 107.853 150.273 109.984 149.998 112.091C150.146 110.239 150.012 108.376 149.599 106.566C149.326 105.381 148.79 104.069 147.64 103.695C147.392 103.605 147.122 103.587 146.863 103.643C146.604 103.732 146.372 103.889 146.194 104.098C146.016 104.308 145.897 104.562 145.85 104.833C145.764 105.374 145.764 105.925 145.85 106.466C146.067 108.593 146.001 110.739 145.656 112.849C145.925 111 145.854 109.116 145.446 107.293C145.338 106.561 145.049 105.867 144.606 105.275C144.377 104.986 144.064 104.776 143.711 104.672C143.357 104.568 142.98 104.577 142.632 104.696C142.382 104.832 142.166 105.023 142.001 105.255C141.835 105.486 141.724 105.753 141.676 106.034C141.589 106.598 141.57 107.171 141.619 107.74C141.668 109.893 141.271 112.032 140.453 114.023C139.771 115.682 138.878 117.515 139.051 119.369C139.225 121.223 140.731 122.929 142.527 123.651C144.364 124.288 146.345 124.381 148.234 123.919C154.46 122.682 159.6 119.706 161.805 113.734" fill="white"/>
<path d="M145.63 124.467C144.537 124.483 143.45 124.292 142.427 123.904C140.411 123.093 138.947 121.27 138.789 119.39C138.642 117.668 139.356 115.956 139.986 114.455L140.207 113.929C141.01 111.971 141.4 109.867 141.351 107.751V107.487C141.311 106.984 141.335 106.478 141.425 105.981C141.478 105.658 141.606 105.351 141.798 105.086C141.991 104.821 142.242 104.604 142.532 104.454C142.935 104.317 143.369 104.306 143.777 104.421C144.186 104.537 144.55 104.774 144.821 105.102C145.212 105.593 145.483 106.168 145.614 106.782C145.614 106.687 145.614 106.592 145.588 106.503V106.371C145.5 105.848 145.5 105.314 145.588 104.791C145.644 104.47 145.786 104.171 145.999 103.925C146.212 103.679 146.487 103.496 146.795 103.395C147.104 103.326 147.427 103.346 147.725 103.453C148.775 103.79 149.473 104.822 149.861 106.518C149.861 106.576 149.888 106.639 149.903 106.697C149.882 106.392 149.856 106.086 149.825 105.781C149.73 104.844 149.699 103.79 150.47 103.227C150.741 103.049 151.055 102.951 151.377 102.943C151.7 102.934 152.019 103.016 152.297 103.179C152.804 103.484 153.227 103.911 153.526 104.422C154.241 105.597 154.737 106.893 154.991 108.246C154.928 107.558 154.821 106.876 154.67 106.202C154.518 105.518 154.334 104.686 154.791 104.054C154.904 103.901 155.046 103.772 155.21 103.676C155.373 103.579 155.554 103.516 155.741 103.49C156.252 103.414 156.772 103.54 157.19 103.843C157.806 104.375 158.243 105.085 158.44 105.876C159.046 107.563 159.324 109.351 159.259 111.142C159.259 111.401 159.222 111.632 159.212 111.848C159.182 112.468 159.117 113.085 159.017 113.697C159.019 113.738 159.011 113.778 158.995 113.816C158.979 113.854 158.954 113.887 158.924 113.914C158.893 113.941 158.856 113.96 158.817 113.971C158.778 113.982 158.736 113.984 158.696 113.976C158.656 113.969 158.618 113.953 158.585 113.929C158.552 113.905 158.525 113.874 158.505 113.838C158.486 113.802 158.474 113.762 158.472 113.722C158.47 113.681 158.477 113.64 158.493 113.602C158.59 113.009 158.653 112.411 158.681 111.811C158.681 111.595 158.708 111.364 158.729 111.1C158.791 109.383 158.522 107.67 157.936 106.055C157.773 105.372 157.407 104.754 156.886 104.285C156.582 104.068 156.205 103.977 155.836 104.032C155.719 104.046 155.606 104.084 155.504 104.143C155.403 104.202 155.313 104.281 155.243 104.375C154.928 104.812 155.075 105.481 155.206 106.071C155.609 107.86 155.7 109.706 155.474 111.527C155.465 111.592 155.433 111.652 155.384 111.695C155.335 111.739 155.272 111.763 155.206 111.764C155.14 111.763 155.076 111.738 155.027 111.693C154.977 111.649 154.946 111.588 154.938 111.522C154.676 109.278 154.376 106.734 153.08 104.717C152.825 104.282 152.463 103.92 152.03 103.664C151.841 103.551 151.625 103.492 151.405 103.492C151.185 103.492 150.969 103.551 150.78 103.664C150.255 104.064 150.255 104.938 150.355 105.728C150.566 107.863 150.532 110.016 150.255 112.143C150.244 112.212 150.206 112.275 150.151 112.318C150.095 112.361 150.026 112.381 149.956 112.375C149.886 112.368 149.821 112.334 149.776 112.28C149.731 112.226 149.709 112.156 149.714 112.085C149.865 110.26 149.732 108.423 149.321 106.639C148.979 105.144 148.381 104.243 147.546 103.969C147.345 103.895 147.127 103.879 146.916 103.922C146.707 104 146.522 104.133 146.38 104.306C146.238 104.478 146.144 104.686 146.108 104.907C146.032 105.376 146.032 105.854 146.108 106.323V106.455C146.327 108.607 146.261 110.778 145.913 112.912C145.901 112.982 145.861 113.044 145.803 113.086C145.745 113.127 145.674 113.144 145.604 113.133C145.568 113.128 145.534 113.116 145.504 113.098C145.473 113.079 145.447 113.055 145.426 113.026C145.405 112.997 145.39 112.964 145.381 112.929C145.373 112.894 145.372 112.858 145.378 112.823C145.642 111.005 145.573 109.154 145.173 107.361C145.071 106.676 144.803 106.026 144.391 105.47C144.203 105.222 143.943 105.038 143.647 104.944C143.351 104.85 143.033 104.85 142.737 104.944C142.525 105.06 142.342 105.223 142.203 105.421C142.063 105.619 141.971 105.847 141.934 106.086C141.857 106.54 141.836 107.002 141.871 107.461V107.724C141.931 109.918 141.532 112.099 140.7 114.129L140.48 114.655C139.844 116.177 139.183 117.747 139.319 119.337C139.466 121.028 140.795 122.661 142.627 123.393C144.134 123.998 146.003 124.083 148.181 123.651C155.111 122.271 159.611 118.911 161.553 113.644C161.578 113.574 161.629 113.517 161.695 113.485C161.762 113.453 161.838 113.449 161.908 113.473C161.977 113.497 162.034 113.549 162.066 113.615C162.098 113.682 162.103 113.759 162.078 113.828C160.062 119.29 155.426 122.782 148.302 124.193C147.423 124.373 146.528 124.465 145.63 124.467Z" fill="#231F20"/>
<path d="M52.6157 113.697C52.5742 113.697 52.5331 113.688 52.4957 113.67C52.4583 113.651 52.4257 113.625 52.4005 113.592C52.3784 113.563 52.3621 113.531 52.3525 113.496C52.343 113.461 52.3403 113.425 52.3447 113.389C52.3491 113.354 52.3604 113.319 52.3781 113.288C52.3958 113.257 52.4195 113.229 52.4477 113.207L61.2625 106.424C61.2903 106.402 61.3222 106.385 61.3564 106.376C61.3905 106.366 61.4262 106.364 61.4613 106.368C61.4965 106.373 61.5304 106.384 61.5612 106.402C61.5919 106.419 61.6189 106.443 61.6405 106.471C61.6625 106.499 61.6788 106.532 61.6884 106.566C61.698 106.601 61.7006 106.637 61.6962 106.673C61.6919 106.709 61.6805 106.743 61.6628 106.775C61.6451 106.806 61.6215 106.833 61.5932 106.855L52.7785 113.639C52.7321 113.676 52.6749 113.696 52.6157 113.697Z" fill="#231F20"/>
<path d="M76.8758 39.6633C76.8154 39.6638 76.7566 39.6438 76.7089 39.6065C76.6612 39.5692 76.6276 39.5168 76.6133 39.4579C75.8101 36.082 75.0383 32.6744 74.3138 29.3196L74.2403 28.972C73.8515 27.4994 73.6573 25.9818 73.6628 24.4584C73.7626 22.81 74.9701 22.7362 76.0463 22.7731C76.1198 21.9944 76.3605 21.2409 76.7521 20.5645C77.1436 19.888 77.6766 19.3047 78.3143 18.8547C81.5378 16.6216 84.9871 17.6328 88.3208 18.6124C90.5258 19.2602 92.8096 19.9291 94.9568 19.6078C96.3812 19.3126 97.7517 18.7993 99.0203 18.0858C99.4823 17.854 99.9443 17.6276 100.412 17.4169C100.879 17.2062 105.688 15.1206 106.859 17.4906C107.184 18.1542 106.916 18.8916 106.612 19.5236C106.009 20.7589 105.307 21.9426 104.512 23.0628C105.084 22.6852 105.695 22.3692 106.334 22.12C107.526 21.6046 108.871 21.5706 110.087 22.0252C110.585 22.2178 111.009 22.5624 111.3 23.0101C111.867 23.9476 111.62 25.1905 110.56 26.6968C109.626 28.0279 108.599 29.2915 107.489 30.4782C107.798 30.315 108.108 30.1201 108.407 29.9516C109.41 29.3196 110.45 28.6665 111.636 28.9772C111.848 29.0245 112.048 29.1166 112.222 29.2473C112.395 29.3781 112.539 29.5446 112.644 29.7356C113.022 30.5362 112.355 31.4104 112.119 31.7001C110.213 34.1921 107.808 36.2555 105.058 37.7568C104.994 37.7905 104.92 37.7979 104.851 37.7772C104.783 37.7565 104.725 37.7094 104.69 37.6462C104.657 37.5825 104.649 37.5081 104.67 37.4391C104.691 37.3701 104.738 37.3121 104.801 37.2775C107.484 35.8137 109.831 33.8004 111.689 31.3683C112.145 30.7626 112.292 30.315 112.13 29.9674C112.06 29.8483 111.966 29.7454 111.854 29.6654C111.742 29.5855 111.614 29.5305 111.479 29.5039C110.518 29.2511 109.625 29.8146 108.675 30.4098C108.007 30.8902 107.258 31.2469 106.465 31.4631C106.408 31.4757 106.348 31.4691 106.295 31.4443C106.242 31.4196 106.198 31.3781 106.171 31.3262C106.144 31.274 106.135 31.2147 106.144 31.1569C106.154 31.099 106.181 31.0458 106.223 31.0049C107.646 29.5887 108.943 28.0502 110.098 26.4071C111.022 25.0852 111.263 24.0476 110.817 23.3103C110.58 22.9634 110.243 22.6971 109.851 22.5466C108.763 22.1494 107.564 22.1852 106.502 22.6467C105.408 23.1226 104.379 23.7367 103.441 24.4742C103.389 24.5189 103.321 24.5417 103.253 24.538C103.184 24.5343 103.12 24.5044 103.073 24.4544C103.026 24.4044 102.999 24.3381 102.999 24.2693C103 24.2005 103.026 24.1343 103.073 24.0845C104.26 22.6116 105.275 21.0071 106.097 19.3024C106.344 18.7757 106.57 18.2016 106.344 17.7224C105.578 16.1687 102.26 17.1641 100.611 17.9067C100.149 18.1174 99.6923 18.3386 99.2356 18.565C97.9257 19.307 96.5088 19.84 95.0356 20.145C92.7676 20.4821 90.4261 19.7974 88.1633 19.1338C84.7981 18.149 81.6271 17.2168 78.6188 19.3024C78.0133 19.7309 77.5132 20.2923 77.1566 20.944C76.8 21.5956 76.5962 22.3202 76.5608 23.0628C76.561 23.0985 76.5536 23.1339 76.5391 23.1666C76.5246 23.1993 76.5034 23.2285 76.4768 23.2524C76.4229 23.2994 76.354 23.3256 76.2826 23.3261C74.8808 23.2682 74.2666 23.3577 74.1826 24.49C74.1825 25.9635 74.3713 27.4309 74.7443 28.8561L74.8231 29.209C75.5423 32.5533 76.3141 35.9608 77.1173 39.3315C77.1259 39.3661 77.1275 39.4021 77.1221 39.4373C77.1167 39.4725 77.1044 39.5063 77.0858 39.5367C77.0672 39.5671 77.0428 39.5935 77.014 39.6143C76.9851 39.6351 76.9525 39.65 76.9178 39.658L76.8758 39.6633Z" fill="#231F20"/>
</svg>
