<svg width="121" height="162" viewBox="0 0 121 162" fill="none" xmlns="http://www.w3.org/2000/svg">
<path d="M103.798 156.155L113.235 109.477L116.349 80.8283C116.349 80.8283 85.0112 50.0385 76.0576 39.9531C67.104 29.8677 57.0185 15.3992 52.4048 16.4805C47.791 17.5619 46.9043 22.8245 49.9249 29.3054C51.1648 31.9655 53.0464 34.9212 53.897 37.6751C54.6179 39.9171 54.38 46.2322 52.2101 47.8182C49.6077 49.7213 47.1205 40.5226 43.8188 42.1591C42.0814 43.017 40.3585 47.4793 41.8435 52.2517C42.7362 54.5449 43.8568 56.7426 45.1885 58.8119C47.9063 63.1878 47.928 65.92 49.6653 70.714C51.4532 75.645 50.999 68.9839 49.3337 73.5039C47.308 78.99 44.4604 85.4061 44.3379 91.3535C44.1504 100.862 55.5984 116.253 60.3058 123.758C65.0133 131.263 55.93 149.083 55.93 149.083L103.798 156.155Z" fill="white"/>
<path d="M103.797 156.525H103.754L55.8787 149.467C55.8227 149.459 55.7693 149.438 55.723 149.405C55.6766 149.372 55.6386 149.329 55.612 149.279C55.5871 149.228 55.5742 149.171 55.5742 149.114C55.5742 149.056 55.5871 149 55.612 148.948C55.7057 148.768 64.5584 131.228 60.0095 123.983C59.2382 122.75 58.2577 121.272 57.2268 119.708C51.8922 111.634 43.8252 99.4362 43.9838 91.3765C44.0848 86.287 46.1466 80.8297 48.0137 76.0141C48.3525 75.1274 48.6841 74.2551 49.0013 73.4116C49.1641 72.8781 49.4072 72.3725 49.7222 71.9122C49.5925 71.6382 49.4555 71.2922 49.3041 70.8668C48.713 69.2448 48.3237 67.8751 47.956 66.5414C47.3215 63.8887 46.2755 61.3516 44.8561 59.0224C43.5058 56.9252 42.3729 54.6956 41.4751 52.3685C39.9252 47.3654 41.7202 42.7877 43.6378 41.8361C45.5554 40.8845 47.2423 43.0832 48.6841 45.0441C49.2277 45.8537 49.8534 46.605 50.5513 47.2861C51.2722 47.8989 51.6903 47.7547 51.9931 47.5312C53.9684 46.0894 54.2567 40.0338 53.5574 37.7846C52.8844 35.8925 52.0449 34.0639 51.0487 32.3202C50.5224 31.3253 50.025 30.3881 49.6069 29.4365C47.6749 25.2769 47.2856 21.6003 48.5111 19.07C48.8798 18.3174 49.4158 17.6591 50.078 17.1455C50.7403 16.632 51.5112 16.2768 52.3319 16.107C56.0085 15.2636 62.2587 22.8259 69.4966 31.592C71.7602 34.3315 74.1032 37.1646 76.3452 39.695C85.1762 49.6507 116.298 80.2097 116.615 80.5197C116.653 80.558 116.682 80.6045 116.7 80.6558C116.717 80.707 116.723 80.7616 116.716 80.8153L113.609 109.5L104.165 156.207C104.156 156.297 104.113 156.38 104.044 156.439C103.976 156.498 103.887 156.529 103.797 156.525ZM56.4699 148.811L103.516 155.746L112.888 109.414L115.973 80.9306C113.811 78.7679 84.3616 49.8525 75.7973 40.1924C73.5481 37.6548 71.1979 34.8145 68.9343 32.0678C62.4462 24.21 55.7274 16.071 52.4905 16.8352C51.7722 16.9747 51.0964 17.2801 50.517 17.7269C49.9375 18.1737 49.4704 18.7496 49.1527 19.4088C48.0353 21.7013 48.4318 25.2553 50.2557 29.1554C50.681 30.0637 51.1712 30.9937 51.6975 31.9813C52.7088 33.7675 53.5604 35.6395 54.2423 37.5755C54.9632 39.8175 54.819 46.3633 52.4184 48.1223C51.6975 48.6414 50.9261 48.5477 50.0899 47.8412C49.3426 47.1297 48.6777 46.3365 48.1074 45.4766C46.7809 43.66 45.404 41.7784 43.9766 42.4921C42.5493 43.2058 40.7182 47.4375 42.1888 52.1666C43.0734 54.4326 44.1793 56.6058 45.4905 58.6547C46.9501 61.0398 48.0231 63.6408 48.6697 66.3612C49.0374 67.666 49.3906 69.0213 50.0034 70.6217C50.1332 70.9894 50.2557 71.285 50.3566 71.5084C50.4189 71.5014 50.4818 71.5014 50.5441 71.5084C50.7389 71.5711 50.9069 71.6978 51.0207 71.8679C51.1345 72.038 51.1876 72.2416 51.1712 72.4456C51.1888 72.573 51.1577 72.7023 51.0842 72.8078C51.0108 72.9133 50.9003 72.9874 50.7747 73.0151C50.5729 73.0151 50.371 72.9719 50.1331 72.6258C49.9549 72.9435 49.8053 73.2764 49.6862 73.6207C49.369 74.4714 49.0374 75.3509 48.6913 76.2376C46.8747 80.9955 44.8129 86.3879 44.712 91.3765C44.5606 99.2055 52.5482 111.295 57.8324 119.297C58.8705 120.869 59.8509 122.347 60.6295 123.586C65.0126 130.572 57.8829 145.927 56.4699 148.811Z" fill="#231F20"/>
<path d="M31.549 111.178L79.7414 126.169C81.6841 126.774 83.7489 125.689 84.3532 123.746L116.41 20.6978C117.014 18.7552 115.929 16.6904 113.986 16.0861L65.794 1.09425C63.8513 0.489913 61.7865 1.57486 61.1822 3.51755L29.1257 106.566C28.5214 108.508 29.6064 110.573 31.549 111.178Z" fill="white"/>
<path d="M80.837 126.686C80.4314 126.686 80.028 126.625 79.6403 126.505L31.448 111.511C30.4299 111.189 29.5798 110.478 29.0818 109.534C28.5839 108.589 28.4783 107.486 28.7878 106.464L60.8536 3.39683C61.1741 2.37765 61.8841 1.52631 62.8292 1.0281C63.7743 0.529897 64.878 0.425166 65.8999 0.736704L114.085 15.7315C115.104 16.052 115.956 16.762 116.454 17.7071C116.952 18.6522 117.057 19.7559 116.745 20.7778L84.7083 123.838C84.4493 124.663 83.9345 125.383 83.2384 125.895C82.5423 126.407 81.7012 126.684 80.837 126.686ZM31.6642 110.819L79.8494 125.813C80.6888 126.074 81.5971 125.993 82.3773 125.588C83.1574 125.183 83.7463 124.487 84.0162 123.651L116.075 20.5832C116.337 19.7438 116.258 18.8346 115.852 18.0539C115.447 17.2733 114.75 16.6846 113.912 16.4163L65.7269 1.42156C64.8875 1.15882 63.9783 1.23876 63.1977 1.64394C62.417 2.04912 61.8283 2.74664 61.5601 3.58427L29.5015 106.659C29.239 107.497 29.3192 108.406 29.7244 109.185C30.1297 109.965 30.8272 110.552 31.6642 110.819Z" fill="#231F20"/>
<path d="M35.606 95.5433L85.0305 110.918L111.387 26.1945L61.9621 10.8194L35.606 95.5433Z" fill="#E6E7E8"/>
<path d="M61.5045 117.048C61.2383 117.049 60.9734 117.01 60.7187 116.933L51.347 114.006C51.0179 113.903 50.7124 113.737 50.4477 113.516C50.1831 113.295 49.9645 113.024 49.8045 112.719C49.6445 112.414 49.5462 112.08 49.5153 111.737C49.4843 111.394 49.5212 111.048 49.624 110.719L50.7414 107.114C50.9489 106.449 51.4114 105.894 52.0276 105.57C52.6438 105.246 53.3634 105.179 54.0287 105.384L63.4005 108.311C64.0651 108.518 64.6204 108.981 64.9447 109.597C65.269 110.213 65.3359 110.933 65.1306 111.598L64.0132 115.203C63.845 115.737 63.5112 116.203 63.0602 116.535C62.6092 116.867 62.0644 117.047 61.5045 117.048ZM53.2141 105.997C52.8078 105.997 52.4123 106.127 52.0854 106.369C51.7585 106.61 51.5174 106.949 51.3974 107.338L50.28 110.942C50.2043 111.181 50.1767 111.433 50.1989 111.682C50.2211 111.932 50.2926 112.175 50.4092 112.397C50.5259 112.619 50.6854 112.815 50.8785 112.975C51.0716 113.135 51.2946 113.255 51.5344 113.328L60.9061 116.255C61.1451 116.331 61.3968 116.358 61.6465 116.336C61.8962 116.314 62.1391 116.243 62.361 116.126C62.5829 116.009 62.7795 115.85 62.9394 115.657C63.0992 115.464 63.2192 115.241 63.2923 115.001L64.4097 111.396C64.5589 110.913 64.5107 110.389 64.2757 109.941C64.0407 109.493 63.638 109.155 63.1553 109.003L53.7836 106.083C53.5992 106.026 53.4072 105.997 53.2141 105.997Z" fill="#D1D3D4"/>
<path d="M98.3187 16.9729H98.2177L84.1385 12.5971C84.0429 12.5684 83.9626 12.5029 83.9153 12.415C83.868 12.3272 83.8575 12.2241 83.8862 12.1285C83.9149 12.0329 83.9803 11.9526 84.0682 11.9053C84.1561 11.858 84.2592 11.8475 84.3548 11.8762L98.4268 16.252C98.5178 16.2819 98.5935 16.346 98.638 16.4308C98.6824 16.5156 98.692 16.6144 98.6647 16.7062C98.6442 16.7824 98.5992 16.8498 98.5367 16.898C98.4742 16.9462 98.3976 16.9725 98.3187 16.9729Z" fill="#D1D3D4"/>
<path d="M82.3284 11.811H82.2202L80.3315 11.2199C80.2359 11.1912 80.1556 11.1257 80.1083 11.0378C80.061 10.9499 80.0505 10.8469 80.0792 10.7513C80.1078 10.6557 80.1733 10.5754 80.2612 10.5281C80.3491 10.4807 80.4522 10.4703 80.5477 10.4989L82.4365 11.0901C82.5275 11.1199 82.6033 11.184 82.6477 11.2689C82.6921 11.3537 82.7017 11.4525 82.6744 11.5443C82.6528 11.6199 82.6076 11.6866 82.5453 11.7346C82.483 11.7826 82.407 11.8094 82.3284 11.811Z" fill="#D1D3D4"/>
<path d="M57.2555 51.6908C56.9915 52.6721 56.4373 53.5509 55.6655 54.212C54.8938 54.8732 53.9403 55.2859 52.9301 55.3962C50.4184 55.6962 47.8854 55.0456 45.8292 53.5723C44.6472 52.7446 43.6383 51.6941 42.8591 50.4796C41.5182 48.3818 41.0929 45.9956 41.9219 44.1645C43.2772 41.1728 47.9487 40.4807 51.9713 42.2469C55.7344 43.8978 57.8755 48.8936 57.2555 51.6908Z" fill="white"/>
<path d="M51.6999 55.8496C49.5214 55.8123 47.4042 55.1216 45.6227 53.8671C44.4016 53.0141 43.3605 51.9289 42.5589 50.6735C41.1171 48.3954 40.7422 45.9011 41.5929 44.0123C42.9986 40.9269 47.7133 39.9897 52.118 41.9217C55.9893 43.6158 58.289 48.6982 57.6041 51.7693C57.3305 52.8228 56.7424 53.7679 55.9182 54.4789C55.0939 55.1898 54.0726 55.6327 52.9903 55.7486C52.5639 55.8189 52.1321 55.8527 51.6999 55.8496ZM47.5259 41.655C45.0892 41.655 43.0203 42.5922 42.2417 44.3151C41.4631 46.0381 41.8235 48.208 43.15 50.2842C43.905 51.4615 44.8849 52.4782 46.0336 53.2759C48.0082 54.6981 50.4441 55.3283 52.8606 55.0422C53.8018 54.9463 54.6918 54.5669 55.4127 53.9541C56.1335 53.3414 56.6514 52.5242 56.8976 51.6107C57.4527 49.1163 55.564 44.2214 51.8513 42.5777C50.4885 41.9754 49.0159 41.6613 47.5259 41.655Z" fill="#231F20"/>
<path d="M52.2166 65.3733C52.436 66.0566 52.4973 66.7809 52.3962 67.4914C52.2951 68.2019 52.034 68.8802 51.6327 69.4752C51.0771 70.1488 50.3708 70.6823 49.5709 71.0324C47.4082 72.0849 44.8202 72.4742 42.6719 71.4505C41.3827 70.7465 40.2689 69.7609 39.4134 68.5669C37.849 66.5772 36.4793 64.2415 36.5298 61.7111C36.6163 58.0489 40.5885 53.8893 44.3804 55.6123C47.5236 56.9964 51.3155 62.1653 52.2166 65.3733Z" fill="white"/>
<path d="M45.463 72.4164C44.4441 72.4298 43.4357 72.2104 42.5145 71.7748C41.1738 71.0394 40.0177 70.009 39.1335 68.7614C37.0645 66.1301 36.1273 63.8809 36.1778 61.6749C36.2586 60.472 36.6202 59.3048 37.2337 58.2669C37.8471 57.2291 38.6953 56.3494 39.7102 55.6986C40.4106 55.2186 41.2223 54.9261 42.0679 54.8492C42.9135 54.7722 43.7647 54.9132 44.5402 55.2589C47.7627 56.7007 51.6484 61.9921 52.5639 65.2794C52.7988 66.0165 52.8632 66.7973 52.752 67.5629C52.6409 68.3285 52.3571 69.0588 51.9223 69.6986C51.3398 70.4116 50.5994 70.9792 49.7596 71.3566C48.4278 72.0351 46.9576 72.3978 45.463 72.4164ZM42.5794 55.5472C41.7037 55.5495 40.8464 55.7994 40.1067 56.2681C39.1925 56.8559 38.4279 57.6486 37.8735 58.5833C37.3192 59.5181 36.9903 60.5692 36.9131 61.6533C36.8626 63.6862 37.7566 65.7913 39.7102 68.2784C40.5326 69.4379 41.6041 70.3985 42.8461 71.0899C44.6772 71.9766 47.0778 71.8108 49.428 70.6718C50.179 70.3543 50.8419 69.8596 51.36 69.23C51.7292 68.6804 51.9685 68.0541 52.0597 67.3983C52.1508 66.7426 52.0915 66.0747 51.8862 65.4452C51.0284 62.367 47.2581 57.2486 44.2519 55.8861C43.721 55.6515 43.1453 55.5358 42.565 55.5472H42.5794Z" fill="#231F20"/>
<path d="M46.9047 75.5754C47.5046 76.342 47.9302 77.2301 48.1519 78.1779C48.3238 79.2561 48.186 80.3611 47.7547 81.3641C47.3233 82.3672 46.6161 83.2272 45.7152 83.8442C44.8036 84.4418 43.7816 84.8511 42.7095 85.0479C41.6374 85.2448 40.5367 85.2252 39.4722 84.9904C38.2042 84.7576 36.9994 84.2606 35.9362 83.5315C34.873 82.8024 33.9753 81.8576 33.3013 80.7587C32.6469 79.6457 32.2947 78.381 32.2796 77.09C32.2644 75.799 32.5868 74.5264 33.2148 73.3983C36.7111 67.5445 43.8553 71.4591 46.9047 75.5754Z" fill="white"/>
<path d="M41.2738 85.5299C40.6445 85.5276 40.0168 85.4648 39.3995 85.3425C38.0821 85.0988 36.8307 84.5807 35.7266 83.8219C34.6224 83.063 33.6903 82.0804 32.9907 80.9378C32.3013 79.7698 31.9305 78.4414 31.9153 77.0853C31.9001 75.7292 32.2411 74.3928 32.9042 73.2097C33.378 72.3155 34.0738 71.5581 34.9246 71.0102C35.7755 70.4623 36.7529 70.1423 37.7631 70.081C41.2234 69.8863 45.1379 72.5969 47.1925 75.358C47.8264 76.166 48.2744 77.1038 48.5045 78.1046C48.6872 79.2514 48.5418 80.4265 48.0851 81.4942C47.6284 82.5618 46.8791 83.4786 45.9237 84.1386C44.5533 85.0687 42.9299 85.5545 41.2738 85.5299ZM38.1019 70.7947H37.7991C36.9069 70.8464 36.0435 71.1295 35.294 71.6161C34.5444 72.1028 33.9344 72.7762 33.5241 73.5701C32.9263 74.6417 32.6197 75.8511 32.6349 77.0781C32.6501 78.305 32.9865 79.5065 33.6106 80.5629C34.2583 81.6196 35.1214 82.5278 36.1437 83.2284C37.166 83.9289 38.3245 84.4061 39.5437 84.6288C40.5596 84.8572 41.6111 84.8785 42.6354 84.6915C43.6598 84.5044 44.6359 84.1129 45.5055 83.5402C46.348 82.9627 47.0102 82.1589 47.4158 81.2215C47.8214 80.284 47.9539 79.2511 47.798 78.2416C47.5884 77.3456 47.1848 76.5065 46.6157 75.7833C44.7342 73.2602 41.2522 70.7947 38.1019 70.7947Z" fill="#231F20"/>
<path d="M109.847 160.75L111.382 131.38L55.3538 132.079L44.2375 160.75H109.847Z" fill="#231F20"/>
<path d="M109.847 161.102H44.2444C44.1868 161.102 44.1302 161.088 44.079 161.061C44.0277 161.035 43.9832 160.997 43.9489 160.951C43.9166 160.903 43.8964 160.847 43.8902 160.79C43.8839 160.732 43.8917 160.674 43.9128 160.619L55.0291 131.949C55.0542 131.881 55.0994 131.823 55.1587 131.782C55.218 131.74 55.2885 131.718 55.3607 131.718L111.389 130.998C111.438 130.994 111.487 131.002 111.532 131.021C111.577 131.039 111.617 131.069 111.649 131.106C111.683 131.141 111.709 131.183 111.727 131.229C111.744 131.275 111.752 131.323 111.75 131.372L110.243 160.764C110.24 160.812 110.228 160.86 110.206 160.904C110.185 160.947 110.154 160.986 110.117 161.018C110.08 161.05 110.037 161.073 109.991 161.088C109.944 161.102 109.895 161.107 109.847 161.102ZM44.7635 160.382H109.522L111.022 131.733L55.6203 132.454L44.7635 160.382Z" fill="#231F20"/>
<path d="M112.724 111.108C112.724 111.108 121.57 81.4786 119.933 74.5579C118.297 67.6372 115.103 39.6374 112.227 38.556C109.35 37.4747 103.576 45.4406 103.727 54.1563C103.768 59.2993 104.599 64.4053 106.193 69.2953C106.193 69.2953 96.6337 73.5054 95.5595 96.978" fill="white"/>
<path d="M112.723 111.482H112.622C112.531 111.452 112.455 111.389 112.409 111.304C112.363 111.22 112.352 111.121 112.377 111.028C112.471 110.733 121.172 81.4207 119.586 74.6658C119.089 72.5031 118.44 68.4228 117.69 63.6793C116.248 54.668 113.905 39.5939 112.11 38.9235C111.761 38.8533 111.4 38.865 111.056 38.9575C110.713 39.0501 110.395 39.221 110.128 39.4569C107.158 41.5403 104.007 47.7617 104.094 54.185C104.147 59.2779 104.971 64.3335 106.538 69.1798C106.57 69.2651 106.568 69.3595 106.533 69.4437C106.499 69.528 106.433 69.596 106.35 69.6339C106.35 69.6339 103.986 70.7225 101.549 74.6009C99.2855 78.2055 96.5028 85.0108 95.9261 96.9994C95.9252 97.0477 95.9145 97.0953 95.8945 97.1393C95.8746 97.1833 95.8458 97.2228 95.81 97.2552C95.7742 97.2876 95.7321 97.3124 95.6863 97.3279C95.6406 97.3434 95.5921 97.3494 95.544 97.3454C95.4496 97.3399 95.3613 97.2974 95.2979 97.2273C95.2345 97.1572 95.2012 97.065 95.2051 96.9706C96.1856 75.5814 104.087 70.0593 105.759 69.1221C104.238 64.2767 103.437 59.2343 103.38 54.1561C103.286 47.5022 106.603 41.0213 109.724 38.8297C110.08 38.5169 110.508 38.2967 110.969 38.1886C111.431 38.0804 111.912 38.0877 112.37 38.2098C114.403 38.9739 116.155 49.1891 118.411 63.5279C119.132 68.2642 119.802 72.3517 120.293 74.464C121.922 81.4063 113.43 109.99 113.084 111.23C113.061 111.307 113.013 111.373 112.947 111.419C112.882 111.465 112.803 111.487 112.723 111.482Z" fill="#231F20"/>
<path d="M75.2644 14.9679H7.29765C5.59028 14.9679 3.95284 15.6461 2.74554 16.8534C1.53824 18.0607 0.859989 19.6982 0.859989 21.4055V66.2818C0.859042 67.1278 1.02486 67.9657 1.34796 68.7476C1.67106 69.5294 2.1451 70.24 2.74299 70.8385C3.34087 71.4371 4.05088 71.9119 4.8324 72.2359C5.61393 72.5599 6.45164 72.7266 7.29765 72.7266H64.9266L74.4137 84.7945V72.7266H75.2644C76.1104 72.7266 76.9481 72.5599 77.7296 72.2359C78.5112 71.9119 79.2212 71.4371 79.8191 70.8385C80.4169 70.24 80.891 69.5294 81.2141 68.7476C81.5372 67.9657 81.703 67.1278 81.702 66.2818V21.4055C81.702 20.5601 81.5355 19.723 81.212 18.942C80.8885 18.1609 80.4143 17.4512 79.8165 16.8534C79.2187 16.2556 78.509 15.7814 77.728 15.4579C76.9469 15.1344 76.1098 14.9679 75.2644 14.9679Z" fill="white"/>
<path d="M74.4142 85.1549C74.3583 85.1544 74.3033 85.1411 74.2533 85.1161C74.2034 85.0911 74.1598 85.0551 74.1258 85.0107L64.7541 73.087H7.29811C5.49507 73.0832 3.76706 72.3647 2.49279 71.0891C1.21852 69.8135 0.501904 68.0847 0.5 66.2817V21.4055C0.501908 19.6031 1.21875 17.8751 2.49323 16.6006C3.76771 15.3261 5.49573 14.6093 7.29811 14.6074H75.2648C77.0672 14.6093 78.7952 15.3261 80.0697 16.6006C81.3442 17.8751 82.061 19.6031 82.063 21.4055V66.2817C82.0611 68.0847 81.3444 69.8135 80.0702 71.0891C78.7959 72.3647 77.0679 73.0832 75.2648 73.087H74.7746V84.7945C74.773 84.8691 74.7487 84.9416 74.7049 85.0021C74.6611 85.0626 74.6 85.1084 74.5295 85.1333C74.4927 85.1474 74.4536 85.1548 74.4142 85.1549ZM7.29811 15.3283C5.68692 15.3302 4.14227 15.9711 3.00299 17.1103C1.8637 18.2496 1.22281 19.7943 1.2209 21.4055V66.2817C1.22281 67.8935 1.86347 69.4389 3.00255 70.5794C4.14163 71.7198 5.68626 72.3623 7.29811 72.3661H64.9271C64.9822 72.3668 65.0365 72.3794 65.0863 72.403C65.136 72.4267 65.1801 72.4608 65.2154 72.5031L74.0537 83.7492V72.7265C74.0537 72.6309 74.0917 72.5393 74.1593 72.4717C74.2269 72.4041 74.3186 72.3661 74.4142 72.3661H75.2648C76.8767 72.3623 78.4213 71.7198 79.5604 70.5794C80.6995 69.4389 81.3401 67.8935 81.342 66.2817V21.4055C81.3401 19.7943 80.6993 18.2496 79.56 17.1103C78.4207 15.9711 76.876 15.3302 75.2648 15.3283H7.29811Z" fill="#231F20"/>
<path d="M63.4211 37.6402L42.5654 21.9533C42.193 21.6776 41.7419 21.5288 41.2786 21.5288C40.8153 21.5288 40.3642 21.6776 39.9918 21.9533L19.136 37.6402V64.0324H63.4211V37.6402Z" fill="#231F20"/>
<path d="M63.4218 64.392H19.1367C19.0903 64.392 19.0444 64.3829 19.0015 64.3651C18.9587 64.3474 18.9197 64.3213 18.8869 64.2885C18.8541 64.2557 18.8281 64.2168 18.8104 64.1739C18.7926 64.1311 18.7835 64.0851 18.7835 64.0388V37.6393C18.7829 37.5832 18.7957 37.5278 18.8207 37.4777C18.8458 37.4276 18.8825 37.3841 18.9276 37.3509L39.7762 21.6713C40.2095 21.3455 40.7371 21.1694 41.2792 21.1694C41.8214 21.1694 42.3489 21.3455 42.7823 21.6713L63.638 37.3509C63.682 37.3852 63.7178 37.4289 63.7427 37.4788C63.7677 37.5287 63.7812 37.5835 63.7822 37.6393V64.0388C63.7819 64.0859 63.7722 64.1325 63.7537 64.1758C63.7351 64.2192 63.708 64.2584 63.6741 64.2911C63.6064 64.3563 63.5158 64.3926 63.4218 64.392ZM19.4972 63.6711H63.0613V37.8195L42.357 22.2408C42.0455 22.0057 41.6659 21.8785 41.2756 21.8785C40.8854 21.8785 40.5058 22.0057 40.1943 22.2408L19.4972 37.8195V63.6711Z" fill="#231F20"/>
<path d="M58.1868 29.003H23.2735V62.0708H58.1868V29.003Z" fill="white"/>
<path d="M58.1859 62.4031H23.2726C23.2291 62.4031 23.1859 62.3945 23.1457 62.3778C23.1055 62.3612 23.0689 62.3368 23.0381 62.306C23.0073 62.2752 22.9829 62.2386 22.9662 62.1984C22.9496 62.1581 22.941 62.115 22.941 62.0715V29.0037C22.941 28.9601 22.9496 28.917 22.9662 28.8768C22.9829 28.8365 23.0073 28.8 23.0381 28.7692C23.0689 28.7384 23.1055 28.7139 23.1457 28.6973C23.1859 28.6806 23.2291 28.672 23.2726 28.672H58.1859C58.2733 28.6739 58.3566 28.7094 58.4184 28.7712C58.4802 28.833 58.5157 28.9163 58.5176 29.0037V62.0859C58.5121 62.1707 58.475 62.2504 58.4136 62.3092C58.3522 62.3679 58.2709 62.4015 58.1859 62.4031ZM23.5826 61.7471H57.8399V29.3064H23.597L23.5826 61.7471Z" fill="#231F20"/>
<path d="M53.0586 46.6306H28.3965C28.3009 46.6306 28.2092 46.5927 28.1416 46.5251C28.074 46.4575 28.036 46.3658 28.036 46.2702C28.036 46.1746 28.074 46.0829 28.1416 46.0153C28.2092 45.9477 28.3009 45.9097 28.3965 45.9097H53.0586C53.1542 45.9097 53.2458 45.9477 53.3134 46.0153C53.381 46.0829 53.419 46.1746 53.419 46.2702C53.4172 46.3652 53.3786 46.4558 53.3114 46.523C53.2442 46.5902 53.1536 46.6288 53.0586 46.6306Z" fill="#D1D3D4"/>
<path d="M41.8557 50.1558H28.3965C28.3009 50.1558 28.2092 50.1178 28.1416 50.0502C28.074 49.9826 28.036 49.8909 28.036 49.7953C28.036 49.6997 28.074 49.608 28.1416 49.5404C28.2092 49.4729 28.3009 49.4349 28.3965 49.4349H41.8557C41.9513 49.4349 42.043 49.4729 42.1106 49.5404C42.1782 49.608 42.2162 49.6997 42.2162 49.7953C42.2162 49.8909 42.1782 49.9826 42.1106 50.0502C42.043 50.1178 41.9513 50.1558 41.8557 50.1558Z" fill="#D1D3D4"/>
<path d="M53.0586 36.0462H28.3965C28.3009 36.0462 28.2092 36.0083 28.1416 35.9407C28.074 35.8731 28.036 35.7814 28.036 35.6858C28.036 35.5902 28.074 35.4985 28.1416 35.4309C28.2092 35.3633 28.3009 35.3253 28.3965 35.3253H53.0586C53.1542 35.3253 53.2458 35.3633 53.3134 35.4309C53.381 35.4985 53.419 35.5902 53.419 35.6858C53.419 35.7814 53.381 35.8731 53.3134 35.9407C53.2458 36.0083 53.1542 36.0462 53.0586 36.0462Z" fill="#D1D3D4"/>
<path d="M53.0586 39.5725H28.3965C28.3009 39.5725 28.2092 39.5345 28.1416 39.4669C28.074 39.3993 28.036 39.3076 28.036 39.212C28.036 39.1164 28.074 39.0247 28.1416 38.9571C28.2092 38.8895 28.3009 38.8515 28.3965 38.8515H53.0586C53.1536 38.8534 53.2442 38.892 53.3114 38.9592C53.3786 39.0264 53.4172 39.117 53.419 39.212C53.419 39.3076 53.381 39.3993 53.3134 39.4669C53.2458 39.5345 53.1542 39.5725 53.0586 39.5725Z" fill="#D1D3D4"/>
<path d="M53.0586 43.1045H28.3965C28.3009 43.1045 28.2092 43.0665 28.1416 42.9989C28.074 42.9313 28.036 42.8396 28.036 42.744C28.036 42.6484 28.074 42.5567 28.1416 42.4891C28.2092 42.4215 28.3009 42.3836 28.3965 42.3836H53.0586C53.1542 42.3836 53.2458 42.4215 53.3134 42.4891C53.381 42.5567 53.419 42.6484 53.419 42.744C53.4172 42.839 53.3786 42.9296 53.3114 42.9969C53.2442 43.0641 53.1536 43.1026 53.0586 43.1045Z" fill="#D1D3D4"/>
<path d="M63.4192 37.6406V66.0081H19.1414V37.6406L41.2803 54.2935L63.4192 37.6406Z" fill="white"/>
<path d="M63.4183 66.3383H19.1333C19.09 66.3383 19.0473 66.3297 19.0074 66.3129C18.9676 66.2962 18.9315 66.2716 18.9013 66.2407C18.8711 66.2098 18.8473 66.1732 18.8315 66.133C18.8156 66.0928 18.8079 66.0499 18.8089 66.0067V37.6391C18.8096 37.5782 18.8267 37.5186 18.8584 37.4666C18.8901 37.4146 18.9352 37.3721 18.9891 37.3436C19.0412 37.3117 19.101 37.2948 19.1621 37.2948C19.2232 37.2948 19.283 37.3117 19.3351 37.3436L41.2794 53.8522L63.2237 37.3436C63.2758 37.3117 63.3356 37.2948 63.3967 37.2948C63.4578 37.2948 63.5176 37.3117 63.5697 37.3436C63.6235 37.3721 63.6687 37.4146 63.7004 37.4666C63.7321 37.5186 63.7492 37.5782 63.7499 37.6391V66.0067C63.7499 66.0946 63.715 66.179 63.6528 66.2411C63.5906 66.3033 63.5063 66.3383 63.4183 66.3383ZM19.4433 65.6823H63.0651V38.2952L41.438 54.5515C41.3803 54.5932 41.3109 54.6156 41.2398 54.6156C41.1686 54.6156 41.0992 54.5932 41.0415 54.5515L19.4649 38.2952L19.4433 65.6823Z" fill="#231F20"/>
<path d="M19.1354 66.3393C19.085 66.3393 19.0354 66.3276 18.9903 66.3051C18.9453 66.2826 18.9061 66.2499 18.8759 66.2096C18.8231 66.1405 18.7995 66.0534 18.8103 65.9671C18.8211 65.8808 18.8654 65.8022 18.9335 65.7482L37.4319 51.2724C37.501 51.2196 37.5881 51.1961 37.6744 51.2069C37.7607 51.2177 37.8393 51.2619 37.8933 51.3301C37.9204 51.364 37.9404 51.4029 37.9522 51.4446C37.9639 51.4863 37.9672 51.53 37.9619 51.573C37.9565 51.616 37.9425 51.6575 37.9209 51.695C37.8992 51.7325 37.8702 51.7654 37.8356 51.7915L19.3445 66.2672C19.2851 66.3145 19.2113 66.3399 19.1354 66.3393Z" fill="#231F20"/>
<path d="M63.4204 66.339C63.3503 66.3385 63.2821 66.3158 63.2257 66.2741L44.3597 52.0867C44.3007 52.0306 44.2644 51.9548 44.2577 51.8737C44.2509 51.7926 44.2743 51.7118 44.3233 51.6468C44.3723 51.5818 44.4435 51.537 44.5233 51.5211C44.6031 51.5052 44.686 51.5192 44.7562 51.5605L63.6222 65.7478C63.6758 65.7904 63.7149 65.8485 63.7341 65.9142C63.7533 65.9798 63.7518 66.0498 63.7297 66.1145C63.7076 66.1793 63.666 66.2356 63.6106 66.2758C63.5552 66.316 63.4888 66.338 63.4204 66.339Z" fill="#231F20"/>
<path d="M63.4209 61.0908C68.5371 61.0908 72.6845 56.9433 72.6845 51.8272C72.6845 46.711 68.5371 42.5636 63.4209 42.5636C58.3048 42.5636 54.1573 46.711 54.1573 51.8272C54.1573 56.9433 58.3048 61.0908 63.4209 61.0908Z" fill="#FF7B02"/>
<path d="M63.4197 48.6991L60.5361 50.1409V47.9061L63.5567 46.3706H65.6329V55.1079H63.3837L63.4197 48.6991Z" fill="white"/>
<path d="M14.1249 35.4847H14.0383L5.74796 33.5166C5.65236 33.4946 5.56941 33.4355 5.51736 33.3524C5.46531 33.2693 5.44842 33.1688 5.47041 33.0732C5.4924 32.9776 5.55146 32.8947 5.6346 32.8426C5.71775 32.7906 5.81817 32.7737 5.91376 32.7957L14.2042 34.7638C14.2505 34.7739 14.2943 34.7933 14.333 34.8207C14.3717 34.8481 14.4044 34.8831 14.4293 34.9234C14.4542 34.9638 14.4707 35.0088 14.4779 35.0556C14.485 35.1025 14.4826 35.1504 14.4709 35.1963C14.4571 35.2778 14.4147 35.3516 14.3512 35.4045C14.2877 35.4574 14.2075 35.4858 14.1249 35.4847Z" fill="#D1D3D4"/>
<path d="M16.3612 30.7266C16.2831 30.7271 16.2071 30.7017 16.1449 30.6545L8.07082 24.4043C8.0327 24.3759 8.00067 24.3402 7.97666 24.2992C7.95266 24.2582 7.93716 24.2128 7.93111 24.1657C7.92505 24.1186 7.92856 24.0708 7.94141 24.025C7.95427 23.9793 7.97622 23.9367 8.00595 23.8996C8.06547 23.8258 8.15119 23.7779 8.24523 23.7658C8.33926 23.7537 8.43432 23.7784 8.51058 23.8347L16.5847 30.085C16.6428 30.1316 16.685 30.195 16.7056 30.2666C16.7261 30.3382 16.724 30.4144 16.6995 30.4847C16.675 30.555 16.6294 30.616 16.5688 30.6593C16.5082 30.7026 16.4357 30.7261 16.3612 30.7266Z" fill="#D1D3D4"/>
<path d="M21.2553 25.6223C21.1823 25.6219 21.1111 25.5997 21.0507 25.5586C20.9904 25.5175 20.9436 25.4594 20.9164 25.3917L18.797 19.6244C18.7661 19.5335 18.7714 19.4342 18.8116 19.347C18.8519 19.2598 18.924 19.1914 19.0132 19.1558C19.1031 19.1234 19.2022 19.1279 19.2887 19.1685C19.3752 19.209 19.4421 19.2823 19.4746 19.3721L21.5941 25.1393C21.6112 25.1838 21.6191 25.2312 21.6174 25.2787C21.6157 25.3263 21.6044 25.373 21.5843 25.4161C21.5641 25.4592 21.5354 25.4978 21.4999 25.5295C21.4644 25.5612 21.4229 25.5854 21.3778 25.6007C21.3386 25.6154 21.2971 25.6228 21.2553 25.6223Z" fill="#D1D3D4"/>
</svg>
