<svg width="208" height="174" viewBox="0 0 208 174" fill="none" xmlns="http://www.w3.org/2000/svg">
<path d="M26.2464 113.822V118.667L85.3608 173.47L207.127 131.565V126.781L26.2464 113.822Z" fill="#231F20"/>
<path d="M85.3383 173.845C85.2447 173.845 85.1543 173.81 85.0846 173.747L25.9926 118.944C25.9553 118.908 25.9256 118.865 25.9051 118.818C25.8846 118.77 25.8737 118.719 25.8732 118.667V113.822C25.8739 113.772 25.8848 113.722 25.9053 113.675C25.9259 113.629 25.9555 113.587 25.9926 113.552C26.0276 113.515 26.071 113.487 26.119 113.47C26.167 113.453 26.2183 113.448 26.2687 113.455L207.149 126.406C207.244 126.412 207.334 126.454 207.399 126.523C207.464 126.593 207.5 126.685 207.5 126.781V131.565C207.498 131.643 207.473 131.718 207.428 131.781C207.383 131.844 207.319 131.892 207.246 131.918L85.4801 173.822L85.3383 173.845ZM26.5971 118.502L85.4279 173.042L206.731 131.295V127.133L26.6195 114.227L26.5971 118.502Z" fill="#231F20"/>
<path d="M26.2478 113.822L0.866119 26.2334L126.132 0.376724L143.984 77.4444L26.2478 113.822Z" fill="white"/>
<path d="M26.2472 114.197C26.1848 114.197 26.1234 114.181 26.0681 114.152C26.0244 114.129 25.986 114.097 25.9551 114.059C25.9243 114.02 25.9018 113.975 25.889 113.927L0.514786 26.3385C0.500571 26.2898 0.496546 26.2387 0.502969 26.1883C0.509391 26.138 0.52612 26.0896 0.552101 26.046C0.57928 26.0012 0.615042 25.9622 0.657314 25.9313C0.699586 25.9004 0.747532 25.8782 0.798381 25.8661L126.057 0.00934454C126.105 -0.00164655 126.154 -0.00295597 126.202 0.00549123C126.25 0.0139384 126.296 0.031973 126.337 0.0585307C126.378 0.0850885 126.414 0.119633 126.441 0.160127C126.469 0.200621 126.488 0.246244 126.498 0.294309L144.349 77.3545C144.372 77.4469 144.359 77.5447 144.311 77.6273C144.264 77.7098 144.186 77.7706 144.095 77.7969L26.3815 114.182C26.3385 114.198 26.2925 114.203 26.2472 114.197ZM1.33571 26.526L26.5009 113.357L143.551 77.1745L125.848 0.819243L1.33571 26.526Z" fill="#231F20"/>
<path d="M29.8886 106.63L7.29816 30.9946L121.668 6.46523L138.072 74.7665L29.8886 106.63Z" fill="white"/>
<path d="M29.8952 107.006C29.8141 107.007 29.735 106.981 29.6701 106.932C29.6053 106.884 29.5585 106.814 29.537 106.736L6.97634 31.1005C6.95642 31.0543 6.94614 31.0046 6.94614 30.9543C6.94614 30.9039 6.95642 30.8542 6.97634 30.808C7.00285 30.7626 7.03841 30.7232 7.08079 30.6922C7.12317 30.6612 7.17145 30.6394 7.22262 30.628L121.593 6.09866C121.689 6.0805 121.788 6.09993 121.87 6.15294C121.952 6.20596 122.01 6.28852 122.033 6.38363L138.452 74.6774C138.475 74.7708 138.462 74.8696 138.415 74.9534C138.367 75.0372 138.29 75.0995 138.198 75.1274L29.9847 106.991L29.8952 107.006ZM7.77488 31.2805L30.1639 106.166L137.631 74.505L121.391 6.90856L7.77488 31.2805Z" fill="#231F20"/>
<path d="M143.983 77.4448L26.2464 113.823L85.4354 167.216L207.127 126.781L143.983 77.4448Z" fill="white"/>
<path d="M85.4365 167.59C85.3455 167.588 85.2581 167.554 85.1903 167.493L26.0013 114.107C25.952 114.063 25.9153 114.007 25.8947 113.944C25.8741 113.881 25.8705 113.814 25.8841 113.749C25.8977 113.684 25.9282 113.624 25.9724 113.575C26.0165 113.526 26.0729 113.49 26.1356 113.47L143.872 77.0843C143.93 77.0655 143.991 77.0611 144.051 77.0715C144.111 77.082 144.167 77.107 144.215 77.1443L207.359 126.48C207.411 126.524 207.45 126.58 207.474 126.643C207.497 126.706 207.504 126.774 207.494 126.84C207.484 126.908 207.456 126.971 207.413 127.022C207.369 127.074 207.312 127.112 207.247 127.133L85.5559 167.568C85.518 167.583 85.4774 167.591 85.4365 167.59ZM26.9864 113.987L85.5261 166.788L206.344 126.668L143.909 77.8792L26.9864 113.987Z" fill="#231F20"/>
<path d="M142.037 84.3214L40.1819 117.647L67.2875 141.607L172.075 106.631L142.037 84.3214Z" fill="white"/>
<path d="M67.286 141.981C67.195 141.979 67.1076 141.944 67.0397 141.883L39.9342 117.931C39.8836 117.888 39.8457 117.831 39.8246 117.768C39.8036 117.705 39.8002 117.637 39.8148 117.571C39.8283 117.508 39.8581 117.448 39.9013 117.4C39.9444 117.351 39.9995 117.315 40.061 117.294L141.923 83.9606C141.98 83.9431 142.039 83.9388 142.097 83.9479C142.156 83.957 142.211 83.9793 142.259 84.0131L172.298 106.33C172.352 106.371 172.395 106.426 172.42 106.49C172.445 106.554 172.452 106.623 172.44 106.69C172.431 106.758 172.403 106.821 172.359 106.873C172.316 106.925 172.258 106.963 172.193 106.983L67.4278 141.958C67.3831 141.977 67.3344 141.985 67.286 141.981ZM40.9193 117.804L67.3681 141.178L171.275 106.503L141.968 84.7555L40.9193 117.804Z" fill="#E6E7E8"/>
<path d="M119.938 67.1112C119.938 67.1112 87.9736 79.7396 57.7634 72.248C27.5532 64.7565 9.55994 38.5623 9.55994 38.5623L25.7397 92.7204C25.7397 92.7204 37.1879 99.8295 65.51 99.4695C101.638 99.0421 126.005 80.9544 126.005 80.9544L117.796 66.7512" fill="white"/>
<path d="M63.6203 99.881C36.8729 99.881 25.6561 93.1319 25.559 93.0419C25.4823 92.9926 25.4244 92.9186 25.3949 92.8319L9.21508 38.6663C9.19238 38.5814 9.20009 38.4912 9.23685 38.4115C9.27361 38.3317 9.33709 38.2675 9.4162 38.2299C9.49531 38.1924 9.58503 38.184 9.66967 38.2062C9.75432 38.2284 9.82851 38.2798 9.87929 38.3514C10.0584 38.6063 28.1412 64.5155 57.8663 71.8796C83.2778 78.1788 110.249 70.0723 117.772 67.5002L117.458 66.9677C117.433 66.9256 117.417 66.8788 117.41 66.8301C117.403 66.7814 117.406 66.7318 117.418 66.6842C117.431 66.6366 117.453 66.5921 117.483 66.5532C117.513 66.5143 117.55 66.4819 117.593 66.4578C117.635 66.4319 117.682 66.4147 117.73 66.4071C117.779 66.3996 117.829 66.4018 117.877 66.4136C117.925 66.4255 117.97 66.4467 118.009 66.4762C118.049 66.5057 118.082 66.5427 118.108 66.5853L118.488 67.2452L119.817 66.7653C119.862 66.746 119.91 66.7362 119.959 66.7365C120.008 66.7367 120.056 66.747 120.101 66.7667C120.145 66.7863 120.186 66.815 120.219 66.8508C120.252 66.8867 120.278 66.929 120.294 66.9752C120.312 67.021 120.321 67.07 120.321 67.1192C120.32 67.1685 120.31 67.2172 120.29 67.2625C120.271 67.3078 120.243 67.3487 120.208 67.3831C120.173 67.4174 120.131 67.4445 120.085 67.4627L118.869 67.9051L126.332 80.796C126.379 80.8755 126.394 80.9699 126.374 81.0602C126.355 81.1506 126.303 81.2302 126.227 81.2834C125.989 81.4634 101.353 99.4536 65.5159 99.8736L63.6203 99.881ZM26.0516 92.472C27.3427 93.2219 39.1268 99.4236 65.501 99.1236C99.0845 98.7262 122.727 82.8282 125.511 80.871L118.175 68.1751C110.779 70.7173 83.457 79.0112 57.7245 72.622C32.2011 66.3003 15.1855 46.4428 10.5733 40.4886L26.0516 92.472Z" fill="#231F20"/>
<path d="M111.938 69.0753L121.931 84.6358L130.573 81.6812L118.177 62.3862L111.938 69.0753Z" fill="white"/>
<path d="M121.909 85.0105C121.847 85.0097 121.786 84.9936 121.731 84.9635C121.676 84.9335 121.63 84.8904 121.596 84.838L111.603 69.285C111.558 69.2135 111.538 69.129 111.546 69.0449C111.554 68.9608 111.59 68.8817 111.648 68.8201L117.887 62.131C117.926 62.0897 117.974 62.0576 118.026 62.0368C118.079 62.0161 118.136 62.0073 118.193 62.011C118.249 62.0174 118.302 62.0363 118.35 62.0661C118.398 62.0959 118.438 62.136 118.469 62.1834L130.865 81.4785C130.895 81.5263 130.914 81.5804 130.92 81.6366C130.927 81.6928 130.92 81.7497 130.901 81.8031C130.883 81.8565 130.852 81.905 130.812 81.9448C130.772 81.9847 130.724 82.015 130.671 82.0334L122.029 84.988C121.991 85.0035 121.95 85.0111 121.909 85.0105ZM112.386 69.1201L122.088 84.1856L129.999 81.4785L118.125 62.9933L112.386 69.1201Z" fill="#231F20"/>
<path d="M158.791 74.4147C158.791 74.4147 158.955 85.8583 152.328 94.1747C145.701 102.491 125.2 106.631 125.2 106.631L131.678 81.4113L158.791 74.4147Z" fill="#FF7B02"/>
<path d="M125.197 107.005C125.096 107.002 124.999 106.959 124.929 106.885C124.885 106.839 124.854 106.782 124.839 106.721C124.823 106.659 124.823 106.594 124.839 106.533L131.31 81.321C131.328 81.2567 131.362 81.198 131.409 81.1508C131.456 81.1035 131.514 81.0691 131.578 81.0511L158.699 74.0545C158.754 74.0376 158.812 74.0342 158.868 74.0446C158.925 74.0549 158.978 74.0788 159.023 74.114C159.068 74.1493 159.105 74.195 159.129 74.2473C159.153 74.2995 159.164 74.3569 159.162 74.4144C159.162 74.5269 159.251 86.0829 152.609 94.4069C145.967 102.731 126.115 106.825 125.272 106.998L125.197 107.005ZM131.981 81.726L125.712 106.135C129.101 105.385 146.183 101.268 152.034 93.9344C157.744 86.7803 158.348 77.1441 158.408 74.9019L131.981 81.726Z" fill="#231F20"/>
<path d="M136.146 39.1615C136.146 39.1615 125.832 34.2946 115.563 36.9118C105.294 39.5289 93.0996 56.6118 93.0996 56.6118L118.631 61.0662L136.146 39.1615Z" fill="#FF7B02"/>
<path d="M118.631 61.4786H118.564L93.033 57.0167C92.9715 57.0066 92.9136 56.9805 92.8652 56.941C92.8168 56.9016 92.7794 56.8501 92.7569 56.7917C92.7317 56.7336 92.7218 56.6699 92.7284 56.6068C92.7349 56.5437 92.7576 56.4834 92.7942 56.4317C93.2942 55.7343 105.19 39.2364 115.474 36.5818C125.758 33.9271 136.199 38.7715 136.303 38.8315C136.355 38.8546 136.4 38.8898 136.435 38.9342C136.47 38.9786 136.494 39.0308 136.505 39.0865C136.518 39.1406 136.519 39.1972 136.508 39.2517C136.496 39.3063 136.472 39.3575 136.438 39.4014L118.922 61.3436C118.887 61.3864 118.842 61.4208 118.792 61.4441C118.741 61.4675 118.687 61.4792 118.631 61.4786ZM93.7569 56.3868L118.482 60.6762L135.55 39.2889C133.49 38.419 124.497 35.007 115.661 37.2867C106.601 39.6789 95.8391 53.5971 93.7569 56.3868Z" fill="#231F20"/>
<path d="M112.998 60.534C120.05 50.2228 132.402 38.5918 147.977 28.4981C171.567 13.1926 192.255 18.2994 199.263 20.7966C200.021 21.0664 200.67 21.58 201.108 22.2579C201.547 22.9358 201.751 23.7401 201.688 24.5461C201.061 31.9927 197.21 53.0425 173.575 68.3405C158.007 78.4418 142.372 84.9659 130.118 87.1706C130.118 87.1706 125.491 84.4485 119.528 75.1722C113.565 65.8959 112.998 60.534 112.998 60.534Z" fill="#FF7B02"/>
<path d="M130.118 87.5604C130.05 87.5618 129.982 87.5436 129.924 87.5079C129.737 87.3954 125.162 84.6357 119.214 75.3819C113.266 66.1281 112.647 60.7963 112.625 60.5788C112.617 60.4886 112.641 60.3984 112.692 60.3238C120.013 49.6077 132.797 37.8867 147.768 28.1829C171.232 12.9674 191.68 17.6843 199.389 20.4439C200.228 20.7401 200.946 21.3084 201.428 22.0591C201.91 22.8099 202.13 23.7006 202.054 24.5909C201.367 32.7798 197.24 53.4547 173.784 68.6703C158.813 78.419 142.917 85.2657 130.178 87.5529L130.118 87.5604ZM113.386 60.6313C113.52 61.5012 114.513 66.683 119.841 74.9695C125.17 83.2559 129.454 86.308 130.193 86.7955C142.812 84.4933 158.552 77.6616 173.373 68.0479C196.561 53.0498 200.636 32.6149 201.315 24.5534C201.375 23.8279 201.194 23.1028 200.802 22.4911C200.409 21.8794 199.826 21.4153 199.143 21.1713C191.538 18.4642 171.358 13.7998 148.178 28.8278C133.342 38.4266 120.67 50.0201 113.386 60.6313Z" fill="#231F20"/>
<path d="M201.688 24.5619C200.765 33.7936 197.535 42.6414 192.299 50.2836L172.075 18.7876C181.16 17.136 190.514 17.8249 199.262 20.7898C200.025 21.0606 200.676 21.5777 201.115 22.2602C201.554 22.9427 201.755 23.7521 201.688 24.5619Z" fill="white"/>
<path d="M192.306 50.6579C192.244 50.6572 192.184 50.6411 192.131 50.6109C192.077 50.5808 192.032 50.5376 192 50.4854L171.767 18.9894C171.74 18.9348 171.726 18.8744 171.726 18.8132C171.726 18.752 171.74 18.6916 171.767 18.637C171.792 18.5788 171.831 18.5278 171.881 18.4885C171.93 18.4492 171.989 18.4229 172.051 18.412C181.199 16.7442 190.619 17.441 199.425 20.4367C200.264 20.7329 200.981 21.3012 201.464 22.052C201.946 22.8027 202.166 23.6934 202.09 24.5837C201.181 33.8827 197.932 42.7963 192.649 50.4854C192.613 50.5433 192.562 50.5901 192.502 50.6205C192.441 50.651 192.373 50.6639 192.306 50.6579ZM172.693 19.0644L192.306 49.6005C197.334 42.1257 200.43 33.5098 201.313 24.5312C201.373 23.8057 201.193 23.0806 200.8 22.4689C200.407 21.8572 199.824 21.3932 199.142 21.1491C190.636 18.252 181.544 17.5354 172.693 19.0644Z" fill="#231F20"/>
<path d="M164.15 59.6035C172.1 59.6035 178.546 53.127 178.546 45.1378C178.546 37.1487 172.1 30.6722 164.15 30.6722C156.199 30.6722 149.754 37.1487 149.754 45.1378C149.754 53.127 156.199 59.6035 164.15 59.6035Z" fill="white"/>
<path d="M164.169 59.9716C160.618 59.9733 157.186 58.6888 154.501 56.3537C151.816 54.0187 150.059 50.7894 149.552 47.2581C149.044 43.7267 149.821 40.13 151.738 37.1271C153.656 34.1243 156.587 31.9168 159.993 30.9091C163.399 29.9015 167.053 30.1614 170.284 31.6411C173.515 33.1208 176.107 35.7212 177.585 38.9655C179.062 42.2098 179.327 45.8806 178.329 49.3049C177.332 52.7292 175.14 55.6776 172.154 57.6094C169.773 59.1502 167.001 59.9702 164.169 59.9716ZM164.117 31.0402C161.596 31.0435 159.123 31.7293 156.958 33.0255C154.792 34.3217 153.015 36.1804 151.812 38.406C150.609 40.6316 150.025 43.1419 150.122 45.6727C150.219 48.2035 150.993 50.6613 152.363 52.7875C153.614 54.7348 155.325 56.3418 157.343 57.4662C159.36 58.5906 161.623 59.1978 163.929 59.2338C166.236 59.2699 168.516 58.7338 170.568 57.673C172.619 56.6122 174.379 55.0594 175.69 53.1522C177.002 51.2451 177.825 49.0423 178.087 46.739C178.349 44.4358 178.042 42.1031 177.193 39.9476C176.344 37.7921 174.978 35.8803 173.218 34.3816C171.458 32.8828 169.357 31.8433 167.102 31.3552C166.12 31.1467 165.12 31.0411 164.117 31.0402Z" fill="#231F20"/>
<path d="M164.148 54.0627C169.052 54.0627 173.029 50.0674 173.029 45.1389C173.029 40.2103 169.052 36.215 164.148 36.215C159.243 36.215 155.267 40.2103 155.267 45.1389C155.267 50.0674 159.243 54.0627 164.148 54.0627Z" fill="#231F20"/>
<path d="M164.162 54.4372C161.936 54.4468 159.781 53.6498 158.092 52.1924C156.404 50.7349 155.295 48.7147 154.968 46.5022C154.642 44.2896 155.12 42.0329 156.315 40.1459C157.51 38.2589 159.342 36.868 161.475 36.2282C163.608 35.5884 165.899 35.7426 167.928 36.6626C169.957 37.5825 171.588 39.2065 172.522 41.2368C173.456 43.2671 173.631 45.5677 173.013 47.7168C172.396 49.8658 171.029 51.7193 169.162 52.9374C167.673 53.9086 165.937 54.4292 164.162 54.4372ZM164.162 36.5895C162.527 36.5857 160.928 37.0599 159.557 37.9543C157.833 39.0702 156.568 40.7729 155.993 42.7503C155.417 44.7278 155.571 46.8473 156.425 48.7203C157.279 50.5933 158.776 52.0942 160.642 52.9478C162.508 53.8013 164.618 53.9503 166.584 53.3674C168.551 52.7845 170.242 51.5089 171.349 49.7743C172.455 48.0397 172.902 45.9626 172.607 43.9237C172.313 41.8849 171.297 40.021 169.746 38.6739C168.195 37.3268 166.212 36.5868 164.162 36.5895Z" fill="#231F20"/>
<path d="M170.104 41.6436C170.038 41.6432 169.974 41.6249 169.917 41.5906C169.861 41.5562 169.814 41.5072 169.783 41.4486C169.664 41.2461 166.91 36.4392 161.171 39.0789C161.09 39.1116 161 39.1144 160.916 39.087C160.833 39.0596 160.762 39.0036 160.716 38.9289C160.695 38.8847 160.682 38.8367 160.68 38.7876C160.677 38.7386 160.685 38.6896 160.701 38.6435C160.718 38.5973 160.744 38.555 160.777 38.519C160.81 38.4831 160.85 38.4541 160.895 38.434C167.276 35.5093 170.44 41.0736 170.47 41.1261C170.516 41.214 170.526 41.3163 170.498 41.4114C170.47 41.5065 170.407 41.5871 170.321 41.6361C170.251 41.66 170.176 41.6626 170.104 41.6436Z" fill="white"/>
<path d="M171.082 44.7479C171.034 44.7441 170.987 44.7308 170.945 44.7088C170.902 44.6867 170.863 44.6563 170.832 44.6194C170.801 44.5824 170.777 44.5397 170.763 44.4935C170.748 44.4473 170.743 44.3987 170.747 44.3504C170.773 43.8791 170.686 43.4084 170.493 42.9781C170.452 42.8885 170.448 42.7864 170.481 42.6937C170.515 42.6011 170.583 42.5255 170.672 42.4832C170.717 42.4623 170.766 42.4507 170.815 42.4493C170.864 42.4478 170.914 42.4564 170.96 42.4747C171.006 42.4929 171.048 42.5203 171.083 42.5553C171.118 42.5903 171.146 42.6321 171.165 42.6782C171.41 43.2286 171.521 43.8306 171.485 44.4329C171.472 44.5279 171.423 44.6139 171.348 44.6728C171.272 44.7316 171.177 44.7586 171.082 44.7479Z" fill="white"/>
<path d="M117.518 60.0611C117.434 60.06 117.353 60.031 117.287 59.9786C117.21 59.9167 117.16 59.8268 117.149 59.7285C117.138 59.6301 117.166 59.5313 117.227 59.4536C122.538 53.0227 128.23 46.9199 134.272 41.1785C134.345 41.1182 134.438 41.0878 134.532 41.0934C134.626 41.0989 134.714 41.1399 134.779 41.2082C134.844 41.2766 134.882 41.3671 134.883 41.4617C134.885 41.5563 134.85 41.648 134.787 41.7184C128.768 47.4383 123.098 53.5187 117.809 59.9261C117.774 59.9693 117.73 60.0039 117.679 60.0273C117.629 60.0507 117.574 60.0622 117.518 60.0611Z" fill="white"/>
<path d="M134.29 70.3657C123.894 77.1148 110.49 83.7215 109.326 81.9067C108.162 80.0919 119.67 70.5456 130.073 63.7965C140.477 57.0474 146.985 57.4823 146.985 57.4823C146.985 57.4823 144.693 63.624 134.29 70.3657Z" fill="#FF7B02"/>
<path d="M110.176 82.5515C109.96 82.5816 109.741 82.5569 109.537 82.4796C109.334 82.4023 109.153 82.2749 109.011 82.109C108.758 81.7191 107.989 80.5267 115.116 74.415C119.805 70.4708 124.733 66.8218 129.87 63.4889C140.252 56.7398 146.737 57.0922 147.035 57.1072C147.094 57.1121 147.15 57.1301 147.201 57.16C147.251 57.1898 147.294 57.2308 147.326 57.2797C147.357 57.3299 147.376 57.386 147.382 57.4443C147.388 57.5026 147.382 57.5615 147.364 57.6171C147.267 57.8721 144.908 63.9463 134.52 70.6805C127.602 75.1499 114.355 82.5515 110.176 82.5515ZM146.394 57.8646C144.617 57.9396 138.722 58.6145 130.274 64.1113C125.164 67.4273 120.263 71.0588 115.601 74.9849C110.377 79.4844 109.407 81.3441 109.631 81.7341C110.459 83.0314 122.467 77.6096 134.08 70.0806C142.535 64.5763 145.595 59.4619 146.394 57.8646Z" fill="#231F20"/>
<path d="M149.163 119.987L109.848 132.18L127.625 146.121L166.291 133.05L149.163 119.987Z" fill="white"/>
<path d="M127.626 146.496C127.542 146.495 127.461 146.466 127.395 146.414L109.625 132.481C109.571 132.438 109.529 132.381 109.504 132.317C109.479 132.252 109.472 132.182 109.483 132.113C109.496 132.046 109.528 131.984 109.574 131.933C109.62 131.883 109.679 131.846 109.745 131.828L149.052 119.627C149.109 119.609 149.169 119.605 149.228 119.615C149.286 119.626 149.341 119.651 149.388 119.687L166.516 132.751C166.571 132.791 166.614 132.846 166.639 132.91C166.664 132.974 166.67 133.043 166.657 133.11C166.65 133.179 166.623 133.244 166.579 133.298C166.535 133.351 166.477 133.39 166.411 133.41L127.745 146.474C127.707 146.489 127.667 146.496 127.626 146.496ZM110.648 132.331L127.701 145.701L165.508 132.953L149.09 120.43L110.648 132.331Z" fill="#E6E7E8"/>
<path d="M74.7047 86.3162C63.2042 86.3162 49.9499 84.4189 37.9271 78.0072C37.8835 77.9851 37.8447 77.9544 37.8132 77.9169C37.7816 77.8795 37.7578 77.8361 37.7432 77.7892C37.7286 77.7424 37.7234 77.6931 37.7281 77.6442C37.7328 77.5954 37.7471 77.548 37.7703 77.5048C37.7931 77.4607 37.8244 77.4217 37.8623 77.3899C37.9003 77.358 37.9441 77.3341 37.9913 77.3195C38.0385 77.3048 38.0882 77.2997 38.1373 77.3045C38.1865 77.3093 38.2343 77.3238 38.2778 77.3473C67.4805 92.9003 104.034 81.6368 104.4 81.5243C104.448 81.5044 104.499 81.4947 104.551 81.4958C104.603 81.497 104.653 81.5089 104.7 81.5308C104.747 81.5528 104.789 81.5843 104.823 81.6234C104.857 81.6625 104.883 81.7082 104.899 81.7578C104.914 81.8073 104.919 81.8596 104.914 81.9113C104.908 81.963 104.892 82.0129 104.866 82.0579C104.84 82.103 104.805 82.1421 104.764 82.1729C104.722 82.2037 104.674 82.2254 104.624 82.2367C94.8801 84.9489 84.8154 86.3212 74.7047 86.3162Z" fill="#E6E7E8"/>
<path d="M68.2339 93.4478C44.2106 93.4478 28.5084 82.2742 28.3293 82.1392C28.289 82.1108 28.2546 82.0746 28.2282 82.0328C28.2019 81.991 28.184 81.9443 28.1757 81.8955C28.1674 81.8467 28.1687 81.7967 28.1797 81.7484C28.1907 81.7002 28.2111 81.6546 28.2398 81.6143C28.2992 81.5352 28.3869 81.4824 28.4844 81.467C28.5819 81.4516 28.6814 81.4748 28.7622 81.5318C28.9786 81.6893 50.6138 97.0773 81.9658 91.4755C82.0148 91.4672 82.065 91.4686 82.1135 91.4797C82.1619 91.4908 82.2077 91.5114 82.2483 91.5403C82.2888 91.5692 82.3233 91.6058 82.3497 91.6481C82.3762 91.6904 82.3941 91.7375 82.4024 91.7867C82.4107 91.836 82.4093 91.8864 82.3983 91.9351C82.3872 91.9838 82.3667 92.0298 82.338 92.0705C82.3092 92.1113 82.2728 92.1459 82.2307 92.1725C82.1886 92.1991 82.1417 92.2171 82.0927 92.2254C77.5179 93.0415 72.8803 93.4505 68.2339 93.4478Z" fill="#E6E7E8"/>
<path d="M44.412 74.7904C44.3628 74.8016 44.3118 74.8016 44.2627 74.7904C20.7617 64.0967 15.0227 50.8684 14.963 50.7409C14.9416 50.6953 14.9296 50.6457 14.9277 50.5953C14.9259 50.5449 14.9342 50.4946 14.9521 50.4474C14.97 50.4003 14.9972 50.3573 15.0321 50.321C15.067 50.2847 15.1088 50.2558 15.155 50.2361C15.2012 50.2164 15.251 50.2063 15.3012 50.2064C15.3514 50.2064 15.4011 50.2167 15.4473 50.2365C15.4934 50.2563 15.5352 50.2853 15.5699 50.3218C15.6047 50.3582 15.6318 50.4013 15.6496 50.4485C15.6496 50.4485 17.0601 53.7405 21.3065 58.27C25.2246 62.4469 32.4413 68.5887 44.5687 74.108C44.6586 74.1489 44.7287 74.2239 44.7637 74.3167C44.7987 74.4095 44.7956 74.5124 44.7552 74.6029C44.7196 74.6619 44.6691 74.7103 44.6088 74.7432C44.5485 74.7761 44.4806 74.7924 44.412 74.7904Z" fill="#E6E7E8"/>
<path d="M86.406 79.0644C86.3071 79.0644 86.2122 79.0249 86.1422 78.9545C86.0722 78.8842 86.0329 78.7889 86.0329 78.6894C86.0348 78.5906 86.0747 78.4963 86.1443 78.4264C86.2139 78.3565 86.3077 78.3164 86.406 78.3145C86.5404 78.3145 99.4812 78.3144 105.392 75.4123C105.436 75.3868 105.486 75.3709 105.537 75.3654C105.588 75.3599 105.639 75.365 105.688 75.3805C105.737 75.3959 105.782 75.4212 105.821 75.455C105.86 75.4887 105.891 75.5301 105.913 75.5766C105.935 75.623 105.948 75.6736 105.949 75.725C105.951 75.7765 105.942 75.8278 105.924 75.8757C105.905 75.9236 105.876 75.9671 105.84 76.0035C105.804 76.0399 105.761 76.0684 105.713 76.0872C99.6529 79.0344 86.9508 79.0644 86.406 79.0644Z" fill="#E6E7E8"/>
<path d="M70.0177 65.633L68.1818 63.6607L65.5325 64.0657L66.8236 61.696L65.6295 59.2813L68.2639 59.7987L70.1744 57.9014L70.5103 60.5786L72.891 61.8234L70.458 62.9708L70.0177 65.633Z" fill="#FF7B02"/>
<path d="M94.4382 68.0183L93.3038 66.8035L91.662 67.0509L92.468 65.5886L91.7217 64.0963L93.3561 64.4113L94.5352 63.2414L94.7442 64.8987L96.2144 65.6636L94.7143 66.376L94.4382 68.0183Z" fill="#FF7B02"/>
<path d="M83.3701 114.324L79.4595 112.022L75.3548 113.957L76.3325 109.51L73.2354 106.181L77.743 105.738L79.9371 101.749L81.7506 105.918L86.1986 106.78L82.8104 109.81L83.3701 114.324Z" fill="#FF7B02"/>
<path d="M56.1063 86.3986L53.6734 83.7889L50.1508 84.3214L51.8748 81.1868L50.2777 77.9922L53.7778 78.6671L56.3078 76.1549L56.7481 79.7095L59.9124 81.3517L56.6884 82.874L56.1063 86.3986Z" fill="#FF7B02"/>
<path d="M9.56077 38.93C9.4618 38.9409 9.36257 38.9119 9.28489 38.8493C9.20721 38.7867 9.15746 38.6957 9.14657 38.5963C9.13568 38.4968 9.16456 38.3971 9.22684 38.3191C9.28912 38.241 9.37971 38.191 9.47867 38.1801L123.282 13.1408C123.331 13.1304 123.381 13.1299 123.431 13.1392C123.48 13.1485 123.527 13.1674 123.569 13.1949C123.611 13.2224 123.647 13.2579 123.675 13.2995C123.703 13.341 123.723 13.3877 123.733 13.437C123.744 13.4862 123.744 13.537 123.735 13.5865C123.726 13.6359 123.707 13.683 123.679 13.7252C123.652 13.7673 123.617 13.8036 123.575 13.832C123.534 13.8604 123.488 13.8803 123.439 13.8907L9.64286 38.93H9.56077Z" fill="#231F20"/>
<path d="M14.8436 34.8272C15.6803 34.8272 16.3586 34.1456 16.3586 33.3049C16.3586 32.4641 15.6803 31.7826 14.8436 31.7826C14.0069 31.7826 13.3286 32.4641 13.3286 33.3049C13.3286 34.1456 14.0069 34.8272 14.8436 34.8272Z" fill="#FF7B02"/>
<path d="M20.2621 33.4397C21.0988 33.4397 21.777 32.7581 21.777 31.9174C21.777 31.0767 21.0988 30.3951 20.2621 30.3951C19.4254 30.3951 18.7471 31.0767 18.7471 31.9174C18.7471 32.7581 19.4254 33.4397 20.2621 33.4397Z" fill="#E6E7E8"/>
<path d="M25.419 32.248C26.2557 32.248 26.934 31.5665 26.934 30.7257C26.934 29.885 26.2557 29.2034 25.419 29.2034C24.5823 29.2034 23.904 29.885 23.904 30.7257C23.904 31.5665 24.5823 32.248 25.419 32.248Z" fill="#E6E7E8"/>
<path d="M105.281 27.8387L37.744 43.781C35.6014 44.2867 34.2725 46.4421 34.7758 48.5951L34.7775 48.6024C35.2808 50.7554 37.4259 52.0908 39.5685 51.585L107.106 35.6427C109.249 35.1369 110.578 32.9816 110.074 30.8286L110.073 30.8213C109.569 28.6683 107.424 27.3329 105.281 27.8387Z" fill="#E6E7E8"/>
</svg>
