<svg width="13" height="14" viewBox="0 0 13 14" fill="none" xmlns="http://www.w3.org/2000/svg">
<path d="M11.9194 3.51719C11.6128 2.83888 11.1707 2.22472 10.6181 1.70937C10.0636 1.18937 9.40998 0.776654 8.69285 0.49375C7.94688 0.196875 7.1553 0.046875 6.33929 0.046875C5.52327 0.046875 4.73169 0.196875 3.98572 0.492188C3.26417 0.778125 2.61755 1.1875 2.06052 1.70781C1.50824 2.22345 1.06618 2.83753 0.759131 3.51562C0.441521 4.21875 0.280273 4.96562 0.280273 5.73438C0.280273 6.8375 0.555535 7.93594 1.09629 8.99531C1.53117 9.84688 2.1387 10.6766 2.90422 11.4656C4.21212 12.8125 5.58354 13.6359 5.97281 13.8562C6.08331 13.9189 6.20933 13.9518 6.33766 13.9516C6.4647 13.9516 6.59012 13.9203 6.7025 13.8562C7.09178 13.6359 8.4632 12.8125 9.7711 11.4656C10.5366 10.6781 11.1441 9.84688 11.579 8.99531C12.123 7.9375 12.3983 6.84062 12.3983 5.73594C12.3983 4.96719 12.2371 4.22031 11.9194 3.51719ZM6.33929 12.7531C5.26593 12.0984 1.45299 9.50625 1.45299 5.73594C1.45299 4.51875 1.95953 3.375 2.87979 2.5125C3.8033 1.64844 5.03139 1.17188 6.33929 1.17188C7.64719 1.17188 8.87528 1.64844 9.79879 2.51406C10.719 3.375 11.2256 4.51875 11.2256 5.73594C11.2256 9.50625 7.41264 12.0984 6.33929 12.7531ZM6.33929 3.10938C4.75612 3.10938 3.47266 4.34062 3.47266 5.85938C3.47266 7.37813 4.75612 8.60938 6.33929 8.60938C7.92245 8.60938 9.20592 7.37813 9.20592 5.85938C9.20592 4.34062 7.92245 3.10938 6.33929 3.10938ZM7.62927 7.09688C7.46008 7.25965 7.259 7.38873 7.03762 7.47668C6.81623 7.56464 6.5789 7.60973 6.33929 7.60938C5.85228 7.60938 5.3946 7.42656 5.0493 7.09688C4.87962 6.93457 4.74507 6.74167 4.65339 6.5293C4.5617 6.31692 4.51469 6.08924 4.51507 5.85938C4.51507 5.39219 4.70563 4.95312 5.0493 4.62187C5.3946 4.29062 5.85228 4.10938 6.33929 4.10938C6.82629 4.10938 7.28397 4.29062 7.62927 4.62187C7.97457 4.95312 8.1635 5.39219 8.1635 5.85938C8.1635 6.32656 7.97457 6.76562 7.62927 7.09688Z" fill="#811E78"/>
</svg>
