<svg width="301" height="272" viewBox="0 0 301 272" fill="none" xmlns="http://www.w3.org/2000/svg">
<path d="M222.205 185.438H70.2366C60.997 185.438 53.502 177.943 53.502 168.703V16.7346C53.502 7.49504 60.997 0 70.2366 0H222.205C231.445 0 238.94 7.49504 238.94 16.7346V168.703C238.94 177.943 231.445 185.438 222.205 185.438Z" fill="url(#paint0_linear)"/>
<path fill-rule="evenodd" clip-rule="evenodd" d="M198.682 32.1012C202.714 32.1012 205.982 35.3695 205.982 39.4012L205.982 143.951C205.982 147.983 202.714 151.251 198.682 151.251L94.1324 151.251C90.1007 151.251 86.8324 147.983 86.8324 143.951L86.8324 39.4012C86.8324 35.3695 90.1007 32.1012 94.1324 32.1012L198.682 32.1012ZM201.787 39.4012C201.787 37.6866 200.397 36.2966 198.682 36.2966L94.1324 36.2966C92.4178 36.2966 91.0278 37.6866 91.0278 39.4012L91.0278 143.951C91.0278 145.666 92.4178 147.056 94.1324 147.056L198.682 147.056C200.397 147.056 201.787 145.666 201.787 143.951L201.787 39.4012Z" fill="#250031" fill-opacity="0.15"/>
<path fill-rule="evenodd" clip-rule="evenodd" d="M89.778 148.631C88.9492 147.802 89.1077 146.3 90.132 145.276L200.201 35.2067C201.225 34.1824 202.728 34.0239 203.556 34.8527C204.385 35.6815 204.227 37.1837 203.202 38.208L93.1333 148.277C92.109 149.301 90.6068 149.46 89.778 148.631Z" fill="#250031" fill-opacity="0.15"/>
<path fill-rule="evenodd" clip-rule="evenodd" d="M89.4525 35.3853C90.2813 34.5565 91.8049 34.7365 92.8557 35.7872L201.623 144.554C202.673 145.605 202.853 147.129 202.025 147.957C201.196 148.786 199.672 148.606 198.621 147.556L89.8544 38.7885C88.8036 37.7378 88.6237 36.2141 89.4525 35.3853Z" fill="#250031" fill-opacity="0.15"/>
<path fill-rule="evenodd" clip-rule="evenodd" d="M88.1553 92.2895C88.1553 91.0584 89.2002 90.0603 90.4892 90.0603L201.74 90.0603C203.029 90.0603 204.074 91.0584 204.074 92.2895C204.074 93.5207 203.029 94.5187 201.74 94.5187L90.4892 94.5187C89.2002 94.5187 88.1553 93.5207 88.1553 92.2895Z" fill="#250031" fill-opacity="0.15"/>
<path fill-rule="evenodd" clip-rule="evenodd" d="M146.271 34.4022C147.661 34.4022 148.788 35.5292 148.788 36.9195L148.788 148.518C148.788 149.908 147.661 151.035 146.271 151.035C144.881 151.035 143.754 149.908 143.754 148.518L143.754 36.9195C143.754 35.5292 144.881 34.4022 146.271 34.4022Z" fill="#250031" fill-opacity="0.15"/>
<path d="M146.641 19.9585C154.056 19.9585 160.067 26.1571 160.067 33.8034C160.067 41.4497 154.056 47.6483 146.641 47.6483C139.227 47.6483 133.216 41.4497 133.216 33.8034C133.216 26.1571 139.227 19.9585 146.641 19.9585Z" fill="url(#paint1_linear)"/>
<path fill-rule="evenodd" clip-rule="evenodd" d="M163.417 33.8041C163.417 24.4023 156 16.6029 146.635 16.6029C137.27 16.6029 129.854 24.4023 129.854 33.8041C129.854 43.206 137.27 51.0054 146.635 51.0054C156 51.0054 163.417 43.206 163.417 33.8041ZM160.061 33.8041C160.061 26.1578 154.05 19.9592 146.635 19.9592C139.221 19.9592 133.21 26.1578 133.21 33.8041C133.21 41.4505 139.221 47.649 146.635 47.649C154.05 47.649 160.061 41.4505 160.061 33.8041Z" fill="url(#paint2_linear)"/>
<path d="M78.4688 24.3759C83.7425 19.1023 92.2927 19.1023 97.5663 24.3759C102.84 29.6496 102.84 38.1998 97.5663 43.4734C92.2927 48.7471 83.7425 48.7471 78.4688 43.4734C73.1952 38.1998 73.1952 29.6495 78.4688 24.3759Z" fill="url(#paint3_linear)"/>
<path fill-rule="evenodd" clip-rule="evenodd" d="M99.9396 22.0024C93.3553 15.418 82.6799 15.418 76.0955 22.0024C69.5111 28.5867 69.5111 39.2621 76.0955 45.8465C82.6799 52.4309 93.3553 52.4309 99.9396 45.8465C106.524 39.2621 106.524 28.5867 99.9396 22.0024ZM97.5664 24.3757C92.2927 19.102 83.7424 19.102 78.4688 24.3757C73.1952 29.6493 73.1952 38.1996 78.4688 43.4732C83.7424 48.7468 92.2927 48.7468 97.5663 43.4732C102.84 38.1996 102.84 29.6493 97.5664 24.3757Z" fill="url(#paint4_linear)"/>
<path d="M211.995 157.916C217.269 152.642 217.269 144.092 211.995 138.818C206.721 133.545 198.171 133.545 192.897 138.818C187.624 144.092 187.624 152.642 192.897 157.916C198.171 163.189 206.721 163.189 211.995 157.916Z" fill="url(#paint5_linear)"/>
<path fill-rule="evenodd" clip-rule="evenodd" d="M214.384 136.445C220.969 143.029 220.969 153.705 214.384 160.289C207.8 166.873 197.125 166.873 190.54 160.289C183.956 153.705 183.956 143.029 190.54 136.445C197.125 129.861 207.8 129.861 214.384 136.445ZM212.011 138.818C217.285 144.092 217.285 152.642 212.011 157.916C206.737 163.189 198.187 163.189 192.914 157.916C187.64 152.642 187.64 144.092 192.914 138.818C198.187 133.545 206.737 133.545 212.011 138.818Z" fill="url(#paint6_linear)"/>
<path d="M215.944 91.4951C215.944 84.0804 209.934 78.0697 202.519 78.0697C195.104 78.0697 189.094 84.0804 189.094 91.4951C189.094 98.9097 195.104 104.92 202.519 104.92C209.934 104.92 215.944 98.9097 215.944 91.4951Z" fill="url(#paint7_linear)"/>
<path fill-rule="evenodd" clip-rule="evenodd" d="M202.514 74.7135C211.782 74.7135 219.296 82.2269 219.296 91.4952C219.296 100.763 211.782 108.277 202.514 108.277C193.246 108.277 185.732 100.763 185.732 91.4952C185.732 82.2269 193.246 74.7135 202.514 74.7135ZM202.514 78.0698C209.929 78.0698 215.939 84.0805 215.939 91.4952C215.939 98.9098 209.929 104.921 202.514 104.921C195.099 104.921 189.089 98.9098 189.089 91.4952C189.089 84.0805 195.099 78.0698 202.514 78.0698Z" fill="url(#paint8_linear)"/>
<path d="M211.995 24.3757C217.269 29.6493 217.269 38.1996 211.995 43.4732C206.721 48.7468 198.171 48.7468 192.897 43.4732C187.624 38.1996 187.624 29.6493 192.897 24.3757C198.171 19.102 206.721 19.102 211.995 24.3757Z" fill="url(#paint9_linear)"/>
<path fill-rule="evenodd" clip-rule="evenodd" d="M214.384 45.8465C220.969 39.2621 220.969 28.5867 214.384 22.0024C207.8 15.418 197.125 15.418 190.54 22.0024C183.956 28.5868 183.956 39.2621 190.54 45.8465C197.125 52.4309 207.8 52.4309 214.384 45.8465ZM212.011 43.4732C217.285 38.1996 217.285 29.6493 212.011 24.3757C206.737 19.102 198.187 19.102 192.914 24.3757C187.64 29.6493 187.64 38.1996 192.914 43.4732C198.187 48.7468 206.737 48.7468 212.011 43.4732Z" fill="url(#paint10_linear)"/>
<path d="M164.114 131.375V167.93C164.114 169.32 162.987 170.447 161.597 170.447H129.802C128.412 170.447 127.285 169.32 127.285 167.93V131.375C127.285 128.232 128.535 125.414 130.599 123.355C132.663 121.296 135.488 120.049 138.638 120.049H152.707C155.858 120.049 158.682 121.296 160.746 123.355C162.811 125.414 164.114 128.232 164.114 131.375Z" fill="url(#paint11_angular)"/>
<path fill-rule="evenodd" clip-rule="evenodd" d="M138.62 122.983C136.267 122.983 134.182 123.907 132.655 125.431C131.127 126.955 130.204 129.031 130.204 131.373V167.508H161.159V131.373C161.159 129.067 160.208 126.981 158.654 125.431C157.126 123.907 155.042 122.983 152.689 122.983H138.62ZM128.506 121.273C131.107 118.679 134.672 117.11 138.62 117.11H152.689C156.637 117.11 160.202 118.679 162.802 121.273C165.377 123.842 167.033 127.392 167.033 131.373V167.927C167.033 170.939 164.591 173.381 161.579 173.381H129.784C126.772 173.381 124.33 170.939 124.33 167.927V131.373C124.33 127.428 125.905 123.868 128.506 121.273Z" fill="url(#paint12_linear)"/>
<path d="M124.041 87.1613C124.041 75.0643 133.848 65.2577 145.945 65.2577C158.042 65.2577 167.849 75.0643 167.849 87.1613C167.849 99.2584 158.042 109.065 145.945 109.065C133.848 109.065 124.041 99.2584 124.041 87.1613Z" fill="url(#paint13_angular)"/>
<path fill-rule="evenodd" clip-rule="evenodd" d="M164.906 87.1618C164.906 97.6369 156.414 106.129 145.939 106.129C135.464 106.129 126.972 97.6369 126.972 87.1618C126.972 76.6867 135.464 68.195 145.939 68.195C156.414 68.195 164.906 76.6867 164.906 87.1618ZM145.939 112.002C159.658 112.002 170.779 100.881 170.779 87.1618C170.779 73.4428 159.658 62.3214 145.939 62.3214C132.22 62.3214 121.098 73.4428 121.098 87.1618C121.098 100.881 132.22 112.002 145.939 112.002Z" fill="url(#paint14_linear)"/>
<path d="M78.4631 157.916C73.1894 152.642 73.1894 144.092 78.4631 138.818C83.7367 133.545 92.287 133.545 97.5606 138.818C102.834 144.092 102.834 152.642 97.5606 157.916C92.287 163.189 83.7367 163.189 78.4631 157.916Z" fill="url(#paint15_linear)"/>
<path fill-rule="evenodd" clip-rule="evenodd" d="M76.0971 136.445C69.5127 143.029 69.5127 153.705 76.0971 160.289C82.6815 166.873 93.3569 166.873 99.9412 160.289C106.526 153.705 106.526 143.029 99.9412 136.445C93.3568 129.861 82.6815 129.861 76.0971 136.445ZM78.4704 138.818C73.1968 144.092 73.1968 152.642 78.4704 157.916C83.744 163.189 92.2943 163.189 97.5679 157.916C102.842 152.642 102.842 144.092 97.5679 138.818C92.2943 133.545 83.744 133.545 78.4704 138.818Z" fill="url(#paint16_linear)"/>
<path d="M74.6532 91.4951C74.6532 84.0804 80.6639 78.0697 88.0786 78.0697C95.4932 78.0697 101.504 84.0804 101.504 91.4951C101.504 98.9097 95.4932 104.92 88.0786 104.92C80.6639 104.92 74.6532 98.9097 74.6532 91.4951Z" fill="url(#paint17_linear)"/>
<path fill-rule="evenodd" clip-rule="evenodd" d="M88.0728 74.7135C78.8045 74.7135 71.2911 82.2269 71.2911 91.4952C71.2911 100.763 78.8045 108.277 88.0728 108.277C97.3411 108.277 104.854 100.763 104.854 91.4952C104.854 82.2269 97.3411 74.7135 88.0728 74.7135ZM88.0728 78.0698C80.6582 78.0698 74.6474 84.0805 74.6474 91.4952C74.6474 98.9098 80.6582 104.921 88.0728 104.921C95.4874 104.921 101.498 98.9098 101.498 91.4952C101.498 84.0805 95.4874 78.0698 88.0728 78.0698Z" fill="url(#paint18_linear)"/>
<path d="M15.8942 224.807C19.1964 224.807 21.8998 225.588 24.0046 227.148C26.1455 228.708 27.216 230.849 27.216 233.571C27.216 236.002 26.5629 238.071 25.2565 239.776C23.9864 241.482 22.4079 242.516 20.5209 242.879V243.151C22.2627 243.841 23.6961 245.038 24.821 246.744C25.946 248.449 26.5084 250.499 26.5084 252.894C26.5084 254.89 26.6173 256.396 26.835 257.412C27.0527 258.428 27.343 259.136 27.7059 259.535C28.0688 259.934 28.595 260.243 29.2845 260.46V261.985C28.4861 262.311 27.6334 262.474 26.7262 262.474C24.9843 262.474 23.6235 261.966 22.6437 260.95C21.664 259.898 21.1741 257.938 21.1741 255.072C21.1741 252.132 20.5572 249.846 19.3234 248.213C18.1259 246.544 16.6199 245.709 14.8055 245.709H5.33434V262.148H0V224.807H15.8942ZM5.33434 229.652V240.865H15.9486C17.509 240.865 18.8879 240.339 20.0854 239.286C21.2829 238.234 21.8817 236.928 21.8817 235.367V235.15C21.8817 233.553 21.3374 232.247 20.2487 231.23C19.1601 230.178 17.7267 229.652 15.9486 229.652H5.33434Z" fill="#250031"/>
<path d="M46.815 233.789C49.1011 233.789 51.1151 234.279 52.857 235.258C54.6351 236.202 56.014 237.563 56.9938 239.341C57.9736 241.119 58.4635 243.187 58.4635 245.546V249.411H39.0312C39.1038 252.35 39.7933 254.618 41.0996 256.215C42.406 257.811 44.3474 258.61 46.9239 258.61C49.21 258.61 50.8974 257.938 51.986 256.596C53.0747 255.253 53.619 253.656 53.619 251.806H58.4635C58.4635 253.983 57.9554 255.888 56.9394 257.521C55.9596 259.154 54.5806 260.424 52.8025 261.331C51.0607 262.239 49.0649 262.692 46.815 262.692H46.5973C42.6782 262.692 39.5755 261.44 37.2894 258.936C35.0395 256.396 33.9146 253.021 33.9146 248.812V247.723C33.9146 244.965 34.4226 242.534 35.4387 240.429C36.4548 238.325 37.9063 236.692 39.7933 235.531C41.6802 234.369 43.8938 233.789 46.434 233.789H46.815ZM46.5428 237.871C44.4744 237.871 42.787 238.506 41.4806 239.776C40.2106 241.046 39.4304 242.933 39.1401 245.437H53.4013V244.784C53.4013 242.716 52.7662 241.046 51.4962 239.776C50.2624 238.506 48.6113 237.871 46.5428 237.871Z" fill="#250031"/>
<path d="M76.8432 233.789C80.5083 233.789 83.2299 234.515 85.008 235.966C86.8224 237.418 87.7296 239.522 87.7296 242.28V256.705C87.7296 257.358 87.8748 257.848 88.1651 258.174C88.4554 258.465 88.8183 258.61 89.2537 258.61C90.0884 258.61 90.923 258.356 91.7576 257.848V261.604C90.5238 262.329 89.1267 262.692 87.5663 262.692C86.006 262.692 84.8447 262.257 84.0827 261.386C83.3206 260.479 82.9033 259.245 82.8308 257.684C80.5809 261.023 77.3331 262.692 73.0874 262.692C70.0392 262.692 67.7531 262.039 66.229 260.733C64.7412 259.39 63.9972 257.285 63.9972 254.419C63.9972 252.169 64.5779 250.409 65.7391 249.139C66.9003 247.832 68.8236 246.889 71.5089 246.308C74.1942 245.728 77.8956 245.437 82.613 245.437V242.879C82.613 241.028 82.0687 239.74 80.9801 239.014C79.8914 238.252 78.3129 237.871 76.2445 237.871C74.2849 237.871 72.7608 238.252 71.6722 239.014C70.5835 239.776 70.0392 240.847 70.0392 242.226V242.879H65.0315C64.9589 242.371 64.9226 241.772 64.9226 241.083C64.9226 239.813 65.4306 238.615 66.4467 237.49C67.4628 236.365 68.8417 235.476 70.5835 234.823C72.3254 234.134 74.2486 233.789 76.3533 233.789H76.8432ZM82.613 249.411C78.8028 249.411 75.9179 249.61 73.9583 250.01C72.035 250.372 70.7468 250.935 70.0936 251.697C69.4405 252.459 69.1139 253.511 69.1139 254.854C69.1139 257.358 71.019 258.61 74.8292 258.61C76.1719 258.61 77.442 258.283 78.6395 257.63C79.837 256.941 80.7986 255.979 81.5244 254.745C82.2501 253.511 82.613 252.096 82.613 250.499V249.411Z" fill="#250031"/>
<path d="M108.629 233.789C110.843 233.789 112.821 234.279 114.563 235.258C116.341 236.202 117.72 237.545 118.699 239.286C119.679 241.028 120.169 243.024 120.169 245.274H115.107C115.107 243.024 114.526 241.228 113.365 239.885C112.24 238.543 110.607 237.871 108.466 237.871C106.216 237.871 104.42 238.633 103.077 240.157C101.771 241.645 101.118 243.695 101.118 246.308V249.247C101.118 252.405 101.771 254.763 103.077 256.324C104.384 257.848 106.234 258.61 108.629 258.61C110.843 258.61 112.494 257.957 113.583 256.65C114.708 255.308 115.27 253.511 115.27 251.261H120.169C120.169 254.745 119.117 257.521 117.012 259.59C114.944 261.658 112.168 262.692 108.684 262.692H108.248C105.781 262.692 103.622 262.13 101.771 261.005C99.9203 259.844 98.4869 258.229 97.4709 256.16C96.4911 254.092 96.0012 251.679 96.0012 248.921V247.615C96.0012 244.857 96.5092 242.443 97.5253 240.375C98.5414 238.27 99.9747 236.656 101.825 235.531C103.676 234.369 105.799 233.789 108.194 233.789H108.629Z" fill="#250031"/>
<path d="M132.468 237.817C134.754 235.131 137.621 233.789 141.068 233.789C144.116 233.789 146.511 234.605 148.253 236.238C149.995 237.871 150.866 240.266 150.866 243.423V262.148H145.749V244.349C145.749 240.03 143.79 237.871 139.87 237.871C138.564 237.871 137.348 238.216 136.224 238.905C135.099 239.595 134.191 240.538 133.502 241.736C132.812 242.897 132.468 244.185 132.468 245.601V262.148H127.351V222.957H132.468V237.817Z" fill="#250031"/>
<path d="M221.301 224.807V262.148H215.967V245.492H198.93V262.148H193.595V224.807H198.93V240.647H215.967V224.807H221.301Z" fill="#250031"/>
<path d="M242.005 233.789C244.291 233.789 246.305 234.279 248.047 235.258C249.825 236.202 251.204 237.563 252.184 239.341C253.164 241.119 253.654 243.187 253.654 245.546V249.411H234.221C234.294 252.35 234.983 254.618 236.29 256.215C237.596 257.811 239.537 258.61 242.114 258.61C244.4 258.61 246.087 257.938 247.176 256.596C248.265 255.253 248.809 253.656 248.809 251.806H253.654C253.654 253.983 253.145 255.888 252.129 257.521C251.15 259.154 249.771 260.424 247.993 261.331C246.251 262.239 244.255 262.692 242.005 262.692H241.787C237.868 262.692 234.766 261.44 232.479 258.936C230.23 256.396 229.105 253.021 229.105 248.812V247.723C229.105 244.965 229.613 242.534 230.629 240.429C231.645 238.325 233.096 236.692 234.983 235.531C236.87 234.369 239.084 233.789 241.624 233.789H242.005ZM241.733 237.871C239.664 237.871 237.977 238.506 236.671 239.776C235.401 241.046 234.62 242.933 234.33 245.437H248.591V244.784C248.591 242.716 247.956 241.046 246.686 239.776C245.452 238.506 243.801 237.871 241.733 237.871Z" fill="#250031"/>
<path d="M266.427 222.957V262.148H261.31V222.957H266.427Z" fill="#250031"/>
<path d="M288.775 233.789C292.295 233.789 295.053 235.077 297.049 237.653C299.045 240.23 300.043 243.768 300.043 248.268V248.866C300.043 253.148 299.045 256.523 297.049 258.991C295.09 261.458 292.332 262.692 288.775 262.692C285.364 262.692 282.697 261.331 280.774 258.61V272H275.657V234.333H279.467C279.722 235.494 279.957 236.764 280.175 238.143C282.244 235.24 285.11 233.789 288.775 233.789ZM287.85 237.871C285.382 237.871 283.568 238.724 282.407 240.429C281.282 242.135 280.719 244.73 280.719 248.213C280.719 251.769 281.3 254.4 282.461 256.106C283.659 257.775 285.455 258.61 287.85 258.61C290.245 258.61 292.023 257.757 293.184 256.051C294.346 254.346 294.926 251.733 294.926 248.213C294.926 244.657 294.327 242.044 293.13 240.375C291.969 238.706 290.209 237.871 287.85 237.871Z" fill="#250031"/>
<path d="M174.423 224.263C174.132 226.078 173.352 228.4 172.082 231.231C170.848 234.061 169.415 236.855 167.782 239.613C166.149 242.335 164.679 244.439 163.373 245.927H171.538V240.375C172.481 239.069 173.57 237.037 174.804 234.279C176.074 231.521 176.89 229.38 177.253 227.856H181.771V245.927H187.105V253.929H181.771V262.148H171.538V253.929H156.297V245.818C157.712 243.278 158.783 241.101 159.508 239.287L161.141 235.259C163.028 230.614 164.244 226.949 164.788 224.263H174.423Z" fill="#FF7B02"/>
<path d="M15.8942 224.807C19.1964 224.807 21.8998 225.588 24.0046 227.148C26.1455 228.708 27.216 230.849 27.216 233.571C27.216 236.002 26.5629 238.071 25.2565 239.776C23.9864 241.482 22.4079 242.516 20.5209 242.879V243.151C22.2627 243.841 23.6961 245.038 24.821 246.744C25.946 248.449 26.5084 250.499 26.5084 252.894C26.5084 254.89 26.6173 256.396 26.835 257.412C27.0527 258.428 27.343 259.136 27.7059 259.535C28.0688 259.934 28.595 260.243 29.2845 260.46V261.985C28.4861 262.311 27.6334 262.474 26.7262 262.474C24.9843 262.474 23.6235 261.966 22.6437 260.95C21.664 259.898 21.1741 257.938 21.1741 255.072C21.1741 252.132 20.5572 249.846 19.3234 248.213C18.1259 246.544 16.6199 245.709 14.8055 245.709H5.33434V262.148H0V224.807H15.8942ZM5.33434 229.652V240.865H15.9486C17.509 240.865 18.8879 240.339 20.0854 239.286C21.2829 238.234 21.8817 236.928 21.8817 235.367V235.15C21.8817 233.553 21.3374 232.247 20.2487 231.23C19.1601 230.178 17.7267 229.652 15.9486 229.652H5.33434Z" fill="#250031"/>
<path d="M46.815 233.789C49.1011 233.789 51.1151 234.279 52.857 235.258C54.6351 236.202 56.014 237.563 56.9938 239.341C57.9736 241.119 58.4635 243.187 58.4635 245.546V249.411H39.0312C39.1038 252.35 39.7933 254.618 41.0996 256.215C42.406 257.811 44.3474 258.61 46.9239 258.61C49.21 258.61 50.8974 257.938 51.986 256.596C53.0747 255.253 53.619 253.656 53.619 251.806H58.4635C58.4635 253.983 57.9554 255.888 56.9394 257.521C55.9596 259.154 54.5806 260.424 52.8025 261.331C51.0607 262.239 49.0649 262.692 46.815 262.692H46.5973C42.6782 262.692 39.5755 261.44 37.2894 258.936C35.0395 256.396 33.9146 253.021 33.9146 248.812V247.723C33.9146 244.965 34.4226 242.534 35.4387 240.429C36.4548 238.325 37.9063 236.692 39.7933 235.531C41.6802 234.369 43.8938 233.789 46.434 233.789H46.815ZM46.5428 237.871C44.4744 237.871 42.787 238.506 41.4806 239.776C40.2106 241.046 39.4304 242.933 39.1401 245.437H53.4013V244.784C53.4013 242.716 52.7662 241.046 51.4962 239.776C50.2624 238.506 48.6113 237.871 46.5428 237.871Z" fill="#250031"/>
<path d="M76.8432 233.789C80.5083 233.789 83.2299 234.515 85.008 235.966C86.8224 237.418 87.7296 239.522 87.7296 242.28V256.705C87.7296 257.358 87.8748 257.848 88.1651 258.174C88.4554 258.465 88.8183 258.61 89.2537 258.61C90.0884 258.61 90.923 258.356 91.7576 257.848V261.604C90.5238 262.329 89.1267 262.692 87.5663 262.692C86.006 262.692 84.8447 262.257 84.0827 261.386C83.3206 260.479 82.9033 259.245 82.8308 257.684C80.5809 261.023 77.3331 262.692 73.0874 262.692C70.0392 262.692 67.7531 262.039 66.229 260.733C64.7412 259.39 63.9972 257.285 63.9972 254.419C63.9972 252.169 64.5779 250.409 65.7391 249.139C66.9003 247.832 68.8236 246.889 71.5089 246.308C74.1942 245.728 77.8956 245.437 82.613 245.437V242.879C82.613 241.028 82.0687 239.74 80.9801 239.014C79.8914 238.252 78.3129 237.871 76.2445 237.871C74.2849 237.871 72.7608 238.252 71.6722 239.014C70.5835 239.776 70.0392 240.847 70.0392 242.226V242.879H65.0315C64.9589 242.371 64.9226 241.772 64.9226 241.083C64.9226 239.813 65.4306 238.615 66.4467 237.49C67.4628 236.365 68.8417 235.476 70.5835 234.823C72.3254 234.134 74.2486 233.789 76.3533 233.789H76.8432ZM82.613 249.411C78.8028 249.411 75.9179 249.61 73.9583 250.01C72.035 250.372 70.7468 250.935 70.0936 251.697C69.4405 252.459 69.1139 253.511 69.1139 254.854C69.1139 257.358 71.019 258.61 74.8292 258.61C76.1719 258.61 77.442 258.283 78.6395 257.63C79.837 256.941 80.7986 255.979 81.5244 254.745C82.2501 253.511 82.613 252.096 82.613 250.499V249.411Z" fill="#250031"/>
<path d="M108.629 233.789C110.843 233.789 112.821 234.279 114.563 235.258C116.341 236.202 117.72 237.545 118.699 239.286C119.679 241.028 120.169 243.024 120.169 245.274H115.107C115.107 243.024 114.526 241.228 113.365 239.885C112.24 238.543 110.607 237.871 108.466 237.871C106.216 237.871 104.42 238.633 103.077 240.157C101.771 241.645 101.118 243.695 101.118 246.308V249.247C101.118 252.405 101.771 254.763 103.077 256.324C104.384 257.848 106.234 258.61 108.629 258.61C110.843 258.61 112.494 257.957 113.583 256.65C114.708 255.308 115.27 253.511 115.27 251.261H120.169C120.169 254.745 119.117 257.521 117.012 259.59C114.944 261.658 112.168 262.692 108.684 262.692H108.248C105.781 262.692 103.622 262.13 101.771 261.005C99.9203 259.844 98.4869 258.229 97.4709 256.16C96.4911 254.092 96.0012 251.679 96.0012 248.921V247.615C96.0012 244.857 96.5092 242.443 97.5253 240.375C98.5414 238.27 99.9747 236.656 101.825 235.531C103.676 234.369 105.799 233.789 108.194 233.789H108.629Z" fill="#250031"/>
<path d="M132.468 237.817C134.754 235.131 137.621 233.789 141.068 233.789C144.116 233.789 146.511 234.605 148.253 236.238C149.995 237.871 150.866 240.266 150.866 243.423V262.148H145.749V244.349C145.749 240.03 143.79 237.871 139.87 237.871C138.564 237.871 137.348 238.216 136.224 238.905C135.099 239.595 134.191 240.538 133.502 241.736C132.812 242.897 132.468 244.185 132.468 245.601V262.148H127.351V222.957H132.468V237.817Z" fill="#250031"/>
<path d="M221.301 224.807V262.148H215.967V245.492H198.93V262.148H193.595V224.807H198.93V240.647H215.967V224.807H221.301Z" fill="#250031"/>
<path d="M242.005 233.789C244.291 233.789 246.305 234.279 248.047 235.258C249.825 236.202 251.204 237.563 252.184 239.341C253.164 241.119 253.654 243.187 253.654 245.546V249.411H234.221C234.294 252.35 234.983 254.618 236.29 256.215C237.596 257.811 239.537 258.61 242.114 258.61C244.4 258.61 246.087 257.938 247.176 256.596C248.265 255.253 248.809 253.656 248.809 251.806H253.654C253.654 253.983 253.145 255.888 252.129 257.521C251.15 259.154 249.771 260.424 247.993 261.331C246.251 262.239 244.255 262.692 242.005 262.692H241.787C237.868 262.692 234.766 261.44 232.479 258.936C230.23 256.396 229.105 253.021 229.105 248.812V247.723C229.105 244.965 229.613 242.534 230.629 240.429C231.645 238.325 233.096 236.692 234.983 235.531C236.87 234.369 239.084 233.789 241.624 233.789H242.005ZM241.733 237.871C239.664 237.871 237.977 238.506 236.671 239.776C235.401 241.046 234.62 242.933 234.33 245.437H248.591V244.784C248.591 242.716 247.956 241.046 246.686 239.776C245.452 238.506 243.801 237.871 241.733 237.871Z" fill="#250031"/>
<path d="M266.427 222.957V262.148H261.31V222.957H266.427Z" fill="#250031"/>
<path d="M288.775 233.789C292.295 233.789 295.053 235.077 297.049 237.653C299.045 240.23 300.043 243.768 300.043 248.268V248.866C300.043 253.148 299.045 256.523 297.049 258.991C295.09 261.458 292.332 262.692 288.775 262.692C285.364 262.692 282.697 261.331 280.774 258.61V272H275.657V234.333H279.467C279.722 235.494 279.957 236.764 280.175 238.143C282.244 235.24 285.11 233.789 288.775 233.789ZM287.85 237.871C285.382 237.871 283.568 238.724 282.407 240.429C281.282 242.135 280.719 244.73 280.719 248.213C280.719 251.769 281.3 254.4 282.461 256.106C283.659 257.775 285.455 258.61 287.85 258.61C290.245 258.61 292.023 257.757 293.184 256.051C294.346 254.346 294.926 251.733 294.926 248.213C294.926 244.657 294.327 242.044 293.13 240.375C291.969 238.706 290.209 237.871 287.85 237.871Z" fill="#250031"/>
<path d="M174.423 224.263C174.132 226.078 173.352 228.4 172.082 231.231C170.848 234.061 169.415 236.855 167.782 239.613C166.149 242.335 164.679 244.439 163.373 245.927H171.538V240.375C172.481 239.069 173.57 237.037 174.804 234.279C176.074 231.521 176.89 229.38 177.253 227.856H181.771V245.927H187.105V253.929H181.771V262.148H171.538V253.929H156.297V245.818C157.712 243.278 158.783 241.101 159.508 239.287L161.141 235.259C163.028 230.614 164.244 226.949 164.788 224.263H174.423Z" fill="#FF7B02"/>
<defs>
<linearGradient id="paint0_linear" x1="58.3997" y1="4.89775" x2="234.042" y2="180.54" gradientUnits="userSpaceOnUse">
<stop stop-color="#F27979"/>
<stop offset="1" stop-color="#7D00A3"/>
</linearGradient>
<linearGradient id="paint1_linear" x1="146.641" y1="47.6483" x2="146.641" y2="19.9585" gradientUnits="userSpaceOnUse">
<stop stop-color="white"/>
<stop offset="1" stop-color="#DDDDDD"/>
</linearGradient>
<linearGradient id="paint2_linear" x1="146.635" y1="47.649" x2="146.635" y2="19.9592" gradientUnits="userSpaceOnUse">
<stop stop-color="white"/>
<stop offset="1" stop-color="#F2F2F2" stop-opacity="0"/>
</linearGradient>
<linearGradient id="paint3_linear" x1="97.5663" y1="43.4734" x2="78.4688" y2="24.3759" gradientUnits="userSpaceOnUse">
<stop stop-color="white"/>
<stop offset="1" stop-color="#DDDDDD"/>
</linearGradient>
<linearGradient id="paint4_linear" x1="97.5663" y1="43.4733" x2="78.4688" y2="24.3758" gradientUnits="userSpaceOnUse">
<stop stop-color="white"/>
<stop offset="1" stop-color="#F2F2F2" stop-opacity="0"/>
</linearGradient>
<linearGradient id="paint5_linear" x1="192.897" y1="138.818" x2="211.995" y2="157.916" gradientUnits="userSpaceOnUse">
<stop stop-color="white"/>
<stop offset="1" stop-color="#DDDDDD"/>
</linearGradient>
<linearGradient id="paint6_linear" x1="192.913" y1="138.818" x2="212.011" y2="157.916" gradientUnits="userSpaceOnUse">
<stop stop-color="white"/>
<stop offset="1" stop-color="#F2F2F2" stop-opacity="0"/>
</linearGradient>
<linearGradient id="paint7_linear" x1="189.094" y1="91.4951" x2="215.944" y2="91.4951" gradientUnits="userSpaceOnUse">
<stop stop-color="white"/>
<stop offset="1" stop-color="#DDDDDD"/>
</linearGradient>
<linearGradient id="paint8_linear" x1="189.089" y1="91.4952" x2="215.939" y2="91.4952" gradientUnits="userSpaceOnUse">
<stop stop-color="white"/>
<stop offset="1" stop-color="#F2F2F2" stop-opacity="0"/>
</linearGradient>
<linearGradient id="paint9_linear" x1="192.897" y1="43.4732" x2="211.995" y2="24.3757" gradientUnits="userSpaceOnUse">
<stop stop-color="white"/>
<stop offset="1" stop-color="#DDDDDD"/>
</linearGradient>
<linearGradient id="paint10_linear" x1="192.913" y1="43.4732" x2="212.011" y2="24.3757" gradientUnits="userSpaceOnUse">
<stop stop-color="white"/>
<stop offset="1" stop-color="#F2F2F2" stop-opacity="0"/>
</linearGradient>
<radialGradient id="paint11_angular" cx="0" cy="0" r="1" gradientUnits="userSpaceOnUse" gradientTransform="translate(146.119 139.707) rotate(90) scale(17.2012 28.9095)">
<stop stop-color="#FFCB52"/>
<stop offset="1" stop-color="#FF7B02"/>
</radialGradient>
<linearGradient id="paint12_linear" x1="145.681" y1="120.047" x2="145.681" y2="170.444" gradientUnits="userSpaceOnUse">
<stop stop-color="white"/>
<stop offset="1" stop-color="white" stop-opacity="0"/>
</linearGradient>
<radialGradient id="paint13_angular" cx="0" cy="0" r="1" gradientUnits="userSpaceOnUse" gradientTransform="translate(147.302 87.2261) rotate(90) scale(0.969186 1.10708)">
<stop stop-color="#FFCB52"/>
<stop offset="1" stop-color="#FF7B02"/>
</radialGradient>
<linearGradient id="paint14_linear" x1="146.1" y1="112.017" x2="146.1" y2="65.4482" gradientUnits="userSpaceOnUse">
<stop stop-color="white"/>
<stop offset="1" stop-color="white" stop-opacity="0.3"/>
</linearGradient>
<linearGradient id="paint15_linear" x1="97.5606" y1="138.818" x2="78.4631" y2="157.916" gradientUnits="userSpaceOnUse">
<stop stop-color="white"/>
<stop offset="1" stop-color="#DDDDDD"/>
</linearGradient>
<linearGradient id="paint16_linear" x1="97.568" y1="138.818" x2="78.4705" y2="157.916" gradientUnits="userSpaceOnUse">
<stop stop-color="white"/>
<stop offset="1" stop-color="#F2F2F2" stop-opacity="0"/>
</linearGradient>
<linearGradient id="paint17_linear" x1="101.504" y1="91.4951" x2="74.6532" y2="91.4951" gradientUnits="userSpaceOnUse">
<stop stop-color="white"/>
<stop offset="1" stop-color="#DDDDDD"/>
</linearGradient>
<linearGradient id="paint18_linear" x1="101.498" y1="91.4952" x2="74.6475" y2="91.4952" gradientUnits="userSpaceOnUse">
<stop stop-color="white"/>
<stop offset="1" stop-color="#F2F2F2" stop-opacity="0"/>
</linearGradient>
</defs>
</svg>
