<svg width="12" height="12" viewBox="0 0 12 12" fill="none" xmlns="http://www.w3.org/2000/svg">
<path d="M11.3754 4.96875H2.23322L7.7051 0.21875C7.7926 0.142188 7.73947 0 7.62385 0H6.24104C6.1801 0 6.12229 0.0218749 6.07697 0.0609374L0.172286 5.18437C0.118206 5.23125 0.0748342 5.28921 0.045109 5.35431C0.0153839 5.41942 0 5.49015 0 5.56172C0 5.63329 0.0153839 5.70402 0.045109 5.76913C0.0748342 5.83423 0.118206 5.89218 0.172286 5.93906L6.11135 11.0938C6.13479 11.1141 6.16291 11.125 6.1926 11.125H7.62229C7.73791 11.125 7.79104 10.9812 7.70354 10.9062L2.23322 6.15625H11.3754C11.4442 6.15625 11.5004 6.1 11.5004 6.03125V5.09375C11.5004 5.025 11.4442 4.96875 11.3754 4.96875Z" fill="white"/>
</svg>
