<svg width="62" height="126" viewBox="0 0 62 126" fill="none" xmlns="http://www.w3.org/2000/svg">
    <path d="M53.2271 73.5152V118.405C53.2271 120.112 51.8431 121.496 50.1358 121.496H11.0913C9.384 121.496 8 120.112 8 118.405V73.5152C8 69.6554 9.53425 66.195 12.0691 63.6661C14.604 61.1373 18.0727 59.6067 21.9417 59.6067H39.2187C43.0877 59.6067 46.5564 61.1373 49.0913 63.6661C51.6261 66.195 53.2271 69.6554 53.2271 73.5152Z" fill="url(#paint0_angular)"/>
    <path fill-rule="evenodd" clip-rule="evenodd" d="M21.5481 63.2129C18.6584 63.2129 16.0988 64.3475 14.2227 66.2191C12.3468 68.0905 11.2129 70.64 11.2129 73.515V117.89H49.2271V73.515C49.2271 70.6832 48.0585 68.1224 46.1506 66.2191C44.2745 64.3475 41.7149 63.2129 38.8252 63.2129H21.5481ZM9.12845 61.1127C12.3221 57.9267 16.7 56 21.5481 56H38.8252C43.6733 56 48.0512 57.9267 51.2449 61.1127C54.4067 64.267 56.44 68.6273 56.44 73.515V118.405C56.44 122.104 53.4413 125.103 49.7423 125.103H10.6977C6.99868 125.103 4 122.104 4 118.405V73.515C4 68.6704 5.93462 64.2989 9.12845 61.1127Z" fill="url(#paint1_linear)"/>
    <path d="M4.20359 30.5044C4.20359 15.6489 16.2463 3.60616 31.1018 3.60616C45.9573 3.60616 58 15.6489 58 30.5044C58 45.3598 45.9573 57.4026 31.1018 57.4026C16.2463 57.4026 4.20359 45.3598 4.20359 30.5044Z" fill="url(#paint2_angular)"/>
    <path fill-rule="evenodd" clip-rule="evenodd" d="M53.7964 30.5046C53.7964 43.3683 43.3683 53.7964 30.5046 53.7964C17.641 53.7964 7.21288 43.3683 7.21288 30.5046C7.21287 17.6409 17.6409 7.21285 30.5046 7.21285C43.3683 7.21285 53.7964 17.6409 53.7964 30.5046ZM30.5046 61.0093C47.3519 61.0093 61.0093 47.3519 61.0093 30.5046C61.0093 13.6573 47.3519 -7.61311e-05 30.5046 -7.59302e-05C13.6574 -7.57293e-05 -4.6341e-05 13.6573 -4.61401e-05 30.5046C-4.59392e-05 47.3519 13.6574 61.0093 30.5046 61.0093Z" fill="url(#paint3_linear)"/>
    <defs>
        <radialGradient id="paint0_angular" cx="0" cy="0" r="1" gradientUnits="userSpaceOnUse" gradientTransform="translate(31.1286 83.7468) rotate(90) scale(21.1236 35.5017)">
            <stop stop-color="#FFCB52"/>
            <stop offset="1" stop-color="#FF7B02"/>
        </radialGradient>
        <linearGradient id="paint1_linear" x1="30.22" y1="59.6065" x2="30.22" y2="121.496" gradientUnits="userSpaceOnUse">
            <stop stop-color="white"/>
            <stop offset="1" stop-color="white" stop-opacity="0"/>
        </linearGradient>
        <radialGradient id="paint2_angular" cx="0" cy="0" r="1" gradientUnits="userSpaceOnUse" gradientTransform="translate(32.7682 30.5839) rotate(90) scale(1.19019 1.35953)">
            <stop stop-color="#FFCB52"/>
            <stop offset="1" stop-color="#FF7B02"/>
        </radialGradient>
        <linearGradient id="paint3_linear" x1="30.7025" y1="61.0279" x2="30.7025" y2="3.83971" gradientUnits="userSpaceOnUse">
            <stop stop-color="white"/>
            <stop offset="1" stop-color="white" stop-opacity="0.3"/>
        </linearGradient>
    </defs>
</svg>