<?xml version="1.0" encoding="iso-8859-1"?>
<!-- Generator: Adobe Illustrator 19.0.0, SVG Export Plug-In . SVG Version: 6.00 Build 0)  -->
<svg version="1.1" id="Capa_1" xmlns="http://www.w3.org/2000/svg" xmlns:xlink="http://www.w3.org/1999/xlink" x="0px" y="0px"
	 viewBox="0 0 495.968 495.968" style="enable-background:new 0 0 495.968 495.968;" xml:space="preserve">
<path style="fill:#2196F3;" d="M423.984,0h-352c-35.296,0-64,28.704-64,64v288c0,35.296,28.704,64,64,64v63.968
	c0,6.208,3.584,11.84,9.216,14.496c2.144,0.992,4.48,1.504,6.784,1.504c3.68,0,7.328-1.248,10.24-3.712L189.776,416h234.208
	c35.296,0,64-28.704,64-64V64C487.984,28.704,459.28,0,423.984,0z"/>
<g>
	<path style="fill:#FAFAFA;" d="M119.984,288h-32c-8.832,0-16-7.168-16-16s7.168-16,16-16h32c8.832,0,16-7.168,16-16
		s-7.168-16-16-16c-26.464,0-48-21.536-48-48s21.536-48,48-48h32c8.832,0,16,7.168,16,16s-7.168,16-16,16h-32
		c-8.832,0-16,7.168-16,16s7.168,16,16,16c26.464,0,48,21.536,48,48S146.448,288,119.984,288z"/>
	<path style="fill:#FAFAFA;" d="M375.984,288h-32c-8.832,0-16-7.168-16-16s7.168-16,16-16h32c8.8,0,16-7.168,16-16s-7.2-16-16-16
		c-26.464,0-48-21.536-48-48s21.536-48,48-48h32c8.832,0,16,7.168,16,16s-7.168,16-16,16h-32c-8.8,0-16,7.168-16,16s7.2,16,16,16
		c26.464,0,48,21.536,48,48S402.448,288,375.984,288z"/>
	<path style="fill:#FAFAFA;" d="M279.984,288c-8.832,0-16-7.168-16-16v-60.224l-1.696,3.392c-5.44,10.848-23.2,10.848-28.64,0
		l-1.664-3.392V272c0,8.832-7.168,16-16,16s-16-7.168-16-16V144c0-7.424,5.12-13.888,12.32-15.584
		c7.136-1.728,14.656,1.792,17.984,8.416l17.696,35.392l17.696-35.36c3.296-6.688,10.624-10.144,17.984-8.448
		c7.232,1.696,12.32,8.16,12.32,15.584v128C295.984,280.832,288.816,288,279.984,288z"/>
</g>
<g>
</g>
<g>
</g>
<g>
</g>
<g>
</g>
<g>
</g>
<g>
</g>
<g>
</g>
<g>
</g>
<g>
</g>
<g>
</g>
<g>
</g>
<g>
</g>
<g>
</g>
<g>
</g>
<g>
</g>
</svg>
