<svg width="687" height="515" viewBox="0 0 687 515" fill="none" xmlns="http://www.w3.org/2000/svg">
<path d="M420.427 256.899V134.466C420.429 131.837 419.901 129.235 418.876 126.814C417.851 124.394 416.349 122.203 414.46 120.374C412.57 118.545 410.333 117.115 407.879 116.168C405.426 115.221 402.807 114.777 400.178 114.862L292.817 118.089C290.153 118.169 287.532 118.79 285.116 119.914C282.7 121.039 280.538 122.643 278.762 124.63C276.986 126.617 275.634 128.945 274.788 131.471C273.941 133.997 273.618 136.669 273.839 139.324L284.47 266.564L420.427 256.899Z" fill="#231F20"/>
<path d="M284.521 267.405C284.306 267.41 284.098 267.333 283.938 267.189C283.778 267.046 283.68 266.847 283.662 266.633L273.082 139.393C272.853 136.627 273.188 133.843 274.068 131.21C274.948 128.577 276.355 126.151 278.202 124.078C280.049 122.005 282.299 120.329 284.814 119.152C287.33 117.975 290.058 117.322 292.834 117.231L400.177 114.021C402.916 113.938 405.643 114.406 408.198 115.396C410.752 116.386 413.082 117.879 415.049 119.785C417.016 121.692 418.58 123.974 419.648 126.496C420.716 129.017 421.267 131.728 421.268 134.466V256.899C421.269 257.115 421.188 257.324 421.042 257.483C420.895 257.642 420.694 257.74 420.478 257.757L284.555 267.405H284.521ZM400.83 115.72H400.177L292.816 118.948C290.279 119.039 287.786 119.644 285.49 120.726C283.193 121.808 281.141 123.346 279.456 125.244C277.771 127.143 276.49 129.364 275.69 131.773C274.889 134.181 274.587 136.727 274.8 139.256L285.345 265.654L419.637 256.109V134.466C419.637 129.495 417.661 124.727 414.143 121.211C410.626 117.695 405.856 115.72 400.882 115.72H400.83Z" fill="#231F20"/>
<path d="M525.813 178.173C525.813 178.173 510.184 184.044 511.163 204.747C512.142 225.45 506.835 247.835 524.731 246.136L525.813 258.324L563.598 262.341C563.598 262.341 567.548 199.03 560.455 188.524C553.362 178.018 525.813 178.173 525.813 178.173Z" fill="white"/>
<path d="M563.632 263.182H563.546L525.761 259.165C525.563 259.146 525.377 259.059 525.236 258.918C525.095 258.777 525.007 258.591 524.988 258.393L523.992 247.063C522.407 247.256 520.799 247.118 519.271 246.657C517.742 246.196 516.326 245.422 515.113 244.385C509.96 239.647 510.184 229.638 510.39 218.051C510.39 213.708 510.544 209.21 510.39 204.798C509.874 193.794 514.014 186.945 517.586 183.117C519.823 180.663 522.55 178.704 525.589 177.366C525.692 177.35 525.796 177.35 525.899 177.366C527.049 177.366 554.014 177.486 561.279 188.164C568.544 198.841 564.714 259.835 564.577 262.444C564.568 262.56 564.537 262.673 564.484 262.776C564.431 262.879 564.357 262.971 564.268 263.045C564.08 263.169 563.854 263.218 563.632 263.182ZM526.603 257.5L562.842 261.345C563.271 253.62 566.174 198.447 559.768 189.022C553.361 179.598 528.234 178.997 525.967 178.98C524.353 179.632 511.128 185.675 512.004 204.73C512.227 209.21 512.141 213.725 512.004 218.102C511.815 228.814 511.643 238.943 516.195 243.149C518.136 244.951 520.884 245.655 524.593 245.312C524.821 245.292 525.048 245.36 525.229 245.5C525.403 245.648 525.513 245.857 525.538 246.084L526.603 257.5Z" fill="#231F20"/>
<path d="M551.798 244.865C571.974 244.865 588.329 226.904 588.329 204.747C588.329 182.59 571.974 164.628 551.798 164.628C531.623 164.628 515.267 182.59 515.267 204.747C515.267 226.904 531.623 244.865 551.798 244.865Z" fill="white"/>
<path d="M551.798 245.724C531.188 245.724 514.408 227.338 514.408 204.747C514.408 182.155 531.188 163.787 551.798 163.787C572.408 163.787 589.102 182.155 589.102 204.747C589.102 227.338 572.408 245.724 551.798 245.724ZM551.798 165.487C532.133 165.487 516.126 183.1 516.126 204.747C516.126 226.394 532.133 244.024 551.798 244.024C571.464 244.024 587.471 226.411 587.471 204.747C587.471 183.082 571.464 165.487 551.798 165.487Z" fill="#231F20"/>
<path d="M379.464 70.7437C363.388 48.2039 329.124 53.2509 313.083 73.5247C304.633 84.2024 300.957 98.4679 290.755 107.515C285.345 112.339 278.527 115.257 272.138 118.707C265.749 122.158 259.428 126.535 256.216 133.042C253.005 139.548 254.018 148.629 260.15 152.526C265.543 155.959 272.962 154.534 278.424 157.882C271.554 158.792 266.968 167.461 270.128 173.658C272.808 178.928 279.094 181.091 284.83 182.516C305.062 187.666 326.651 189.486 346.66 183.512C361.602 179.065 376.854 169.16 385.235 155.702C393.187 142.93 390.302 118.845 389.185 104.202C388.378 93.541 386.678 82.6574 381.25 73.456C380.701 72.5462 380.1 71.6192 379.464 70.7437Z" fill="white"/>
<path d="M319.885 188.044C307.995 187.921 296.164 186.342 284.659 183.34C278.699 181.864 272.224 179.58 269.407 174.053C268.618 172.374 268.241 170.531 268.307 168.677C268.373 166.823 268.879 165.011 269.785 163.392C271.108 160.781 273.327 158.733 276.037 157.624C273.843 156.877 271.574 156.37 269.27 156.114C265.921 155.839 262.667 154.863 259.721 153.247C252.954 148.938 252.25 139.204 255.479 132.647C259.017 125.523 266.041 121.042 271.778 117.952C273.22 117.162 274.68 116.407 276.157 115.652C281.206 113.328 285.943 110.381 290.258 106.88C296.046 101.73 299.79 94.6397 303.414 87.7902C305.981 82.5999 309.004 77.6479 312.448 72.9925C317.049 67.2895 322.893 62.713 329.534 59.6128C336.175 56.5125 343.437 54.9706 350.765 55.1049C356.516 55.1181 362.182 56.498 367.294 59.1306C372.407 61.7632 376.82 65.573 380.169 70.2459C380.805 71.1385 381.423 72.0999 382.007 73.0784C387.76 82.829 389.306 94.2792 390.062 104.184C390.165 105.523 390.285 106.948 390.405 108.442C391.59 123.6 393.308 144.32 385.974 156.217C378.074 168.937 363.475 179.46 346.918 184.404C338.131 186.92 329.025 188.146 319.885 188.044ZM349.649 56.8044C342.768 56.8322 335.978 58.3866 329.771 61.3552C323.563 64.3239 318.093 68.6328 313.753 73.971C310.366 78.5405 307.4 83.4071 304.891 88.5112C301.198 95.498 297.368 102.708 291.357 108.064C286.951 111.674 282.103 114.708 276.93 117.094C275.47 117.849 274.01 118.604 272.585 119.377C267.072 122.364 260.322 126.638 257.024 133.333C254.105 139.222 254.671 147.925 260.631 151.736C263.373 153.263 266.403 154.204 269.528 154.5C272.803 154.783 275.99 155.71 278.905 157.229C279.055 157.322 279.173 157.458 279.242 157.62C279.312 157.782 279.33 157.961 279.295 158.133C279.259 158.306 279.171 158.463 279.043 158.584C278.915 158.704 278.753 158.783 278.579 158.809C277.037 159.121 275.583 159.772 274.324 160.716C273.066 161.659 272.033 162.871 271.301 164.264C270.569 165.656 270.157 167.194 270.093 168.765C270.03 170.337 270.318 171.902 270.936 173.349C273.444 178.293 279.524 180.387 285.071 181.778C308.446 187.614 329.091 187.958 346.437 182.791C362.599 177.967 376.837 167.701 384.531 155.324C391.59 143.96 389.924 123.548 388.705 108.648C388.585 107.154 388.465 105.729 388.361 104.39C387.623 94.674 386.112 83.4642 380.53 74.0054C379.98 73.0784 379.379 72.1685 378.812 71.3102C375.613 66.8552 371.4 63.2244 366.52 60.7172C361.641 58.21 356.235 56.8982 350.748 56.8902L349.649 56.8044Z" fill="#231F20"/>
<path d="M400.521 136.561C400.109 133.969 334.81 122.827 302.005 138.277C290.258 183.237 296.75 271.233 296.75 271.233L413.402 270.34C413.402 270.34 414.484 221.862 400.521 136.561Z" fill="#EB7100"/>
<path d="M328.472 139.428C328.472 139.428 326.428 269.122 326.411 270.032C326.394 270.941 361.534 270.032 362.478 268.504C363.423 266.976 362.478 155.53 362.478 155.53L333.47 149.35" fill="#231F20"/>
<path d="M333.057 271.233C330.815 271.311 328.569 271.214 326.342 270.941C326.119 270.904 325.917 270.789 325.772 270.616C325.627 270.442 325.549 270.223 325.552 269.997C325.552 269.104 327.596 140.698 327.613 139.393C327.613 139.281 327.635 139.17 327.679 139.067C327.722 138.964 327.786 138.87 327.865 138.792C327.945 138.714 328.04 138.652 328.144 138.611C328.248 138.57 328.36 138.55 328.472 138.552C328.584 138.554 328.696 138.579 328.799 138.624C328.902 138.669 328.996 138.734 329.074 138.815C329.152 138.897 329.213 138.993 329.255 139.098C329.296 139.203 329.316 139.315 329.313 139.427C329.313 140.663 327.424 259.44 327.269 269.379C331.598 269.877 358.597 269.104 361.619 267.937C362.186 263.508 361.723 186.687 361.482 156.216L333.195 150.071C333.082 150.047 332.975 150.001 332.88 149.936C332.785 149.871 332.703 149.788 332.64 149.692C332.577 149.595 332.534 149.488 332.513 149.374C332.491 149.261 332.493 149.145 332.516 149.032C332.54 148.919 332.586 148.813 332.651 148.717C332.716 148.622 332.799 148.541 332.895 148.478C332.992 148.415 333.1 148.372 333.213 148.35C333.326 148.329 333.443 148.33 333.556 148.354L362.513 154.637C362.702 154.677 362.872 154.78 362.994 154.93C363.116 155.08 363.183 155.268 363.182 155.461C363.457 189.039 363.972 267.302 363.079 268.864C362.787 269.362 362.238 270.306 345.114 270.941C341.095 271.233 336.63 271.233 333.057 271.233Z" fill="#231F20"/>
<path d="M361.448 137.436L362.307 158.757C362.307 158.757 359.92 168.611 345.51 165.864C331.1 163.117 328.524 153.401 328.524 153.401L328.369 113.574C328.369 113.574 350.13 100.631 345.905 77.8678C345.905 77.8678 355.42 95.4808 376.459 91.7556C376.459 91.7556 377.747 112.201 376.562 123.308C375.377 134.415 361.448 137.436 361.448 137.436Z" fill="white"/>
<path d="M350.25 167.203C348.606 167.191 346.968 167.024 345.355 166.705C330.567 163.89 327.802 154.036 327.682 153.624C327.673 153.55 327.673 153.475 327.682 153.401L327.527 113.574C327.528 113.427 327.566 113.281 327.639 113.152C327.711 113.023 327.814 112.914 327.94 112.836C328.146 112.716 349.134 99.9269 345.115 78.0222C345.079 77.8219 345.115 77.6153 345.217 77.4392C345.319 77.2631 345.481 77.1291 345.673 77.061C345.865 76.9929 346.074 76.9953 346.265 77.0676C346.455 77.1399 346.614 77.2774 346.712 77.4557C349.637 82.4985 354.058 86.5085 359.362 88.9318C364.666 91.355 370.592 92.0718 376.322 90.9831C376.439 90.9591 376.56 90.962 376.676 90.9918C376.792 91.0215 376.9 91.0772 376.991 91.1547C377.088 91.2276 377.167 91.3207 377.223 91.4275C377.28 91.5342 377.312 91.6521 377.318 91.7727C377.318 91.9787 378.589 112.373 377.421 123.48C376.322 133.78 365.295 137.367 362.341 138.157L363.166 158.757C363.174 158.831 363.174 158.906 363.166 158.98C363.114 159.049 361.002 167.203 350.25 167.203ZM329.382 153.281C329.692 154.328 332.611 162.517 345.664 165.006C358.357 167.443 361.122 159.633 361.431 158.654L360.675 137.47C360.667 137.267 360.732 137.067 360.858 136.906C360.983 136.746 361.162 136.635 361.362 136.595C361.482 136.595 374.69 133.574 375.789 123.222C376.803 113.66 375.978 96.9056 375.789 92.7512C370.449 93.5994 364.979 92.9786 359.966 90.9553C354.952 88.9321 350.584 85.5828 347.33 81.2667C348.773 100.459 332.216 112.167 329.348 114.055L329.382 153.281Z" fill="#231F20"/>
<path d="M335.05 112.115C334.461 110.177 333.255 108.483 331.615 107.292C330.04 106.247 328.297 105.481 326.463 105.026C325.498 104.666 324.464 104.531 323.44 104.631C322.728 104.781 322.052 105.066 321.448 105.472C319.947 106.297 318.79 107.63 318.184 109.232C317.85 110.573 317.85 111.976 318.184 113.317C318.428 114.794 318.867 116.231 319.49 117.592C320.143 118.938 321.057 120.14 322.179 121.13C323.302 122.119 324.61 122.876 326.028 123.355C327.446 123.834 328.945 124.027 330.437 123.922C331.93 123.816 333.387 123.415 334.724 122.742" fill="white"/>
<path d="M329.76 124.802C327.475 124.813 325.233 124.173 323.299 122.957C321.364 121.741 319.816 119.999 318.837 117.935C318.178 116.505 317.716 114.992 317.463 113.437C317.102 111.966 317.102 110.428 317.463 108.957C318.117 107.157 319.397 105.652 321.07 104.717C321.768 104.256 322.55 103.935 323.371 103.772C324.533 103.642 325.708 103.783 326.806 104.184C328.728 104.672 330.552 105.485 332.199 106.588C333.976 107.895 335.278 109.745 335.909 111.858C335.973 112.086 335.943 112.329 335.827 112.535C335.711 112.741 335.518 112.893 335.291 112.957C335.063 113.02 334.819 112.991 334.613 112.875C334.407 112.759 334.255 112.566 334.191 112.339C333.662 110.583 332.577 109.047 331.1 107.961C329.634 107.002 328.021 106.289 326.325 105.85C325.482 105.53 324.579 105.401 323.68 105.472C323.066 105.598 322.483 105.843 321.963 106.193C320.651 106.927 319.632 108.091 319.077 109.489C318.786 110.696 318.786 111.955 319.077 113.163C319.303 114.563 319.719 115.926 320.314 117.214C320.92 118.454 321.765 119.563 322.801 120.475C323.838 121.388 325.045 122.086 326.352 122.529C327.66 122.973 329.043 123.153 330.421 123.06C331.799 122.967 333.144 122.602 334.38 121.986C334.58 121.903 334.805 121.898 335.008 121.974C335.212 122.049 335.379 122.198 335.477 122.391C335.575 122.585 335.596 122.808 335.536 123.016C335.476 123.224 335.339 123.402 335.153 123.514C333.479 124.353 331.633 124.793 329.76 124.802Z" fill="#231F20"/>
<path d="M362.221 104.013C362.221 104.013 370.602 114.502 368.988 116.579C367.374 118.656 362.324 117.798 362.324 117.798" fill="white"/>
<path d="M364.642 118.845C363.82 118.843 362.999 118.779 362.186 118.656C361.962 118.614 361.764 118.487 361.632 118.301C361.501 118.115 361.447 117.885 361.482 117.66C361.499 117.549 361.537 117.443 361.596 117.347C361.655 117.251 361.732 117.167 361.823 117.102C361.914 117.036 362.018 116.99 362.127 116.965C362.237 116.94 362.35 116.937 362.461 116.956C363.646 117.162 367.27 117.42 368.318 116.064C368.85 115.12 365.69 109.729 361.551 104.562C361.479 104.474 361.425 104.372 361.393 104.262C361.36 104.152 361.35 104.037 361.363 103.924C361.376 103.81 361.411 103.701 361.467 103.601C361.523 103.501 361.598 103.414 361.688 103.343C361.866 103.203 362.092 103.139 362.318 103.164C362.543 103.19 362.749 103.304 362.89 103.481C365.535 106.794 371.478 114.742 369.76 117.111C369.087 117.757 368.279 118.247 367.394 118.547C366.51 118.847 365.57 118.948 364.642 118.845Z" fill="#231F20"/>
<path d="M355.935 99.9171C355.994 98.4867 355.22 97.2933 354.206 97.2515C353.192 97.2098 352.322 98.3355 352.263 99.7659C352.204 101.196 352.978 102.39 353.992 102.431C355.006 102.473 355.876 101.348 355.935 99.9171Z" fill="#231F20"/>
<path d="M369.387 99.7353C369.603 98.3202 368.966 97.0485 367.962 96.8951C366.959 96.7417 365.97 97.7645 365.754 99.1796C365.537 100.595 366.175 101.866 367.178 102.02C368.181 102.173 369.17 101.15 369.387 99.7353Z" fill="#231F20"/>
<path d="M368.954 122.415C368.954 122.415 350.782 133.419 347.554 116.527L368.954 122.415Z" fill="white"/>
<path d="M357.515 126.793C355.941 126.814 354.38 126.51 352.929 125.9C349.7 124.458 347.605 121.368 346.712 116.682C346.689 116.571 346.69 116.457 346.712 116.347C346.735 116.236 346.78 116.131 346.844 116.038C346.908 115.945 346.99 115.866 347.086 115.806C347.181 115.745 347.287 115.705 347.399 115.686C347.619 115.645 347.847 115.693 348.033 115.818C348.219 115.943 348.349 116.136 348.395 116.356C349.185 120.458 350.937 123.222 353.633 124.321C359.627 126.999 368.421 121.746 368.507 121.677C368.703 121.559 368.938 121.523 369.16 121.578C369.382 121.633 369.573 121.773 369.692 121.969C369.81 122.165 369.846 122.4 369.791 122.622C369.737 122.844 369.596 123.035 369.4 123.154C365.783 125.291 361.709 126.538 357.515 126.793Z" fill="#231F20"/>
<path d="M361.448 137.436C361.448 137.436 350.37 137.625 345.149 134.69C345.149 134.69 349.649 147.273 361.757 150.26L361.448 137.436Z" fill="#231F20"/>
<path d="M361.757 151.067H361.551C349.151 147.994 344.548 135.479 344.376 134.947C344.311 134.783 344.299 134.603 344.341 134.432C344.384 134.26 344.48 134.107 344.615 133.993C344.75 133.879 344.917 133.81 345.093 133.797C345.269 133.783 345.445 133.825 345.596 133.917C350.542 136.698 361.345 136.544 361.448 136.544C361.676 136.533 361.899 136.608 362.074 136.754C362.249 136.901 362.363 137.107 362.393 137.333L362.702 150.174C362.704 150.288 362.684 150.401 362.642 150.508C362.599 150.614 362.537 150.71 362.457 150.792C362.377 150.873 362.281 150.938 362.176 150.982C362.071 151.027 361.957 151.049 361.843 151.049L361.757 151.067ZM346.935 136.389C348.653 139.822 353.015 146.689 360.967 149.127L360.675 138.277C356.027 138.328 351.397 137.692 346.935 136.389Z" fill="#231F20"/>
<path d="M506.783 147.29C503.571 144.423 482.738 157.59 482.738 157.59C483.631 149.367 484.713 143.118 482.738 142.93C480.763 142.741 472.725 164.868 472.725 164.868C472.725 164.868 446.069 203.768 443.922 204.85C441.776 205.931 400.521 136.561 400.521 136.561C377.06 162.139 394.63 198.069 394.63 198.069C394.63 198.069 438.1 252.779 447.22 252.247C454.588 251.818 479.148 207.888 488.285 191.082C488.285 191.082 494.623 180.782 497.199 176.971C499.776 173.16 508.208 165.177 511.97 160.697C515.731 156.216 510.098 150.157 506.783 147.29Z" fill="white"/>
<path d="M447.1 253.036C437.568 253.036 398.46 204.163 394.012 198.567C393.737 198.052 376.39 161.693 399.954 136.029C400.037 135.94 400.139 135.873 400.252 135.831C400.365 135.789 400.487 135.774 400.607 135.788C400.728 135.797 400.845 135.836 400.947 135.902C401.05 135.968 401.133 136.059 401.191 136.166C416.562 161.916 440.161 200.575 443.905 203.991C446.584 201.331 461.973 179.323 472.089 164.508C480.316 141.934 482.223 142.088 482.892 142.191C483.11 142.209 483.321 142.272 483.513 142.375C483.706 142.478 483.874 142.62 484.009 142.792C485.108 144.148 484.782 147.444 484.009 154.191C484.009 154.809 483.871 155.444 483.785 156.096C489.917 152.268 504.189 143.891 507.332 146.672C513.773 152.406 515.628 157.556 512.588 161.178C511.008 163.066 508.655 165.521 506.164 168.044C503.214 170.964 500.444 174.06 497.869 177.314C495.327 181.005 489.041 191.288 488.972 191.391C476.589 214.154 454.622 252.487 447.271 252.934L447.1 253.036ZM400.401 137.883C378.64 162.706 395.248 197.382 395.334 197.726C412.509 219.321 440.453 251.474 447.048 251.474H447.168C451.891 251.183 467.383 227.905 487.598 190.704C487.684 190.567 493.987 180.267 496.564 176.525C499.16 173.202 501.959 170.043 504.945 167.066C507.418 164.491 509.754 162.053 511.3 160.199C514.563 156.32 509.496 150.809 506.147 147.874C504.43 146.346 492.854 152.114 483.116 158.328C482.988 158.404 482.843 158.443 482.695 158.443C482.547 158.443 482.401 158.404 482.274 158.328C482.148 158.25 482.046 158.137 481.983 158.003C481.919 157.869 481.895 157.72 481.913 157.573C482.051 156.354 482.188 155.169 482.308 154.054C482.772 150.054 483.408 144.612 482.721 143.857C481.261 145.196 476.915 155.581 473.412 165.195C473.415 165.258 473.415 165.321 473.412 165.384C468.929 171.907 446.533 204.506 444.317 205.605C443.356 206.103 442.342 206.618 420.753 171.546C411.685 156.749 402.668 141.694 400.401 137.883Z" fill="#231F20"/>
<path d="M487.993 170.791C487.897 170.813 487.798 170.813 487.701 170.791C487.512 170.711 487.361 170.561 487.281 170.372C487.201 170.182 487.198 169.97 487.272 169.778C489.848 163.323 482.686 158.585 482.394 158.397C482.293 158.349 482.203 158.28 482.13 158.195C482.057 158.109 482.004 158.01 481.972 157.902C481.941 157.794 481.933 157.681 481.949 157.57C481.965 157.459 482.005 157.353 482.065 157.258C482.125 157.164 482.205 157.083 482.298 157.022C482.392 156.96 482.498 156.92 482.609 156.902C482.72 156.885 482.833 156.891 482.941 156.921C483.049 156.951 483.15 157.003 483.236 157.075C483.322 157.075 491.823 162.705 488.732 170.362C488.663 170.497 488.557 170.609 488.426 170.685C488.295 170.761 488.145 170.798 487.993 170.791Z" fill="#231F20"/>
<path d="M483.51 239.612H203.472V459.054H483.51V239.612Z" fill="white"/>
<path d="M483.511 459.843H203.559C203.349 459.843 203.148 459.76 203 459.612C202.852 459.464 202.768 459.263 202.768 459.054V239.612C202.768 239.509 202.789 239.408 202.829 239.313C202.869 239.218 202.927 239.132 203.001 239.06C203.074 238.988 203.162 238.931 203.257 238.894C203.353 238.856 203.456 238.838 203.559 238.84H483.511C483.718 238.84 483.916 238.921 484.064 239.065C484.211 239.209 484.297 239.406 484.301 239.612V459.054C484.297 459.262 484.212 459.46 484.065 459.607C483.918 459.754 483.719 459.839 483.511 459.843ZM204.246 458.35H482.721V240.333H204.246V458.35Z" fill="#231F20"/>
<path d="M333.796 400.876L244.177 397.305C244.064 397.301 243.953 397.274 243.851 397.227C243.748 397.18 243.656 397.113 243.58 397.03C243.503 396.947 243.443 396.85 243.405 396.744C243.366 396.638 243.348 396.525 243.352 396.413L245.791 335.248C245.806 335.02 245.904 334.807 246.066 334.647C246.237 334.498 246.458 334.419 246.684 334.424L336.304 337.977C336.53 337.99 336.742 338.091 336.896 338.257C337.05 338.424 337.133 338.643 337.128 338.87L334.655 399.983C334.643 400.206 334.544 400.415 334.38 400.567C334.309 400.656 334.221 400.729 334.12 400.782C334.02 400.836 333.909 400.867 333.796 400.876ZM245.07 395.623L332.972 399.056L335.342 339.591L247.44 336.158L245.07 395.623Z" fill="#D1D3D4"/>
<path d="M347.073 321.532L286.05 320.072C285.824 320.067 285.608 319.975 285.449 319.815C285.295 319.646 285.21 319.426 285.208 319.197L286.634 260.281C286.636 260.168 286.661 260.057 286.706 259.954C286.751 259.85 286.816 259.757 286.898 259.679C286.979 259.601 287.075 259.539 287.18 259.498C287.285 259.457 287.397 259.437 287.51 259.44L348.533 260.899C348.645 260.903 348.756 260.93 348.859 260.977C348.961 261.024 349.053 261.091 349.13 261.174C349.207 261.257 349.266 261.354 349.305 261.46C349.344 261.566 349.362 261.679 349.357 261.792L347.949 320.708C347.94 320.933 347.848 321.147 347.691 321.308C347.518 321.453 347.299 321.532 347.073 321.532ZM286.96 318.373L346.248 319.798L347.622 262.598L288.334 261.191L286.96 318.373Z" fill="#D1D3D4"/>
<path d="M407.632 322.991L346.609 321.532C346.496 321.527 346.385 321.501 346.283 321.453C346.18 321.406 346.088 321.339 346.012 321.256C345.935 321.173 345.876 321.076 345.837 320.97C345.798 320.864 345.78 320.752 345.785 320.639L347.193 261.74C347.194 261.628 347.217 261.517 347.261 261.414C347.305 261.31 347.37 261.217 347.451 261.139C347.531 261.058 347.628 260.995 347.735 260.954C347.841 260.913 347.955 260.894 348.069 260.899L409.092 262.358C409.205 262.362 409.317 262.388 409.42 262.435C409.523 262.482 409.616 262.549 409.693 262.633C409.771 262.711 409.831 262.805 409.87 262.909C409.908 263.013 409.924 263.123 409.916 263.234L408.508 322.15C408.499 322.376 408.403 322.59 408.239 322.747C408.076 322.903 407.858 322.991 407.632 322.991ZM347.519 319.832L406.807 321.257L408.181 264.058L348.876 262.65L347.519 319.832Z" fill="#D1D3D4"/>
<path d="M337.128 311.18L301.061 310.322C300.833 310.322 300.614 310.231 300.453 310.07C300.292 309.909 300.202 309.691 300.202 309.463C300.202 309.236 300.292 309.017 300.453 308.856C300.614 308.696 300.833 308.605 301.061 308.605L337.128 309.463C337.354 309.472 337.569 309.568 337.725 309.732C337.882 309.895 337.97 310.113 337.97 310.339C337.965 310.561 337.875 310.772 337.718 310.929C337.561 311.086 337.35 311.176 337.128 311.18Z" fill="#D1D3D4"/>
<path d="M337.368 301.223L301.301 300.348C301.187 300.348 301.075 300.325 300.971 300.281C300.866 300.236 300.772 300.171 300.693 300.089C300.615 300.008 300.553 299.911 300.513 299.805C300.473 299.699 300.455 299.586 300.459 299.472C300.462 299.36 300.486 299.248 300.531 299.145C300.576 299.042 300.642 298.948 300.723 298.87C300.804 298.792 300.9 298.731 301.005 298.69C301.11 298.649 301.222 298.629 301.335 298.631L337.403 299.507C337.63 299.507 337.849 299.597 338.01 299.758C338.171 299.919 338.261 300.137 338.261 300.365C338.261 300.593 338.171 300.811 338.01 300.972C337.849 301.133 337.63 301.223 337.403 301.223H337.368Z" fill="#D1D3D4"/>
<path d="M337.609 291.25L301.542 290.391C301.429 290.389 301.318 290.365 301.214 290.319C301.111 290.274 301.017 290.209 300.939 290.128C300.861 290.046 300.8 289.951 300.759 289.845C300.718 289.74 300.698 289.628 300.7 289.516C300.717 289.292 300.815 289.083 300.977 288.928C301.139 288.773 301.352 288.682 301.576 288.675L337.643 289.533C337.871 289.546 338.085 289.646 338.242 289.812C338.398 289.978 338.485 290.197 338.485 290.426C338.476 290.65 338.379 290.862 338.215 291.016C338.052 291.17 337.834 291.254 337.609 291.25Z" fill="#D1D3D4"/>
<path d="M337.832 281.293L301.765 280.417C301.652 280.417 301.539 280.395 301.435 280.35C301.33 280.306 301.236 280.241 301.157 280.159C301.079 280.077 301.018 279.98 300.977 279.874C300.937 279.768 300.919 279.655 300.923 279.542C300.944 279.32 301.044 279.112 301.204 278.958C301.365 278.803 301.577 278.712 301.799 278.701L337.867 279.576C337.979 279.578 338.089 279.603 338.192 279.648C338.294 279.694 338.386 279.759 338.463 279.841C338.54 279.922 338.6 280.018 338.639 280.123C338.678 280.228 338.696 280.34 338.691 280.452C338.687 280.676 338.594 280.89 338.434 281.048C338.273 281.205 338.057 281.293 337.832 281.293Z" fill="#D1D3D4"/>
<path d="M338.073 271.319L302.006 270.461C301.781 270.452 301.569 270.355 301.414 270.191C301.26 270.028 301.176 269.81 301.181 269.585C301.198 269.362 301.297 269.152 301.458 268.997C301.62 268.842 301.833 268.752 302.057 268.744L338.125 269.602C338.237 269.607 338.348 269.633 338.451 269.681C338.553 269.728 338.645 269.795 338.722 269.878C338.799 269.961 338.858 270.058 338.897 270.164C338.936 270.27 338.954 270.382 338.949 270.495C338.947 270.607 338.922 270.717 338.877 270.82C338.831 270.922 338.766 271.014 338.684 271.091C338.603 271.168 338.507 271.228 338.402 271.267C338.297 271.306 338.185 271.324 338.073 271.319Z" fill="#D1D3D4"/>
<path d="M395.42 282.666L359.353 281.808C359.24 281.806 359.129 281.781 359.025 281.736C358.922 281.691 358.829 281.626 358.751 281.544C358.672 281.463 358.611 281.367 358.57 281.262C358.529 281.157 358.509 281.045 358.511 280.932C358.509 280.818 358.53 280.705 358.573 280.599C358.617 280.494 358.682 280.398 358.764 280.319C358.847 280.24 358.945 280.179 359.052 280.14C359.159 280.101 359.273 280.084 359.387 280.091L395.455 280.95C395.679 280.959 395.892 281.055 396.046 281.219C396.2 281.383 396.284 281.6 396.279 281.825C396.279 281.937 396.257 282.048 396.213 282.151C396.17 282.254 396.106 282.348 396.027 282.426C395.947 282.504 395.852 282.566 395.748 282.607C395.644 282.648 395.532 282.669 395.42 282.666Z" fill="#D1D3D4"/>
<path d="M395.66 272.71L359.593 271.834C359.481 271.832 359.371 271.807 359.268 271.762C359.166 271.716 359.073 271.651 358.997 271.57C358.92 271.488 358.86 271.392 358.821 271.287C358.782 271.182 358.764 271.07 358.769 270.959C358.771 270.846 358.795 270.735 358.84 270.631C358.886 270.528 358.951 270.435 359.032 270.357C359.114 270.278 359.209 270.217 359.315 270.176C359.42 270.135 359.532 270.115 359.645 270.117L395.712 270.993C395.94 270.993 396.158 271.083 396.319 271.244C396.48 271.405 396.571 271.624 396.571 271.851C396.571 272.079 396.48 272.297 396.319 272.458C396.158 272.619 395.94 272.71 395.712 272.71H395.66Z" fill="#D1D3D4"/>
<path d="M394.647 314.974L357.567 314.15C357.337 314.141 357.121 314.042 356.963 313.875C356.806 313.709 356.72 313.487 356.725 313.257L357.292 289.911C357.297 289.685 357.389 289.469 357.549 289.31C357.719 289.156 357.939 289.071 358.168 289.069L395.231 289.962C395.344 289.964 395.455 289.989 395.559 290.034C395.662 290.079 395.755 290.144 395.834 290.225C395.912 290.307 395.973 290.403 396.014 290.508C396.055 290.613 396.075 290.725 396.073 290.838L395.506 314.15C395.498 314.375 395.406 314.589 395.249 314.751C395.08 314.892 394.867 314.97 394.647 314.974ZM358.46 312.433L393.806 313.274L394.338 291.644L358.992 290.786L358.46 312.433Z" fill="#D1D3D4"/>
<path d="M303.208 139.05C303.208 139.05 255.204 196.593 249.038 215.939C242.872 235.286 288.369 295.953 288.369 295.953C288.369 295.953 303.208 315.249 310.301 311.146C317.394 307.043 310.301 285.756 310.301 285.756C310.301 285.756 322.787 292.846 320.091 287.044C317.394 281.241 300.941 276.486 300.941 276.486L280.623 215.768L297.128 195.322" fill="white"/>
<path d="M308.102 312.433C300.408 312.433 289.21 298.168 287.802 296.348C285.93 293.859 242.168 235.114 248.299 215.665C254.431 196.215 300.614 140.921 302.572 138.569C302.634 138.478 302.715 138.401 302.809 138.343C302.903 138.286 303.008 138.248 303.118 138.233C303.227 138.218 303.338 138.227 303.444 138.257C303.55 138.288 303.648 138.341 303.733 138.412C303.817 138.483 303.886 138.571 303.934 138.67C303.982 138.769 304.009 138.878 304.013 138.988C304.017 139.098 303.998 139.208 303.957 139.31C303.916 139.412 303.853 139.505 303.774 139.582C303.293 140.148 255.805 197.176 249.793 216.128C243.782 235.08 288.574 294.837 289.021 295.438C293.023 300.588 304.599 313.532 309.923 310.425C315.247 307.317 311.486 291.713 309.562 285.979C309.516 285.827 309.515 285.664 309.561 285.511C309.607 285.358 309.697 285.223 309.82 285.121C309.941 285.021 310.089 284.96 310.245 284.945C310.401 284.93 310.558 284.961 310.696 285.035C314.749 287.335 319.043 288.966 319.696 288.468C319.696 288.468 319.781 288.194 319.386 287.37C317.308 282.872 305.217 278.529 300.734 277.224C300.614 277.19 300.504 277.127 300.414 277.04C300.324 276.953 300.257 276.846 300.219 276.726L279.953 216.025C279.911 215.901 279.902 215.767 279.926 215.638C279.95 215.509 280.006 215.388 280.09 215.287L296.475 194.841C296.539 194.76 296.618 194.693 296.708 194.643C296.798 194.593 296.897 194.561 296.999 194.55C297.102 194.539 297.205 194.548 297.304 194.578C297.403 194.607 297.495 194.656 297.574 194.721C297.734 194.852 297.836 195.041 297.859 195.246C297.881 195.451 297.822 195.658 297.694 195.82L281.584 215.922L301.627 275.851C304.238 276.641 318.253 281.121 320.863 286.717C321.482 288.056 321.465 289.035 320.863 289.636C319.386 290.992 314.801 288.966 311.744 287.37C313.324 292.777 317.154 308.141 310.816 311.815C309.985 312.266 309.047 312.48 308.102 312.433Z" fill="#231F20"/>
<path d="M214.997 188.593C214.997 188.593 212.953 174.465 201.549 170.929C190.145 167.392 157.306 168.045 153.819 193.245C150.333 218.446 162.699 236.437 173.021 241.741L198.217 239.149L214.997 188.593Z" fill="white"/>
<path d="M173.021 242.651C172.891 242.677 172.756 242.677 172.626 242.651C163.077 237.741 149.285 219.991 152.978 193.262C153.41 189.468 154.708 185.823 156.772 182.609C158.835 179.395 161.609 176.697 164.88 174.722C176.507 167.341 193.837 167.598 201.875 170.104C213.657 173.778 215.821 187.872 215.907 188.473C215.94 188.602 215.94 188.738 215.907 188.868L199.127 239.475C199.075 239.631 198.98 239.769 198.852 239.873C198.724 239.976 198.569 240.041 198.406 240.059L173.21 242.651H173.021ZM189.286 170.207C181.608 170.207 172.626 171.787 165.739 176.164C162.715 178.002 160.149 180.502 158.233 183.476C156.317 186.45 155.101 189.819 154.678 193.331C151.14 218.961 164.073 235.973 173.193 240.831L197.513 238.411L214.052 188.524C213.76 186.808 211.27 174.791 201.257 171.752C197.361 170.669 193.329 170.149 189.286 170.207Z" fill="#231F20"/>
<path d="M198.389 194.121L200.604 207.322C200.604 207.322 195.641 197.279 190.746 205.897C185.851 214.515 199.917 225.81 199.917 225.81L196.98 238.033L171.012 240.625L167.577 266.375C167.577 266.375 206.117 271.988 205.482 271.01C205.259 270.684 208.093 245.586 208.093 245.586C208.093 245.586 215.134 248.419 219.05 237.226C222.966 226.033 215.048 188.524 215.048 188.524L198.389 194.121Z" fill="white"/>
<path d="M204.589 271.971C201.738 271.971 193.339 271.061 167.405 267.285C167.183 267.251 166.983 267.131 166.848 266.951C166.713 266.772 166.654 266.546 166.684 266.323L170.119 240.573C170.141 240.383 170.229 240.205 170.366 240.071C170.504 239.937 170.683 239.854 170.874 239.835L196.242 237.312L198.921 226.205C196.499 224.162 185.181 213.914 189.938 205.605C191.45 202.944 193.253 201.639 195.091 201.691C195.863 201.77 196.611 202.002 197.293 202.373C197.974 202.745 198.574 203.248 199.058 203.854L197.478 194.412C197.443 194.211 197.48 194.003 197.584 193.827C197.688 193.651 197.851 193.517 198.045 193.451L214.653 187.923C214.763 187.869 214.883 187.841 215.005 187.841C215.128 187.841 215.248 187.869 215.357 187.923C215.461 187.984 215.552 188.066 215.623 188.164C215.694 188.261 215.744 188.372 215.77 188.49C216.096 190.018 223.687 226.256 219.737 237.638C218.209 242.033 215.993 244.917 213.193 246.221C211.793 246.864 210.231 247.073 208.711 246.822C207.646 256.281 206.186 269.808 206.203 271.044C206.242 271.264 206.199 271.49 206.083 271.679C206.1 271.765 205.911 271.971 204.589 271.971ZM168.521 265.723C181.317 267.577 200.862 270.237 204.589 270.34C204.589 268.298 205.224 262.564 207.148 245.552C207.166 245.422 207.212 245.298 207.283 245.188C207.354 245.079 207.449 244.986 207.56 244.917C207.677 244.858 207.807 244.827 207.938 244.827C208.069 244.827 208.198 244.858 208.316 244.917C209.712 245.36 211.224 245.249 212.541 244.608C214.894 243.526 216.783 240.985 218.157 237.071C221.592 227.201 215.495 195.648 214.31 189.777L199.316 194.773L201.429 207.253C201.458 207.454 201.415 207.66 201.307 207.832C201.2 208.005 201.034 208.133 200.84 208.195C200.646 208.257 200.436 208.248 200.249 208.17C200.061 208.092 199.907 207.949 199.814 207.768C199.213 206.549 197.186 203.39 195.074 203.339C193.837 203.339 192.618 204.317 191.45 206.395C186.967 214.274 200.295 225.106 200.432 225.278C200.561 225.38 200.657 225.517 200.709 225.672C200.761 225.828 200.766 225.995 200.724 226.153L197.787 238.376C197.743 238.549 197.647 238.704 197.512 238.82C197.377 238.937 197.209 239.01 197.032 239.028L171.75 241.415L168.521 265.723Z" fill="#231F20"/>
<path d="M216.182 208.214C216.182 208.214 226.04 221.038 224.563 222.978C223.086 224.918 218.002 224.986 218.002 224.986" fill="white"/>
<path d="M218.002 225.844C217.778 225.845 217.562 225.756 217.401 225.599C217.241 225.442 217.148 225.228 217.144 225.003C217.148 224.778 217.237 224.563 217.393 224.401C217.549 224.238 217.76 224.141 217.985 224.128C219.703 224.128 222.983 223.613 223.876 222.411C224.203 221.209 219.823 214.326 215.495 208.678C215.363 208.494 215.306 208.266 215.339 208.042C215.371 207.818 215.488 207.615 215.667 207.476C215.85 207.346 216.075 207.29 216.298 207.318C216.521 207.347 216.725 207.458 216.869 207.631C221.54 213.725 226.796 221.364 225.233 223.441C223.67 225.518 218.586 225.793 218.02 225.793L218.002 225.844Z" fill="#231F20"/>
<path d="M210.641 207.069C211.331 206.897 211.49 205.147 210.996 203.16C210.502 201.172 209.541 199.7 208.851 199.872C208.161 200.043 208.002 201.794 208.496 203.781C208.99 205.768 209.95 207.24 210.641 207.069Z" fill="#231F20"/>
<path d="M216.629 237.792C216.363 237.797 216.097 237.768 215.839 237.707C213.211 237.071 213.159 231.561 213.211 229.896C213.213 229.768 213.246 229.642 213.306 229.529C213.365 229.416 213.45 229.318 213.554 229.243C213.653 229.161 213.77 229.104 213.896 229.077C214.022 229.05 214.152 229.054 214.276 229.089L220.15 230.497C220.371 230.553 220.562 230.695 220.681 230.891C220.8 231.086 220.837 231.321 220.785 231.544C220.759 231.655 220.711 231.759 220.644 231.852C220.577 231.944 220.492 232.022 220.394 232.081C220.297 232.14 220.189 232.179 220.076 232.196C219.963 232.213 219.848 232.207 219.737 232.179L214.928 231.012C214.928 233.432 215.512 235.853 216.251 236.041C216.432 236.091 216.622 236.103 216.808 236.076C216.994 236.05 217.173 235.985 217.333 235.887C218.045 235.269 218.539 234.439 218.741 233.518C218.766 233.407 218.812 233.302 218.877 233.21C218.942 233.117 219.025 233.038 219.12 232.977C219.216 232.916 219.323 232.875 219.435 232.856C219.547 232.837 219.661 232.84 219.772 232.866C219.99 232.922 220.178 233.061 220.296 233.253C220.415 233.445 220.454 233.675 220.407 233.896C220.116 235.26 219.349 236.477 218.243 237.329C217.761 237.635 217.2 237.796 216.629 237.792Z" fill="#231F20"/>
<path d="M261.558 362.32C261.558 362.32 271.142 370.525 278.441 366.646C285.741 362.766 287.784 358.663 287.784 358.663C287.784 358.663 290.292 369.392 293.04 366.422C293.409 366.038 293.697 365.583 293.886 365.084C294.074 364.586 294.16 364.054 294.137 363.521C294.115 362.989 293.985 362.466 293.755 361.985C293.525 361.505 293.2 361.075 292.8 360.723C292.8 360.723 297.815 368.706 298.278 364.362C298.742 360.019 295.307 355.47 295.307 355.47C295.307 355.47 310.146 366.422 309.459 359.813C308.772 353.204 295.719 344.758 285.964 344.758C276.208 344.758 257.9 350.011 257.9 350.011" fill="white"/>
<path d="M274.061 368.551C267.604 368.551 261.318 363.247 260.991 362.972C260.821 362.82 260.717 362.608 260.7 362.38C260.684 362.152 260.758 361.927 260.905 361.753C260.984 361.673 261.077 361.61 261.181 361.566C261.284 361.523 261.395 361.501 261.507 361.501C261.619 361.501 261.729 361.523 261.833 361.566C261.936 361.61 262.029 361.673 262.108 361.753C262.211 361.753 271.331 369.53 278.029 365.976C284.727 362.423 286.994 358.406 287.011 358.371C287.094 358.215 287.221 358.087 287.377 358.004C287.534 357.921 287.712 357.888 287.887 357.908C288.063 357.925 288.23 357.998 288.362 358.115C288.495 358.232 288.587 358.388 288.626 358.56C289.433 361.994 290.979 365.89 292.061 366.165C292.061 366.165 292.284 366.165 292.456 365.925C292.865 365.547 293.154 365.058 293.289 364.518C293.423 363.979 293.396 363.411 293.212 362.886C292.817 362.32 292.439 361.753 292.13 361.17C292.026 360.994 291.989 360.787 292.024 360.586C292.059 360.385 292.165 360.204 292.322 360.073C292.479 359.943 292.677 359.873 292.881 359.876C293.085 359.879 293.281 359.954 293.435 360.088C293.99 360.609 294.428 361.241 294.723 361.942C295.429 363.037 296.331 363.991 297.385 364.757C297.408 364.598 297.408 364.436 297.385 364.277C297.797 360.346 294.62 356.037 294.586 355.985C294.46 355.821 294.4 355.617 294.416 355.411C294.432 355.205 294.523 355.012 294.671 354.869C294.818 354.727 295.01 354.641 295.214 354.625C295.418 354.609 295.621 354.665 295.788 354.784C300.683 358.406 306.866 361.805 308.326 360.964C308.6 360.809 308.618 360.294 308.566 359.899C307.913 353.633 295.221 345.617 285.929 345.617C276.346 345.617 258.295 350.767 258.106 350.767C257.885 350.825 257.65 350.795 257.451 350.683C257.252 350.57 257.105 350.385 257.041 350.166C256.982 349.949 257.011 349.719 257.12 349.523C257.229 349.328 257.41 349.182 257.625 349.119C258.381 348.895 276.105 343.831 285.929 343.831C296.114 343.831 309.545 352.552 310.266 359.659C310.391 360.17 310.354 360.707 310.16 361.196C309.966 361.685 309.625 362.101 309.184 362.388C306.917 363.676 301.593 360.672 297.9 358.286C298.816 360.187 299.23 362.291 299.103 364.397C298.982 365.547 298.519 366.234 297.763 366.405C297.007 366.577 295.857 365.89 294.86 364.86C294.612 365.638 294.189 366.348 293.624 366.938C293.382 367.248 293.056 367.482 292.683 367.61C292.311 367.738 291.91 367.755 291.528 367.659C289.588 367.144 288.093 363.247 287.389 360.637C285.005 363.422 282.084 365.699 278.802 367.332C277.347 368.126 275.718 368.545 274.061 368.551Z" fill="#231F20"/>
<path d="M203.473 429.166C203.473 429.166 203.473 396.309 205.482 360.054C207.491 323.798 221.18 309.275 209.552 273.705C197.925 238.136 164.279 242.599 147.585 256.436C113.63 284.572 82.3201 370.491 100.062 431.381C100.062 431.295 138.86 447.706 203.473 429.166Z" fill="#EB7100"/>
<path d="M168.315 282.975C168.315 284.795 149.611 373.255 161.926 381.46C174.24 389.666 264.563 370.989 264.563 370.989L263.653 346.354L210.273 340.432C210.273 340.432 225.336 273.482 198.886 255.646C172.437 237.81 168.315 282.975 168.315 282.975Z" fill="#EB7100"/>
<path d="M176.336 386.576C166.495 386.576 156.791 384.413 152.892 376.843C144.184 359.882 167.783 270.152 168.796 266.341C168.824 266.228 168.874 266.122 168.944 266.029C169.013 265.935 169.1 265.856 169.199 265.797C169.299 265.737 169.41 265.697 169.525 265.68C169.64 265.663 169.757 265.669 169.87 265.697C169.982 265.725 170.088 265.775 170.182 265.844C170.275 265.914 170.354 266 170.414 266.1C170.474 266.2 170.513 266.31 170.53 266.425C170.547 266.54 170.542 266.657 170.514 266.77C170.256 267.697 146.056 359.676 154.472 376.053C162.716 392.121 201.892 381.203 202.287 381.1C202.515 381.036 202.759 381.065 202.965 381.181C203.171 381.297 203.323 381.49 203.387 381.718C203.45 381.945 203.421 382.189 203.305 382.395C203.189 382.601 202.996 382.753 202.768 382.817C194.145 385.146 185.267 386.409 176.336 386.576Z" fill="#231F20"/>
<path d="M210.222 341.29C207.972 341.204 196.74 340.604 195.726 336.535C194.799 332.827 206.976 297.052 209.466 289.996C209.539 289.78 209.695 289.602 209.899 289.5C210.104 289.399 210.34 289.383 210.557 289.456C210.773 289.528 210.952 289.684 211.053 289.889C211.155 290.093 211.171 290.329 211.098 290.546C205.482 306.854 196.808 333.634 197.358 336.123C197.873 338.2 205.207 339.385 210.239 339.556C210.467 339.556 210.685 339.647 210.846 339.808C211.007 339.969 211.098 340.187 211.098 340.415C211.098 340.642 211.007 340.861 210.846 341.022C210.685 341.183 210.467 341.273 210.239 341.273L210.222 341.29Z" fill="#231F20"/>
<path d="M89.0694 289.155C101.848 289.687 117.494 290.426 129.121 290.992C133.746 291.215 138.135 293.095 141.484 296.289C144.834 299.483 146.921 303.776 147.361 308.382L156.962 407.176H203.472V446.162L85.1535 442.625L69.1464 310.717C68.8134 307.946 69.0864 305.136 69.9463 302.48C70.8063 299.825 72.2328 297.388 74.1272 295.338C76.0216 293.288 78.3388 291.673 80.9186 290.606C83.4985 289.538 86.2794 289.043 89.0694 289.155Z" fill="#231F20"/>
<path d="M203.472 447.02L85.1537 443.466C84.9503 443.464 84.7546 443.387 84.603 443.252C84.4515 443.116 84.3542 442.93 84.3293 442.728L68.3222 310.854C67.9855 307.967 68.2778 305.042 69.1792 302.279C70.0806 299.516 71.5697 296.981 73.5441 294.847C75.5186 292.714 77.9316 291.033 80.6175 289.92C83.3034 288.807 86.1985 288.289 89.104 288.4C102.088 288.932 118.061 289.687 129.156 290.219C133.979 290.477 138.55 292.449 142.046 295.78C145.542 299.11 147.732 303.58 148.22 308.382L157.735 406.403H203.472C203.584 406.403 203.695 406.426 203.798 406.469C203.902 406.512 203.995 406.576 204.074 406.656C204.152 406.736 204.214 406.831 204.255 406.935C204.296 407.039 204.316 407.15 204.314 407.262V446.161C204.317 446.277 204.295 446.391 204.251 446.498C204.206 446.604 204.14 446.7 204.056 446.779C203.9 446.932 203.691 447.018 203.472 447.02ZM85.9094 441.87L202.614 445.303V408.051H156.962C156.752 408.048 156.55 407.968 156.394 407.825C156.239 407.683 156.142 407.489 156.121 407.279L146.52 308.485C146.083 304.086 144.085 299.988 140.888 296.934C137.69 293.879 133.504 292.07 129.087 291.833C117.975 291.284 102.02 290.528 89.0353 289.996C86.3688 289.888 83.7105 290.359 81.2443 291.379C78.7781 292.398 76.5627 293.94 74.7514 295.899C72.9402 297.858 71.5762 300.187 70.7537 302.724C69.9313 305.262 69.6701 307.948 69.9882 310.596L85.9094 441.87Z" fill="#231F20"/>
<path d="M497.732 262.822C479.595 269.259 420.444 363.024 430.749 379.744C441.054 396.464 484.335 386.834 484.335 386.834L483.528 416.996L595.165 415.159C595.165 415.159 620.292 304.811 603.753 276.83C587.145 249.174 515.851 256.367 497.732 262.822Z" fill="#EB7100"/>
<path d="M598.463 289.138C585.427 289.67 569.266 290.426 557.363 291.009C552.863 291.228 548.591 293.059 545.33 296.167C542.069 299.275 540.036 303.453 539.604 307.936L529.969 407.176H483.459V446.162L601.778 442.625L617.854 310.15C618.182 307.451 617.919 304.713 617.084 302.126C616.249 299.538 614.861 297.163 613.017 295.165C611.173 293.166 608.916 291.592 606.403 290.552C603.89 289.511 601.181 289.029 598.463 289.138Z" fill="#231F20"/>
<path d="M483.459 447.02C483.241 447.018 483.031 446.932 482.875 446.779C482.791 446.7 482.725 446.604 482.681 446.498C482.636 446.391 482.615 446.277 482.618 446.161V407.176C482.615 407.064 482.635 406.953 482.677 406.849C482.718 406.745 482.78 406.65 482.858 406.57C482.936 406.49 483.03 406.427 483.133 406.383C483.236 406.34 483.347 406.318 483.459 406.318H529.196L538.746 307.867C539.217 303.18 541.349 298.815 544.757 295.561C548.164 292.306 552.623 290.375 557.329 290.116C568.836 289.567 585.307 288.777 598.429 288.245C601.271 288.133 604.103 288.639 606.73 289.727C609.358 290.816 611.717 292.462 613.646 294.551C615.575 296.641 617.026 299.124 617.901 301.829C618.776 304.534 619.053 307.396 618.712 310.219L602.637 442.694C602.612 442.896 602.514 443.082 602.363 443.217C602.211 443.353 602.016 443.429 601.812 443.432L483.494 446.985L483.459 447.02ZM484.318 408.034V445.286L601.022 441.853L617.012 310.116C617.328 307.539 617.08 304.924 616.283 302.452C615.487 299.981 614.162 297.713 612.4 295.805C610.638 293.897 608.482 292.395 606.081 291.404C603.681 290.413 601.093 289.956 598.497 290.065C585.393 290.597 568.922 291.37 557.415 291.936C553.125 292.167 549.058 293.921 545.947 296.883C542.837 299.844 540.886 303.819 540.446 308.09L530.811 407.33C530.79 407.54 530.692 407.735 530.537 407.877C530.382 408.019 530.18 408.1 529.969 408.103L484.318 408.034Z" fill="#231F20"/>
<path d="M484.335 387.692C484.222 387.679 484.112 387.644 484.013 387.589C483.913 387.533 483.826 387.459 483.756 387.369C483.685 387.28 483.633 387.177 483.603 387.068C483.573 386.958 483.565 386.843 483.579 386.731C484.283 380.516 491.72 311.747 491.789 311.06C491.814 310.832 491.928 310.624 492.107 310.481C492.286 310.337 492.514 310.271 492.742 310.296C492.97 310.321 493.178 310.435 493.321 310.614C493.465 310.793 493.531 311.021 493.506 311.249C493.42 311.935 486.001 380.705 485.279 386.937C485.249 387.16 485.134 387.363 484.958 387.503C484.783 387.644 484.559 387.712 484.335 387.692Z" fill="#231F20"/>
<path d="M515.525 218.875C515.179 217.305 515.239 215.673 515.699 214.132C516.159 212.591 517.003 211.193 518.153 210.068C518.76 209.407 519.581 208.982 520.471 208.867C520.998 208.866 521.516 208.998 521.978 209.25C522.44 209.502 522.831 209.866 523.116 210.309C523.673 211.199 524.046 212.191 524.215 213.227C524.897 216.039 524.991 218.961 524.49 221.81C523.979 224.698 522.472 227.316 520.231 229.209" fill="white"/>
<path d="M520.231 230.136C520.101 230.14 519.972 230.112 519.856 230.055C519.739 229.998 519.638 229.914 519.561 229.81C519.418 229.634 519.351 229.41 519.374 229.185C519.396 228.959 519.507 228.752 519.681 228.608C521.774 226.86 523.179 224.427 523.648 221.742C524.139 218.984 524.051 216.155 523.391 213.433C523.234 212.514 522.902 211.634 522.412 210.841C522.211 210.519 521.933 210.251 521.603 210.063C521.274 209.874 520.902 209.77 520.523 209.759C519.854 209.866 519.245 210.207 518.805 210.721C517.756 211.739 516.984 213.009 516.564 214.408C516.143 215.808 516.087 217.293 516.401 218.72C516.428 218.829 516.434 218.942 516.417 219.052C516.4 219.163 516.36 219.269 516.301 219.363C516.241 219.458 516.163 219.54 516.071 219.603C515.979 219.667 515.875 219.711 515.765 219.733C515.544 219.785 515.312 219.747 515.119 219.628C514.926 219.509 514.788 219.318 514.735 219.098C514.356 217.383 514.422 215.599 514.927 213.916C515.432 212.234 516.359 210.708 517.62 209.485C518.369 208.682 519.38 208.171 520.471 208.043C521.142 208.016 521.809 208.16 522.409 208.46C523.01 208.76 523.525 209.207 523.906 209.759C524.539 210.739 524.966 211.837 525.16 212.987C525.877 215.939 525.971 219.009 525.435 221.999C524.883 225.085 523.267 227.879 520.866 229.896C520.783 229.978 520.683 230.042 520.574 230.083C520.464 230.124 520.347 230.143 520.231 230.136Z" fill="#231F20"/>
<path d="M545.89 181.469C547.512 186.358 550.49 190.686 554.478 193.949C558.913 197.903 564.612 200.148 570.553 200.283C575.191 200.283 580.429 197.691 581.185 193.108C581.7 190.052 580.068 187.048 578.231 184.524C572.688 176.737 564.684 171.041 555.508 168.353C552.726 167.632 548.827 166.894 546.543 169.16C543.726 172.061 544.825 178.07 545.89 181.469Z" fill="#231F20"/>
<path d="M570.348 201.142C564.3 200.942 558.513 198.627 553.997 194.601C549.852 191.25 546.752 186.782 545.066 181.726C544.379 179.546 542.421 172.147 546.011 168.577C548.536 166.07 552.555 166.705 555.801 167.547C565.158 170.298 573.326 176.099 579.004 184.027C580.618 186.258 582.714 189.623 582.095 193.262C581.254 198.412 575.689 201.073 570.623 201.142H570.348ZM550.957 168.525C550.279 168.482 549.599 168.574 548.957 168.795C548.314 169.016 547.721 169.362 547.213 169.813C544.912 172.113 545.496 177.211 546.698 181.228C548.306 185.946 551.218 190.113 555.096 193.245C559.363 197.049 564.839 199.22 570.554 199.374C574.796 199.374 579.674 197.039 580.361 192.919C580.739 190.653 579.863 188.129 577.561 184.988C572.118 177.379 564.291 171.803 555.32 169.143C553.897 168.755 552.432 168.542 550.957 168.508V168.525Z" fill="#231F20"/>
<path d="M594.856 186.417C601.287 175.283 596.345 160.397 583.817 153.168C571.29 145.938 555.921 149.104 549.49 160.237C543.059 171.371 548.001 186.257 560.528 193.486C573.056 200.715 588.424 197.55 594.856 186.417Z" fill="white"/>
<path d="M574.693 198.241C569.561 198.207 564.527 196.828 560.094 194.241C553.988 190.794 549.356 185.23 547.076 178.602C546.007 175.53 545.608 172.265 545.904 169.026C546.2 165.787 547.185 162.649 548.793 159.822C555.457 148.303 571.378 144.99 584.294 152.44C597.21 159.89 602.293 175.323 595.647 186.773C593.992 189.576 591.757 191.993 589.091 193.861C586.425 195.73 583.389 197.006 580.189 197.605C578.383 198.001 576.542 198.214 574.693 198.241ZM569.626 150.174C565.75 150.06 561.912 150.973 558.504 152.821C555.095 154.669 552.236 157.387 550.219 160.697C548.737 163.319 547.835 166.228 547.574 169.228C547.313 172.228 547.7 175.249 548.707 178.087C550.91 184.283 555.248 189.491 560.945 192.779C566.642 196.066 573.325 197.218 579.794 196.026C582.755 195.475 585.564 194.296 588.031 192.57C590.499 190.844 592.569 188.61 594.101 186.018C600.301 175.306 595.492 160.903 583.384 153.933C579.211 151.486 574.465 150.183 569.626 150.157V150.174Z" fill="#231F20"/>
<path d="M443.974 434.574H368.627C368.399 434.574 368.181 434.484 368.02 434.323C367.859 434.162 367.768 433.943 367.768 433.716V390.095C367.768 389.868 367.859 389.649 368.02 389.488C368.181 389.327 368.399 389.237 368.627 389.237H443.974C444.201 389.237 444.42 389.327 444.581 389.488C444.742 389.649 444.832 389.868 444.832 390.095V433.716C444.832 433.943 444.742 434.162 444.581 434.323C444.42 434.484 444.201 434.574 443.974 434.574ZM369.486 432.857H443.115V390.954H369.486V432.857Z" fill="#D1D3D4"/>
<path d="M443.974 442.299H368.627C368.399 442.299 368.181 442.209 368.02 442.048C367.859 441.887 367.768 441.668 367.768 441.441V433.716C367.768 433.488 367.859 433.27 368.02 433.109C368.181 432.948 368.399 432.857 368.627 432.857H443.974C444.201 432.857 444.42 432.948 444.581 433.109C444.742 433.27 444.832 433.488 444.832 433.716V441.441C444.832 441.668 444.742 441.887 444.581 442.048C444.42 442.209 444.201 442.299 443.974 442.299ZM369.486 440.582H443.115V434.574H369.486V440.582Z" fill="#D1D3D4"/>
<path d="M390.456 425.733H377.85C377.622 425.733 377.404 425.643 377.243 425.482C377.082 425.321 376.991 425.103 376.991 424.875V397.511C376.991 397.284 377.082 397.065 377.243 396.904C377.404 396.743 377.622 396.653 377.85 396.653H390.474C390.701 396.653 390.92 396.743 391.081 396.904C391.242 397.065 391.332 397.284 391.332 397.511V424.892C391.33 425.005 391.306 425.116 391.26 425.219C391.215 425.322 391.15 425.416 391.069 425.494C390.987 425.572 390.891 425.633 390.786 425.674C390.681 425.716 390.569 425.735 390.456 425.733ZM378.692 424.017H389.598V398.37H378.692V424.017Z" fill="#D1D3D4"/>
<path d="M400.452 368.551H372.697C372.471 368.547 372.255 368.455 372.095 368.295C371.935 368.135 371.843 367.919 371.839 367.693V348.998C371.839 348.77 371.929 348.552 372.09 348.391C372.251 348.23 372.47 348.14 372.697 348.14H400.435C400.663 348.14 400.881 348.23 401.042 348.391C401.203 348.552 401.294 348.77 401.294 348.998V367.693C401.29 367.916 401.2 368.129 401.044 368.289C400.887 368.448 400.676 368.542 400.452 368.551ZM373.573 366.834H399.594V349.856H373.573V366.834Z" fill="#D1D3D4"/>
</svg>
