<svg width="143" height="35" viewBox="0 0 143 35" fill="none" xmlns="http://www.w3.org/2000/svg">
<path fill-rule="evenodd" clip-rule="evenodd" d="M30.3926 0H4.60931C2.06014 0 0.000976562 2.06063 0.000976562 4.59667V30.3931C0.000976562 32.9408 2.07181 35 4.60931 35H30.3926C32.9403 35 35.001 32.9306 35.001 30.3931V4.60833C35.001 2.06063 32.9301 0 30.3926 0ZM21.1483 6.61332V7.81353C21.1483 7.95207 21.0214 8.04686 20.8931 8.01478C19.9262 7.74936 18.9258 7.61228 17.9151 7.61228C16.8722 7.61123 15.8343 7.75754 14.8322 8.04686C14.6937 8.07894 14.5668 7.98269 14.5668 7.84561V6.61332C14.5671 6.21053 14.7274 5.82435 15.0123 5.53967C15.2973 5.25499 15.6836 5.09512 16.0864 5.09519H19.6287C20.0315 5.09512 20.4178 5.25499 20.7028 5.53967C20.9877 5.82435 21.148 6.21053 21.1483 6.61332ZM10.8349 8.77894L11.4401 9.38415C11.5247 9.4804 11.5142 9.62915 11.4081 9.69332C10.92 10.0441 10.4615 10.4343 10.0372 10.86C9.61649 11.2826 9.22889 11.737 8.87784 12.2192C8.79326 12.3139 8.65472 12.3358 8.55847 12.241L7.96347 11.646C7.82206 11.5055 7.70984 11.3384 7.63327 11.1543C7.55669 10.9702 7.51727 10.7728 7.51727 10.5734C7.51727 10.3741 7.55669 10.1766 7.63327 9.99257C7.70984 9.80849 7.82206 9.64137 7.96347 9.50082L8.6868 8.77894C8.82782 8.63783 8.99525 8.52589 9.17955 8.44952C9.36384 8.37314 9.56137 8.33383 9.76087 8.33383C9.96036 8.33383 10.1579 8.37314 10.3422 8.44952C10.5265 8.52589 10.6939 8.63783 10.8349 8.77894ZM17.9046 18.3864V13.1948C17.9046 13.0781 18.0111 12.9935 18.1176 12.9935C20.1694 13.0679 21.9457 14.2142 22.9023 15.8927C22.9548 15.9977 22.9228 16.126 22.8178 16.1785L18.2021 18.5673C18.0651 18.6417 17.9046 18.5352 17.9046 18.3864ZM10.9294 18.7364C10.9294 22.5792 14.0561 25.7014 17.9046 25.7014C21.7651 25.7014 24.8801 22.5792 24.8801 18.7364C24.8801 14.8937 21.7546 11.7729 17.9046 11.7729C14.0561 11.7729 10.9294 14.8937 10.9294 18.7364ZM8.00547 18.7364C8.00547 13.2706 12.4388 8.84311 17.9046 8.84311C23.3807 8.84311 27.8038 13.2589 27.8038 18.7262C27.8038 24.1935 23.3705 28.621 17.9046 28.621C12.4388 28.621 8.00547 24.2037 8.00547 18.7364Z" fill="white"/>
<path d="M70.6467 27.7614C63.8319 27.7932 63.8319 22.2617 63.8319 21.3809L63.8203 0.659411L67.9777 0.000244141V20.5948C67.9777 21.095 67.9777 24.2582 70.6464 24.2684V27.7611L70.6467 27.7614ZM53.7942 24.3748C55.07 24.3748 56.0167 24.3005 56.6759 24.1736V19.9488C56.3468 19.8613 56.0127 19.7936 55.6755 19.7461C55.1969 19.6751 54.7138 19.6395 54.23 19.6396C53.772 19.6396 53.3039 19.6717 52.8373 19.7461C52.3691 19.8102 51.9433 19.9371 51.5714 20.118C51.1995 20.2988 50.8904 20.554 50.6673 20.8821C50.4339 21.2117 50.3275 21.4027 50.3275 21.9015C50.3275 22.8771 50.6673 23.4415 51.2841 23.8119C51.901 24.1838 52.741 24.3748 53.7942 24.3748ZM53.4325 9.30004C54.8034 9.30004 55.9625 9.47066 56.8987 9.81045C57.8338 10.1502 58.5892 10.6271 59.1416 11.2323C59.706 11.8477 60.0881 12.6659 60.3217 13.5365C60.5667 14.4071 60.6834 15.3623 60.6834 16.4123V27.0932C60.0461 27.2302 59.0775 27.3892 57.7813 27.5802C56.4845 27.7713 55.028 27.8675 53.4104 27.8675C52.337 27.8675 51.3483 27.7611 50.466 27.5598C49.572 27.3586 48.8181 27.029 48.1793 26.5725C47.5523 26.1161 47.0637 25.5313 46.702 24.8109C46.3506 24.0875 46.1698 23.0696 46.1698 22.008C46.1698 20.9886 46.371 20.3411 46.7662 19.6396C47.1687 18.9396 47.7112 18.3665 48.3923 17.9202C49.0835 17.474 49.8695 17.1561 50.7737 16.965C51.6779 16.774 52.6243 16.6777 53.6014 16.6777C54.0593 16.6777 54.5377 16.7098 55.0481 16.7623C55.5483 16.8163 56.0908 16.9125 56.6654 17.0496V16.37C56.6654 15.8932 56.6114 15.4367 56.4948 15.0123C56.3826 14.5941 56.1789 14.2061 55.8983 13.8763C55.611 13.5467 55.2406 13.2915 54.7725 13.1121C54.3043 12.9313 53.7079 12.7927 52.9962 12.7927C52.0395 12.7927 51.1675 12.9094 50.3698 13.048C49.572 13.185 48.9129 13.3455 48.4127 13.5248L47.9139 10.1182C48.4345 9.93733 49.2104 9.75649 50.2108 9.57712C51.2098 9.38462 52.2845 9.30004 53.4323 9.30004H53.4325ZM135.54 24.2582C136.816 24.2582 137.761 24.1838 138.42 24.0555V19.8321C138.187 19.768 137.857 19.6936 137.421 19.6294C136.942 19.5585 136.458 19.5229 135.974 19.523C135.518 19.523 135.05 19.555 134.581 19.6294C134.115 19.6936 133.689 19.8205 133.317 20.0013C132.944 20.1821 132.636 20.4373 132.413 20.7655C132.178 21.095 132.073 21.2861 132.073 21.7848C132.073 22.7605 132.413 23.3248 133.03 23.6952C133.657 24.0773 134.487 24.2582 135.54 24.2582ZM135.188 9.19504C136.559 9.19504 137.718 9.3642 138.654 9.70399C139.589 10.0438 140.345 10.5207 140.897 11.1259C141.45 11.7311 141.844 12.5594 142.077 13.43C142.322 14.3007 142.439 15.2559 142.439 16.3073V26.9867C141.801 27.1238 140.833 27.2827 139.537 27.4752C138.24 27.6663 136.783 27.7611 135.166 27.7611C134.093 27.7611 133.104 27.6546 132.222 27.4534C131.328 27.2521 130.574 26.9225 129.935 26.4661C129.308 26.0096 128.82 25.4248 128.458 24.7044C128.106 23.9825 127.926 22.9632 127.926 21.9015C127.926 20.8821 128.128 20.2346 128.522 19.5332C128.925 18.8332 129.467 18.26 130.148 17.8138C130.839 17.369 131.625 17.0496 132.53 16.8586C133.434 16.6675 134.38 16.5727 135.359 16.5727C135.815 16.5727 136.294 16.6048 136.804 16.6573C137.314 16.7098 137.847 16.8061 138.42 16.9446V16.265C138.42 15.7867 138.367 15.3302 138.251 14.9059C138.139 14.4875 137.935 14.0994 137.654 13.7698C137.367 13.4402 136.996 13.185 136.528 13.0057C136.06 12.8248 135.464 12.6877 134.752 12.6877C133.795 12.6877 132.923 12.8044 132.126 12.9415C131.328 13.08 130.669 13.239 130.169 13.4198L129.67 10.0117C130.19 9.83087 130.966 9.65149 131.967 9.47066C132.966 9.28983 134.039 9.19504 135.188 9.19504ZM122.705 7.22045C124.097 7.22045 125.237 6.09462 125.237 4.70337C125.237 3.31358 124.109 2.18774 122.705 2.18774C121.302 2.18774 120.175 3.31358 120.175 4.70337C120.175 6.09462 121.312 7.22045 122.705 7.22045ZM124.799 27.7611H120.621V9.84108L124.799 9.18337V27.7611H124.799ZM117.473 27.7611C110.659 27.7932 110.659 22.2617 110.659 21.3809L110.647 0.659411L114.805 0.000244141V20.5948C114.805 21.095 114.805 24.2582 117.473 24.2684V27.7611ZM103.959 18.5896C103.959 16.7944 103.565 15.2982 102.8 14.2584C102.034 13.2069 100.961 12.6877 99.5888 12.6877C98.218 12.6877 97.1429 13.2069 96.3787 14.2584C95.6131 15.3084 95.24 16.7944 95.24 18.5896C95.24 20.4052 95.6236 21.6244 96.3892 22.6759C97.1548 23.7375 98.2282 24.2582 99.6005 24.2582C100.971 24.2582 102.046 23.7273 102.812 22.6759C103.577 21.6142 103.959 20.4052 103.959 18.5896ZM108.212 18.5794C108.212 19.9809 108.01 21.0411 107.595 22.199C107.181 23.3555 106.596 24.3427 105.842 25.1609C105.087 25.9775 104.183 26.6148 103.119 27.0611C102.056 27.5059 100.418 27.7611 99.6002 27.7611C98.7806 27.7509 97.1545 27.5175 96.1016 27.0611C95.0487 26.6046 94.1445 25.9775 93.3906 25.1609C92.6352 24.3427 92.0507 23.3555 91.6248 22.199C91.2002 21.0411 90.9875 19.9809 90.9875 18.5794C90.9875 17.178 91.1783 15.829 91.6041 14.6827C92.03 13.5365 92.625 12.5594 93.3906 11.7427C94.1562 10.9246 95.0706 10.2975 96.1118 9.85274C97.1647 9.40649 98.3241 9.19504 99.5783 9.19504C100.834 9.19504 101.992 9.4167 103.055 9.85274C104.12 10.2975 105.034 10.9246 105.778 11.7427C106.532 12.5594 107.117 13.5365 107.543 14.6827C107.989 15.829 108.212 17.178 108.212 18.5794H108.212ZM76.9205 18.5794C76.9205 20.3192 77.3025 22.2515 78.0682 23.058C78.8338 23.8659 79.8223 24.2684 81.0359 24.2684C81.695 24.2684 82.3221 24.1736 82.9066 23.9927C83.4914 23.8119 83.9584 23.599 84.3317 23.3452V13.0377C84.0342 12.9736 82.79 12.7184 81.5871 12.6877C80.0778 12.644 78.93 13.2609 78.1221 14.2467C77.3241 15.2355 76.9205 16.965 76.9205 18.5794ZM88.4777 26.7738C88.4777 29.6088 87.7544 31.6782 86.2972 32.995C84.8418 34.3105 82.6193 34.9696 79.621 34.9696C78.5258 34.9696 76.2508 34.7567 74.4323 34.3542L75.1016 31.0627C76.6227 31.3807 78.6323 31.4667 79.6852 31.4667C81.3535 31.4667 82.545 31.1269 83.2566 30.4473C83.9697 29.7677 84.3197 28.76 84.3197 27.4213V26.7417C83.9056 26.943 83.3631 27.1457 82.6937 27.3586C82.0243 27.5598 81.2485 27.6663 80.375 27.6663C79.2273 27.6663 78.1845 27.4855 77.2395 27.1238C76.2931 26.7636 75.4735 26.2327 74.8041 25.5313C74.1348 24.8313 73.6025 23.9505 73.2306 22.899C72.8587 21.8475 72.6662 19.9692 72.6662 18.5896C72.6662 17.2946 72.8689 15.67 73.263 14.5865C73.6666 13.5044 74.24 12.5696 75.017 11.7952C75.783 11.0209 76.7189 10.4259 77.8141 9.98983C78.9093 9.55524 80.1941 9.27962 81.5868 9.27962C82.9387 9.27962 84.1827 9.44879 85.3945 9.65149C86.6064 9.85275 87.6375 10.0642 88.4775 10.2975V26.7738H88.4777Z" fill="white"/>
</svg>
