<svg width="90" height="41" viewBox="0 0 90 41" fill="none" xmlns="http://www.w3.org/2000/svg">
<rect width="90" height="41" fill="#097DE9"/>
<path d="M17.5439 27.8872V10.8247H23.5205C25.5908 10.8247 27.1611 11.2231 28.2314 12.02C29.3018 12.8091 29.8369 13.9692 29.8369 15.5005C29.8369 16.3364 29.6221 17.0747 29.1924 17.7153C28.7627 18.3481 28.165 18.813 27.3994 19.1099C28.2744 19.3286 28.9619 19.77 29.4619 20.4341C29.9697 21.0981 30.2236 21.9106 30.2236 22.8716C30.2236 24.5122 29.7002 25.7544 28.6533 26.5981C27.6064 27.4419 26.1143 27.8716 24.1768 27.8872H17.5439ZM21.0596 20.4575V25.063H24.0713C24.8994 25.063 25.5439 24.8677 26.0049 24.4771C26.4736 24.0786 26.708 23.5317 26.708 22.8364C26.708 21.2739 25.8994 20.481 24.2822 20.4575H21.0596ZM21.0596 17.9731H23.6611C25.4346 17.9419 26.3213 17.2349 26.3213 15.8521C26.3213 15.0786 26.0947 14.5239 25.6416 14.188C25.1963 13.8442 24.4893 13.6724 23.5205 13.6724H21.0596V17.9731ZM43.1377 20.4927H36.3877V25.063H44.3096V27.8872H32.8721V10.8247L44.2861 10.8247V13.6724H36.3877V17.7388H43.1377V20.4927ZM59.4502 13.6724H54.2236V27.8872H50.708V13.6724H45.5518V10.8247L59.4502 10.8247V13.6724ZM69.6924 24.3716H63.5283L62.3564 27.8872H58.6182L64.9697 10.8247H68.2275L74.6143 27.8872H70.876L69.6924 24.3716ZM64.4775 21.5239H68.7432L66.5986 15.1372L64.4775 21.5239Z" fill="white"/>
</svg>
