<svg width="40" height="40" viewBox="0 0 40 40" fill="none" xmlns="http://www.w3.org/2000/svg">
<path d="M25.7089 32.02C26.6931 33.0045 25.9961 34.6875 24.6039 34.6875H6.25C2.79816 34.6875 0 31.8893 0 28.4375V11.5625C0 11.0794 0.0552368 10.6088 0.159607 10.1572C0.434875 8.96393 1.92047 8.54401 2.78656 9.4101C3.16742 9.79095 3.32397 10.3406 3.20374 10.8655C3.15216 11.0898 3.125 11.3229 3.125 11.5625V13.6032H6.6449C7.05902 13.6032 7.45667 13.7677 7.74963 14.061C8.73383 15.0452 8.0368 16.7188 6.6449 16.7188H3.125V28.4375C3.125 30.1633 4.52423 31.5625 6.25 31.5625H24.6039C25.0183 31.5625 25.416 31.727 25.7089 32.02ZM36.875 20.6345V16.7282H18.938L33.7717 31.5619C35.4849 31.55 36.875 30.1532 36.875 28.4375C36.875 27.5745 37.5745 26.875 38.4375 26.875C39.3005 26.875 40 27.5745 40 28.4375C40 30.9619 38.4946 33.14 36.3351 34.1254L39.5422 37.3325C40.1526 37.9428 40.1526 38.9322 39.5422 39.5422C39.2374 39.8474 38.8376 40 38.4375 40C38.0377 40 37.6376 39.8474 37.3328 39.5422L0.457764 2.66724C-0.152588 2.05719 -0.152588 1.06781 0.457764 0.457764C1.06781 -0.152588 2.05719 -0.152588 2.66724 0.457764L7.52228 5.3125H33.75C37.1964 5.3125 40 8.11615 40 11.5625V20.6345C40 21.4975 39.3005 22.197 38.4375 22.197C37.5745 22.197 36.875 21.4975 36.875 20.6345ZM36.875 13.6032V11.5625C36.875 9.83917 35.473 8.4375 33.75 8.4375H10.6473L15.813 13.6032H36.875Z" fill="url(#paint0_linear)"/>
<defs>
<linearGradient id="paint0_linear" x1="1.05647" y1="1.05647" x2="38.9435" y2="38.9435" gradientUnits="userSpaceOnUse">
<stop stop-color="#F27979"/>
<stop offset="1" stop-color="#7D00A3"/>
</linearGradient>
</defs>
</svg>
