<svg width="40" height="40" viewBox="0 0 40 40" fill="none" xmlns="http://www.w3.org/2000/svg">
<g clip-path="url(#clip0)">
<path d="M12.1109 16.4323C11.5581 15.8293 10.6034 15.779 10.0003 16.3318C9.39735 16.8846 9.34705 17.8393 9.89982 18.4424L17.4878 26.6836C17.7893 26.9851 18.1411 27.1861 18.543 27.1861C18.543 27.1861 18.543 27.1861 18.5932 27.1861C18.9953 27.1861 19.3972 27.0353 19.6485 26.7338L38.8446 7.58807C39.4476 6.98509 39.4476 6.03027 38.8446 5.4775C38.2416 4.87452 37.2868 4.87452 36.734 5.4775L18.6436 23.5177L12.1109 16.4323Z" fill="url(#paint0_linear)"/>
<path d="M38.4925 18.4925C37.6382 18.4925 36.985 19.1458 36.985 20C36.985 29.3467 29.3469 36.9849 20.0001 36.9849C10.6533 36.9849 3.01509 29.3468 3.01509 20.0001C3.01509 10.6534 10.6533 3.01509 20.0001 3.01509C20.8544 3.01509 21.5076 2.3618 21.5076 1.50759C21.5076 0.653379 20.8543 0 20.0001 0C8.99496 0 0 8.99496 0 20.0001C0 31.0052 8.99496 40.0001 20.0001 40.0001C31.0052 40.0001 40.0001 31.0052 40.0001 20.0001C40 19.1458 39.3468 18.4925 38.4925 18.4925Z" fill="url(#paint1_linear)"/>
</g>
<defs>
<linearGradient id="paint0_linear" x1="10.3014" y1="5.61058" x2="30.4069" y2="32.6304" gradientUnits="userSpaceOnUse">
<stop stop-color="#F27979"/>
<stop offset="1" stop-color="#7D00A3"/>
</linearGradient>
<linearGradient id="paint1_linear" x1="1.05648" y1="1.05648" x2="38.9436" y2="38.9436" gradientUnits="userSpaceOnUse">
<stop stop-color="#F27979"/>
<stop offset="1" stop-color="#7D00A3"/>
</linearGradient>
<clipPath id="clip0">
<rect width="40" height="40" fill="white"/>
</clipPath>
</defs>
</svg>
