<svg width="210" height="149" viewBox="0 0 210 149" fill="none" xmlns="http://www.w3.org/2000/svg">
<path d="M209.628 125.108H0.371603C0.273047 125.108 0.178529 125.069 0.10884 124.999C0.0391506 124.929 0 124.835 0 124.736C0 124.638 0.0391506 124.543 0.10884 124.474C0.178529 124.404 0.273047 124.365 0.371603 124.365H209.628C209.727 124.365 209.821 124.404 209.891 124.474C209.961 124.543 210 124.638 210 124.736C210 124.835 209.961 124.929 209.891 124.999C209.821 125.069 209.727 125.108 209.628 125.108Z" fill="#D1D3D4"/>
<path d="M111.979 39.6395H118.155C123.071 39.6395 127.785 41.5924 131.261 45.0685C134.737 48.5445 136.69 53.2591 136.69 58.1751V78.5092H93.4505V58.1453C93.4584 53.2358 95.4137 48.53 98.8873 45.0606C102.361 41.5911 107.069 39.6415 111.979 39.6395Z" fill="#231F20"/>
<path d="M136.698 78.8138H93.4506C93.3619 78.8138 93.2768 78.7786 93.2141 78.7159C93.1514 78.6531 93.1161 78.5681 93.1161 78.4794V58.1453C93.122 53.1444 95.1112 48.3501 98.6474 44.814C102.183 41.2778 106.978 39.2886 111.979 39.2827H118.162C123.163 39.2886 127.957 41.2778 131.493 44.814C135.03 48.3501 137.019 53.1444 137.025 58.1453V78.4794C137.025 78.5668 136.991 78.6507 136.929 78.7133C136.868 78.7758 136.785 78.8119 136.698 78.8138ZM93.7776 78.1524H136.363V58.1453C136.359 53.3186 134.441 48.6906 131.028 45.2769C127.616 41.8632 122.989 39.9426 118.162 39.9367H111.979C107.152 39.9426 102.525 41.8632 99.1125 45.2769C95.7002 48.6906 93.7815 53.3186 93.7776 58.1453V78.1524Z" fill="#231F20"/>
<path d="M129.563 28.0381C129.692 30.5751 129.39 33.1156 128.671 35.5519C127.824 38.6214 128.077 42.1739 127.928 45.3474C127.909 46.7096 127.74 48.0655 127.423 49.3904C126.219 53.7753 121.886 56.7779 117.404 57.5657C115.061 57.9803 112.653 57.8443 110.371 57.1684C108.09 56.4925 105.996 55.2953 104.257 53.6713C102.555 52.0175 101.332 49.9339 100.718 47.6415C100.105 45.349 100.123 42.9332 100.771 40.6503C101.159 39.3098 101.877 38.0882 102.86 37.0978C103.945 36.0573 105.372 35.433 106.501 34.4371C109.229 32.0143 109.638 27.9935 111.005 24.6119C111.488 23.1951 112.386 21.9569 113.584 21.0594C115.009 20.2466 116.648 19.8887 118.281 20.0338C121.841 20.1156 126.181 21.3121 128.359 24.3593C129.078 25.4577 129.494 26.727 129.563 28.0381Z" fill="white"/>
<path d="M114.766 58.1008C110.783 58.1399 106.939 56.6411 104.034 53.9166C102.284 52.2181 101.029 50.0768 100.4 47.7209C99.7721 45.365 99.7949 42.8828 100.466 40.5389C100.861 39.1356 101.608 37.8566 102.636 36.8228C103.241 36.2681 103.895 35.7705 104.591 35.3364C105.185 34.9728 105.752 34.5654 106.286 34.1176C108.151 32.4602 108.887 30.0522 109.667 27.4956C109.979 26.47 110.299 25.4146 110.7 24.4113C111.203 22.9302 112.14 21.6351 113.391 20.6953C114.944 19.6548 116.928 19.5879 118.288 19.6102C119.998 19.6548 125.78 20.0933 128.634 24.0694C129.39 25.2177 129.829 26.5462 129.905 27.9192C130.03 30.4987 129.724 33.081 128.998 35.5594C128.484 37.8562 128.257 40.2077 128.322 42.5604C128.322 43.4671 128.322 44.3961 128.247 45.2805C128.221 46.6676 128.047 48.0479 127.727 49.3979C126.404 54.2138 121.603 57.09 117.434 57.7961C116.555 57.9752 115.662 58.0772 114.766 58.1008ZM117.82 20.3608C116.404 20.2806 114.995 20.6192 113.77 21.3344C112.629 22.2096 111.779 23.409 111.332 24.7755C110.938 25.7416 110.589 26.7896 110.314 27.8003C109.571 30.3272 108.746 32.9433 106.739 34.727C106.19 35.1848 105.609 35.6021 105 35.9756C104.338 36.3706 103.716 36.8286 103.142 37.3431C102.2 38.2936 101.515 39.4672 101.15 40.7544C100.524 42.9709 100.509 45.3155 101.107 47.5397C101.705 49.764 102.893 51.7851 104.546 53.3889C106.244 54.9682 108.284 56.1318 110.508 56.7883C112.731 57.4447 115.077 57.576 117.359 57.1718C121.313 56.4955 125.862 53.7902 127.11 49.2641C127.417 47.9602 127.584 46.6273 127.608 45.2879C127.653 44.4184 127.668 43.534 127.682 42.5975C127.616 40.1871 127.851 37.7779 128.381 35.4256C129.085 33.0269 129.383 30.5277 129.265 28.0307C129.201 26.7762 128.806 25.561 128.121 24.5079C125.995 21.5351 121.662 20.4054 118.311 20.3311L117.82 20.3608Z" fill="#231F20"/>
<path d="M131.562 112.741C132.692 100.025 132.268 84.4993 126.404 72.0878L101.633 75.0011C101.633 75.2018 97.0848 96.8737 93.733 112.741H131.562Z" fill="#231F20"/>
<path d="M106.539 75.0978L109.459 42.0995L124.844 42.7758L124.249 75.9673L106.539 75.0978Z" fill="white"/>
<path d="M124.249 76.3092L106.546 75.4396C106.454 75.4314 106.369 75.3889 106.308 75.3207C106.249 75.2505 106.219 75.1597 106.226 75.068L109.14 42.0623C109.142 42.0186 109.154 41.976 109.174 41.9369C109.193 41.8977 109.22 41.8629 109.254 41.8345C109.287 41.8061 109.325 41.7847 109.367 41.7714C109.409 41.7582 109.453 41.7535 109.496 41.7576L124.881 42.4413C124.924 42.4423 124.967 42.4519 125.007 42.4697C125.047 42.4875 125.083 42.5131 125.112 42.545C125.142 42.5768 125.165 42.6143 125.18 42.6552C125.196 42.6961 125.202 42.7396 125.2 42.7832L124.606 75.9747C124.605 76.067 124.567 76.1552 124.502 76.22C124.431 76.2789 124.341 76.3105 124.249 76.3092ZM106.91 74.7782L123.915 75.6106L124.494 43.1028L109.764 42.4488L106.91 74.7782Z" fill="#231F20"/>
<path d="M138.206 55.4252L128.931 58.4723L130.73 76.7998L120.28 78.2862L121.261 44.3366H112.529C112.529 44.6636 109.556 69.39 108.909 76.6809L99.0544 75.0904L103.157 57.9967L96.2153 53.1064C96.2153 53.1064 100.288 40.68 112.402 40.9327C123.55 41.1705 119.671 41.3192 119.448 41.334C119.671 41.334 128.285 41.0516 132.409 46.2095C134.738 49.0136 136.687 52.1121 138.206 55.4252Z" fill="#811E78"/>
<path d="M113.599 39.3051L112.789 44.7602C112.789 44.7602 112.841 47.9114 116.327 47.525C117.355 47.4026 118.343 47.0522 119.218 46.4993C120.094 45.9464 120.835 45.205 121.388 44.3292C121.388 44.3292 123.119 30.9515 123.231 29.9779C122.636 30.1563 120.957 30.5279 120.407 30.2009C119.857 29.8738 120.035 27.9712 120.057 27.4064C119.43 28.1119 118.95 28.9357 118.645 29.8293L116.364 29.5543C116.189 28.7035 116.189 27.8261 116.364 26.9753C115.762 27.6311 115.319 28.417 115.071 29.2718C114.431 29.1827 112.098 28.4395 111.637 28.9002C110.938 29.5766 109.749 34.8013 110.931 36.8823C112.113 38.9632 113.599 39.3051 113.599 39.3051Z" fill="white"/>
<path d="M115.754 47.904C114.945 47.9404 114.151 47.6756 113.525 47.1608C112.873 46.5369 112.489 45.6841 112.455 44.7825C112.455 44.738 113.057 40.6652 113.198 39.5801C112.086 39.0621 111.18 38.1852 110.626 37.0904C109.385 34.9054 110.574 29.5023 111.369 28.6996C111.823 28.2537 112.96 28.4841 114.394 28.8259L114.811 28.93C115.098 28.1178 115.554 27.3757 116.148 26.7524C116.197 26.6948 116.264 26.6553 116.338 26.6405C116.412 26.6257 116.489 26.6364 116.556 26.6709C116.623 26.7053 116.677 26.7615 116.708 26.8303C116.739 26.8991 116.746 26.9764 116.728 27.0497C116.577 27.7838 116.559 28.539 116.676 29.2793L118.437 29.4874C118.76 28.6498 119.231 27.877 119.827 27.2057C119.873 27.1528 119.934 27.1155 120.002 27.0991C120.07 27.0827 120.141 27.088 120.206 27.1142C120.271 27.1405 120.326 27.1863 120.363 27.2454C120.4 27.3045 120.418 27.3738 120.414 27.4436V27.7037C120.325 29.4948 120.496 29.8739 120.608 29.9333C120.972 30.1414 122.354 29.9333 123.164 29.6732C123.218 29.6574 123.274 29.6553 123.329 29.667C123.383 29.6787 123.434 29.7038 123.476 29.7401C123.52 29.7753 123.554 29.8211 123.575 29.8732C123.595 29.9252 123.603 29.9818 123.595 30.0374C123.491 31.0035 121.826 43.8535 121.759 44.3961C121.753 44.4406 121.737 44.4834 121.715 44.5224C121.138 45.447 120.359 46.2298 119.438 46.8126C118.517 47.3955 117.476 47.7634 116.394 47.8891C116.181 47.9056 115.968 47.9105 115.754 47.904ZM113.131 44.842C113.182 45.5342 113.483 46.1842 113.978 46.6703C114.302 46.9205 114.676 47.0989 115.075 47.1937C115.473 47.2885 115.887 47.2976 116.289 47.2203C117.253 47.1007 118.179 46.7728 119.003 46.2595C119.827 45.7461 120.529 45.0595 121.061 44.2474C121.187 43.2887 122.547 32.973 122.837 30.461C122.094 30.6319 120.816 30.8698 120.236 30.5204C119.768 30.2455 119.671 29.4279 119.679 28.4915C119.371 28.9546 119.121 29.4539 118.935 29.9779C118.91 30.0503 118.861 30.1119 118.796 30.1525C118.731 30.1931 118.655 30.2102 118.579 30.2009L116.297 29.9259C116.226 29.9189 116.159 29.889 116.107 29.8407C116.055 29.7924 116.02 29.7284 116.007 29.6583C115.91 29.194 115.865 28.7204 115.873 28.2462C115.666 28.6126 115.501 29.0016 115.383 29.4056C115.36 29.4836 115.31 29.5508 115.242 29.5945C115.173 29.6383 115.091 29.6557 115.011 29.6435C114.761 29.6012 114.513 29.5466 114.268 29.48C113.74 29.3536 112.135 28.9746 111.875 29.1827C111.325 29.7178 110.121 34.8013 111.221 36.7485C111.725 37.7737 112.599 38.5702 113.666 38.9781C113.747 38.9992 113.818 39.0495 113.865 39.1194C113.911 39.1893 113.93 39.274 113.919 39.3572C113.919 39.4166 113.123 44.7231 113.116 44.8123L113.131 44.842Z" fill="#231F20"/>
<path d="M121.9 33.6938C122.05 33.3001 122.328 32.9678 122.688 32.7499C123.027 32.5578 123.397 32.427 123.781 32.3634C123.991 32.3154 124.209 32.3154 124.42 32.3634C124.563 32.4072 124.697 32.4778 124.814 32.5715C125.112 32.766 125.331 33.0615 125.431 33.4039C125.475 33.6877 125.452 33.978 125.364 34.2512C125.287 34.5521 125.172 34.8419 125.022 35.1133C124.864 35.3814 124.655 35.6153 124.406 35.8015C124.157 35.9877 123.873 36.1225 123.571 36.1979C123.27 36.2733 122.956 36.2879 122.649 36.2408C122.341 36.1936 122.047 36.0857 121.781 35.9234" fill="white"/>
<path d="M123 36.5625C122.516 36.5644 122.04 36.4332 121.625 36.1834C121.568 36.1387 121.529 36.0745 121.516 36.0032C121.503 35.9318 121.517 35.8581 121.554 35.7959C121.592 35.7338 121.65 35.6875 121.72 35.6658C121.789 35.6441 121.864 35.6484 121.93 35.678C122.403 35.9564 122.965 36.0391 123.498 35.9084C123.761 35.8406 124.008 35.7217 124.225 35.5585C124.441 35.3952 124.624 35.1909 124.762 34.9571C124.902 34.7104 125.007 34.4452 125.074 34.1693C125.159 33.9313 125.182 33.6755 125.141 33.4261C125.056 33.1549 124.88 32.9212 124.643 32.7647C124.556 32.6925 124.454 32.6393 124.345 32.6086C124.181 32.5725 124.012 32.5725 123.848 32.6086C123.496 32.67 123.158 32.7879 122.844 32.9579C122.542 33.1476 122.307 33.4287 122.175 33.7606C122.165 33.8011 122.145 33.8388 122.119 33.8714C122.093 33.904 122.06 33.9306 122.022 33.9495C121.985 33.9685 121.944 33.9793 121.902 33.9813C121.86 33.9833 121.818 33.9764 121.779 33.9611C121.74 33.9458 121.705 33.9225 121.676 33.8926C121.646 33.8627 121.624 33.8269 121.609 33.7876C121.595 33.7483 121.589 33.7064 121.591 33.6646C121.594 33.6228 121.606 33.5821 121.625 33.545C121.802 33.0946 122.12 32.7137 122.532 32.46C122.9 32.2485 123.303 32.105 123.721 32.0363C123.966 31.9801 124.22 31.9801 124.464 32.0363C124.647 32.0885 124.818 32.1742 124.97 32.289C125.331 32.5225 125.595 32.879 125.713 33.2924C125.768 33.623 125.743 33.9622 125.639 34.2808C125.556 34.6103 125.431 34.9276 125.267 35.2247C124.907 35.8299 124.322 36.268 123.639 36.4435C123.433 36.5119 123.218 36.5519 123 36.5625Z" fill="#231F20"/>
<path d="M113.376 41.4753C113.376 41.4753 115.516 42.4489 117.189 41.2077C117.657 40.8968 118.053 40.4879 118.348 40.0093C118.643 39.5307 118.831 38.9938 118.898 38.4355C118.898 38.4355 115.754 40.1449 113.599 39.4166L113.376 41.4753Z" fill="#231F20"/>
<path d="M115.182 42.1664C114.514 42.1592 113.853 42.0255 113.234 41.7725C113.172 41.7433 113.121 41.6953 113.088 41.6353C113.054 41.5753 113.041 41.5062 113.049 41.438L113.272 39.3794C113.277 39.331 113.293 39.2845 113.318 39.2433C113.344 39.2021 113.379 39.1673 113.42 39.1415C113.465 39.1214 113.513 39.111 113.561 39.111C113.61 39.111 113.658 39.1214 113.703 39.1415C115.695 39.8179 118.704 38.2051 118.742 38.1828C118.792 38.1555 118.848 38.1412 118.905 38.1412C118.962 38.1412 119.018 38.1555 119.069 38.1828C119.116 38.2146 119.156 38.2576 119.183 38.3082C119.21 38.3588 119.225 38.4152 119.225 38.4727C119.156 39.0806 118.955 39.6661 118.637 40.1885C118.319 40.711 117.89 41.1577 117.382 41.4975C116.741 41.9541 115.968 42.189 115.182 42.1664ZM113.695 41.2597C114.227 41.4663 114.8 41.5457 115.367 41.4915C115.935 41.4373 116.482 41.251 116.965 40.9475C117.651 40.4753 118.171 39.7993 118.452 39.0152C117.478 39.4537 115.524 40.182 113.889 39.8327L113.695 41.2597Z" fill="#231F20"/>
<path d="M114.06 30.6171C114.06 30.6171 111.867 32.9582 112.209 33.4858C112.551 34.0135 113.777 33.902 113.777 33.902" fill="white"/>
<path d="M113.487 34.2439C113.201 34.2724 112.913 34.235 112.643 34.1345C112.374 34.034 112.131 33.8731 111.934 33.6642C111.614 33.1737 112.246 32.0738 113.822 30.3941C113.851 30.3631 113.887 30.3384 113.927 30.3216C113.966 30.3047 114.009 30.296 114.052 30.296C114.095 30.296 114.138 30.3047 114.177 30.3216C114.217 30.3384 114.253 30.3631 114.282 30.3941C114.314 30.4246 114.339 30.461 114.355 30.5012C114.372 30.5414 114.381 30.5846 114.381 30.6282C114.381 30.6719 114.372 30.7151 114.355 30.7553C114.339 30.7955 114.314 30.8319 114.282 30.8623C113.301 31.9103 112.462 33.092 112.491 33.3595C112.633 33.5676 113.316 33.6271 113.732 33.5899C113.775 33.5858 113.819 33.5903 113.86 33.603C113.901 33.6158 113.94 33.6366 113.973 33.6642C114.006 33.6919 114.033 33.7258 114.053 33.7641C114.073 33.8023 114.085 33.8442 114.089 33.8872C114.095 33.9736 114.068 34.059 114.013 34.1256C113.957 34.1921 113.878 34.2345 113.792 34.2439H113.487Z" fill="#231F20"/>
<path d="M117.391 31.4135C117.518 31.0929 117.438 30.7608 117.213 30.6717C116.988 30.5826 116.703 30.7703 116.576 31.091C116.449 31.4116 116.529 31.7437 116.754 31.8328C116.979 31.9219 117.264 31.7341 117.391 31.4135Z" fill="#231F20"/>
<path d="M112.546 30.7235C112.673 30.4028 112.593 30.0707 112.368 29.9817C112.143 29.8926 111.857 30.0803 111.73 30.4009C111.604 30.7215 111.683 31.0537 111.908 31.1427C112.134 31.2318 112.419 31.0441 112.546 30.7235Z" fill="#231F20"/>
<path d="M111.436 34.868C111.436 34.868 112.633 37.4693 115.776 35.6781L111.436 34.868Z" fill="white"/>
<path d="M113.733 36.6666C113.435 36.6681 113.139 36.623 112.856 36.5328C112.113 36.2777 111.498 35.745 111.139 35.0464C111.121 35.0074 111.111 34.9651 111.109 34.9222C111.107 34.8792 111.114 34.8363 111.129 34.7959C111.144 34.7555 111.166 34.7185 111.195 34.6869C111.225 34.6552 111.26 34.6297 111.299 34.6116C111.378 34.5751 111.468 34.5715 111.549 34.6015C111.59 34.6163 111.627 34.6389 111.658 34.6681C111.69 34.6973 111.716 34.7324 111.734 34.7714C112.017 35.3071 112.492 35.716 113.064 35.9159C113.5 36.0152 113.951 36.0229 114.39 35.9385C114.829 35.854 115.245 35.6793 115.613 35.4254C115.689 35.3821 115.779 35.3706 115.863 35.3936C115.948 35.4166 116.019 35.4722 116.063 35.5481C116.106 35.6239 116.118 35.714 116.095 35.7983C116.072 35.8826 116.016 35.9543 115.94 35.9977C115.276 36.4104 114.514 36.6411 113.733 36.6666Z" fill="#231F20"/>
<path d="M105.26 54.4144C105.219 54.4255 105.175 54.4255 105.134 54.4144C105.092 54.3988 105.054 54.375 105.021 54.3443C104.989 54.3137 104.963 54.2768 104.945 54.236C104.927 54.1951 104.917 54.151 104.916 54.1064C104.916 54.0617 104.924 54.0174 104.941 53.9759L106.932 48.8776C106.965 48.7928 107.03 48.7244 107.113 48.6875C107.196 48.6506 107.29 48.6481 107.375 48.6806C107.459 48.7131 107.528 48.778 107.565 48.8609C107.602 48.9439 107.604 49.0381 107.572 49.1228L105.572 54.2212C105.544 54.2798 105.5 54.329 105.444 54.3633C105.389 54.3975 105.325 54.4152 105.26 54.4144Z" fill="#231F20"/>
<path d="M136.341 56.0345C136.341 56.0345 143.446 72.3033 143.892 74.035C144.338 75.7666 123.372 91.4854 120.808 92.734C118.244 93.9826 114.372 95.5433 112.506 92.8975C111.183 91.0321 116.765 88.6241 116.765 88.6241C116.765 88.6241 113.881 86.5951 114.944 85.9783C116.007 85.3614 120.585 86.3573 120.585 86.3573L133.457 73.1877L127.125 59.2006" fill="white"/>
<path d="M115.487 94.6886C114.852 94.7246 114.219 94.5973 113.648 94.3189C113.077 94.0404 112.587 93.6201 112.224 93.0982C112.1 92.9252 112.017 92.7263 111.981 92.5164C111.945 92.3066 111.957 92.0913 112.016 91.8868C112.425 90.4598 114.952 89.0997 116.104 88.5498C115.398 87.9998 114.335 87.0634 114.372 86.3202C114.376 86.1875 114.415 86.0582 114.486 85.9458C114.556 85.8334 114.655 85.742 114.773 85.681C115.821 85.0716 119.381 85.7553 120.474 85.9857L133.049 73.1208L126.813 59.3418C126.795 59.3014 126.785 59.2577 126.783 59.2132C126.782 59.1688 126.789 59.1245 126.805 59.083C126.821 59.0414 126.845 59.0035 126.876 58.9714C126.907 58.9393 126.943 58.9136 126.984 58.8959C127.024 58.8761 127.067 58.8646 127.112 58.8622C127.156 58.8598 127.201 58.8664 127.242 58.8817C127.284 58.897 127.322 58.9206 127.355 58.9512C127.387 58.9817 127.413 59.0186 127.43 59.0594L133.762 73.0837C133.791 73.1449 133.8 73.2135 133.788 73.2801C133.776 73.3466 133.744 73.4079 133.695 73.4553L120.83 86.5951C120.789 86.6361 120.738 86.6663 120.683 86.6831C120.627 86.7 120.568 86.7029 120.511 86.6918C118.794 86.3127 115.806 85.8668 115.115 86.2681C115.048 86.2681 115.048 86.3276 115.048 86.3499C115.048 86.7215 116.022 87.6802 116.966 88.3417C117.013 88.3781 117.051 88.4257 117.075 88.4801C117.1 88.5345 117.111 88.5942 117.107 88.6538C117.101 88.7153 117.079 88.774 117.042 88.8237C117.005 88.8735 116.956 88.9124 116.899 88.9362C115.844 89.3896 113.019 90.8463 112.67 92.0726C112.64 92.1795 112.635 92.2918 112.654 92.4011C112.673 92.5104 112.717 92.614 112.782 92.7043C114.461 95.09 118.081 93.6927 120.66 92.4293C123.632 90.9875 143.439 75.8261 143.565 74.0944C143.127 72.4371 136.133 56.3318 136.029 56.1683C136.011 56.1279 136 56.0842 135.999 56.0397C135.997 55.9953 136.005 55.951 136.021 55.9095C136.037 55.8679 136.061 55.83 136.092 55.7979C136.122 55.7658 136.159 55.7401 136.2 55.7224C136.284 55.6872 136.378 55.6862 136.463 55.7195C136.548 55.7528 136.616 55.8178 136.653 55.9008C136.943 56.5622 143.773 72.2513 144.227 73.9458C144.806 76.1754 122.525 92.2732 120.957 93.0387C119.389 93.8042 117.285 94.6886 115.487 94.6886Z" fill="#231F20"/>
<path d="M96.2226 53.0766L93.0565 58.5392C93.0565 58.5392 80.3106 50.3119 80.0653 48.8181C79.8201 47.3242 78.8688 42.3745 77.8729 41.5198C76.877 40.6651 77.033 45.1095 77.033 45.1095C77.033 45.1095 72.0907 39.4908 71.5928 40.7468C71.0056 42.1887 70.0692 45.2581 71.2955 47.0492C72.6035 48.9741 76.4979 52.4152 76.4979 52.4152C76.4979 52.4152 92.4917 72.125 94.8105 72.0432C97.1293 71.9615 103.149 57.9669 103.149 57.9669" fill="white"/>
<path d="M94.8179 72.385C92.3951 72.385 78.9356 55.9378 76.2378 52.6306C76.1115 52.534 72.3211 49.1821 71.0354 47.2424C69.7496 45.3026 70.7604 41.9433 71.2955 40.613C71.334 40.5146 71.3974 40.428 71.4795 40.3615C71.5616 40.2951 71.6595 40.2511 71.7637 40.2339C72.767 40.063 75.3311 42.7014 76.6986 44.2026C76.6986 42.9169 76.8398 41.4008 77.4418 41.1258C77.558 41.0743 77.6872 41.0595 77.812 41.0834C77.9369 41.1073 78.0514 41.1688 78.1404 41.2595C79.3444 42.3 80.37 48.1045 80.4444 48.7659C80.6227 49.6206 86.9102 54.1244 92.9896 58.0634L95.9625 52.9056C96.0102 52.8292 96.0855 52.7743 96.1727 52.7521C96.2599 52.73 96.3524 52.7423 96.4307 52.7867C96.469 52.8089 96.5024 52.8385 96.5292 52.8738C96.5559 52.9091 96.5754 52.9493 96.5864 52.9922C96.5975 53.0351 96.5999 53.0797 96.5936 53.1235C96.5873 53.1673 96.5723 53.2095 96.5496 53.2474L93.391 58.71C93.3428 58.7902 93.2656 58.8487 93.1754 58.8735C93.1296 58.8832 93.0824 58.8836 93.0364 58.8747C92.9904 58.8657 92.9467 58.8476 92.9079 58.8215C90.76 57.4391 80.0282 50.4381 79.768 48.8774C79.3741 46.4917 78.4674 42.4635 77.6945 41.7798C77.4084 42.8599 77.3103 43.9811 77.4046 45.0945C77.4093 45.1641 77.3917 45.2333 77.3543 45.2921C77.3168 45.351 77.2616 45.3963 77.1965 45.4215C77.1305 45.4465 77.0586 45.4514 76.9898 45.4356C76.921 45.4197 76.8584 45.3838 76.8101 45.3323C74.6325 42.8574 72.3509 40.8285 71.8975 40.8731C71.5556 41.7947 70.4111 45.0499 71.6076 46.8187C72.8042 48.5876 76.7358 52.088 76.7729 52.1178C82.9415 59.7133 93.2349 71.6641 94.8402 71.6641C96.3712 71.6046 100.593 63.1246 102.882 57.7884C102.918 57.706 102.985 57.6411 103.068 57.6077C103.152 57.5744 103.245 57.5752 103.328 57.6101C103.369 57.6271 103.407 57.6522 103.438 57.684C103.47 57.7158 103.495 57.7537 103.511 57.7953C103.528 57.8369 103.536 57.8814 103.535 57.9261C103.534 57.9709 103.524 58.0151 103.506 58.056C102.488 60.4268 97.2779 72.2512 94.8625 72.3404L94.8179 72.385Z" fill="#231F20"/>
<path d="M77.033 45.1096C77.033 45.1096 75.3534 47.0047 75.8885 48.4391L77.033 45.1096Z" fill="white"/>
<path d="M75.8888 48.7808C75.8194 48.7795 75.752 48.7577 75.6951 48.718C75.6381 48.6783 75.5943 48.6225 75.5693 48.5578C74.9747 46.9525 76.7064 44.9681 76.7807 44.8864C76.8398 44.8193 76.9231 44.7786 77.0124 44.773C77.1016 44.7674 77.1893 44.7975 77.2563 44.8566C77.3233 44.9158 77.3641 44.9991 77.3697 45.0883C77.3753 45.1775 77.3452 45.2653 77.2861 45.3323C76.855 45.8228 75.7996 47.3018 76.2084 48.3051C76.2397 48.3899 76.2362 48.4836 76.1986 48.5658C76.161 48.6479 76.0924 48.7119 76.0078 48.7436C75.9711 48.764 75.9306 48.7767 75.8888 48.7808Z" fill="#231F20"/>
<path d="M126.27 56.7333C126.212 56.7315 126.154 56.7149 126.104 56.685C126.053 56.6551 126.011 56.6129 125.981 56.5623L122.837 51.0998C122.793 51.0205 122.782 50.9275 122.806 50.8402C122.829 50.7528 122.886 50.678 122.963 50.6315C123.002 50.6091 123.044 50.5946 123.088 50.5888C123.132 50.5831 123.177 50.5861 123.22 50.5979C123.263 50.6097 123.303 50.6299 123.338 50.6574C123.373 50.6848 123.402 50.719 123.424 50.7579L126.583 56.2205C126.605 56.2589 126.62 56.3014 126.625 56.3455C126.631 56.3897 126.628 56.4345 126.616 56.4774C126.605 56.5203 126.584 56.5604 126.557 56.5954C126.529 56.6304 126.495 56.6596 126.456 56.6812C126.402 56.7193 126.337 56.7377 126.27 56.7333Z" fill="#231F20"/>
<path d="M196.132 82.5447H76.9665V130.868H196.132V82.5447Z" fill="white"/>
<path d="M196.132 131.21H76.9665C76.8758 131.21 76.7889 131.174 76.7248 131.11C76.6606 131.046 76.6246 130.959 76.6246 130.868V82.5596C76.6246 82.5147 76.6335 82.4702 76.6506 82.4288C76.6678 82.3873 76.693 82.3496 76.7248 82.3178C76.7565 82.2861 76.7942 82.2609 76.8357 82.2437C76.8771 82.2266 76.9216 82.2177 76.9665 82.2177H196.132C196.221 82.2197 196.306 82.2565 196.369 82.3204C196.431 82.3843 196.466 82.4702 196.466 82.5596V130.868C196.466 130.957 196.431 131.043 196.369 131.107C196.306 131.171 196.221 131.208 196.132 131.21ZM77.3009 130.526H195.79V82.8866H77.3009V130.526Z" fill="#231F20"/>
<path d="M202.509 74.4216H70.5748V82.5448H202.509V74.4216Z" fill="white"/>
<path d="M202.516 82.8866H70.5748C70.4855 82.8847 70.4004 82.8478 70.3379 82.7839C70.2754 82.72 70.2404 82.6342 70.2404 82.5448V74.4215C70.2404 74.3321 70.2754 74.2463 70.3379 74.1824C70.4004 74.1185 70.4855 74.0816 70.5748 74.0797H202.516C202.605 74.0816 202.69 74.1185 202.753 74.1824C202.815 74.2463 202.85 74.3321 202.85 74.4215V82.5448C202.85 82.6342 202.815 82.72 202.753 82.7839C202.69 82.8478 202.605 82.8847 202.516 82.8866ZM70.9167 82.2029H202.174V74.7708H70.9167V82.2029Z" fill="#231F20"/>
<path d="M157.024 31.7318C157.024 31.7318 152.788 34.3776 153.093 35.1803C153.398 35.9829 155.426 35.9235 155.426 35.9235" fill="white"/>
<path d="M155.27 36.243C154.676 36.243 153.122 36.1613 152.788 35.2917C152.453 34.4222 154.795 32.7277 156.853 31.4642C156.89 31.4413 156.931 31.4258 156.973 31.4186C157.016 31.4114 157.059 31.4127 157.101 31.4223C157.144 31.432 157.183 31.4499 157.219 31.4749C157.254 31.4999 157.284 31.5317 157.307 31.5683C157.33 31.6049 157.345 31.6456 157.352 31.6882C157.359 31.7308 157.358 31.7744 157.348 31.8165C157.339 31.8586 157.321 31.8984 157.296 31.9336C157.271 31.9688 157.239 31.9987 157.203 32.0216C155.166 33.2851 153.427 34.6971 153.405 35.0985C153.553 35.4627 154.698 35.6187 155.419 35.589C155.506 35.587 155.591 35.6193 155.655 35.679C155.719 35.7388 155.757 35.8212 155.761 35.9086C155.763 35.996 155.73 36.0808 155.671 36.1447C155.611 36.2086 155.529 36.2466 155.441 36.2505L155.27 36.243Z" fill="#231F20"/>
<path d="M159.165 25.2807C159.165 25.2807 154.311 33.3965 154.705 38.0638C155.099 42.7311 160.852 42.367 160.852 42.367L159.997 48.1491C159.997 48.1491 167.622 48.4538 167.622 48.1491C167.622 47.8444 170.446 33.5154 170.261 29.569C170.075 25.6226 161.379 24.1733 159.165 25.2807Z" fill="white"/>
<path d="M165.4 48.6248C164.248 48.6248 162.547 48.6248 160.012 48.4836C159.965 48.4836 159.918 48.4729 159.876 48.4523C159.833 48.4317 159.796 48.4017 159.767 48.3647C159.737 48.3275 159.715 48.2846 159.702 48.2386C159.689 48.1926 159.686 48.1444 159.693 48.0971L160.436 42.7089C159.061 42.7089 154.669 42.2778 154.342 38.0936C153.97 33.3668 158.674 25.4591 158.875 25.1023C158.911 25.0492 158.959 25.0057 159.016 24.976C160.666 24.151 165.334 24.6193 168.239 26.3212C169.726 27.2056 170.573 28.3279 170.633 29.569C170.781 32.7574 169.027 42.419 168.277 46.5438C168.121 47.3985 167.994 48.0748 167.987 48.164C167.976 48.2554 167.937 48.3412 167.875 48.4093C167.801 48.4836 167.652 48.6248 165.4 48.6248ZM160.414 47.8147C163.386 47.9262 166.56 47.9856 167.34 47.889C167.377 47.6661 167.459 47.2499 167.608 46.4026C168.291 42.6866 170.097 32.6905 169.956 29.5839C169.897 28.3204 168.804 27.4211 167.89 26.8935C165.155 25.2807 160.822 24.924 159.403 25.526C158.883 26.4253 154.683 33.7756 155.018 38.0267C155.352 42.2778 160.584 42.0326 160.807 42.0177C160.857 42.0139 160.907 42.0213 160.954 42.0393C161 42.0574 161.042 42.0856 161.076 42.122C161.111 42.1583 161.136 42.2018 161.151 42.2494C161.167 42.2969 161.171 42.3473 161.164 42.3967L160.414 47.8147Z" fill="#231F20"/>
<path d="M175.084 30.0149C174.854 26.8414 171.183 24.8125 168.671 23.5787C167.533 23.0213 166.218 22.7092 165.125 22.0923C164.821 21.9288 164.427 21.9809 164.234 21.639C163.847 20.9627 164.94 19.9073 163.349 20.0114C161.313 20.1451 158.147 20.9775 157.961 23.497C157.827 25.5408 160.109 26.2989 161.625 27.0569C163.349 27.9191 162.918 30.498 162.056 35.418C161.194 40.338 163.423 42.1069 163.423 42.1069L168.767 43.2142C168.767 43.2142 175.456 34.9944 175.084 30.0149Z" fill="white"/>
<path d="M168.767 43.571H168.7L163.349 42.4636C163.298 42.449 163.251 42.4264 163.208 42.3967C163.111 42.315 160.837 40.4273 161.721 35.3735C162.606 30.3197 162.925 28.0975 161.476 27.3766L160.859 27.0793C159.373 26.3361 157.492 25.5037 157.619 23.4896C157.782 20.9553 160.673 19.8628 163.327 19.6844C163.515 19.6461 163.71 19.6509 163.897 19.6986C164.083 19.7462 164.257 19.8353 164.404 19.9594C164.497 20.0963 164.556 20.2527 164.578 20.4165C164.6 20.5803 164.584 20.7469 164.531 20.9033C164.471 21.0944 164.471 21.2993 164.531 21.4904C164.575 21.5722 164.664 21.6019 164.872 21.6613C165.017 21.6932 165.157 21.7432 165.289 21.81C165.895 22.1226 166.524 22.3909 167.169 22.6126C167.73 22.8073 168.281 23.0306 168.819 23.2815C171.792 24.7233 175.188 26.7969 175.426 29.9704C175.798 35.0316 169.309 43.0879 169.034 43.4298C169.004 43.4723 168.963 43.5071 168.917 43.5316C168.871 43.5561 168.819 43.5696 168.767 43.571ZM163.564 41.8096L168.618 42.8575C169.532 41.6833 175.062 34.4519 174.735 30.0373C174.519 27.1833 171.294 25.251 168.499 23.8835C167.983 23.6412 167.455 23.4254 166.916 23.2369C166.239 23.0081 165.581 22.7274 164.947 22.3971C164.86 22.3596 164.771 22.3297 164.679 22.3079C164.528 22.2829 164.383 22.2263 164.255 22.1418C164.127 22.0573 164.018 21.9468 163.936 21.8174C163.778 21.4908 163.749 21.1166 163.854 20.7695C163.885 20.6507 163.898 20.5279 163.891 20.4053C163.891 20.4053 163.795 20.3236 163.364 20.3607C162.546 20.4127 158.466 20.8215 158.295 23.5268C158.191 25.0726 159.781 25.8084 161.142 26.455L161.773 26.7597C163.735 27.7407 163.26 30.4757 162.383 35.4849C161.654 39.6841 163.26 41.4975 163.579 41.8096H163.564Z" fill="#231F20"/>
<path d="M160.674 34.125C161.364 33.3415 162.264 32.7716 163.267 32.4825C164.293 32.3042 165.534 32.9731 165.534 34.0135C165.519 34.3226 165.443 34.6256 165.311 34.9054C164.879 35.8732 164.225 36.7258 163.403 37.3945C162.581 38.0633 161.613 38.5294 160.577 38.7552" fill="white"/>
<path d="M160.577 39.0968C160.5 39.0966 160.426 39.0699 160.366 39.0212C160.306 38.9725 160.265 38.9047 160.25 38.8292C160.239 38.7857 160.237 38.7404 160.245 38.6962C160.252 38.6519 160.268 38.6097 160.293 38.572C160.317 38.5344 160.349 38.5022 160.387 38.4774C160.424 38.4526 160.466 38.4357 160.51 38.4279C161.488 38.2081 162.401 37.7621 163.175 37.1258C163.95 36.4895 164.564 35.6806 164.969 34.7639C165.084 34.5317 165.153 34.2792 165.17 34.0207C165.162 33.8631 165.12 33.7091 165.047 33.5692C164.974 33.4294 164.871 33.307 164.746 33.2106C164.544 33.0502 164.311 32.9331 164.062 32.8666C163.813 32.8001 163.552 32.7857 163.297 32.8241C162.362 33.105 161.525 33.6433 160.882 34.3774C160.851 34.4152 160.813 34.4461 160.77 34.4679C160.726 34.4897 160.679 34.502 160.63 34.504C160.581 34.506 160.533 34.4976 160.488 34.4794C160.443 34.4612 160.402 34.4336 160.369 34.3985C160.335 34.3633 160.309 34.3214 160.293 34.2756C160.277 34.2297 160.271 34.181 160.275 34.1326C160.28 34.0841 160.294 34.0372 160.318 33.9948C160.342 33.9525 160.374 33.9157 160.414 33.8869C161.148 33.054 162.108 32.4524 163.178 32.1553C163.532 32.0977 163.893 32.1156 164.239 32.2078C164.585 32.3001 164.907 32.4645 165.185 32.6904C165.387 32.8491 165.551 33.0509 165.666 33.281C165.78 33.5111 165.842 33.7638 165.846 34.0207C165.834 34.3764 165.748 34.7256 165.594 35.0463C165.141 36.0647 164.456 36.9621 163.592 37.6658C162.728 38.3696 161.71 38.8598 160.622 39.0968H160.577Z" fill="#231F20"/>
<path d="M157.768 132.317C157.889 133.392 157.652 134.476 157.091 135.401C156.177 136.769 156.385 140.745 156.385 140.745H164.791C164.791 140.745 165.021 135.922 164.486 135.231C163.951 134.539 163.743 135.119 163.587 134.279C163.587 133.292 163.732 132.311 164.018 131.366L157.768 132.317Z" fill="#231F20"/>
<path d="M164.806 141.072H156.4C156.317 141.07 156.237 141.037 156.176 140.98C156.115 140.922 156.079 140.843 156.073 140.76C156.073 140.596 155.873 136.657 156.816 135.223C157.326 134.361 157.543 133.357 157.433 132.362C157.423 132.277 157.445 132.192 157.497 132.124C157.548 132.056 157.624 132.01 157.708 131.998L163.959 131.046C164.013 131.036 164.069 131.041 164.121 131.059C164.173 131.077 164.22 131.109 164.256 131.15C164.294 131.19 164.32 131.24 164.331 131.293C164.343 131.347 164.34 131.403 164.323 131.455C164.046 132.351 163.903 133.282 163.899 134.22C163.944 134.45 163.981 134.502 163.988 134.502C164.291 134.583 164.555 134.771 164.732 135.03C165.296 135.773 165.155 139.601 165.103 140.76C165.1 140.839 165.068 140.915 165.013 140.972C164.959 141.029 164.885 141.065 164.806 141.072ZM156.72 140.418H164.457C164.546 138.226 164.457 135.78 164.211 135.431C164.171 135.36 164.116 135.298 164.051 135.248C163.986 135.198 163.912 135.162 163.832 135.141C163.528 135.045 163.357 134.896 163.253 134.339C163.209 133.47 163.312 132.601 163.557 131.767L158.102 132.6C158.169 133.644 157.909 134.683 157.359 135.572C156.735 136.546 156.675 139.162 156.72 140.418Z" fill="#231F20"/>
<path d="M133.16 131.685C133.16 131.685 132.759 134.331 131.904 134.859C131.049 135.387 126.806 135.81 126.486 136.769C126.318 137.82 126.318 138.891 126.486 139.942H139.403V130.868L133.16 131.685Z" fill="#231F20"/>
<path d="M139.403 140.27H126.486C126.407 140.27 126.331 140.242 126.272 140.19C126.213 140.137 126.175 140.065 126.166 139.987C125.985 138.887 125.985 137.765 126.166 136.665C126.404 135.922 127.749 135.595 129.771 135.134C130.437 135.018 131.09 134.834 131.718 134.584C132.253 134.257 132.684 132.6 132.825 131.611C132.838 131.542 132.872 131.478 132.923 131.429C132.974 131.38 133.038 131.347 133.108 131.336L139.358 130.519C139.404 130.513 139.45 130.518 139.493 130.532C139.537 130.546 139.577 130.57 139.611 130.6C139.647 130.63 139.676 130.668 139.695 130.71C139.715 130.753 139.724 130.799 139.722 130.846V139.972C139.715 140.053 139.678 140.127 139.619 140.182C139.56 140.237 139.483 140.268 139.403 140.27ZM126.768 139.616H139.068V131.24L133.435 131.983C133.309 132.726 132.892 134.636 132.067 135.149C131.38 135.446 130.658 135.658 129.92 135.781C128.872 136.018 126.947 136.464 126.791 136.881C126.637 137.785 126.632 138.709 126.776 139.616H126.768Z" fill="#231F20"/>
<path d="M157.106 133.44H164.806L174.899 97.3049L159.083 93.9159L157.106 133.44Z" fill="white"/>
<path d="M164.806 133.781H157.106C157.013 133.778 156.925 133.738 156.861 133.67C156.83 133.637 156.807 133.598 156.791 133.556C156.776 133.514 156.769 133.469 156.772 133.425L158.749 93.8934C158.75 93.8447 158.762 93.7968 158.784 93.7531C158.806 93.7094 158.837 93.6711 158.875 93.6408C158.915 93.6113 158.961 93.5907 159.01 93.5805C159.058 93.5702 159.109 93.5705 159.157 93.5813L174.973 96.9703C175.018 96.9788 175.061 96.9973 175.098 97.0242C175.135 97.0512 175.166 97.0861 175.188 97.1264C175.213 97.1646 175.228 97.2076 175.235 97.2524C175.241 97.2973 175.238 97.343 175.225 97.3865L165.133 133.521C165.113 133.594 165.071 133.659 165.012 133.705C164.953 133.752 164.881 133.779 164.806 133.781ZM157.463 133.098H164.546L174.475 97.5649L159.403 94.3319L157.463 133.098Z" fill="#231F20"/>
<path d="M157.53 87.4201C157.53 87.4201 141.922 90.9503 136.72 94.6218C134.49 96.1974 132.603 133.023 132.603 133.023L139.477 133.856C139.477 133.856 145.676 103.8 148.106 102.812C150.536 101.823 163.208 102.247 163.208 102.247C163.208 102.247 167.273 91.255 157.53 87.4201Z" fill="white"/>
<path d="M139.462 134.198H139.418L132.551 133.365C132.465 133.354 132.387 133.311 132.332 133.245C132.277 133.179 132.249 133.094 132.253 133.008C132.253 132.919 132.729 123.689 133.465 114.391C134.951 95.4246 136.096 94.6442 136.512 94.3246C141.714 90.6532 156.816 87.2122 157.455 87.0709C157.52 87.0483 157.591 87.0483 157.656 87.0709C167.593 90.9728 163.542 102.217 163.498 102.329C163.47 102.393 163.424 102.448 163.366 102.488C163.309 102.527 163.241 102.549 163.171 102.552C163.044 102.552 150.536 102.136 148.203 103.087C146.575 103.756 142.183 122.336 139.797 133.885C139.788 133.969 139.749 134.047 139.688 134.104C139.626 134.161 139.546 134.194 139.462 134.198ZM132.945 132.711L139.195 133.454C140.369 127.769 145.549 103.459 147.942 102.47C150.336 101.482 161.082 101.816 162.94 101.868C163.519 100.052 163.771 98.1467 163.684 96.2421C163.649 94.3659 163.04 92.5454 161.938 91.0264C160.836 89.5073 159.295 88.3628 157.522 87.7473C156.162 88.0594 141.833 91.4633 136.913 94.8746C135.375 95.9671 133.673 118.523 132.945 132.719V132.711Z" fill="#231F20"/>
<path d="M187.853 62.8572C187.853 62.8572 193.248 71.6493 192.936 73.656C192.624 75.6626 189.332 76.0714 181.498 76.2944L176.519 61.6904L187.853 62.8572Z" fill="white"/>
<path d="M181.498 76.6289C181.427 76.6305 181.357 76.6088 181.3 76.5673C181.242 76.5257 181.199 76.4665 181.178 76.3985L176.199 61.802C176.182 61.7482 176.178 61.6908 176.188 61.6351C176.198 61.5794 176.222 61.5271 176.257 61.4829C176.293 61.4387 176.338 61.404 176.39 61.3818C176.443 61.3597 176.499 61.3508 176.556 61.3561L187.89 62.5229C187.941 62.5277 187.99 62.5443 188.034 62.5714C188.078 62.5984 188.115 62.6353 188.142 62.679C188.7 63.5931 193.597 71.6346 193.27 73.7081C192.899 76.0492 189.227 76.4134 181.506 76.6289H181.498ZM177.039 62.0844L181.758 75.9452C189.049 75.7297 192.349 75.3283 192.624 73.6041C192.839 72.2366 189.815 66.6774 187.674 63.1992L177.039 62.0844Z" fill="#231F20"/>
<path d="M138.898 64.1652C138.898 64.1652 131.696 73.76 132.685 75.1721C133.673 76.5842 149.912 76.3018 149.912 76.3018L151.317 64.1652H138.898Z" fill="white"/>
<path d="M146.085 76.6438C140.838 76.6438 133.183 76.4505 132.41 75.3357C131.354 73.8493 136.869 66.224 138.623 63.9275C138.655 63.8858 138.697 63.8521 138.745 63.829C138.793 63.8058 138.845 63.7937 138.898 63.7938H151.317C151.366 63.7922 151.414 63.8014 151.459 63.8206C151.504 63.8399 151.544 63.8688 151.577 63.9052C151.637 63.9811 151.666 64.0765 151.659 64.1728L150.247 76.3093C150.237 76.3914 150.198 76.4672 150.136 76.5221C150.075 76.577 149.995 76.6071 149.912 76.6066C149.028 76.6215 147.668 76.6438 146.085 76.6438ZM139.069 64.4701C135.709 68.9665 132.447 74.206 132.96 74.9418C133.472 75.6776 141.811 76.0566 149.607 75.9377L150.938 64.4701H139.069Z" fill="#231F20"/>
<path d="M176.518 45.065C176.518 45.065 157.463 42.5232 152.379 45.065C147.296 47.6067 136.705 65.8227 136.705 65.8227L150.083 69.1894L147.972 97.4312C147.972 97.4312 148.819 102.255 164.322 102.255C179.826 102.255 179.93 100.352 179.93 100.352C179.93 100.352 183.534 78.3234 182.263 66.4618L189.695 64.143C189.695 64.143 185.63 49.5168 176.518 45.065Z" fill="#811E78"/>
<path d="M162.643 54.7636H169.332C173.608 54.7557 177.712 56.4463 180.742 59.4636C183.772 62.481 185.479 66.578 185.489 70.854V87.3903H146.523V70.854C146.533 66.5845 148.235 62.493 151.257 59.4768C154.279 56.4605 158.373 54.7656 162.643 54.7636Z" fill="#231F20"/>
<path d="M185.489 87.747H146.523C146.479 87.748 146.436 87.7403 146.395 87.7243C146.355 87.7083 146.318 87.6844 146.287 87.6539C146.256 87.6235 146.231 87.5871 146.214 87.5469C146.197 87.5067 146.188 87.4636 146.188 87.42V70.8911C146.194 66.5289 147.93 62.3471 151.014 59.2625C154.099 56.178 158.281 54.4425 162.643 54.4366H169.332C173.695 54.4405 177.878 56.1754 180.962 59.2604C184.047 62.3453 185.782 66.5283 185.786 70.8911V87.42C185.787 87.5018 185.756 87.5808 185.701 87.6414C185.646 87.7019 185.57 87.7396 185.489 87.747ZM146.842 87.093H185.155V70.8911C185.149 66.7024 183.482 62.6869 180.52 59.725C177.558 56.7631 173.543 55.0965 169.354 55.0906H162.665C158.477 55.0965 154.462 56.7633 151.502 59.7254C148.541 62.6876 146.876 66.7031 146.872 70.8911L146.842 87.093Z" fill="#231F20"/>
<path d="M180.539 101.682H149.072C147.664 101.682 146.523 102.824 146.523 104.231V105.064C146.523 106.472 147.664 107.613 149.072 107.613H180.539C181.947 107.613 183.088 106.472 183.088 105.064V104.231C183.088 102.824 181.947 101.682 180.539 101.682Z" fill="#231F20"/>
<path d="M180.539 107.94H149.065C148.302 107.94 147.57 107.637 147.031 107.098C146.491 106.558 146.188 105.827 146.188 105.064V104.231C146.188 103.469 146.491 102.737 147.031 102.198C147.57 101.658 148.302 101.355 149.065 101.355H180.539C181.302 101.355 182.034 101.658 182.573 102.198C183.112 102.737 183.415 103.469 183.415 104.231V105.042C183.418 105.421 183.346 105.798 183.203 106.149C183.06 106.501 182.848 106.82 182.581 107.09C182.314 107.359 181.996 107.573 181.645 107.719C181.295 107.865 180.919 107.94 180.539 107.94ZM149.065 101.994C148.473 101.994 147.906 102.229 147.488 102.647C147.07 103.066 146.835 103.633 146.835 104.224V105.042C146.835 105.633 147.07 106.2 147.488 106.618C147.906 107.036 148.473 107.271 149.065 107.271H180.539C181.131 107.271 181.698 107.036 182.116 106.618C182.534 106.2 182.769 105.633 182.769 105.042V104.209C182.769 103.618 182.534 103.051 182.116 102.633C181.698 102.214 181.131 101.98 180.539 101.98L149.065 101.994Z" fill="#231F20"/>
<path d="M166.002 74.1539C166.002 74.1539 167.555 85.4432 166.002 92.5037C164.449 99.5641 161.201 103.555 161.201 103.555H166.686C168.899 99.7403 170.478 95.5912 171.361 91.2699C172.773 84.2095 171.361 74.1762 171.361 74.1762L166.002 74.1539Z" fill="#231F20"/>
<path d="M166.686 103.845H161.194C161.132 103.844 161.072 103.826 161.019 103.793C160.967 103.76 160.924 103.714 160.896 103.659C160.87 103.603 160.86 103.54 160.868 103.478C160.875 103.416 160.901 103.358 160.941 103.31C163.282 100.056 164.899 96.3381 165.682 92.407C167.206 85.4878 165.682 74.2802 165.682 74.1687C165.674 74.0746 165.704 73.9811 165.764 73.9086C165.794 73.8725 165.831 73.8436 165.874 73.8243C165.916 73.805 165.963 73.7957 166.009 73.7971H171.375C171.455 73.7964 171.532 73.8247 171.592 73.8767C171.652 73.9286 171.692 74.0008 171.702 74.0796C171.702 74.1762 173.1 84.2392 171.702 91.2699C170.809 95.6276 169.216 99.8116 166.983 103.659C166.956 103.715 166.914 103.762 166.861 103.795C166.809 103.828 166.748 103.845 166.686 103.845ZM161.848 103.191H166.5C168.636 99.4488 170.169 95.3931 171.041 91.1733C172.29 84.9006 171.286 76.1531 171.041 74.4809H166.337C166.589 76.495 167.674 86.2607 166.284 92.5779C165.516 96.3711 164.011 99.9767 161.855 103.191H161.848Z" fill="#231F20"/>
<path d="M150.053 105.852L146.523 144.811H149.206L154.282 104.648L150.053 105.852Z" fill="#231F20"/>
<path d="M149.206 145.175H146.523C146.477 145.175 146.432 145.166 146.391 145.147C146.349 145.129 146.311 145.102 146.281 145.069C146.25 145.035 146.226 144.995 146.212 144.952C146.197 144.909 146.192 144.863 146.196 144.818L149.726 105.852C149.731 105.786 149.755 105.723 149.796 105.671C149.838 105.619 149.893 105.581 149.957 105.562L154.193 104.365C154.245 104.348 154.301 104.345 154.354 104.357C154.408 104.369 154.458 104.395 154.498 104.432C154.539 104.467 154.571 104.512 154.591 104.563C154.61 104.613 154.617 104.668 154.609 104.722L149.526 144.855C149.524 144.939 149.489 145.019 149.43 145.079C149.37 145.139 149.29 145.173 149.206 145.175ZM146.88 144.521H148.916L153.896 105.131L150.336 106.104L146.88 144.521Z" fill="#231F20"/>
<path d="M179.135 105.852L182.665 144.811H179.982L174.898 104.648L179.135 105.852Z" fill="#231F20"/>
<path d="M182.665 145.175H179.982C179.902 145.174 179.825 145.144 179.765 145.09C179.705 145.037 179.666 144.964 179.655 144.885L174.571 104.752C174.564 104.698 174.57 104.643 174.59 104.592C174.609 104.542 174.641 104.497 174.683 104.462C174.723 104.424 174.772 104.398 174.826 104.386C174.88 104.375 174.936 104.378 174.988 104.395L179.224 105.591C179.287 105.611 179.344 105.649 179.386 105.701C179.428 105.752 179.455 105.815 179.462 105.881L182.992 144.848C182.996 144.893 182.99 144.938 182.975 144.98C182.96 145.023 182.935 145.061 182.903 145.093C182.871 145.122 182.833 145.143 182.792 145.158C182.751 145.172 182.708 145.177 182.665 145.175ZM180.272 144.521H182.293L178.823 106.134L175.277 105.131L180.272 144.521Z" fill="#231F20"/>
<path d="M154.683 38.064C154.867 38.2534 155.091 38.3982 155.339 38.4873C155.587 38.5765 155.853 38.6075 156.115 38.5781C156.377 38.5486 156.628 38.4595 156.85 38.3176C157.073 38.1756 157.259 37.9846 157.396 37.7593" fill="white"/>
<path d="M155.984 38.9409C155.415 38.9116 154.874 38.6857 154.453 38.3018C154.39 38.2417 154.353 38.159 154.351 38.0718C154.349 37.9847 154.382 37.9004 154.442 37.8373C154.502 37.7742 154.585 37.7376 154.672 37.7355C154.759 37.7334 154.843 37.766 154.906 37.8261C155.232 38.1208 155.656 38.2826 156.095 38.2795C156.312 38.2398 156.517 38.1526 156.696 38.024C156.874 37.8955 157.022 37.7289 157.129 37.5363C157.18 37.4653 157.257 37.4176 157.344 37.4037C157.43 37.3897 157.518 37.4107 157.589 37.462C157.66 37.5132 157.708 37.5905 157.722 37.677C157.736 37.7634 157.715 37.8518 157.664 37.9227C157.503 38.1851 157.286 38.4088 157.029 38.5784C156.773 38.7479 156.482 38.859 156.177 38.9038L155.984 38.9409Z" fill="#231F20"/>
<path d="M159.347 30.1822C159.487 29.6589 159.415 29.1846 159.185 29.123C158.955 29.0614 158.655 29.4357 158.514 29.9591C158.374 30.4824 158.447 30.9566 158.677 31.0182C158.907 31.0799 159.207 30.7055 159.347 30.1822Z" fill="#231F20"/>
<path d="M25.4769 6.73778C25.3892 5.85284 25.5983 4.96384 26.0715 4.21089C26.6066 3.51227 27.7957 3.25958 28.3606 3.94333C28.1376 2.3826 29.4531 0.925917 30.9692 0.509722C32.5215 0.198978 34.1323 0.388948 35.5697 1.05226C37.0057 1.71612 38.498 2.25086 40.0289 2.65015C40.7918 2.84487 41.5905 2.85194 42.3567 2.67074C43.1229 2.48954 43.8338 2.12548 44.4287 1.60967C44.4287 3.47511 44.4287 5.49663 43.2321 6.95331C42.2562 8.0208 40.9453 8.72343 39.5161 8.9451C38.1114 9.24982 36.6622 9.33157 35.2724 9.68831C34.7298 9.84438 34.1279 10.1119 33.9718 10.647C33.9146 11.0686 33.9737 11.4978 34.1427 11.8882C34.3526 12.7389 34.2855 13.6344 33.9514 14.4444C33.6172 15.2544 33.0333 15.9367 32.2847 16.392C26.3391 19.8331 25.5141 10.0896 25.4769 6.73778Z" fill="white"/>
<path d="M29.9734 17.5069C29.4506 17.5037 28.9379 17.3627 28.487 17.0981C25.3804 15.3293 25.1648 8.17964 25.1574 6.74525C25.064 5.77709 25.2997 4.80571 25.8263 3.98796C26.023 3.74095 26.2711 3.53984 26.5535 3.39864C26.8359 3.25744 27.1457 3.17956 27.4613 3.17043C27.6553 3.16678 27.8485 3.19439 28.0336 3.25219C28.1742 2.51554 28.5202 1.83367 29.0318 1.28529C29.5434 0.736911 30.1996 0.344383 30.9247 0.153021C32.553 -0.170478 34.2416 0.0217684 35.7555 0.702994C36.1717 0.866499 36.5879 1.04487 37.0041 1.2158C38.0006 1.67709 39.0415 2.03568 40.1107 2.28602C40.8133 2.47321 41.5511 2.48574 42.2596 2.32252C42.9682 2.15931 43.6261 1.82529 44.176 1.34958C44.2276 1.29611 44.294 1.2593 44.3666 1.24391C44.4393 1.22853 44.5149 1.23527 44.5837 1.26327C44.6525 1.29126 44.7113 1.33923 44.7526 1.40098C44.7938 1.46273 44.8156 1.53544 44.8152 1.60971C44.8152 3.69068 44.7409 5.68247 43.5369 7.18374C42.5069 8.32358 41.116 9.07414 39.5979 9.30931C38.9885 9.43565 38.3716 9.53227 37.777 9.61402C36.9661 9.717 36.162 9.86839 35.3691 10.0674C34.7671 10.2383 34.4178 10.4761 34.3286 10.7734C34.2897 11.0503 34.3257 11.3326 34.4326 11.591L34.4995 11.8139C34.7368 12.7442 34.6676 13.7263 34.302 14.614C33.9365 15.5018 33.2941 16.2479 32.4706 16.7414C31.7202 17.2122 30.8587 17.4763 29.9734 17.5069ZM27.4613 3.91364C27.2566 3.91971 27.0556 3.97002 26.8722 4.06111C26.6887 4.15219 26.5272 4.28189 26.3986 4.44132C25.9834 5.13106 25.8034 5.93698 25.8858 6.73782C25.8858 10.4538 26.7033 15.2327 28.8586 16.4589C29.7281 16.9569 30.8206 16.838 32.099 16.0948C32.7809 15.684 33.313 15.0651 33.6167 14.3292C33.9204 13.5933 33.9798 12.7793 33.786 12.0071L33.7266 11.799C33.5692 11.4102 33.5304 10.9836 33.6151 10.5728C33.7786 9.99306 34.2914 9.59916 35.1758 9.3539C35.9979 9.14529 36.8318 8.98645 37.673 8.87825C38.2527 8.7965 38.8621 8.70731 39.4418 8.58097C40.7921 8.38341 42.0333 7.72737 42.9572 6.72295C43.8713 5.58585 44.0497 4.04742 44.072 2.39007C42.8348 3.11549 41.3665 3.33892 39.9695 3.01436C38.8492 2.75502 37.7584 2.38147 36.7143 1.89955C36.3055 1.72862 35.8967 1.55768 35.488 1.40161C33.6968 0.710425 32.307 0.53949 31.1179 0.8665C29.9288 1.19351 28.539 2.47925 28.7471 3.88391C28.7585 3.96496 28.7428 4.0475 28.7025 4.11872C28.6622 4.18995 28.5995 4.24587 28.5241 4.27781C28.4516 4.31117 28.3702 4.31978 28.2923 4.30232C28.2144 4.28487 28.1444 4.24231 28.0931 4.18119C28.0148 4.09185 27.9173 4.02137 27.8079 3.97504C27.6985 3.92871 27.58 3.90772 27.4613 3.91364Z" fill="#231F20"/>
<path d="M46.911 27.3766C46.911 27.3766 58.951 48.3944 60.5711 52.0882C62.1913 55.7819 55.0343 64.3064 52.2695 62.2329C49.5048 60.1594 46.911 27.3766 46.911 27.3766Z" fill="#231F20"/>
<path d="M23.8273 136.999C23.8273 136.999 23.3516 140.091 24.0651 141.28C25.0277 142.951 25.597 144.819 25.7299 146.743C25.1601 147.38 24.4644 147.892 23.6865 148.246C22.9087 148.601 22.0658 148.79 21.2112 148.802C18.3647 148.802 15.5108 146.661 15.1912 145.635C14.8717 144.61 17.4877 133.677 17.4877 133.677L23.8273 136.999Z" fill="#231F20"/>
<path d="M43.4553 62.0768L29.7283 65.882L26.5474 26.1875C26.5474 26.1875 37.9184 23.4971 40.6683 24.7605C43.4182 26.024 43.4553 62.0768 43.4553 62.0768Z" fill="#231F20"/>
<path d="M29.7281 66.2537C29.6534 66.2542 29.5805 66.2308 29.52 66.1868C29.4747 66.1553 29.4367 66.1144 29.4085 66.067C29.3803 66.0196 29.3626 65.9667 29.3565 65.9118L26.2202 26.2172C26.2126 26.1296 26.2371 26.0421 26.289 25.9711C26.3409 25.9 26.4168 25.8502 26.5026 25.8308C26.9708 25.7193 38.0223 23.1181 40.8539 24.4261C43.6855 25.7342 43.8267 56.0197 43.8267 62.0769C43.8267 62.1573 43.8007 62.2355 43.7524 62.2998C43.7042 62.3642 43.6364 62.4111 43.5592 62.4336L29.8248 66.2388L29.7281 66.2537ZM26.9634 26.4774L30.0849 65.4064L43.1058 61.8019C43.1058 44.5149 42.162 25.8531 40.5269 25.1024C38.4162 24.1363 30.293 25.7044 26.9634 26.4774Z" fill="#231F20"/>
<path d="M38.8546 129.857V139.155L43.3139 140.418L43.2098 138.516L45.2165 140.522C45.2165 140.522 57.1077 142.663 57.0706 141.08C57.0334 139.497 55.8071 138.627 54.2984 137.832C52.7897 137.037 48.442 134.584 48.442 134.584L47.8028 127.776" fill="#231F20"/>
<path d="M17.5841 65.8299L13.9275 136.368C13.9275 136.368 14.2769 138.946 19.8732 139.266C25.4695 139.586 24.9121 138.27 24.9121 138.27L33.6522 86.5282L37.2419 132.488L49.3264 133.231L46.9259 60.7836L17.5841 65.8299Z" fill="white"/>
<path d="M21.5083 139.653C21.003 139.653 20.4604 139.653 19.8584 139.601C14.0466 139.274 13.6081 136.531 13.5932 136.412L17.2423 65.8077C17.2462 65.7303 17.2763 65.6565 17.3276 65.5985C17.3789 65.5404 17.4484 65.5015 17.5248 65.4881L46.8516 60.4492C46.8989 60.4426 46.9471 60.4458 46.9931 60.4586C47.0391 60.4714 47.082 60.4935 47.1192 60.5235C47.1586 60.5527 47.1906 60.5908 47.2126 60.6347C47.2345 60.6786 47.2458 60.7271 47.2455 60.7762L49.6461 133.216C49.6495 133.264 49.6427 133.312 49.626 133.357C49.6093 133.402 49.5832 133.443 49.5495 133.477C49.4781 133.54 49.3851 133.575 49.2893 133.573L37.2048 132.83C37.1224 132.826 37.0443 132.793 36.9853 132.735C36.9263 132.677 36.8907 132.6 36.8852 132.518L33.5111 89.3078L25.2541 138.255C25.2818 138.447 25.2338 138.641 25.1203 138.798C24.7338 139.37 23.5299 139.653 21.5083 139.653ZM14.2695 136.382C14.2695 136.382 14.7526 138.612 19.8956 138.924C23.4184 139.125 24.3028 138.664 24.5257 138.456C24.556 138.435 24.5772 138.403 24.5852 138.367C24.5664 138.316 24.5664 138.261 24.5852 138.211L33.303 86.4614C33.3158 86.3793 33.3586 86.305 33.4232 86.2528C33.4877 86.2006 33.5694 86.1742 33.6523 86.1789C33.7359 86.1826 33.8151 86.2174 33.8742 86.2766C33.9334 86.3357 33.9682 86.4149 33.9719 86.4985L37.5393 132.161L48.9623 132.867L46.5841 61.1924L17.9112 66.1198L14.2695 136.382Z" fill="#231F20"/>
<path d="M29.2672 22.858C29.2672 22.858 33.7264 70.3042 31.6157 73.0466C29.505 75.789 16.4915 77.9666 15.5253 72.6378C13.9275 63.8903 14.7821 32.4453 16.6922 29.4874C24.2729 22.9323 29.2672 22.858 29.2672 22.858Z" fill="#811E78"/>
<path d="M46.9113 27.3765C46.9113 27.3765 53.6002 70.8837 52.3664 72.1472C51.1327 73.4106 41.4934 74.57 39.5982 73.314C37.703 72.058 37.7922 22.62 37.7922 22.62C41.208 23.3465 44.3608 24.9911 46.9113 27.3765Z" fill="#811E78"/>
<path d="M37.4277 21.758L37.5763 27.1611C37.5763 27.1611 36.9371 29.6509 33.3029 28.9077C29.6686 28.1644 29.0369 25.7044 29.0369 25.7044L29.1261 15.6191C29.1261 15.6191 31.0361 12.2227 30.0402 6.448C30.0402 6.448 35.1014 7.14661 41.1883 7.6074C41.1883 7.6074 41.6342 15.4259 41.2998 18.2352C40.9653 21.0445 37.4277 21.758 37.4277 21.758Z" fill="white"/>
<path d="M34.5667 29.4205C34.1168 29.4177 33.6684 29.3679 33.2289 29.2719C29.4014 28.5287 28.7028 25.9051 28.6805 25.7937C28.6769 25.764 28.6769 25.7341 28.6805 25.7045L28.7697 15.6118C28.7694 15.5495 28.7847 15.4882 28.8143 15.4334C28.8143 15.4334 30.65 12.0741 29.6912 6.51493C29.6801 6.45782 29.683 6.39885 29.6999 6.34314C29.7167 6.28744 29.7469 6.2367 29.7879 6.19535C29.8288 6.15328 29.8791 6.12131 29.9345 6.10196C29.99 6.08262 30.0492 6.07642 30.1074 6.08387C30.1595 6.08387 35.2281 6.78992 41.2555 7.24327C41.3451 7.25032 41.4291 7.28959 41.4919 7.35381C41.5548 7.41803 41.5923 7.50286 41.5974 7.59258C41.5974 7.91216 42.0433 15.478 41.7089 18.2873C41.4041 20.8514 38.736 21.8027 37.8516 22.0553L37.9928 27.1612C37.9964 27.1958 37.9964 27.2306 37.9928 27.2652C37.9928 27.2652 37.3685 29.4205 34.5667 29.4205ZM29.4088 25.6525C29.5129 25.9646 30.2412 27.8821 33.3775 28.5435C36.3504 29.1604 37.0936 27.4287 37.1976 27.1166L37.0564 21.8027C37.0529 21.7145 37.0808 21.6279 37.1353 21.5584C37.1898 21.489 37.2672 21.4412 37.3537 21.4236C37.3537 21.4236 40.6238 20.725 40.9285 18.2204C41.2332 15.7158 40.9285 9.48775 40.8319 7.98648C36.0308 7.60744 31.9134 7.09463 30.4865 6.90883C31.2297 12.0146 29.7879 15.1733 29.498 15.7381L29.4088 25.6525Z" fill="#231F20"/>
<path d="M30.8209 15.2697C30.6831 14.7759 30.3851 14.3419 29.9736 14.036C29.5812 13.7692 29.1465 13.5706 28.6879 13.4489C28.4526 13.3529 28.1978 13.3146 27.9447 13.3374C27.7658 13.3742 27.5947 13.4421 27.4393 13.538C27.0557 13.7423 26.7578 14.0771 26.5995 14.4819C26.5186 14.8215 26.5186 15.1754 26.5995 15.515C26.6472 15.888 26.7447 16.2529 26.8893 16.6C27.0501 16.9426 27.2774 17.2498 27.5579 17.5037C27.8385 17.7577 28.1668 17.9532 28.5237 18.0791C28.8805 18.205 29.2589 18.2586 29.6367 18.2369C30.0145 18.2152 30.3842 18.1186 30.7243 17.9527" fill="white"/>
<path d="M29.4757 18.6143C29.1091 18.6143 28.745 18.554 28.398 18.4359C27.5868 18.1439 26.9242 17.5427 26.5549 16.7637C26.3884 16.3875 26.2758 15.9897 26.2204 15.582C26.1204 15.1844 26.1204 14.7682 26.2204 14.3706C26.4015 13.8803 26.7557 13.4732 27.2163 13.226C27.4142 13.1007 27.6333 13.0126 27.8629 12.9659C28.1781 12.9394 28.4953 12.9825 28.7919 13.0923C29.2946 13.2232 29.7702 13.4421 30.1966 13.7389C30.6675 14.0961 31.0093 14.597 31.1702 15.1658C31.1833 15.2146 31.1868 15.2655 31.1803 15.3157C31.1738 15.3658 31.1575 15.4141 31.1323 15.458C31.1071 15.5018 31.0735 15.5402 31.0335 15.5711C30.9934 15.6019 30.9477 15.6246 30.8989 15.6378C30.8501 15.6509 30.7992 15.6544 30.7491 15.6479C30.6989 15.6414 30.6506 15.625 30.6068 15.5999C30.5629 15.5747 30.5245 15.5411 30.4937 15.501C30.4628 15.461 30.4401 15.4153 30.427 15.3665C30.2994 14.9499 30.0382 14.5868 29.6838 14.3334C29.3257 14.0895 28.9285 13.9085 28.5095 13.7983C28.321 13.7223 28.1178 13.6893 27.9149 13.7017C27.7831 13.7322 27.6574 13.785 27.5433 13.8578C27.2385 14.0195 26.9993 14.2822 26.867 14.601C26.8037 14.8824 26.8037 15.1743 26.867 15.4557C26.9188 15.7967 27.0163 16.1291 27.1569 16.4441C27.2962 16.7427 27.4936 17.0106 27.7375 17.2321C27.9815 17.4536 28.2671 17.6244 28.5777 17.7344C28.8883 17.8444 29.2177 17.8914 29.5467 17.8728C29.8757 17.8541 30.1977 17.7702 30.4939 17.6258C30.5378 17.6044 30.5855 17.5917 30.6343 17.5887C30.6831 17.5857 30.732 17.5923 30.7782 17.6082C30.8245 17.624 30.8671 17.6489 30.9038 17.6812C30.9404 17.7136 30.9703 17.7528 30.9918 17.7968C31.0133 17.8407 31.0259 17.8884 31.0289 17.9372C31.0319 17.986 31.0253 18.0349 31.0095 18.0811C30.9936 18.1274 30.9688 18.17 30.9364 18.2067C30.904 18.2433 30.8648 18.2732 30.8209 18.2947C30.4009 18.4974 29.9419 18.6065 29.4757 18.6143Z" fill="#231F20"/>
<path d="M38.736 13.2335C38.736 13.2335 40.8244 15.9165 40.4157 16.4367C40.0069 16.957 38.7212 16.7266 38.7212 16.7266" fill="white"/>
<path d="M39.3525 17.1575C39.118 17.1581 38.884 17.1357 38.6539 17.0906C38.5575 17.0725 38.4721 17.0171 38.4164 16.9363C38.3607 16.8556 38.3392 16.7561 38.3566 16.6595C38.3764 16.5641 38.4323 16.4799 38.5126 16.4245C38.5928 16.3691 38.6914 16.3468 38.7877 16.3623C39.2336 16.444 39.9471 16.4366 40.1254 16.2062C39.7123 15.2099 39.1455 14.2845 38.4458 13.4638C38.4124 13.4256 38.3871 13.381 38.3716 13.3327C38.3561 13.2844 38.3506 13.2334 38.3555 13.183C38.3604 13.1325 38.3756 13.0835 38.4002 13.0391C38.4247 12.9947 38.4581 12.9558 38.4983 12.9248C38.5384 12.8938 38.5845 12.8714 38.6336 12.8588C38.6828 12.8463 38.734 12.844 38.7841 12.852C38.8342 12.86 38.8821 12.8782 38.9249 12.9055C38.9677 12.9327 39.0045 12.9684 39.0329 13.0104C40.5193 14.9427 41.099 16.169 40.7051 16.6744C40.5274 16.847 40.3146 16.9795 40.0813 17.0628C39.8479 17.1461 39.5994 17.1784 39.3525 17.1575Z" fill="#231F20"/>
<path d="M37.1277 12.8022C37.3758 12.7294 37.4936 12.3862 37.3907 12.0356C37.2879 11.6851 37.0034 11.46 36.7553 11.5327C36.5071 11.6055 36.3893 11.9487 36.4922 12.2993C36.595 12.6498 36.8795 12.875 37.1277 12.8022Z" fill="#231F20"/>
<path d="M40.2361 12.5975C40.4842 12.5247 40.602 12.1815 40.4992 11.831C40.3963 11.4805 40.1118 11.2553 39.8637 11.3281C39.6155 11.4009 39.4978 11.7441 39.6006 12.0946C39.7034 12.4451 39.988 12.6703 40.2361 12.5975Z" fill="#231F20"/>
<path d="M39.4421 18.0866L36.9969 18.0271C36.9969 18.0271 36.6848 19.7588 37.9631 20.1973C39.2414 20.6357 39.4421 18.0866 39.4421 18.0866Z" fill="white"/>
<path d="M38.2451 20.5837C38.1087 20.5821 37.9733 20.5596 37.8438 20.5168C36.5878 20.0857 36.506 18.6291 36.6323 17.923C36.6453 17.8337 36.6916 17.7526 36.7619 17.6961C36.8322 17.6395 36.9214 17.6117 37.0114 17.6183L39.4491 17.6778C39.4995 17.6797 39.5491 17.6916 39.5949 17.7129C39.6406 17.7342 39.6817 17.7644 39.7156 17.8018C39.7495 17.8392 39.7756 17.883 39.7924 17.9306C39.8092 17.9782 39.8163 18.0287 39.8133 18.0791C39.8133 18.2575 39.6498 19.8702 38.8397 20.4053C38.6638 20.523 38.4567 20.5852 38.2451 20.5837ZM37.3384 18.3541C37.2898 18.6425 37.3359 18.9388 37.4699 19.1988C37.6039 19.4587 37.8185 19.6682 38.0816 19.7959C38.1354 19.8245 38.1953 19.8395 38.2562 19.8395C38.3172 19.8395 38.3771 19.8245 38.4309 19.7959C38.773 19.4179 38.9795 18.9368 39.018 18.4284L37.3384 18.3541Z" fill="#231F20"/>
<path d="M37.4277 21.758C37.4277 21.758 34.6183 21.758 33.3103 21.0148C33.3103 21.0148 34.4102 24.218 37.4648 25.0132L37.4277 21.758Z" fill="#231F20"/>
<path d="M37.465 25.3848H37.3684C34.1577 24.5524 33.0058 21.2897 32.9612 21.1559C32.9359 21.0846 32.933 21.0072 32.9529 20.9341C32.9729 20.8611 33.0146 20.7958 33.0726 20.7472C33.1356 20.7059 33.2092 20.684 33.2845 20.684C33.3597 20.684 33.4333 20.7059 33.4963 20.7472C34.7003 21.4458 37.3907 21.4532 37.4204 21.4458C37.517 21.4458 37.6096 21.4842 37.6779 21.5525C37.7462 21.6207 37.7846 21.7134 37.7846 21.81L37.8217 25.0578C37.8226 25.1148 37.8103 25.1713 37.7858 25.2229C37.7613 25.2744 37.7253 25.3197 37.6805 25.355C37.6135 25.3871 37.5382 25.3975 37.465 25.3848ZM34.0462 21.7133C34.6978 22.9744 35.7746 23.9643 37.0859 24.5078V22.1221C36.0598 22.1103 35.039 21.973 34.0462 21.7133Z" fill="#231F20"/>
<path d="M13.8386 61.1405C13.74 61.1464 13.6432 61.1129 13.5693 61.0474C13.4954 60.9819 13.4506 60.8898 13.4447 60.7912C13.4388 60.6927 13.4723 60.5958 13.5378 60.5219C13.6033 60.448 13.6954 60.4032 13.794 60.3973C13.9055 60.3973 24.8306 59.1487 28.1081 57.365C28.151 57.3415 28.1982 57.3266 28.2469 57.3214C28.2955 57.3161 28.3447 57.3205 28.3917 57.3343C28.4387 57.3481 28.4824 57.3711 28.5205 57.4019C28.5586 57.4326 28.5902 57.4706 28.6135 57.5137C28.6591 57.6007 28.6691 57.7021 28.6413 57.7964C28.6136 57.8907 28.5503 57.9705 28.4649 58.019C25.0535 59.8771 14.344 61.0811 13.8757 61.1331L13.8386 61.1405Z" fill="#231F20"/>
<path d="M16.6926 29.4874C16.6926 29.4874 -4.57049 59.0001 4.53378 66.6105C12.8874 73.5892 31.3635 62.0027 31.3635 62.0027L30.2487 52.1998C30.2487 52.1998 15.6373 60.1149 15.3846 56.4286C15.0427 51.0107 22.1998 43.6083 22.1998 43.6083C22.8402 42.4131 23.2281 41.0991 23.3393 39.7477C23.4505 38.3963 23.2827 37.0365 22.8463 35.7526C22.4115 34.2846 21.6231 32.9456 20.5501 31.8533C19.4772 30.7609 18.1527 29.9485 16.6926 29.4874Z" fill="#231F20"/>
<path d="M52.8418 66.1868H31.6382C31.2496 66.1862 30.866 66.099 30.5153 65.9316C30.1646 65.7642 29.8556 65.5208 29.6108 65.219C29.3659 64.9172 29.1914 64.5647 29.0999 64.187C29.0083 63.8093 29.0021 63.416 29.0816 63.0356L33.5928 41.8691C33.7165 41.2421 34.0537 40.6772 34.5469 40.2707C35.0401 39.8642 35.6589 39.6412 36.2981 39.6395H57.197C57.6088 39.6403 58.0153 39.7331 58.3866 39.9111C58.758 40.0891 59.0849 40.3479 59.3435 40.6684C59.602 40.9889 59.7857 41.3632 59.8811 41.7638C59.9765 42.1644 59.9812 42.5813 59.8949 42.984L55.3985 64.1207C55.274 64.7061 54.952 65.2309 54.4865 65.6071C54.021 65.9833 53.4403 66.188 52.8418 66.1868Z" fill="white"/>
<path d="M52.8418 66.5288H31.6381C31.1998 66.5245 30.7678 66.4233 30.3731 66.2325C29.9784 66.0416 29.6309 65.7659 29.3553 65.4249C29.0797 65.084 28.8829 64.6863 28.779 64.2604C28.6752 63.8345 28.6668 63.3909 28.7545 62.9614L33.2658 41.7577C33.4151 41.0641 33.7974 40.4425 34.3491 39.9964C34.9007 39.5502 35.5885 39.3062 36.298 39.3052H57.1969C57.6558 39.3059 58.1088 39.4085 58.5233 39.6056C58.9377 39.8027 59.3031 40.0894 59.5933 40.445C59.8834 40.8005 60.0909 41.2161 60.2009 41.6616C60.3109 42.1071 60.3206 42.5715 60.2292 43.0212L55.77 64.1654C55.6294 64.8366 55.2611 65.4386 54.7274 65.8694C54.1937 66.3001 53.5276 66.533 52.8418 66.5288ZM36.298 39.9815C35.7437 39.9839 35.2068 40.1752 34.7758 40.5238C34.3448 40.8724 34.0455 41.3574 33.9272 41.899L29.4159 63.1026C29.3449 63.4346 29.3492 63.7783 29.4283 64.1084C29.5075 64.4386 29.6595 64.7468 29.8734 65.0106C30.0872 65.2743 30.3573 65.4868 30.664 65.6325C30.9707 65.7781 31.3061 65.8533 31.6456 65.8525H52.8492C53.37 65.851 53.8747 65.672 54.2801 65.345C54.6855 65.0181 54.9672 64.5626 55.0788 64.0539L59.5752 42.9097C59.6493 42.5563 59.6437 42.1909 59.5589 41.8399C59.474 41.4889 59.312 41.1613 59.0847 40.8808C58.859 40.5992 58.5728 40.3721 58.2472 40.2164C57.9217 40.0607 57.5652 39.9804 57.2044 39.9815H36.298Z" fill="#231F20"/>
<path d="M27.2758 55.5441C27.1464 54.7983 27.2052 54.0319 27.4468 53.3145C27.6756 52.831 27.9932 52.3949 28.3832 52.0288C29.0467 51.3368 29.7569 50.6912 30.5088 50.0965C30.8119 49.7891 31.1784 49.5514 31.5827 49.3999C31.987 49.2485 32.4194 49.1869 32.8499 49.2195C32.5761 50.4522 31.8527 51.5386 30.8209 52.2666C31.1671 51.877 31.6149 51.5914 32.1141 51.4417C32.4486 51.3376 32.9093 51.3525 33.0505 51.6795C33.0827 51.7858 33.0921 51.8977 33.078 52.0078C33.0639 52.118 33.0267 52.2239 32.9688 52.3186C32.5737 53.1746 31.9676 53.9163 31.2074 54.4739L32.0249 53.9686C32.2307 53.82 32.4667 53.7185 32.7161 53.6713C32.8399 53.6497 32.9673 53.6683 33.0797 53.7245C33.192 53.7807 33.2834 53.8714 33.3404 53.9834C33.3941 54.1699 33.3728 54.3699 33.2809 54.5408C33.0708 55.0416 32.7164 55.4685 32.2627 55.7671C32.5642 55.5269 32.9182 55.3614 33.2958 55.284C33.4847 55.2533 33.6784 55.291 33.842 55.3905C34.0055 55.49 34.1281 55.6446 34.1877 55.8266C34.217 56.0358 34.1723 56.2487 34.0613 56.4286C33.4593 57.6028 32.0101 57.7366 31.3114 58.7176C30.7838 59.4608 31.029 60.2412 29.9514 60.6871C27.2907 61.8019 27.4245 57.0752 27.2758 55.5441Z" fill="white"/>
<path d="M29.1933 61.2371C28.8996 61.2409 28.6109 61.161 28.3609 61.0067C27.1569 60.2635 27.0232 57.8703 26.934 56.3022C26.934 56.0198 26.934 55.7745 26.8819 55.559C26.7514 54.7593 26.8203 53.9399 27.0826 53.1733C27.3284 52.6458 27.6713 52.1693 28.0934 51.7686C28.7675 51.0649 29.4902 50.4092 30.2561 49.8066C30.6001 49.4634 31.0156 49.2002 31.4729 49.0358C31.9302 48.8713 32.4181 48.8097 32.9019 48.8553C32.9503 48.8631 32.9964 48.8811 33.0374 48.908C33.0784 48.9349 33.1132 48.9701 33.1397 49.0113C33.1927 49.0953 33.2113 49.1964 33.1917 49.2938C33.0469 49.9053 32.7953 50.4864 32.4485 51.0106C32.6309 50.9998 32.8124 51.0436 32.9699 51.1362C33.1273 51.2288 33.2537 51.3662 33.333 51.5308C33.3852 51.6853 33.4049 51.8488 33.3908 52.0113C33.3767 52.1737 33.3292 52.3315 33.2512 52.4747C33.1167 52.7575 32.9627 53.0306 32.7904 53.2922C32.969 53.2954 33.1429 53.3495 33.2917 53.4483C33.4405 53.547 33.558 53.6863 33.6302 53.8496C33.7148 54.1279 33.6909 54.428 33.5633 54.6894C33.5633 54.7637 33.4965 54.8381 33.4593 54.9124C33.6993 54.9214 33.9298 55.0082 34.1161 55.1597C34.3025 55.3112 34.4345 55.5191 34.4924 55.7522C34.5387 56.0442 34.4836 56.3432 34.3363 56.5995C33.9566 57.2481 33.3891 57.7664 32.7087 58.0859C32.2633 58.2943 31.868 58.5959 31.5493 58.9703C31.4124 59.1844 31.3072 59.4172 31.2371 59.6615C31.1693 59.9773 31.0236 60.2713 30.8134 60.5166C30.6031 60.7619 30.3349 60.9508 30.0331 61.0661C29.7669 61.1769 29.4817 61.2349 29.1933 61.2371ZM32.3519 49.5762C31.7417 49.6963 31.1761 49.9816 30.7169 50.4011C29.9876 50.9791 29.2974 51.6048 28.6508 52.274C28.2938 52.6121 28.0016 53.0126 27.7887 53.4557C27.5799 54.111 27.5314 54.8068 27.6474 55.4846C27.6474 55.6853 27.6474 55.9454 27.6995 56.2279C27.7664 57.4764 27.9001 59.7952 28.7845 60.3452C28.9422 60.4298 29.1184 60.474 29.2974 60.474C29.4763 60.474 29.6525 60.4298 29.8102 60.3452C30.0061 60.263 30.1775 60.1315 30.3077 59.9635C30.438 59.7955 30.5226 59.5968 30.5534 59.3865C30.6497 59.0735 30.7898 58.7758 30.9696 58.5021C31.3479 58.0363 31.8252 57.6605 32.3668 57.4021C32.9129 57.1593 33.3755 56.7613 33.6971 56.2576C33.7693 56.1535 33.801 56.0266 33.7863 55.9008C33.7863 55.7522 33.5188 55.6259 33.2958 55.6556C33.025 55.719 32.7714 55.8407 32.5526 56.0123L32.4634 56.0792C32.4229 56.1065 32.3774 56.1256 32.3295 56.1354C32.2817 56.1451 32.2323 56.1453 32.1844 56.136C32.1364 56.1267 32.0907 56.108 32.05 56.0811C32.0092 56.0541 31.9742 56.0194 31.9469 55.9789C31.9196 55.9384 31.9005 55.8929 31.8907 55.845C31.881 55.7971 31.8808 55.7478 31.8901 55.6998C31.8994 55.6519 31.9181 55.6062 31.945 55.5655C31.972 55.5247 32.0067 55.4897 32.0472 55.4624L32.129 55.4029C32.4863 55.1513 32.7646 54.8034 32.9316 54.3996C33.0059 54.2138 32.9985 54.1469 32.9911 54.1246C32.9625 54.0908 32.9253 54.0653 32.8834 54.0509C32.8416 54.0365 32.7966 54.0337 32.7533 54.0428C32.5609 54.0858 32.379 54.1667 32.2182 54.2807L31.4006 54.786C31.3188 54.8412 31.2185 54.8617 31.1216 54.8428C31.0247 54.824 30.9393 54.7675 30.8841 54.6857C30.8289 54.6039 30.8085 54.5035 30.8273 54.4067C30.8461 54.3098 30.9026 54.2244 30.9844 54.1692C31.6946 53.6518 32.2601 52.9609 32.6269 52.1625C32.7235 51.9396 32.7161 51.8578 32.7087 51.8281C32.7012 51.7984 32.4485 51.724 32.2107 51.8281C32.0297 51.8864 31.8553 51.9636 31.6905 52.0585C31.483 52.2599 31.2593 52.4438 31.0216 52.6084C30.9494 52.6624 30.8594 52.687 30.7698 52.6774C30.6802 52.6677 30.5976 52.6245 30.5385 52.5564C30.4774 52.4894 30.4435 52.4019 30.4435 52.3112C30.4435 52.2204 30.4774 52.133 30.5385 52.0659C30.7407 51.8321 30.9761 51.6293 31.2371 51.4639C31.7619 50.9348 32.1518 50.2874 32.3742 49.5762H32.3519Z" fill="#231F20"/>
<path d="M59.5678 54.0726C59.4638 52.6457 59.0253 51.0998 57.7916 50.3566C57.4089 50.1435 56.9799 50.0274 56.5421 50.0183C56.1042 50.0093 55.6707 50.1075 55.2796 50.3046C55.2073 50.3318 55.142 50.3745 55.088 50.4297C55.0341 50.4849 54.9929 50.5513 54.9674 50.6241C54.9228 50.8471 55.1309 51.0329 55.3242 51.1518C55.7322 51.4026 56.1757 51.5905 56.6396 51.7092C56.2632 51.6745 55.8852 51.7574 55.5578 51.9464C55.2304 52.1354 54.9696 52.4212 54.8114 52.7646C55.2691 53.3089 55.9127 53.6638 56.6173 53.7605C56.3851 53.7017 56.1407 53.7126 55.9147 53.7919C55.6887 53.8712 55.491 54.0154 55.3465 54.2064C54.8857 54.8455 55.2499 55.0239 55.7552 55.4104C55.5333 55.3608 55.3013 55.3843 55.0938 55.4773C54.9917 55.5218 54.9053 55.5958 54.8457 55.6898C54.7861 55.7839 54.756 55.8936 54.7593 56.0049C54.7593 56.4137 55.3093 56.5475 55.666 56.7481C55.9571 56.9123 56.1789 57.1763 56.2903 57.4913C56.3316 57.6671 56.3888 57.8388 56.4613 58.0042C57.2045 59.2379 58.7429 58.2123 59.1219 57.3501C59.5245 56.3074 59.6772 55.1849 59.5678 54.0726Z" fill="white"/>
<path d="M57.3828 58.9627C57.1283 58.9615 56.8788 58.8918 56.6605 58.7611C56.4421 58.6303 56.2629 58.4433 56.1417 58.2195C56.0704 58.0854 56.0155 57.9431 55.9782 57.7959C55.9667 57.7429 55.9518 57.6908 55.9336 57.6398C55.8549 57.4072 55.6935 57.2115 55.4802 57.0898L55.2498 56.9709C54.9005 56.8074 54.4323 56.5845 54.3877 56.0568C54.3765 55.8733 54.4199 55.6907 54.5125 55.5319C54.6051 55.3732 54.7427 55.2455 54.908 55.1649C54.7222 54.89 54.6701 54.5258 55.0417 54.0055C55.1171 53.8948 55.2071 53.7948 55.3093 53.7083C55.0299 53.5321 54.7792 53.314 54.5661 53.0617C54.519 53.0089 54.4883 52.9435 54.4777 52.8736C54.4672 52.8036 54.4772 52.7321 54.5066 52.6678C54.6948 52.2452 55.0158 51.8955 55.4208 51.6719L55.1606 51.5232C54.6032 51.1814 54.5884 50.78 54.633 50.6017C54.6697 50.476 54.7333 50.3597 54.8192 50.2609C54.9052 50.1622 55.0115 50.0832 55.1309 50.0294C55.5783 49.8023 56.0748 49.689 56.5764 49.6993C57.0781 49.7097 57.5695 49.8435 58.0071 50.0888C59.4489 50.9212 59.8726 52.7198 59.9692 54.0873C60.0773 55.2581 59.9145 56.438 59.4935 57.5358C59.2966 57.9264 59.005 58.2616 58.6455 58.5108C58.2859 58.76 57.8698 58.9154 57.4348 58.9627H57.3828ZM55.5099 55.7595C55.4227 55.755 55.3357 55.7729 55.2573 55.8115C55.2237 55.8243 55.1939 55.8453 55.1706 55.8726C55.1472 55.8998 55.131 55.9325 55.1235 55.9676C55.1235 56.0791 55.3613 56.1906 55.5694 56.2872L55.8518 56.4284C56.2198 56.641 56.4993 56.9786 56.6396 57.3797C56.6396 57.4466 56.6396 57.5135 56.6991 57.5804C56.7161 57.6685 56.7462 57.7537 56.7883 57.833C56.8417 57.9557 56.9319 58.0587 57.0464 58.1279C57.1609 58.1971 57.294 58.2291 57.4274 58.2195C57.7156 58.1695 57.988 58.0527 58.2229 57.8785C58.4578 57.7042 58.6486 57.4774 58.78 57.2162C59.1541 56.2312 59.2965 55.1733 59.1962 54.1244C59.1145 52.9428 58.7652 51.3895 57.6058 50.7206C57.2796 50.5315 56.9108 50.4283 56.5339 50.4205C56.157 50.4127 55.7842 50.5006 55.4505 50.676C55.409 50.6977 55.3693 50.7225 55.3316 50.7503C55.3316 50.7503 55.3985 50.8023 55.5174 50.8692C55.896 51.1014 56.3067 51.2767 56.7362 51.3895C56.8348 51.4082 56.9219 51.4653 56.9783 51.5482C57.0348 51.6312 57.056 51.7331 57.0372 51.8317C57.0185 51.9302 56.9614 52.0173 56.8785 52.0737C56.7955 52.1302 56.6936 52.1514 56.595 52.1327C56.3394 52.1138 56.0833 52.1614 55.8515 52.2708C55.6197 52.3802 55.4201 52.5477 55.2721 52.757C55.6563 53.1139 56.142 53.3425 56.6619 53.411C56.7107 53.4168 56.7579 53.4322 56.8007 53.4563C56.8436 53.4804 56.8812 53.5127 56.9116 53.5513C56.942 53.59 56.9644 53.6342 56.9777 53.6816C56.991 53.7289 56.9948 53.7784 56.9889 53.8272C56.9831 53.876 56.9677 53.9231 56.9436 53.966C56.9195 54.0088 56.8872 54.0465 56.8485 54.0769C56.8099 54.1072 56.7657 54.1297 56.7183 54.143C56.671 54.1562 56.6215 54.16 56.5727 54.1542C56.1045 54.0947 55.8295 54.1542 55.6512 54.444C55.4728 54.7339 55.4505 54.7339 55.8518 55.0386L55.9856 55.1352C56.0511 55.1848 56.0984 55.2548 56.1199 55.3342C56.1414 55.4135 56.136 55.4978 56.1045 55.5737C56.0734 55.6513 56.0165 55.7158 55.9434 55.7564C55.8703 55.797 55.7855 55.8112 55.7032 55.7967L55.5099 55.7595Z" fill="#231F20"/>
</svg>
