<svg width="211" height="155" viewBox="0 0 211 155" fill="none" xmlns="http://www.w3.org/2000/svg">
<path d="M208.196 133.346H0.845619C0.753955 133.346 0.666045 133.309 0.601229 133.245C0.536413 133.18 0.5 133.093 0.5 133.001C0.5 132.91 0.536413 132.822 0.601229 132.758C0.666045 132.693 0.753955 132.657 0.845619 132.657H208.217C208.308 132.659 208.395 132.695 208.459 132.76C208.524 132.824 208.561 132.91 208.563 133.001C208.563 133.048 208.553 133.095 208.535 133.138C208.516 133.181 208.489 133.22 208.454 133.252C208.42 133.285 208.379 133.31 208.335 133.326C208.291 133.342 208.243 133.349 208.196 133.346Z" fill="#D1D3D4"/>
<path d="M191.351 146.626H65.6281L84.4229 0.473557H210.152L191.351 146.626Z" fill="white"/>
<path d="M191.356 147.006H65.6269C65.5772 147.006 65.5281 146.996 65.4827 146.976C65.4374 146.955 65.397 146.926 65.3642 146.889C65.3326 146.852 65.3089 146.809 65.2946 146.763C65.2803 146.717 65.2758 146.668 65.2813 146.62L84.0691 0.433052C84.0792 0.350211 84.119 0.273818 84.1813 0.218067C84.2436 0.162317 84.3241 0.130997 84.4078 0.12993H210.151C210.201 0.129441 210.25 0.139669 210.295 0.159913C210.341 0.180156 210.381 0.209938 210.414 0.247222C210.447 0.284507 210.471 0.328415 210.486 0.375944C210.5 0.423473 210.504 0.473501 210.497 0.522609L191.695 146.668C191.693 146.757 191.657 146.842 191.594 146.905C191.531 146.968 191.445 147.004 191.356 147.006ZM66.0209 146.317H191.045L209.757 0.818841H84.7604L66.0209 146.317Z" fill="#231F20"/>
<path d="M191.903 18.2748H112.203C111.808 18.2851 111.414 18.2082 111.052 18.0495C110.689 17.8908 110.366 17.6542 110.106 17.3568C109.846 17.0593 109.655 16.7082 109.547 16.3287C109.438 15.9491 109.416 15.5503 109.48 15.1609L109.687 13.542C109.814 12.6934 110.237 11.9165 110.882 11.3482C111.527 10.7799 112.352 10.4565 113.213 10.435H192.905C193.301 10.4249 193.693 10.5017 194.055 10.66C194.417 10.8183 194.739 11.0542 194.999 11.3509C195.26 11.6475 195.451 11.9977 195.56 12.3764C195.668 12.7552 195.692 13.1531 195.629 13.542L195.415 15.1609C195.29 16.0085 194.869 16.7852 194.227 17.3547C193.585 17.9241 192.762 18.2499 191.903 18.2748Z" fill="#E6E7E8"/>
<path d="M101.028 11.7176H93.9217C93.83 11.7176 93.7421 11.6813 93.6773 11.6167C93.6125 11.5521 93.576 11.4645 93.576 11.3732C93.5778 11.2824 93.6148 11.1958 93.6792 11.1315C93.7437 11.0673 93.8306 11.0305 93.9217 11.0287H101.028C101.119 11.0305 101.206 11.0673 101.27 11.1315C101.334 11.1958 101.371 11.2824 101.373 11.3732C101.373 11.4645 101.337 11.5521 101.272 11.6167C101.207 11.6813 101.119 11.7176 101.028 11.7176Z" fill="#D1D3D4"/>
<path d="M100.659 14.8241H93.518C93.4263 14.8241 93.3384 14.7879 93.2736 14.7233C93.2088 14.6587 93.1724 14.571 93.1724 14.4797C93.1724 14.3883 93.2088 14.3007 93.2736 14.2361C93.3384 14.1715 93.4263 14.1352 93.518 14.1352H100.659C100.75 14.1352 100.838 14.1715 100.903 14.2361C100.968 14.3007 101.004 14.3883 101.004 14.4797C101.004 14.571 100.968 14.6587 100.903 14.7233C100.838 14.7879 100.75 14.8241 100.659 14.8241Z" fill="#D1D3D4"/>
<path d="M100.224 17.9239H93.1253C93.0336 17.9239 92.9457 17.8876 92.8809 17.823C92.816 17.7584 92.7796 17.6708 92.7796 17.5794C92.7796 17.4881 92.816 17.4004 92.8809 17.3358C92.9457 17.2712 93.0336 17.235 93.1253 17.235H100.224C100.316 17.235 100.404 17.2712 100.469 17.3358C100.533 17.4004 100.57 17.4881 100.57 17.5794C100.57 17.6708 100.533 17.7584 100.469 17.823C100.404 17.8876 100.316 17.9239 100.224 17.9239Z" fill="#D1D3D4"/>
<path d="M101.028 11.7176H93.9217C93.83 11.7176 93.7421 11.6813 93.6773 11.6167C93.6125 11.5521 93.576 11.4645 93.576 11.3732C93.5778 11.2824 93.6148 11.1958 93.6792 11.1315C93.7437 11.0673 93.8306 11.0305 93.9217 11.0287H101.028C101.119 11.0305 101.206 11.0673 101.27 11.1315C101.334 11.1958 101.371 11.2824 101.373 11.3732C101.373 11.4645 101.337 11.5521 101.272 11.6167C101.207 11.6813 101.119 11.7176 101.028 11.7176Z" stroke="#231F20" stroke-linecap="round" stroke-linejoin="round"/>
<path d="M100.659 14.8241H93.518C93.4263 14.8241 93.3384 14.7879 93.2736 14.7233C93.2088 14.6587 93.1724 14.571 93.1724 14.4797C93.1724 14.3883 93.2088 14.3007 93.2736 14.2361C93.3384 14.1715 93.4263 14.1352 93.518 14.1352H100.659C100.75 14.1352 100.838 14.1715 100.903 14.2361C100.968 14.3007 101.004 14.3883 101.004 14.4797C101.004 14.571 100.968 14.6587 100.903 14.7233C100.838 14.7879 100.75 14.8241 100.659 14.8241Z" stroke="#231F20" stroke-linecap="round" stroke-linejoin="round"/>
<path d="M100.224 17.9239H93.1253C93.0336 17.9239 92.9457 17.8876 92.8809 17.823C92.816 17.7584 92.7796 17.6708 92.7796 17.5794C92.7796 17.4881 92.816 17.4004 92.8809 17.3358C92.9457 17.2712 93.0336 17.235 93.1253 17.235H100.224C100.316 17.235 100.404 17.2712 100.469 17.3358C100.533 17.4004 100.57 17.4881 100.57 17.5794C100.57 17.6708 100.533 17.7584 100.469 17.823C100.404 17.8876 100.316 17.9239 100.224 17.9239Z" stroke="#231F20" stroke-linecap="round" stroke-linejoin="round"/>
<path d="M186.811 56.5315H94.7932C93.7699 56.5585 92.7531 56.3604 91.8153 55.9514C90.8774 55.5423 90.0416 54.9323 89.3671 54.1648C88.6926 53.3972 88.1962 52.491 87.913 51.5105C87.6299 50.53 87.567 49.4994 87.7288 48.4919L89.2426 36.7047C89.5614 34.496 90.6534 32.4708 92.3257 30.987C93.9979 29.5032 96.1426 28.6563 98.3808 28.5962H190.405C191.429 28.5747 192.445 28.778 193.38 29.1917C194.316 29.6054 195.149 30.2194 195.82 30.99C196.491 31.7607 196.984 32.6691 197.263 33.6508C197.542 34.6325 197.601 35.6633 197.435 36.6702L195.949 48.4919C195.617 50.6886 194.519 52.6985 192.848 54.1686C191.176 55.6388 189.039 56.4754 186.811 56.5315Z" fill="white"/>
<path d="M186.808 56.8749H94.7908C93.724 56.8963 92.6651 56.6875 91.6868 56.263C90.7085 55.8386 89.8338 55.2083 89.1226 54.4155C88.4156 53.5994 87.8939 52.6408 87.5933 51.6051C87.2926 50.5694 87.2201 49.4812 87.3807 48.4151L88.9084 36.6278C89.2471 34.3448 90.382 32.2537 92.1138 30.7218C93.8456 29.1898 96.0636 28.3149 98.3783 28.2506H190.403C191.466 28.2332 192.521 28.4437 193.495 28.8681C194.469 29.2924 195.341 29.9206 196.05 30.7101C196.757 31.5276 197.279 32.4875 197.579 33.5242C197.88 34.5609 197.952 35.6501 197.792 36.7174L196.292 48.4908C195.953 50.7768 194.817 52.8705 193.082 54.4039C191.348 55.9373 189.126 56.8122 186.808 56.8749ZM98.3783 28.9396C96.2316 29.0023 94.1755 29.816 92.5704 31.2381C90.9653 32.6602 89.9136 34.5999 89.5996 36.7174L88.065 48.4908C87.92 49.4597 87.9857 50.4484 88.2576 51.3898C88.5295 52.3311 89.0013 53.2033 89.6411 53.947C90.288 54.6656 91.0831 55.2365 91.9719 55.6206C92.8607 56.0046 93.8223 56.1928 94.7908 56.1722H186.808C188.957 56.1142 191.016 55.3034 192.624 53.8822C194.232 52.4609 195.286 50.5203 195.601 48.4013L197.122 36.614C197.267 35.644 197.201 34.6543 196.929 33.7118C196.657 32.7693 196.186 31.896 195.546 31.151C194.899 30.4336 194.105 29.8634 193.218 29.4795C192.33 29.0955 191.37 28.9066 190.403 28.9258L98.3783 28.9396Z" fill="#231F20"/>
<path d="M112.982 49.1934C117.161 45.2862 117.754 39.1495 114.306 35.4866C110.859 31.8237 104.676 32.0218 100.497 35.929C96.3176 39.8362 95.7245 45.973 99.1722 49.6359C102.62 53.2988 108.803 53.1007 112.982 49.1934Z" fill="#FF7B02"/>
<path d="M113.395 39.48C113.32 39.5787 113.239 39.673 113.153 39.7625L104.893 47.0512C104.609 47.2992 104.416 47.3061 104.201 47.0512L100.662 42.8075C100.469 42.5778 100.503 42.3482 100.766 42.1186L101.92 41.1954C102.162 41.0025 102.363 41.0025 102.542 41.1954L104.658 43.6686C104.879 43.9235 105.066 43.9304 105.349 43.6686L111.722 38.0747C111.999 37.8335 112.192 37.8335 112.413 38.0747C112.635 38.3158 112.98 38.7153 113.257 39.0391C113.319 39.1218 113.36 39.2251 113.416 39.3147L113.395 39.48Z" fill="white"/>
<path d="M184.784 38.3296H125.621C125.346 38.3296 125.082 38.2207 124.888 38.0269C124.693 37.8331 124.584 37.5703 124.584 37.2962C124.584 37.0221 124.693 36.7593 124.888 36.5655C125.082 36.3717 125.346 36.2628 125.621 36.2628H184.784C185.059 36.2628 185.323 36.3717 185.517 36.5655C185.712 36.7593 185.821 37.0221 185.821 37.2962C185.821 37.5703 185.712 37.8331 185.517 38.0269C185.323 38.2207 185.059 38.3296 184.784 38.3296Z" fill="#E6E7E8"/>
<path d="M171.443 48.271H124.342C124.067 48.271 123.803 48.1621 123.609 47.9684C123.414 47.7746 123.305 47.5117 123.305 47.2377C123.305 46.9636 123.414 46.7007 123.609 46.5069C123.803 46.3132 124.067 46.2043 124.342 46.2043H171.443C171.718 46.2043 171.982 46.3132 172.176 46.5069C172.37 46.7007 172.48 46.9636 172.48 47.2377C172.48 47.5117 172.37 47.7746 172.176 47.9684C171.982 48.1621 171.718 48.271 171.443 48.271Z" fill="#E6E7E8"/>
<path d="M182.648 88.848H90.6301C89.6037 88.8747 88.584 88.6752 87.6439 88.2637C86.7038 87.8523 85.8664 87.239 85.1916 86.4677C84.5167 85.6965 84.0211 84.7862 83.7401 83.802C83.459 82.8178 83.3994 81.7838 83.5657 80.774L85.0864 68.9867C85.4082 66.7806 86.5015 64.7586 88.1734 63.2775C89.8454 61.7965 91.9885 60.9516 94.2246 60.892H186.242C187.269 60.8679 188.288 61.07 189.228 61.484C190.167 61.8981 191.003 62.5137 191.676 63.287C192.349 64.0603 192.842 64.9722 193.12 65.9575C193.399 66.9427 193.455 67.9771 193.286 68.9867L191.772 80.774C191.448 82.9747 190.355 84.9908 188.686 86.4676C187.017 87.9445 184.879 88.7874 182.648 88.848Z" fill="white"/>
<path d="M182.654 89.1925H90.6293C89.5642 89.2138 88.507 89.0057 87.53 88.5824C86.553 88.1591 85.6791 87.5307 84.9681 86.74C84.2617 85.9222 83.7404 84.9623 83.4398 83.9257C83.1393 82.889 83.0664 81.8 83.2262 80.7327L84.7607 68.9455C85.1026 66.662 86.2406 64.5716 87.9748 63.0409C89.7091 61.5103 91.9288 60.6373 94.2445 60.5752H186.241C187.308 60.5539 188.366 60.7619 189.344 61.1851C190.322 61.6084 191.197 62.2369 191.91 63.0277C192.615 63.8462 193.135 64.8062 193.436 65.8426C193.736 66.8791 193.81 67.9678 193.651 69.035L192.131 80.8223C191.79 83.1051 190.654 85.1955 188.921 86.7262C187.188 88.2569 184.969 89.1301 182.654 89.1925ZM94.2238 61.2641C92.0797 61.3295 90.0268 62.1434 88.4235 63.5637C86.8202 64.9841 85.7685 66.9205 85.4519 69.035L83.9381 80.8223C83.793 81.7922 83.8586 82.782 84.1305 83.7245C84.4024 84.667 84.8743 85.5403 85.5142 86.2853C86.161 87.0018 86.9552 87.5709 87.8427 87.9537C88.7302 88.3365 89.6901 88.5241 90.657 88.5036H182.654C184.802 88.4443 186.861 87.633 188.468 86.212C190.076 84.791 191.13 82.8511 191.446 80.7327L192.96 68.9455C193.109 67.9754 193.045 66.9849 192.772 66.0419C192.5 65.0989 192.027 64.2257 191.384 63.4824C190.738 62.7655 189.943 62.1962 189.056 61.8134C188.168 61.4305 187.208 61.2432 186.241 61.2641H94.2238Z" fill="#231F20"/>
<path d="M101.351 84.9271C100.08 84.9519 98.8195 84.7025 97.655 84.1959C96.4905 83.6893 95.4497 82.9376 94.6042 81.9923C93.7643 81.0183 93.1444 79.8756 92.7866 78.6417C92.4288 77.4079 92.3414 76.1118 92.5305 74.8414C92.9333 72.1121 94.29 69.6121 96.3614 67.7821C98.4328 65.9521 101.086 64.9097 103.853 64.8384C105.124 64.8131 106.385 65.0616 107.551 65.5669C108.716 66.0722 109.759 66.8225 110.606 67.7663C111.447 68.7412 112.068 69.885 112.425 71.1201C112.783 72.3552 112.87 73.6526 112.68 74.9241C112.277 77.6546 110.919 80.1554 108.846 81.9856C106.774 83.8157 104.119 84.8574 101.351 84.9271ZM103.846 65.5273C101.249 65.5995 98.7598 66.5808 96.8159 68.299C94.8719 70.0172 93.597 72.3627 93.2148 74.9241C93.0354 76.1021 93.1136 77.3048 93.4441 78.4499C93.7746 79.595 94.3495 80.6553 95.1295 81.5583C95.9101 82.4285 96.8701 83.1203 97.9438 83.5864C99.0176 84.0525 100.18 84.2819 101.351 84.2588C103.949 84.1882 106.44 83.2077 108.385 81.4894C110.33 79.771 111.606 77.4246 111.989 74.8621C112.167 73.6867 112.089 72.4869 111.76 71.3444C111.43 70.2019 110.858 69.1436 110.081 68.2417C109.298 67.3664 108.334 66.6707 107.255 66.2021C106.176 65.7336 105.009 65.5034 103.832 65.5273H103.846Z" fill="#D1D3D4"/>
<path d="M109.238 71.7977C109.162 71.8964 109.082 71.9907 108.996 72.0801L100.735 79.3688C100.445 79.6168 100.251 79.6237 100.044 79.3688L96.4704 75.132C96.2768 74.9047 96.3183 74.6842 96.581 74.4431L97.7353 73.52C97.9773 73.3271 98.1777 73.3271 98.3505 73.52L100.473 75.9932C100.694 76.2549 100.88 76.2549 101.164 75.9932L107.585 70.351C107.862 70.1099 108.049 70.1099 108.277 70.351C108.505 70.5921 108.837 70.9917 109.113 71.3223C109.176 71.4068 109.232 71.4967 109.279 71.591L109.238 71.7977Z" fill="white"/>
<path d="M180.63 70.6468H121.467C121.192 70.6468 120.928 70.5379 120.734 70.3441C120.539 70.1503 120.43 69.8875 120.43 69.6134C120.43 69.3394 120.539 69.0765 120.734 68.8827C120.928 68.6889 121.192 68.5801 121.467 68.5801H180.63C180.905 68.5801 181.169 68.6889 181.363 68.8827C181.558 69.0765 181.667 69.3394 181.667 69.6134C181.667 69.8875 181.558 70.1503 181.363 70.3441C181.169 70.5379 180.905 70.6468 180.63 70.6468Z" fill="#E6E7E8"/>
<path d="M167.282 80.5883H120.188C119.913 80.5883 119.649 80.4794 119.455 80.2856C119.26 80.0918 119.151 79.8289 119.151 79.5549C119.151 79.2808 119.26 79.018 119.455 78.8242C119.649 78.6304 119.913 78.5215 120.188 78.5215H167.282C167.557 78.5215 167.821 78.6304 168.015 78.8242C168.21 79.018 168.319 79.2808 168.319 79.5549C168.319 79.8289 168.21 80.0918 168.015 80.2856C167.821 80.4794 167.557 80.5883 167.282 80.5883Z" fill="#E6E7E8"/>
<path d="M178.494 121.165H86.4763C85.4498 121.191 84.4302 120.992 83.49 120.58C82.5499 120.169 81.7126 119.556 81.0377 118.784C80.3629 118.013 79.8673 117.103 79.5862 116.119C79.3051 115.134 79.2456 114.1 79.4118 113.091L80.9256 101.31C81.2582 99.1123 82.3573 97.1016 84.0298 95.6313C85.7023 94.161 87.8412 93.3251 90.0707 93.2706H182.088C183.11 93.2469 184.125 93.4473 185.06 93.8576C185.996 94.268 186.829 94.8783 187.502 95.6453C188.175 96.4123 188.67 97.3173 188.953 98.2962C189.236 99.2752 189.299 100.304 189.139 101.31L187.618 113.091C187.294 115.291 186.201 117.307 184.532 118.784C182.863 120.261 180.725 121.104 178.494 121.165Z" fill="white"/>
<path d="M178.494 121.516H86.4759C85.4106 121.538 84.3532 121.33 83.376 120.907C82.3988 120.484 81.5251 119.855 80.8146 119.063C80.107 118.246 79.5845 117.286 79.2827 116.25C78.9809 115.213 78.907 114.124 79.0658 113.056L80.6142 101.262C80.9548 98.9777 82.0924 96.8865 83.8269 95.3556C85.5614 93.8248 87.7819 92.9523 90.098 92.8915H182.088C183.154 92.8675 184.212 93.0736 185.191 93.4957C186.169 93.9179 187.044 94.5461 187.756 95.3371C188.463 96.1549 188.984 97.1148 189.284 98.1514C189.585 99.1881 189.658 100.277 189.498 101.344L187.984 113.132C187.646 115.419 186.509 117.515 184.773 119.048C183.037 120.582 180.813 121.456 178.494 121.516ZM90.0703 93.5804C87.9274 93.6474 85.8762 94.462 84.2743 95.8822C82.6725 97.3024 81.6218 99.238 81.3054 101.351L79.7916 113.139C79.6432 114.109 79.7073 115.099 79.9793 116.042C80.2514 116.985 80.725 117.858 81.3676 118.602C82.0142 119.318 82.8084 119.888 83.6959 120.271C84.5835 120.653 85.5435 120.841 86.5105 120.82H178.494C180.642 120.761 182.702 119.95 184.311 118.529C185.92 117.108 186.976 115.168 187.293 113.049L188.807 101.262C188.955 100.292 188.891 99.3012 188.619 98.3582C188.347 97.4152 187.873 96.542 187.231 95.7987C186.584 95.0818 185.79 94.5125 184.903 94.1297C184.015 93.7468 183.055 93.5595 182.088 93.5804H90.0703Z" fill="#231F20"/>
<path d="M97.205 117.246C95.9346 117.27 94.6738 117.021 93.5093 116.514C92.3448 116.008 91.304 115.256 90.4585 114.311C89.6186 113.337 88.9987 112.194 88.6409 110.96C88.2831 109.726 88.1958 108.43 88.3848 107.16C88.7877 104.431 90.1444 101.931 92.2157 100.101C94.2871 98.2707 96.9401 97.2282 99.7072 97.157C100.979 97.132 102.24 97.3814 103.406 97.8879C104.572 98.3945 105.614 99.1463 106.461 100.092C107.301 101.066 107.92 102.208 108.278 103.442C108.636 104.676 108.723 105.972 108.534 107.243C108.131 109.973 106.774 112.474 104.701 114.304C102.628 116.134 99.9733 117.176 97.205 117.246ZM99.7003 97.8459C97.1018 97.9165 94.6113 98.897 92.6659 100.615C90.7206 102.334 89.4446 104.68 89.0622 107.243C88.8859 108.417 88.9656 109.616 89.2961 110.757C89.6265 111.899 90.1998 112.956 90.9769 113.856C91.7575 114.726 92.7175 115.418 93.7912 115.884C94.865 116.35 96.0271 116.58 97.1981 116.557C99.7966 116.486 102.287 115.506 104.232 113.787C106.178 112.069 107.454 109.722 107.836 107.16C108.013 105.986 107.935 104.787 107.606 103.646C107.276 102.505 106.704 101.448 105.928 100.546C105.144 99.6733 104.18 98.9799 103.101 98.5137C102.022 98.0475 100.855 97.8197 99.6796 97.8459H99.7003Z" fill="#D1D3D4"/>
<path d="M105.075 104.122C105.004 104.221 104.923 104.314 104.834 104.397C102.069 106.827 99.3152 109.256 96.5732 111.686C96.2898 111.941 96.0963 111.941 95.882 111.686L92.3083 107.449C92.1148 107.222 92.1562 107.001 92.4189 106.795L93.5733 105.865C93.8152 105.672 94.0088 105.672 94.1885 105.865C94.8935 106.691 95.6009 107.516 96.3106 108.338C96.5249 108.6 96.7184 108.6 97.0018 108.338L103.417 102.689C103.693 102.448 103.887 102.448 104.108 102.689C104.329 102.93 104.668 103.329 104.944 103.66C105.008 103.743 105.061 103.833 105.103 103.929L105.075 104.122Z" fill="white"/>
<path d="M176.475 102.964H117.305C117.03 102.964 116.766 102.855 116.572 102.661C116.377 102.468 116.268 102.205 116.268 101.931C116.268 101.657 116.377 101.394 116.572 101.2C116.766 101.006 117.03 100.897 117.305 100.897H176.475C176.75 100.897 177.014 101.006 177.208 101.2C177.403 101.394 177.512 101.657 177.512 101.931C177.512 102.205 177.403 102.468 177.208 102.661C177.014 102.855 176.75 102.964 176.475 102.964Z" fill="#E6E7E8"/>
<path d="M163.13 112.904H116.029C115.754 112.904 115.49 112.795 115.295 112.601C115.101 112.408 114.992 112.145 114.992 111.871C114.992 111.597 115.101 111.334 115.295 111.14C115.49 110.946 115.754 110.837 116.029 110.837H163.13C163.405 110.837 163.668 110.946 163.863 111.14C164.057 111.334 164.166 111.597 164.166 111.871C164.166 112.145 164.057 112.408 163.863 112.601C163.668 112.795 163.405 112.904 163.13 112.904Z" fill="#E6E7E8"/>
<path d="M173.053 139.318C172.981 139.317 172.911 139.296 172.852 139.256L167.46 135.515C167.413 135.482 167.374 135.437 167.349 135.386C167.324 135.334 167.312 135.276 167.315 135.219C167.318 135.162 167.335 135.106 167.364 135.057C167.393 135.008 167.433 134.967 167.481 134.936L173.841 131.195C173.88 131.167 173.924 131.147 173.972 131.137C174.019 131.127 174.068 131.127 174.115 131.137C174.162 131.147 174.207 131.167 174.246 131.195C174.285 131.223 174.318 131.259 174.343 131.301C174.367 131.342 174.382 131.389 174.387 131.437C174.393 131.485 174.388 131.533 174.373 131.579C174.358 131.625 174.334 131.667 174.302 131.703C174.27 131.739 174.23 131.768 174.186 131.788L168.297 135.232L173.246 138.677C173.306 138.719 173.351 138.778 173.375 138.847C173.399 138.916 173.4 138.991 173.379 139.061C173.357 139.13 173.314 139.192 173.255 139.235C173.197 139.279 173.126 139.303 173.053 139.304V139.318Z" fill="#D1D3D4"/>
<path d="M177.692 139.318C177.616 139.318 177.542 139.294 177.481 139.249C177.421 139.203 177.377 139.139 177.356 139.066C177.336 138.993 177.34 138.915 177.368 138.845C177.397 138.775 177.447 138.716 177.513 138.677L183.402 135.232L178.453 131.788C178.378 131.735 178.327 131.654 178.311 131.564C178.296 131.473 178.317 131.381 178.37 131.306C178.423 131.231 178.504 131.18 178.595 131.164C178.685 131.149 178.779 131.17 178.854 131.223L184.238 134.964C184.286 134.998 184.324 135.042 184.35 135.094C184.377 135.145 184.391 135.202 184.391 135.26C184.387 135.318 184.37 135.373 184.34 135.423C184.309 135.472 184.268 135.513 184.218 135.542L177.865 139.283C177.812 139.31 177.752 139.322 177.692 139.318Z" fill="#D1D3D4"/>
<path d="M43.1514 77.9766C43.1514 77.9766 48.9855 88.2138 54.6398 89.1369C61.6144 90.2805 71.8378 84.1492 71.8378 84.1492L66.1005 78.5346L54.3495 78.4933L47.921 65.404L43.1514 77.9766Z" fill="#FF7B02"/>
<path d="M52.6974 144.733L53.126 149.142L59.2988 148.666L58.7181 143.369L52.6974 144.733Z" fill="white"/>
<path d="M53.1238 149.486C53.0386 149.486 52.9564 149.454 52.8936 149.397C52.8308 149.339 52.7921 149.26 52.7851 149.176L52.3496 144.767C52.3424 144.683 52.3656 144.599 52.4151 144.531C52.4645 144.462 52.537 144.414 52.6192 144.395L58.6399 143.017C58.6873 143.006 58.7364 143.006 58.7839 143.016C58.8315 143.025 58.8766 143.044 58.9164 143.072C58.9565 143.101 58.99 143.138 59.015 143.181C59.04 143.223 59.0558 143.271 59.0616 143.32L59.6422 148.611C59.6489 148.657 59.6456 148.705 59.6325 148.75C59.6194 148.795 59.5968 148.837 59.5662 148.872C59.5049 148.944 59.4181 148.988 59.3242 148.996L53.1515 149.472L53.1238 149.486ZM53.0685 145.001L53.4349 148.776L58.9164 148.349L58.4187 143.788L53.0685 145.001Z" fill="#231F20"/>
<path d="M9.45198 134.963L5.49118 138.104L7.7308 142.334L11.6847 140.591L9.45198 134.963Z" fill="white"/>
<path d="M7.73144 142.679C7.66911 142.68 7.60774 142.664 7.55408 142.632C7.50041 142.601 7.45654 142.555 7.42729 142.5L5.18768 138.263C5.14807 138.193 5.13534 138.111 5.15187 138.033C5.16841 137.954 5.21308 137.884 5.27754 137.836L9.23142 134.695C9.27414 134.662 9.32343 134.639 9.37593 134.627C9.42843 134.615 9.48289 134.615 9.53557 134.626C9.58808 134.64 9.63662 134.666 9.67739 134.702C9.71817 134.738 9.75006 134.782 9.77059 134.832L12.0102 140.468C12.0425 140.551 12.0411 140.644 12.0062 140.726C11.9714 140.808 11.9059 140.874 11.8236 140.909L7.8766 142.652C7.83065 142.671 7.78122 142.68 7.73144 142.679ZM5.96187 138.194L7.92498 141.894L11.2775 140.413L9.33511 135.521L5.96187 138.194Z" fill="#231F20"/>
<path d="M21.3613 94.8274L21.7761 123.011L7.95132 134.943L10.7992 141.963C10.7992 141.963 30.9004 132.318 34.0317 127.978C37.163 123.638 37.6331 113.125 37.6331 113.125L47.9394 123.459L51.8933 145.834L59.7596 145.407C59.7596 145.407 58.7573 128.991 58.7573 122.894C58.7573 116.797 43.1768 95.8264 43.1768 95.8264L21.3613 94.8274Z" fill="#231F20"/>
<path d="M51.9145 146.157C51.8335 146.158 51.7547 146.13 51.6926 146.079C51.6305 146.027 51.589 145.954 51.5758 145.875L47.6357 123.582L37.9584 113.896C37.7856 116.424 37.0321 124.408 34.3432 128.156C31.1912 132.537 11.8019 141.858 10.9794 142.251C10.9357 142.27 10.8886 142.279 10.8411 142.279C10.7936 142.279 10.7466 142.27 10.7029 142.251C10.6587 142.235 10.6186 142.209 10.5852 142.175C10.5518 142.142 10.526 142.102 10.5093 142.058L7.66834 135.031C7.64168 134.966 7.63599 134.893 7.65208 134.824C7.66816 134.755 7.70522 134.693 7.7582 134.646L21.424 122.893L21.0161 94.8609C21.0155 94.8147 21.0243 94.7689 21.0422 94.7262C21.06 94.6836 21.0864 94.645 21.1198 94.6129C21.1523 94.5785 21.1922 94.5519 21.2365 94.5352C21.2808 94.5185 21.3284 94.5121 21.3756 94.5165L43.2118 95.4947C43.2633 95.4958 43.3139 95.5088 43.3595 95.5327C43.4051 95.5566 43.4444 95.5908 43.4745 95.6325C44.1173 96.4937 59.1241 116.761 59.1241 122.907C59.1241 128.921 60.1126 145.234 60.1264 145.399C60.1303 145.49 60.0985 145.579 60.0379 145.647C59.9773 145.715 59.8926 145.758 59.8015 145.765L51.9352 146.192L51.9145 146.157ZM37.6542 112.786C37.7442 112.787 37.8305 112.822 37.8962 112.883L48.2025 123.217C48.2518 123.265 48.2855 123.328 48.2993 123.396L52.2048 145.475L59.4144 145.083C59.2693 142.678 58.4329 128.438 58.4329 122.893C58.4329 117.223 44.3385 97.9473 43.0183 96.163L21.7143 95.2054L22.1221 123.031C22.1217 123.08 22.111 123.129 22.0908 123.174C22.0706 123.219 22.0412 123.259 22.0046 123.292L8.39414 135.038L11.0001 141.493C13.6268 140.219 30.9423 131.711 33.7695 127.777C36.8109 123.554 37.3017 113.214 37.3086 113.11C37.3094 113.043 37.3311 112.978 37.3708 112.923C37.4104 112.869 37.466 112.828 37.5298 112.807C37.5698 112.793 37.6119 112.786 37.6542 112.786Z" fill="#231F20"/>
<path d="M19.9465 97.6184L20.4788 83.792C20.4788 83.792 20.2438 66.7346 26.5271 63.6896C32.8105 60.6446 45.3979 61.9535 47.838 65.405C50.2781 68.8564 44.4924 97.6184 44.4924 97.6184H19.9465Z" fill="#FF7B02"/>
<path d="M46.3833 50.7927C46.3081 49.3373 45.6833 47.9641 44.6344 46.9486C42.4155 44.9577 37.4524 44.193 35.5999 47.1346C35.0023 47.1841 34.437 47.4259 33.9893 47.8235C33.4244 48.377 33.0145 49.0681 32.8004 49.8283C31.7774 52.7492 32.6207 55.8493 33.7543 58.6739C34.0988 59.6346 34.6456 60.5108 35.358 61.2435C37.093 62.89 39.5054 61.9875 41.4478 61.1608C42.7537 60.6445 43.9155 59.8222 44.8349 58.7634C45.9132 57.4476 46.4593 54.9882 46.4731 53.3142C46.4932 52.4727 46.4632 51.6307 46.3833 50.7927Z" fill="white"/>
<path d="M37.7586 62.4685C37.2742 62.4817 36.7921 62.399 36.34 62.2252C35.8879 62.0513 35.475 61.7898 35.125 61.4559C34.3673 60.6941 33.7888 59.774 33.4315 58.7622C32.4084 56.1995 31.3577 52.8445 32.4776 49.6755C32.7133 48.8626 33.1562 48.1245 33.7633 47.533C34.2285 47.1462 34.7989 46.9063 35.4015 46.8441C35.7825 46.3076 36.2746 45.859 36.8447 45.5286C37.4147 45.1981 38.0494 44.9936 38.7056 44.9289C39.8009 44.7955 40.912 44.8862 41.971 45.1954C43.03 45.5045 44.0145 46.0257 44.8645 46.7269C45.9853 47.7912 46.6534 49.2437 46.7309 50.7846C46.8085 51.625 46.8385 52.4691 46.8207 53.3129C46.8207 55.1041 46.2125 57.6255 45.1065 58.9827C44.1536 60.0887 42.9432 60.945 41.5812 61.4765C40.3844 62.0534 39.0857 62.3904 37.7586 62.4685ZM39.6526 45.5214C39.3682 45.5187 39.084 45.5371 38.8024 45.5765C38.2179 45.6334 37.6534 45.8193 37.1501 46.1208C36.6467 46.4223 36.217 46.8317 35.8923 47.3194C35.863 47.3651 35.8233 47.4033 35.7765 47.4308C35.7297 47.4583 35.677 47.4744 35.6227 47.4779C35.1121 47.5152 34.6273 47.7157 34.2402 48.0497C33.7253 48.5658 33.3496 49.2033 33.1481 49.9028C32.1181 52.8514 33.1481 56.0548 34.095 58.5073C34.4166 59.4271 34.9383 60.2646 35.6227 60.9598C37.1434 62.4065 39.2793 61.6487 41.3323 60.8083C42.5903 60.3183 43.7099 59.531 44.595 58.5142C45.5834 57.2948 46.1364 54.9043 46.1502 53.2716C46.1684 52.4553 46.1384 51.6387 46.0604 50.826C45.9991 49.4538 45.4128 48.1571 44.4221 47.2023C43.0762 46.1073 41.39 45.5131 39.6526 45.5214Z" fill="#231F20"/>
<path d="M41.7673 61.8219L41.3387 65.9967C41.3387 65.9967 40.3571 68.2219 37.765 67.1127C37.0225 66.7909 36.384 66.2703 35.9204 65.6087C35.4567 64.9472 35.186 64.1706 35.1383 63.3651L35.9609 55.8835C35.9609 55.8835 38.1452 55.1946 38.3042 50.7304C38.3042 50.7304 40.9032 50.7304 45.0023 50.9233C45.0023 50.9233 45.5691 57.8124 44.8847 59.8378C44.2004 61.8632 41.7673 61.8219 41.7673 61.8219Z" fill="white"/>
<path d="M39.1411 67.7801C38.6211 67.7696 38.1086 67.6548 37.6342 67.4425C36.8286 67.0975 36.1362 66.5345 35.6353 65.8173C35.1344 65.1001 34.8451 64.2575 34.8001 63.3848L35.6227 55.8619C35.6307 55.7966 35.657 55.7348 35.6986 55.6837C35.7401 55.6325 35.7952 55.594 35.8577 55.5726C35.8577 55.5726 37.8208 54.8285 37.966 50.7502C37.9695 50.6612 38.0075 50.5771 38.0719 50.5155C38.1364 50.4538 38.2223 50.4194 38.3116 50.4195C38.3116 50.4195 40.9659 50.4195 45.0235 50.6124C45.1075 50.6138 45.188 50.6464 45.2494 50.7037C45.3107 50.7609 45.3484 50.8389 45.3553 50.9224C45.3553 51.2118 45.9152 57.908 45.217 59.9816C44.9721 60.615 44.5449 61.1621 43.9891 61.5543C43.4332 61.9466 42.7734 62.1663 42.0926 62.1861L41.6917 66.0647C41.6988 66.1011 41.6988 66.1385 41.6917 66.1749C41.4556 66.6502 41.0926 67.0514 40.6426 67.3346C40.1927 67.6177 39.6731 67.7719 39.1411 67.7801ZM36.2932 56.1306L35.4775 63.3986C35.5305 64.132 35.7849 64.8368 36.2128 65.4358C36.6408 66.0348 37.2257 66.505 37.9037 66.7949C39.9775 67.6905 40.8553 66.1956 41.0074 65.9062L41.4291 61.7728C41.4391 61.6881 41.4797 61.6099 41.5433 61.5529C41.6069 61.4959 41.6891 61.4638 41.7747 61.4627C41.8645 61.4627 43.9659 61.4627 44.5396 59.7129C45.1134 57.9631 44.7677 52.5827 44.671 51.2393C41.6088 51.1084 39.4176 51.074 38.6226 51.0602C38.4498 54.6908 36.8669 55.8068 36.2862 56.1168L36.2932 56.1306Z" fill="#231F20"/>
<path d="M37.5643 56.0218C37.5362 55.6371 37.3833 55.272 37.1288 54.9815C36.8807 54.7209 36.5881 54.5063 36.2647 54.3477C36.0991 54.238 35.9094 54.1695 35.7117 54.1479C35.5728 54.1467 35.4347 54.17 35.3039 54.2168C34.9896 54.3134 34.7184 54.5154 34.5366 54.7886C34.4192 55.0261 34.3622 55.2887 34.3707 55.5533C34.3559 55.8399 34.3792 56.1271 34.4399 56.4076C34.5063 56.6846 34.6271 56.9458 34.7954 57.1761C34.9637 57.4063 35.1761 57.601 35.4203 57.749C35.6646 57.897 35.9358 57.9952 36.2184 58.0381C36.5009 58.081 36.7892 58.0677 37.0666 57.9989" fill="white"/>
<path d="M36.5483 58.4113C36.0874 58.4118 35.6353 58.2855 35.2418 58.0462C34.6688 57.6961 34.2586 57.1336 34.1013 56.4824C34.0336 56.1726 34.008 55.8551 34.0252 55.5386C34.0183 55.2179 34.0919 54.9005 34.2395 54.6154C34.4663 54.2811 34.8041 54.0372 35.1934 53.9265C35.3648 53.8591 35.5486 53.8286 35.7326 53.837C35.9789 53.8616 36.2159 53.9442 36.4238 54.0781C36.7825 54.2492 37.1078 54.4825 37.3847 54.767C37.6926 55.1131 37.8752 55.5522 37.9031 56.0139C37.9088 56.1042 37.8787 56.1931 37.8192 56.2614C37.7597 56.3297 37.6756 56.372 37.5851 56.379C37.4942 56.3831 37.4051 56.3527 37.3359 56.2939C37.2666 56.235 37.2223 56.1522 37.2119 56.0621C37.1897 55.7524 37.0686 55.4578 36.8662 55.2217C36.6396 54.9939 36.3784 54.8032 36.092 54.6568C35.9709 54.578 35.8342 54.5263 35.6911 54.5052C35.5964 54.5073 35.5029 54.5259 35.4146 54.5603C35.1784 54.6258 34.9728 54.7722 34.834 54.9737C34.7466 55.1612 34.704 55.3663 34.7096 55.573C34.6926 55.8292 34.7112 56.0866 34.7649 56.3377C34.8829 56.8095 35.1804 57.2171 35.5944 57.4744C36.0102 57.7213 36.5066 57.7955 36.9768 57.6811C37.0685 57.6582 37.1655 57.6726 37.2465 57.7211C37.3275 57.7695 37.3859 57.8481 37.4089 57.9394C37.4318 58.0308 37.4173 58.1275 37.3687 58.2082C37.3201 58.2889 37.2413 58.3471 37.1496 58.37C36.9514 58.4067 36.7497 58.4206 36.5483 58.4113Z" fill="#231F20"/>
<path d="M41.5664 63.8262C40.6709 63.5815 39.8708 63.0723 39.2714 62.3657C39.0229 62.1023 38.8481 61.7786 38.7644 61.4268C38.6807 61.075 38.6911 60.7075 38.7945 60.361C39.1528 60.806 39.6046 61.1674 40.1181 61.4197C40.6317 61.672 41.1944 61.8092 41.7668 61.8214L41.5664 63.8262Z" fill="#231F20"/>
<path d="M41.5672 64.1707H41.4981C40.5314 63.9112 39.6663 63.366 39.0165 62.6069C38.7223 62.2974 38.5166 61.915 38.4206 61.4996C38.3245 61.0841 38.3418 60.6506 38.4704 60.2439C38.4908 60.1867 38.5269 60.1364 38.5745 60.0986C38.6222 60.0609 38.6795 60.0372 38.74 60.0304C38.801 60.0198 38.8638 60.0265 38.9212 60.0496C38.9786 60.0727 39.0284 60.1114 39.0649 60.1613C39.3946 60.5595 39.8055 60.8833 40.2702 61.1114C40.735 61.3394 41.243 61.4664 41.7608 61.484C41.8591 61.4868 41.9527 61.5261 42.0234 61.5942C42.056 61.6306 42.0807 61.6731 42.0961 61.7193C42.1116 61.7655 42.1174 61.8144 42.1133 61.8629L41.9059 63.8676C41.9022 63.9147 41.8886 63.9605 41.8659 64.0021C41.8433 64.0436 41.8122 64.08 41.7746 64.1087C41.7126 64.1483 41.6408 64.1698 41.5672 64.1707ZM39.058 61.1258C39.103 61.5045 39.2676 61.8591 39.5281 62.1385C40.0024 62.6766 40.5966 63.0965 41.2631 63.3647L41.3875 62.1522C40.5211 62.0662 39.7049 61.7066 39.058 61.1258Z" fill="#231F20"/>
<path d="M42.6659 58.1714C42.3335 58.161 42.0056 58.091 41.6982 57.9647C41.6129 57.93 41.545 57.8629 41.5093 57.7783C41.4737 57.6937 41.4732 57.5984 41.5081 57.5134C41.5429 57.4285 41.6102 57.3608 41.6951 57.3253C41.78 57.2897 41.8756 57.2893 41.9608 57.324C42.2441 57.4524 42.5582 57.4979 42.8664 57.4549C42.7241 56.6708 42.4556 55.9147 42.0714 55.2159C42.0311 55.1337 42.0252 55.0389 42.055 54.9523C42.0848 54.8658 42.1479 54.7945 42.2304 54.7543C42.3129 54.7142 42.4081 54.7083 42.4949 54.738C42.5818 54.7677 42.6532 54.8306 42.6935 54.9128C43.9516 57.4618 43.5023 57.8338 43.3848 57.9578C43.1803 58.1159 42.9239 58.1921 42.6659 58.1714Z" fill="#231F20"/>
<path d="M41.6223 59.5688C41.1923 59.5796 40.7695 59.4568 40.4126 59.2175C40.2162 59.0679 40.0533 58.8792 39.9343 58.6633C39.8153 58.4474 39.7428 58.2091 39.7214 57.9637C39.7146 57.9188 39.717 57.873 39.7284 57.829C39.7398 57.785 39.7599 57.7438 39.7877 57.7078C39.8154 57.6718 39.8502 57.6417 39.8899 57.6194C39.9296 57.597 39.9733 57.5829 40.0186 57.5779C40.1083 57.566 40.1991 57.5897 40.2715 57.6438C40.3438 57.6979 40.392 57.7781 40.4057 57.8672C40.4151 58.0217 40.4575 58.1723 40.5303 58.309C40.603 58.4456 40.7043 58.5652 40.8274 58.6595C41.1427 58.8485 41.5144 58.9216 41.8781 58.8662C41.9676 58.8519 42.0593 58.8725 42.1339 58.9238C42.2086 58.9752 42.2606 59.0532 42.279 59.1417C42.2951 59.2312 42.2751 59.3234 42.2233 59.3983C42.1715 59.4731 42.0922 59.5245 42.0025 59.5413C41.8771 59.564 41.7497 59.5733 41.6223 59.5688Z" fill="#231F20"/>
<path d="M41.1312 54.2706C41.0827 54.2701 41.0348 54.2593 40.9908 54.2392C40.9467 54.219 40.9074 54.1898 40.8754 54.1535C40.8172 54.0812 40.7449 54.0214 40.663 53.9776C40.581 53.9338 40.4911 53.9069 40.3984 53.8986C40.1437 53.9168 39.9014 54.0157 39.7072 54.181C39.6742 54.2146 39.6347 54.241 39.5911 54.2587C39.5475 54.2765 39.5007 54.2851 39.4536 54.2842C39.4065 54.2833 39.3601 54.2727 39.3172 54.2533C39.2743 54.2338 39.2359 54.2058 39.2043 54.171C39.1727 54.1362 39.1485 54.0953 39.1333 54.0509C39.1181 54.0064 39.1122 53.9594 39.1159 53.9126C39.1197 53.8658 39.133 53.8202 39.155 53.7787C39.177 53.7372 39.2073 53.7006 39.2441 53.6712C39.5785 53.373 40.0119 53.2086 40.4607 53.2097C40.6455 53.2229 40.8259 53.2729 40.9909 53.357C41.156 53.441 41.3024 53.5572 41.4215 53.6988C41.4808 53.7687 41.5104 53.859 41.504 53.9504C41.4975 54.0417 41.4555 54.127 41.3869 54.1879C41.352 54.218 41.3114 54.2409 41.2674 54.2551C41.2235 54.2693 41.1772 54.2745 41.1312 54.2706Z" fill="#231F20"/>
<path d="M43.2115 54.6913C43.1613 54.7008 43.1097 54.7008 43.0594 54.6913C43.0185 54.6715 42.982 54.6438 42.9518 54.6098C42.9217 54.5759 42.8986 54.5363 42.8838 54.4934C42.869 54.4505 42.8629 54.4052 42.8658 54.3599C42.8686 54.3147 42.8804 54.2704 42.9005 54.2297C42.9748 54.0786 43.0824 53.9463 43.2152 53.8425C43.3481 53.7387 43.5028 53.6662 43.6677 53.6304C43.8806 53.6183 44.0932 53.6593 44.2862 53.7495C44.4793 53.8397 44.6468 53.9763 44.7737 54.1471C44.8061 54.1791 44.8318 54.2172 44.8494 54.2592C44.8669 54.3011 44.876 54.3462 44.876 54.3916C44.876 54.4371 44.8669 54.4821 44.8494 54.5241C44.8318 54.5661 44.8061 54.6042 44.7737 54.6362C44.7091 54.6993 44.6223 54.7347 44.5318 54.7347C44.4413 54.7347 44.3545 54.6993 44.2899 54.6362C44.0894 54.4226 43.9166 54.3124 43.7922 54.3331C43.6677 54.3537 43.5571 54.5191 43.5433 54.5535C43.505 54.6035 43.4542 54.6425 43.3959 54.6667C43.3377 54.6909 43.2741 54.6994 43.2115 54.6913Z" fill="#231F20"/>
<path d="M38.9668 67.6023L36.658 68.739L38.0059 70.5715L34.0037 87.6014L37.7986 91.907L41.1303 86.0651L39.2087 70.5921L40.7363 68.9388L38.9668 67.6023Z" fill="white"/>
<path d="M5.48878 138.105L0.843655 141.246C0.843655 141.246 8.72377 154.584 10.915 151.139C11.5095 150.188 7.72839 142.328 7.72839 142.328L5.48878 138.105Z" fill="#231F20"/>
<path d="M9.96432 152.061C6.92978 152.02 1.21324 142.506 0.570393 141.425C0.525287 141.349 0.510899 141.259 0.530178 141.173C0.549456 141.087 0.600939 141.012 0.674077 140.963L5.27081 137.822C5.31061 137.794 5.35571 137.775 5.40329 137.765C5.45087 137.756 5.4999 137.756 5.54731 137.766C5.59448 137.78 5.63844 137.802 5.67648 137.833C5.71452 137.864 5.74583 137.902 5.7685 137.946L8.03576 142.182C9.19704 144.607 11.8307 150.325 11.2016 151.331C11.079 151.551 10.8997 151.735 10.6823 151.863C10.4648 151.992 10.217 152.06 9.96432 152.061ZM1.31002 141.349C3.13489 144.38 7.78001 151.345 9.95049 151.372C10.0919 151.37 10.2302 151.33 10.3515 151.258C10.4728 151.185 10.5728 151.082 10.6417 150.959C10.8906 150.367 9.17631 146.095 7.43439 142.485L5.36067 138.607L1.31002 141.349Z" fill="#231F20"/>
<path d="M53.0704 149.141C53.0704 149.141 52.9253 154.287 53.3953 154.37C53.8654 154.452 68.5265 152.482 67.4136 151.366C66.3007 150.25 59.2985 148.665 59.2985 148.665L53.0704 149.141Z" fill="#231F20"/>
<path d="M53.3377 154.715C53.0543 154.66 52.5773 154.577 52.7294 149.135C52.7325 149.05 52.7666 148.97 52.8252 148.909C52.8839 148.848 52.9629 148.811 53.0474 148.804L59.2685 148.322H59.3722C60.098 148.487 66.5057 149.961 67.667 151.112C67.7476 151.19 67.8006 151.292 67.8181 151.402C67.8355 151.513 67.8165 151.626 67.7638 151.725C66.9758 153.206 53.6556 154.715 53.3377 154.715ZM53.4068 149.465C53.3305 150.99 53.386 152.518 53.5727 154.033C55.1971 153.992 65.6832 152.359 67.038 151.498C66.0011 150.733 61.9228 149.617 59.2754 149.011L53.4068 149.465Z" fill="#231F20"/>
<path d="M44.9123 95.9641H44.8639C44.8177 95.9591 44.7731 95.9448 44.7325 95.9221C44.692 95.8994 44.6565 95.8689 44.6281 95.8322C44.5997 95.7955 44.579 95.7536 44.5673 95.7087C44.5556 95.6639 44.553 95.6172 44.5598 95.5714C45.0989 91.3691 47.7256 75.221 47.7533 75.0626C47.7552 75.0129 47.7677 74.9643 47.7899 74.9198C47.8121 74.8753 47.8436 74.836 47.8821 74.8045C47.9207 74.7731 47.9655 74.7501 48.0136 74.7371C48.0617 74.7242 48.112 74.7215 48.1613 74.7294C48.2105 74.7372 48.2575 74.7554 48.2991 74.7826C48.3408 74.8099 48.3762 74.8457 48.4029 74.8876C48.4297 74.9295 48.4473 74.9766 48.4544 75.0257C48.4616 75.0749 48.4582 75.125 48.4445 75.1728C48.4445 75.3381 45.7971 91.4724 45.2579 95.661C45.2463 95.7444 45.2051 95.8209 45.1416 95.8765C45.0782 95.9322 44.9968 95.9633 44.9123 95.9641Z" fill="#231F20"/>
<path d="M73.4052 90.6804C84.6595 90.6804 93.7829 81.5877 93.7829 70.3713C93.7829 59.1549 84.6595 50.0622 73.4052 50.0622C62.1509 50.0622 53.0274 59.1549 53.0274 70.3713C53.0274 81.5877 62.1509 90.6804 73.4052 90.6804Z" fill="#231F20"/>
<path d="M73.3929 91.0314C69.3431 91.0312 65.3819 89.8492 61.9983 87.6313C58.6147 85.4133 55.9568 82.2565 54.3527 78.5504C52.7485 74.8443 52.2683 70.7511 52.9714 66.7762C53.6745 62.8013 55.53 59.1185 58.3089 56.1824C61.0879 53.2464 64.6687 51.1856 68.6093 50.2543C72.5499 49.3231 76.6778 49.5622 80.4836 50.9422C84.2894 52.3222 87.6065 54.7826 90.0254 58.0197C92.4444 61.2569 93.8593 65.1291 94.0955 69.1585C94.4128 74.6261 92.5396 79.9958 88.8872 84.0879C85.2349 88.18 80.1022 90.66 74.6164 90.9832C74.2109 91.0153 73.8031 91.0314 73.3929 91.0314ZM73.4344 50.3856C73.0404 50.3856 72.6395 50.3856 72.2386 50.3856C68.2792 50.6133 64.4766 52.0064 61.3119 54.3886C58.1472 56.7707 55.7626 60.0349 54.4598 63.7682C53.157 67.5014 52.9947 71.5359 53.9932 75.3611C54.9918 79.1863 57.1064 82.6304 60.0695 85.2576C63.0326 87.8847 66.711 89.5768 70.6393 90.1199C74.5676 90.6629 78.5693 90.0324 82.138 88.3082C85.7066 86.5839 88.6819 83.8434 90.6874 80.4335C92.6929 77.0235 93.6384 73.0973 93.4043 69.1516C93.1033 64.0728 90.8695 59.2999 87.1586 55.8063C83.4476 52.3127 78.5392 50.3616 73.4344 50.3512V50.3856Z" fill="#231F20"/>
<path d="M70.2604 90.8659C81.5147 90.8659 90.6381 81.7732 90.6381 70.5568C90.6381 59.3404 81.5147 50.2477 70.2604 50.2477C59.0061 50.2477 49.8827 59.3404 49.8827 70.5568C49.8827 81.7732 59.0061 90.8659 70.2604 90.8659Z" fill="#FF7B02"/>
<path d="M70.2463 91.2042C64.8117 91.0423 59.6591 88.7561 55.9016 84.8395C52.1442 80.9229 50.0835 75.6904 50.1647 70.2722C50.246 64.854 52.4626 59.6852 56.3358 55.8823C60.2091 52.0794 65.4279 49.9477 70.865 49.9477C76.3021 49.9477 81.5209 52.0794 85.3941 55.8823C89.2674 59.6852 91.484 64.854 91.5653 70.2722C91.6465 75.6904 89.5858 80.9229 85.8284 84.8395C82.0709 88.7561 76.9183 91.0423 71.4836 91.2042C71.0551 91.2042 70.6403 91.2042 70.2463 91.2042ZM70.2878 50.5585C69.8938 50.5585 69.4998 50.5585 69.1058 50.5585C63.8428 50.7132 58.8521 52.9254 55.2122 56.7172C51.5723 60.5089 49.5754 65.5757 49.6531 70.8227C49.7307 76.0697 51.8766 81.0757 55.6271 84.7588C59.3776 88.442 64.4315 90.5066 69.6968 90.5066C74.9621 90.5066 80.016 88.442 83.7665 84.7588C87.517 81.0757 89.6629 76.0697 89.7405 70.8227C89.8181 65.5757 87.8213 60.5089 84.1814 56.7172C80.5415 52.9254 75.5508 50.7132 70.2878 50.5585Z" fill="#231F20"/>
<path d="M83.1021 63.7175C82.9698 63.9319 82.8195 64.1347 82.6528 64.3237L66.8373 80.0653C66.7577 80.192 66.6472 80.2965 66.516 80.3689C66.3848 80.4413 66.2373 80.4793 66.0873 80.4793C65.9373 80.4793 65.7898 80.4413 65.6586 80.3689C65.5274 80.2965 65.4169 80.192 65.3373 80.0653C62.365 77.0112 59.3996 73.9593 56.4411 70.9097C56.3285 70.8262 56.2381 70.7166 56.1776 70.5905C56.1171 70.4643 56.0883 70.3254 56.0937 70.1856C56.0992 70.0459 56.1387 69.9096 56.2088 69.7885C56.279 69.6674 56.3777 69.5651 56.4964 69.4906L58.7291 67.4858C58.8093 67.3854 58.9113 67.3042 59.0274 67.2485C59.1435 67.1927 59.2707 67.1637 59.3996 67.1637C59.5284 67.1637 59.6556 67.1927 59.7717 67.2485C59.8878 67.3042 59.9898 67.3854 60.0701 67.4858C61.8166 69.2724 63.57 71.0544 65.3304 72.8318C65.8765 73.3829 66.2843 73.3898 66.8304 72.8318L79.1275 60.6381C79.2075 60.5173 79.3163 60.4181 79.4442 60.3495C79.572 60.281 79.715 60.245 79.8602 60.245C80.0054 60.245 80.1484 60.281 80.2763 60.3495C80.4041 60.4181 80.5129 60.5173 80.5929 60.6381C81.2842 61.327 81.9754 62.0159 82.6666 62.7048C82.8227 62.8901 82.9659 63.0857 83.0952 63.2904L83.1021 63.7175Z" fill="white"/>
<path d="M50.5809 82.048C50.5809 82.048 54.7284 81.5245 55.3643 81.0973C56.0003 80.6702 57.7491 77.8732 58.6546 77.6528C59.5601 77.4323 59.3942 79.5059 58.6546 80.3533C57.915 81.2007 62.1592 78.1143 62.8504 78.8033C63.3107 79.4038 63.56 80.1385 63.56 80.8941C63.56 81.6497 63.3107 82.3844 62.8504 82.9849C61.6822 84.411 54.6731 87.1735 51.0095 87.3526" fill="white"/>
<path d="M51.0085 87.6637C50.9199 87.6656 50.834 87.6327 50.7694 87.5722C50.7047 87.5116 50.6665 87.4282 50.6629 87.3399C50.6601 87.2946 50.6663 87.2493 50.6811 87.2064C50.6959 87.1635 50.7191 87.124 50.7493 87.0901C50.7795 87.0562 50.8161 87.0285 50.857 87.0087C50.8979 86.9889 50.9424 86.9774 50.9878 86.9748C54.444 86.8025 61.4739 84.0882 62.5799 82.7311C62.9831 82.1955 63.2011 81.544 63.2011 80.8745C63.2011 80.2049 62.9831 79.5534 62.5799 79.0179C62.2066 78.8594 60.2988 79.9548 59.6698 80.3199C58.702 80.871 58.5016 81.0088 58.2873 80.7195C58.073 80.4301 58.1836 80.3543 58.3771 80.1339C58.6069 79.8405 58.7661 79.4986 58.8428 79.1344C58.9195 78.7702 58.9115 78.3934 58.8195 78.0327C58.8195 77.9914 58.7781 77.9776 58.7159 78.0327C58.2873 78.1292 57.3334 79.2934 56.7527 80.0581C56.4079 80.5673 55.9991 81.0303 55.5362 81.4359C54.8449 81.8768 51.3196 82.3522 50.6145 82.4417C50.5238 82.4535 50.4321 82.4289 50.3596 82.3734C50.287 82.3178 50.2395 82.2359 50.2274 82.1455C50.2206 82.1006 50.223 82.0548 50.2344 82.0108C50.2458 81.9669 50.266 81.9256 50.2937 81.8896C50.3215 81.8536 50.3562 81.8235 50.3959 81.8012C50.4356 81.7789 50.4794 81.7648 50.5247 81.7597C52.2113 81.5462 54.762 81.119 55.156 80.8641C55.5435 80.4892 55.8974 80.0812 56.2136 79.6448C57.1951 78.4047 57.9417 77.516 58.5569 77.3714C58.7194 77.327 58.8921 77.3381 59.0475 77.4031C59.2028 77.468 59.3319 77.583 59.414 77.7296C59.6746 78.3702 59.6746 79.0868 59.414 79.7274C61.1559 78.7285 62.5315 78.0189 63.0914 78.577C63.6054 79.2412 63.8842 80.0563 63.8842 80.8951C63.8842 81.7339 63.6054 82.5491 63.0914 83.2133C61.861 84.722 54.7965 87.5259 51.0016 87.7119L51.0085 87.6637Z" fill="#231F20"/>
<path d="M27.9633 63.5848C27.9633 63.5848 29.7259 81.2484 34.8757 81.3311C41.1452 81.4413 51.8594 81.2071 51.8594 81.2071L53.9331 87.8689C53.9331 87.8689 37.3434 91.837 30.3619 88.8265C23.3804 85.8159 22.8758 73.9047 22.8758 73.9047L27.9633 63.5848Z" fill="#FF7B02"/>
<path d="M39.9556 81.8839C37.1215 81.8839 34.7298 81.7875 34.0593 81.4981C32.2275 80.6921 28.8612 69.0977 28.2045 66.8036C28.192 66.7589 28.1885 66.712 28.1942 66.6659C28.2 66.6198 28.2148 66.5752 28.238 66.5348C28.2611 66.4945 28.2921 66.4591 28.3291 66.4307C28.366 66.4024 28.4083 66.3816 28.4534 66.3696C28.4978 66.356 28.5446 66.3515 28.5909 66.3564C28.6371 66.3612 28.6819 66.3753 28.7226 66.3978C28.7633 66.4203 28.7989 66.4508 28.8275 66.4874C28.8561 66.524 28.8769 66.5659 28.8888 66.6108C30.375 71.8396 33.1676 80.327 34.3496 80.8437C35.5316 81.3603 45.4924 81.1468 51.838 80.8437C51.885 80.8399 51.9324 80.8458 51.9771 80.8609C52.0218 80.8761 52.0629 80.9003 52.0979 80.9319C52.1329 80.9635 52.161 81.002 52.1805 81.0449C52.2 81.0877 52.2104 81.1341 52.2112 81.1812C52.214 81.2279 52.2074 81.2747 52.1918 81.3189C52.1762 81.363 52.1519 81.4036 52.1204 81.4382C52.0888 81.4729 52.0507 81.5009 52.0081 81.5207C51.9655 81.5404 51.9194 81.5515 51.8725 81.5532C50.8426 81.6083 44.7666 81.8839 39.9556 81.8839Z" fill="#231F20"/>
<path d="M37.7991 90.1777C35.225 90.2689 32.6539 89.9242 30.1955 89.1581C23.6218 86.6712 22.5504 77.3846 22.5504 76.9851C22.5407 76.8929 22.568 76.8006 22.6262 76.7283C22.6845 76.6561 22.769 76.6097 22.8615 76.5993C22.9547 76.5895 23.0482 76.6165 23.1218 76.6744C23.1954 76.7323 23.2434 76.8166 23.2555 76.9093C23.2555 77.0057 24.32 86.1614 30.5135 88.4899C36.8245 90.8597 51.0986 88.111 51.2506 88.0834C51.3337 88.0834 51.4143 88.1121 51.4785 88.1646C51.5428 88.2171 51.5868 88.2902 51.6031 88.3714C51.6194 88.4526 51.6069 88.5369 51.5679 88.61C51.5288 88.6831 51.4656 88.7405 51.3889 88.7723C46.9065 89.6195 42.3606 90.0896 37.7991 90.1777Z" fill="#231F20"/>
</svg>
