<svg width="50" height="50" viewBox="0 0 50 50" fill="none" xmlns="http://www.w3.org/2000/svg">
<rect x="1.00098" y="1" width="48" height="48" rx="3" stroke="#727279" stroke-width="2"/>
<path d="M32.001 17H18.001C17.2053 17 16.4423 17.3161 15.8797 17.8787C15.317 18.4413 15.001 19.2044 15.001 20V30C15.001 30.7956 15.317 31.5587 15.8797 32.1213C16.4423 32.6839 17.2053 33 18.001 33H32.001C32.7966 33 33.5597 32.6839 34.1223 32.1213C34.6849 31.5587 35.001 30.7956 35.001 30V20C35.001 19.2044 34.6849 18.4413 34.1223 17.8787C33.5597 17.3161 32.7966 17 32.001 17ZM32.001 19L25.501 23.47C25.349 23.5578 25.1765 23.604 25.001 23.604C24.8254 23.604 24.653 23.5578 24.501 23.47L18.001 19H32.001Z" fill="#727279"/>
</svg>
