<svg width="50" height="50" viewBox="0 0 50 50" fill="none" xmlns="http://www.w3.org/2000/svg">
<rect x="1.00098" y="1" width="48" height="48" rx="3" stroke="#727279" stroke-width="2"/>
<path d="M30.001 16.5001C30.001 16.3674 29.9483 16.2403 29.8545 16.1465C29.7608 16.0527 29.6336 16.0001 29.501 16.0001H27.001C25.7421 15.9373 24.5096 16.3754 23.5727 17.2186C22.6358 18.0618 22.0708 19.2415 22.001 20.5001V23.2001H19.501C19.3684 23.2001 19.2412 23.2527 19.1474 23.3465C19.0537 23.4403 19.001 23.5674 19.001 23.7001V26.3001C19.001 26.4327 19.0537 26.5598 19.1474 26.6536C19.2412 26.7474 19.3684 26.8001 19.501 26.8001H22.001V33.5001C22.001 33.6327 22.0537 33.7598 22.1474 33.8536C22.2412 33.9474 22.3684 34.0001 22.501 34.0001H25.501C25.6336 34.0001 25.7608 33.9474 25.8545 33.8536C25.9483 33.7598 26.001 33.6327 26.001 33.5001V26.8001H28.621C28.7322 26.8017 28.8407 26.7661 28.9295 26.6991C29.0182 26.6321 29.0821 26.5374 29.111 26.4301L29.831 23.8301C29.8509 23.7562 29.8535 23.6787 29.8388 23.6036C29.824 23.5286 29.7923 23.4579 29.7459 23.397C29.6995 23.3362 29.6398 23.2868 29.5713 23.2526C29.5029 23.2185 29.4275 23.2005 29.351 23.2001H26.001V20.5001C26.0259 20.2525 26.1421 20.0232 26.327 19.8567C26.5119 19.6903 26.7522 19.5988 27.001 19.6001H29.501C29.6336 19.6001 29.7608 19.5474 29.8545 19.4536C29.9483 19.3598 30.001 19.2327 30.001 19.1001V16.5001Z" fill="#727279"/>
</svg>
