<svg width="50" height="50" viewBox="0 0 50 50" fill="none" xmlns="http://www.w3.org/2000/svg">
<rect x="1.00098" y="1" width="48" height="48" rx="3" stroke="#727279" stroke-width="2"/>
<path d="M25.001 14.0001C22.1144 13.9707 19.3344 15.0887 17.2717 17.1082C15.2091 19.1277 14.0326 21.8836 14.001 24.7701C14.0121 27.0512 14.7459 29.2702 16.097 31.1082C17.4482 32.9462 19.3471 34.3088 21.521 35.0001C22.071 35.1001 22.271 34.7701 22.271 34.4801V32.6501C19.211 33.3001 18.561 31.2101 18.561 31.2101C18.3573 30.554 17.9242 29.9931 17.341 29.6301C16.341 28.9701 17.421 28.9801 17.421 28.9801C17.7666 29.0263 18.0973 29.1502 18.3883 29.3424C18.6792 29.5346 18.9229 29.7902 19.101 30.0901C19.4113 30.6282 19.9205 31.023 20.519 31.1894C21.1175 31.3559 21.7574 31.2807 22.301 30.9801C22.3569 30.4325 22.6049 29.9223 23.001 29.5401C20.561 29.2701 18.001 28.3501 18.001 24.2201C17.9792 23.1428 18.3772 22.0992 19.111 21.3101C18.7768 20.3851 18.8163 19.3664 19.221 18.4701C19.221 18.4701 20.151 18.1801 22.221 19.5701C24.0229 19.0899 25.9191 19.0899 27.721 19.5701C29.821 18.1801 30.721 18.4701 30.721 18.4701C31.1257 19.3664 31.1651 20.3851 30.831 21.3101C31.5818 22.0847 32.0014 23.1213 32.001 24.2001C32.001 28.3401 29.421 29.2501 27.001 29.5201C27.266 29.7773 27.4706 30.0901 27.6003 30.4359C27.73 30.7818 27.7815 31.152 27.751 31.5201V34.4701C27.751 34.8201 27.951 35.1001 28.501 34.9901C30.6687 34.2945 32.5612 32.9316 33.9082 31.0962C35.2551 29.2608 35.9876 27.0467 36.001 24.7701C35.9693 21.8836 34.7929 19.1277 32.7302 17.1082C30.6676 15.0887 27.8875 13.9707 25.001 14.0001Z" fill="#727279"/>
</svg>
