<svg width="50" height="50" viewBox="0 0 50 50" fill="none" xmlns="http://www.w3.org/2000/svg">
<rect x="1.00098" y="1" width="48" height="48" rx="3" stroke="#727279" stroke-width="2"/>
<path d="M25.001 14.0006C22.1144 13.9712 19.3344 15.0892 17.2717 17.1087C15.2091 19.1282 14.0326 21.8841 14.001 24.7706C14.0121 27.0517 14.7459 29.2707 16.097 31.1087C17.4482 32.9467 19.3471 34.3093 21.521 35.0006C22.071 35.1006 22.271 34.7706 22.271 34.4806V32.6506C19.211 33.3006 18.561 31.2106 18.561 31.2106C18.3573 30.5545 17.9242 29.9936 17.341 29.6306C16.341 28.9706 17.421 28.9806 17.421 28.9806C17.7666 29.0268 18.0973 29.1506 18.3883 29.3429C18.6792 29.5351 18.9229 29.7907 19.101 30.0906C19.4113 30.6287 19.9205 31.0235 20.519 31.1899C21.1175 31.3564 21.7574 31.2812 22.301 30.9806C22.3569 30.4329 22.6049 29.9228 23.001 29.5406C20.561 29.2706 18.001 28.3506 18.001 24.2206C17.9792 23.1432 18.3772 22.0997 19.111 21.3106C18.7768 20.3856 18.8163 19.3669 19.221 18.4706C19.221 18.4706 20.151 18.1806 22.221 19.5706C24.0229 19.0904 25.9191 19.0904 27.721 19.5706C29.821 18.1806 30.721 18.4706 30.721 18.4706C31.1257 19.3669 31.1651 20.3856 30.831 21.3106C31.5818 22.0852 32.0014 23.1218 32.001 24.2006C32.001 28.3406 29.421 29.2506 27.001 29.5206C27.266 29.7778 27.4706 30.0906 27.6003 30.4364C27.73 30.7822 27.7815 31.1525 27.751 31.5206V34.4706C27.751 34.8206 27.951 35.1006 28.501 34.9906C30.6687 34.295 32.5612 32.9321 33.9082 31.0967C35.2551 29.2613 35.9876 27.0471 36.001 24.7706C35.9693 21.8841 34.7929 19.1282 32.7302 17.1087C30.6676 15.0892 27.8875 13.9712 25.001 14.0006" fill="#727279"/>
</svg>
