<svg width="50" height="50" viewBox="0 0 50 50" fill="none" xmlns="http://www.w3.org/2000/svg">
<rect x="1.00098" y="1" width="48" height="48" rx="3" stroke="#727279" stroke-width="2"/>
<path d="M30.001 15H20.001C17.2396 15 15.001 17.2386 15.001 20V30C15.001 32.7614 17.2396 35 20.001 35H30.001C32.7624 35 35.001 32.7614 35.001 30V20C35.001 17.2386 32.7624 15 30.001 15Z" stroke="#727279" stroke-width="2" stroke-linecap="round" stroke-linejoin="round"/>
<path d="M29.0012 24.3703C29.1246 25.2025 28.9824 26.0525 28.5949 26.7993C28.2074 27.5461 27.5943 28.1517 26.8428 28.53C26.0913 28.9082 25.2396 29.0399 24.409 28.9062C23.5783 28.7726 22.8109 28.3804 22.216 27.7855C21.6211 27.1905 21.2289 26.4232 21.0952 25.5925C20.9616 24.7619 21.0932 23.9102 21.4715 23.1587C21.8498 22.4072 22.4554 21.794 23.2022 21.4065C23.949 21.019 24.7989 20.8769 25.6312 21.0003C26.4801 21.1262 27.266 21.5218 27.8729 22.1286C28.4797 22.7355 28.8753 23.5214 29.0012 24.3703Z" stroke="#727279" stroke-width="2" stroke-linecap="round" stroke-linejoin="round"/>
<path d="M30.501 19.5H30.511" stroke="#727279" stroke-width="2" stroke-linecap="round" stroke-linejoin="round"/>
</svg>
