<svg width="50" height="50" viewBox="0 0 50 50" fill="none" xmlns="http://www.w3.org/2000/svg">
<rect x="1.00098" y="1" width="48" height="48" rx="3" stroke="#727279" stroke-width="2"/>
<path d="M30.001 15H20.001C17.2396 15 15.001 17.2386 15.001 20V30C15.001 32.7614 17.2396 35 20.001 35H30.001C32.7624 35 35.001 32.7614 35.001 30V20C35.001 17.2386 32.7624 15 30.001 15Z" stroke="#727279" stroke-width="2" stroke-linecap="round" stroke-linejoin="round"/>
<path d="M29.001 24.3701C29.1244 25.2023 28.9822 26.0523 28.5947 26.7991C28.2072 27.5459 27.5941 28.1515 26.8426 28.5297C26.0911 28.908 25.2394 29.0397 24.4088 28.906C23.5781 28.7723 22.8107 28.3801 22.2158 27.7852C21.6209 27.1903 21.2287 26.4229 21.095 25.5923C20.9614 24.7616 21.093 23.91 21.4713 23.1584C21.8496 22.4069 22.4552 21.7938 23.202 21.4063C23.9488 21.0188 24.7987 20.8766 25.631 21.0001C26.4799 21.1259 27.2658 21.5215 27.8727 22.1284C28.4795 22.7352 28.8751 23.5211 29.001 24.3701Z" stroke="#727279" stroke-width="2" stroke-linecap="round" stroke-linejoin="round"/>
<path d="M30.501 19.5H30.511" stroke="#727279" stroke-width="2" stroke-linecap="round" stroke-linejoin="round"/>
</svg>
