<svg width="20" height="21" viewBox="0 0 20 21" fill="none" xmlns="http://www.w3.org/2000/svg">
<path d="M17.4786 17.0345C19.0455 15.2687 20 12.9473 20 10.4062C20 7.76246 18.9669 5.35694 17.2855 3.56694V3.56659C17.2841 3.56453 17.2821 3.56384 17.281 3.56211C15.5297 1.70039 13.0759 0.508664 10.3466 0.415216L10.3462 0.414871L10.1514 0.409698C10.101 0.407974 10.0507 0.40625 10 0.40625C9.94931 0.40625 9.89897 0.407974 9.84862 0.409698L9.65448 0.414871L9.65414 0.415216C6.92483 0.508664 4.47103 1.70039 2.71966 3.56211C2.71828 3.56384 2.71621 3.56453 2.71517 3.56659C2.71517 3.56659 2.71517 3.56694 2.71483 3.56728C1.0331 5.35694 0 7.76246 0 10.4062C0 12.9473 0.954483 15.2687 2.52138 17.0345C2.52345 17.0376 2.52345 17.0411 2.52586 17.0442C2.53207 17.0528 2.54103 17.0569 2.54759 17.0649C4.30828 19.0331 6.83448 20.3011 9.65379 20.3976L9.65414 20.398L9.84828 20.4031C9.89897 20.4045 9.94931 20.4062 10 20.4062C10.0507 20.4062 10.101 20.4045 10.1514 20.4028L10.3455 20.3976L10.3459 20.3973C13.1683 20.3004 15.6972 19.03 17.4579 17.0576C17.4624 17.0518 17.4697 17.05 17.4738 17.0438C17.4766 17.0411 17.4766 17.0376 17.4786 17.0345ZM0.698276 10.7511H4.83724C4.87621 12.2128 5.16172 13.6331 5.67 14.9638C4.68931 15.3187 3.75172 15.7945 2.8731 16.3883C1.58103 14.8514 0.776897 12.8925 0.698276 10.7511ZM3.06138 4.20728C3.91931 4.76522 4.83276 5.21211 5.78552 5.54591C5.20207 6.96211 4.87931 8.48901 4.83724 10.0614H0.698276C0.78069 7.81763 1.65931 5.77453 3.06138 4.20728ZM19.3017 10.0614H15.1628C15.1207 8.48901 14.7979 6.96211 14.2145 5.54591C15.1672 5.21211 16.0807 4.76522 16.9386 4.20728C18.3407 5.77453 19.2193 7.81763 19.3017 10.0614ZM9.65517 5.56591C8.65828 5.53763 7.67966 5.38901 6.73414 5.12349C7.4331 3.6897 8.42 2.39556 9.65517 1.31797V5.56591ZM9.65517 6.25556V10.0614H5.5269C5.56931 8.56211 5.88379 7.10797 6.44621 5.7597C7.48276 6.06004 8.55897 6.22625 9.65517 6.25556ZM10.3448 6.25556C11.441 6.22625 12.5172 6.06039 13.5541 5.7597C14.1166 7.10797 14.431 8.56211 14.4734 10.0614H10.3448V6.25556ZM10.3448 5.56591V1.31797C11.58 2.39556 12.5669 3.6897 13.2659 5.12349C12.3203 5.38901 11.3417 5.53763 10.3448 5.56591ZM13.9341 4.91384C13.2717 3.52591 12.3524 2.26142 11.2141 1.17763C13.2334 1.44177 15.0503 2.35487 16.4497 3.70108C15.6552 4.20522 14.8124 4.61073 13.9341 4.91384ZM6.06586 4.91384C5.18759 4.61073 4.34483 4.20522 3.55069 3.70108C4.94966 2.35487 6.7669 1.44177 8.78621 1.17763C7.64759 2.26142 6.72828 3.52591 6.06586 4.91384ZM5.5269 10.7511H9.65517V14.2125C8.51483 14.2428 7.39759 14.4207 6.32379 14.7438C5.83862 13.4835 5.56586 12.1369 5.5269 10.7511ZM9.65517 14.9021V19.4945C8.3331 18.3411 7.29655 16.9397 6.59172 15.3852C7.58034 15.0938 8.60724 14.9318 9.65517 14.9021ZM10.3448 19.4945V14.9021C11.3928 14.9314 12.4197 15.0938 13.4083 15.3849C12.7034 16.9397 11.6669 18.3411 10.3448 19.4945ZM10.3448 14.2125V10.7511H14.4731C14.4341 12.1369 14.1614 13.4835 13.6759 14.7442C12.6024 14.4207 11.4852 14.2428 10.3448 14.2125ZM15.1628 10.7511H19.3017C19.2231 12.8925 18.4193 14.8514 17.1269 16.3883C16.2483 15.7945 15.3107 15.3187 14.33 14.9638C14.8386 13.6331 15.1238 12.2128 15.1628 10.7511ZM3.34172 16.9049C4.15759 16.3628 5.02621 15.9269 5.93379 15.6011C6.60448 17.1045 7.56724 18.4745 8.78586 19.6349C6.66483 19.3573 4.76655 18.3642 3.34172 16.9049ZM11.2141 19.6349C12.4328 18.4749 13.3955 17.1049 14.0662 15.6011C14.9738 15.9269 15.8421 16.3628 16.6583 16.9049C15.2334 18.3642 13.3352 19.3573 11.2141 19.6349Z" fill="#333333"/>
</svg>
