<svg width="50" height="50" viewBox="0 0 50 50" fill="none" xmlns="http://www.w3.org/2000/svg">
<rect x="1.00098" y="1" width="48" height="48" rx="3" stroke="#727279" stroke-width="2"/>
<path d="M28.1508 21.4004C27.3843 21.3978 26.6249 21.5463 25.9159 21.8375C25.2069 22.1287 24.5623 22.5568 24.019 23.0974C23.4756 23.6379 23.0442 24.2803 22.7493 24.9878C22.4545 25.6953 22.3021 26.454 22.3008 27.2204V33.1004C22.3008 33.3391 22.3956 33.568 22.5644 33.7368C22.7332 33.9056 22.9621 34.0004 23.2008 34.0004H25.3008C25.5395 34.0004 25.7684 33.9056 25.9372 33.7368C26.106 33.568 26.2008 33.3391 26.2008 33.1004V27.2204C26.2006 26.9478 26.2578 26.6782 26.3688 26.4293C26.4798 26.1803 26.642 25.9575 26.8448 25.7754C27.0477 25.5933 27.2867 25.456 27.5461 25.3724C27.8056 25.2889 28.0798 25.2609 28.3508 25.2904C28.8368 25.3516 29.2834 25.5891 29.606 25.9577C29.9286 26.3264 30.1046 26.8006 30.1008 27.2904V33.1004C30.1008 33.3391 30.1956 33.568 30.3644 33.7368C30.5332 33.9056 30.7621 34.0004 31.0008 34.0004H33.1008C33.3395 34.0004 33.5684 33.9056 33.7372 33.7368C33.906 33.568 34.0008 33.3391 34.0008 33.1004V27.2204C33.9995 26.454 33.847 25.6953 33.5522 24.9878C33.2574 24.2803 32.826 23.6379 32.2826 23.0974C31.7393 22.5568 31.0946 22.1287 30.3857 21.8375C29.6767 21.5463 28.9172 21.3978 28.1508 21.4004Z" fill="#727279"/>
<path d="M19.601 22.3008H16.901C16.4039 22.3008 16.001 22.7037 16.001 23.2008V33.1008C16.001 33.5978 16.4039 34.0008 16.901 34.0008H19.601C20.098 34.0008 20.501 33.5978 20.501 33.1008V23.2008C20.501 22.7037 20.098 22.3008 19.601 22.3008Z" fill="#727279"/>
<path d="M18.251 20.5C19.4936 20.5 20.501 19.4926 20.501 18.25C20.501 17.0074 19.4936 16 18.251 16C17.0083 16 16.001 17.0074 16.001 18.25C16.001 19.4926 17.0083 20.5 18.251 20.5Z" fill="#727279"/>
</svg>
