<svg width="50" height="50" viewBox="0 0 50 50" fill="none" xmlns="http://www.w3.org/2000/svg">
<rect x="1.00098" y="1" width="48" height="48" rx="3" stroke="#727279" stroke-width="2"/>
<path d="M28.151 21.3999C27.3845 21.3973 26.6251 21.5458 25.9161 21.837C25.2071 22.1282 24.5625 22.5563 24.0191 23.0969C23.4758 23.6375 23.0444 24.2799 22.7495 24.9873C22.4547 25.6948 22.3023 26.4535 22.301 27.2199V33.0999C22.301 33.3386 22.3958 33.5676 22.5646 33.7363C22.7334 33.9051 22.9623 33.9999 23.201 33.9999H25.301C25.5397 33.9999 25.7686 33.9051 25.9374 33.7363C26.1062 33.5676 26.201 33.3386 26.201 33.0999V27.2199C26.2008 26.9473 26.258 26.6778 26.369 26.4288C26.48 26.1798 26.6422 25.957 26.845 25.7749C27.0479 25.5928 27.2869 25.4555 27.5463 25.3719C27.8058 25.2884 28.08 25.2604 28.351 25.2899C28.837 25.3512 29.2836 25.5886 29.6062 25.9572C29.9288 26.3259 30.1048 26.8001 30.101 27.2899V33.0999C30.101 33.3386 30.1958 33.5676 30.3646 33.7363C30.5334 33.9051 30.7623 33.9999 31.001 33.9999H33.101C33.3397 33.9999 33.5686 33.9051 33.7374 33.7363C33.9062 33.5676 34.001 33.3386 34.001 33.0999V27.2199C33.9997 26.4535 33.8472 25.6948 33.5524 24.9873C33.2576 24.2799 32.8262 23.6375 32.2828 23.0969C31.7395 22.5563 31.0948 22.1282 30.3859 21.837C29.6769 21.5458 28.9174 21.3973 28.151 21.3999Z" fill="#727279"/>
<path d="M19.601 22.3H16.901C16.4039 22.3 16.001 22.703 16.001 23.2V33.1C16.001 33.5971 16.4039 34 16.901 34H19.601C20.098 34 20.501 33.5971 20.501 33.1V23.2C20.501 22.703 20.098 22.3 19.601 22.3Z" fill="#727279"/>
<path d="M18.251 20.5C19.4936 20.5 20.501 19.4926 20.501 18.25C20.501 17.0074 19.4936 16 18.251 16C17.0083 16 16.001 17.0074 16.001 18.25C16.001 19.4926 17.0083 20.5 18.251 20.5Z" fill="#727279"/>
</svg>
