<svg width="181" height="48" viewBox="0 0 181 48" fill="none" xmlns="http://www.w3.org/2000/svg">
<path d="M63.4715 15.8143C64.8374 15.8143 65.9556 16.137 66.8261 16.7824C67.7117 17.4278 68.1545 18.3134 68.1545 19.4391C68.1545 20.4447 67.8843 21.3002 67.3439 22.0056C66.8186 22.7111 66.1657 23.1389 65.3852 23.2889V23.4015C66.1057 23.6867 66.6985 24.182 67.1638 24.8874C67.6291 25.5929 67.8618 26.4409 67.8618 27.4315C67.8618 28.257 67.9068 28.8799 67.9969 29.3002C68.0869 29.7204 68.207 30.0131 68.3571 30.1782C68.5072 30.3433 68.7248 30.4709 69.01 30.561V31.1914C68.6798 31.3264 68.3271 31.394 67.9518 31.394C67.2314 31.394 66.6685 31.1838 66.2633 30.7636C65.858 30.3283 65.6554 29.5178 65.6554 28.3321C65.6554 27.1163 65.4002 26.1707 64.8899 25.4953C64.3946 24.8049 63.7717 24.4597 63.0213 24.4597H59.1038V31.2589H56.8975V15.8143H63.4715ZM59.1038 17.818V22.4559H63.4941C64.1395 22.4559 64.7098 22.2383 65.2051 21.803C65.7004 21.3678 65.9481 20.8274 65.9481 20.182V20.092C65.9481 19.4316 65.7229 18.8912 65.2727 18.471C64.8224 18.0357 64.2295 17.818 63.4941 17.818H59.1038Z" fill="#250031"/>
<path d="M76.2609 19.5291C77.2065 19.5291 78.0395 19.7317 78.7599 20.137C79.4954 20.5272 80.0658 21.0901 80.471 21.8255C80.8763 22.561 81.0789 23.4165 81.0789 24.3921V25.9906H73.0414C73.0714 27.2064 73.3566 28.1445 73.8969 28.8049C74.4373 29.4653 75.2403 29.7955 76.3059 29.7955C77.2515 29.7955 77.9494 29.5178 78.3997 28.9625C78.85 28.4071 79.0751 27.7467 79.0751 26.9812H81.0789C81.0789 27.8818 80.8688 28.6698 80.4485 29.3452C80.0432 30.0206 79.4729 30.546 78.7374 30.9212C78.017 31.2964 77.1915 31.484 76.2609 31.484H76.1708C74.5498 31.484 73.2665 30.9662 72.3209 29.9306C71.3904 28.8799 70.9251 27.4841 70.9251 25.743V25.2927C70.9251 24.152 71.1352 23.1464 71.5555 22.2758C71.9757 21.4053 72.5761 20.7299 73.3566 20.2496C74.1371 19.7693 75.0526 19.5291 76.1033 19.5291H76.2609ZM76.1483 21.2177C75.2928 21.2177 74.5949 21.4803 74.0545 22.0056C73.5292 22.531 73.2065 23.3115 73.0864 24.3471H78.9851V24.0769C78.9851 23.2214 78.7224 22.531 78.1971 22.0056C77.6868 21.4803 77.0039 21.2177 76.1483 21.2177Z" fill="#250031"/>
<path d="M88.681 19.5291C90.197 19.5291 91.3227 19.8293 92.0581 20.4297C92.8086 21.03 93.1838 21.9006 93.1838 23.0413V29.0075C93.1838 29.2777 93.2439 29.4803 93.364 29.6154C93.484 29.7354 93.6341 29.7955 93.8142 29.7955C94.1595 29.7955 94.5047 29.6904 94.8499 29.4803V31.0338C94.3396 31.3339 93.7617 31.484 93.1163 31.484C92.4709 31.484 91.9906 31.3039 91.6754 30.9437C91.3602 30.5685 91.1876 30.0582 91.1576 29.4127C90.227 30.7936 88.8837 31.484 87.1276 31.484C85.8668 31.484 84.9212 31.2139 84.2908 30.6735C83.6754 30.1182 83.3677 29.2476 83.3677 28.0619C83.3677 27.1313 83.6079 26.4034 84.0882 25.8781C84.5685 25.3377 85.364 24.9475 86.4747 24.7073C87.5854 24.4672 89.1163 24.3471 91.0675 24.3471V23.2889C91.0675 22.5235 90.8424 21.9906 90.3921 21.6905C89.9418 21.3753 89.2889 21.2177 88.4334 21.2177C87.6229 21.2177 86.9925 21.3753 86.5422 21.6905C86.0919 22.0056 85.8668 22.4484 85.8668 23.0188V23.2889H83.7955C83.7655 23.0788 83.7505 22.8312 83.7505 22.546C83.7505 22.0207 83.9606 21.5254 84.3809 21.0601C84.8011 20.5948 85.3715 20.227 86.0919 19.9569C86.8124 19.6717 87.6079 19.5291 88.4784 19.5291H88.681ZM91.0675 25.9906C89.4916 25.9906 88.2983 26.0732 87.4878 26.2383C86.6923 26.3884 86.1595 26.621 85.8893 26.9362C85.6191 27.2514 85.4841 27.6867 85.4841 28.242C85.4841 29.2777 86.2721 29.7955 87.848 29.7955C88.4034 29.7955 88.9287 29.6604 89.424 29.3902C89.9193 29.1051 90.3171 28.7073 90.6173 28.197C90.9174 27.6867 91.0675 27.1013 91.0675 26.4409V25.9906Z" fill="#250031"/>
<path d="M101.828 19.5291C102.744 19.5291 103.562 19.7317 104.282 20.137C105.018 20.5272 105.588 21.0826 105.993 21.803C106.399 22.5235 106.601 23.349 106.601 24.2796H104.507C104.507 23.349 104.267 22.606 103.787 22.0507C103.322 21.4953 102.646 21.2177 101.761 21.2177C100.83 21.2177 100.087 21.5329 99.5319 22.1632C98.9916 22.7786 98.7214 23.6267 98.7214 24.7073V25.9231C98.7214 27.2289 98.9916 28.2045 99.5319 28.8499C100.072 29.4803 100.838 29.7955 101.828 29.7955C102.744 29.7955 103.427 29.5253 103.877 28.985C104.342 28.4296 104.575 27.6867 104.575 26.7561H106.601C106.601 28.197 106.166 29.3452 105.295 30.2007C104.44 31.0563 103.292 31.484 101.851 31.484H101.671C100.65 31.484 99.757 31.2514 98.9916 30.7861C98.2261 30.3058 97.6332 29.6379 97.213 28.7824C96.8077 27.9268 96.6051 26.9287 96.6051 25.788V25.2477C96.6051 24.107 96.8152 23.1088 97.2355 22.2533C97.6557 21.3828 98.2486 20.7148 99.0141 20.2496C99.7796 19.7693 100.658 19.5291 101.648 19.5291H101.828Z" fill="#250031"/>
<path d="M111.688 21.1951C112.634 20.0845 113.82 19.5291 115.245 19.5291C116.506 19.5291 117.497 19.8668 118.217 20.5422C118.938 21.2177 119.298 22.2083 119.298 23.5141V31.2589H117.182V23.8968C117.182 22.1107 116.371 21.2177 114.75 21.2177C114.21 21.2177 113.707 21.3602 113.242 21.6454C112.776 21.9306 112.401 22.3208 112.116 22.8162C111.831 23.2965 111.688 23.8293 111.688 24.4146V31.2589H109.572V15.0488H111.688V21.1951Z" fill="#250031"/>
<path d="M148.431 15.8143V31.2589H146.225V24.3696H139.178V31.2589H136.972V15.8143H139.178V22.3659H146.225V15.8143H148.431Z" fill="#250031"/>
<path d="M156.995 19.5291C157.94 19.5291 158.773 19.7317 159.494 20.137C160.229 20.5272 160.799 21.0901 161.205 21.8255C161.61 22.561 161.813 23.4165 161.813 24.3921V25.9906H153.775C153.805 27.2064 154.09 28.1445 154.631 28.8049C155.171 29.4653 155.974 29.7955 157.04 29.7955C157.985 29.7955 158.683 29.5178 159.133 28.9625C159.584 28.4071 159.809 27.7467 159.809 26.9812H161.813C161.813 27.8818 161.602 28.6698 161.182 29.3452C160.777 30.0206 160.207 30.546 159.471 30.9212C158.751 31.2964 157.925 31.484 156.995 31.484H156.905C155.284 31.484 154 30.9662 153.055 29.9306C152.124 28.8799 151.659 27.4841 151.659 25.743V25.2927C151.659 24.152 151.869 23.1464 152.289 22.2758C152.709 21.4053 153.31 20.7299 154.09 20.2496C154.871 19.7693 155.786 19.5291 156.837 19.5291H156.995ZM156.882 21.2177C156.027 21.2177 155.329 21.4803 154.788 22.0056C154.263 22.531 153.94 23.3115 153.82 24.3471H159.719V24.0769C159.719 23.2214 159.456 22.531 158.931 22.0056C158.421 21.4803 157.738 21.2177 156.882 21.2177Z" fill="#250031"/>
<path d="M167.096 15.0488V31.2589H164.98V15.0488H167.096Z" fill="#250031"/>
<path d="M176.34 19.5291C177.795 19.5291 178.936 20.0619 179.762 21.1276C180.587 22.1933 181 23.6567 181 25.5178V25.7655C181 27.5366 180.587 28.9325 179.762 29.9531C178.951 30.9737 177.811 31.484 176.34 31.484C174.929 31.484 173.826 30.9212 173.03 29.7955V35.3339H170.914V19.7543H172.49C172.595 20.2345 172.692 20.7599 172.782 21.3302C173.638 20.1295 174.824 19.5291 176.34 19.5291ZM175.957 21.2177C174.936 21.2177 174.186 21.5704 173.705 22.2758C173.24 22.9813 173.008 24.0544 173.008 25.4953C173.008 26.9662 173.248 28.0544 173.728 28.7598C174.223 29.4503 174.966 29.7955 175.957 29.7955C176.947 29.7955 177.683 29.4428 178.163 28.7373C178.644 28.0319 178.884 26.9512 178.884 25.4953C178.884 24.0244 178.636 22.9437 178.141 22.2533C177.66 21.5629 176.932 21.2177 175.957 21.2177Z" fill="#250031"/>
<path d="M129.041 15.5894C128.921 16.3398 128.598 17.3004 128.073 18.4711C127.563 19.6419 126.97 20.7976 126.294 21.9383C125.619 23.064 125.011 23.9345 124.471 24.5499H127.848V22.2535C128.238 21.7132 128.688 20.8726 129.199 19.7319C129.724 18.5912 130.062 17.7057 130.212 17.0753H132.08V24.5499H134.287V27.8595H132.08V31.2591H127.848V27.8595H121.544V24.5049C122.129 23.4542 122.572 22.5537 122.872 21.8032L123.548 20.1372C124.328 18.216 124.831 16.7 125.056 15.5894H129.041Z" fill="#FF7B02"/>
<path d="M63.4715 15.8143C64.8374 15.8143 65.9556 16.137 66.8261 16.7824C67.7117 17.4278 68.1545 18.3134 68.1545 19.4391C68.1545 20.4447 67.8843 21.3002 67.3439 22.0056C66.8186 22.7111 66.1657 23.1389 65.3852 23.2889V23.4015C66.1057 23.6867 66.6985 24.182 67.1638 24.8874C67.6291 25.5929 67.8618 26.4409 67.8618 27.4315C67.8618 28.257 67.9068 28.8799 67.9969 29.3002C68.0869 29.7204 68.207 30.0131 68.3571 30.1782C68.5072 30.3433 68.7248 30.4709 69.01 30.561V31.1914C68.6798 31.3264 68.3271 31.394 67.9518 31.394C67.2314 31.394 66.6685 31.1838 66.2633 30.7636C65.858 30.3283 65.6554 29.5178 65.6554 28.3321C65.6554 27.1163 65.4002 26.1707 64.8899 25.4953C64.3946 24.8049 63.7717 24.4597 63.0213 24.4597H59.1038V31.2589H56.8975V15.8143H63.4715ZM59.1038 17.818V22.4559H63.4941C64.1395 22.4559 64.7098 22.2383 65.2051 21.803C65.7004 21.3678 65.9481 20.8274 65.9481 20.182V20.092C65.9481 19.4316 65.7229 18.8912 65.2727 18.471C64.8224 18.0357 64.2295 17.818 63.4941 17.818H59.1038Z" fill="#250031"/>
<path d="M76.2609 19.5291C77.2065 19.5291 78.0395 19.7317 78.7599 20.137C79.4954 20.5272 80.0658 21.0901 80.471 21.8255C80.8763 22.561 81.0789 23.4165 81.0789 24.3921V25.9906H73.0414C73.0714 27.2064 73.3566 28.1445 73.8969 28.8049C74.4373 29.4653 75.2403 29.7955 76.3059 29.7955C77.2515 29.7955 77.9494 29.5178 78.3997 28.9625C78.85 28.4071 79.0751 27.7467 79.0751 26.9812H81.0789C81.0789 27.8818 80.8688 28.6698 80.4485 29.3452C80.0432 30.0206 79.4729 30.546 78.7374 30.9212C78.017 31.2964 77.1915 31.484 76.2609 31.484H76.1708C74.5498 31.484 73.2665 30.9662 72.3209 29.9306C71.3904 28.8799 70.9251 27.4841 70.9251 25.743V25.2927C70.9251 24.152 71.1352 23.1464 71.5555 22.2758C71.9757 21.4053 72.5761 20.7299 73.3566 20.2496C74.1371 19.7693 75.0526 19.5291 76.1033 19.5291H76.2609ZM76.1483 21.2177C75.2928 21.2177 74.5949 21.4803 74.0545 22.0056C73.5292 22.531 73.2065 23.3115 73.0864 24.3471H78.9851V24.0769C78.9851 23.2214 78.7224 22.531 78.1971 22.0056C77.6868 21.4803 77.0039 21.2177 76.1483 21.2177Z" fill="#250031"/>
<path d="M88.681 19.5291C90.197 19.5291 91.3227 19.8293 92.0581 20.4297C92.8086 21.03 93.1838 21.9006 93.1838 23.0413V29.0075C93.1838 29.2777 93.2439 29.4803 93.364 29.6154C93.484 29.7354 93.6341 29.7955 93.8142 29.7955C94.1595 29.7955 94.5047 29.6904 94.8499 29.4803V31.0338C94.3396 31.3339 93.7617 31.484 93.1163 31.484C92.4709 31.484 91.9906 31.3039 91.6754 30.9437C91.3602 30.5685 91.1876 30.0582 91.1576 29.4127C90.227 30.7936 88.8837 31.484 87.1276 31.484C85.8668 31.484 84.9212 31.2139 84.2908 30.6735C83.6754 30.1182 83.3677 29.2476 83.3677 28.0619C83.3677 27.1313 83.6079 26.4034 84.0882 25.8781C84.5685 25.3377 85.364 24.9475 86.4747 24.7073C87.5854 24.4672 89.1163 24.3471 91.0675 24.3471V23.2889C91.0675 22.5235 90.8424 21.9906 90.3921 21.6905C89.9418 21.3753 89.2889 21.2177 88.4334 21.2177C87.6229 21.2177 86.9925 21.3753 86.5422 21.6905C86.0919 22.0056 85.8668 22.4484 85.8668 23.0188V23.2889H83.7955C83.7655 23.0788 83.7505 22.8312 83.7505 22.546C83.7505 22.0207 83.9606 21.5254 84.3809 21.0601C84.8011 20.5948 85.3715 20.227 86.0919 19.9569C86.8124 19.6717 87.6079 19.5291 88.4784 19.5291H88.681ZM91.0675 25.9906C89.4916 25.9906 88.2983 26.0732 87.4878 26.2383C86.6923 26.3884 86.1595 26.621 85.8893 26.9362C85.6191 27.2514 85.4841 27.6867 85.4841 28.242C85.4841 29.2777 86.2721 29.7955 87.848 29.7955C88.4034 29.7955 88.9287 29.6604 89.424 29.3902C89.9193 29.1051 90.3171 28.7073 90.6173 28.197C90.9174 27.6867 91.0675 27.1013 91.0675 26.4409V25.9906Z" fill="#250031"/>
<path d="M101.828 19.5291C102.744 19.5291 103.562 19.7317 104.282 20.137C105.018 20.5272 105.588 21.0826 105.993 21.803C106.399 22.5235 106.601 23.349 106.601 24.2796H104.507C104.507 23.349 104.267 22.606 103.787 22.0507C103.322 21.4953 102.646 21.2177 101.761 21.2177C100.83 21.2177 100.087 21.5329 99.5319 22.1632C98.9916 22.7786 98.7214 23.6267 98.7214 24.7073V25.9231C98.7214 27.2289 98.9916 28.2045 99.5319 28.8499C100.072 29.4803 100.838 29.7955 101.828 29.7955C102.744 29.7955 103.427 29.5253 103.877 28.985C104.342 28.4296 104.575 27.6867 104.575 26.7561H106.601C106.601 28.197 106.166 29.3452 105.295 30.2007C104.44 31.0563 103.292 31.484 101.851 31.484H101.671C100.65 31.484 99.757 31.2514 98.9916 30.7861C98.2261 30.3058 97.6332 29.6379 97.213 28.7824C96.8077 27.9268 96.6051 26.9287 96.6051 25.788V25.2477C96.6051 24.107 96.8152 23.1088 97.2355 22.2533C97.6557 21.3828 98.2486 20.7148 99.0141 20.2496C99.7796 19.7693 100.658 19.5291 101.648 19.5291H101.828Z" fill="#250031"/>
<path d="M111.688 21.1951C112.634 20.0845 113.82 19.5291 115.245 19.5291C116.506 19.5291 117.497 19.8668 118.217 20.5422C118.938 21.2177 119.298 22.2083 119.298 23.5141V31.2589H117.182V23.8968C117.182 22.1107 116.371 21.2177 114.75 21.2177C114.21 21.2177 113.707 21.3602 113.242 21.6454C112.776 21.9306 112.401 22.3208 112.116 22.8162C111.831 23.2965 111.688 23.8293 111.688 24.4146V31.2589H109.572V15.0488H111.688V21.1951Z" fill="#250031"/>
<path d="M148.431 15.8143V31.2589H146.225V24.3696H139.178V31.2589H136.972V15.8143H139.178V22.3659H146.225V15.8143H148.431Z" fill="#250031"/>
<path d="M156.995 19.5291C157.94 19.5291 158.773 19.7317 159.494 20.137C160.229 20.5272 160.799 21.0901 161.205 21.8255C161.61 22.561 161.813 23.4165 161.813 24.3921V25.9906H153.775C153.805 27.2064 154.09 28.1445 154.631 28.8049C155.171 29.4653 155.974 29.7955 157.04 29.7955C157.985 29.7955 158.683 29.5178 159.133 28.9625C159.584 28.4071 159.809 27.7467 159.809 26.9812H161.813C161.813 27.8818 161.602 28.6698 161.182 29.3452C160.777 30.0206 160.207 30.546 159.471 30.9212C158.751 31.2964 157.925 31.484 156.995 31.484H156.905C155.284 31.484 154 30.9662 153.055 29.9306C152.124 28.8799 151.659 27.4841 151.659 25.743V25.2927C151.659 24.152 151.869 23.1464 152.289 22.2758C152.709 21.4053 153.31 20.7299 154.09 20.2496C154.871 19.7693 155.786 19.5291 156.837 19.5291H156.995ZM156.882 21.2177C156.027 21.2177 155.329 21.4803 154.788 22.0056C154.263 22.531 153.94 23.3115 153.82 24.3471H159.719V24.0769C159.719 23.2214 159.456 22.531 158.931 22.0056C158.421 21.4803 157.738 21.2177 156.882 21.2177Z" fill="#250031"/>
<path d="M167.096 15.0488V31.2589H164.98V15.0488H167.096Z" fill="#250031"/>
<path d="M176.34 19.5291C177.795 19.5291 178.936 20.0619 179.762 21.1276C180.587 22.1933 181 23.6567 181 25.5178V25.7655C181 27.5366 180.587 28.9325 179.762 29.9531C178.951 30.9737 177.811 31.484 176.34 31.484C174.929 31.484 173.826 30.9212 173.03 29.7955V35.3339H170.914V19.7543H172.49C172.595 20.2345 172.692 20.7599 172.782 21.3302C173.638 20.1295 174.824 19.5291 176.34 19.5291ZM175.957 21.2177C174.936 21.2177 174.186 21.5704 173.705 22.2758C173.24 22.9813 173.008 24.0544 173.008 25.4953C173.008 26.9662 173.248 28.0544 173.728 28.7598C174.223 29.4503 174.966 29.7955 175.957 29.7955C176.947 29.7955 177.683 29.4428 178.163 28.7373C178.644 28.0319 178.884 26.9512 178.884 25.4953C178.884 24.0244 178.636 22.9437 178.141 22.2533C177.66 21.5629 176.932 21.2177 175.957 21.2177Z" fill="#250031"/>
<path d="M129.041 15.5894C128.921 16.3398 128.598 17.3004 128.073 18.4711C127.563 19.6419 126.97 20.7976 126.294 21.9383C125.619 23.064 125.011 23.9345 124.471 24.5499H127.848V22.2535C128.238 21.7132 128.688 20.8726 129.199 19.7319C129.724 18.5912 130.062 17.7057 130.212 17.0753H132.08V24.5499H134.287V27.8595H132.08V31.2591H127.848V27.8595H121.544V24.5049C122.129 23.4542 122.572 22.5537 122.872 21.8032L123.548 20.1372C124.328 18.216 124.831 16.7 125.056 15.5894H129.041Z" fill="#FF7B02"/>
<path d="M43.1281 47.4062H4.27812C1.91607 47.4062 0 45.4901 0 43.1281V4.27812C0 1.91607 1.91607 0 4.27812 0H43.1281C45.4901 0 47.4062 1.91607 47.4062 4.27812V43.1281C47.4062 45.4901 45.4901 47.4062 43.1281 47.4062Z" fill="url(#paint0_linear)"/>
<path fill-rule="evenodd" clip-rule="evenodd" d="M37.1143 8.20654C38.1449 8.20654 38.9805 9.04208 38.9805 10.0728L38.9805 36.8004C38.9805 37.8311 38.1449 38.6666 37.1143 38.6666L10.3866 38.6666C9.35589 38.6666 8.52036 37.8311 8.52036 36.8004L8.52036 10.0728C8.52036 9.04207 9.3559 8.20654 10.3866 8.20654L37.1143 8.20654ZM37.9079 10.0728C37.9079 9.63442 37.5526 9.27908 37.1143 9.27908L10.3866 9.27908C9.94824 9.27908 9.5929 9.63442 9.5929 10.0728L9.5929 36.8004C9.5929 37.2388 9.94824 37.5941 10.3866 37.5941L37.1143 37.5941C37.5526 37.5941 37.9079 37.2388 37.9079 36.8004L37.9079 10.0728Z" fill="#250031" fill-opacity="0.15"/>
<path fill-rule="evenodd" clip-rule="evenodd" d="M9.27426 37.9969C9.06238 37.785 9.1029 37.401 9.36476 37.1391L37.5034 9.00053C37.7652 8.73867 38.1493 8.69815 38.3612 8.91002C38.573 9.1219 38.5325 9.50594 38.2706 9.7678L10.132 37.9064C9.87017 38.1683 9.48613 38.2088 9.27426 37.9969Z" fill="#250031" fill-opacity="0.15"/>
<path fill-rule="evenodd" clip-rule="evenodd" d="M9.19058 9.04623C9.40246 8.83436 9.79198 8.88036 10.0606 9.14898L37.8663 36.9547C38.135 37.2233 38.181 37.6129 37.9691 37.8247C37.7572 38.0366 37.3677 37.9906 37.0991 37.722L9.29333 9.91625C9.02471 9.64763 8.97871 9.25811 9.19058 9.04623Z" fill="#250031" fill-opacity="0.15"/>
<path fill-rule="evenodd" clip-rule="evenodd" d="M8.8584 23.5933C8.8584 23.2786 9.12553 23.0234 9.45506 23.0234L37.8959 23.0234C38.2254 23.0234 38.4925 23.2786 38.4925 23.5933C38.4925 23.9081 38.2254 24.1632 37.8959 24.1632L9.45506 24.1632C9.12553 24.1632 8.8584 23.9081 8.8584 23.5933Z" fill="#250031" fill-opacity="0.15"/>
<path fill-rule="evenodd" clip-rule="evenodd" d="M23.7237 8.79492C24.0791 8.79492 24.3672 9.08304 24.3672 9.43845L24.3672 37.968C24.3672 38.3234 24.0791 38.6115 23.7237 38.6115C23.3683 38.6115 23.0801 38.3234 23.0801 37.968L23.0801 9.43845C23.0801 9.08304 23.3683 8.79492 23.7237 8.79492Z" fill="#250031" fill-opacity="0.15"/>
<path d="M23.8101 5.1024C25.7056 5.1024 27.2422 6.68703 27.2422 8.64178C27.2422 10.5965 25.7056 12.1812 23.8101 12.1812C21.9145 12.1812 20.3779 10.5965 20.3779 8.64178C20.3779 6.68703 21.9145 5.1024 23.8101 5.1024Z" fill="url(#paint1_linear)"/>
<path fill-rule="evenodd" clip-rule="evenodd" d="M28.0989 8.64214C28.0989 6.2386 26.2028 4.24473 23.8087 4.24473C21.4146 4.24473 19.5186 6.2386 19.5186 8.64214C19.5186 11.0457 21.4146 13.0396 23.8087 13.0396C26.2028 13.0396 28.0989 11.0457 28.0989 8.64214ZM27.2408 8.64214C27.2408 6.6874 25.7042 5.10276 23.8087 5.10276C21.9132 5.10276 20.3766 6.6874 20.3766 8.64214C20.3766 10.5969 21.9132 12.1815 23.8087 12.1815C25.7042 12.1815 27.2408 10.5969 27.2408 8.64214Z" fill="url(#paint2_linear)"/>
<path d="M6.38312 6.23189C7.7313 4.88371 9.91713 4.88371 11.2653 6.23189C12.6135 7.58007 12.6135 9.7659 11.2653 11.1141C9.91713 12.4623 7.7313 12.4623 6.38312 11.1141C5.03495 9.7659 5.03494 7.58007 6.38312 6.23189Z" fill="url(#paint3_linear)"/>
<path fill-rule="evenodd" clip-rule="evenodd" d="M11.872 5.62511C10.1888 3.94185 7.45967 3.94185 5.7764 5.62511C4.09314 7.30837 4.09314 10.0375 5.77641 11.7207C7.45967 13.404 10.1888 13.404 11.872 11.7207C13.5553 10.0375 13.5553 7.30837 11.872 5.62511ZM11.2653 6.23183C9.91713 4.88365 7.7313 4.88365 6.38312 6.23183C5.03494 7.58001 5.03495 9.76584 6.38312 11.114C7.7313 12.4622 9.91713 12.4622 11.2653 11.114C12.6135 9.76584 12.6135 7.58001 11.2653 6.23183Z" fill="url(#paint4_linear)"/>
<path d="M40.5176 40.3703C41.8658 39.0221 41.8658 36.8363 40.5176 35.4881C39.1694 34.1399 36.9836 34.1399 35.6354 35.4881C34.2873 36.8363 34.2873 39.0221 35.6354 40.3703C36.9836 41.7185 39.1694 41.7185 40.5176 40.3703Z" fill="url(#paint5_linear)"/>
<path fill-rule="evenodd" clip-rule="evenodd" d="M41.1288 34.8814C42.8121 36.5646 42.8121 39.2938 41.1288 40.977C39.4455 42.6603 36.7164 42.6603 35.0332 40.977C33.3499 39.2938 33.3499 36.5646 35.0332 34.8814C36.7164 33.1981 39.4455 33.1981 41.1288 34.8814ZM40.5221 35.4881C41.8703 36.8363 41.8703 39.0221 40.5221 40.3703C39.1739 41.7185 36.9881 41.7185 35.6399 40.3703C34.2917 39.0221 34.2917 36.8363 35.6399 35.4881C36.9881 34.1399 39.1739 34.1399 40.5221 35.4881Z" fill="url(#paint6_linear)"/>
<path d="M41.5283 23.3901C41.5283 21.4946 39.9917 19.958 38.0962 19.958C36.2007 19.958 34.6641 21.4946 34.6641 23.3901C34.6641 25.2857 36.2007 26.8223 38.0962 26.8223C39.9917 26.8223 41.5283 25.2857 41.5283 23.3901Z" fill="url(#paint7_linear)"/>
<path fill-rule="evenodd" clip-rule="evenodd" d="M38.0948 19.0999C40.4642 19.0999 42.385 21.0206 42.385 23.39C42.385 25.7594 40.4642 27.6802 38.0948 27.6802C35.7255 27.6802 33.8047 25.7594 33.8047 23.39C33.8047 21.0206 35.7255 19.0999 38.0948 19.0999ZM38.0948 19.9579C39.9904 19.9579 41.527 21.4945 41.527 23.39C41.527 25.2855 39.9904 26.8221 38.0948 26.8221C36.1993 26.8221 34.6627 25.2855 34.6627 23.39C34.6627 21.4945 36.1993 19.9579 38.0948 19.9579Z" fill="url(#paint8_linear)"/>
<path d="M40.5176 6.23176C41.8658 7.57994 41.8658 9.76577 40.5176 11.1139C39.1694 12.4621 36.9836 12.4621 35.6354 11.1139C34.2873 9.76577 34.2873 7.57994 35.6354 6.23176C36.9836 4.88358 39.1694 4.88358 40.5176 6.23176Z" fill="url(#paint9_linear)"/>
<path fill-rule="evenodd" clip-rule="evenodd" d="M41.1288 11.7207C42.8121 10.0374 42.8121 7.3083 41.1288 5.62504C39.4455 3.94178 36.7164 3.94178 35.0332 5.62504C33.3499 7.3083 33.3499 10.0374 35.0332 11.7207C36.7164 13.4039 39.4455 13.4039 41.1288 11.7207ZM40.5221 11.1139C41.8703 9.76577 41.8703 7.57994 40.5221 6.23176C39.1739 4.88358 36.9881 4.88358 35.6399 6.23176C34.2917 7.57994 34.2917 9.76577 35.6399 11.1139C36.9881 12.4621 39.1739 12.4621 40.5221 11.1139Z" fill="url(#paint10_linear)"/>
<path d="M28.2775 33.5854V42.9303C28.2775 43.2857 27.9894 43.5739 27.634 43.5739H19.5058C19.1504 43.5739 18.8623 43.2857 18.8623 42.9303V33.5854C18.8623 32.7818 19.1817 32.0615 19.7094 31.535C20.2371 31.0086 20.9592 30.6899 21.7646 30.6899H25.3613C26.1667 30.6899 26.8888 31.0086 27.4165 31.535C27.9442 32.0615 28.2775 32.7818 28.2775 33.5854Z" fill="url(#paint11_angular)"/>
<path fill-rule="evenodd" clip-rule="evenodd" d="M21.7605 31.44C21.1589 31.44 20.6261 31.6762 20.2355 32.0658C19.845 32.4554 19.609 32.9862 19.609 33.5847V42.8224H27.5226V33.5847C27.5226 32.9952 27.2793 32.4621 26.8821 32.0658C26.4916 31.6762 25.9587 31.44 25.3572 31.44H21.7605ZM19.175 31.0028C19.8399 30.3396 20.7512 29.9385 21.7605 29.9385H25.3572C26.3664 29.9385 27.2778 30.3396 27.9426 31.0028C28.6009 31.6595 29.0241 32.5672 29.0241 33.5847V42.9297C29.0241 43.6997 28.3999 44.324 27.6298 44.324H19.5017C18.7317 44.324 18.1074 43.6997 18.1074 42.9297V33.5847C18.1074 32.5761 18.5102 31.6661 19.175 31.0028Z" fill="url(#paint12_linear)"/>
<path d="M18.0333 22.2823C18.0333 19.1897 20.5403 16.6827 23.6329 16.6827C26.7254 16.6827 29.2324 19.1897 29.2324 22.2823C29.2324 25.3748 26.7254 27.8818 23.6329 27.8818C20.5403 27.8818 18.0333 25.3748 18.0333 22.2823Z" fill="url(#paint13_angular)"/>
<path fill-rule="evenodd" clip-rule="evenodd" d="M28.4799 22.2825C28.4799 24.9604 26.309 27.1313 23.6311 27.1313C20.9532 27.1313 18.7824 24.9604 18.7824 22.2825C18.7824 19.6046 20.9532 17.4337 23.6311 17.4337C26.309 17.4337 28.4799 19.6046 28.4799 22.2825ZM23.6311 28.6328C27.1383 28.6328 29.9814 25.7897 29.9814 22.2825C29.9814 18.7753 27.1383 15.9322 23.6311 15.9322C20.1239 15.9322 17.2808 18.7753 17.2808 22.2825C17.2808 25.7897 20.1239 28.6328 23.6311 28.6328Z" fill="url(#paint14_linear)"/>
<path d="M6.38082 40.3703C5.03264 39.0221 5.03264 36.8363 6.38082 35.4881C7.729 34.1399 9.91483 34.1399 11.263 35.4881C12.6112 36.8363 12.6112 39.0221 11.263 40.3703C9.91483 41.7185 7.729 41.7185 6.38082 40.3703Z" fill="url(#paint15_linear)"/>
<path fill-rule="evenodd" clip-rule="evenodd" d="M5.77648 34.8814C4.09322 36.5646 4.09322 39.2938 5.77648 40.977C7.45974 42.6603 10.1888 42.6603 11.8721 40.977C13.5554 39.2938 13.5554 36.5646 11.8721 34.8814C10.1888 33.1981 7.45974 33.1981 5.77648 34.8814ZM6.3832 35.4881C5.03502 36.8363 5.03502 39.0221 6.3832 40.3703C7.73138 41.7185 9.91721 41.7185 11.2654 40.3703C12.6136 39.0221 12.6136 36.8363 11.2654 35.4881C9.91721 34.1399 7.73138 34.1399 6.3832 35.4881Z" fill="url(#paint16_linear)"/>
<path d="M5.40724 23.3901C5.40724 21.4946 6.94385 19.958 8.83936 19.958C10.7349 19.958 12.2715 21.4946 12.2715 23.3901C12.2715 25.2857 10.7349 26.8223 8.83936 26.8223C6.94385 26.8223 5.40724 25.2857 5.40724 23.3901Z" fill="url(#paint17_linear)"/>
<path fill-rule="evenodd" clip-rule="evenodd" d="M8.83778 19.0999C6.46839 19.0999 4.54762 21.0206 4.54762 23.39C4.54762 25.7594 6.46839 27.6802 8.83778 27.6802C11.2072 27.6802 13.1279 25.7594 13.1279 23.39C13.1279 21.0206 11.2072 19.0999 8.83778 19.0999ZM8.83778 19.9579C6.94227 19.9579 5.40565 21.4945 5.40565 23.39C5.40565 25.2855 6.94227 26.8221 8.83778 26.8221C10.7333 26.8221 12.2699 25.2855 12.2699 23.39C12.2699 21.4945 10.7333 19.9579 8.83778 19.9579Z" fill="url(#paint18_linear)"/>
<defs>
<linearGradient id="paint0_linear" x1="1.25209" y1="1.25209" x2="46.1541" y2="46.1541" gradientUnits="userSpaceOnUse">
<stop stop-color="#F27979"/>
<stop offset="1" stop-color="#7D00A3"/>
</linearGradient>
<linearGradient id="paint1_linear" x1="23.8101" y1="12.1812" x2="23.8101" y2="5.1024" gradientUnits="userSpaceOnUse">
<stop stop-color="white"/>
<stop offset="1" stop-color="#DDDDDD"/>
</linearGradient>
<linearGradient id="paint2_linear" x1="23.8087" y1="12.1815" x2="23.8087" y2="5.10276" gradientUnits="userSpaceOnUse">
<stop stop-color="white"/>
<stop offset="1" stop-color="#F2F2F2" stop-opacity="0"/>
</linearGradient>
<linearGradient id="paint3_linear" x1="11.2653" y1="11.1141" x2="6.38312" y2="6.23189" gradientUnits="userSpaceOnUse">
<stop stop-color="white"/>
<stop offset="1" stop-color="#DDDDDD"/>
</linearGradient>
<linearGradient id="paint4_linear" x1="11.2653" y1="11.114" x2="6.38312" y2="6.23186" gradientUnits="userSpaceOnUse">
<stop stop-color="white"/>
<stop offset="1" stop-color="#F2F2F2" stop-opacity="0"/>
</linearGradient>
<linearGradient id="paint5_linear" x1="35.6354" y1="35.4881" x2="40.5176" y2="40.3703" gradientUnits="userSpaceOnUse">
<stop stop-color="white"/>
<stop offset="1" stop-color="#DDDDDD"/>
</linearGradient>
<linearGradient id="paint6_linear" x1="35.6399" y1="35.4881" x2="40.522" y2="40.3703" gradientUnits="userSpaceOnUse">
<stop stop-color="white"/>
<stop offset="1" stop-color="#F2F2F2" stop-opacity="0"/>
</linearGradient>
<linearGradient id="paint7_linear" x1="34.6641" y1="23.3901" x2="41.5283" y2="23.3901" gradientUnits="userSpaceOnUse">
<stop stop-color="white"/>
<stop offset="1" stop-color="#DDDDDD"/>
</linearGradient>
<linearGradient id="paint8_linear" x1="34.6627" y1="23.39" x2="41.527" y2="23.39" gradientUnits="userSpaceOnUse">
<stop stop-color="white"/>
<stop offset="1" stop-color="#F2F2F2" stop-opacity="0"/>
</linearGradient>
<linearGradient id="paint9_linear" x1="35.6354" y1="11.1139" x2="40.5176" y2="6.23176" gradientUnits="userSpaceOnUse">
<stop stop-color="white"/>
<stop offset="1" stop-color="#DDDDDD"/>
</linearGradient>
<linearGradient id="paint10_linear" x1="35.6399" y1="11.1139" x2="40.522" y2="6.23176" gradientUnits="userSpaceOnUse">
<stop stop-color="white"/>
<stop offset="1" stop-color="#F2F2F2" stop-opacity="0"/>
</linearGradient>
<radialGradient id="paint11_angular" cx="0" cy="0" r="1" gradientUnits="userSpaceOnUse" gradientTransform="translate(23.6771 35.7153) rotate(90) scale(4.39741 7.39058)">
<stop stop-color="#FFCB52"/>
<stop offset="1" stop-color="#FF7B02"/>
</radialGradient>
<linearGradient id="paint12_linear" x1="23.5658" y1="30.6893" x2="23.5658" y2="43.5732" gradientUnits="userSpaceOnUse">
<stop stop-color="white"/>
<stop offset="1" stop-color="white" stop-opacity="0"/>
</linearGradient>
<radialGradient id="paint13_angular" cx="0" cy="0" r="1" gradientUnits="userSpaceOnUse" gradientTransform="translate(23.9798 22.2988) rotate(90) scale(0.247768 0.283021)">
<stop stop-color="#FFCB52"/>
<stop offset="1" stop-color="#FF7B02"/>
</radialGradient>
<linearGradient id="paint14_linear" x1="23.6723" y1="28.6367" x2="23.6723" y2="16.7315" gradientUnits="userSpaceOnUse">
<stop stop-color="white"/>
<stop offset="1" stop-color="white" stop-opacity="0.3"/>
</linearGradient>
<linearGradient id="paint15_linear" x1="11.263" y1="35.4881" x2="6.38082" y2="40.3703" gradientUnits="userSpaceOnUse">
<stop stop-color="white"/>
<stop offset="1" stop-color="#DDDDDD"/>
</linearGradient>
<linearGradient id="paint16_linear" x1="11.2654" y1="35.4881" x2="6.38322" y2="40.3703" gradientUnits="userSpaceOnUse">
<stop stop-color="white"/>
<stop offset="1" stop-color="#F2F2F2" stop-opacity="0"/>
</linearGradient>
<linearGradient id="paint17_linear" x1="12.2715" y1="23.3901" x2="5.40724" y2="23.3901" gradientUnits="userSpaceOnUse">
<stop stop-color="white"/>
<stop offset="1" stop-color="#DDDDDD"/>
</linearGradient>
<linearGradient id="paint18_linear" x1="12.2699" y1="23.39" x2="5.40565" y2="23.39" gradientUnits="userSpaceOnUse">
<stop stop-color="white"/>
<stop offset="1" stop-color="#F2F2F2" stop-opacity="0"/>
</linearGradient>
</defs>
</svg>
