<svg width="559" height="450" viewBox="0 0 559 450" fill="none" xmlns="http://www.w3.org/2000/svg">
<path opacity="0.1" d="M557.392 228.633C553.976 242.441 536.442 249.363 526.618 259.664C508.105 279.08 515.315 307.433 527.06 330.14C530.992 337.743 535.454 345.793 533.788 353.946C531.758 363.918 520.971 371.208 509.643 375.073C489.003 382.112 464.284 380.435 445.309 370.697C428.915 362.285 417.169 348.623 400.495 340.569C372.586 327.133 337.065 332.229 306.758 341.466C285.321 348.015 261.88 356.536 240.576 349.697C225.587 344.88 215.222 333.157 209.576 320.756C206.853 314.757 204.873 308.262 199.668 303.508C196.572 300.678 192.533 298.672 188.4 296.984C150.618 281.532 102.889 289.808 66.2133 272.668C41.4349 261.097 25.5664 239.268 18.5437 216.502C11.521 193.736 12.3368 169.866 14.1208 146.419C15.3887 129.74 17.664 111.973 30.5692 99.1112C44.2214 85.5086 67.6483 80.4708 88.8293 83.0363C110.01 85.6018 129.201 94.8386 146.092 105.689C167.224 119.258 186.773 136.147 212.687 141.641C230.334 145.384 248.896 143.333 267.099 142.622C297.529 141.44 327.968 144.094 358.226 146.958C372.969 148.366 387.762 149.843 402.377 151.981C405.653 152.459 408.93 152.974 412.206 153.527C413.847 153.806 415.489 154.096 417.12 154.395C418.398 154.625 419.671 154.885 420.944 155.116C422.952 155.505 424.954 155.914 426.949 156.342C432.679 157.569 438.355 158.957 443.973 160.536C463.502 166.035 479.16 176.023 497.603 182.998C509.624 187.545 522.73 188.801 534.112 194.589C548.118 201.697 560.984 214.113 557.392 228.633Z" fill="white"/>
<path d="M454.054 278.787C481.832 278.787 504.351 256.269 504.351 228.491C504.351 200.713 481.832 178.194 454.054 178.194C426.276 178.194 403.758 200.713 403.758 228.491C403.758 256.269 426.276 278.787 454.054 278.787Z" fill="#FFBD81"/>
<path d="M400.405 264.417C428.183 264.417 450.701 241.898 450.701 214.12C450.701 186.342 428.183 163.824 400.405 163.824C372.627 163.824 350.108 186.342 350.108 214.12C350.108 241.898 372.627 264.417 400.405 264.417Z" fill="#FFBD81"/>
<path d="M341.486 265.375C369 265.375 391.304 242.857 391.304 215.079C391.304 187.301 369 164.782 341.486 164.782C313.973 164.782 291.669 187.301 291.669 215.079C291.669 242.857 313.973 265.375 341.486 265.375Z" fill="#FFBD81"/>
<path d="M322.805 278.787C350.583 278.787 373.102 256.269 373.102 228.491C373.102 200.713 350.583 178.194 322.805 178.194C295.027 178.194 272.509 200.713 272.509 228.491C272.509 256.269 295.027 278.787 322.805 278.787Z" fill="#FFBD81"/>
<path d="M290.232 282.619C318.01 282.619 340.529 260.101 340.529 232.323C340.529 204.545 318.01 182.026 290.232 182.026C262.454 182.026 239.936 204.545 239.936 232.323C239.936 260.101 262.454 282.619 290.232 282.619Z" fill="#FFBD81"/>
<path d="M276.819 243.34C304.597 243.34 327.116 220.822 327.116 193.044C327.116 165.266 304.597 142.747 276.819 142.747C249.041 142.747 226.522 165.266 226.522 193.044C226.522 220.822 249.041 243.34 276.819 243.34Z" fill="#FFBD81"/>
<path d="M291.19 197.355C318.968 197.355 341.487 174.836 341.487 147.058C341.487 119.28 318.968 96.7617 291.19 96.7617C263.412 96.7617 240.894 119.28 240.894 147.058C240.894 174.836 263.412 197.355 291.19 197.355Z" fill="#FFBD81"/>
<path d="M319.451 197.355C346.965 197.355 369.269 174.836 369.269 147.058C369.269 119.28 346.965 96.7617 319.451 96.7617C291.938 96.7617 269.634 119.28 269.634 147.058C269.634 174.836 291.938 197.355 319.451 197.355Z" fill="#FFBD81"/>
<path d="M335.259 176.278C363.037 176.278 385.556 153.76 385.556 125.982C385.556 98.2036 363.037 75.6851 335.259 75.6851C307.481 75.6851 284.963 98.2036 284.963 125.982C284.963 153.76 307.481 176.278 335.259 176.278Z" fill="#FFBD81"/>
<path d="M376.455 199.271C404.233 199.271 426.751 176.752 426.751 148.974C426.751 121.196 404.233 98.6777 376.455 98.6777C348.677 98.6777 326.158 121.196 326.158 148.974C326.158 176.752 348.677 199.271 376.455 199.271Z" fill="#FFBD81"/>
<path d="M473.215 243.34C500.993 243.34 523.512 220.822 523.512 193.044C523.512 165.266 500.993 142.747 473.215 142.747C445.437 142.747 422.919 165.266 422.919 193.044C422.919 220.822 445.437 243.34 473.215 243.34Z" fill="#FFBD81"/>
<path d="M443.995 218.431C471.509 218.431 493.813 195.913 493.813 168.135C493.813 140.357 471.509 117.838 443.995 117.838C416.482 117.838 394.178 140.357 394.178 168.135C394.178 195.913 416.482 218.431 443.995 218.431Z" fill="#FFBD81"/>
<path d="M425.314 193.523C453.092 193.523 475.611 171.004 475.611 143.226C475.611 115.448 453.092 92.9297 425.314 92.9297C397.536 92.9297 375.018 115.448 375.018 143.226C375.018 171.004 397.536 193.523 425.314 193.523Z" fill="#FFBD81"/>
<path d="M389.867 155.201C417.645 155.201 440.163 132.683 440.163 104.905C440.163 77.1269 417.645 54.6084 389.867 54.6084C362.089 54.6084 339.57 77.1269 339.57 104.905C339.57 132.683 362.089 155.201 389.867 155.201Z" fill="#FFBD81"/>
<path d="M455.971 197.355C483.749 197.355 506.268 174.836 506.268 147.058C506.268 119.28 483.749 96.7617 455.971 96.7617C428.193 96.7617 405.675 119.28 405.675 147.058C405.675 174.836 428.193 197.355 455.971 197.355Z" fill="#FFBD81"/>
<g opacity="0.1">
<path opacity="0.1" d="M453.743 278.435C481.486 278.435 503.975 255.956 503.975 228.227C503.975 200.497 481.486 178.019 453.743 178.019C426.001 178.019 403.512 200.497 403.512 228.227C403.512 255.956 426.001 278.435 453.743 278.435Z" fill="black"/>
<path opacity="0.1" d="M400.322 264.718C428.065 264.718 450.554 242.239 450.554 214.509C450.554 186.78 428.065 164.301 400.322 164.301C372.58 164.301 350.091 186.78 350.091 214.509C350.091 242.239 372.58 264.718 400.322 264.718Z" fill="black"/>
<path opacity="0.1" d="M341.517 265.209C369.259 265.209 391.748 242.73 391.748 215.001C391.748 187.271 369.259 164.792 341.517 164.792C313.775 164.792 291.285 187.271 291.285 215.001C291.285 242.73 313.775 265.209 341.517 265.209Z" fill="black"/>
<path opacity="0.1" d="M322.403 278.435C350.145 278.435 372.634 255.956 372.634 228.227C372.634 200.497 350.145 178.019 322.403 178.019C294.66 178.019 272.171 200.497 272.171 228.227C272.171 255.956 294.66 278.435 322.403 278.435Z" fill="black"/>
<path opacity="0.1" d="M290.057 282.845C317.799 282.845 340.289 260.367 340.289 232.637C340.289 204.908 317.799 182.429 290.057 182.429C262.315 182.429 239.825 204.908 239.825 232.637C239.825 260.367 262.315 282.845 290.057 282.845Z" fill="black"/>
<path opacity="0.1" d="M276.824 243.167C304.567 243.167 327.056 220.688 327.056 192.959C327.056 165.229 304.567 142.75 276.824 142.75C249.082 142.75 226.593 165.229 226.593 192.959C226.593 220.688 249.082 243.167 276.824 243.167Z" fill="black"/>
<path opacity="0.1" d="M291.526 197.119C319.268 197.119 341.757 174.64 341.757 146.911C341.757 119.182 319.268 96.7026 291.526 96.7026C263.783 96.7026 241.294 119.182 241.294 146.911C241.294 174.64 263.783 197.119 291.526 197.119Z" fill="black"/>
<path opacity="0.1" d="M319.459 197.119C347.201 197.119 369.691 174.64 369.691 146.911C369.691 119.182 347.201 96.7026 319.459 96.7026C291.717 96.7026 269.228 119.182 269.228 146.911C269.228 174.64 291.717 197.119 319.459 197.119Z" fill="black"/>
<path opacity="0.1" d="M335.635 176.545C363.377 176.545 385.867 154.066 385.867 126.337C385.867 98.6078 363.377 76.1289 335.635 76.1289C307.893 76.1289 285.403 98.6078 285.403 126.337C285.403 154.066 307.893 176.545 335.635 176.545Z" fill="black"/>
<path opacity="0.1" d="M376.801 199.078C404.543 199.078 427.033 176.599 427.033 148.87C427.033 121.141 404.543 98.6621 376.801 98.6621C349.059 98.6621 326.569 121.141 326.569 148.87C326.569 176.599 349.059 199.078 376.801 199.078Z" fill="black"/>
<path opacity="0.1" d="M472.857 243.167C500.599 243.167 523.088 220.688 523.088 192.959C523.088 165.229 500.599 142.75 472.857 142.75C445.114 142.75 422.625 165.229 422.625 192.959C422.625 220.688 445.114 243.167 472.857 243.167Z" fill="black"/>
<path opacity="0.1" d="M443.941 218.183C471.683 218.183 494.172 195.704 494.172 167.975C494.172 140.246 471.683 117.767 443.941 117.767C416.198 117.767 393.709 140.246 393.709 167.975C393.709 195.704 416.198 218.183 443.941 218.183Z" fill="black"/>
<path opacity="0.1" d="M425.318 193.199C453.06 193.199 475.549 170.721 475.549 142.991C475.549 115.262 453.06 92.7832 425.318 92.7832C397.575 92.7832 375.086 115.262 375.086 142.991C375.086 170.721 397.575 193.199 425.318 193.199Z" fill="black"/>
<path opacity="0.1" d="M390.033 155.481C417.776 155.481 440.265 133.002 440.265 105.273C440.265 77.5434 417.776 55.0645 390.033 55.0645C362.291 55.0645 339.802 77.5434 339.802 105.273C339.802 133.002 362.291 155.481 390.033 155.481Z" fill="black"/>
<path opacity="0.1" d="M455.703 197.119C483.445 197.119 505.935 174.64 505.935 146.911C505.935 119.182 483.445 96.7026 455.703 96.7026C427.961 96.7026 405.472 119.182 405.472 146.911C405.472 174.64 427.961 197.119 455.703 197.119Z" fill="black"/>
</g>
<path d="M428.77 316.15C428.77 316.15 459.913 290.428 444.506 253.801L429.099 248.13L412.381 298.708L428.77 316.15Z" fill="#67647E"/>
<path opacity="0.1" d="M430.781 246.214L434.415 247.571L418.236 297.228L432.353 312.467C431.184 313.627 430.457 314.234 430.457 314.234L414.297 296.792L430.781 246.214Z" fill="black"/>
<path opacity="0.1" d="M276.819 449.316C427.879 449.316 550.336 428.728 550.336 403.331C550.336 377.934 427.879 357.346 276.819 357.346C125.76 357.346 3.30176 377.934 3.30176 403.331C3.30176 428.728 125.76 449.316 276.819 449.316Z" fill="white"/>
<path d="M486.958 310.402C486.958 310.402 476.82 320.377 482.545 335.179C488.27 349.981 472.736 374.59 472.736 374.59L473.235 374.512C494.054 370.896 504.402 347.469 492.823 330.062C488.494 323.6 484.959 316.005 486.958 310.402Z" fill="#FFBD81"/>
<path d="M486.713 310.402C486.713 310.402 481.089 322.629 486.713 332.603C492.338 342.577 487.693 370.567 472.736 374.59" stroke="#535461" stroke-miterlimit="10"/>
<path d="M505.309 350.764C505.309 350.764 493.867 348.954 492.827 359.149C491.786 369.343 470.82 370.755 470.82 370.755L471.215 371.015C488.521 382.293 505.063 378.208 502.567 363.214C501.645 357.638 501.719 352.039 505.309 350.764Z" fill="#FFBD81"/>
<path opacity="0.2" d="M505.309 350.764C505.309 350.764 493.867 348.954 492.827 359.149C491.786 369.343 470.82 370.755 470.82 370.755L471.215 371.015C488.521 382.293 505.063 378.208 502.567 363.214C501.645 357.638 501.719 352.039 505.309 350.764Z" fill="#F5F5F5"/>
<path d="M505.309 351.598C505.309 351.598 496.431 353.496 497.156 361.244C497.881 368.992 483.966 378.324 470.82 370.942" stroke="#535461" stroke-miterlimit="10"/>
<path d="M290.711 262.517L294.688 278.439C294.688 278.439 322.791 282.104 341.527 279.801C344.84 279.331 348.019 278.184 350.869 276.431C352.451 275.495 354.949 275.088 358.363 277.646C364.212 282.055 392.917 317.329 388.268 353.927C387.907 356.684 386.648 359.246 384.685 361.216C382.722 363.185 380.164 364.453 377.409 364.823C371.684 365.603 366.212 367.674 361.405 370.878L347.2 380.339L492.855 377.154L477.734 358.846C477.734 358.846 467.388 350.091 459.428 349.292C457.106 349.062 455.191 346.931 453.643 344.035C444.576 327.059 433.731 311.098 421.975 295.856C413.412 284.754 406.226 273.055 406.897 265.706C408.489 248.191 406.897 219.536 406.897 219.536L376.654 215.558C376.654 215.558 380.632 253.772 344.021 263.32C307.41 272.869 290.711 262.517 290.711 262.517Z" fill="#67647E"/>
<path d="M400.884 373.938C400.884 373.938 417.716 370.558 422.209 366.055C426.702 361.551 446.897 353.668 449.141 359.3C451.385 364.931 479.452 384.073 460.385 387.453C441.319 390.833 415.496 391.956 409.884 389.705C404.272 387.453 400.884 373.938 400.884 373.938Z" fill="#A8A8A8"/>
<path opacity="0.2" d="M460.384 385.298C441.312 388.715 415.481 389.851 409.867 387.574C405.593 385.838 402.62 377.506 401.446 373.632L400.884 373.751C400.884 373.751 404.253 387.415 409.862 389.692C415.472 391.968 441.298 390.833 460.38 387.415C465.891 386.423 467.466 384.112 466.869 381.186C466.404 383.095 464.483 384.568 460.384 385.298Z" fill="black"/>
<path d="M514.89 277.824C514.824 279.878 514.165 281.873 512.989 283.577C511.803 281.879 511.134 279.888 511.058 277.834C511.058 274.66 511.898 272.086 512.958 272.081C514.019 272.076 514.879 274.65 514.89 277.824Z" fill="#FFBD81"/>
<path d="M375.976 274.955C375.923 277.009 375.424 279.002 374.539 280.703C373.653 279.002 373.155 277.009 373.102 274.955C373.102 271.781 373.743 269.207 374.539 269.207C375.334 269.207 375.976 271.781 375.976 274.955Z" fill="#FFBD81"/>
<path d="M527.491 330.427C528.581 332.156 529.194 334.182 529.26 336.269C527.431 335.56 525.825 334.309 524.629 332.662C522.86 330.051 522.07 327.434 522.86 326.819C523.65 326.205 525.727 327.82 527.491 330.427Z" fill="#FFBD81"/>
<path d="M468.904 300.822C468.834 302.876 468.169 304.868 466.988 306.57C465.807 304.868 465.143 302.876 465.072 300.822C465.072 297.648 465.928 295.074 466.988 295.074C468.049 295.074 468.904 297.658 468.904 300.822Z" fill="#FFBD81"/>
<path d="M434.415 282.62C434.344 284.674 433.68 286.666 432.499 288.368C431.318 286.666 430.654 284.674 430.583 282.62C430.583 279.446 431.439 276.872 432.499 276.872C433.56 276.872 434.415 279.446 434.415 282.62Z" fill="#FFBD81"/>
<path d="M413.122 293.667C414.014 295.57 414.412 297.718 414.268 299.864C412.549 298.921 411.101 297.447 410.093 295.614C408.627 292.73 408.116 289.956 408.947 289.417C409.777 288.878 411.661 290.783 413.122 293.667Z" fill="#FFBD81"/>
<path d="M397.152 345.332C395.771 346.615 394.075 347.459 392.262 347.765C392.667 345.867 393.569 344.13 394.865 342.752C396.933 340.697 399.125 339.608 399.755 340.318C400.385 341.028 399.219 343.277 397.152 345.332Z" fill="#FFBD81"/>
<path d="M430.336 342.458C428.782 343.741 426.875 344.585 424.835 344.891C425.291 342.993 426.306 341.256 427.764 339.878C430.09 337.823 432.557 336.734 433.265 337.444C433.973 338.154 432.662 340.398 430.336 342.458Z" fill="#FFBD81"/>
<path opacity="0.1" d="M430.336 342.458C428.782 343.741 426.875 344.585 424.835 344.891C425.291 342.993 426.306 341.256 427.764 339.878C430.09 337.823 432.557 336.734 433.265 337.444C433.973 338.154 432.662 340.398 430.336 342.458Z" fill="black"/>
<path d="M437.039 375.994C435.486 377.275 433.58 378.117 431.541 378.423C431.995 376.523 433.012 374.783 434.473 373.404C436.798 371.353 439.263 370.266 439.971 370.975C440.679 371.684 439.369 373.938 437.039 375.994Z" fill="#FFBD81"/>
<path opacity="0.1" d="M437.039 375.994C435.486 377.275 433.58 378.117 431.541 378.423C431.995 376.523 433.012 374.783 434.473 373.404C436.798 371.353 439.263 370.266 439.971 370.975C440.679 371.684 439.369 373.938 437.039 375.994Z" fill="black"/>
<path d="M487.106 374.032C487.106 374.032 495.647 372.389 497.923 370.201C500.199 368.013 510.451 364.182 511.589 366.916C512.727 369.65 526.962 378.954 517.284 380.592C507.606 382.229 494.509 382.78 491.664 381.688C488.818 380.596 487.106 374.032 487.106 374.032Z" fill="#A8A8A8"/>
<path opacity="0.2" d="M517.284 379.461C507.606 381.169 494.509 381.737 491.664 380.602C489.497 379.732 487.99 375.577 487.391 373.632L487.106 373.693C487.106 373.693 488.813 380.521 491.664 381.662C494.514 382.802 507.606 382.23 517.284 380.521C520.079 380.019 520.878 378.873 520.578 377.406C520.324 378.356 519.35 379.094 517.284 379.461Z" fill="black"/>
<path d="M454.054 267.291C481.832 267.291 504.351 244.773 504.351 216.995C504.351 189.217 481.832 166.698 454.054 166.698C426.276 166.698 403.758 189.217 403.758 216.995C403.758 244.773 426.276 267.291 454.054 267.291Z" fill="#FFBD81"/>
<path d="M400.405 253.879C428.183 253.879 450.701 231.36 450.701 203.582C450.701 175.804 428.183 153.286 400.405 153.286C372.627 153.286 350.108 175.804 350.108 203.582C350.108 231.36 372.627 253.879 400.405 253.879Z" fill="#FFBD81"/>
<path d="M341.486 253.879C369 253.879 391.304 231.36 391.304 203.582C391.304 175.804 369 153.286 341.486 153.286C313.973 153.286 291.669 175.804 291.669 203.582C291.669 231.36 313.973 253.879 341.486 253.879Z" fill="#FFBD81"/>
<path d="M322.805 267.291C350.583 267.291 373.102 244.773 373.102 216.995C373.102 189.217 350.583 166.698 322.805 166.698C295.027 166.698 272.509 189.217 272.509 216.995C272.509 244.773 295.027 267.291 322.805 267.291Z" fill="#FFBD81"/>
<path d="M290.232 271.123C318.01 271.123 340.529 248.819 340.529 221.306C340.529 193.792 318.01 171.488 290.232 171.488C262.454 171.488 239.936 193.792 239.936 221.306C239.936 248.819 262.454 271.123 290.232 271.123Z" fill="#FFBD81"/>
<path d="M276.819 231.844C304.597 231.844 327.116 209.326 327.116 181.547C327.116 153.769 304.597 131.251 276.819 131.251C249.041 131.251 226.522 153.769 226.522 181.547C226.522 209.326 249.041 231.844 276.819 231.844Z" fill="#FFBD81"/>
<path d="M291.19 185.859C318.968 185.859 341.487 163.34 341.487 135.562C341.487 107.784 318.968 85.2656 291.19 85.2656C263.412 85.2656 240.894 107.784 240.894 135.562C240.894 163.34 263.412 185.859 291.19 185.859Z" fill="#FFBD81"/>
<path d="M319.451 185.859C346.965 185.859 369.269 163.34 369.269 135.562C369.269 107.784 346.965 85.2656 319.451 85.2656C291.938 85.2656 269.634 107.784 269.634 135.562C269.634 163.34 291.938 185.859 319.451 185.859Z" fill="#FFBD81"/>
<path d="M335.259 165.74C363.037 165.74 385.556 143.221 385.556 115.443C385.556 87.6655 363.037 65.147 335.259 65.147C307.481 65.147 284.963 87.6655 284.963 115.443C284.963 143.221 307.481 165.74 335.259 165.74Z" fill="#FFBD81"/>
<path d="M376.455 187.775C404.233 187.775 426.751 165.256 426.751 137.478C426.751 109.7 404.233 87.1816 376.455 87.1816C348.677 87.1816 326.158 109.7 326.158 137.478C326.158 165.256 348.677 187.775 376.455 187.775Z" fill="#FFBD81"/>
<path d="M473.215 231.844C500.993 231.844 523.512 209.326 523.512 181.547C523.512 153.769 500.993 131.251 473.215 131.251C445.437 131.251 422.919 153.769 422.919 181.547C422.919 209.326 445.437 231.844 473.215 231.844Z" fill="#FFBD81"/>
<path d="M443.995 206.935C471.509 206.935 493.813 184.417 493.813 156.639C493.813 128.861 471.509 106.342 443.995 106.342C416.482 106.342 394.178 128.861 394.178 156.639C394.178 184.417 416.482 206.935 443.995 206.935Z" fill="#FFBD81"/>
<path d="M425.314 182.027C453.092 182.027 475.611 159.508 475.611 131.73C475.611 103.952 453.092 81.4336 425.314 81.4336C397.536 81.4336 375.018 103.952 375.018 131.73C375.018 159.508 397.536 182.027 425.314 182.027Z" fill="#FFBD81"/>
<path d="M389.867 144.663C417.645 144.663 440.163 122.145 440.163 94.3668C440.163 66.5888 417.645 44.0703 389.867 44.0703C362.089 44.0703 339.57 66.5888 339.57 94.3668C339.57 122.145 362.089 144.663 389.867 144.663Z" fill="#FFBD81"/>
<path d="M455.971 185.859C483.749 185.859 506.268 163.34 506.268 135.562C506.268 107.784 483.749 85.2656 455.971 85.2656C428.193 85.2656 405.675 107.784 405.675 135.562C405.675 163.34 428.193 185.859 455.971 185.859Z" fill="#FFBD81"/>
<path opacity="0.1" d="M503.393 143.39C503.393 143.39 456.837 120.653 428.667 160.95L503.393 143.39Z" fill="black"/>
<path opacity="0.1" d="M380.766 98.6837C380.766 98.6837 328.715 97.1153 318.494 144.663L380.766 98.6837Z" fill="black"/>
<path opacity="0.1" d="M316.578 201.581C316.578 201.581 270.022 179.739 241.852 218.432L316.578 201.581Z" fill="black"/>
<path d="M100.306 313.491C105.759 321.537 104.019 350.344 104.019 350.344C104.019 350.344 76.6112 341.273 71.158 333.231C68.5396 329.367 67.564 324.622 68.4459 320.039C69.3278 315.456 71.995 311.411 75.8606 308.794C79.7263 306.177 84.4738 305.201 89.0588 306.083C93.6438 306.964 97.6907 309.63 100.309 313.494L100.306 313.491Z" fill="#FFBD81"/>
<path opacity="0.1" d="M100.306 313.491C105.759 321.537 104.019 350.344 104.019 350.344C104.019 350.344 76.6112 341.273 71.158 333.231C68.5396 329.367 67.564 324.622 68.4459 320.039C69.3278 315.456 71.995 311.411 75.8606 308.794C79.7263 306.177 84.4738 305.201 89.0588 306.083C93.6438 306.964 97.6907 309.63 100.309 313.494L100.306 313.491Z" fill="black"/>
<path d="M75.9639 308.812C75.9639 308.812 96.5031 324.662 104.126 350.372" stroke="#535461" stroke-miterlimit="10"/>
<path d="M109.298 328.53C109.298 328.53 94.7135 326.041 104.674 350.187C104.674 350.187 114.808 346.326 115.598 336.719C115.754 334.849 115.22 332.988 114.096 331.486C112.972 329.984 111.335 328.946 109.497 328.569L109.298 328.53Z" fill="#FFBD81"/>
<path d="M109.512 328.506C109.512 328.506 112.29 341.86 104.688 350.194" stroke="#535461" stroke-miterlimit="10"/>
<path d="M110.654 367.346C111.306 366.815 111.781 366.098 112.017 365.291C112.194 364.473 111.846 363.495 111.063 363.197C110.188 362.863 109.253 363.467 108.545 364.082C107.837 364.697 107.022 365.394 106.094 365.263C106.571 364.83 106.928 364.282 107.13 363.67C107.332 363.059 107.372 362.406 107.246 361.775C107.206 361.513 107.096 361.267 106.926 361.063C106.439 360.544 105.56 360.768 104.977 361.177C103.127 362.479 102.611 364.989 102.601 367.25C102.416 366.436 102.572 365.586 102.565 364.761C102.558 363.936 102.33 362.983 101.626 362.55C101.189 362.315 100.699 362.199 100.203 362.212C99.3708 362.18 98.4459 362.265 97.8768 362.873C97.1653 363.627 97.3538 364.896 97.9692 365.718C98.5846 366.539 99.5166 367.069 100.377 367.645C101.067 368.055 101.656 368.615 102.099 369.284C102.151 369.377 102.194 369.474 102.227 369.575H107.438C108.606 368.981 109.688 368.231 110.654 367.346Z" fill="#FFBD81"/>
<path d="M497.626 403.298C498.522 402.605 499.175 401.67 499.498 400.617C499.743 399.551 499.264 398.275 498.189 397.886C496.986 397.45 495.701 398.238 494.728 399.04C493.755 399.843 492.636 400.752 491.361 400.58C492.016 400.016 492.507 399.301 492.784 398.503C493.062 397.706 493.117 396.854 492.944 396.031C492.889 395.689 492.737 395.369 492.504 395.103C491.835 394.426 490.627 394.718 489.826 395.252C487.284 396.949 486.576 400.223 486.561 403.172C486.307 402.11 486.522 401.002 486.512 399.926C486.502 398.85 486.189 397.607 485.222 397.042C484.622 396.736 483.948 396.584 483.267 396.601C482.123 396.559 480.852 396.671 480.07 397.464C479.093 398.447 479.352 400.102 480.197 401.174C481.043 402.245 482.323 402.936 483.506 403.687C484.454 404.222 485.263 404.953 485.872 405.825C485.943 405.946 486.002 406.073 486.048 406.205H493.208C494.812 405.43 496.299 404.452 497.626 403.298Z" fill="#FFBD81"/>
<path opacity="0.1" d="M385.556 333.472L386.508 336.269L395.136 327.756C395.136 327.756 394.755 326.911 394.189 325.731C393.072 327.934 387.866 331.802 385.556 333.472Z" fill="black"/>
<path opacity="0.1" d="M422.919 355.954C424.34 356.806 425.847 357.496 427.414 358.011C429.652 358.721 432.218 357.973 433.457 357.515V355.692L423.014 354.472L422.919 355.954Z" fill="black"/>
<path opacity="0.1" d="M359.689 385.129C358.058 383.85 356.242 382.838 354.307 382.128C352.462 381.484 350.723 380.558 349.15 379.38" fill="black"/>
<path d="M218.172 292.508L218.163 292.569L218.138 292.744L215.574 311.061L199.875 316.796L199.629 316.679L190.839 312.523L186.294 295.162L185.982 293.97L186.077 293.934L205.522 286.661L218.16 292.501L218.172 292.508Z" fill="#FF7B02"/>
<path d="M199.68 316.796L190.857 312.542L185.982 293.547L186.078 293.51L198.794 298.958L199.68 316.796Z" fill="#FF7B02"/>
<path opacity="0.2" d="M199.68 316.582L193.405 303.471L194.211 299.753L190.415 294.88L190.092 295.179L193.749 299.874L191.017 312.475L191.43 312.582L193.256 304.159L199.304 316.796L199.68 316.582Z" fill="black"/>
<path d="M218.172 292.825L218.138 292.836L198.745 299.674L186.294 295.291L185.982 294.081L186.077 294.044L205.522 286.661L218.16 292.59L218.163 292.658L218.172 292.825Z" fill="#3F3D56"/>
<path d="M199.43 299.674L195.571 296.692L196.453 293.378L207.478 289.401L214.975 289.843L217.952 292.384L218.172 293.046L199.43 299.674Z" fill="#FF7B02"/>
<path d="M185.982 293.51L195.135 293.192L200.093 291.651L207.823 289.161L209.269 287.252L205.661 286.661L185.982 293.51Z" fill="#FF7B02"/>
<path d="M204.101 290.286L199.52 291.894L199.667 292.314L204.248 290.706L204.101 290.286Z" fill="#CCCCCC"/>
<path d="M143.67 264.061L141.465 274.938L151.755 282.552L156.532 268.411L143.67 264.061Z" fill="#9F616A"/>
<path d="M151.739 273.648C157.034 273.648 161.327 269.356 161.327 264.06C161.327 258.765 157.034 254.472 151.739 254.472C146.443 254.472 142.15 258.765 142.15 264.06C142.15 269.356 146.443 273.648 151.739 273.648Z" fill="#9F616A"/>
<path d="M130.971 338.017C131.015 341.131 144.666 375.793 142.771 380.306C139.783 383.341 133.356 399.493 130.611 403.802C130.251 403.802 128.452 409.165 128.452 409.165C128.452 409.165 132.77 415.958 137.447 413.098C143.329 399.352 158.059 391.686 158.319 373.771C159.03 379.43 161.129 415.757 161.129 415.757C161.129 415.757 160.726 415.927 169.788 416.789C171.195 395.706 176.944 359.836 164.073 337.301C160.115 335.514 130.971 338.017 130.971 338.017Z" fill="#2F2E41"/>
<path d="M161.074 414.735C160.661 415.566 157.696 423.235 160.394 424.004C163.506 424.891 166.522 423.648 166.522 423.648C166.522 423.648 171.969 425.427 175.302 423.166C176.858 421.541 176.505 420.063 175.762 418.991C175.385 418.463 174.902 418.028 174.347 417.715C173.792 417.402 173.178 417.22 172.549 417.181C170.857 417.055 170.32 416.727 170.126 415.917C169.843 414.735 161.074 414.735 161.074 414.735Z" fill="#2F2E41"/>
<path d="M131.592 408.571C131.592 408.571 124.41 410.969 125.922 413.767C126.904 415.501 128.338 416.899 130.051 417.794C130.051 417.794 131.549 424.323 135.707 424.323C137.786 424.323 138.494 423.074 138.683 421.825C138.769 421.202 138.725 420.566 138.554 419.963C138.383 419.359 138.089 418.802 137.694 418.331C136.644 417.051 136.495 416.45 136.883 415.765C137.45 414.766 131.592 408.571 131.592 408.571Z" fill="#2F2E41"/>
<path d="M166.121 338.732C166.121 338.732 164.656 341.603 158.801 340.525C152.946 339.45 129.892 340.525 129.892 340.525C129.892 340.525 131.171 314.86 128.244 299.424C125.316 283.987 136.843 275.193 136.843 275.193L140.503 271.602C144.163 271.246 151.892 282.387 151.892 282.387C154.436 282.805 156.81 293.411 158.836 303.446C158.956 304.02 159.068 304.586 159.181 305.153C160.115 309.832 161.415 315.04 162.193 319.715C162.25 320.047 162.302 320.375 162.352 320.703C163.277 326.775 164.536 332.793 166.121 338.732Z" fill="#E6E6E6"/>
<path d="M140.649 258.389C140.649 258.389 138.841 254.433 143.54 252.634C143.54 252.634 147.516 246.16 155.468 250.476C155.468 250.476 160.89 252.634 160.89 258.389C160.89 264.144 162.697 265.223 162.697 265.223C162.697 265.223 160.006 262.476 159.283 260.318C158.56 258.16 152.938 257.67 150.769 259.828C148.6 261.986 143.179 261.626 143.179 261.626L143.54 269.539C143.54 269.539 141.733 264.863 141.01 264.863C140.287 264.863 139.564 258.389 140.649 258.389Z" fill="#2F2E41"/>
<path opacity="0.2" d="M162.012 320.221C153.434 315.537 139.538 305.264 135.056 299.707C129.146 292.387 135.592 286.823 135.592 286.823C142.9 282.191 151.637 298.083 151.637 298.083L158.713 303.849C158.83 304.426 158.941 304.996 159.052 305.567C159.969 310.275 161.247 315.516 162.012 320.221Z" fill="black"/>
<path d="M187.353 314.57C187.353 314.57 200.082 320.003 202.177 313.896C204.272 307.788 192.127 307.893 192.127 307.893L187.359 308.603L187.353 314.57Z" fill="#9F616A"/>
<path d="M133.523 284.841C133.523 284.841 127.109 290.337 132.988 297.561C138.867 304.785 165.887 320.221 165.887 320.221L183.487 315.482L188.468 316.389L189.407 307.075L182.069 307.789L163.443 303.838L151.566 294.239C151.566 294.239 140.797 280.27 133.523 284.841Z" fill="#E6E6E6"/>
<path opacity="0.2" d="M157.507 351.041L158.587 377.066L155.848 351.041H157.507Z" fill="black"/>
<path d="M345.793 324.925L335.237 327.316C334.421 327.501 333.563 327.367 332.845 326.944C332.128 326.52 331.607 325.839 331.395 325.047C331.272 324.587 331.257 324.106 331.351 323.64C331.445 323.174 331.646 322.735 331.938 322.355C332.231 321.976 332.608 321.666 333.04 321.449C333.472 321.232 333.95 321.113 334.436 321.102L344.632 320.871L345.793 324.925Z" fill="#FFB9B9"/>
<path d="M344.511 327.397L342.167 320.206L356.221 315.298L352.491 281.711C359.207 282.96 362.403 288.36 362.104 295.332L363.922 318.251L344.511 327.397Z" fill="#3F3D56"/>
<path d="M354.495 274.46H378.426V262.261C378.434 258.967 377.175 255.802 374.921 253.453C373.82 252.296 372.504 251.377 371.051 250.75C369.598 250.123 368.036 249.801 366.46 249.804C363.311 249.81 360.291 251.086 358.053 253.356C355.814 255.626 354.538 258.708 354.499 261.935C354.497 262.047 354.495 262.153 354.495 262.261L354.495 274.46Z" fill="#2F2E41"/>
<path d="M387.26 411.517L379.802 410.652L370.876 349.743L352.413 410.899L344.343 411.147L353.513 335.906L352.168 318.733L375.033 311.443C391.228 322.866 390.892 363.213 387.26 411.517Z" fill="#2F2E41"/>
<path d="M363.923 271.559C368.729 271.559 372.625 267.501 372.625 262.494C372.625 257.488 368.729 253.43 363.923 253.43C359.117 253.43 355.221 257.488 355.221 262.494C355.221 267.501 359.117 271.559 363.923 271.559Z" fill="#FFB9B9"/>
<path d="M372.625 278.506L358.121 282.436C360.565 277.582 361.347 273.05 360.023 268.927L370.247 267.208C369.59 271.15 370.442 275.202 372.625 278.506Z" fill="#FFB9B9"/>
<path d="M377.557 314.993C369.163 320.392 359.385 326.594 352.165 320.576L348.73 303.702C346 301.243 347.211 293.654 350.901 282.837C351.136 282.15 351.521 281.527 352.03 281.013C352.538 280.5 353.155 280.11 353.834 279.874L359.525 277.895C362.047 280.041 366.181 278.761 371.056 275.91L376.698 277.399L379.152 296.01C375.61 301.377 376.229 308.523 377.557 314.993Z" fill="#3F3D56"/>
<path d="M371.175 321.75L360.091 324.406C359.234 324.612 358.332 324.463 357.579 323.992C356.826 323.522 356.28 322.766 356.057 321.885C355.927 321.374 355.911 320.84 356.01 320.322C356.109 319.804 356.32 319.316 356.627 318.894C356.934 318.472 357.33 318.128 357.784 317.887C358.238 317.646 358.739 317.514 359.249 317.502L369.955 317.245L371.175 321.75Z" fill="#FFB9B9"/>
<path d="M386.143 422.716C384.866 423.319 383.797 419.584 382.72 420.679C379.708 423.74 372.482 423.054 372.482 423.054C372.239 422.973 372.015 422.842 371.822 422.67C371.63 422.497 371.474 422.285 371.363 422.048C371.252 421.811 371.188 421.552 371.177 421.289C371.165 421.026 371.205 420.763 371.295 420.516C371.402 420.221 371.577 419.957 371.804 419.747C372.032 419.537 372.305 419.387 372.601 419.311L375.805 418.482L380.835 409.334L386.316 408.616L386.455 408.85C387.515 410.617 388.198 412.597 388.459 414.658C388.72 416.719 388.553 418.814 387.97 420.803C387.514 422.314 386.893 422.362 386.143 422.716Z" fill="#2F2E41"/>
<path d="M351.334 422.716C350.058 423.319 348.988 419.584 347.911 420.679C344.899 423.74 337.673 423.054 337.673 423.054C337.43 422.973 337.206 422.842 337.014 422.67C336.821 422.497 336.665 422.285 336.554 422.048C336.443 421.811 336.38 421.552 336.368 421.289C336.357 421.026 336.397 420.763 336.486 420.516C336.593 420.221 336.768 419.957 336.996 419.747C337.223 419.537 337.497 419.387 337.792 419.311L340.996 418.482L346.026 409.334L351.508 408.616L351.646 408.85C352.706 410.617 353.389 412.597 353.651 414.658C353.912 416.719 353.745 418.814 353.161 420.803C352.705 422.314 352.085 422.362 351.334 422.716Z" fill="#2F2E41"/>
<path d="M374.8 255.534L372.545 262.857L353.045 262.503C353.112 259.941 353.961 257.464 355.474 255.419C356.987 253.373 359.088 251.861 361.485 251.093C363.881 250.326 366.452 250.341 368.839 251.137C371.227 251.934 373.311 253.471 374.8 255.534H374.8Z" fill="#2F2E41"/>
<path d="M369.893 323.771L367.549 316.581L381.603 311.673L376.287 277.36C379.534 277.964 382.458 279.75 384.517 282.388C386.576 285.026 387.631 288.337 387.486 291.708L389.304 314.625L369.893 323.771Z" fill="#3F3D56"/>
<path d="M361.022 302.406L361.013 302.47L360.987 302.656L358.33 322.05L342.06 328.122L341.805 327.998L332.697 323.598L327.987 305.215L327.664 303.953L327.762 303.915L347.913 296.215L361.01 302.399L361.022 302.406Z" fill="#FF7B02"/>
<path d="M342.168 328.123L332.826 323.75L327.664 304.23L327.765 304.192L341.229 309.79L342.168 328.123Z" fill="#FF7B02"/>
<path opacity="0.2" d="M342.168 327.903L335.049 314.454L335.963 310.641L331.657 305.642L331.29 305.949L335.439 310.765L332.34 323.69L332.808 323.799L334.879 315.16L341.741 328.122L342.168 327.903Z" fill="black"/>
<path d="M361.022 302.742L360.987 302.753L340.89 309.993L327.987 305.352L327.664 304.071L327.762 304.032L347.913 296.215L361.01 302.492L361.013 302.565L361.022 302.742Z" fill="#3F3D56"/>
<path d="M341.178 310.718L337.092 307.35L338.026 303.607L349.699 299.116L357.637 299.615L360.789 302.484L361.022 303.233L341.178 310.718Z" fill="#FF7B02"/>
<path d="M328.389 304.192L337.509 303.821L342.45 302.027L350.153 299.127L351.594 296.903L347.999 296.215L328.389 304.192Z" fill="#FF7B02"/>
<path d="M346.494 300.446L341.644 302.148L341.799 302.593L346.65 300.891L346.494 300.446Z" fill="#CCCCCC"/>
<path d="M270.992 421.319C271.184 420.649 271.596 420.062 272.162 419.651C272.23 419.605 272.302 419.562 272.374 419.52C272.965 419.246 273.603 419.083 274.254 419.042C276.695 418.728 279.259 418.258 281.113 416.667C281.645 416.205 282.1 415.667 282.593 415.172C283.641 414.177 284.769 413.269 285.966 412.458C286.083 412.35 286.221 412.265 286.371 412.21C286.521 412.155 286.681 412.13 286.842 412.137C287.303 411.774 287.684 411.32 287.96 410.803C288.225 410.146 288.349 409.441 288.326 408.733C288.572 401.536 290.108 394.135 288.402 387.141C288.22 386.352 288.27 385.528 288.547 384.766C288.202 384.61 287.858 384.449 287.522 384.275C284.635 382.768 282.067 380.72 279.961 378.242C278.978 377.189 278.198 375.965 277.66 374.631C277.018 372.836 277.112 370.872 277.341 368.983C277.815 365.655 278.484 362.357 279.344 359.106L281.296 351.063C281.721 349.293 282.194 347.477 283.138 345.931H283.048C283.112 345.038 283.18 344.145 283.312 343.26C283.591 341.649 283.974 340.058 284.46 338.497C284.63 337.905 284.762 337.079 284.958 336.283C284.605 332.672 283.193 329.166 282.955 325.568C282.878 325.669 282.806 325.771 282.725 325.873C282.138 326.601 281.33 327.143 280.735 327.85C279.621 329.196 279.37 331.016 279.136 332.731C279.064 333.625 278.841 334.501 278.477 335.322C278.272 335.661 278.092 336.013 277.937 336.376C277.69 337.109 277.873 337.905 278.022 338.667C278.234 339.75 278.311 341.012 277.528 341.804C277.101 342.2 276.547 342.435 275.963 342.468C275.398 342.508 274.831 342.41 274.312 342.182C273.793 341.954 273.338 341.603 272.987 341.16C272.183 340.123 272.068 338.73 272.102 337.43C272.097 336.451 272.258 335.478 272.578 334.551C273.022 333.579 273.568 332.657 274.207 331.8C275.347 330.047 276.185 328.129 277.124 326.266C277.869 324.745 278.735 323.285 279.714 321.901C280.246 321.165 280.824 320.458 281.3 319.692C281.458 319.438 282.236 317.545 282.963 315.653C282.589 315.576 282.202 315.424 282.113 315.077C282.077 314.873 282.099 314.663 282.177 314.471C283.781 309.006 284.08 303.243 283.048 297.643C282.768 296.127 282.389 294.616 282.393 293.079C282.398 291.542 282.819 289.925 283.954 288.845C284.652 288.181 285.562 287.762 286.285 287.127C287.679 285.899 288.232 284.015 288.589 282.211C288.699 281.365 288.963 280.546 289.368 279.794C289.479 279.626 289.604 279.467 289.742 279.32C288.739 276.622 288.23 273.767 288.236 270.891C288.237 268.732 288.523 266.583 289.087 264.498C288.857 265.065 288.662 265.645 288.453 266.238C290.231 257 297.192 250.108 305.506 250.108H305.736C315.164 250.108 322.853 258.969 323.218 270.065C325.081 271.255 326.559 272.956 327.474 274.963C328.388 276.97 328.7 279.198 328.372 281.377C330.515 283.511 331.719 286.404 331.719 289.421C331.697 292.499 330.447 295.442 328.245 297.603C326.044 299.765 323.07 300.967 319.978 300.945C318 300.945 316.053 300.45 314.318 299.506C314.219 300.46 314.047 301.405 313.803 302.334C313.412 303.807 312.808 305.23 312.506 306.724C312.204 308.218 312.242 309.861 313.059 311.157C313.719 312.159 314.214 313.259 314.526 314.416C314.805 315.809 314.892 317.234 314.785 318.65C314.747 319.946 314.713 321.237 314.675 322.532C314.53 327.613 314.39 332.693 315.423 337.68C315.891 339.941 317.073 342.087 316.805 344.382C316.672 345.214 316.429 346.026 316.082 346.795C315.657 347.904 315.104 349.098 314.024 349.636C313.497 349.87 312.926 349.992 312.349 349.996C311.639 350.029 310.927 349.998 310.222 349.903C309.797 349.843 309.223 349.56 309.372 349.153C309.442 349.016 309.547 348.901 309.678 348.819C310.231 348.384 310.679 347.83 310.989 347.199C311.298 346.568 311.46 345.876 311.464 345.174C311.464 343.167 310.125 341.232 310.537 339.247C310.796 338.027 311.715 336.846 311.328 335.661C310.478 332.981 310.35 330.106 309.627 327.388C309.385 326.503 309.142 325.614 308.896 324.73C308.47 323.146 308.045 321.559 307.675 319.958C306.822 316.135 306.411 312.228 306.45 308.312C305.761 309.573 305.291 310.941 305.06 312.359C304.932 313.388 305 314.476 304.515 315.394C304.031 316.313 303.07 316.986 302.495 317.871C302.731 318.408 302.999 318.93 303.299 319.433C303.902 320.203 304.452 321.012 304.945 321.855C305.37 322.702 305.668 323.574 306.029 324.433C307.241 327.321 309.321 329.937 309.623 333.049C309.869 335.551 308.917 337.998 307.951 340.322C307.384 341.711 306.796 343.094 306.187 344.471C306.148 344.56 306.106 344.657 306.059 344.746C305.987 345.453 305.893 346.156 305.8 346.863H304.239C303.601 347.71 302.891 348.556 302.508 349.543C302.256 350.308 302.113 351.105 302.083 351.909C301.772 355.72 301.832 359.627 300.382 363.171C299.957 364.225 299.531 365.288 299.489 366.359C299.443 367.252 299.3 368.138 299.064 369C298.848 369.934 298.734 370.888 298.723 371.845C298.677 373.491 298.719 375.137 298.851 376.778C302.253 378.894 305.085 381.951 308.147 384.597C312.368 388.237 317.159 391.164 322.329 393.263L322.304 393.018C323.758 392.95 325.145 393.441 326.463 394.114C326.927 394.343 327.377 394.588 327.824 394.83C328.07 394.944 328.293 395.102 328.483 395.295C329.078 395.985 328.645 397.031 328.19 397.835C326.676 400.474 325.162 403.111 323.648 405.744C323.299 406.354 322.946 406.967 322.657 407.607C322.164 408.695 321.849 409.85 321.296 410.909C320.641 412.038 319.853 413.086 318.949 414.029C317.962 415.158 316.97 416.274 315.972 417.378C315.66 417.781 315.273 418.12 314.832 418.377C314.608 418.501 314.354 418.56 314.098 418.549C313.842 418.538 313.594 418.456 313.382 418.313C313.219 418.173 313.09 417.998 313.004 417.801C312.773 417.326 312.668 416.8 312.697 416.273C312.718 415.843 312.823 415.422 313.008 415.033C313.192 414.644 313.453 414.296 313.773 414.008C314.199 413.656 314.709 413.369 314.883 412.865C314.959 412.589 314.977 412.301 314.934 412.018C314.726 409.524 314.509 407.005 313.761 404.618C313.199 402.831 312.327 400.994 312.744 399.169C313.022 399.085 313.307 399.024 313.595 398.987C313.303 398.649 312.994 398.327 312.668 398.022C311.162 396.616 309.329 395.596 307.518 394.593L299.523 390.156C299.154 392.194 298.781 394.227 298.404 396.256C298.273 396.959 298.145 397.662 298.017 398.373C297.419 401.633 296.821 404.89 296.223 408.144C296.06 408.929 295.944 409.722 295.874 410.519C295.823 411.307 295.853 412.094 295.874 412.878C295.86 413.757 295.913 414.635 296.031 415.507C296.125 415.996 296.251 416.478 296.41 416.95H296.469C296.634 417.074 296.754 417.248 296.81 417.446C297.317 418.611 297.653 419.843 297.805 421.103C297.926 422.103 297.719 423.114 297.214 423.987C297.111 424.182 296.955 424.345 296.763 424.456C296.548 424.544 296.314 424.577 296.082 424.554L285.574 424.334C284.281 424.272 282.985 424.319 281.7 424.473C280.68 424.626 279.676 424.897 278.647 424.977C276.253 425.121 273.969 424.046 271.843 423C271.496 422.88 271.198 422.651 270.992 422.348C270.857 422.018 270.857 421.649 270.992 421.319Z" fill="url(#paint0_linear)"/>
<path d="M326.864 282.987C326.94 282.437 326.979 281.883 326.979 281.328C326.98 279.419 326.518 277.541 325.635 275.862C324.753 274.183 323.478 272.757 321.925 271.712C321.578 260.651 314.262 251.797 305.287 251.797C296.09 251.797 288.633 261.085 288.633 272.538C288.633 283.991 296.077 293.274 305.287 293.274C306.155 293.274 307.02 293.191 307.872 293.027C308.18 294.796 308.887 296.465 309.936 297.901C310.985 299.337 312.347 300.501 313.913 301.297C315.478 302.094 317.203 302.501 318.949 302.488C320.696 302.474 322.415 302.039 323.968 301.218C325.521 300.396 326.865 299.212 327.893 297.759C328.92 296.307 329.602 294.626 329.884 292.853C330.166 291.08 330.039 289.264 329.514 287.55C328.99 285.837 328.082 284.274 326.864 282.987Z" fill="#3F3D56"/>
<path opacity="0.1" d="M304.361 254.434C313.423 254.434 320.811 263.048 321.162 273.835C322.73 274.853 324.018 276.243 324.909 277.88C325.8 279.516 326.266 281.347 326.265 283.207C326.267 283.748 326.228 284.289 326.149 284.824C328.212 286.914 329.367 289.724 329.364 292.651C329.363 293.115 329.333 293.579 329.277 294.039C330.053 292.037 330.234 289.856 329.797 287.755C329.361 285.653 328.324 283.721 326.813 282.188C326.89 281.652 326.929 281.112 326.929 280.571C326.93 278.711 326.463 276.881 325.572 275.245C324.681 273.61 323.394 272.22 321.826 271.202C321.475 260.424 314.087 251.797 305.025 251.797C297.031 251.797 290.341 258.501 288.633 267.484C291.034 259.856 297.169 254.434 304.361 254.434Z" fill="black"/>
<path d="M294.18 276.527C294.262 277.209 294.188 277.9 293.964 278.547C293.577 279.467 292.628 280.288 292.907 281.247C293.086 281.867 293.739 282.209 294.314 282.415C297.127 283.395 300.198 282.813 303.165 282.945C304.155 283.034 305.148 283.07 306.141 283.052C307.142 283.029 308.111 282.682 308.908 282.06C307.362 281.285 305.903 280.339 304.555 279.24C304.231 278.993 303.937 278.705 303.681 278.384C303.049 277.528 302.953 276.386 302.916 275.312C302.878 274.238 302.887 273.173 302.916 272.12C300.79 272.095 298.667 272.085 296.544 272.09C295.862 272.09 293.781 271.919 293.544 272.676C293.423 273.053 293.881 274.157 293.96 274.58C294.068 275.227 294.139 275.877 294.18 276.527Z" fill="#FBBEBE"/>
<path opacity="0.1" d="M294.18 276.527C294.262 277.209 294.188 277.9 293.964 278.547C293.577 279.467 292.628 280.288 292.907 281.247C293.086 281.867 293.739 282.209 294.314 282.415C297.127 283.395 300.198 282.813 303.165 282.945C304.155 283.034 305.148 283.07 306.141 283.052C307.142 283.029 308.111 282.682 308.908 282.06C307.362 281.285 305.903 280.339 304.555 279.24C304.231 278.993 303.937 278.705 303.681 278.384C303.049 277.528 302.953 276.386 302.916 275.312C302.878 274.238 302.887 273.173 302.916 272.12C300.79 272.095 298.667 272.085 296.544 272.09C295.862 272.09 293.781 271.919 293.544 272.676C293.423 273.053 293.881 274.157 293.96 274.58C294.068 275.227 294.139 275.877 294.18 276.527Z" fill="black"/>
<path d="M283.689 315.459C283.369 317.928 283.664 320.44 284.549 322.764C289.274 322.265 294.02 322.012 298.771 322.008C297.952 320.899 297.429 319.595 297.252 318.223C297.134 316.936 297.134 315.641 297.252 314.355L288.029 314.324C287.353 314.294 286.676 314.345 286.012 314.476C285.082 314.689 284.592 315.289 283.689 315.459Z" fill="#FBBEBE"/>
<path d="M281.117 320.592C280.675 321.352 280.14 322.045 279.649 322.771C278.736 324.134 277.928 325.571 277.235 327.069C276.366 328.899 275.59 330.788 274.536 332.525C273.942 333.371 273.435 334.28 273.024 335.237C272.729 336.15 272.58 337.107 272.585 338.07C272.553 339.35 272.661 340.723 273.39 341.743C273.715 342.179 274.138 342.526 274.623 342.75C275.107 342.975 275.637 343.072 276.165 343.031C276.707 342.999 277.22 342.767 277.614 342.377C278.338 341.6 278.265 340.353 278.072 339.287C277.935 338.54 277.762 337.755 277.992 337.033C278.134 336.676 278.3 336.329 278.49 335.997C278.829 335.187 279.036 334.325 279.102 333.445C279.319 331.766 279.548 329.965 280.582 328.643C281.133 327.929 281.882 327.409 282.425 326.691C282.71 326.313 282.936 325.89 283.229 325.533C283.664 325.021 284.259 324.63 284.509 324.001C284.626 323.59 284.701 323.168 284.734 322.742C284.898 322.062 285.137 321.404 285.446 320.781C286.427 318.427 286.693 315.82 286.942 313.264C285.886 313.221 284.842 313.005 283.849 312.626C284.167 312.689 281.419 320.055 281.117 320.592Z" fill="#FBBEBE"/>
<path opacity="0.1" d="M281.117 320.592C280.675 321.352 280.14 322.045 279.649 322.771C278.736 324.134 277.928 325.571 277.235 327.069C276.366 328.899 275.59 330.788 274.536 332.525C273.942 333.371 273.435 334.28 273.024 335.237C272.729 336.15 272.58 337.107 272.585 338.07C272.553 339.35 272.661 340.723 273.39 341.743C273.715 342.179 274.138 342.526 274.623 342.75C275.107 342.975 275.637 343.072 276.165 343.031C276.707 342.999 277.22 342.767 277.614 342.377C278.338 341.6 278.265 340.353 278.072 339.287C277.935 338.54 277.762 337.755 277.992 337.033C278.134 336.676 278.3 336.329 278.49 335.997C278.829 335.187 279.036 334.325 279.102 333.445C279.319 331.766 279.548 329.965 280.582 328.643C281.133 327.929 281.882 327.409 282.425 326.691C282.71 326.313 282.936 325.89 283.229 325.533C283.664 325.021 284.259 324.63 284.509 324.001C284.626 323.59 284.701 323.168 284.734 322.742C284.898 322.062 285.137 321.404 285.446 320.781C286.427 318.427 286.693 315.82 286.942 313.264C285.886 313.221 284.842 313.005 283.849 312.626C284.167 312.689 281.419 320.055 281.117 320.592Z" fill="black"/>
<path d="M299.193 275.453C303.159 275.453 306.374 272.049 306.374 267.85C306.374 263.65 303.159 260.246 299.193 260.246C295.227 260.246 292.012 263.65 292.012 267.85C292.012 272.049 295.227 275.453 299.193 275.453Z" fill="#FBBEBE"/>
<path d="M283.444 346.313C281.987 347.995 281.416 350.25 280.892 352.404L278.958 360.32C278.107 363.529 277.446 366.783 276.977 370.066C276.749 371.929 276.655 373.851 277.291 375.639C277.821 376.953 278.593 378.161 279.568 379.202C281.645 381.64 284.184 383.661 287.045 385.154C288.562 385.924 290.165 386.512 291.72 387.198C294.045 388.22 296.266 389.448 298.488 390.677L306.833 395.304C308.625 396.296 310.434 397.302 311.925 398.69C313.311 399.979 314.378 401.562 315.045 403.317C315.159 403.778 315.415 404.193 315.779 404.507C316.252 404.827 316.897 404.721 317.447 404.557C319.471 403.898 321.218 402.607 322.42 400.882C323.623 399.158 324.214 397.094 324.103 395.009C317.968 392.907 312.306 389.666 307.426 385.465C303.7 382.256 300.34 378.428 295.794 376.476C293.809 375.635 291.419 374.975 290.491 373.052C290.136 372.161 289.971 371.207 290.006 370.251C289.924 367.614 289.842 364.947 290.358 362.356C290.788 360.168 291.647 358.078 292.279 355.937C293.568 351.651 293.998 347.171 294.427 342.721C291.457 342.376 288.468 342.203 285.477 342.203C285.214 342.171 284.949 342.241 284.738 342.397C284.605 342.562 284.525 342.763 284.51 342.973C284.273 344.117 284.218 345.434 283.444 346.313Z" fill="#FBBEBE"/>
<path opacity="0.1" d="M283.444 346.313C281.987 347.995 281.416 350.25 280.892 352.404L278.958 360.32C278.107 363.529 277.446 366.783 276.977 370.066C276.749 371.929 276.655 373.851 277.291 375.639C277.821 376.953 278.593 378.161 279.568 379.202C281.645 381.64 284.184 383.661 287.045 385.154C288.562 385.924 290.165 386.512 291.72 387.198C294.045 388.22 296.266 389.448 298.488 390.677L306.833 395.304C308.625 396.296 310.434 397.302 311.925 398.69C313.311 399.979 314.378 401.562 315.045 403.317C315.159 403.778 315.415 404.193 315.779 404.507C316.252 404.827 316.897 404.721 317.447 404.557C319.471 403.898 321.218 402.607 322.42 400.882C323.623 399.158 324.214 397.094 324.103 395.009C317.968 392.907 312.306 389.666 307.426 385.465C303.7 382.256 300.34 378.428 295.794 376.476C293.809 375.635 291.419 374.975 290.491 373.052C290.136 372.161 289.971 371.207 290.006 370.251C289.924 367.614 289.842 364.947 290.358 362.356C290.788 360.168 291.647 358.078 292.279 355.937C293.568 351.651 293.998 347.171 294.427 342.721C291.457 342.376 288.468 342.203 285.477 342.203C285.214 342.171 284.949 342.241 284.738 342.397C284.605 342.562 284.525 342.763 284.51 342.973C284.273 344.117 284.218 345.434 283.444 346.313Z" fill="black"/>
<path d="M326.913 398.663L322.394 406.779C322.044 407.404 321.693 408.034 321.403 408.691C320.915 409.806 320.603 410.992 320.05 412.077C319.399 413.234 318.615 414.309 317.715 415.279L314.765 418.718C314.455 419.13 314.069 419.478 313.628 419.742C313.406 419.87 313.152 419.931 312.897 419.92C312.641 419.908 312.394 419.824 312.184 419.676C312.024 419.528 311.896 419.348 311.808 419.147C311.578 418.659 311.473 418.12 311.505 417.581C311.545 416.693 311.931 415.858 312.577 415.258C312.984 414.899 313.507 414.601 313.68 414.085C313.756 413.8 313.773 413.502 313.732 413.21C313.52 410.651 313.299 408.069 312.56 405.62C312.002 403.786 311.137 401.901 311.552 400.028C312.339 399.788 313.364 399.621 313.836 400.304C314.752 401.616 314.809 401.135 316.223 400.934C317.637 400.733 318.965 400.645 319.998 399.525C321.373 398.046 321.256 395.754 321.053 393.737C322.502 393.667 323.881 394.197 325.192 394.862C325.654 395.098 326.104 395.347 326.55 395.597C326.796 395.714 327.018 395.875 327.207 396.073C327.799 396.782 327.367 397.854 326.913 398.663Z" fill="#3F3D56"/>
<path d="M284.067 339.343C283.601 340.821 283.236 342.327 282.975 343.853C282.847 344.693 282.785 345.541 282.719 346.384C285.658 347.067 288.71 347.099 291.732 347.131L304.331 347.265C304.608 345.607 304.723 343.928 304.674 342.25C304.496 339.492 303.433 336.799 303.611 334.041C300.154 333.44 296.659 333.068 293.15 332.927C292.512 332.863 291.867 332.924 291.253 333.104C290.682 333.306 290.207 333.706 289.657 333.96C288.416 334.534 286.572 334.251 285.522 335.172C284.567 336.032 284.406 338.164 284.067 339.343Z" fill="#3F3D56"/>
<path opacity="0.1" d="M284.067 339.343C283.601 340.821 283.236 342.327 282.975 343.853C282.847 344.693 282.785 345.541 282.719 346.384C285.658 347.067 288.71 347.099 291.732 347.131L304.331 347.265C304.608 345.607 304.723 343.928 304.674 342.25C304.496 339.492 303.433 336.799 303.611 334.041C300.154 333.44 296.659 333.068 293.15 332.927C292.512 332.863 291.867 332.924 291.253 333.104C290.682 333.306 290.207 333.706 289.657 333.96C288.416 334.534 286.572 334.251 285.522 335.172C284.567 336.032 284.406 338.164 284.067 339.343Z" fill="black"/>
<path d="M285.077 343.375C284.11 347.971 285.132 352.725 285.371 357.419C285.539 360.778 285.304 364.145 285.207 367.507C285.152 368.473 285.195 369.443 285.337 370.4C285.518 371.248 285.772 372.078 286.098 372.88L287.263 375.967C288.343 378.876 289.444 381.993 288.343 385.025C288.049 385.806 287.991 386.658 288.175 387.472C289.822 394.422 288.339 401.801 288.103 408.942C288.124 409.645 288.002 410.345 287.746 410.999C287.157 412.271 285.707 412.864 284.947 414.022C284.022 415.426 284.354 417.415 285.443 418.687C286.531 419.959 288.225 420.591 289.889 420.731C291.97 420.905 294.055 420.396 296.098 420.061L296.324 419.84C296.581 418.411 295.803 417.088 295.56 415.625C295.445 414.758 295.393 413.883 295.404 413.009C295.404 412.228 295.362 411.444 295.404 410.664C295.473 409.871 295.584 409.082 295.736 408.302L297.476 398.582L297.85 396.487L299.41 387.76C299.704 386.111 298.989 384.266 298.796 382.604C298.405 379.156 298.014 375.692 298.128 372.227C298.141 371.275 298.252 370.327 298.46 369.399C298.682 368.539 298.813 367.658 298.851 366.77C298.876 365.701 299.3 364.649 299.716 363.598C301.099 360.074 301.045 356.177 301.343 352.398C301.375 351.598 301.516 350.806 301.763 350.045C302.184 348.891 303.058 347.967 303.739 346.945C304.42 345.923 304.937 344.647 304.554 343.476C303.936 341.606 301.423 341.008 299.893 340.461C297.277 339.499 294.425 339.402 291.751 340.186C289.397 340.947 287.153 342.02 285.077 343.375Z" fill="#FBBEBE"/>
<path d="M296.451 424.067C296.358 424.245 296.211 424.395 296.029 424.499C295.817 424.578 295.588 424.609 295.361 424.589L285.145 424.385C283.887 424.328 282.626 424.371 281.376 424.515C280.383 424.652 279.411 424.907 278.418 424.978C276.094 425.112 273.884 424.122 271.797 423.155C271.466 423.039 271.182 422.828 270.986 422.554C270.859 422.256 270.859 421.924 270.986 421.627C271.167 421.01 271.568 420.468 272.122 420.09C272.189 420.046 272.258 420.005 272.33 419.969C272.903 419.716 273.522 419.566 274.155 419.529C276.529 419.238 279.027 418.806 280.826 417.336C281.346 416.916 281.786 416.421 282.267 415.961C283.282 415.043 284.379 414.207 285.546 413.462C285.658 413.362 285.791 413.284 285.936 413.233C286.081 413.181 286.236 413.158 286.391 413.163C286.568 413.209 286.729 413.295 286.86 413.415C287.351 413.737 287.735 414.179 287.971 414.692C288.075 414.952 288.076 415.237 287.976 415.498C287.875 415.759 287.679 415.978 287.422 416.118C287 416.271 286.577 416.193 286.231 416.405C286.966 416.9 288.102 417.148 288.931 417.662C289.749 418.246 290.667 418.698 291.647 418.998C292.644 419.238 293.832 419.073 294.482 418.33C294.833 417.937 295.277 417.32 295.75 417.584C295.912 417.695 296.03 417.854 296.084 418.035C296.578 419.112 296.904 420.248 297.051 421.411C297.163 422.333 296.953 423.264 296.451 424.067Z" fill="#3F3D56"/>
<path d="M293.976 316.852C293.38 316.84 292.785 316.907 292.206 317.052C291.653 317.236 291.124 317.484 290.627 317.792L284.975 320.986C284.561 321.197 284.175 321.463 283.828 321.778C283.013 322.574 282.779 323.805 282.732 324.959C282.54 329.44 284.523 333.74 284.775 338.221C284.885 340.221 284.648 342.224 284.075 344.139C283.935 344.614 283.794 345.192 284.135 345.549C284.259 345.664 284.404 345.752 284.562 345.81C286.349 346.519 288.298 346.68 290.209 346.824C294.901 347.19 299.619 347.555 304.286 346.915C304.518 346.901 304.745 346.836 304.951 346.724C305.217 346.509 305.415 346.218 305.518 345.889C306.107 344.482 306.676 343.072 307.225 341.659C308.176 339.283 309.11 336.786 308.871 334.231C308.572 331.064 306.534 328.387 305.343 325.442C304.985 324.571 304.704 323.649 304.273 322.809C303.791 321.949 303.252 321.123 302.66 320.337C302.204 319.672 301.765 318.162 301.206 317.727C300.523 317.157 298.595 317.17 297.729 317.065C296.484 316.913 295.23 316.841 293.976 316.852Z" fill="#3F3D56"/>
<path opacity="0.1" d="M326.941 399.156L322.645 407.084C322.312 407.695 321.979 408.31 321.704 408.951C321.239 410.041 320.943 411.199 320.417 412.259C319.798 413.389 319.053 414.439 318.197 415.387L315.393 418.746C315.098 419.149 314.731 419.489 314.312 419.746C314.1 419.871 313.859 419.931 313.616 419.92C313.373 419.909 313.139 419.826 312.939 419.682C312.786 419.537 312.665 419.361 312.581 419.165C312.362 418.688 312.263 418.162 312.293 417.635C313.314 417.117 314.237 416.41 315.015 415.55C315.626 414.785 316.158 413.956 316.602 413.075C316.986 412.371 317.371 411.659 317.757 410.938C319.741 407.309 321.728 403.679 323.718 400.049C324.54 398.632 325.08 397.059 325.305 395.421C325.745 395.652 326.173 395.895 326.596 396.139C326.83 396.253 327.042 396.411 327.221 396.605C327.784 397.318 327.373 398.365 326.941 399.156Z" fill="black"/>
<path opacity="0.1" d="M296.45 424.194C296.356 424.348 296.209 424.477 296.027 424.567C295.816 424.635 295.587 424.662 295.359 424.645L285.144 424.468C283.886 424.419 282.625 424.456 281.375 424.58C280.382 424.699 279.41 424.919 278.418 424.98C276.094 425.095 273.884 424.241 271.797 423.408C271.466 423.308 271.182 423.127 270.986 422.89C270.859 422.633 270.859 422.347 270.986 422.091C271.167 421.559 271.568 421.092 272.122 420.766C272.27 420.841 272.41 420.922 272.545 421C273.926 421.824 275.51 422.401 277.192 422.693C278.845 422.931 280.525 423.029 282.203 422.985C286.06 422.985 289.947 423.005 293.758 422.45C294.527 422.338 296.086 421.772 297.054 421.918C297.161 422.709 296.949 423.506 296.45 424.194Z" fill="black"/>
<path d="M307.842 279.452C304.158 280.093 300.432 280.454 296.695 280.531C295.774 280.531 294.66 280.437 294.252 279.594C294.062 279.198 294.075 278.708 293.806 278.36C293.305 277.711 292.3 278.033 291.577 278.407C290.567 278.932 289.511 279.499 288.91 280.48C288.513 281.237 288.257 282.064 288.157 282.918C287.804 284.737 287.269 286.637 285.919 287.875C285.221 288.516 284.342 288.933 283.669 289.595C282.579 290.679 282.155 292.304 282.155 293.857C282.155 295.409 282.516 296.935 282.79 298.466C283.787 304.113 283.5 309.919 281.949 315.433C281.875 315.629 281.855 315.842 281.89 316.048C281.995 316.444 282.466 316.586 282.865 316.65C289.036 317.691 295.661 316.706 301.339 319.385C301.814 318.19 302.984 317.515 303.564 316.375C304.031 315.451 303.985 314.35 304.09 313.314C304.431 310.514 306.193 308.128 307.169 305.492C308.04 303.183 308.342 300.642 309.558 298.5C309.979 297.744 310.53 297.051 310.955 296.286C311.344 295.53 311.677 294.745 311.951 293.938C312.527 292.559 312.915 291.104 313.104 289.617C313.348 286.607 311.981 283.73 310.366 281.219C309.739 280.256 308.973 279.259 307.842 279.452Z" fill="#FAFAFA"/>
<path opacity="0.1" d="M289.478 290.66C288.946 290.816 288.635 291.527 288.388 292.171C288.222 292.575 288.082 292.997 287.97 293.433C287.824 294.17 287.765 294.932 287.796 295.693C287.785 296.176 287.823 296.658 287.91 297.128C288.004 297.6 288.23 298.007 288.544 298.264" stroke="black" stroke-miterlimit="10"/>
<path d="M309.161 264.524C309.739 262.264 306.496 259.482 301.918 258.312C297.34 257.141 293.16 258.025 292.582 260.286C292.004 262.547 295.247 265.328 299.825 266.499C304.403 267.669 308.583 266.785 309.161 264.524Z" fill="#3F3D56"/>
<path opacity="0.1" d="M300.316 264.891C296.404 263.84 293.513 261.507 293.304 259.401C293.126 259.642 292.996 259.918 292.921 260.212C292.365 262.494 295.481 265.299 299.863 266.482C304.245 267.666 308.279 266.77 308.847 264.488C308.906 264.234 308.923 263.972 308.896 263.712C307.687 265.376 304.147 265.921 300.316 264.891Z" fill="black"/>
<path d="M304.759 292.945C304.962 290.788 305.678 288.716 306.842 286.908C307.301 286.121 307.953 285.472 308.734 285.026C309.126 284.813 309.57 284.718 310.012 284.754C310.455 284.79 310.878 284.954 311.234 285.227C311.676 285.706 311.986 286.296 312.134 286.938C313.181 289.701 313.633 292.664 313.459 295.623C313.459 298.318 313.421 301.048 312.759 303.657C312.38 305.137 311.8 306.562 311.509 308.064C311.217 309.565 311.255 311.212 312.042 312.513C312.674 313.521 313.147 314.626 313.442 315.786C313.71 317.18 313.796 318.604 313.696 320.021L313.588 323.919C313.45 329.001 313.313 334.135 314.305 339.115C314.755 341.39 315.888 343.538 315.63 345.844C315.503 346.677 315.27 347.49 314.938 348.261C314.521 349.374 314.001 350.576 312.963 351.115C312.459 351.35 311.912 351.472 311.359 351.474C310.671 351.511 309.982 351.48 309.3 351.384C308.884 351.324 308.346 351.038 308.488 350.627C308.553 350.49 308.654 350.375 308.78 350.293C309.312 349.854 309.742 349.298 310.039 348.666C310.335 348.033 310.49 347.341 310.492 346.64C310.492 344.621 309.209 342.683 309.605 340.706C309.85 339.482 310.734 338.297 310.363 337.108C309.53 334.421 309.421 331.546 308.696 328.808L307.996 326.139C307.58 324.547 307.163 322.96 306.825 321.352C305.879 316.903 305.501 312.347 305.7 307.798C305.729 307.088 305.346 306.28 305.284 305.574C305.217 304.718 305.284 303.897 305.284 303.063C305.284 299.614 304.434 296.376 304.759 292.945Z" fill="#FBBEBE"/>
<path opacity="0.2" d="M178.853 411.653C175.459 411.68 170.963 411.11 170.059 410.567C169.372 410.149 169.095 408.642 169.006 407.947H168.905C168.905 407.947 169.095 410.372 169.991 410.934C170.887 411.496 175.389 412.042 178.785 412.02C179.765 412.02 180.105 411.661 180.086 411.146C179.958 411.452 179.583 411.648 178.853 411.653Z" fill="#EFEDFF"/>
<path d="M68.1482 406.73L32.3098 414.061L31.4953 413.98L0.000976562 410.803V370.892L38.5544 364.376L66.5192 367.634L66.5273 367.81L66.5301 367.897L68.1482 406.73Z" fill="#FF7B02"/>
<path opacity="0.1" d="M68.148 406.731L32.3096 414.061L31.4951 413.98V373.064L66.5271 367.811L68.148 406.731Z" fill="#EFEDFF"/>
<path opacity="0.05" d="M66.5301 367.897L66.5192 367.906L31.4953 373.064L0.000976562 370.892L38.5544 364.376L66.5192 367.634L66.5273 367.81L66.5301 367.897Z" fill="#EFEDFF"/>
<path d="M107.515 408.36L71.677 415.69L70.8625 415.609L39.3682 412.432V372.521L77.9216 366.005L105.886 369.263L105.895 369.44L105.897 369.527L107.515 408.36Z" fill="#67647E"/>
<path opacity="0.1" d="M107.516 408.36L71.6778 415.69L70.8633 415.609V374.694L105.895 369.44L107.516 408.36Z" fill="#EFEDFF"/>
<path opacity="0.05" d="M105.897 369.527L105.886 369.535L70.8625 374.693L39.3682 372.521L77.9216 366.005L105.886 369.263L105.895 369.44L105.897 369.527Z" fill="#EFEDFF"/>
<path d="M82.8093 369.264L46.971 376.594L46.1565 376.513L14.6621 373.336V333.425L53.2155 326.909L81.1803 330.167L81.1885 330.344L81.1912 330.431L82.8093 369.264Z" fill="#67647E"/>
<path opacity="0.1" d="M82.8092 369.263L46.9708 376.594L46.1562 376.512V335.597L81.1883 330.343L82.8092 369.263Z" fill="#EFEDFF"/>
<path opacity="0.05" d="M81.1912 330.431L81.1803 330.439L46.1565 335.597L14.6621 333.425L53.2155 326.909L81.1803 330.167L81.1885 330.344L81.1912 330.431Z" fill="#EFEDFF"/>
<path d="M103.172 370.936L84.4685 374.764L84.0423 374.721L67.6055 373.062V352.232L87.7265 348.83L102.323 350.532L102.328 350.625V350.668L103.172 370.936Z" fill="#67647E"/>
<path opacity="0.1" d="M103.172 370.936L84.4682 374.764L84.042 374.72V353.367L102.328 350.625L103.172 370.936Z" fill="#EFEDFF"/>
<path opacity="0.05" d="M102.328 350.668L102.323 350.674L84.0423 353.367L67.6055 352.232L87.7265 348.83L102.323 350.532L102.328 350.625V350.668Z" fill="#EFEDFF"/>
<path d="M52.9438 330.482L34.24 334.307L33.8137 334.266L17.377 332.608V311.778L37.498 308.376L52.094 310.078L52.0995 310.171V310.214L52.9438 330.482Z" fill="#67647E"/>
<path opacity="0.1" d="M52.9436 330.482L34.2397 334.308L33.8135 334.267V312.913L52.0992 310.171L52.9436 330.482Z" fill="#EFEDFF"/>
<path opacity="0.05" d="M52.0995 310.214L52.094 310.219L33.8137 312.913L17.377 311.778L37.498 308.376L52.094 310.078L52.0995 310.171V310.214Z" fill="#EFEDFF"/>
<path d="M85.7964 329.667L67.0925 333.493L66.6663 333.452L50.2295 331.793V310.963L70.3506 307.562L84.9466 309.264L84.952 309.356V309.4L85.7964 329.667Z" fill="#FF7B02"/>
<path opacity="0.1" d="M85.7961 329.667L67.0923 333.493L66.666 333.452V312.098L84.9517 309.356L85.7961 329.667Z" fill="#EFEDFF"/>
<path opacity="0.05" d="M84.952 309.4L84.9466 309.405L66.6663 312.098L50.2295 310.963L70.3506 307.562L84.9466 309.264L84.952 309.356V309.4Z" fill="#EFEDFF"/>
<path d="M95.5698 308.762L76.866 312.587L76.4397 312.546L60.0029 310.887V290.058L80.124 286.656L94.72 288.358L94.7254 288.45V288.494L95.5698 308.762Z" fill="#67647E"/>
<path opacity="0.1" d="M95.5695 308.761L76.8657 312.587L76.4395 312.546V291.192L94.7252 288.45L95.5695 308.761Z" fill="#EFEDFF"/>
<path opacity="0.05" d="M94.7254 288.494L94.72 288.499L76.4397 291.193L60.0029 290.058L80.124 286.656L94.72 288.358L94.7254 288.45V288.494Z" fill="#EFEDFF"/>
<path d="M61.0893 309.576L42.3855 313.401L41.9592 313.361L25.5225 311.702V290.872L45.6435 287.47L60.2395 289.173L60.245 289.265V289.308L61.0893 309.576Z" fill="#FF7B02"/>
<path opacity="0.1" d="M61.0891 309.576L42.3852 313.401L41.959 313.361V292.007L60.2447 289.265L61.0891 309.576Z" fill="#EFEDFF"/>
<path opacity="0.05" d="M60.245 289.308L60.2395 289.314L41.9593 292.007L25.5225 290.872L45.6435 287.47L60.2395 289.173L60.245 289.265V289.308Z" fill="#EFEDFF"/>
<path d="M70.8628 288.942L52.1589 292.77L51.7327 292.726L35.2959 291.068V270.238L55.417 266.836L70.013 268.538L70.0184 268.631V268.674L70.8628 288.942Z" fill="#67647E"/>
<path opacity="0.1" d="M70.8635 288.942L52.1597 292.77L51.7334 292.727V271.373L70.0191 268.631L70.8635 288.942Z" fill="#EFEDFF"/>
<path opacity="0.05" d="M70.0184 268.674L70.013 268.679L51.7327 271.373L35.2959 270.238L55.417 266.836L70.013 268.538L70.0184 268.631V268.674Z" fill="#EFEDFF"/>
<path d="M118.642 384.798L118.631 384.869L118.602 385.075L115.612 406.53L97.305 413.247L97.0182 413.11L86.7685 408.242L81.4686 387.906L81.1055 386.51L81.2161 386.468L103.89 377.95L118.628 384.79L118.642 384.798Z" fill="#FF7B02"/>
<path d="M97.0182 413.11L86.7685 408.242L81.1055 386.51L81.2161 386.468L95.9882 392.701L97.0182 413.11Z" fill="#FF7B02"/>
<path opacity="0.2" d="M97.2758 412.861L89.4794 397.921L90.4808 393.686L85.7648 388.132L85.3633 388.473L89.9066 393.823L86.5128 408.181L87.0257 408.303L89.2941 398.705L96.8085 413.106L97.2758 412.861Z" fill="black"/>
<path d="M118.642 385.062L118.602 385.075L95.9882 392.964L81.4686 387.906L81.1055 386.51L81.2161 386.468L103.89 377.95L118.628 384.79L118.631 384.869L118.642 385.062Z" fill="#3F3D56"/>
<path d="M96.3833 393.36L91.7734 389.803L92.827 385.852L105.998 381.111L114.954 381.638L118.51 384.667L118.773 385.457L96.3833 393.36Z" fill="#FF7B02"/>
<path d="M81.3691 386.511L91.7739 386.116L97.4104 384.202L106.198 381.111L107.842 378.74L103.741 378.006L81.3691 386.511Z" fill="#FF7B02"/>
<path d="M102.098 382.272L96.6729 384.176L96.8473 384.673L102.272 382.769L102.098 382.272Z" fill="#CCCCCC"/>
<path d="M205.602 331.479C205.602 331.479 208.091 334.706 204.45 339.57C200.809 344.433 197.808 348.559 199.009 351.598C199.009 351.598 204.5 342.545 208.984 342.419C213.468 342.293 210.516 336.922 205.602 331.479Z" fill="#FFBD81"/>
<path d="M210.236 336.068C210.236 337.238 210.023 338.185 209.757 338.185C209.491 338.185 209.278 337.261 209.278 336.068C209.278 334.876 209.544 335.449 209.811 335.449C210.077 335.449 210.236 334.899 210.236 336.068Z" fill="#FFD037"/>
<path d="M188.002 335.753C188.266 337.046 188.304 338.13 188.083 338.175C187.863 338.22 187.477 337.234 187.207 335.915C186.938 334.597 187.288 335.185 187.509 335.14C187.729 335.095 187.737 334.46 188.002 335.753Z" fill="#FFD037"/>
<path d="M211.468 337.238C210.346 337.911 209.365 338.318 209.284 338.145C209.203 337.973 210.042 337.288 211.165 336.614C212.287 335.94 211.842 336.43 211.928 336.614C212.014 336.798 212.591 336.586 211.468 337.238Z" fill="#FFD037"/>
<path d="M192.31 331.479C192.31 331.479 189.63 334.706 193.55 339.57C197.471 344.433 200.703 348.559 199.409 351.598C199.409 351.598 193.496 342.545 188.668 342.419C183.839 342.293 187.013 336.922 192.31 331.479Z" fill="#FFBD81"/>
<path d="M186.345 337.62C187.434 337.84 188.334 337.886 188.35 337.726C188.366 337.565 187.5 337.256 186.412 337.036C185.323 336.816 185.818 337.081 185.801 337.252C185.784 337.423 185.279 337.412 186.345 337.62Z" fill="#FFD037"/>
<path d="M189.16 351.603C189.16 351.603 195.854 351.386 197.876 349.86C199.898 348.335 208.174 346.518 208.671 348.959C209.168 351.399 218.729 361.111 211.173 361.176C203.616 361.24 193.614 359.928 191.601 358.624C189.587 357.321 189.16 351.603 189.16 351.603Z" fill="#A8A8A8"/>
<path opacity="0.2" d="M211.308 360.334C203.75 360.399 193.746 359.086 191.732 357.783C190.198 356.793 189.587 353.239 189.382 351.598H189.16C189.16 351.598 189.596 357.325 191.597 358.624C193.598 359.923 203.615 361.24 211.173 361.176C213.353 361.176 214.107 360.334 214.067 359.114C213.767 359.858 212.943 360.32 211.308 360.334Z" fill="black"/>
<path d="M342.444 38.1092C342.444 39.182 342.011 40.2109 341.24 40.9695C340.47 41.728 339.424 42.1542 338.334 42.1542H310.149C309.059 42.1542 308.014 41.728 307.243 40.9695C306.472 40.2109 306.039 39.182 306.039 38.1092C306.039 37.0364 306.472 36.0075 307.243 35.2489C308.014 34.4904 309.059 34.0642 310.149 34.0642H311.105C310.769 32.8801 310.717 31.6357 310.951 30.4283C311.185 29.2209 311.7 28.0831 312.455 27.104C313.21 26.1248 314.185 25.3308 315.304 24.784C316.423 24.2371 317.655 23.9523 318.904 23.9517H321.301C322.785 23.9502 324.241 24.3503 325.51 25.1083C326.778 25.8663 327.811 26.953 328.494 28.2495C329.177 27.9037 329.935 27.7245 330.703 27.727H331.323C332.615 27.727 333.853 28.232 334.767 29.1309C335.68 30.0299 336.193 31.2491 336.193 32.5203V32.7159C336.195 33.1722 336.129 33.6263 335.998 34.0642H338.331C338.871 34.0637 339.406 34.168 339.905 34.3711C340.404 34.5742 340.857 34.8721 341.239 35.2478C341.621 35.6234 341.924 36.0695 342.131 36.5605C342.338 37.0514 342.444 37.5777 342.444 38.1092Z" fill="#FFBD81"/>
<path d="M525.428 34.2771C525.428 36.8744 524.402 39.3654 522.577 41.202C520.751 43.0385 518.275 44.0703 515.693 44.0703H448.939C446.358 44.0703 443.882 43.0385 442.056 41.202C440.231 39.3654 439.205 36.8744 439.205 34.2771C439.205 31.6798 440.231 29.1889 442.056 27.3523C443.882 25.5157 446.358 24.4839 448.939 24.4839H451.203C450.408 21.6172 450.284 18.6045 450.839 15.6812C451.394 12.758 452.613 10.0035 454.402 7.63292C456.19 5.26235 458.499 3.33998 461.148 2.01603C463.798 0.692091 466.716 0.00244234 469.674 0.000986312H475.352C478.867 -0.00256878 482.315 0.96618 485.32 2.80131C488.324 4.63645 490.769 7.26731 492.387 10.4062C494.006 9.56898 495.8 9.13516 497.62 9.14129H499.088C502.147 9.14129 505.081 10.3639 507.245 12.5403C509.408 14.7166 510.623 17.6684 510.623 20.7462V21.2196C510.626 22.3244 510.47 23.4239 510.161 24.4839H515.685C516.964 24.4829 518.231 24.7354 519.413 25.2271C520.595 25.7187 521.669 26.4399 522.574 27.3494C523.478 28.2589 524.196 29.3389 524.686 30.5276C525.176 31.7162 525.428 32.9904 525.428 34.2771Z" fill="#FFBD81"/>
<defs>
<linearGradient id="paint0_linear" x1="301.309" y1="424.969" x2="301.309" y2="250.121" gradientUnits="userSpaceOnUse">
<stop stop-color="#808080" stop-opacity="0.25"/>
<stop offset="0.54" stop-color="#808080" stop-opacity="0.12"/>
<stop offset="1" stop-color="#808080" stop-opacity="0.1"/>
</linearGradient>
</defs>
</svg>
