<svg width="639" height="478" viewBox="0 0 639 478" fill="none" xmlns="http://www.w3.org/2000/svg">
    <path d="M43.4043 236.753L231.909 124.854C234.125 123.547 236.652 122.858 239.226 122.858C241.8 122.858 244.327 123.547 246.542 124.854L595.548 330.25C597.674 331.508 599.438 333.29 600.672 335.426C601.905 337.562 602.565 339.979 602.59 342.444C602.614 344.908 602 347.338 600.809 349.497C599.618 351.656 597.888 353.473 595.788 354.772L419.791 463.118C416.109 465.389 411.878 466.622 407.549 466.686C403.22 466.751 398.955 465.645 395.206 463.485L43.58 261.466C41.4144 260.215 39.6139 258.421 38.3565 256.263C37.099 254.104 36.4283 251.656 36.4105 249.16C36.3928 246.664 37.0286 244.206 38.2553 242.03C39.4819 239.854 41.2567 238.035 43.4043 236.753Z" fill="#6DE2FC"/>
    <path d="M43.4043 236.77L231.909 124.87C234.125 123.563 236.652 122.874 239.226 122.874C241.8 122.874 244.327 123.563 246.542 124.87L595.548 330.266C597.674 331.524 599.438 333.307 600.672 335.442C601.905 337.578 602.565 339.995 602.59 342.46C602.614 344.924 602 347.354 600.809 349.513C599.618 351.672 597.888 353.489 595.788 354.788L419.791 463.134C416.109 465.405 411.878 466.638 407.549 466.703C403.22 466.767 398.955 465.661 395.206 463.501L43.58 261.482C41.4144 260.231 39.6139 258.437 38.3565 256.279C37.099 254.12 36.4283 251.672 36.4105 249.176C36.3928 246.68 37.0286 244.222 38.2553 242.046C39.4819 239.87 41.2567 238.051 43.4043 236.77Z" fill="#FFCD62"/>
    <path d="M184.352 148.865C183.754 149.342 183.099 149.744 182.403 150.06C182.417 150.107 182.421 150.156 182.414 150.204C182.407 150.252 182.389 150.298 182.361 150.338C182.333 150.378 182.296 150.411 182.254 150.434C182.211 150.458 182.164 150.472 182.115 150.474H181.077C179.98 150.732 178.841 150.749 177.738 150.523C176.634 150.297 175.593 149.835 174.687 149.168C173.154 148.496 171.714 147.628 170.405 146.587C167.21 144.069 164.015 140.341 160.389 137.728C160.389 138.461 160.485 139.194 160.565 139.895L161.348 146.921L162.737 159.381C162.737 159.604 162.737 160.258 162.849 160.449C168.888 168.224 185.454 165.484 185.454 165.484C185.454 165.484 195.263 140.213 184.352 148.865Z" fill="#F47A63"/>
    <path d="M435.574 358.309L392.698 389.538L455.591 428.766L496.088 401.52" fill="url(#paint0_linear)"/>
    <path d="M185.837 241.645L166.348 256.367L189.144 271.711L211.956 252.894" fill="url(#paint1_linear)"/>
    <path d="M116.602 217.713L82.0156 239.653L129.669 267.266L169.623 240.769" fill="url(#paint2_linear)"/>
    <path d="M199.687 226.827C199.687 226.827 197.946 236.498 200.774 237.629C203.601 238.761 215.151 247.731 213.394 251.332C209.448 259.586 185.853 241.645 185.853 241.645L188.776 221.186" fill="#1D3F75"/>
    <path d="M184.783 189.845C184.783 191.71 183.185 223.879 183.185 223.879C183.185 223.879 196.301 235.941 206.062 235.176L210.854 203.946" fill="#FFF7E1"/>
    <path d="M161.715 215.928C161.715 215.928 179.128 217.92 189.384 207.356C195.342 201.206 206.605 190.706 206.605 190.706L165.07 187.663" fill="#FFF7E1"/>
    <path d="M184.527 71.7001L248.651 109.096V126.877C248.651 126.877 237.117 119.723 236.079 129.809C235.008 140.182 248.651 144.308 248.651 144.308L248.204 171.682L221.19 156.545C221.19 156.545 221.717 144.659 213.202 140.899C204.208 136.963 204.943 147.272 204.943 147.272L184.032 135.433L184.527 71.7001Z" fill="#68E1FD"/>
    <path d="M248.651 80.9891V57.9495C248.651 57.9495 241.542 57.5193 239.785 51.5762C238.027 45.6331 242.133 40.5344 248.651 42.8447V15.0251L330.778 62.6339V94.8511C330.778 94.8511 344.389 96.0461 344.006 106.004C343.622 115.963 330.778 109.366 330.778 109.366V128.279L295.777 107.295C295.777 107.295 298.972 93.5924 287.518 89.0992C279.227 85.9125 278.236 97.4005 278.236 97.4005L248.651 80.9891Z" fill="#68E1FD"/>
    <path d="M248.204 171.666V193.877C248.204 193.877 235.823 185.91 231.813 193.383C227.804 200.856 246.015 208.727 246.015 208.727V234.666L330.778 283.47V219.37L248.204 171.666Z" fill="#68E1FD"/>
    <path d="M193.825 77.1015C193.825 77.1015 192.339 90.1988 199.32 93.959C205.902 97.4962 207.196 84.4946 207.196 84.4946L233.858 99.7269V33.7629L185.534 6.27787C185.534 6.27787 171.284 2.42201 168.84 13.9737L169.719 63.1439L193.825 77.1015Z" fill="#6DE2FC"/>
    <path d="M278.237 125.475C278.237 125.475 277.454 114.752 289.627 116.744C301.8 118.735 297.423 137.887 297.423 137.887" fill="#6DE2FC"/>
    <path d="M432.651 204.122L433.385 148.546C433.385 148.546 434.983 139.815 427.954 135.8L346.801 89.0353V121.252C346.801 121.252 362.281 126.032 359.741 133.999C357.201 141.966 346.801 135.752 346.801 135.752V154.681L432.651 204.122Z" fill="#6DE2FC"/>
    <path d="M184.032 135.433L204.879 147.304C204.879 147.304 204.176 135.975 213.138 140.93C222.1 145.885 221.126 156.577 221.126 156.577L250.568 173.132V237.709L189.4 202.178C186.467 199.845 184.527 196.493 183.968 192.793C183.297 186.77 184.032 135.433 184.032 135.433Z" fill="#6DE2FC"/>
    <path d="M248.203 171.666L279.067 189.479C279.067 189.479 273.716 201.923 283.412 206.719C293.109 211.515 293.668 198.306 293.668 198.306L330.778 219.37V195.47C330.778 195.47 318.366 194.594 316.081 185.91C313.797 177.227 326.273 177.832 330.778 180.732V156.354L303.908 140.213L248.651 109.048V126.877C248.651 126.877 237.596 119.261 235.136 127.865C232.676 136.469 239.002 142.651 248.651 144.308L248.203 171.682" fill="#6DE2FC"/>
    <path d="M330.778 230.157V257.148C330.778 257.148 317.855 250.584 315.522 257.435C313.19 264.286 330.778 272.667 330.778 272.667V294.289L397.059 332.529C397.059 332.529 412.251 341.037 415.286 324.387L415.638 278.18L381.323 258.646C381.323 258.646 383.672 242.171 373 237.391C362.329 232.611 363.415 248.465 363.415 248.465L330.778 230.157Z" fill="#6DE2FC"/>
    <path d="M193.825 77.1015C193.825 77.1015 192.339 90.1988 199.32 93.959C205.902 97.4962 207.196 84.4946 207.196 84.4946L233.858 99.7269V33.7629L185.534 6.27787C185.534 6.27787 171.284 2.42201 168.84 13.9737L169.719 63.1439L193.825 77.1015Z" fill="#2C858D"/>
    <path d="M278.237 125.475C278.237 125.475 277.454 114.752 289.627 116.744C301.8 118.735 297.423 137.887 297.423 137.887" fill="#2C858D"/>
    <path d="M432.651 204.122L433.385 148.546C433.385 148.546 434.983 139.815 427.954 135.8L346.801 89.0353V121.252C346.801 121.252 362.281 126.032 359.741 133.999C357.201 141.966 346.801 135.752 346.801 135.752V154.681L432.651 204.122Z" fill="#2C858D"/>
    <path d="M184.032 135.433L204.879 147.304C204.879 147.304 204.176 135.975 213.138 140.93C222.1 145.885 221.126 156.577 221.126 156.577L250.568 173.132V237.709L189.4 202.178C186.467 199.845 184.527 196.493 183.968 192.793C183.297 186.77 184.032 135.433 184.032 135.433Z" fill="#2C858D"/>
    <path d="M248.203 171.666L279.067 189.479C279.067 189.479 273.716 201.923 283.412 206.719C293.109 211.515 293.668 198.306 293.668 198.306L330.778 219.37V195.47C330.778 195.47 318.366 194.594 316.081 185.91C313.797 177.227 326.273 177.832 330.778 180.732V156.354L303.908 140.213L248.651 109.048V126.877C248.651 126.877 237.596 119.261 235.136 127.865C232.676 136.469 239.002 142.651 248.651 144.308L248.203 171.682" fill="#2C858D"/>
    <path d="M330.778 230.157V257.148C330.778 257.148 317.855 250.584 315.522 257.435C313.19 264.286 330.778 272.667 330.778 272.667V294.289L397.059 332.529C397.059 332.529 412.251 341.037 415.286 324.387L415.638 278.18L381.323 258.646C381.323 258.646 383.672 242.171 373 237.391C362.329 232.611 363.415 248.465 363.415 248.465L330.778 230.157Z" fill="#2C858D"/>
    <path d="M330.778 156.354L368.495 177.816C368.495 177.816 367.122 165.802 378.687 169.18C390.253 172.558 387.442 189.081 387.442 189.081L416.628 205.779L415.654 267.25L381.339 247.715C381.339 247.715 382.937 229.998 373.016 226.46C363.096 222.923 363.431 237.534 363.431 237.534L330.762 219.37V195.47C322.471 195.327 313.19 189.511 316.066 182.245C318.941 174.98 330.762 180.652 330.762 180.652V156.354" fill="#68E1FD"/>
    <path d="M452.428 360.699C451.949 360.109 438.051 356.923 435.575 358.325C433.098 359.727 436.453 363.503 442.747 367.2C449.042 370.896 454.441 374.115 456.981 373.318C459.521 372.521 462.269 371.071 462.269 369.621V354.979" fill="#1D3F75"/>
    <path d="M483.451 387.18C483.451 388.024 485.128 391.402 483.451 392.231C481.774 393.059 470.415 395.704 468.099 398.891C465.783 402.078 466.597 404.515 468.099 405.376C469.601 406.236 496.087 401.52 496.087 401.52L492.892 383.531" fill="#1D3F75"/>
    <path d="M475.895 243.78C475.895 243.78 474.377 237.502 465.32 234.682C456.262 231.862 457.476 251.906 457.476 251.906" fill="#1D3F75"/>
    <path d="M458.61 274.85C457.668 275.264 434.776 292.154 436.725 318.077C437.907 333.724 449.329 359.982 449.329 359.982C449.329 359.982 467.764 371.677 479.681 368.713" fill="#F7931E"/>
    <path d="M453.69 282.323C453.69 282.323 447.572 308.852 449.84 325.343C452.109 341.834 475.879 389.235 475.879 389.235C484.182 390.062 492.566 389.261 500.561 386.877C500.561 386.877 486.183 330.888 484.857 324.737C483.531 318.587 484.857 285.015 484.857 285.015" fill="#F7931E"/>
    <path d="M462.365 236.53C462.365 236.53 433.482 224.182 424.168 218.781C424.168 218.781 421.708 228.596 422.204 229.934C422.699 231.272 446.741 256.16 459.218 258.279" fill="#1D3F75"/>
    <path d="M121.059 200.091C121.059 200.091 115.755 196.187 113.758 196.809C111.761 197.43 110.995 219.466 112.384 220.82C113.774 222.174 118.407 227.193 121.059 226.142C123.711 225.09 125.244 220.82 125.244 220.82" fill="#1D3F75"/>
    <path d="M169.814 186.579L138.215 188.507L144.174 210.671L123.806 195.327C119.844 199.549 120.499 204.042 120.291 209.667C120.069 213.268 120.446 216.88 121.41 220.358C121.521 220.74 121.649 221.107 121.793 221.473C123.694 223.21 125.898 224.74 127.416 225.935C131.074 228.819 134.621 231.83 138.215 234.794C143.295 238.968 148.136 242.967 154.574 244.879C161.012 246.791 172.274 241.995 173.584 234.507C175.868 221.091 171.699 199.947 169.814 186.579Z" fill="#FFF7E1"/>
    <path d="M418.337 250.552L412.33 247.811C411.26 247.317 410.334 248.911 411.404 249.405L417.411 252.145C418.545 252.623 419.408 251.046 418.337 250.552Z" fill="#606060"/>
    <path d="M483.691 283.613C480.315 273.055 477.301 262.39 474.649 251.619C474.362 250.472 472.588 250.966 472.876 252.113C475.517 262.884 478.531 273.549 481.918 284.107C482.269 285.207 484.042 284.713 483.691 283.613Z" fill="#606060"/>
    <path d="M141.363 133.027C140.148 130.908 136.378 128.136 134.174 130.574C133.754 131.101 133.558 131.771 133.626 132.441C133.695 133.11 134.023 133.727 134.541 134.159C135.867 135.087 137.385 135.708 138.982 135.975C139.158 136.028 139.343 136.038 139.524 136.006C139.704 135.974 139.874 135.899 140.021 135.789C140.167 135.679 140.285 135.536 140.366 135.372C140.446 135.207 140.487 135.027 140.484 134.844C140.68 134.813 140.866 134.735 141.026 134.617C141.185 134.499 141.314 134.344 141.4 134.165C141.486 133.987 141.528 133.79 141.522 133.592C141.515 133.393 141.46 133.2 141.363 133.027Z" fill="#FBB5AD"/>
    <path d="M168.328 173.068L135.931 165.101C135.931 165.101 136.938 179.123 138.2 188.476C143.999 191.073 151.059 191.025 157.21 190.069C161.572 189.566 165.823 188.361 169.798 186.5C171.091 185.831 172.33 185.064 173.504 184.205C173.009 180.891 168.728 176.494 168.328 173.068Z" fill="#F47A63"/>
    <path d="M175.725 179.871C175.725 182.405 175.054 188.651 174.91 191.184C161.267 187.551 131.777 177.704 129.733 157.421C129.434 154.665 129.761 151.876 130.691 149.263C132.642 146.601 134.929 144.202 137.496 142.125C140.979 138.939 145.292 135.64 150.085 134.796C155.98 133.744 160.628 137.568 164.862 141.552C166.459 145.232 161.858 148.833 162.465 152.578L170.709 177.274L175.741 179.855" fill="#F47A63"/>
    <path d="M150.165 126.176C150.165 126.176 153.743 142.763 148.264 144.866C142.784 146.969 137.193 143.145 136.219 140.086C135.639 137.471 135.509 134.777 135.835 132.119C135.835 132.119 139.989 126.224 150.165 126.176Z" fill="#FBB5AD"/>
    <path d="M150.82 123.212C150.996 119.181 145.357 116.632 142.753 120.026C142.102 119.463 141.336 119.05 140.508 118.816C139.679 118.582 138.81 118.532 137.96 118.671C135.564 119.086 134.765 120.775 134.925 123.021C134.236 123.012 133.555 123.164 132.936 123.466C132.317 123.767 131.778 124.21 131.362 124.758C130.897 125.418 130.647 126.205 130.647 127.012C130.647 127.819 130.897 128.607 131.362 129.267C130.517 129.606 129.812 130.22 129.362 131.01C128.913 131.8 128.745 132.719 128.886 133.617C128.961 134.457 129.253 135.264 129.733 135.959C129.624 136.215 129.543 136.482 129.493 136.756C129.381 137.506 129.492 138.274 129.812 138.962C130.133 139.651 130.65 140.23 131.299 140.627C132.048 141.134 132.934 141.4 133.839 141.392C134.139 141.972 134.6 142.454 135.166 142.781C135.732 143.109 136.38 143.268 137.034 143.241C137.849 143.215 138.626 142.891 139.215 142.329C139.805 141.767 140.166 141.008 140.229 140.197C140.266 139.744 140.207 139.287 140.053 138.859C140.811 137.187 140.953 135.302 140.452 133.537C140.695 133.457 140.926 133.344 141.139 133.203C141.795 132.749 142.256 132.067 142.433 131.291C143.194 131.567 144.016 131.639 144.813 131.498C145.183 131.414 145.524 131.237 145.804 130.983C146.084 130.729 146.293 130.407 146.411 130.048C147.454 130.321 148.555 130.276 149.572 129.918C150.589 129.56 151.474 128.906 152.114 128.04C152.525 127.216 152.62 126.271 152.382 125.382C152.144 124.493 151.588 123.722 150.82 123.212Z" fill="#D86212"/>
    <path d="M141.427 137.553C141.332 137.023 141.13 136.518 140.833 136.069C140.537 135.62 140.151 135.236 139.701 134.94C139.489 134.758 139.242 134.621 138.976 134.536C138.71 134.451 138.429 134.421 138.15 134.446C137.872 134.471 137.601 134.552 137.355 134.683C137.108 134.814 136.89 134.994 136.714 135.21C136.443 135.628 136.31 136.12 136.333 136.617C136.356 137.114 136.534 137.591 136.842 137.983C137.577 138.939 138.775 138.955 139.813 139.369C140.436 139.624 140.804 139.003 140.676 138.477C140.788 138.471 140.898 138.443 140.999 138.392C141.099 138.341 141.188 138.27 141.259 138.183C141.33 138.095 141.381 137.994 141.41 137.885C141.439 137.777 141.445 137.663 141.427 137.553Z" fill="#FBB5AD"/>
    <path d="M149.11 133.394C149.11 133.012 148.439 133.171 148.519 133.553L149.031 136.15C149.145 136.541 149.225 136.941 149.27 137.345C149.27 138.062 148.919 138.19 148.376 138.524C148.306 138.565 148.255 138.631 148.234 138.709C148.213 138.786 148.223 138.869 148.264 138.939C148.304 139.008 148.37 139.059 148.448 139.08C148.526 139.101 148.609 139.09 148.679 139.05C149.382 138.62 149.973 138.413 149.925 137.457C149.737 136.087 149.464 134.73 149.11 133.394Z" fill="#56403D"/>
    <path d="M150.517 132.693C150.436 132.693 150.359 132.725 150.302 132.781C150.245 132.838 150.213 132.915 150.213 132.995C150.213 133.076 150.245 133.153 150.302 133.209C150.359 133.266 150.436 133.298 150.517 133.298C150.597 133.298 150.674 133.266 150.731 133.209C150.788 133.153 150.82 133.076 150.82 132.995C150.82 132.915 150.788 132.838 150.731 132.781C150.674 132.725 150.597 132.693 150.517 132.693Z" fill="#56403D"/>
    <path d="M144.606 134.684C144.525 134.684 144.448 134.716 144.391 134.773C144.334 134.83 144.302 134.907 144.302 134.987C144.302 135.067 144.334 135.144 144.391 135.201C144.448 135.258 144.525 135.29 144.606 135.29C144.686 135.29 144.763 135.258 144.82 135.201C144.877 135.144 144.909 135.067 144.909 134.987C144.909 134.907 144.877 134.83 144.82 134.773C144.763 134.716 144.686 134.684 144.606 134.684Z" fill="#56403D"/>
    <path d="M147.737 140.213C147.267 140.412 146.742 140.434 146.257 140.276C145.772 140.118 145.362 139.79 145.101 139.353C145.061 139.283 144.994 139.232 144.916 139.211C144.839 139.19 144.756 139.201 144.686 139.241C144.616 139.282 144.565 139.348 144.544 139.425C144.523 139.503 144.534 139.586 144.574 139.656C144.918 140.233 145.464 140.662 146.107 140.862C146.75 141.062 147.444 141.018 148.056 140.739C148.408 140.612 148.104 140.086 147.737 140.213Z" fill="#56403D"/>
    <path d="M185.309 176.27C184.601 176.283 183.911 176.495 183.317 176.881C182.724 177.267 182.252 177.812 181.955 178.453C181.459 179.298 181.14 180.206 180.581 181.019C179.67 182.325 178.983 181.815 177.641 181.21C176.299 180.604 174.974 182.644 176.411 183.313C177.517 184.008 178.769 184.438 180.07 184.572C180.473 184.483 180.855 184.313 181.19 184.072C181.525 183.831 181.807 183.524 182.019 183.17C182.07 183.368 182.176 183.549 182.323 183.693C182.47 183.836 182.654 183.937 182.854 183.985C183.054 184.032 183.264 184.024 183.46 183.962C183.656 183.9 183.832 183.786 183.968 183.632C185.288 182.378 186.333 180.864 187.035 179.186C187.151 178.882 187.196 178.556 187.169 178.232C187.141 177.908 187.041 177.595 186.875 177.314C186.709 177.034 186.483 176.795 186.212 176.614C185.941 176.434 185.632 176.316 185.309 176.27Z" fill="#FBB5AD"/>
    <path d="M192.77 186.07C187.115 184.179 181.434 182.299 175.725 180.429C175.374 183.297 175.198 186.165 174.974 189.033C177.393 191.963 180.205 194.547 183.329 196.713C183.536 196.829 183.769 196.889 184.006 196.888C184.243 196.887 184.475 196.825 184.681 196.708C184.887 196.591 185.059 196.423 185.18 196.22C185.302 196.017 185.368 195.786 185.374 195.55C185.326 194.996 185.174 194.455 184.927 193.957C186.082 194.725 187.32 195.361 188.617 195.853C188.903 195.92 189.204 195.894 189.474 195.779C189.745 195.663 189.971 195.464 190.119 195.211C190.268 194.957 190.331 194.663 190.299 194.371C190.267 194.08 190.142 193.806 189.943 193.59L188.809 192.666C189.758 192.829 190.724 192.872 191.684 192.793C193.122 192.666 193.633 190.499 192.052 190.133C191.413 189.989 190.79 189.814 190.167 189.607C191.331 189.459 192.434 189.002 193.362 188.284C194.224 187.647 193.633 186.42 192.77 186.07Z" fill="#FBB5AD"/>
    <path d="M186.668 140.707C185.663 141.059 184.742 141.616 183.964 142.341C183.186 143.067 182.567 143.947 182.148 144.924C181.729 145.9 181.518 146.954 181.529 148.016C181.54 149.079 181.772 150.127 182.211 151.096C182.288 151.298 182.43 151.469 182.615 151.581C182.8 151.694 183.018 151.742 183.233 151.717C183.279 150.679 183.545 149.663 184.013 148.734C184.481 147.806 185.141 146.987 185.949 146.332C187.163 145.328 188.681 144.404 189.144 143.145C189.895 141.297 188.425 140.118 186.668 140.707Z" fill="#FBB5AD"/>
    <path d="M427.379 247.556C423.869 245.798 420.639 243.532 417.794 240.832C417.97 237.646 418.162 230.619 414.599 231.272C412.874 231.623 413.002 233.599 413.002 234.969C413 236.177 413.064 237.384 413.193 238.586C409.136 240.179 402.666 237.932 400.413 242.011C400.305 242.198 400.249 242.409 400.249 242.625C400.249 242.84 400.305 243.052 400.413 243.238C400.526 243.404 400.66 243.554 400.813 243.684C400.188 243.994 399.642 244.441 399.215 244.991C399.074 245.12 398.965 245.28 398.895 245.458C398.826 245.636 398.797 245.827 398.813 246.018C398.828 246.208 398.887 246.392 398.984 246.557C399.082 246.721 399.215 246.861 399.375 246.967C399.615 247.145 399.879 247.289 400.158 247.397C400.144 247.508 400.144 247.62 400.158 247.731C400.158 249.118 401.244 249.723 402.921 249.882C403.199 250.603 403.729 251.2 404.413 251.56C405.098 251.92 405.89 252.021 406.644 251.842C408.977 251.62 411.286 251.194 413.545 250.567C415.99 251.575 418.375 252.724 420.686 254.009C420.933 254.139 421.217 254.181 421.492 254.13C421.767 254.08 422.017 253.938 422.201 253.728C422.386 253.518 422.494 253.253 422.509 252.975C422.524 252.696 422.444 252.421 422.283 252.193C422.547 252.033 422.739 251.779 422.819 251.482C422.899 251.185 422.862 250.869 422.714 250.599C422.888 250.37 422.982 250.09 422.982 249.803C422.982 249.515 422.888 249.236 422.714 249.006C422.918 248.993 423.116 248.929 423.288 248.82C423.461 248.712 423.605 248.562 423.705 248.385C424.472 248.831 425.302 249.261 426.053 249.659C427.539 250.36 428.785 248.257 427.379 247.556Z" fill="#FBB5AD"/>
    <path d="M410.558 242.187C407.354 242.931 404.069 243.269 400.781 243.19C400.701 243.19 400.623 243.222 400.566 243.279C400.51 243.336 400.478 243.413 400.478 243.493C400.478 243.573 400.51 243.65 400.566 243.707C400.623 243.764 400.701 243.796 400.781 243.796C404.123 243.875 407.462 243.533 410.718 242.776C411.101 242.76 410.925 242.187 410.558 242.187Z" fill="#56403D"/>
    <path d="M409.088 246.457C406.241 247.149 403.306 247.413 400.381 247.238C399.982 247.238 399.982 247.827 400.381 247.843C403.365 248.021 406.359 247.753 409.263 247.046C409.647 246.967 409.471 246.361 409.088 246.457Z" fill="#56403D"/>
    <path d="M408.513 248.911C406.741 249.42 404.909 249.688 403.065 249.707C402.985 249.707 402.908 249.739 402.851 249.796C402.794 249.853 402.762 249.93 402.762 250.01C402.762 250.09 402.794 250.167 402.851 250.224C402.908 250.281 402.985 250.313 403.065 250.313C404.963 250.29 406.849 250.011 408.673 249.484C408.736 249.453 408.787 249.401 408.816 249.336C408.845 249.272 408.851 249.199 408.832 249.131C408.813 249.063 408.771 249.004 408.712 248.963C408.654 248.923 408.583 248.905 408.513 248.911Z" fill="#56403D"/>
    <path d="M451.342 267.266C451.038 270.07 452.188 276.571 453.69 282.323C458.946 285.179 464.846 286.648 470.831 286.593C475.561 286.802 480.295 286.264 484.857 284.999C484.138 271.106 478.771 239.558 472.077 240.195C463.626 241.007 455.287 250.982 455.287 250.982C439.6 253.276 419.072 238.235 419.072 238.235L414.759 251.444C424.536 261.101 437.591 266.747 451.342 267.266Z" fill="#1D3F75"/>
    <path d="M424.2 220.262C421.005 216.407 418.913 213.507 414.456 211.133C413.13 210.432 411.117 211.977 412.187 213.395C413.538 214.986 415.03 216.452 416.644 217.777V217.888C416.644 217.888 416.644 218.032 416.644 218.095V218.191C415.887 220.48 416.012 222.968 416.996 225.17C418.334 227.153 420.124 228.791 422.22 229.95C422.906 226.731 423.641 223.513 424.2 220.262Z" fill="#FBB5AD"/>
    <path d="M536.089 337.181L504.41 355.919C504.41 355.919 505.417 368.474 529.651 378.624L566.106 355.999" fill="url(#paint3_linear)"/>
    <path d="M553.167 360.635C563.745 360.635 572.321 352.681 572.321 342.869C572.321 333.058 563.745 325.104 553.167 325.104C542.588 325.104 534.013 333.058 534.013 342.869C534.013 352.681 542.588 360.635 553.167 360.635Z" fill="#68E1FD"/>
    <path d="M553.15 340.113C561.073 340.113 567.496 336.646 567.496 332.369C567.496 328.093 561.073 324.626 553.15 324.626C545.227 324.626 538.804 328.093 538.804 332.369C538.804 336.646 545.227 340.113 553.15 340.113Z" fill="#68E1FD"/>
    <path d="M552.415 269.975V330.681C552.45 330.98 552.593 331.256 552.819 331.457C553.044 331.657 553.335 331.768 553.637 331.768C553.939 331.768 554.231 331.657 554.456 331.457C554.682 331.256 554.825 330.98 554.859 330.681V269.975C554.825 269.675 554.682 269.399 554.456 269.199C554.231 268.998 553.939 268.887 553.637 268.887C553.335 268.887 553.044 268.998 552.819 269.199C552.593 269.399 552.45 269.675 552.415 269.975Z" fill="#1C7377"/>
    <path d="M558.182 267.68C558.557 266.973 558.783 266.197 558.846 265.4C558.909 264.602 558.808 263.8 558.549 263.043C557.99 261.45 557.175 259.761 556.52 258.12C555.866 256.479 555.274 255.045 554.556 253.547C553.837 253.914 548.693 261.625 548.485 264.876C548.277 268.126 552.543 270.835 552.543 270.835L553.837 271.647C554.076 271.791 556.297 269.958 556.552 269.735C557.222 269.16 557.775 268.463 558.182 267.68Z" fill="#1C7377"/>
    <path d="M554.332 285.398C559.764 284.872 563.502 280.315 566.058 275.583C560.323 275.886 555.035 279.503 554.332 285.398Z" fill="#1C7377"/>
    <path d="M553.933 285.207C552.336 280.028 547.032 277.24 541.872 275.806C543.358 281.351 547.943 285.764 553.933 285.207Z" fill="#1C7377"/>
    <path d="M553.629 300.311C560.53 299.642 565.307 293.843 568.566 287.82C561.233 288.202 554.492 292.807 553.629 300.311Z" fill="#1C7377"/>
    <path d="M553.103 300.04C551.01 293.444 544.332 290.002 537.751 288.074C539.636 295.149 545.563 300.773 553.103 300.04Z" fill="#1C7377"/>
    <path d="M554.157 317.79C562.032 317.026 567.464 310.413 571.17 303.562C562.831 303.992 555.147 309.234 554.157 317.79Z" fill="#1C7377"/>
    <path d="M553.549 317.503C551.169 309.983 543.549 306.063 535.977 303.865C538.214 311.911 544.955 318.316 553.549 317.503Z" fill="#1C7377"/>
    <path d="M282.853 159.477C282.15 166.153 280.84 172.765 279.993 179.425C284.163 181.13 292.853 185.926 292.853 185.926L291.256 162.743L282.853 159.477Z" fill="#68E1FD"/>
    <path d="M288.822 165.136C293.073 164.456 295.773 159.263 294.852 153.537C293.932 147.811 289.739 143.721 285.488 144.4C281.237 145.08 278.537 150.273 279.457 155.999C280.378 161.725 284.57 165.816 288.822 165.136Z" fill="#68E1FD"/>
    <path d="M237.867 328.083C235.136 330.601 229.544 321.71 226.158 322.873C220.92 324.713 215.442 325.786 209.895 326.06C204.751 326.331 199.495 325.805 195.118 322.873C193.127 321.406 191.524 319.476 190.451 317.251C189.378 315.025 188.866 312.572 188.961 310.105C189.055 307.637 189.753 305.23 190.993 303.092C192.233 300.955 193.979 299.153 196.077 297.842L190.102 294.767L169.67 308.947C169.67 308.947 171.364 338.774 226.605 334.6L290.745 371.119L307.167 358.739L237.867 328.083Z" fill="url(#paint4_linear)"/>
    <path d="M212.931 329.358C195.231 329.358 181.365 320.403 181.365 308.963C181.365 297.523 195.231 288.568 212.931 288.568C230.631 288.568 244.498 297.523 244.498 308.963C244.498 320.403 230.631 329.358 212.931 329.358ZM212.931 297.571C199.656 297.571 190.39 303.578 190.39 308.947C190.39 314.317 199.688 320.26 212.931 320.26C226.174 320.26 235.472 314.253 235.472 308.883C235.472 303.514 226.222 297.571 212.931 297.571Z" fill="#1D3F75"/>
    <path d="M234.689 317.472C235.727 316.532 279.099 342.455 279.099 342.455L307.167 358.723L301.065 363.503C300.306 364.1 299.385 364.454 298.422 364.519C297.458 364.585 296.497 364.358 295.665 363.87L228.123 324.849L234.689 317.472Z" fill="#1D3F75"/>
    <path d="M306.448 347.538L295.074 355.074L301.065 363.423L313.286 355.712C313.35 351.744 310.394 347.777 306.448 347.538Z" fill="#1D3F75"/>
    <path d="M292.901 338.966C292.109 338.289 291.185 337.783 290.187 337.481C289.188 337.18 288.138 337.088 287.102 337.213L276.255 344.399L282.246 352.748L295.633 344.303C295.431 342.244 294.455 340.337 292.901 338.966Z" fill="#1D3F75"/>
    <path d="M464.873 364.076C457.371 342.499 453.832 319.748 454.425 296.918C454.425 296.816 454.385 296.719 454.313 296.647C454.241 296.575 454.143 296.535 454.042 296.535C453.94 296.535 453.843 296.575 453.771 296.647C453.699 296.719 453.658 296.816 453.658 296.918C453.066 319.813 456.616 342.628 464.138 364.268C464.314 364.73 465.049 364.539 464.873 364.076Z" fill="white"/>
    <path d="M458.163 250.535C452.399 251.192 446.56 250.589 441.054 248.767C440.59 248.608 440.383 249.34 440.846 249.5C446.419 251.345 452.328 251.959 458.163 251.3C458.642 251.252 458.658 250.488 458.163 250.535Z" fill="#204472"/>
    <path d="M451.342 267.266H455.655L453.69 282.323C453.69 282.323 451.582 271.329 451.342 267.266Z" fill="#204472"/>
    <path d="M466.087 233.551C463.387 234.985 460.032 232.658 457.795 231.224C455.08 229.488 452.348 226.444 453.898 223.019C454.137 222.509 453.306 222.206 453.067 222.716C451.469 226.285 453.977 229.711 456.853 231.654C459.409 233.391 463.243 236.004 466.438 234.331C466.965 234.092 466.598 233.296 466.087 233.551Z" fill="#009245"/>
    <path d="M453.099 220.231C453.099 220.231 446.517 238.14 452.684 241.709C459.457 245.628 466.47 239 466.47 239C466.47 239 473.212 223.513 466.47 219.498C459.729 215.483 454.154 218.016 453.099 220.231Z" fill="#FBB5AD"/>
    <path d="M454.217 234.22C454.047 234.167 453.889 234.08 453.754 233.965C454.509 232.33 455.346 230.735 456.262 229.185C456.294 229.128 456.315 229.066 456.324 229.001C456.332 228.937 456.328 228.871 456.311 228.808C456.294 228.745 456.264 228.686 456.224 228.635C456.184 228.583 456.135 228.54 456.078 228.508C456.022 228.475 455.959 228.454 455.894 228.446C455.829 228.438 455.764 228.442 455.701 228.459C455.638 228.476 455.579 228.505 455.527 228.545C455.475 228.585 455.432 228.634 455.399 228.691C454.42 230.331 453.529 232.022 452.731 233.758C452.669 233.846 452.635 233.952 452.635 234.06C452.635 234.169 452.669 234.275 452.731 234.363C453.033 234.726 453.432 234.997 453.882 235.144C454.569 235.478 454.824 234.507 454.217 234.22Z" fill="#56403D"/>
    <path d="M475.543 229.328C476.326 225.568 474.601 222.955 472.157 219.992C471.965 219.758 471.757 219.524 471.534 219.29C472.309 219.02 473.013 218.579 473.595 218C473.661 217.943 473.712 217.869 473.742 217.787C473.772 217.705 473.78 217.616 473.766 217.529C473.751 217.443 473.715 217.361 473.659 217.293C473.604 217.225 473.532 217.172 473.451 217.139C473.04 217.012 472.607 216.969 472.179 217.013C471.75 217.057 471.335 217.187 470.959 217.394C470.864 216.524 470.615 215.677 470.224 214.893C470.185 214.816 470.127 214.75 470.055 214.701C469.984 214.653 469.901 214.623 469.815 214.615C469.728 214.607 469.641 214.621 469.562 214.656C469.483 214.69 469.414 214.745 469.361 214.813C469.094 215.108 468.896 215.458 468.78 215.838C468.664 216.218 468.634 216.619 468.69 217.012C465.706 215.152 462.148 214.433 458.674 214.988C457.394 215.239 456.19 215.785 455.159 216.582C454.317 216.171 453.376 216.005 452.444 216.104C451.448 216.188 450.508 216.594 449.766 217.262C449.025 217.93 448.523 218.821 448.338 219.8C448.285 220.861 448.653 221.9 449.361 222.693C450.069 223.485 451.062 223.969 452.124 224.039C453.196 224.216 454.296 224.117 455.319 223.752C454.377 224.517 453.626 225.664 455.319 226.779C458.338 228.739 460.623 227.353 460.223 229.058C459.904 230.46 461.485 231.878 462.811 232.388C462.811 232.627 462.811 233.264 462.907 234.108C463.654 234.132 464.382 234.351 465.016 234.746C465.091 234.703 465.175 234.68 465.26 234.677C465.346 234.674 465.432 234.693 465.509 234.73C465.586 234.768 465.653 234.824 465.703 234.893C465.754 234.963 465.787 235.043 465.799 235.128C466.012 237.454 465.339 239.776 463.914 241.629C466.278 240.762 468.449 239.441 470.304 237.741C472.841 235.512 474.664 232.585 475.543 229.328ZM469.665 216.311C469.665 216.391 469.665 216.486 469.665 216.566C469.656 216.619 469.656 216.672 469.665 216.725C469.665 216.9 469.665 217.06 469.665 217.235C469.585 216.932 469.585 216.614 469.665 216.311Z" fill="#1C7377"/>
    <path d="M457.108 235.813C456.611 236.334 455.931 236.643 455.211 236.676C454.49 236.709 453.785 236.462 453.242 235.989C452.907 235.718 452.523 236.259 452.859 236.53C453.522 237.09 454.372 237.379 455.24 237.341C456.107 237.302 456.929 236.939 457.539 236.323C457.843 236.02 457.412 235.511 457.108 235.813Z" fill="#56403D"/>
    <path d="M457.22 232.961C457.095 232.915 456.957 232.92 456.836 232.975C456.714 233.03 456.62 233.131 456.573 233.256C456.527 233.381 456.532 233.519 456.587 233.64C456.643 233.761 456.744 233.855 456.869 233.901C456.994 233.948 457.132 233.943 457.254 233.887C457.375 233.832 457.469 233.731 457.516 233.606C457.563 233.482 457.558 233.344 457.502 233.223C457.447 233.102 457.345 233.008 457.22 232.961Z" fill="#56403D"/>
    <path d="M451.869 229.599C451.744 229.553 451.606 229.558 451.484 229.613C451.363 229.668 451.269 229.769 451.222 229.894C451.176 230.019 451.18 230.157 451.236 230.278C451.291 230.399 451.393 230.493 451.518 230.539C451.643 230.586 451.781 230.581 451.902 230.526C452.024 230.47 452.118 230.369 452.165 230.245C452.211 230.12 452.206 229.982 452.151 229.861C452.096 229.74 451.994 229.646 451.869 229.599Z" fill="#56403D"/>
    <path d="M462.093 235.272C462.093 235.272 466.358 229.026 467.46 232.005C468.563 234.985 461.693 238.076 461.693 238.076" fill="#FBB5AD"/>
    <path d="M172.338 195.215C172.162 194.259 170.741 194.657 170.868 195.613C172.233 202.773 173.204 210.001 173.776 217.267C173.776 218.239 175.373 218.239 175.373 217.267C174.766 209.866 173.753 202.505 172.338 195.215Z" fill="#18696D"/>
    <path d="M150.389 231.894C148.171 225.292 146.383 218.554 145.037 211.722C144.846 210.766 143.44 211.165 143.568 212.121C144.914 218.953 146.701 225.69 148.919 232.292C149.239 233.216 150.708 232.818 150.389 231.894Z" fill="#18696D"/>
    <path d="M164.415 188.332C153.521 185.083 143.694 178.995 135.947 170.694C135.452 170.152 134.637 170.965 135.149 171.49C143.035 179.925 153.032 186.112 164.111 189.415C164.244 189.425 164.376 189.389 164.485 189.313C164.594 189.237 164.673 189.126 164.708 188.998C164.744 188.87 164.734 188.734 164.681 188.613C164.627 188.491 164.533 188.392 164.415 188.332Z" fill="#AF3E2F"/>
    <path d="M176.396 179.202C168.836 176.14 161.692 172.142 155.133 167.3C154.542 166.87 153.967 167.858 154.558 168.288C161.204 173.167 168.439 177.193 176.093 180.27C176.764 180.573 177.067 179.489 176.396 179.202Z" fill="#AF3E2F"/>
    <path d="M169.335 169.132L164.063 153.199C163.839 152.514 162.737 152.801 162.961 153.502L168.232 169.435C168.408 170.136 169.51 169.833 169.335 169.132Z" fill="#AF3E2F"/>
    <path d="M405.668 357.056C406.709 355.257 366.189 329.98 315.164 300.598C264.14 271.216 221.932 248.855 220.891 250.653C219.85 252.452 260.37 277.729 311.394 307.111C362.419 336.493 404.627 358.854 405.668 357.056Z" fill="#F7B43E"/>
    <defs>
        <linearGradient id="paint0_linear" x1="485.48" y1="355.329" x2="442.809" y2="397.297" gradientUnits="userSpaceOnUse">
            <stop stop-color="#D46A00"/>
            <stop offset="1" stop-color="#FFCD62"/>
        </linearGradient>
        <linearGradient id="paint1_linear" x1="5916.68" y1="4766.31" x2="5642.12" y2="5272.42" gradientUnits="userSpaceOnUse">
            <stop stop-color="#D46A00"/>
            <stop offset="1" stop-color="#FFCD62"/>
        </linearGradient>
        <linearGradient id="paint2_linear" x1="7944.74" y1="7051.52" x2="7366.51" y2="8246.26" gradientUnits="userSpaceOnUse">
            <stop stop-color="#D46A00"/>
            <stop offset="1" stop-color="#FFCD62"/>
        </linearGradient>
        <linearGradient id="paint3_linear" x1="21744.4" y1="9292.5" x2="21005.6" y2="10164.9" gradientUnits="userSpaceOnUse">
            <stop stop-color="#D46A00"/>
            <stop offset="1" stop-color="#FFCD62"/>
        </linearGradient>
        <linearGradient id="paint4_linear" x1="21885.9" y1="15153" x2="21219.4" y2="17210.8" gradientUnits="userSpaceOnUse">
            <stop stop-color="#D46A00"/>
            <stop offset="1" stop-color="#FFCD62"/>
        </linearGradient>
    </defs>
</svg>
