<svg width="40" height="36" viewBox="0 0 40 36" fill="none" xmlns="http://www.w3.org/2000/svg">
<path d="M40 11.9804C40 11.8087 39.9591 11.6453 39.8692 11.4981L33.9191 1.03635C33.7474 0.733939 33.4205 0.537781 33.0691 0.537781H6.92276C6.57131 0.537781 6.24438 0.725766 6.07274 1.03635L0.130772 11.4981C0.0490396 11.6453 0 11.8087 0 11.9804C0 14.3261 1.41398 16.3367 3.43277 17.2276V34.4814C3.43277 35.0208 3.87413 35.4622 4.41357 35.4622H9.83245C9.84062 35.4622 9.84879 35.4622 9.85697 35.4622H17.4581C17.4663 35.4622 17.4745 35.4622 17.4826 35.4622H35.5783C36.1177 35.4622 36.5591 35.0208 36.5591 34.4814V17.3502C36.5591 17.3093 36.5591 17.2766 36.5509 17.2439C38.5779 16.3531 40 14.3343 40 11.9804ZM7.49489 2.50754H32.4969L37.1475 10.689H2.85247L7.49489 2.50754ZM28.4675 12.6424C28.1569 14.4078 26.6122 15.7482 24.7568 15.7482C22.9015 15.7482 21.3568 14.4078 21.0462 12.6424H28.4675ZM18.962 12.6424C18.6514 14.4078 17.1067 15.7482 15.2513 15.7482C13.396 15.7482 11.8512 14.4078 11.5325 12.6424H18.962ZM2.02697 12.6424H9.45648C9.14589 14.4078 7.59297 15.7482 5.73764 15.7482C3.8823 15.7564 2.33756 14.4078 2.02697 12.6424ZM16.4773 33.5006H10.8378V22.9162C10.8378 22.1479 11.4589 21.5186 12.2354 21.5186H15.0879C15.8562 21.5186 16.4855 22.1397 16.4855 22.9162V33.5006H16.4773ZM34.5975 33.5006H18.4389V22.9162C18.4389 21.069 16.935 19.557 15.0797 19.557H12.2272C10.3801 19.557 8.868 21.0609 8.868 22.9162V33.5088H5.39436V17.7098C5.50879 17.718 5.62321 17.718 5.73764 17.718C7.71557 17.718 9.46465 16.7127 10.4945 15.1843C11.5243 16.7127 13.2734 17.718 15.2513 17.718C17.2293 17.718 18.9702 16.7127 20.0082 15.1843C21.038 16.7127 22.7871 17.718 24.7568 17.718C26.7348 17.718 28.4757 16.7127 29.5055 15.1843C30.5353 16.7127 32.2844 17.718 34.2624 17.718C34.3768 17.718 34.483 17.7098 34.5975 17.7098V33.5006ZM34.2624 15.7564C32.407 15.7564 30.8623 14.416 30.5517 12.6506H37.9812C37.6624 14.4078 36.1177 15.7564 34.2624 15.7564Z" fill="url(#paint0_linear)"/>
<defs>
<linearGradient id="paint0_linear" x1="1.05647" y1="1.4602" x2="33.8338" y2="39.0011" gradientUnits="userSpaceOnUse">
<stop stop-color="#F27979"/>
<stop offset="1" stop-color="#7D00A3"/>
</linearGradient>
</defs>
</svg>
