<svg width="119" height="36" viewBox="0 0 119 36" fill="none" xmlns="http://www.w3.org/2000/svg">
<path d="M17.137 13.56C17.137 15.6 15.471 17.28 13.448 17.28C11.425 17.28 9.75898 15.6 9.75898 13.56C9.75898 11.52 11.425 9.84 13.448 9.84C15.471 9.84 17.137 11.52 17.137 13.56ZM13.448 18.72C11.425 18.72 9.75898 20.4 9.75898 22.44C9.75898 24.48 11.425 26.16 13.448 26.16C15.471 26.16 17.137 24.48 17.137 22.44C17.137 20.4 15.471 18.72 13.448 18.72ZM35.701 18C35.701 27.96 27.728 36 17.851 36C7.97398 36 0.000976562 27.96 0.000976562 18C0.000976562 8.04 7.97398 0 17.851 0C27.728 0 35.701 8.04 35.701 18ZM30.941 18C30.941 10.68 25.11 4.8 17.851 4.8C10.592 4.8 4.76098 10.68 4.76098 18C4.76098 25.32 10.592 31.2 17.851 31.2C25.11 31.2 30.941 25.32 30.941 18ZM22.254 18.72C20.231 18.72 18.565 20.4 18.565 22.44C18.565 24.48 20.231 26.16 22.254 26.16C24.277 26.16 25.943 24.48 25.943 22.44C25.943 20.4 24.277 18.72 22.254 18.72ZM22.254 9.84C20.231 9.84 18.565 11.52 18.565 13.56C18.565 15.6 20.231 17.28 22.254 17.28C24.277 17.28 25.943 15.6 25.943 13.56C25.943 11.52 24.277 9.84 22.254 9.84ZM83.658 7.08C83.777 7.08 83.896 7.2 84.015 7.32V11.16C84.015 11.4 83.777 11.52 83.658 11.52H77.351C77.113 11.52 76.994 11.28 76.994 11.16V7.44C76.994 7.2 77.232 7.08 77.351 7.08H83.658ZM83.539 12.48H71.401C71.282 12.48 71.044 12.6 71.044 12.84L69.497 18.84L69.378 19.2L67.474 12.84C67.474 12.72 67.236 12.48 67.117 12.48H62.357C62.238 12.48 62 12.6 62 12.84L60.215 18.84L60.096 19.2L59.977 18.84L59.263 15.84L58.549 12.84C58.549 12.72 58.311 12.48 58.192 12.48H48.672V7.32C48.672 7.2 48.434 6.96 48.196 7.08L42.246 9C42.008 9 41.889 9.12 41.889 9.36V12.6H40.342C40.223 12.6 39.985 12.72 39.985 12.96V17.52C39.985 17.64 40.104 17.88 40.342 17.88H41.889V23.52C41.889 27.48 44.031 29.28 47.958 29.28C49.624 29.28 51.171 28.92 52.242 28.32V23.52C52.242 23.28 52.004 23.16 51.885 23.28C51.29 23.52 50.695 23.64 50.219 23.64C49.148 23.64 48.553 23.16 48.553 21.96V17.88H52.004C52.123 17.88 52.361 17.76 52.361 17.52V13.68L56.883 28.8C56.883 28.92 57.121 29.16 57.24 29.16H62.238C62.357 29.16 62.595 29.04 62.595 28.8L64.737 22.08L65.808 25.56L66.76 28.8C66.76 28.92 66.998 29.16 67.117 29.16H72.115C72.234 29.16 72.472 29.04 72.472 28.8L76.994 13.68V28.8C76.994 28.92 77.113 29.16 77.351 29.16H83.42C83.539 29.16 83.777 29.04 83.777 28.8V12.84C83.777 12.72 83.658 12.48 83.539 12.48ZM91.512 7.08H85.443C85.324 7.08 85.086 7.2 85.086 7.44V28.68C85.086 28.8 85.205 29.04 85.443 29.04H91.512C91.631 29.04 91.869 28.92 91.869 28.68V7.32C91.869 7.2 91.75 7.08 91.512 7.08ZM99.604 7.08H93.297C93.178 7.08 92.94 7.2 92.94 7.44V11.16C92.94 11.28 93.059 11.52 93.297 11.52H99.604C99.723 11.52 99.961 11.4 99.961 11.16V7.32C99.961 7.2 99.842 7.08 99.604 7.08ZM99.485 12.48H93.416C93.297 12.48 93.059 12.6 93.059 12.84V28.56C93.059 28.68 93.178 28.92 93.416 28.92H99.485C99.604 28.92 99.842 28.8 99.842 28.56V12.84C99.842 12.72 99.723 12.48 99.485 12.48ZM118.644 20.64C118.644 25.2 114.836 29.16 109.481 29.16C104.245 29.16 100.437 25.2 100.437 20.64C100.437 16.08 104.245 12.12 109.6 12.12C114.836 12.12 118.644 16.08 118.644 20.64ZM112.218 20.76C112.218 19.08 111.028 17.76 109.6 17.88C108.053 17.88 106.982 19.2 106.982 20.76C106.982 22.32 108.172 23.64 109.6 23.64C111.147 23.64 112.218 22.32 112.218 20.76Z" fill="white"/>
</svg>
