<svg width="50" height="50" viewBox="0 0 50 50" fill="none" xmlns="http://www.w3.org/2000/svg">
<rect x="1.00098" y="1" width="48" height="48" rx="3" stroke="#727279" stroke-width="2"/>
<path d="M21.081 33C22.5597 33.0495 24.0333 32.8021 25.4147 32.2723C26.7962 31.7426 28.0574 30.9413 29.1239 29.9159C30.1904 28.8904 31.0405 27.6615 31.6239 26.3019C32.2074 24.9423 32.5124 23.4795 32.521 22C33.1986 21.1615 33.7018 20.1959 34.001 19.16C34.0233 19.0782 34.0215 18.9917 33.9958 18.9108C33.9701 18.83 33.9215 18.7583 33.856 18.7044C33.7905 18.6505 33.7108 18.6167 33.6265 18.6071C33.5422 18.5974 33.457 18.6123 33.381 18.65C33.0265 18.8207 32.6273 18.8758 32.2398 18.8076C31.8523 18.7395 31.496 18.5514 31.221 18.27C30.8699 17.8856 30.4453 17.5756 29.9722 17.3583C29.4992 17.141 28.9873 17.0208 28.4669 17.005C27.9466 16.9891 27.4283 17.0779 26.9429 17.266C26.4575 17.4541 26.0148 17.7377 25.641 18.1C25.1292 18.5957 24.7543 19.2153 24.5528 19.8987C24.3513 20.5821 24.33 21.306 24.491 22C21.141 22.2 18.841 20.61 17.001 18.43C16.9457 18.3674 16.8734 18.3223 16.7929 18.3001C16.7124 18.2779 16.6271 18.2797 16.5476 18.3051C16.4681 18.3306 16.3977 18.3786 16.345 18.4434C16.2923 18.5082 16.2596 18.587 16.251 18.67C15.9004 20.6145 16.1533 22.6196 16.9756 24.4161C17.7979 26.2126 19.1502 27.7145 20.851 28.72C19.7106 30.0279 18.1092 30.8447 16.381 31C16.2884 31.0154 16.2029 31.0593 16.1365 31.1257C16.0701 31.192 16.0261 31.2774 16.0107 31.37C15.9953 31.4626 16.0092 31.5577 16.0505 31.6419C16.0918 31.7262 16.1584 31.7955 16.241 31.84C17.7445 32.5914 19.4002 32.9882 21.081 33Z" fill="#727279"/>
</svg>
