<svg width="50" height="50" viewBox="0 0 50 50" fill="none" xmlns="http://www.w3.org/2000/svg">
<rect x="1.00098" y="1" width="48" height="48" rx="3" stroke="#727279" stroke-width="2"/>
<path d="M21.0808 33.0008C22.5595 33.0503 24.0331 32.8028 25.4145 32.2731C26.796 31.7433 28.0572 30.9421 29.1237 29.9166C30.1902 28.8911 31.0403 27.6623 31.6237 26.3027C32.2072 24.9431 32.5122 23.4803 32.5208 22.0008C33.1984 21.1622 33.7016 20.1966 34.0008 19.1608C34.0231 19.0789 34.0213 18.9924 33.9956 18.9116C33.9699 18.8307 33.9213 18.759 33.8558 18.7051C33.7903 18.6513 33.7106 18.6174 33.6263 18.6078C33.542 18.5982 33.4568 18.6131 33.3808 18.6508C33.0263 18.8214 32.6271 18.8766 32.2396 18.8084C31.8521 18.7402 31.4958 18.5522 31.2208 18.2708C30.8697 17.8864 30.4451 17.5763 29.972 17.359C29.4989 17.1417 28.9871 17.0216 28.4667 17.0057C27.9464 16.9899 27.4281 17.0786 26.9427 17.2667C26.4573 17.4548 26.0146 17.7384 25.6408 18.1008C25.129 18.5964 24.7541 19.2161 24.5526 19.8995C24.3511 20.5828 24.3298 21.3067 24.4908 22.0008C21.1408 22.2008 18.8408 20.6108 17.0008 18.4308C16.9455 18.3682 16.8732 18.323 16.7927 18.3008C16.7122 18.2787 16.6269 18.2804 16.5474 18.3059C16.4679 18.3313 16.3975 18.3794 16.3448 18.4442C16.2921 18.509 16.2594 18.5877 16.2508 18.6708C15.9002 20.6152 16.1531 22.6203 16.9754 24.4168C17.7977 26.2134 19.15 27.7153 20.8508 28.7208C19.7104 30.0286 18.109 30.8454 16.3808 31.0008C16.2882 31.0161 16.2027 31.06 16.1363 31.1264C16.0699 31.1927 16.0259 31.2782 16.0105 31.3707C15.9951 31.4633 16.009 31.5584 16.0503 31.6427C16.0916 31.727 16.1582 31.7962 16.2408 31.8408C17.7443 32.5921 19.4 32.989 21.0808 33.0008" fill="#727279"/>
</svg>
