<svg width="81" height="82" viewBox="0 0 81 82" fill="none" xmlns="http://www.w3.org/2000/svg">
<path d="M38.4486 80.6468C50.1173 80.9185 58.2847 76.5781 66.6858 68.9405C75.087 61.3029 80.6664 54.0574 80.4543 42.4587C80.2421 30.8601 73.9071 19.2291 65.6252 10.9473C57.3434 2.66547 49.9693 0.640378 39.045 1.0495C28.1208 1.45863 18.5777 4.45608 11.004 12.9929C3.43025 21.5298 1.7087 32.816 1.17628 43.7337C0.643869 54.6515 0.887469 60.1992 8.34192 67.5818C15.7964 74.9644 26.7798 80.3751 38.4486 80.6468Z" stroke="white"/>
<path d="M11.0119 36.6667V35.3594H17.948V36.6667H15.1715V44.1595H13.7884V36.6667H11.0119Z" fill="white"/>
<path d="M25.3778 37.8232H23.8564L21.698 42.4664L19.6628 37.8232H18.1564L20.9227 44.1342L19.7187 46.7237H21.2404L25.3778 37.8232Z" fill="white"/>
<path d="M31.0623 40.9913C31.0623 40.3501 30.9116 39.8347 30.61 39.4579C30.3082 39.068 29.9185 38.8793 29.4405 38.8793C28.9628 38.8793 28.5732 39.068 28.2716 39.4579C27.9697 39.8347 27.819 40.3501 27.819 40.9913C27.819 41.6326 27.9697 42.1477 28.2716 42.5376C28.5732 42.9147 28.9628 43.1034 29.4405 43.1034C29.9185 43.1034 30.3082 42.9147 30.61 42.5376C30.9116 42.1477 31.0623 41.6326 31.0623 40.9913ZM29.5915 44.26C28.8496 44.26 28.2087 43.9078 27.8945 43.4556V46.7237H26.5869V37.8235H27.8945V38.5525C28.1335 38.1375 28.8496 37.7227 29.6169 37.7227C31.4648 37.7227 32.4454 38.9293 32.4454 40.9913C32.4454 43.0028 31.452 44.26 29.5915 44.26Z" fill="white"/>
<path d="M34.9911 40.2624H38.0711C37.9579 39.4702 37.4299 38.8796 36.5374 38.8796C35.6952 38.8796 35.1418 39.445 34.9911 40.2624ZM39.4539 41.3558H34.9657C34.9657 42.3492 35.544 43.1034 36.5374 43.1034C37.2413 43.1034 37.8827 42.7009 38.1969 42.0348L39.3156 42.4747C38.6746 43.7192 37.9328 44.26 36.5374 44.26C34.4505 44.26 33.5829 42.4999 33.5829 40.9913C33.5829 39.4825 34.4505 37.7227 36.5374 37.7227C38.5614 37.7227 39.4539 39.3696 39.4539 40.7904V41.3558Z" fill="white"/>
<path d="M40.5199 38.9797V37.8234H41.3372V37.4966C41.3372 36.0004 42.1419 35.2588 43.4615 35.2588C43.8763 35.2588 44.2162 35.334 44.5053 35.4849L44.2408 36.5913C44.015 36.4781 43.7634 36.4152 43.4993 36.4152C42.9338 36.4152 42.6445 36.7422 42.6445 37.4086V37.8234H44.0399V38.9797H42.6445V44.1592H41.3372V38.9797H40.5199Z" fill="white"/>
<path d="M46.288 40.9913C46.288 41.5697 46.4387 42.0725 46.7403 42.4873C47.0548 42.9024 47.4822 43.1034 48.0227 43.1034C48.5633 43.1034 48.991 42.9024 49.2926 42.4873C49.6068 42.0725 49.7577 41.5697 49.7577 40.9913C49.7577 40.413 49.6068 39.9227 49.2926 39.5079C48.991 39.0929 48.5633 38.8793 48.0227 38.8793C47.4822 38.8793 47.0548 39.0929 46.7403 39.5079C46.4387 39.9227 46.288 40.413 46.288 40.9913ZM44.905 40.9913C44.905 40.0737 45.1814 39.2944 45.7472 38.6657C46.3132 38.0368 47.0799 37.7227 48.0227 37.7227C48.9658 37.7227 49.72 38.0368 50.2857 38.6657C50.8515 39.2944 51.1405 40.0737 51.1405 40.9913C51.1405 41.909 50.8515 42.6886 50.2857 43.3172C49.72 43.9456 48.9658 44.26 48.0227 44.26C47.0799 44.26 46.3132 43.9456 45.7472 43.3172C45.1814 42.6886 44.905 41.909 44.905 40.9913Z" fill="white"/>
<path d="M53.6899 44.1594H52.3826V37.8235H53.6899V38.8796C54.105 38.1377 54.8591 37.7227 55.5632 37.7227C55.8523 37.7227 56.1161 37.7732 56.3677 37.8736L56.1413 39.068C55.9403 38.9422 55.689 38.8796 55.3997 38.8796C54.9346 38.8796 54.5321 39.1309 54.193 39.646C53.8534 40.1489 53.6899 40.8656 53.6899 41.8084V44.1594Z" fill="white"/>
<path d="M57.7122 37.8233H59.0196V38.9045C59.5353 38.1123 60.1636 37.7227 60.9304 37.7227C61.7854 37.7227 62.4895 38.2381 62.6782 39.03C63.1179 38.1878 63.8345 37.7227 64.6519 37.7227C65.7956 37.7227 66.462 38.4768 66.462 39.6209V44.1591H65.1547V39.9102C65.1547 39.2438 64.7899 38.8793 64.2242 38.8793C63.4072 38.8793 62.7408 39.9476 62.7408 41.6197V44.1591H61.4332V39.9102C61.4332 39.2438 61.0687 38.8793 60.5032 38.8793C59.6608 38.8793 59.0196 39.9476 59.0196 41.7581V44.1591H57.7122V37.8233Z" fill="white"/>
</svg>
