<svg width="551" height="405" viewBox="0 0 551 405" fill="none" xmlns="http://www.w3.org/2000/svg">
<path d="M352.427 201.899V79.4663C352.429 76.8375 351.901 74.2353 350.876 71.8144C349.851 69.3935 348.349 67.2034 346.46 65.3745C344.57 63.5455 342.333 62.1149 339.879 61.1679C337.426 60.2209 334.807 59.7768 332.178 59.862L224.817 63.0893C222.153 63.1688 219.532 63.7897 217.116 64.9142C214.7 66.0388 212.538 67.6434 210.762 69.6303C208.986 71.6172 207.634 73.9447 206.788 76.471C205.941 78.9973 205.618 81.6694 205.839 84.3245L216.47 211.564L352.427 201.899Z" fill="#231F20"/>
<path d="M216.521 212.405C216.306 212.41 216.098 212.333 215.938 212.189C215.778 212.046 215.68 211.847 215.662 211.633L205.082 84.3933C204.853 81.6269 205.188 78.8427 206.068 76.2099C206.948 73.5771 208.355 71.1506 210.202 69.0778C212.049 67.005 214.299 65.3292 216.814 64.1523C219.33 62.9753 222.058 62.3217 224.834 62.2311L332.177 59.0209C334.916 58.9382 337.643 59.4058 340.198 60.396C342.752 61.3862 345.082 62.8788 347.049 64.7854C349.016 66.692 350.58 68.9738 351.648 71.4956C352.716 74.0174 353.267 76.7279 353.268 79.4664V201.899C353.269 202.115 353.188 202.324 353.042 202.483C352.895 202.642 352.694 202.74 352.478 202.757L216.555 212.405H216.521ZM332.83 60.7204H332.177L224.816 63.9478C222.279 64.0387 219.786 64.6437 217.49 65.7261C215.193 66.8085 213.141 68.3456 211.456 70.2445C209.771 72.1433 208.49 74.3643 207.69 76.7728C206.889 79.1812 206.587 81.7271 206.8 84.2559L217.345 210.654L351.637 201.109V79.4664C351.637 74.4947 349.661 69.7266 346.143 66.211C342.626 62.6954 337.856 60.7204 332.882 60.7204H332.83Z" fill="#231F20"/>
<path d="M457.813 123.173C457.813 123.173 442.184 129.044 443.163 149.747C444.142 170.45 438.835 192.835 456.731 191.136L457.813 203.324L495.598 207.341C495.598 207.341 499.548 144.03 492.455 133.524C485.362 123.018 457.813 123.173 457.813 123.173Z" fill="white"/>
<path d="M495.632 208.182H495.546L457.761 204.165C457.563 204.146 457.377 204.059 457.236 203.918C457.095 203.777 457.007 203.591 456.988 203.393L455.992 192.063C454.407 192.256 452.799 192.118 451.271 191.657C449.742 191.196 448.326 190.422 447.113 189.385C441.96 184.647 442.184 174.638 442.39 163.051C442.39 158.708 442.544 154.21 442.39 149.798C441.874 138.794 446.014 131.945 449.586 128.117C451.823 125.663 454.55 123.704 457.589 122.366C457.692 122.35 457.796 122.35 457.899 122.366C459.049 122.366 486.014 122.486 493.279 133.164C500.544 143.841 496.714 204.835 496.577 207.444C496.568 207.56 496.537 207.673 496.484 207.776C496.431 207.879 496.357 207.971 496.268 208.045C496.08 208.169 495.854 208.218 495.632 208.182ZM458.603 202.5L494.842 206.345C495.271 198.62 498.174 143.447 491.768 134.022C485.361 124.598 460.234 123.997 457.967 123.98C456.353 124.632 443.128 130.675 444.004 149.73C444.227 154.21 444.141 158.725 444.004 163.102C443.815 173.814 443.643 183.943 448.195 188.149C450.136 189.951 452.884 190.655 456.593 190.312C456.821 190.292 457.048 190.36 457.229 190.5C457.403 190.648 457.513 190.857 457.538 191.084L458.603 202.5Z" fill="#231F20"/>
<path d="M483.798 189.865C503.974 189.865 520.329 171.904 520.329 149.747C520.329 127.59 503.974 109.628 483.798 109.628C463.623 109.628 447.267 127.59 447.267 149.747C447.267 171.904 463.623 189.865 483.798 189.865Z" fill="white"/>
<path d="M483.798 190.724C463.188 190.724 446.408 172.338 446.408 149.747C446.408 127.155 463.188 108.787 483.798 108.787C504.408 108.787 521.102 127.155 521.102 149.747C521.102 172.338 504.408 190.724 483.798 190.724ZM483.798 110.487C464.133 110.487 448.126 128.1 448.126 149.747C448.126 171.394 464.133 189.024 483.798 189.024C503.464 189.024 519.471 171.411 519.471 149.747C519.471 128.082 503.464 110.487 483.798 110.487Z" fill="#231F20"/>
<path d="M311.464 15.7437C295.388 -6.79614 261.124 -1.74914 245.083 18.5247C236.633 29.2024 232.957 43.4679 222.755 52.5147C217.345 57.3385 210.527 60.2569 204.138 63.7074C197.749 67.1579 191.428 71.5354 188.216 78.0415C185.005 84.5477 186.018 93.6289 192.15 97.5257C197.543 100.959 204.962 99.5342 210.424 102.882C203.554 103.792 198.968 112.461 202.128 118.658C204.808 123.928 211.094 126.091 216.83 127.516C237.062 132.666 258.651 134.486 278.66 128.512C293.602 124.065 308.854 114.16 317.235 100.702C325.187 87.9295 322.302 63.8447 321.185 49.2015C320.378 38.541 318.678 27.6574 313.25 18.456C312.701 17.5462 312.1 16.6192 311.464 15.7437Z" fill="white"/>
<path d="M251.885 133.044C239.995 132.921 228.164 131.342 216.659 128.34C210.699 126.864 204.224 124.58 201.407 119.053C200.618 117.374 200.241 115.531 200.307 113.677C200.373 111.823 200.879 110.011 201.785 108.392C203.108 105.781 205.327 103.733 208.037 102.624C205.843 101.877 203.574 101.37 201.27 101.114C197.921 100.839 194.667 99.8625 191.721 98.2467C184.954 93.9379 184.25 84.2044 187.479 77.6467C191.017 70.5225 198.041 66.042 203.778 62.952C205.22 62.1624 206.68 61.407 208.157 60.6517C213.206 58.3284 217.943 55.3814 222.258 51.8795C228.046 46.7295 231.79 39.6397 235.414 32.7902C237.981 27.5999 241.004 22.6479 244.448 17.9925C249.049 12.2895 254.893 7.71296 261.534 4.61275C268.175 1.51254 275.437 -0.0293554 282.765 0.104871C288.516 0.118138 294.182 1.49799 299.294 4.13058C304.407 6.76317 308.82 10.573 312.169 15.2459C312.805 16.1385 313.423 17.0999 314.007 18.0784C319.76 27.829 321.306 39.2792 322.062 49.1844C322.165 50.5234 322.285 51.9482 322.405 53.4417C323.59 68.5999 325.308 89.32 317.974 101.217C310.074 113.937 295.475 124.46 278.918 129.404C270.131 131.92 261.025 133.146 251.885 133.044ZM281.649 1.80437C274.768 1.83225 267.978 3.38658 261.771 6.35523C255.563 9.32387 250.093 13.6328 245.753 18.971C242.366 23.5405 239.4 28.4071 236.891 33.5112C233.198 40.498 229.368 47.708 223.357 53.064C218.951 56.674 214.103 59.7083 208.93 62.0937C207.47 62.849 206.01 63.6044 204.585 64.3769C199.072 67.3639 192.322 71.6384 189.024 78.3334C186.105 84.2215 186.671 92.925 192.631 96.736C195.373 98.263 198.403 99.2041 201.528 99.4999C204.803 99.7826 207.99 100.71 210.905 102.229C211.055 102.322 211.173 102.458 211.242 102.62C211.312 102.782 211.33 102.961 211.295 103.133C211.259 103.306 211.171 103.463 211.043 103.584C210.915 103.704 210.753 103.783 210.579 103.809C209.037 104.121 207.583 104.772 206.324 105.716C205.066 106.659 204.033 107.871 203.301 109.264C202.569 110.656 202.157 112.194 202.093 113.765C202.03 115.337 202.318 116.902 202.936 118.349C205.444 123.293 211.524 125.387 217.071 126.778C240.446 132.614 261.091 132.958 278.437 127.791C294.599 122.967 308.837 112.701 316.531 100.324C323.59 88.9595 321.924 68.5484 320.705 53.6477C320.585 52.1542 320.465 50.7294 320.361 49.3904C319.623 39.674 318.112 28.4642 312.53 19.0054C311.98 18.0784 311.379 17.1685 310.812 16.3102C307.613 11.8552 303.4 8.22439 298.52 5.71717C293.641 3.20996 288.235 1.89823 282.748 1.89021L281.649 1.80437Z" fill="#231F20"/>
<path d="M332.521 81.5607C332.109 78.9685 266.81 67.8274 234.005 83.2774C222.258 128.237 228.75 216.233 228.75 216.233L345.402 215.34C345.402 215.34 346.484 166.862 332.521 81.5607Z" fill="#EB7100"/>
<path d="M260.472 84.4276C260.472 84.4276 258.428 214.122 258.411 215.032C258.394 215.941 293.534 215.032 294.478 213.504C295.423 211.976 294.478 100.53 294.478 100.53L265.47 94.3499" fill="#231F20"/>
<path d="M265.057 216.233C262.815 216.311 260.569 216.214 258.342 215.941C258.119 215.904 257.917 215.789 257.772 215.616C257.627 215.442 257.549 215.223 257.552 214.997C257.552 214.104 259.596 85.6978 259.613 84.3931C259.613 84.2812 259.635 84.1704 259.679 84.0672C259.722 83.964 259.786 83.8705 259.865 83.7922C259.945 83.7138 260.04 83.6522 260.144 83.611C260.248 83.5697 260.36 83.5496 260.472 83.5519C260.584 83.5542 260.696 83.5786 260.799 83.6238C260.902 83.669 260.996 83.7341 261.074 83.8154C261.152 83.8967 261.213 83.9926 261.255 84.0976C261.296 84.2026 261.316 84.3147 261.313 84.4274C261.313 85.6634 259.424 204.44 259.269 214.379C263.598 214.877 290.597 214.104 293.619 212.937C294.186 208.508 293.723 131.687 293.482 101.216L265.195 95.0708C265.082 95.0471 264.975 95.0015 264.88 94.9365C264.785 94.8715 264.703 94.7884 264.64 94.6919C264.577 94.5955 264.534 94.4876 264.513 94.3744C264.491 94.2612 264.493 94.1449 264.516 94.0322C264.54 93.9195 264.586 93.8125 264.651 93.7174C264.716 93.6224 264.799 93.541 264.895 93.4781C264.992 93.4151 265.1 93.3717 265.213 93.3505C265.326 93.3292 265.443 93.3304 265.556 93.3541L294.513 99.6371C294.702 99.6766 294.872 99.78 294.994 99.9301C295.116 100.08 295.183 100.268 295.182 100.461C295.457 134.039 295.972 212.302 295.079 213.864C294.787 214.362 294.238 215.306 277.114 215.941C273.095 216.233 268.63 216.233 265.057 216.233Z" fill="#231F20"/>
<path d="M293.448 82.4361L294.307 103.757C294.307 103.757 291.92 113.611 277.51 110.864C263.1 108.117 260.524 98.4011 260.524 98.4011L260.369 58.5745C260.369 58.5745 282.13 45.6308 277.905 22.8678C277.905 22.8678 287.42 40.4808 308.459 36.7556C308.459 36.7556 309.747 57.2011 308.562 68.308C307.377 79.4148 293.448 82.4361 293.448 82.4361Z" fill="white"/>
<path d="M282.25 112.203C280.606 112.191 278.968 112.024 277.355 111.705C262.567 108.89 259.802 99.0362 259.682 98.6242C259.673 98.5501 259.673 98.4752 259.682 98.401L259.527 58.5744C259.528 58.4266 259.566 58.2814 259.639 58.1523C259.711 58.0232 259.814 57.9145 259.94 57.8362C260.146 57.7161 281.134 44.9269 277.115 23.0222C277.079 22.8219 277.115 22.6153 277.217 22.4392C277.319 22.2631 277.481 22.1291 277.673 22.061C277.865 21.9929 278.074 21.9953 278.265 22.0676C278.455 22.1399 278.614 22.2774 278.712 22.4557C281.637 27.4985 286.058 31.5085 291.362 33.9318C296.666 36.355 302.592 37.0718 308.322 35.9831C308.439 35.9591 308.56 35.962 308.676 35.9918C308.792 36.0215 308.9 36.0772 308.991 36.1547C309.088 36.2276 309.167 36.3207 309.223 36.4275C309.28 36.5342 309.312 36.6521 309.318 36.7727C309.318 36.9787 310.589 57.3727 309.421 68.4796C308.322 78.7796 297.295 82.3674 294.341 83.1571L295.166 103.757C295.174 103.831 295.174 103.906 295.166 103.98C295.114 104.049 293.002 112.203 282.25 112.203ZM261.382 98.2809C261.692 99.328 264.611 107.517 277.664 110.006C290.357 112.443 293.122 104.633 293.431 103.654L292.675 82.4704C292.667 82.2667 292.732 82.0667 292.858 81.9063C292.983 81.7459 293.162 81.6355 293.362 81.5949C293.482 81.5949 306.69 78.5736 307.789 68.2221C308.803 58.6602 307.978 41.9056 307.789 37.7512C302.449 38.5994 296.979 37.9786 291.966 35.9553C286.952 33.9321 282.584 30.5828 279.33 26.2667C280.773 45.4591 264.216 57.1667 261.348 59.0551L261.382 98.2809Z" fill="#231F20"/>
<path d="M267.05 57.1155C266.461 55.1766 265.255 53.4829 263.615 52.2917C262.04 51.2473 260.297 50.4809 258.463 50.0257C257.498 49.666 256.464 49.5309 255.44 49.6308C254.728 49.7808 254.052 50.0664 253.448 50.472C251.947 51.2971 250.79 52.6301 250.184 54.2315C249.85 55.5729 249.85 56.9758 250.184 58.3172C250.428 59.7935 250.867 61.231 251.49 62.5917C252.143 63.9377 253.057 65.1405 254.179 66.13C255.302 67.1194 256.61 67.8758 258.028 68.3551C259.446 68.8344 260.945 69.027 262.437 68.9217C263.93 68.8163 265.387 68.4152 266.724 67.7417" fill="white"/>
<path d="M261.76 69.8016C259.475 69.8131 257.233 69.1733 255.299 67.9572C253.364 66.741 251.816 64.9988 250.837 62.9349C250.178 61.5045 249.716 59.9916 249.463 58.4372C249.102 56.9655 249.102 55.4284 249.463 53.9567C250.117 52.1566 251.397 50.6517 253.07 49.7166C253.768 49.2557 254.55 48.935 255.371 48.7724C256.533 48.6424 257.708 48.7834 258.806 49.1844C260.728 49.6722 262.552 50.485 264.199 51.5877C265.976 52.8948 267.278 54.7449 267.909 56.8579C267.973 57.0855 267.943 57.3292 267.827 57.5352C267.711 57.7413 267.518 57.8928 267.291 57.9566C267.063 58.0203 266.819 57.991 266.613 57.8751C266.407 57.7592 266.255 57.5662 266.191 57.3386C265.662 55.5832 264.577 54.047 263.1 52.9611C261.634 52.0024 260.021 51.2892 258.325 50.8496C257.482 50.5303 256.579 50.4013 255.68 50.4719C255.066 50.5976 254.483 50.8426 253.963 51.1929C252.651 51.9275 251.632 53.0914 251.077 54.4889C250.786 55.6961 250.786 56.9553 251.077 58.1626C251.303 59.5631 251.719 60.9262 252.314 62.2139C252.92 63.4545 253.765 64.5629 254.801 65.4752C255.838 66.3875 257.045 67.0857 258.352 67.5293C259.66 67.973 261.043 68.1535 262.421 68.0602C263.799 67.967 265.144 67.602 266.38 66.9862C266.58 66.9029 266.805 66.8984 267.008 66.9735C267.212 67.0487 267.379 67.1979 267.477 67.3913C267.575 67.5847 267.596 67.808 267.536 68.0162C267.476 68.2245 267.339 68.4023 267.153 68.5141C265.479 69.3526 263.633 69.7932 261.76 69.8016Z" fill="#231F20"/>
<path d="M294.221 49.0127C294.221 49.0127 302.602 59.5015 300.988 61.5787C299.374 63.6559 294.324 62.7975 294.324 62.7975" fill="white"/>
<path d="M296.642 63.8448C295.82 63.8426 294.999 63.7795 294.186 63.656C293.962 63.6141 293.764 63.4867 293.632 63.3008C293.501 63.1149 293.447 62.8852 293.482 62.6603C293.499 62.5492 293.537 62.4425 293.596 62.3466C293.655 62.2507 293.732 62.1675 293.823 62.1019C293.914 62.0363 294.018 61.9896 294.127 61.9646C294.237 61.9397 294.35 61.9369 294.461 61.9565C295.646 62.1625 299.27 62.42 300.318 61.0638C300.85 60.1196 297.69 54.7293 293.551 49.5621C293.479 49.4736 293.425 49.3715 293.393 49.2619C293.36 49.1523 293.35 49.0374 293.363 48.9239C293.376 48.8103 293.411 48.7005 293.467 48.6008C293.523 48.5011 293.598 48.4136 293.688 48.3433C293.866 48.203 294.092 48.1386 294.318 48.1644C294.543 48.1901 294.749 48.3038 294.89 48.4806C297.535 51.7938 303.478 59.742 301.76 62.111C301.087 62.7572 300.279 63.2475 299.394 63.5471C298.51 63.8467 297.57 63.9483 296.642 63.8448Z" fill="#231F20"/>
<path d="M287.935 44.9171C287.994 43.4867 287.22 42.2933 286.206 42.2515C285.192 42.2098 284.322 43.3355 284.263 44.7659C284.204 46.1963 284.978 47.3897 285.992 47.4315C287.006 47.4732 287.876 46.3475 287.935 44.9171Z" fill="#231F20"/>
<path d="M301.387 44.7353C301.603 43.3202 300.966 42.0485 299.962 41.8951C298.959 41.7417 297.97 42.7645 297.754 44.1796C297.537 45.5948 298.175 46.8663 299.178 47.0198C300.181 47.1732 301.17 46.1504 301.387 44.7353Z" fill="#231F20"/>
<path d="M300.954 67.4154C300.954 67.4154 282.782 78.4192 279.554 61.5272L300.954 67.4154Z" fill="white"/>
<path d="M289.515 71.7929C287.941 71.8143 286.38 71.5104 284.929 70.9002C281.7 69.4582 279.605 66.3682 278.712 61.6817C278.689 61.5711 278.69 61.4571 278.712 61.3465C278.735 61.236 278.78 61.1312 278.844 61.0383C278.908 60.9454 278.99 60.8663 279.086 60.8058C279.181 60.7453 279.287 60.7046 279.399 60.686C279.619 60.6455 279.847 60.6928 280.033 60.8179C280.219 60.943 280.349 61.136 280.395 61.3555C281.185 65.4584 282.937 68.2222 285.633 69.3209C291.627 71.9989 300.421 66.7459 300.507 66.6772C300.703 66.5588 300.938 66.5231 301.16 66.5778C301.382 66.6325 301.573 66.7733 301.692 66.969C301.81 67.1648 301.846 67.3996 301.791 67.6217C301.737 67.8439 301.596 68.0352 301.4 68.1535C297.783 70.2907 293.709 71.5381 289.515 71.7929Z" fill="#231F20"/>
<path d="M293.448 82.4362C293.448 82.4362 282.37 82.6251 277.149 79.6896C277.149 79.6896 281.649 92.2727 293.757 95.2597L293.448 82.4362Z" fill="#231F20"/>
<path d="M293.757 96.0665H293.551C281.151 92.9937 276.548 80.4792 276.376 79.947C276.311 79.7831 276.299 79.6028 276.341 79.4316C276.384 79.2603 276.48 79.1069 276.615 78.993C276.75 78.8791 276.917 78.8105 277.093 78.7968C277.269 78.7832 277.445 78.8253 277.596 78.917C282.542 81.698 293.345 81.5435 293.448 81.5435C293.676 81.533 293.899 81.6083 294.074 81.7545C294.249 81.9007 294.363 82.1072 294.393 82.3332L294.702 95.1739C294.704 95.288 294.684 95.4015 294.642 95.5076C294.599 95.6137 294.537 95.7104 294.457 95.7919C294.377 95.8735 294.281 95.9382 294.176 95.9824C294.071 96.0266 293.957 96.0494 293.843 96.0494L293.757 96.0665ZM278.935 81.389C280.653 84.8224 285.015 91.689 292.967 94.1267L292.675 83.2774C288.027 83.3282 283.397 82.6918 278.935 81.389Z" fill="#231F20"/>
<path d="M438.783 92.2898C435.571 89.423 414.738 102.59 414.738 102.59C415.631 94.367 416.713 88.1183 414.738 87.9295C412.763 87.7407 404.725 109.868 404.725 109.868C404.725 109.868 378.069 148.768 375.922 149.85C373.776 150.931 332.521 81.5607 332.521 81.5607C309.06 107.139 326.63 143.069 326.63 143.069C326.63 143.069 370.1 197.779 379.22 197.247C386.588 196.818 411.148 152.888 420.285 136.082C420.285 136.082 426.623 125.782 429.199 121.971C431.776 118.16 440.208 110.177 443.97 105.697C447.731 101.216 442.098 95.1567 438.783 92.2898Z" fill="white"/>
<path d="M379.1 198.036C369.568 198.036 330.46 149.163 326.012 143.567C325.737 143.052 308.39 106.693 331.954 81.0285C332.037 80.9403 332.139 80.8726 332.252 80.8308C332.365 80.7891 332.487 80.7745 332.607 80.7882C332.728 80.7968 332.845 80.836 332.947 80.902C333.05 80.9681 333.133 81.0588 333.191 81.1659C348.562 106.916 372.161 145.575 375.905 148.991C378.584 146.331 393.973 124.323 404.089 109.508C412.316 86.9339 414.223 87.0884 414.892 87.1914C415.11 87.209 415.321 87.2715 415.513 87.3749C415.706 87.4784 415.874 87.6204 416.009 87.7922C417.108 89.1484 416.782 92.4444 416.009 99.1909C416.009 99.8089 415.871 100.444 415.785 101.096C421.917 97.2682 436.189 88.8909 439.332 91.6719C445.773 97.4055 447.628 102.556 444.588 106.178C443.008 108.066 440.655 110.521 438.164 113.044C435.214 115.964 432.444 119.06 429.869 122.314C427.327 126.005 421.041 136.288 420.972 136.391C408.589 159.154 386.622 197.487 379.271 197.934L379.1 198.036ZM332.401 82.8825C310.64 107.706 327.248 142.382 327.334 142.726C344.509 164.321 372.453 196.474 379.048 196.474H379.168C383.891 196.183 399.383 172.905 419.598 135.704C419.684 135.567 425.987 125.267 428.564 121.525C431.16 118.202 433.959 115.043 436.945 112.066C439.418 109.491 441.754 107.053 443.3 105.199C446.563 101.32 441.496 95.809 438.147 92.8735C436.43 91.3457 424.854 97.1137 415.116 103.328C414.988 103.404 414.843 103.443 414.695 103.443C414.547 103.443 414.401 103.404 414.274 103.328C414.148 103.25 414.046 103.137 413.983 103.003C413.919 102.869 413.895 102.72 413.913 102.573C414.051 101.354 414.188 100.169 414.308 99.0535C414.772 95.0537 415.408 89.6119 414.721 88.8565C413.261 90.1955 408.915 100.581 405.412 110.195C405.415 110.258 405.415 110.321 405.412 110.384C400.929 116.907 378.533 149.506 376.317 150.605C375.356 151.103 374.342 151.618 352.753 116.546C343.685 101.749 334.668 86.6935 332.401 82.8825Z" fill="#231F20"/>
<path d="M419.993 115.791C419.897 115.813 419.798 115.813 419.701 115.791C419.512 115.711 419.361 115.561 419.281 115.372C419.201 115.182 419.198 114.97 419.272 114.778C421.848 108.323 414.686 103.585 414.394 103.397C414.293 103.349 414.203 103.28 414.13 103.195C414.057 103.109 414.004 103.01 413.972 102.902C413.941 102.794 413.933 102.681 413.949 102.57C413.965 102.459 414.005 102.353 414.065 102.258C414.125 102.164 414.205 102.083 414.298 102.022C414.392 101.96 414.498 101.92 414.609 101.902C414.72 101.885 414.833 101.891 414.941 101.921C415.049 101.951 415.15 102.003 415.236 102.075C415.322 102.075 423.823 107.705 420.732 115.362C420.663 115.497 420.557 115.609 420.426 115.685C420.295 115.761 420.145 115.798 419.993 115.791Z" fill="#231F20"/>
<path d="M415.51 184.612H135.472V404.054H415.51V184.612Z" fill="white"/>
<path d="M415.511 404.843H135.559C135.349 404.843 135.148 404.76 135 404.612C134.852 404.464 134.768 404.263 134.768 404.054V184.612C134.768 184.509 134.789 184.408 134.829 184.313C134.869 184.218 134.927 184.132 135.001 184.06C135.074 183.988 135.162 183.931 135.257 183.894C135.353 183.856 135.456 183.838 135.559 183.84H415.511C415.718 183.84 415.916 183.921 416.064 184.065C416.211 184.209 416.297 184.406 416.301 184.612V404.054C416.297 404.262 416.212 404.46 416.065 404.607C415.918 404.754 415.719 404.839 415.511 404.843ZM136.246 403.35H414.721V185.333H136.246V403.35Z" fill="#231F20"/>
<path d="M265.796 345.876L176.177 342.305C176.064 342.301 175.953 342.274 175.851 342.227C175.748 342.18 175.656 342.113 175.58 342.03C175.503 341.947 175.443 341.85 175.405 341.744C175.366 341.638 175.348 341.525 175.352 341.413L177.791 280.248C177.806 280.02 177.904 279.807 178.066 279.647C178.237 279.498 178.458 279.419 178.684 279.424L268.304 282.977C268.53 282.99 268.742 283.091 268.896 283.257C269.05 283.424 269.133 283.643 269.128 283.87L266.655 344.983C266.643 345.206 266.544 345.415 266.38 345.567C266.309 345.656 266.221 345.729 266.12 345.782C266.02 345.836 265.909 345.867 265.796 345.876ZM177.07 340.623L264.972 344.056L267.342 284.591L179.44 281.158L177.07 340.623Z" fill="#D1D3D4"/>
<path d="M279.073 266.532L218.05 265.072C217.824 265.067 217.608 264.975 217.449 264.815C217.295 264.646 217.21 264.426 217.208 264.197L218.634 205.281C218.636 205.168 218.661 205.057 218.706 204.954C218.751 204.85 218.816 204.757 218.898 204.679C218.979 204.601 219.075 204.539 219.18 204.498C219.285 204.457 219.397 204.437 219.51 204.44L280.533 205.899C280.645 205.903 280.756 205.93 280.859 205.977C280.961 206.024 281.053 206.091 281.13 206.174C281.207 206.257 281.266 206.354 281.305 206.46C281.344 206.566 281.362 206.679 281.357 206.792L279.949 265.708C279.94 265.933 279.848 266.147 279.691 266.308C279.518 266.453 279.299 266.532 279.073 266.532ZM218.96 263.373L278.248 264.798L279.622 207.598L220.334 206.191L218.96 263.373Z" fill="#D1D3D4"/>
<path d="M339.632 267.991L278.609 266.532C278.496 266.527 278.385 266.501 278.283 266.453C278.18 266.406 278.088 266.339 278.012 266.256C277.935 266.173 277.876 266.076 277.837 265.97C277.798 265.864 277.78 265.752 277.785 265.639L279.193 206.74C279.194 206.628 279.217 206.517 279.261 206.414C279.305 206.31 279.37 206.217 279.451 206.139C279.531 206.058 279.628 205.995 279.735 205.954C279.841 205.913 279.955 205.894 280.069 205.899L341.092 207.358C341.205 207.362 341.317 207.388 341.42 207.435C341.523 207.482 341.616 207.549 341.693 207.633C341.771 207.711 341.831 207.805 341.87 207.909C341.908 208.013 341.924 208.123 341.916 208.234L340.508 267.15C340.499 267.376 340.403 267.59 340.239 267.747C340.076 267.903 339.858 267.991 339.632 267.991ZM279.519 264.832L338.807 266.257L340.181 209.058L280.876 207.65L279.519 264.832Z" fill="#D1D3D4"/>
<path d="M269.128 256.18L233.061 255.322C232.833 255.322 232.614 255.231 232.453 255.07C232.292 254.909 232.202 254.691 232.202 254.463C232.202 254.236 232.292 254.017 232.453 253.856C232.614 253.696 232.833 253.605 233.061 253.605L269.128 254.463C269.354 254.472 269.569 254.568 269.725 254.732C269.882 254.895 269.97 255.113 269.97 255.339C269.965 255.561 269.875 255.772 269.718 255.929C269.561 256.086 269.35 256.176 269.128 256.18Z" fill="#D1D3D4"/>
<path d="M269.368 246.223L233.301 245.348C233.187 245.348 233.075 245.325 232.971 245.281C232.866 245.236 232.772 245.171 232.693 245.089C232.615 245.008 232.553 244.911 232.513 244.805C232.473 244.699 232.455 244.586 232.459 244.472C232.462 244.36 232.486 244.248 232.531 244.145C232.576 244.042 232.642 243.948 232.723 243.87C232.804 243.792 232.9 243.731 233.005 243.69C233.11 243.649 233.222 243.629 233.335 243.631L269.403 244.507C269.63 244.507 269.849 244.597 270.01 244.758C270.171 244.919 270.261 245.137 270.261 245.365C270.261 245.593 270.171 245.811 270.01 245.972C269.849 246.133 269.63 246.223 269.403 246.223H269.368Z" fill="#D1D3D4"/>
<path d="M269.609 236.25L233.542 235.391C233.429 235.389 233.318 235.365 233.214 235.319C233.111 235.274 233.017 235.209 232.939 235.128C232.861 235.046 232.8 234.951 232.759 234.845C232.718 234.74 232.698 234.628 232.7 234.516C232.717 234.292 232.815 234.083 232.977 233.928C233.139 233.773 233.352 233.682 233.576 233.675L269.643 234.533C269.871 234.546 270.085 234.646 270.242 234.812C270.398 234.978 270.485 235.197 270.485 235.426C270.476 235.65 270.379 235.862 270.215 236.016C270.052 236.17 269.834 236.254 269.609 236.25Z" fill="#D1D3D4"/>
<path d="M269.832 226.293L233.765 225.417C233.652 225.417 233.539 225.395 233.435 225.35C233.33 225.306 233.236 225.241 233.157 225.159C233.079 225.077 233.018 224.98 232.977 224.874C232.937 224.768 232.919 224.655 232.923 224.542C232.944 224.32 233.044 224.112 233.204 223.958C233.365 223.803 233.577 223.712 233.799 223.701L269.867 224.576C269.979 224.578 270.089 224.603 270.192 224.648C270.294 224.694 270.386 224.759 270.463 224.841C270.54 224.922 270.6 225.018 270.639 225.123C270.678 225.228 270.696 225.34 270.691 225.452C270.687 225.676 270.594 225.89 270.434 226.048C270.273 226.205 270.057 226.293 269.832 226.293Z" fill="#D1D3D4"/>
<path d="M270.073 216.319L234.006 215.461C233.781 215.452 233.569 215.355 233.414 215.191C233.26 215.028 233.176 214.81 233.181 214.585C233.198 214.362 233.297 214.152 233.458 213.997C233.62 213.842 233.833 213.752 234.057 213.744L270.125 214.602C270.237 214.607 270.348 214.633 270.451 214.681C270.553 214.728 270.645 214.795 270.722 214.878C270.799 214.961 270.858 215.058 270.897 215.164C270.936 215.27 270.954 215.382 270.949 215.495C270.947 215.607 270.922 215.717 270.877 215.82C270.831 215.922 270.766 216.014 270.684 216.091C270.603 216.168 270.507 216.228 270.402 216.267C270.297 216.306 270.185 216.324 270.073 216.319Z" fill="#D1D3D4"/>
<path d="M327.42 227.666L291.353 226.808C291.24 226.806 291.129 226.781 291.025 226.736C290.922 226.691 290.829 226.626 290.751 226.544C290.672 226.463 290.611 226.367 290.57 226.262C290.529 226.157 290.509 226.045 290.511 225.932C290.509 225.818 290.53 225.705 290.573 225.599C290.617 225.494 290.682 225.398 290.764 225.319C290.847 225.24 290.945 225.179 291.052 225.14C291.159 225.101 291.273 225.084 291.387 225.091L327.455 225.95C327.679 225.959 327.892 226.055 328.046 226.219C328.2 226.383 328.284 226.6 328.279 226.825C328.279 226.937 328.257 227.048 328.213 227.151C328.17 227.254 328.106 227.348 328.027 227.426C327.947 227.504 327.852 227.566 327.748 227.607C327.644 227.648 327.532 227.669 327.42 227.666Z" fill="#D1D3D4"/>
<path d="M327.66 217.71L291.593 216.834C291.481 216.832 291.371 216.807 291.268 216.762C291.166 216.716 291.073 216.651 290.997 216.57C290.92 216.488 290.86 216.392 290.821 216.287C290.782 216.182 290.764 216.07 290.769 215.959C290.771 215.846 290.795 215.735 290.84 215.631C290.886 215.528 290.951 215.435 291.032 215.357C291.114 215.278 291.209 215.217 291.315 215.176C291.42 215.135 291.532 215.115 291.645 215.117L327.712 215.993C327.94 215.993 328.158 216.083 328.319 216.244C328.48 216.405 328.571 216.624 328.571 216.851C328.571 217.079 328.48 217.297 328.319 217.458C328.158 217.619 327.94 217.71 327.712 217.71H327.66Z" fill="#D1D3D4"/>
<path d="M326.647 259.974L289.567 259.15C289.337 259.141 289.121 259.042 288.963 258.875C288.806 258.709 288.72 258.487 288.725 258.257L289.292 234.911C289.297 234.685 289.389 234.469 289.549 234.31C289.719 234.156 289.939 234.071 290.168 234.069L327.231 234.962C327.344 234.964 327.455 234.989 327.559 235.034C327.662 235.079 327.755 235.144 327.834 235.225C327.912 235.307 327.973 235.403 328.014 235.508C328.055 235.613 328.075 235.725 328.073 235.838L327.506 259.15C327.498 259.375 327.406 259.589 327.249 259.751C327.08 259.892 326.867 259.97 326.647 259.974ZM290.46 257.433L325.806 258.274L326.338 236.644L290.992 235.786L290.46 257.433Z" fill="#D1D3D4"/>
<path d="M235.208 84.0499C235.208 84.0499 187.204 141.593 181.038 160.939C174.872 180.286 220.369 240.953 220.369 240.953C220.369 240.953 235.208 260.249 242.301 256.146C249.394 252.043 242.301 230.756 242.301 230.756C242.301 230.756 254.787 237.846 252.091 232.044C249.394 226.241 232.941 221.486 232.941 221.486L212.623 160.768L229.128 140.322" fill="white"/>
<path d="M240.102 257.433C232.408 257.433 221.21 243.168 219.802 241.348C217.93 238.859 174.168 180.114 180.299 160.665C186.431 141.215 232.614 85.921 234.572 83.5691C234.634 83.4782 234.715 83.4013 234.809 83.3434C234.903 83.2856 235.008 83.248 235.118 83.2332C235.227 83.2184 235.338 83.2267 235.444 83.2575C235.55 83.2882 235.648 83.3409 235.733 83.4119C235.817 83.483 235.886 83.571 235.934 83.6702C235.982 83.7693 236.009 83.8775 236.013 83.9877C236.017 84.098 235.998 84.2078 235.957 84.3101C235.916 84.4125 235.853 84.5051 235.774 84.582C235.293 85.1485 187.805 142.176 181.793 161.128C175.782 180.08 220.574 239.837 221.021 240.438C225.023 245.588 236.599 258.532 241.923 255.425C247.247 252.317 243.486 236.713 241.562 230.979C241.516 230.827 241.515 230.664 241.561 230.511C241.607 230.358 241.697 230.223 241.82 230.121C241.941 230.021 242.089 229.96 242.245 229.945C242.401 229.93 242.558 229.961 242.696 230.035C246.749 232.335 251.043 233.966 251.696 233.468C251.696 233.468 251.781 233.194 251.386 232.37C249.308 227.872 237.217 223.529 232.734 222.224C232.614 222.19 232.504 222.127 232.414 222.04C232.324 221.953 232.257 221.846 232.219 221.726L211.953 161.025C211.911 160.901 211.902 160.767 211.926 160.638C211.95 160.509 212.006 160.388 212.09 160.287L228.475 139.841C228.539 139.76 228.618 139.693 228.708 139.643C228.798 139.593 228.897 139.561 228.999 139.55C229.102 139.539 229.205 139.548 229.304 139.578C229.403 139.607 229.495 139.656 229.574 139.721C229.734 139.852 229.836 140.041 229.859 140.246C229.881 140.451 229.822 140.658 229.694 140.82L213.584 160.922L233.627 220.851C236.238 221.641 250.253 226.121 252.863 231.717C253.482 233.056 253.465 234.035 252.863 234.636C251.386 235.992 246.801 233.966 243.744 232.37C245.324 237.777 249.154 253.141 242.816 256.815C241.985 257.266 241.047 257.48 240.102 257.433Z" fill="#231F20"/>
<path d="M146.997 133.593C146.997 133.593 144.953 119.465 133.549 115.929C122.145 112.392 89.306 113.045 85.8194 138.245C82.3329 163.446 94.6989 181.437 105.021 186.741L130.217 184.149L146.997 133.593Z" fill="white"/>
<path d="M105.021 187.651C104.891 187.677 104.756 187.677 104.626 187.651C95.0766 182.741 81.2851 164.991 84.9777 138.262C85.4104 134.468 86.7084 130.823 88.7719 127.609C90.8354 124.395 93.6093 121.697 96.88 119.722C108.507 112.341 125.837 112.598 133.875 115.104C145.657 118.778 147.821 132.872 147.907 133.473C147.94 133.602 147.94 133.738 147.907 133.868L131.127 184.475C131.075 184.631 130.98 184.769 130.852 184.873C130.724 184.976 130.569 185.041 130.406 185.059L105.21 187.651H105.021ZM121.286 115.207C113.608 115.207 104.626 116.787 97.7388 121.164C94.7153 123.002 92.1489 125.502 90.2329 128.476C88.3169 131.45 87.1014 134.819 86.6781 138.331C83.14 163.961 96.0728 180.973 105.193 185.831L129.513 183.411L146.052 133.524C145.76 131.808 143.27 119.791 133.257 116.752C129.361 115.669 125.329 115.149 121.286 115.207Z" fill="#231F20"/>
<path d="M130.389 139.121L132.604 152.322C132.604 152.322 127.641 142.279 122.746 150.897C117.851 159.515 131.917 170.81 131.917 170.81L128.98 183.033L103.012 185.625L99.5767 211.375C99.5767 211.375 138.117 216.988 137.482 216.01C137.259 215.684 140.093 190.586 140.093 190.586C140.093 190.586 147.134 193.419 151.05 182.226C154.966 171.033 147.048 133.524 147.048 133.524L130.389 139.121Z" fill="white"/>
<path d="M136.589 216.971C133.738 216.971 125.339 216.061 99.4049 212.285C99.1827 212.251 98.9827 212.131 98.8478 211.951C98.713 211.772 98.654 211.546 98.6835 211.323L102.119 185.573C102.141 185.383 102.229 185.205 102.366 185.071C102.504 184.937 102.683 184.854 102.874 184.835L128.242 182.312L130.921 171.205C128.499 169.162 117.181 158.914 121.938 150.605C123.45 147.944 125.253 146.639 127.091 146.691C127.863 146.77 128.611 147.002 129.293 147.373C129.974 147.745 130.574 148.248 131.058 148.854L129.478 139.412C129.443 139.211 129.48 139.003 129.584 138.827C129.688 138.651 129.851 138.517 130.045 138.451L146.653 132.923C146.763 132.869 146.883 132.841 147.005 132.841C147.128 132.841 147.248 132.869 147.357 132.923C147.461 132.984 147.552 133.066 147.623 133.164C147.694 133.261 147.744 133.372 147.77 133.49C148.096 135.018 155.687 171.256 151.737 182.638C150.209 187.033 147.993 189.917 145.193 191.221C143.793 191.864 142.231 192.073 140.711 191.822C139.646 201.281 138.186 214.808 138.203 216.044C138.242 216.264 138.199 216.49 138.083 216.679C138.1 216.765 137.911 216.971 136.589 216.971ZM100.521 210.723C113.317 212.577 132.862 215.237 136.589 215.34C136.589 213.298 137.224 207.564 139.148 190.552C139.166 190.422 139.212 190.298 139.283 190.188C139.354 190.079 139.449 189.986 139.56 189.917C139.677 189.858 139.807 189.827 139.938 189.827C140.069 189.827 140.198 189.858 140.316 189.917C141.712 190.36 143.224 190.249 144.541 189.608C146.894 188.526 148.783 185.985 150.157 182.071C153.592 172.201 147.495 140.648 146.31 134.777L131.316 139.773L133.429 152.253C133.458 152.454 133.415 152.66 133.307 152.832C133.2 153.005 133.034 153.133 132.84 153.195C132.646 153.257 132.436 153.248 132.249 153.17C132.061 153.092 131.907 152.949 131.814 152.768C131.213 151.549 129.186 148.39 127.074 148.339C125.837 148.339 124.618 149.317 123.45 151.395C118.967 159.274 132.295 170.106 132.432 170.278C132.561 170.38 132.657 170.517 132.709 170.672C132.761 170.828 132.766 170.995 132.724 171.153L129.787 183.376C129.743 183.549 129.647 183.704 129.512 183.82C129.377 183.937 129.209 184.01 129.032 184.028L103.75 186.415L100.521 210.723Z" fill="#231F20"/>
<path d="M148.182 153.214C148.182 153.214 158.04 166.038 156.563 167.978C155.086 169.918 150.002 169.986 150.002 169.986" fill="white"/>
<path d="M150.002 170.844C149.778 170.845 149.562 170.756 149.401 170.599C149.241 170.442 149.148 170.228 149.144 170.003C149.148 169.778 149.237 169.563 149.393 169.401C149.549 169.238 149.76 169.141 149.985 169.128C151.703 169.128 154.983 168.613 155.876 167.411C156.203 166.209 151.823 159.326 147.495 153.678C147.363 153.494 147.306 153.266 147.339 153.042C147.371 152.818 147.488 152.615 147.667 152.476C147.85 152.346 148.075 152.29 148.298 152.318C148.521 152.347 148.725 152.458 148.869 152.631C153.54 158.725 158.796 166.364 157.233 168.441C155.67 170.518 150.586 170.793 150.02 170.793L150.002 170.844Z" fill="#231F20"/>
<path d="M142.641 152.069C143.331 151.897 143.49 150.147 142.996 148.16C142.502 146.172 141.541 144.7 140.851 144.872C140.161 145.043 140.002 146.794 140.496 148.781C140.99 150.768 141.95 152.24 142.641 152.069Z" fill="#231F20"/>
<path d="M148.629 182.792C148.363 182.797 148.097 182.768 147.839 182.707C145.211 182.071 145.159 176.561 145.211 174.896C145.213 174.768 145.246 174.642 145.306 174.529C145.365 174.416 145.45 174.318 145.554 174.243C145.653 174.161 145.77 174.104 145.896 174.077C146.022 174.05 146.152 174.054 146.276 174.089L152.15 175.497C152.371 175.553 152.562 175.695 152.681 175.891C152.8 176.086 152.837 176.321 152.785 176.544C152.759 176.655 152.711 176.759 152.644 176.852C152.577 176.944 152.492 177.022 152.394 177.081C152.297 177.14 152.189 177.179 152.076 177.196C151.963 177.213 151.848 177.207 151.737 177.179L146.928 176.012C146.928 178.432 147.512 180.853 148.251 181.041C148.432 181.091 148.622 181.103 148.808 181.076C148.994 181.05 149.173 180.985 149.333 180.887C150.045 180.269 150.539 179.439 150.741 178.518C150.766 178.407 150.812 178.302 150.877 178.21C150.942 178.117 151.025 178.038 151.12 177.977C151.216 177.916 151.323 177.875 151.435 177.856C151.547 177.837 151.661 177.84 151.772 177.866C151.99 177.922 152.178 178.061 152.296 178.253C152.415 178.445 152.454 178.675 152.407 178.896C152.116 180.26 151.349 181.477 150.243 182.329C149.761 182.635 149.2 182.796 148.629 182.792Z" fill="#231F20"/>
<path d="M193.558 307.32C193.558 307.32 203.142 315.525 210.441 311.646C217.741 307.766 219.784 303.663 219.784 303.663C219.784 303.663 222.292 314.392 225.04 311.422C225.409 311.038 225.697 310.583 225.886 310.084C226.074 309.586 226.16 309.054 226.137 308.521C226.115 307.989 225.985 307.466 225.755 306.985C225.525 306.505 225.2 306.075 224.8 305.723C224.8 305.723 229.815 313.706 230.278 309.362C230.742 305.019 227.307 300.47 227.307 300.47C227.307 300.47 242.146 311.422 241.459 304.813C240.772 298.204 227.719 289.758 217.964 289.758C208.208 289.758 189.9 295.011 189.9 295.011" fill="white"/>
<path d="M206.061 313.551C199.604 313.551 193.318 308.247 192.991 307.972C192.821 307.82 192.717 307.608 192.7 307.38C192.684 307.152 192.758 306.927 192.905 306.753C192.984 306.673 193.077 306.61 193.181 306.566C193.284 306.523 193.395 306.501 193.507 306.501C193.619 306.501 193.729 306.523 193.833 306.566C193.936 306.61 194.029 306.673 194.108 306.753C194.211 306.753 203.331 314.53 210.029 310.976C216.727 307.423 218.994 303.406 219.011 303.371C219.094 303.215 219.221 303.087 219.377 303.004C219.534 302.921 219.712 302.888 219.887 302.908C220.063 302.925 220.23 302.998 220.362 303.115C220.495 303.232 220.587 303.388 220.626 303.56C221.433 306.994 222.979 310.89 224.061 311.165C224.061 311.165 224.284 311.165 224.456 310.925C224.865 310.547 225.154 310.058 225.289 309.518C225.423 308.979 225.396 308.411 225.212 307.886C224.817 307.32 224.439 306.753 224.13 306.17C224.026 305.994 223.989 305.787 224.024 305.586C224.059 305.385 224.165 305.204 224.322 305.073C224.479 304.943 224.677 304.873 224.881 304.876C225.085 304.879 225.281 304.954 225.435 305.088C225.99 305.609 226.428 306.241 226.723 306.942C227.429 308.037 228.331 308.991 229.385 309.757C229.408 309.598 229.408 309.436 229.385 309.277C229.797 305.346 226.62 301.037 226.586 300.985C226.46 300.821 226.4 300.617 226.416 300.411C226.432 300.205 226.523 300.012 226.671 299.869C226.818 299.727 227.01 299.641 227.214 299.625C227.418 299.609 227.621 299.665 227.788 299.784C232.683 303.406 238.866 306.805 240.326 305.964C240.6 305.809 240.618 305.294 240.566 304.899C239.913 298.633 227.221 290.617 217.929 290.617C208.346 290.617 190.295 295.767 190.106 295.767C189.885 295.825 189.65 295.795 189.451 295.683C189.252 295.57 189.105 295.385 189.041 295.166C188.982 294.949 189.011 294.719 189.12 294.523C189.229 294.328 189.41 294.182 189.625 294.119C190.381 293.895 208.105 288.831 217.929 288.831C228.114 288.831 241.545 297.552 242.266 304.659C242.391 305.17 242.354 305.707 242.16 306.196C241.966 306.685 241.625 307.101 241.184 307.388C238.917 308.676 233.593 305.672 229.9 303.286C230.816 305.187 231.23 307.291 231.103 309.397C230.982 310.547 230.519 311.234 229.763 311.405C229.007 311.577 227.857 310.89 226.86 309.86C226.612 310.638 226.189 311.348 225.624 311.938C225.382 312.248 225.056 312.482 224.683 312.61C224.311 312.738 223.91 312.755 223.528 312.659C221.588 312.144 220.093 308.247 219.389 305.637C217.005 308.422 214.084 310.699 210.802 312.332C209.347 313.126 207.718 313.545 206.061 313.551Z" fill="#231F20"/>
<path d="M135.473 374.166C135.473 374.166 135.473 341.309 137.482 305.054C139.491 268.798 153.18 254.275 141.552 218.705C129.925 183.136 96.2792 187.599 79.5851 201.436C45.6301 229.572 14.3201 315.491 32.0618 376.381C32.0618 376.295 70.8602 392.706 135.473 374.166Z" fill="#EB7100"/>
<path d="M100.315 227.975C100.315 229.795 81.6111 318.255 93.9256 326.46C106.24 334.666 196.563 315.989 196.563 315.989L195.653 291.354L142.273 285.432C142.273 285.432 157.336 218.482 130.886 200.646C104.437 182.81 100.315 227.975 100.315 227.975Z" fill="#EB7100"/>
<path d="M108.336 331.576C98.4946 331.576 88.7907 329.413 84.892 321.843C76.1843 304.882 99.7827 215.152 100.796 211.341C100.824 211.228 100.874 211.122 100.944 211.029C101.013 210.935 101.1 210.856 101.199 210.797C101.299 210.737 101.41 210.697 101.525 210.68C101.64 210.663 101.757 210.669 101.87 210.697C101.982 210.725 102.088 210.775 102.182 210.844C102.275 210.914 102.354 211 102.414 211.1C102.474 211.2 102.513 211.31 102.53 211.425C102.547 211.54 102.542 211.657 102.514 211.77C102.256 212.697 78.0564 304.676 86.4721 321.053C94.7161 337.121 133.892 326.203 134.287 326.1C134.515 326.036 134.759 326.065 134.965 326.181C135.171 326.297 135.323 326.49 135.387 326.718C135.45 326.945 135.421 327.189 135.305 327.395C135.189 327.601 134.996 327.753 134.768 327.817C126.145 330.146 117.267 331.409 108.336 331.576Z" fill="#231F20"/>
<path d="M142.222 286.29C139.972 286.204 128.74 285.604 127.726 281.535C126.799 277.827 138.976 242.052 141.466 234.996C141.539 234.78 141.695 234.602 141.899 234.5C142.104 234.399 142.34 234.383 142.557 234.456C142.773 234.528 142.952 234.684 143.053 234.889C143.155 235.093 143.171 235.329 143.098 235.546C137.482 251.854 128.808 278.634 129.358 281.123C129.873 283.2 137.207 284.385 142.239 284.556C142.467 284.556 142.685 284.647 142.846 284.808C143.007 284.969 143.098 285.187 143.098 285.415C143.098 285.642 143.007 285.861 142.846 286.022C142.685 286.183 142.467 286.273 142.239 286.273L142.222 286.29Z" fill="#231F20"/>
<path d="M21.0694 234.155C33.8476 234.687 49.494 235.426 61.1215 235.992C65.7455 236.215 70.1346 238.095 73.4844 241.289C76.8343 244.483 78.9207 248.776 79.3613 253.382L88.9621 352.176H135.472V391.162L17.1535 387.625L1.14636 255.717C0.813431 252.946 1.08638 250.136 1.94635 247.48C2.80631 244.825 4.23279 242.388 6.12721 240.338C8.02163 238.288 10.3388 236.673 12.9186 235.606C15.4985 234.538 18.2794 234.043 21.0694 234.155Z" fill="#231F20"/>
<path d="M135.472 392.02L17.1537 388.466C16.9503 388.464 16.7546 388.387 16.603 388.252C16.4515 388.116 16.3542 387.93 16.3293 387.728L0.322225 255.854C-0.0145365 252.967 0.277818 250.042 1.17921 247.279C2.08059 244.516 3.56966 241.981 5.54411 239.847C7.51857 237.714 9.93162 236.033 12.6175 234.92C15.3034 233.807 18.1985 233.289 21.104 233.4C34.0883 233.932 50.061 234.687 61.1561 235.219C65.9786 235.477 70.5502 237.449 74.046 240.78C77.5418 244.11 79.7316 248.58 80.2203 253.382L89.7353 351.403H135.472C135.584 351.403 135.695 351.426 135.798 351.469C135.902 351.512 135.995 351.576 136.074 351.656C136.152 351.736 136.214 351.831 136.255 351.935C136.296 352.039 136.316 352.15 136.314 352.262V391.161C136.317 391.277 136.295 391.391 136.251 391.498C136.206 391.604 136.14 391.7 136.056 391.779C135.9 391.932 135.691 392.018 135.472 392.02ZM17.9094 386.87L134.614 390.303V353.051H88.9624C88.7517 353.048 88.5496 352.968 88.3944 352.825C88.2393 352.683 88.1419 352.489 88.1208 352.279L78.52 253.485C78.0832 249.086 76.0852 244.988 72.8876 241.934C69.69 238.879 65.5041 237.07 61.0874 236.833C49.9752 236.284 34.0196 235.528 21.0353 234.996C18.3688 234.888 15.7105 235.359 13.2443 236.379C10.7781 237.398 8.56272 238.94 6.75144 240.899C4.94015 242.858 3.57615 245.187 2.75374 247.724C1.93133 250.262 1.67013 252.948 1.9882 255.596L17.9094 386.87Z" fill="#231F20"/>
<path d="M429.732 207.822C411.595 214.259 352.444 308.024 362.749 324.744C373.054 341.464 416.335 331.834 416.335 331.834L415.528 361.996L527.165 360.159C527.165 360.159 552.292 249.811 535.753 221.83C519.145 194.174 447.851 201.367 429.732 207.822Z" fill="#EB7100"/>
<path d="M530.463 234.138C517.427 234.67 501.266 235.426 489.363 236.009C484.863 236.228 480.591 238.059 477.33 241.167C474.069 244.275 472.036 248.453 471.604 252.936L461.969 352.176H415.459V391.162L533.778 387.625L549.854 255.15C550.182 252.451 549.919 249.713 549.084 247.126C548.249 244.538 546.861 242.163 545.017 240.165C543.173 238.166 540.916 236.592 538.403 235.552C535.89 234.511 533.181 234.029 530.463 234.138Z" fill="#231F20"/>
<path d="M415.459 392.02C415.241 392.018 415.031 391.932 414.875 391.779C414.791 391.7 414.725 391.604 414.681 391.498C414.636 391.391 414.615 391.277 414.618 391.161V352.176C414.615 352.064 414.635 351.953 414.677 351.849C414.718 351.745 414.78 351.65 414.858 351.57C414.936 351.49 415.03 351.427 415.133 351.383C415.236 351.34 415.347 351.318 415.459 351.318H461.196L470.746 252.867C471.217 248.18 473.349 243.815 476.757 240.561C480.164 237.306 484.623 235.375 489.329 235.116C500.836 234.567 517.307 233.777 530.429 233.245C533.271 233.133 536.103 233.639 538.73 234.727C541.358 235.816 543.717 237.462 545.646 239.551C547.575 241.641 549.026 244.124 549.901 246.829C550.776 249.534 551.053 252.396 550.712 255.219L534.637 387.694C534.612 387.896 534.514 388.082 534.363 388.217C534.211 388.353 534.016 388.429 533.812 388.432L415.494 391.985L415.459 392.02ZM416.318 353.034V390.286L533.022 386.853L549.012 255.116C549.328 252.539 549.08 249.924 548.283 247.452C547.487 244.981 546.162 242.713 544.4 240.805C542.638 238.897 540.482 237.395 538.081 236.404C535.681 235.413 533.093 234.956 530.497 235.065C517.393 235.597 500.922 236.37 489.415 236.936C485.125 237.167 481.058 238.921 477.947 241.883C474.837 244.844 472.886 248.819 472.446 253.09L462.811 352.33C462.79 352.54 462.692 352.735 462.537 352.877C462.382 353.019 462.18 353.1 461.969 353.103L416.318 353.034Z" fill="#231F20"/>
<path d="M416.335 332.692C416.222 332.679 416.112 332.644 416.013 332.589C415.913 332.533 415.826 332.459 415.756 332.369C415.685 332.28 415.633 332.177 415.603 332.068C415.573 331.958 415.565 331.843 415.579 331.731C416.283 325.516 423.72 256.747 423.789 256.06C423.814 255.832 423.928 255.624 424.107 255.481C424.286 255.337 424.514 255.271 424.742 255.296C424.97 255.321 425.178 255.435 425.321 255.614C425.465 255.793 425.531 256.021 425.506 256.249C425.42 256.935 418.001 325.705 417.279 331.937C417.249 332.16 417.134 332.363 416.958 332.503C416.783 332.644 416.559 332.712 416.335 332.692Z" fill="#231F20"/>
<path d="M447.525 163.875C447.179 162.305 447.239 160.673 447.699 159.132C448.159 157.591 449.003 156.193 450.153 155.068C450.76 154.407 451.581 153.982 452.471 153.867C452.998 153.866 453.516 153.998 453.978 154.25C454.44 154.502 454.831 154.866 455.116 155.309C455.673 156.199 456.046 157.191 456.215 158.227C456.897 161.039 456.991 163.961 456.49 166.81C455.979 169.698 454.472 172.316 452.231 174.209" fill="white"/>
<path d="M452.231 175.136C452.101 175.14 451.972 175.112 451.856 175.055C451.739 174.998 451.638 174.914 451.561 174.81C451.418 174.634 451.351 174.41 451.374 174.185C451.396 173.959 451.507 173.752 451.681 173.608C453.774 171.86 455.179 169.427 455.648 166.742C456.139 163.984 456.051 161.155 455.391 158.433C455.234 157.514 454.902 156.634 454.412 155.841C454.211 155.519 453.933 155.251 453.603 155.063C453.274 154.874 452.902 154.77 452.523 154.759C451.854 154.866 451.245 155.207 450.805 155.721C449.756 156.739 448.984 158.009 448.564 159.408C448.143 160.808 448.087 162.293 448.401 163.72C448.428 163.829 448.434 163.942 448.417 164.052C448.4 164.163 448.36 164.269 448.301 164.363C448.241 164.458 448.163 164.54 448.071 164.603C447.979 164.667 447.875 164.711 447.765 164.733C447.544 164.785 447.312 164.747 447.119 164.628C446.926 164.509 446.788 164.318 446.735 164.098C446.356 162.383 446.422 160.599 446.927 158.916C447.432 157.234 448.359 155.708 449.62 154.485C450.369 153.682 451.38 153.171 452.471 153.043C453.142 153.016 453.809 153.16 454.409 153.46C455.01 153.76 455.525 154.207 455.906 154.759C456.539 155.739 456.966 156.837 457.16 157.987C457.877 160.939 457.971 164.009 457.435 166.999C456.883 170.085 455.267 172.879 452.866 174.896C452.783 174.978 452.683 175.042 452.574 175.083C452.464 175.124 452.347 175.143 452.231 175.136Z" fill="#231F20"/>
<path d="M477.89 126.469C479.512 131.358 482.49 135.686 486.478 138.949C490.913 142.903 496.612 145.148 502.553 145.283C507.191 145.283 512.429 142.691 513.185 138.108C513.7 135.052 512.068 132.048 510.231 129.524C504.688 121.737 496.684 116.041 487.508 113.353C484.726 112.632 480.827 111.894 478.543 114.16C475.726 117.061 476.825 123.07 477.89 126.469Z" fill="#231F20"/>
<path d="M502.348 146.142C496.3 145.942 490.513 143.627 485.997 139.601C481.852 136.25 478.752 131.782 477.066 126.726C476.379 124.546 474.421 117.147 478.011 113.577C480.536 111.07 484.555 111.705 487.801 112.547C497.158 115.298 505.326 121.099 511.004 129.027C512.618 131.258 514.714 134.623 514.095 138.262C513.254 143.412 507.689 146.073 502.623 146.142H502.348ZM482.957 113.525C482.279 113.482 481.599 113.574 480.957 113.795C480.314 114.016 479.721 114.362 479.213 114.813C476.912 117.113 477.496 122.211 478.698 126.228C480.306 130.946 483.218 135.113 487.096 138.245C491.363 142.049 496.839 144.22 502.554 144.374C506.796 144.374 511.674 142.039 512.361 137.919C512.739 135.653 511.863 133.129 509.561 129.988C504.118 122.379 496.291 116.803 487.32 114.143C485.897 113.755 484.432 113.542 482.957 113.508V113.525Z" fill="#231F20"/>
<path d="M526.856 131.417C533.287 120.283 528.345 105.397 515.817 98.1676C503.29 90.9384 487.921 94.1037 481.49 105.237C475.059 116.371 480.001 131.257 492.528 138.486C505.056 145.715 520.424 142.55 526.856 131.417Z" fill="white"/>
<path d="M506.693 143.241C501.561 143.207 496.527 141.828 492.094 139.241C485.988 135.794 481.356 130.23 479.076 123.602C478.007 120.53 477.608 117.265 477.904 114.026C478.2 110.787 479.185 107.649 480.793 104.822C487.457 93.3027 503.378 89.9896 516.294 97.4399C529.21 104.89 534.293 120.323 527.647 131.773C525.992 134.576 523.757 136.993 521.091 138.861C518.425 140.73 515.389 142.006 512.189 142.605C510.383 143.001 508.542 143.214 506.693 143.241ZM501.626 95.1739C497.75 95.0595 493.912 95.9729 490.504 97.8212C487.095 99.6695 484.236 102.387 482.219 105.697C480.737 108.319 479.835 111.228 479.574 114.228C479.313 117.228 479.7 120.249 480.707 123.087C482.91 129.283 487.248 134.491 492.945 137.779C498.642 141.066 505.325 142.218 511.794 141.026C514.755 140.475 517.564 139.296 520.031 137.57C522.499 135.844 524.569 133.61 526.101 131.018C532.301 120.306 527.492 105.903 515.384 98.9334C511.211 96.4859 506.465 95.1831 501.626 95.1567V95.1739Z" fill="#231F20"/>
<path d="M375.974 379.574H300.627C300.399 379.574 300.181 379.484 300.02 379.323C299.859 379.162 299.768 378.943 299.768 378.716V335.095C299.768 334.868 299.859 334.649 300.02 334.488C300.181 334.327 300.399 334.237 300.627 334.237H375.974C376.201 334.237 376.42 334.327 376.581 334.488C376.742 334.649 376.832 334.868 376.832 335.095V378.716C376.832 378.943 376.742 379.162 376.581 379.323C376.42 379.484 376.201 379.574 375.974 379.574ZM301.486 377.857H375.115V335.954H301.486V377.857Z" fill="#D1D3D4"/>
<path d="M375.974 387.299H300.627C300.399 387.299 300.181 387.209 300.02 387.048C299.859 386.887 299.768 386.668 299.768 386.441V378.716C299.768 378.488 299.859 378.27 300.02 378.109C300.181 377.948 300.399 377.857 300.627 377.857H375.974C376.201 377.857 376.42 377.948 376.581 378.109C376.742 378.27 376.832 378.488 376.832 378.716V386.441C376.832 386.668 376.742 386.887 376.581 387.048C376.42 387.209 376.201 387.299 375.974 387.299ZM301.486 385.582H375.115V379.574H301.486V385.582Z" fill="#D1D3D4"/>
<path d="M322.456 370.733H309.85C309.622 370.733 309.404 370.643 309.243 370.482C309.082 370.321 308.991 370.103 308.991 369.875V342.511C308.991 342.284 309.082 342.065 309.243 341.904C309.404 341.743 309.622 341.653 309.85 341.653H322.474C322.701 341.653 322.92 341.743 323.081 341.904C323.242 342.065 323.332 342.284 323.332 342.511V369.892C323.33 370.005 323.306 370.116 323.26 370.219C323.215 370.322 323.15 370.416 323.069 370.494C322.987 370.572 322.891 370.633 322.786 370.674C322.681 370.716 322.569 370.735 322.456 370.733ZM310.692 369.017H321.598V343.37H310.692V369.017Z" fill="#D1D3D4"/>
<path d="M332.452 313.551H304.697C304.471 313.547 304.255 313.455 304.095 313.295C303.935 313.135 303.843 312.919 303.839 312.693V293.998C303.839 293.77 303.929 293.552 304.09 293.391C304.251 293.23 304.47 293.14 304.697 293.14H332.435C332.663 293.14 332.881 293.23 333.042 293.391C333.203 293.552 333.294 293.77 333.294 293.998V312.693C333.29 312.916 333.2 313.129 333.044 313.289C332.887 313.448 332.676 313.542 332.452 313.551ZM305.573 311.834H331.594V294.856H305.573V311.834Z" fill="#D1D3D4"/>
</svg>
